<svg xmlns="http://www.w3.org/2000/svg" viewBox="0 0 96 96">
<title>Vinary Viewer</title><defs><linearGradient id="vvbg" x1="0" y1="0" x2="0" y2="1"><stop offset="0" stop-color="#46305e"></stop><stop offset="0.55" stop-color="#2a1e3f"></stop><stop offset="1" stop-color="#211737"></stop></linearGradient></defs>
<rect width="96" height="96" rx="21" fill="url(#vvbg)"></rect>
<g transform="translate(48 48) scale(0.9) translate(-48 -48)">
<path d="M27 10 H57 L74 27 V86 H27 Z" fill="#f8f5ec"></path>
<path d="M57 10 L57 27 H74 Z" fill="#6fa847"></path>
<path d="M48 57 L39 38.5 M48 57 L57 38.5" fill="none" stroke="#3e6b26" stroke-width="4" stroke-linecap="round"></path>
<polygon points="37,34.3 40.7,37 36.7,38.9" fill="#3e6b26"></polygon>
<polygon points="59,34.3 55.3,37 59.3,38.9" fill="#3e6b26"></polygon>
<circle cx="35" cy="30" r="5.2" fill="#f8f5ec" stroke="#3e6b26" stroke-width="2"></circle>
<circle cx="35" cy="30" r="2.4" fill="#6fa847"></circle>
<circle cx="61" cy="30" r="5.2" fill="#f8f5ec" stroke="#3e6b26" stroke-width="2"></circle>
<circle cx="61" cy="30" r="2.4" fill="#6fa847"></circle>
<path d="M42.5 33 L48 44 L53.5 33" fill="none" stroke="#8fbf62" stroke-width="3" stroke-linecap="round" stroke-linejoin="round"></path>
<circle cx="48" cy="57" r="4.6" fill="#d4a94a" stroke="#f8f5ec" stroke-width="1.6"></circle>
<circle cx="35.8" cy="67.7" r="1.8" fill="#d4a94a"></circle>
<rect x="40" y="66" width="12" height="3.4" rx="1.7" fill="#aebd9c"></rect>
<circle cx="57" cy="67.7" r="1.8" fill="#d4a94a"></circle>
<rect x="34" y="74" width="8" height="3.4" rx="1.7" fill="#aebd9c"></rect>
<circle cx="47" cy="75.7" r="1.8" fill="#d4a94a"></circle>
<rect x="52" y="74" width="14" height="3.4" rx="1.7" fill="#aebd9c"></rect></g>
</svg>