<svg xmlns="http://www.w3.org/2000/svg" xmlns:xlink="http://www.w3.org/1999/xlink" contentStyleType="text/css" data-diagram-type="ACTIVITY" height="1031px" preserveAspectRatio="none" style="width:915px;height:1031px;background:#FBF8EF;" version="1.1" viewBox="0 0 915 1031" width="915px" zoomAndPan="magnify"><?plantuml $version$?><defs/><g><rect fill="#FBF8EF" height="1031" style="stroke:none;stroke-width:1;" width="915" x="0" y="0"/><g class="title" data-source-line="6"><text fill="#000000" font-family="'Inter, Helvetica, sans-serif'" font-size="14" font-weight="700" lengthAdjust="spacing" textLength="432.9904" x="240.1863" y="34.9659">Key-binding editor &#8212; undo / redo as a data-command lifecycle</text><text fill="#000000" font-family="'Inter, Helvetica, sans-serif'" font-size="14" font-weight="700" lengthAdjust="spacing" textLength="199.0653" x="357.1488" y="54.0339">[:ui :kbedit] {:undo [] :redo []}</text></g><rect fill="#FFFFCC" height="65.86" rx="2.5" ry="2.5" style="stroke:#FFDD88;stroke-width:3;" width="884.3629" x="13" y="72.1358"/><text fill="#000000" font-family="monospace" font-size="10" lengthAdjust="spacing" textLength="534" x="20" y="84.7558">This&#160;syntax&#160;is&#160;deprecated,&#160;you&#160;must&#160;add&#160;&lt;&lt;#BC6EC5&gt;&gt;&#160;at&#160;the&#160;end&#160;of&#160;the&#160;line,&#160;after&#160;the&#160;';'</text><text fill="#000000" font-family="monospace" font-size="10" lengthAdjust="spacing" textLength="534" x="20" y="108.3758">This&#160;syntax&#160;is&#160;deprecated,&#160;you&#160;must&#160;add&#160;&lt;&lt;#7590DB&gt;&gt;&#160;at&#160;the&#160;end&#160;of&#160;the&#160;line,&#160;after&#160;the&#160;';'</text><text fill="#000000" font-family="monospace" font-size="10" lengthAdjust="spacing" textLength="534" x="20" y="131.9958">This&#160;syntax&#160;is&#160;deprecated,&#160;you&#160;must&#160;add&#160;&lt;&lt;#B1951D&gt;&gt;&#160;at&#160;the&#160;end&#160;of&#160;the&#160;line,&#160;after&#160;the&#160;';'</text><ellipse cx="344.1636" cy="154.9958" fill="#222222" rx="10" ry="10" style="stroke:#222222;stroke-width:1;"/><rect fill="#EAF6FF" height="52.6882" rx="4" ry="4" style="stroke:#4C66AE;stroke-width:0.5;" width="287.8179" x="200.2547" y="184.9958"/><text fill="#1A1A1A" font-family="'Inter, Helvetica, sans-serif'" font-size="12" lengthAdjust="spacing" textLength="139.021" x="210.2547" y="207.8239">user edits a binding / set</text><text fill="#1A1A1A" font-family="'Inter, Helvetica, sans-serif'" font-size="12" lengthAdjust="spacing" textLength="267.8179" x="210.2547" y="224.168">(capture C-x C-f, delete, rename, reorder, clone)</text><rect fill="#EAF6FF" height="36.3441" rx="4" ry="4" style="stroke:#4C66AE;stroke-width:0.5;" width="230.6615" x="228.8329" y="257.684"/><text fill="#1A1A1A" font-family="'Inter, Helvetica, sans-serif'" font-size="12" lengthAdjust="spacing" textLength="210.6615" x="238.8329" y="280.5121">build a data-command  cmd = {:op &#8230;}</text><rect fill="#EAF6FF" height="36.3441" rx="4" ry="4" style="stroke:#4C66AE;stroke-width:0.5;" width="164.2876" x="262.0198" y="314.0281"/><text fill="#1A1A1A" font-family="'Inter, Helvetica, sans-serif'" font-size="12" lengthAdjust="spacing" textLength="144.2876" x="272.0198" y="336.8562">apply-cmd db cmd  &#8594;  db'</text><rect fill="#EAF6FF" height="36.3441" rx="4" ry="4" style="stroke:#4C66AE;stroke-width:0.5;" width="210.1053" x="239.1109" y="370.3723"/><text fill="#1A1A1A" font-family="'Inter, Helvetica, sans-serif'" font-size="12" lengthAdjust="spacing" textLength="190.1053" x="249.1109" y="393.2003">push cmd onto :undo,  clear :redo</text><rect fill="#EAF6FF" height="36.3441" rx="4" ry="4" style="stroke:#4C66AE;stroke-width:0.5;" width="244.5216" x="221.9028" y="426.7164"/><text fill="#1A1A1A" font-family="'Inter, Helvetica, sans-serif'" font-size="12" lengthAdjust="spacing" textLength="224.5216" x="231.9028" y="449.5445">install-active (live) + persist (debounced)</text><polygon fill="#FFF6D6" points="147.1404,483.0605,238.6697,483.0605,250.6697,495.0605,238.6697,507.0605,147.1404,507.0605,135.1404,495.0605,147.1404,483.0605" style="stroke:#7F6B14;stroke-width:0.5;stroke-linejoin:miter;stroke-miterlimit:10;"/><text fill="#000000" font-family="'Inter, Helvetica, sans-serif'" font-size="11" lengthAdjust="spacing" textLength="17.0829" x="196.905" y="518.8194">yes</text><text fill="#1A1A1A" font-family="'Inter, Helvetica, sans-serif'" font-size="11" lengthAdjust="spacing" textLength="91.5292" x="147.1404" y="499.3284">Ctrl+Z  /  &#8630; Undo?</text><polygon fill="#FFF6D6" points="145.7924,540.3194,240.0177,540.3194,252.0177,552.3194,240.0177,564.3194,145.7924,564.3194,133.7924,552.3194,145.7924,540.3194" style="stroke:#7F6B14;stroke-width:0.5;stroke-linejoin:miter;stroke-miterlimit:10;"/><text fill="#1A1A1A" font-family="'Inter, Helvetica, sans-serif'" font-size="11" lengthAdjust="spacing" textLength="94.2253" x="145.7924" y="556.5874">:undo non-empty?</text><text fill="#000000" font-family="'Inter, Helvetica, sans-serif'" font-size="11" lengthAdjust="spacing" textLength="17.0829" x="116.7095" y="549.0964">yes</text><text fill="#000000" font-family="'Inter, Helvetica, sans-serif'" font-size="11" lengthAdjust="spacing" textLength="32.8348" x="252.0177" y="549.0964">empty</text><rect fill="#EAF6FF" height="52.6882" rx="4" ry="4" style="stroke:#4C66AE;stroke-width:0.5;" width="201.0319" x="17.8907" y="574.3194"/><text fill="#1A1A1A" font-family="'Inter, Helvetica, sans-serif'" font-size="12" lengthAdjust="spacing" textLength="103.7874" x="27.8907" y="597.1475">cmd &#8592; peek :undo</text><text fill="#1A1A1A" font-family="'Inter, Helvetica, sans-serif'" font-size="12" lengthAdjust="spacing" textLength="181.0319" x="27.8907" y="613.4916">apply-cmd db (invert cmd) &#8594; db'</text><rect fill="#EAF6FF" height="36.3441" rx="4" ry="4" style="stroke:#4C66AE;stroke-width:0.5;" width="204.8133" x="16" y="661.6706"/><text fill="#1A1A1A" font-family="'Inter, Helvetica, sans-serif'" font-size="12" lengthAdjust="spacing" textLength="184.8133" x="26" y="684.4987">pop :undo,  push cmd onto :redo</text><rect fill="#EAF6FF" height="36.3441" rx="4" ry="4" style="stroke:#4C66AE;stroke-width:0.5;" width="141.2969" x="47.7582" y="718.0147"/><text fill="#1A1A1A" font-family="'Inter, Helvetica, sans-serif'" font-size="12" lengthAdjust="spacing" textLength="121.2969" x="57.7582" y="740.8428">install-active + persist</text><rect fill="#EAF6FF" height="36.3441" rx="4" ry="4" style="stroke:#4C66AE;stroke-width:0.5;" width="53.1802" x="240.8133" y="574.3194"/><text fill="#1A1A1A" font-family="'Inter, Helvetica, sans-serif'" font-size="12" lengthAdjust="spacing" textLength="33.1802" x="250.8133" y="597.1475">no-op</text><polygon fill="#FFF6D6" points="192.905,760.3589,204.905,772.3589,192.905,784.3589,180.905,772.3589,192.905,760.3589" style="stroke:#7F6B14;stroke-width:0.5;stroke-linejoin:miter;stroke-miterlimit:10;"/><polygon fill="#FFF6D6" points="451.1696,483.0605,570.6276,483.0605,582.6276,495.0605,570.6276,507.0605,451.1696,507.0605,439.1696,495.0605,451.1696,483.0605" style="stroke:#7F6B14;stroke-width:0.5;stroke-linejoin:miter;stroke-miterlimit:10;"/><text fill="#000000" font-family="'Inter, Helvetica, sans-serif'" font-size="11" lengthAdjust="spacing" textLength="17.0829" x="514.8986" y="518.8194">yes</text><text fill="#1A1A1A" font-family="'Inter, Helvetica, sans-serif'" font-size="11" lengthAdjust="spacing" textLength="119.458" x="451.1696" y="499.3284">Ctrl+Shift+Z  /  &#8631; Redo?</text><text fill="#000000" font-family="'Inter, Helvetica, sans-serif'" font-size="11" lengthAdjust="spacing" textLength="72.5445" x="582.6276" y="491.8375">no history key</text><polygon fill="#FFF6D6" points="465.2104,540.3194,556.5868,540.3194,568.5868,552.3194,556.5868,564.3194,465.2104,564.3194,453.2104,552.3194,465.2104,540.3194" style="stroke:#7F6B14;stroke-width:0.5;stroke-linejoin:miter;stroke-miterlimit:10;"/><text fill="#1A1A1A" font-family="'Inter, Helvetica, sans-serif'" font-size="11" lengthAdjust="spacing" textLength="91.3763" x="465.2104" y="556.5874">:redo non-empty?</text><text fill="#000000" font-family="'Inter, Helvetica, sans-serif'" font-size="11" lengthAdjust="spacing" textLength="17.0829" x="436.1275" y="549.0964">yes</text><text fill="#000000" font-family="'Inter, Helvetica, sans-serif'" font-size="11" lengthAdjust="spacing" textLength="32.8348" x="568.5868" y="549.0964">empty</text><rect fill="#EAF6FF" height="52.6882" rx="4" ry="4" style="stroke:#4C66AE;stroke-width:0.5;" width="158.0476" x="357.3764" y="574.3194"/><text fill="#1A1A1A" font-family="'Inter, Helvetica, sans-serif'" font-size="12" lengthAdjust="spacing" textLength="100.6794" x="367.3764" y="597.1475">cmd &#8592; peek :redo</text><text fill="#1A1A1A" font-family="'Inter, Helvetica, sans-serif'" font-size="12" lengthAdjust="spacing" textLength="138.0476" x="367.3764" y="613.4916">apply-cmd db cmd &#8594; db'</text><rect fill="#EAF6FF" height="36.3441" rx="4" ry="4" style="stroke:#4C66AE;stroke-width:0.5;" width="204.8133" x="333.9935" y="661.6706"/><text fill="#1A1A1A" font-family="'Inter, Helvetica, sans-serif'" font-size="12" lengthAdjust="spacing" textLength="184.8133" x="343.9935" y="684.4987">pop :redo,  push cmd onto :undo</text><rect fill="#EAF6FF" height="36.3441" rx="4" ry="4" style="stroke:#4C66AE;stroke-width:0.5;" width="141.2969" x="365.7518" y="718.0147"/><text fill="#1A1A1A" font-family="'Inter, Helvetica, sans-serif'" font-size="12" lengthAdjust="spacing" textLength="121.2969" x="375.7518" y="740.8428">install-active + persist</text><rect fill="#EAF6FF" height="36.3441" rx="4" ry="4" style="stroke:#4C66AE;stroke-width:0.5;" width="53.1802" x="558.8069" y="574.3194"/><text fill="#1A1A1A" font-family="'Inter, Helvetica, sans-serif'" font-size="12" lengthAdjust="spacing" textLength="33.1802" x="568.8069" y="597.1475">no-op</text><polygon fill="#FFF6D6" points="510.8986,760.3589,522.8986,772.3589,510.8986,784.3589,498.8986,772.3589,510.8986,760.3589" style="stroke:#7F6B14;stroke-width:0.5;stroke-linejoin:miter;stroke-miterlimit:10;"/><rect fill="#EAF6FF" height="36.3441" rx="4" ry="4" style="stroke:#4C66AE;stroke-width:0.5;" width="40.3401" x="641.9871" y="647.0076"/><text fill="#1A1A1A" font-family="'Inter, Helvetica, sans-serif'" font-size="12" lengthAdjust="spacing" textLength="20.3401" x="651.9871" y="669.8357">idle</text><path d="M375.1636,814.3589 L375.1636,850.7709 L355.1636,854.7709 L375.1636,858.7709 L375.1636,895.1829 A0,0 0 0 0 375.1636,895.1829 L894.3629,895.1829 A0,0 0 0 0 894.3629,895.1829 L894.3629,824.3589 L884.3629,814.3589 L375.1636,814.3589 A0,0 0 0 0 375.1636,814.3589" fill="#FFF6D6" style="stroke:#7F6B14;stroke-width:0.5;"/><path d="M884.3629,814.3589 L884.3629,824.3589 L894.3629,824.3589 L884.3629,814.3589" fill="#FFF6D6" style="stroke:#7F6B14;stroke-width:0.5;"/><text fill="#000000" font-family="'Inter, Helvetica, sans-serif'" font-size="13" lengthAdjust="spacing" textLength="498.1993" x="381.1636" y="833.2559">Because :insert-set / :remove-set are mutual inverses that carry the removed set's</text><text fill="#000000" font-family="'Inter, Helvetica, sans-serif'" font-size="13" lengthAdjust="spacing" textLength="69.9791" x="381.1636" y="850.9619">cfg + index,</text><text fill="#000000" font-family="'Inter, Helvetica, sans-serif'" font-size="13" font-weight="700" lengthAdjust="spacing" textLength="361.1403" x="454.5227" y="850.9619">undoing a delete restores the set at its original position</text><text fill="#000000" font-family="'Inter, Helvetica, sans-serif'" font-size="13" lengthAdjust="spacing" textLength="3.484" x="815.6629" y="850.9619">.</text><text fill="#000000" font-family="'Inter, Helvetica, sans-serif'" font-size="13" lengthAdjust="spacing" textLength="210.7562" x="381.1636" y="868.6679">A real Ctrl+Shift+Z arrives as chord</text><text fill="#000000" font-family="'Inter, Helvetica, sans-serif'" font-size="13" font-weight="700" lengthAdjust="spacing" textLength="20.033" x="595.2998" y="868.6679">C-Z</text><text fill="#000000" font-family="'Inter, Helvetica, sans-serif'" font-size="13" lengthAdjust="spacing" textLength="177.2682" x="618.7128" y="868.6679">(Shift uppercases z); the redo</text><text fill="#000000" font-family="'Inter, Helvetica, sans-serif'" font-size="13" lengthAdjust="spacing" textLength="193.8562" x="381.1636" y="886.3739">listener accepts C-Z / C-S-z / C-y.</text><ellipse cx="344.1636" cy="854.7709" fill="none" rx="11" ry="11" style="stroke:#222222;stroke-width:1;"/><ellipse cx="344.1636" cy="854.7709" fill="#222222" rx="6" ry="6" style="stroke:#222222;stroke-width:1;"/><line style="stroke:#555555;stroke-width:1.3;" x1="344.1636" x2="344.1636" y1="164.9958" y2="184.9958"/><polygon fill="#555555" points="340.1636,174.9958,344.1636,184.9958,348.1636,174.9958,344.1636,178.9958" style="stroke:#555555;stroke-width:1;stroke-linejoin:miter;stroke-miterlimit:10;"/><line style="stroke:#555555;stroke-width:1.3;" x1="344.1636" x2="344.1636" y1="237.684" y2="257.684"/><polygon fill="#555555" points="340.1636,247.684,344.1636,257.684,348.1636,247.684,344.1636,251.684" style="stroke:#555555;stroke-width:1;stroke-linejoin:miter;stroke-miterlimit:10;"/><line style="stroke:#555555;stroke-width:1.3;" x1="344.1636" x2="344.1636" y1="294.0281" y2="314.0281"/><polygon fill="#555555" points="340.1636,304.0281,344.1636,314.0281,348.1636,304.0281,344.1636,308.0281" style="stroke:#555555;stroke-width:1;stroke-linejoin:miter;stroke-miterlimit:10;"/><line style="stroke:#555555;stroke-width:1.3;" x1="344.1636" x2="344.1636" y1="350.3723" y2="370.3723"/><polygon fill="#555555" points="340.1636,360.3723,344.1636,370.3723,348.1636,360.3723,344.1636,364.3723" style="stroke:#555555;stroke-width:1;stroke-linejoin:miter;stroke-miterlimit:10;"/><line style="stroke:#555555;stroke-width:1.3;" x1="344.1636" x2="344.1636" y1="406.7164" y2="426.7164"/><polygon fill="#555555" points="340.1636,416.7164,344.1636,426.7164,348.1636,416.7164,344.1636,420.7164" style="stroke:#555555;stroke-width:1;stroke-linejoin:miter;stroke-miterlimit:10;"/><line style="stroke:#555555;stroke-width:1.3;" x1="118.4067" x2="118.4067" y1="627.0076" y2="661.6706"/><polygon fill="#555555" points="114.4067,651.6706,118.4067,661.6706,122.4067,651.6706,118.4067,655.6706" style="stroke:#555555;stroke-width:1;stroke-linejoin:miter;stroke-miterlimit:10;"/><line style="stroke:#555555;stroke-width:1.3;" x1="118.4067" x2="118.4067" y1="698.0147" y2="718.0147"/><polygon fill="#555555" points="114.4067,708.0147,118.4067,718.0147,122.4067,708.0147,118.4067,712.0147" style="stroke:#555555;stroke-width:1;stroke-linejoin:miter;stroke-miterlimit:10;"/><line style="stroke:#555555;stroke-width:1.3;" x1="133.7924" x2="118.4067" y1="552.3194" y2="552.3194"/><line style="stroke:#555555;stroke-width:1.3;" x1="118.4067" x2="118.4067" y1="552.3194" y2="574.3194"/><polygon fill="#555555" points="114.4067,564.3194,118.4067,574.3194,122.4067,564.3194,118.4067,568.3194" style="stroke:#555555;stroke-width:1;stroke-linejoin:miter;stroke-miterlimit:10;"/><line style="stroke:#555555;stroke-width:1.3;" x1="252.0177" x2="267.4034" y1="552.3194" y2="552.3194"/><line style="stroke:#555555;stroke-width:1.3;" x1="267.4034" x2="267.4034" y1="552.3194" y2="574.3194"/><polygon fill="#555555" points="263.4034,564.3194,267.4034,574.3194,271.4034,564.3194,267.4034,568.3194" style="stroke:#555555;stroke-width:1;stroke-linejoin:miter;stroke-miterlimit:10;"/><line style="stroke:#555555;stroke-width:1.3;" x1="118.4067" x2="118.4067" y1="754.3589" y2="772.3589"/><line style="stroke:#555555;stroke-width:1.3;" x1="118.4067" x2="180.905" y1="772.3589" y2="772.3589"/><polygon fill="#555555" points="170.905,768.3589,180.905,772.3589,170.905,776.3589,174.905,772.3589" style="stroke:#555555;stroke-width:1;stroke-linejoin:miter;stroke-miterlimit:10;"/><line style="stroke:#555555;stroke-width:1.3;" x1="267.4034" x2="267.4034" y1="610.6635" y2="772.3589"/><line style="stroke:#555555;stroke-width:1.3;" x1="267.4034" x2="204.905" y1="772.3589" y2="772.3589"/><polygon fill="#555555" points="214.905,768.3589,204.905,772.3589,214.905,776.3589,210.905,772.3589" style="stroke:#555555;stroke-width:1;stroke-linejoin:miter;stroke-miterlimit:10;"/><line style="stroke:#555555;stroke-width:1.3;" x1="436.4002" x2="436.4002" y1="627.0076" y2="661.6706"/><polygon fill="#555555" points="432.4002,651.6706,436.4002,661.6706,440.4002,651.6706,436.4002,655.6706" style="stroke:#555555;stroke-width:1;stroke-linejoin:miter;stroke-miterlimit:10;"/><line style="stroke:#555555;stroke-width:1.3;" x1="436.4002" x2="436.4002" y1="698.0147" y2="718.0147"/><polygon fill="#555555" points="432.4002,708.0147,436.4002,718.0147,440.4002,708.0147,436.4002,712.0147" style="stroke:#555555;stroke-width:1;stroke-linejoin:miter;stroke-miterlimit:10;"/><line style="stroke:#555555;stroke-width:1.3;" x1="453.2104" x2="436.4002" y1="552.3194" y2="552.3194"/><line style="stroke:#555555;stroke-width:1.3;" x1="436.4002" x2="436.4002" y1="552.3194" y2="574.3194"/><polygon fill="#555555" points="432.4002,564.3194,436.4002,574.3194,440.4002,564.3194,436.4002,568.3194" style="stroke:#555555;stroke-width:1;stroke-linejoin:miter;stroke-miterlimit:10;"/><line style="stroke:#555555;stroke-width:1.3;" x1="568.5868" x2="585.397" y1="552.3194" y2="552.3194"/><line style="stroke:#555555;stroke-width:1.3;" x1="585.397" x2="585.397" y1="552.3194" y2="574.3194"/><polygon fill="#555555" points="581.397,564.3194,585.397,574.3194,589.397,564.3194,585.397,568.3194" style="stroke:#555555;stroke-width:1;stroke-linejoin:miter;stroke-miterlimit:10;"/><line style="stroke:#555555;stroke-width:1.3;" x1="436.4002" x2="436.4002" y1="754.3589" y2="772.3589"/><line style="stroke:#555555;stroke-width:1.3;" x1="436.4002" x2="498.8986" y1="772.3589" y2="772.3589"/><polygon fill="#555555" points="488.8986,768.3589,498.8986,772.3589,488.8986,776.3589,492.8986,772.3589" style="stroke:#555555;stroke-width:1;stroke-linejoin:miter;stroke-miterlimit:10;"/><line style="stroke:#555555;stroke-width:1.3;" x1="585.397" x2="585.397" y1="610.6635" y2="772.3589"/><line style="stroke:#555555;stroke-width:1.3;" x1="585.397" x2="522.8986" y1="772.3589" y2="772.3589"/><polygon fill="#555555" points="532.8986,768.3589,522.8986,772.3589,532.8986,776.3589,528.8986,772.3589" style="stroke:#555555;stroke-width:1;stroke-linejoin:miter;stroke-miterlimit:10;"/><line style="stroke:#555555;stroke-width:1.3;" x1="192.905" x2="192.905" y1="507.0605" y2="540.3194"/><polygon fill="#555555" points="188.905,530.3194,192.905,540.3194,196.905,530.3194,192.905,534.3194" style="stroke:#555555;stroke-width:1;stroke-linejoin:miter;stroke-miterlimit:10;"/><line style="stroke:#555555;stroke-width:1.3;" x1="192.905" x2="192.905" y1="784.3589" y2="804.3589"/><polygon fill="#555555" points="188.905,794.3589,192.905,804.3589,196.905,794.3589,192.905,798.3589" style="stroke:#555555;stroke-width:1;stroke-linejoin:miter;stroke-miterlimit:10;"/><line style="stroke:#555555;stroke-width:1.3;" x1="510.8986" x2="510.8986" y1="507.0605" y2="540.3194"/><polygon fill="#555555" points="506.8986,530.3194,510.8986,540.3194,514.8986,530.3194,510.8986,534.3194" style="stroke:#555555;stroke-width:1;stroke-linejoin:miter;stroke-miterlimit:10;"/><line style="stroke:#555555;stroke-width:1.3;" x1="510.8986" x2="510.8986" y1="784.3589" y2="804.3589"/><polygon fill="#555555" points="506.8986,794.3589,510.8986,804.3589,514.8986,794.3589,510.8986,798.3589" style="stroke:#555555;stroke-width:1;stroke-linejoin:miter;stroke-miterlimit:10;"/><line style="stroke:#555555;stroke-width:1.3;" x1="250.6697" x2="439.1696" y1="495.0605" y2="495.0605"/><polygon fill="#555555" points="429.1696,491.0605,439.1696,495.0605,429.1696,499.0605,433.1696,495.0605" style="stroke:#555555;stroke-width:1;stroke-linejoin:miter;stroke-miterlimit:10;"/><line style="stroke:#555555;stroke-width:1.3;" x1="344.1636" x2="344.1636" y1="463.0605" y2="468.0605"/><line style="stroke:#555555;stroke-width:1.3;" x1="344.1636" x2="192.905" y1="468.0605" y2="468.0605"/><line style="stroke:#555555;stroke-width:1.3;" x1="192.905" x2="192.905" y1="468.0605" y2="483.0605"/><polygon fill="#555555" points="188.905,473.0605,192.905,483.0605,196.905,473.0605,192.905,477.0605" style="stroke:#555555;stroke-width:1;stroke-linejoin:miter;stroke-miterlimit:10;"/><line style="stroke:#555555;stroke-width:1.3;" x1="582.6276" x2="662.1572" y1="495.0605" y2="495.0605"/><line style="stroke:#555555;stroke-width:1.3;" x1="662.1572" x2="662.1572" y1="495.0605" y2="647.0076"/><polygon fill="#555555" points="658.1572,637.0076,662.1572,647.0076,666.1572,637.0076,662.1572,641.0076" style="stroke:#555555;stroke-width:1;stroke-linejoin:miter;stroke-miterlimit:10;"/><line style="stroke:#555555;stroke-width:1.3;" x1="662.1572" x2="662.1572" y1="683.3517" y2="804.3589"/><polygon fill="#555555" points="658.1572,794.3589,662.1572,804.3589,666.1572,794.3589,662.1572,798.3589" style="stroke:#555555;stroke-width:1;stroke-linejoin:miter;stroke-miterlimit:10;"/><line style="stroke:#555555;stroke-width:1.3;" x1="192.905" x2="662.1572" y1="804.3589" y2="804.3589"/><line style="stroke:#555555;stroke-width:1.3;" x1="344.1636" x2="344.1636" y1="804.3589" y2="843.7709"/><polygon fill="#555555" points="340.1636,833.7709,344.1636,843.7709,348.1636,833.7709,344.1636,837.7709" style="stroke:#555555;stroke-width:1;stroke-linejoin:miter;stroke-miterlimit:10;"/><g class="legend" data-source-line="51"><rect fill="none" height="90.2717" rx="4" ry="4" style="stroke:#000000;stroke-width:1;" width="293.1489" x="598.214" y="917.1829"/><text fill="#000000" font-family="'Inter, Helvetica, sans-serif'" font-size="14" font-weight="700" lengthAdjust="spacing" textLength="46.0178" x="606.854" y="939.1489">Colour</text><text fill="#000000" font-family="'Inter, Helvetica, sans-serif'" font-size="14" font-weight="700" lengthAdjust="spacing" textLength="90.2156" x="660.1518" y="939.1489">Step concept</text><rect fill="#BC6EC5" height="19.0679" style="stroke:none;stroke-width:1;" width="53.2978" x="603.214" y="943.2508"/><text fill="#000000" font-family="'Inter, Helvetica, sans-serif'" font-size="14" lengthAdjust="spacing" textLength="3.64" x="603.214" y="958.2168">&#160;</text><text fill="#000000" font-family="'Inter, Helvetica, sans-serif'" font-size="14" lengthAdjust="spacing" textLength="222.5711" x="660.1518" y="958.2168">apply-cmd / invert (kbedit-history)</text><rect fill="#7590DB" height="19.0679" style="stroke:none;stroke-width:1;" width="53.2978" x="603.214" y="962.3188"/><text fill="#000000" font-family="'Inter, Helvetica, sans-serif'" font-size="14" lengthAdjust="spacing" textLength="3.64" x="603.214" y="977.2847">&#160;</text><text fill="#000000" font-family="'Inter, Helvetica, sans-serif'" font-size="14" lengthAdjust="spacing" textLength="179.7313" x="660.1518" y="977.2847">app-db :undo / :redo stacks</text><rect fill="#B1951D" height="19.0679" style="stroke:none;stroke-width:1;" width="53.2978" x="603.214" y="981.3867"/><text fill="#000000" font-family="'Inter, Helvetica, sans-serif'" font-size="14" lengthAdjust="spacing" textLength="3.64" x="603.214" y="996.3526">&#160;</text><text fill="#000000" font-family="'Inter, Helvetica, sans-serif'" font-size="14" lengthAdjust="spacing" textLength="124.6275" x="660.1518" y="996.3526">live install + persist</text><line style="stroke:#000000;stroke-width:1;" x1="603.214" x2="886.3629" y1="924.1829" y2="924.1829"/><line style="stroke:#000000;stroke-width:1;" x1="603.214" x2="886.3629" y1="943.2508" y2="943.2508"/><line style="stroke:#000000;stroke-width:1;" x1="603.214" x2="886.3629" y1="962.3188" y2="962.3188"/><line style="stroke:#000000;stroke-width:1;" x1="603.214" x2="886.3629" y1="981.3867" y2="981.3867"/><line style="stroke:#000000;stroke-width:1;" x1="603.214" x2="886.3629" y1="1000.4546" y2="1000.4546"/><line style="stroke:#000000;stroke-width:1;" x1="603.214" x2="603.214" y1="924.1829" y2="1000.4546"/><line style="stroke:#000000;stroke-width:1;" x1="656.5118" x2="656.5118" y1="924.1829" y2="1000.4546"/><line style="stroke:#000000;stroke-width:1;" x1="886.3629" x2="886.3629" y1="924.1829" y2="1000.4546"/></g><?plantuml-src hLLDRzj64BtpLqoHWpuYsZLGAmZLjB1e2mZgr87Te41i8rXnHz92ors2N2fMuW0zvHmKlVVMdz3y7_-IlbrIjkmqXmA58AsMEszctjkPOQT3BxKmxjMBOx8hBka5bxbGagQSYRfYSWkcsaYxMxAqb5l9cbH5WjAJdtyvFJccoV79hmtKlRLKEP4jAtght08scMPHHfqE0ReRt609ZgQbC1bCZ0mHH57eTPpbacx-_4pAm9qZMGkjt7ha7LbjQm3laXMPKokS4byL9LSLLzvHYCMPgfGrjyv3JaXz1HisCdOsnh8JVQDCfcl9z6QrYc6OyuwgSnr5JZdDz1EluwaoKfaviLJEbdJpsn_tM0WlX1HEn9dDSnzFgnbdQ_2-CET9hIXPJZtsajud0NX-IKc0dbz-YA9ggKmXIf7VqNaV4OsHxxoq0AJWNTAZeuF9S3Bn9xQKNBPFlqk7muCZF3rK8hT6VW6RJ2R3m-6MmHRw-SlqpVZazF3e5ESJQroBsJlmdyWdvqJfeWH5K0R-dkj6Zrsgs5sORYOAXtkXDBx2TpQ0-9eT3o2F4NbOGym1Ii4QxesYP5ehBH_AHlxgdq4aMq3alpwCeaVZT7YKxYTtbI6dmOfkFlvEs7HWysJ_wRU7uwIegqKu0mrBGUW1DSNNgEtTxJtTtpjCb04jhUEWDrDNuxT7ZwdWibALewxaAHJCM2BNICsecxfIFtvDe8p8VzChEF-nv-lAK7VDLG_oURFcUeqrCUU5Mpyq8TeG2aN-yHCYyhB9zSBS8zbjon_RNY0Rk0ON6xvGQSFo0VU6RHFlNndVKlLMhD7XtP1masHYR6oBS8IBdaNUu5Q4iuMQkLifFjCfVqMAKE3_MGgFUY15O_0r1JpWImMyBl-p0jGrbXP0s79DImwMYPAQHr5ZX9CYYenrJAMQBznMwutREUgpmAt6w1leXzpzF0exWVx9QuTXrmo-PfG9580e4SzFiCPQ-gRhL72QpUQWWLxagm7r-vwoxqhHjX_iVQxDIAGGmv5lO8lib46WmbRAOKRs-pjmTm007jwxPCHMVc1Yn6KBz332fF7hVf-wmOBg0YfcmYVxhZTgivGMtZI4OeEX8RAC2qG53fJJ-2n-5zRrZfUDl5nHf7dkDq4sWA-VKHfclVztvhZ0w3VU3Ltxq-_RqldXUkkLiRjvONIROHktLzNRO9gYQJ0noYffPtXJgEqhQ-C_r0ni_MIWjdIs1iIrpxr9-Xy0?></g></svg>