<svg xmlns="http://www.w3.org/2000/svg" xmlns:xlink="http://www.w3.org/1999/xlink" contentStyleType="text/css" data-diagram-type="ACTIVITY" height="1676px" preserveAspectRatio="none" style="width:3379px;height:1676px;background:#FBF8EF;" version="1.1" viewBox="0 0 3379 1676" width="3379px" zoomAndPan="magnify"><?plantuml $version$?><defs/><g><rect fill="#FBF8EF" height="1676" style="stroke:none;stroke-width:1;" width="3379" x="0" y="0"/><g class="title" data-source-line="8"><text fill="#000000" font-family="'Inter, Helvetica, sans-serif'" font-size="14" font-weight="700" lengthAdjust="spacing" textLength="472.6928" x="1452.2488" y="34.9659">Live-refresh spine &#8212; layer ownership of one file-change &#8594; re-render</text></g><rect fill="none" height="24.5158" style="stroke:none;stroke-width:1;" width="3332.1904" x="20" y="58.8419"/><rect fill="#9F8766" height="1404.8931" style="stroke:#9F8766;stroke-width:1;" width="217.8733" x="20" y="58.8419"/><ellipse cx="129.9367" cy="98.3577" fill="#222222" rx="10" ry="10" style="stroke:#222222;stroke-width:1;"/><rect fill="#F1F1F1" height="36.3441" rx="4" ry="4" style="stroke:#181818;stroke-width:0.5;" width="111.4527" x="74.2103" y="128.3577"/><text fill="#000000" font-family="'Inter, Helvetica, sans-serif'" font-size="12" lengthAdjust="spacing" textLength="91.4527" x="84.2103" y="151.1858">editor writes file</text><rect fill="#F1F1F1" height="69.0323" rx="4" ry="4" style="stroke:#181818;stroke-width:0.5;" width="207.8733" x="26" y="184.7018"/><text fill="#000000" font-family="'Inter, Helvetica, sans-serif'" font-size="12" lengthAdjust="spacing" textLength="187.8733" x="36" y="207.5299">chokidar watcher (per open path)</text><text fill="#000000" font-family="'Inter, Helvetica, sans-serif'" font-size="12" lengthAdjust="spacing" textLength="114.8288" x="36" y="223.874">fires "change"/"add"</text><text fill="#000000" font-family="'Inter, Helvetica, sans-serif'" font-size="12" lengthAdjust="spacing" textLength="164.6892" x="36" y="240.2182">after awaitWriteFinish (80ms)</text><line style="stroke:#000000;stroke-width:1.5;" x1="20" x2="20" y1="58.8419" y2="1463.735"/><rect fill="#3A5BA0" height="1404.8931" style="stroke:#3A5BA0;stroke-width:1;" width="768.5891" x="237.8733" y="58.8419"/><rect fill="#F1F1F1" height="36.3441" rx="4" ry="4" style="stroke:#181818;stroke-width:0.5;" width="88.5325" x="446.947" y="273.7342"/><text fill="#000000" font-family="'Inter, Helvetica, sans-serif'" font-size="12" lengthAdjust="spacing" textLength="68.5325" x="456.947" y="296.5623">kind-of path</text><polygon fill="#F1F1F1" points="479.2132,330.0783,503.2132,330.0783,515.2132,342.0783,503.2132,354.0783,479.2132,354.0783,467.2132,342.0783,479.2132,330.0783" style="stroke:#181818;stroke-width:0.5;stroke-linejoin:miter;stroke-miterlimit:10;"/><text fill="#000000" font-family="'Inter, Helvetica, sans-serif'" font-size="11" lengthAdjust="spacing" textLength="22.2748" x="480.0758" y="346.3463">kind</text><text fill="#000000" font-family="'Inter, Helvetica, sans-serif'" font-size="11" lengthAdjust="spacing" textLength="32.2628" x="434.9504" y="338.8553">image</text><text fill="#000000" font-family="'Inter, Helvetica, sans-serif'" font-size="11" lengthAdjust="spacing" textLength="85.5134" x="515.2132" y="338.8553">markdown / text</text><rect fill="#F1F1F1" height="52.6882" rx="4" ry="4" style="stroke:#181818;stroke-width:0.5;" width="181.0771" x="243.8733" y="364.0783"/><text fill="#000000" font-family="'Inter, Helvetica, sans-serif'" font-size="12" lengthAdjust="spacing" textLength="161.0771" x="253.8733" y="386.9064">send vv:content {:path :kind}</text><text fill="#000000" font-family="'Inter, Helvetica, sans-serif'" font-size="12" lengthAdjust="spacing" textLength="103.9327" x="253.8733" y="403.2505">(no :text &#8212; binary)</text><rect fill="#F1F1F1" height="36.3441" rx="4" ry="4" style="stroke:#181818;stroke-width:0.5;" width="129.8608" x="594.0937" y="364.0783"/><text fill="#000000" font-family="'Inter, Helvetica, sans-serif'" font-size="12" lengthAdjust="spacing" textLength="109.8608" x="604.0937" y="386.9064">fs.readFileSync utf8</text><polygon fill="#F1F1F1" points="637.1013,435.4224,680.947,435.4224,692.947,447.4224,680.947,459.4224,637.1013,459.4224,625.1013,447.4224,637.1013,435.4224" style="stroke:#181818;stroke-width:0.5;stroke-linejoin:miter;stroke-miterlimit:10;"/><text fill="#000000" font-family="'Inter, Helvetica, sans-serif'" font-size="11" lengthAdjust="spacing" textLength="43.8457" x="637.1013" y="451.6904">read ok?</text><text fill="#000000" font-family="'Inter, Helvetica, sans-serif'" font-size="11" lengthAdjust="spacing" textLength="17.0829" x="608.0184" y="444.1994">yes</text><text fill="#000000" font-family="'Inter, Helvetica, sans-serif'" font-size="11" lengthAdjust="spacing" textLength="35.8817" x="692.947" y="444.1994">throws</text><rect fill="#F1F1F1" height="36.3441" rx="4" ry="4" style="stroke:#181818;stroke-width:0.5;" width="209.1933" x="443.9408" y="469.4224"/><text fill="#000000" font-family="'Inter, Helvetica, sans-serif'" font-size="12" lengthAdjust="spacing" textLength="189.1933" x="453.9408" y="492.2505">send vv:content {:path :kind :text}</text><path d="M885.8874,473.7415 L885.8874,483.5945 L865.8874,487.5945 L885.8874,491.5945 L885.8874,501.4475 A0,0 0 0 0 885.8874,501.4475 L1001.4624,501.4475 A0,0 0 0 0 1001.4624,501.4475 L1001.4624,483.7415 L991.4624,473.7415 L885.8874,473.7415 A0,0 0 0 0 885.8874,473.7415" fill="#FFCCCC" style="stroke:#7F6B14;stroke-width:0.5;"/><path d="M991.4624,473.7415 L991.4624,483.7415 L1001.4624,483.7415 L991.4624,473.7415" fill="#FFCCCC" style="stroke:#7F6B14;stroke-width:0.5;"/><text fill="#000000" font-family="'Inter, Helvetica, sans-serif'" font-size="13" lengthAdjust="spacing" textLength="94.5751" x="891.8874" y="492.6385">error path (red)</text><rect fill="#F1F1F1" height="36.3441" rx="4" ry="4" style="stroke:#181818;stroke-width:0.5;" width="192.7532" x="673.1341" y="469.4224"/><text fill="#000000" font-family="'Inter, Helvetica, sans-serif'" font-size="12" lengthAdjust="spacing" textLength="172.7532" x="683.1341" y="492.2505">send vv:error {:path :message}</text><polygon fill="#F1F1F1" points="659.0241,511.7665,671.0241,523.7665,659.0241,535.7665,647.0241,523.7665,659.0241,511.7665" style="stroke:#181818;stroke-width:0.5;stroke-linejoin:miter;stroke-miterlimit:10;"/><polygon fill="#F1F1F1" points="491.2132,541.7665,503.2132,553.7665,491.2132,565.7665,479.2132,553.7665,491.2132,541.7665" style="stroke:#181818;stroke-width:0.5;stroke-linejoin:miter;stroke-miterlimit:10;"/><line style="stroke:#000000;stroke-width:1.5;" x1="237.8733" x2="237.8733" y1="58.8419" y2="1463.735"/><rect fill="#B1951D" height="1404.8931" style="stroke:#B1951D;stroke-width:1;" width="237.8641" x="1006.4624" y="58.8419"/><rect fill="#F1F1F1" height="52.6882" rx="4" ry="4" style="stroke:#181818;stroke-width:0.5;" width="227.8641" x="1012.4624" y="585.7665"/><text fill="#000000" font-family="'Inter, Helvetica, sans-serif'" font-size="12" lengthAdjust="spacing" textLength="126.2889" x="1022.4624" y="608.5946">preload contextBridge</text><text fill="#000000" font-family="'Inter, Helvetica, sans-serif'" font-size="12" lengthAdjust="spacing" textLength="207.8641" x="1022.4624" y="624.9387">webContents.send &#8594; ipcRenderer.on</text><rect fill="#F1F1F1" height="36.3441" rx="4" ry="4" style="stroke:#181818;stroke-width:0.5;" width="196.6053" x="1028.0919" y="658.4548"/><text fill="#000000" font-family="'Inter, Helvetica, sans-serif'" font-size="12" lengthAdjust="spacing" textLength="176.6053" x="1038.0919" y="681.2828">window.vv.onContent / onError</text><line style="stroke:#000000;stroke-width:1.5;" x1="1006.4624" x2="1006.4624" y1="58.8419" y2="1463.735"/><rect fill="#2D9574" height="1404.8931" style="stroke:#2D9574;stroke-width:1;" width="602.5079" x="1244.3265" y="58.8419"/><rect fill="#F1F1F1" height="36.3441" rx="4" ry="4" style="stroke:#181818;stroke-width:0.5;" width="289.4259" x="1537.8484" y="714.7989"/><text fill="#000000" font-family="'Inter, Helvetica, sans-serif'" font-size="12" lengthAdjust="spacing" textLength="269.4259" x="1547.8484" y="737.627">rf/dispatch [:content/received] / [:content/error]</text><rect fill="#F1F1F1" height="52.6882" rx="4" ry="4" style="stroke:#181818;stroke-width:0.5;" width="298.5461" x="1533.2883" y="771.143"/><text fill="#000000" font-family="'Inter, Helvetica, sans-serif'" font-size="12" lengthAdjust="spacing" textLength="169.7892" x="1543.2883" y="793.9711">event handler (PURE) builds tx</text><text fill="#000000" font-family="'Inter, Helvetica, sans-serif'" font-size="12" lengthAdjust="spacing" textLength="278.5461" x="1543.2883" y="810.3152">(cond-&gt; omit nil :doc/text; retract stale :doc/error)</text><rect fill="#F1F1F1" height="36.3441" rx="4" ry="4" style="stroke:#181818;stroke-width:0.5;" width="272.9618" x="1250.3265" y="1013.7784"/><text fill="#000000" font-family="'Inter, Helvetica, sans-serif'" font-size="12" lengthAdjust="spacing" textLength="252.9618" x="1260.3265" y="1036.6064">fx :markdown/render (async unified pipeline)</text><rect fill="#F1F1F1" height="36.3441" rx="4" ry="4" style="stroke:#181818;stroke-width:0.5;" width="234.8601" x="1269.3774" y="1084.1474"/><text fill="#000000" font-family="'Inter, Helvetica, sans-serif'" font-size="12" lengthAdjust="spacing" textLength="214.8601" x="1279.3774" y="1106.9755">.then &#8594; [:content/rendered path html]</text><line style="stroke:#000000;stroke-width:1.5;" x1="1244.3265" x2="1244.3265" y1="58.8419" y2="1463.735"/><rect fill="#A45BAD" height="1404.8931" style="stroke:#A45BAD;stroke-width:1;" width="873.336" x="1846.8344" y="58.8419"/><rect fill="#F1F1F1" height="36.3441" rx="4" ry="4" style="stroke:#181818;stroke-width:0.5;" width="394.5468" x="2080.179" y="843.8312"/><text fill="#000000" font-family="'Inter, Helvetica, sans-serif'" font-size="12" font-weight="700" lengthAdjust="spacing" textLength="72.1325" x="2090.179" y="866.6593">:ds/transact</text><text fill="#000000" font-family="'Inter, Helvetica, sans-serif'" font-size="12" lengthAdjust="spacing" textLength="299.2942" x="2165.4316" y="866.6593">{:doc/path :doc/kind :doc/text :doc/open? :doc/order}</text><rect fill="#F1F1F1" height="36.3441" rx="4" ry="4" style="stroke:#181818;stroke-width:0.5;" width="225.1267" x="2164.889" y="900.1753"/><text fill="#000000" font-family="'Inter, Helvetica, sans-serif'" font-size="12" lengthAdjust="spacing" textLength="205.1267" x="2174.889" y="923.0034">bridge &#8594; [:ds/changed] &#8594; :ds/rev inc</text><polygon fill="#F1F1F1" points="1927.8165,956.5194,2022.6139,956.5194,2034.6139,968.5194,2022.6139,980.5194,1927.8165,980.5194,1915.8165,968.5194,1927.8165,956.5194" style="stroke:#181818;stroke-width:0.5;stroke-linejoin:miter;stroke-miterlimit:10;"/><text fill="#000000" font-family="'Inter, Helvetica, sans-serif'" font-size="11" lengthAdjust="spacing" textLength="17.0829" x="1979.2152" y="992.2784">yes</text><text fill="#000000" font-family="'Inter, Helvetica, sans-serif'" font-size="11" lengthAdjust="spacing" textLength="94.7973" x="1927.8165" y="972.7874">kind = markdown?</text><rect fill="#F1F1F1" height="36.3441" rx="4" ry="4" style="stroke:#181818;stroke-width:0.5;" width="244.7616" x="1852.8344" y="1145.5345"/><text fill="#000000" font-family="'Inter, Helvetica, sans-serif'" font-size="12" font-weight="700" lengthAdjust="spacing" textLength="72.1325" x="1862.8344" y="1168.3626">:ds/transact</text><text fill="#000000" font-family="'Inter, Helvetica, sans-serif'" font-size="12" lengthAdjust="spacing" textLength="149.509" x="1938.087" y="1168.3626">{:doc/path :doc/html html}</text><polygon fill="#F1F1F1" points="2247.6943,956.5194,2306.7199,956.5194,2318.7199,968.5194,2306.7199,980.5194,2247.6943,980.5194,2235.6943,968.5194,2247.6943,956.5194" style="stroke:#181818;stroke-width:0.5;stroke-linejoin:miter;stroke-miterlimit:10;"/><text fill="#000000" font-family="'Inter, Helvetica, sans-serif'" font-size="11" lengthAdjust="spacing" textLength="17.0829" x="2281.2071" y="992.2784">yes</text><text fill="#000000" font-family="'Inter, Helvetica, sans-serif'" font-size="11" lengthAdjust="spacing" textLength="59.0256" x="2247.6943" y="972.7874">kind = text?</text><text fill="#000000" font-family="'Inter, Helvetica, sans-serif'" font-size="11" lengthAdjust="spacing" textLength="32.2628" x="2318.7199" y="965.2965">image</text><rect fill="#F1F1F1" height="36.3441" rx="4" ry="4" style="stroke:#181818;stroke-width:0.5;" width="291.0219" x="2131.6961" y="1013.7784"/><text fill="#000000" font-family="'Inter, Helvetica, sans-serif'" font-size="12" font-weight="700" lengthAdjust="spacing" textLength="72.1325" x="2141.6961" y="1036.6064">:ds/transact</text><text fill="#000000" font-family="'Inter, Helvetica, sans-serif'" font-size="12" lengthAdjust="spacing" textLength="195.7694" x="2216.9487" y="1036.6064">{:doc/html &lt;pre vv-plain escaped&gt;}</text><rect fill="#F1F1F1" height="55.412" rx="4" ry="4" style="stroke:#181818;stroke-width:0.5;" width="273.4524" x="2442.718" y="1070.1225"/><text fill="#000000" font-family="'Inter, Helvetica, sans-serif'" font-size="12" lengthAdjust="spacing" textLength="71.9405" x="2452.718" y="1092.9506">no :doc/html</text><text fill="#000000" font-family="'Inter, Helvetica, sans-serif'" font-size="12" lengthAdjust="spacing" textLength="76.1046" x="2452.718" y="1112.0185">(view renders</text><text fill="#000000" font-family="monospace" font-size="14" lengthAdjust="spacing" textLength="125.9995" x="2531.9426" y="1111.4325">(Cannot&#160;decode)</text><text fill="#000000" font-family="'Inter, Helvetica, sans-serif'" font-size="12" lengthAdjust="spacing" textLength="45.1083" x="2661.0621" y="1112.0185">directly)</text><rect fill="#F1F1F1" height="52.6882" rx="4" ry="4" style="stroke:#181818;stroke-width:0.5;" width="225.1267" x="2164.889" y="1221.8786"/><text fill="#000000" font-family="'Inter, Helvetica, sans-serif'" font-size="12" lengthAdjust="spacing" textLength="205.1267" x="2174.889" y="1244.7067">bridge &#8594; [:ds/changed] &#8594; :ds/rev inc</text><text fill="#000000" font-family="'Inter, Helvetica, sans-serif'" font-size="12" lengthAdjust="spacing" textLength="162.4572" x="2174.889" y="1261.0508">(:doc/active sub recomputes)</text><line style="stroke:#000000;stroke-width:1.5;" x1="1846.8344" x2="1846.8344" y1="58.8419" y2="1463.735"/><rect fill="#7590DB" height="1404.8931" style="stroke:#7590DB;stroke-width:1;" width="630.6799" x="2720.1704" y="58.8419"/><rect fill="#F1F1F1" height="36.3441" rx="4" ry="4" style="stroke:#181818;stroke-width:0.5;" width="299.3979" x="3047.4524" y="1294.5668"/><text fill="#000000" font-family="'Inter, Helvetica, sans-serif'" font-size="12" lengthAdjust="spacing" textLength="279.3979" x="3057.4524" y="1317.3949">content-view Strategy picks the body by :doc/kind</text><path d="M2725.1704,1340.911 L2725.1704,1421.735 L3053.9846,1421.735 L3053.9846,1350.911 L3043.9846,1340.911 L2725.1704,1340.911" fill="#FFF6D6" style="stroke:#7F6B14;stroke-width:0.5;"/><path d="M3043.9846,1340.911 L3043.9846,1350.911 L3053.9846,1350.911 L3043.9846,1340.911" fill="#FFF6D6" style="stroke:#7F6B14;stroke-width:0.5;"/><text fill="#000000" font-family="'Inter, Helvetica, sans-serif'" font-size="13" font-weight="700" lengthAdjust="spacing" textLength="92.1701" x="2731.1704" y="1359.808">UI untouched.</text><text fill="#000000" font-family="'Inter, Helvetica, sans-serif'" font-size="13" lengthAdjust="spacing" textLength="170.3912" x="2826.7205" y="1359.808">:ui/find ranges, scroll offset,</text><text fill="#000000" font-family="'Inter, Helvetica, sans-serif'" font-size="13" lengthAdjust="spacing" textLength="281.0863" x="2731.1704" y="1377.514">:ui/theme, :ui/history all live in app-db and are</text><text fill="#000000" font-family="'Inter, Helvetica, sans-serif'" font-size="13" lengthAdjust="spacing" textLength="273.2732" x="2731.1704" y="1395.22">never written by a :ds/* transaction &#8212; so the</text><text fill="#000000" font-family="'Inter, Helvetica, sans-serif'" font-size="13" lengthAdjust="spacing" textLength="307.8142" x="2731.1704" y="1412.926">refresh leaves the reader exactly where they were.</text><rect fill="#F1F1F1" height="52.6882" rx="4" ry="4" style="stroke:#181818;stroke-width:0.5;" width="246.3336" x="3073.9846" y="1354.9789"/><text fill="#000000" font-family="'Inter, Helvetica, sans-serif'" font-size="12" lengthAdjust="spacing" textLength="226.3336" x="3083.9846" y="1377.807">markdown-body component-did-update</text><text fill="#000000" font-family="'Inter, Helvetica, sans-serif'" font-size="12" lengthAdjust="spacing" textLength="200.9534" x="3083.9846" y="1394.1511">set! innerHTML html (no VDOM diff)</text><ellipse cx="3197.1514" cy="1452.735" fill="none" rx="11" ry="11" style="stroke:#222222;stroke-width:1;"/><ellipse cx="3197.1514" cy="1452.735" fill="#222222" rx="6" ry="6" style="stroke:#222222;stroke-width:1;"/><line style="stroke:#000000;stroke-width:1.5;" x1="2720.1704" x2="2720.1704" y1="58.8419" y2="1463.735"/><line style="stroke:#000000;stroke-width:1.5;" x1="3350.8504" x2="3350.8504" y1="58.8419" y2="1463.735"/><line style="stroke:#555555;stroke-width:1.3;" x1="129.9367" x2="129.9367" y1="108.3577" y2="128.3577"/><polygon fill="#555555" points="125.9367,118.3577,129.9367,128.3577,133.9367,118.3577,129.9367,122.3577" style="stroke:#555555;stroke-width:1;stroke-linejoin:miter;stroke-miterlimit:10;"/><line style="stroke:#555555;stroke-width:1.3;" x1="129.9367" x2="129.9367" y1="164.7018" y2="184.7018"/><polygon fill="#555555" points="125.9367,174.7018,129.9367,184.7018,133.9367,174.7018,129.9367,178.7018" style="stroke:#555555;stroke-width:1;stroke-linejoin:miter;stroke-miterlimit:10;"/><line style="stroke:#555555;stroke-width:1.3;" x1="625.1013" x2="548.5375" y1="447.4224" y2="447.4224"/><line style="stroke:#555555;stroke-width:1.3;" x1="548.5375" x2="548.5375" y1="447.4224" y2="469.4224"/><polygon fill="#555555" points="544.5375,459.4224,548.5375,469.4224,552.5375,459.4224,548.5375,463.4224" style="stroke:#555555;stroke-width:1;stroke-linejoin:miter;stroke-miterlimit:10;"/><line style="stroke:#555555;stroke-width:1.3;" x1="692.947" x2="769.5107" y1="447.4224" y2="447.4224"/><line style="stroke:#555555;stroke-width:1.3;" x1="769.5107" x2="769.5107" y1="447.4224" y2="469.4224"/><polygon fill="#555555" points="765.5107,459.4224,769.5107,469.4224,773.5107,459.4224,769.5107,463.4224" style="stroke:#555555;stroke-width:1;stroke-linejoin:miter;stroke-miterlimit:10;"/><line style="stroke:#555555;stroke-width:1.3;" x1="548.5375" x2="548.5375" y1="505.7665" y2="523.7665"/><line style="stroke:#555555;stroke-width:1.3;" x1="548.5375" x2="647.0241" y1="523.7665" y2="523.7665"/><polygon fill="#555555" points="637.0241,519.7665,647.0241,523.7665,637.0241,527.7665,641.0241,523.7665" style="stroke:#555555;stroke-width:1;stroke-linejoin:miter;stroke-miterlimit:10;"/><line style="stroke:#555555;stroke-width:1.3;" x1="769.5107" x2="769.5107" y1="505.7665" y2="523.7665"/><line style="stroke:#555555;stroke-width:1.3;" x1="769.5107" x2="671.0241" y1="523.7665" y2="523.7665"/><polygon fill="#555555" points="681.0241,519.7665,671.0241,523.7665,681.0241,527.7665,677.0241,523.7665" style="stroke:#555555;stroke-width:1;stroke-linejoin:miter;stroke-miterlimit:10;"/><line style="stroke:#555555;stroke-width:1.3;" x1="659.0241" x2="659.0241" y1="400.4224" y2="435.4224"/><polygon fill="#555555" points="655.0241,425.4224,659.0241,435.4224,663.0241,425.4224,659.0241,429.4224" style="stroke:#555555;stroke-width:1;stroke-linejoin:miter;stroke-miterlimit:10;"/><line style="stroke:#555555;stroke-width:1.3;" x1="467.2132" x2="334.4119" y1="342.0783" y2="342.0783"/><line style="stroke:#555555;stroke-width:1.3;" x1="334.4119" x2="334.4119" y1="342.0783" y2="364.0783"/><polygon fill="#555555" points="330.4119,354.0783,334.4119,364.0783,338.4119,354.0783,334.4119,358.0783" style="stroke:#555555;stroke-width:1;stroke-linejoin:miter;stroke-miterlimit:10;"/><line style="stroke:#555555;stroke-width:1.3;" x1="515.2132" x2="659.0241" y1="342.0783" y2="342.0783"/><line style="stroke:#555555;stroke-width:1.3;" x1="659.0241" x2="659.0241" y1="342.0783" y2="364.0783"/><polygon fill="#555555" points="655.0241,354.0783,659.0241,364.0783,663.0241,354.0783,659.0241,358.0783" style="stroke:#555555;stroke-width:1;stroke-linejoin:miter;stroke-miterlimit:10;"/><line style="stroke:#555555;stroke-width:1.3;" x1="334.4119" x2="334.4119" y1="416.7665" y2="553.7665"/><line style="stroke:#555555;stroke-width:1.3;" x1="334.4119" x2="479.2132" y1="553.7665" y2="553.7665"/><polygon fill="#555555" points="469.2132,549.7665,479.2132,553.7665,469.2132,557.7665,473.2132,553.7665" style="stroke:#555555;stroke-width:1;stroke-linejoin:miter;stroke-miterlimit:10;"/><line style="stroke:#555555;stroke-width:1.3;" x1="659.0241" x2="659.0241" y1="535.7665" y2="553.7665"/><line style="stroke:#555555;stroke-width:1.3;" x1="659.0241" x2="503.2132" y1="553.7665" y2="553.7665"/><polygon fill="#555555" points="513.2132,549.7665,503.2132,553.7665,513.2132,557.7665,509.2132,553.7665" style="stroke:#555555;stroke-width:1;stroke-linejoin:miter;stroke-miterlimit:10;"/><line style="stroke:#555555;stroke-width:1.3;" x1="491.2132" x2="491.2132" y1="310.0783" y2="330.0783"/><polygon fill="#555555" points="487.2132,320.0783,491.2132,330.0783,495.2132,320.0783,491.2132,324.0783" style="stroke:#555555;stroke-width:1;stroke-linejoin:miter;stroke-miterlimit:10;"/><line style="stroke:#555555;stroke-width:1.3;" x1="1126.3945" x2="1126.3945" y1="638.4548" y2="658.4548"/><polygon fill="#555555" points="1122.3945,648.4548,1126.3945,658.4548,1130.3945,648.4548,1126.3945,652.4548" style="stroke:#555555;stroke-width:1;stroke-linejoin:miter;stroke-miterlimit:10;"/><line style="stroke:#555555;stroke-width:1.3;" x1="1682.5614" x2="1682.5614" y1="751.143" y2="771.143"/><polygon fill="#555555" points="1678.5614,761.143,1682.5614,771.143,1686.5614,761.143,1682.5614,765.143" style="stroke:#555555;stroke-width:1;stroke-linejoin:miter;stroke-miterlimit:10;"/><line style="stroke:#555555;stroke-width:1.3;" x1="1386.8074" x2="1386.8074" y1="1050.1225" y2="1084.1474"/><polygon fill="#555555" points="1382.8074,1074.1474,1386.8074,1084.1474,1390.8074,1074.1474,1386.8074,1078.1474" style="stroke:#555555;stroke-width:1;stroke-linejoin:miter;stroke-miterlimit:10;"/><line style="stroke:#555555;stroke-width:1.3;" x1="2277.4524" x2="2277.4524" y1="880.1753" y2="900.1753"/><polygon fill="#555555" points="2273.4524,890.1753,2277.4524,900.1753,2281.4524,890.1753,2277.4524,894.1753" style="stroke:#555555;stroke-width:1;stroke-linejoin:miter;stroke-miterlimit:10;"/><line style="stroke:#555555;stroke-width:1.3;" x1="1975.2152" x2="1975.2152" y1="1181.8786" y2="1201.8786"/><polygon fill="#555555" points="1971.2152,1191.8786,1975.2152,1201.8786,1979.2152,1191.8786,1975.2152,1195.8786" style="stroke:#555555;stroke-width:1;stroke-linejoin:miter;stroke-miterlimit:10;"/><line style="stroke:#555555;stroke-width:1.3;" x1="2277.2071" x2="2277.2071" y1="980.5194" y2="1013.7784"/><polygon fill="#555555" points="2273.2071,1003.7784,2277.2071,1013.7784,2281.2071,1003.7784,2277.2071,1007.7784" style="stroke:#555555;stroke-width:1;stroke-linejoin:miter;stroke-miterlimit:10;"/><line style="stroke:#555555;stroke-width:1.3;" x1="2277.2071" x2="2277.2071" y1="1050.1225" y2="1201.8786"/><polygon fill="#555555" points="2273.2071,1191.8786,2277.2071,1201.8786,2281.2071,1191.8786,2277.2071,1195.8786" style="stroke:#555555;stroke-width:1;stroke-linejoin:miter;stroke-miterlimit:10;"/><line style="stroke:#555555;stroke-width:1.3;" x1="2034.6139" x2="2235.6943" y1="968.5194" y2="968.5194"/><polygon fill="#555555" points="2225.6943,964.5194,2235.6943,968.5194,2225.6943,972.5194,2229.6943,968.5194" style="stroke:#555555;stroke-width:1;stroke-linejoin:miter;stroke-miterlimit:10;"/><line style="stroke:#555555;stroke-width:1.3;" x1="2277.4524" x2="2277.4524" y1="936.5194" y2="941.5194"/><line style="stroke:#555555;stroke-width:1.3;" x1="2277.4524" x2="1975.2152" y1="941.5194" y2="941.5194"/><line style="stroke:#555555;stroke-width:1.3;" x1="1975.2152" x2="1975.2152" y1="941.5194" y2="956.5194"/><polygon fill="#555555" points="1971.2152,946.5194,1975.2152,956.5194,1979.2152,946.5194,1975.2152,950.5194" style="stroke:#555555;stroke-width:1;stroke-linejoin:miter;stroke-miterlimit:10;"/><line style="stroke:#555555;stroke-width:1.3;" x1="2318.7199" x2="2579.4442" y1="968.5194" y2="968.5194"/><line style="stroke:#555555;stroke-width:1.3;" x1="2579.4442" x2="2579.4442" y1="968.5194" y2="1070.1225"/><polygon fill="#555555" points="2575.4442,1060.1225,2579.4442,1070.1225,2583.4442,1060.1225,2579.4442,1064.1225" style="stroke:#555555;stroke-width:1;stroke-linejoin:miter;stroke-miterlimit:10;"/><line style="stroke:#555555;stroke-width:1.3;" x1="2579.4442" x2="2579.4442" y1="1125.5345" y2="1201.8786"/><polygon fill="#555555" points="2575.4442,1191.8786,2579.4442,1201.8786,2583.4442,1191.8786,2579.4442,1195.8786" style="stroke:#555555;stroke-width:1;stroke-linejoin:miter;stroke-miterlimit:10;"/><line style="stroke:#555555;stroke-width:1.3;" x1="1975.2152" x2="2579.4442" y1="1201.8786" y2="1201.8786"/><line style="stroke:#555555;stroke-width:1.3;" x1="2277.4524" x2="2277.4524" y1="1201.8786" y2="1221.8786"/><polygon fill="#555555" points="2273.4524,1211.8786,2277.4524,1221.8786,2281.4524,1211.8786,2277.4524,1215.8786" style="stroke:#555555;stroke-width:1;stroke-linejoin:miter;stroke-miterlimit:10;"/><line style="stroke:#555555;stroke-width:1.3;" x1="3197.1514" x2="3197.1514" y1="1330.911" y2="1354.9789"/><polygon fill="#555555" points="3193.1514,1344.9789,3197.1514,1354.9789,3201.1514,1344.9789,3197.1514,1348.9789" style="stroke:#555555;stroke-width:1;stroke-linejoin:miter;stroke-miterlimit:10;"/><line style="stroke:#555555;stroke-width:1.3;" x1="3197.1514" x2="3197.1514" y1="1407.6671" y2="1441.735"/><polygon fill="#555555" points="3193.1514,1431.735,3197.1514,1441.735,3201.1514,1431.735,3197.1514,1435.735" style="stroke:#555555;stroke-width:1;stroke-linejoin:miter;stroke-miterlimit:10;"/><line style="stroke:#555555;stroke-width:1.3;" x1="129.9367" x2="129.9367" y1="253.7342" y2="258.7342"/><line style="stroke:#555555;stroke-width:1.3;" x1="129.9367" x2="491.2132" y1="258.7342" y2="258.7342"/><line style="stroke:#555555;stroke-width:1.3;" x1="491.2132" x2="491.2132" y1="258.7342" y2="273.7342"/><polygon fill="#555555" points="487.2132,263.7342,491.2132,273.7342,495.2132,263.7342,491.2132,267.7342" style="stroke:#555555;stroke-width:1;stroke-linejoin:miter;stroke-miterlimit:10;"/><line style="stroke:#555555;stroke-width:1.3;" x1="491.2132" x2="491.2132" y1="565.7665" y2="570.7665"/><line style="stroke:#555555;stroke-width:1.3;" x1="491.2132" x2="1126.3945" y1="570.7665" y2="570.7665"/><line style="stroke:#555555;stroke-width:1.3;" x1="1126.3945" x2="1126.3945" y1="570.7665" y2="585.7665"/><polygon fill="#555555" points="1122.3945,575.7665,1126.3945,585.7665,1130.3945,575.7665,1126.3945,579.7665" style="stroke:#555555;stroke-width:1;stroke-linejoin:miter;stroke-miterlimit:10;"/><line style="stroke:#555555;stroke-width:1.3;" x1="1126.3945" x2="1126.3945" y1="694.7989" y2="699.7989"/><line style="stroke:#555555;stroke-width:1.3;" x1="1126.3945" x2="1682.5614" y1="699.7989" y2="699.7989"/><line style="stroke:#555555;stroke-width:1.3;" x1="1682.5614" x2="1682.5614" y1="699.7989" y2="714.7989"/><polygon fill="#555555" points="1678.5614,704.7989,1682.5614,714.7989,1686.5614,704.7989,1682.5614,708.7989" style="stroke:#555555;stroke-width:1;stroke-linejoin:miter;stroke-miterlimit:10;"/><line style="stroke:#555555;stroke-width:1.3;" x1="1682.5614" x2="1682.5614" y1="823.8312" y2="828.8312"/><line style="stroke:#555555;stroke-width:1.3;" x1="1682.5614" x2="2277.4524" y1="828.8312" y2="828.8312"/><line style="stroke:#555555;stroke-width:1.3;" x1="2277.4524" x2="2277.4524" y1="828.8312" y2="843.8312"/><polygon fill="#555555" points="2273.4524,833.8312,2277.4524,843.8312,2281.4524,833.8312,2277.4524,837.8312" style="stroke:#555555;stroke-width:1;stroke-linejoin:miter;stroke-miterlimit:10;"/><line style="stroke:#555555;stroke-width:1.3;" x1="1386.8074" x2="1386.8074" y1="1120.4915" y2="1130.5345"/><line style="stroke:#555555;stroke-width:1.3;" x1="1386.8074" x2="1975.2152" y1="1130.5345" y2="1130.5345"/><line style="stroke:#555555;stroke-width:1.3;" x1="1975.2152" x2="1975.2152" y1="1130.5345" y2="1145.5345"/><polygon fill="#555555" points="1971.2152,1135.5345,1975.2152,1145.5345,1979.2152,1135.5345,1975.2152,1139.5345" style="stroke:#555555;stroke-width:1;stroke-linejoin:miter;stroke-miterlimit:10;"/><line style="stroke:#555555;stroke-width:1.3;" x1="1975.2152" x2="1975.2152" y1="980.5194" y2="984.5194"/><line style="stroke:#555555;stroke-width:1.3;" x1="1975.2152" x2="1386.8074" y1="984.5194" y2="984.5194"/><line style="stroke:#555555;stroke-width:1.3;" x1="1386.8074" x2="1386.8074" y1="984.5194" y2="1013.7784"/><polygon fill="#555555" points="1382.8074,1003.7784,1386.8074,1013.7784,1390.8074,1003.7784,1386.8074,1007.7784" style="stroke:#555555;stroke-width:1;stroke-linejoin:miter;stroke-miterlimit:10;"/><line style="stroke:#555555;stroke-width:1.3;" x1="2277.4524" x2="2277.4524" y1="1274.5668" y2="1279.5668"/><line style="stroke:#555555;stroke-width:1.3;" x1="2277.4524" x2="3197.1514" y1="1279.5668" y2="1279.5668"/><line style="stroke:#555555;stroke-width:1.3;" x1="3197.1514" x2="3197.1514" y1="1279.5668" y2="1294.5668"/><polygon fill="#555555" points="3193.1514,1284.5668,3197.1514,1294.5668,3201.1514,1284.5668,3197.1514,1288.5668" style="stroke:#555555;stroke-width:1;stroke-linejoin:miter;stroke-miterlimit:10;"/><text fill="#000000" font-family="'Inter, Helvetica, sans-serif'" font-size="18" lengthAdjust="spacing" textLength="88.6854" x="84.5939" y="78.0838">Filesystem</text><text fill="#000000" font-family="'Inter, Helvetica, sans-serif'" font-size="18" lengthAdjust="spacing" textLength="103.4633" x="570.4362" y="78.0838">Main (Node)</text><text fill="#000000" font-family="'Inter, Helvetica, sans-serif'" font-size="18" lengthAdjust="spacing" textLength="78.7495" x="1086.0197" y="78.0838">IPC seam</text><text fill="#000000" font-family="'Inter, Helvetica, sans-serif'" font-size="18" lengthAdjust="spacing" textLength="168.2809" x="1461.44" y="78.0838">Renderer (re-frame)</text><text fill="#000000" font-family="'Inter, Helvetica, sans-serif'" font-size="18" lengthAdjust="spacing" textLength="53.4777" x="2256.7636" y="78.0838">Stores</text><text fill="#000000" font-family="'Inter, Helvetica, sans-serif'" font-size="18" lengthAdjust="spacing" textLength="43.5237" x="3013.7485" y="78.0838">DOM</text><g class="legend" data-source-line="65"><rect fill="none" height="166.5433" rx="4" ry="4" style="stroke:#000000;stroke-width:1;" width="300.0509" x="3055.1395" y="1485.735"/><text fill="#000000" font-family="'Inter, Helvetica, sans-serif'" font-size="14" font-weight="700" lengthAdjust="spacing" textLength="46.0178" x="3063.7794" y="1507.701">Colour</text><text fill="#000000" font-family="'Inter, Helvetica, sans-serif'" font-size="14" font-weight="700" lengthAdjust="spacing" textLength="136.2195" x="3117.0772" y="1507.701">Swimlane / concept</text><rect fill="#9F8766" height="19.0679" style="stroke:none;stroke-width:1;" width="53.2978" x="3060.1395" y="1511.8029"/><text fill="#000000" font-family="'Inter, Helvetica, sans-serif'" font-size="14" lengthAdjust="spacing" textLength="3.64" x="3060.1395" y="1526.7689">&#160;</text><text fill="#000000" font-family="'Inter, Helvetica, sans-serif'" font-size="14" lengthAdjust="spacing" textLength="192.9053" x="3117.0772" y="1526.7689">Filesystem (editor + chokidar)</text><rect fill="#3A5BA0" height="19.0679" style="stroke:none;stroke-width:1;" width="53.2978" x="3060.1395" y="1530.8709"/><text fill="#000000" font-family="'Inter, Helvetica, sans-serif'" font-size="14" lengthAdjust="spacing" textLength="3.64" x="3060.1395" y="1545.8368">&#160;</text><text fill="#000000" font-family="'Inter, Helvetica, sans-serif'" font-size="14" lengthAdjust="spacing" textLength="154.3214" x="3117.0772" y="1545.8368">Main process (Node IO)</text><rect fill="#B1951D" height="19.0679" style="stroke:none;stroke-width:1;" width="53.2978" x="3060.1395" y="1549.9388"/><text fill="#000000" font-family="'Inter, Helvetica, sans-serif'" font-size="14" lengthAdjust="spacing" textLength="3.64" x="3060.1395" y="1564.9047">&#160;</text><text fill="#000000" font-family="'Inter, Helvetica, sans-serif'" font-size="14" lengthAdjust="spacing" textLength="229.4731" x="3117.0772" y="1564.9047">IPC seam (preload / contextBridge)</text><rect fill="#2D9574" height="19.0679" style="stroke:none;stroke-width:1;" width="53.2978" x="3060.1395" y="1569.0067"/><text fill="#000000" font-family="'Inter, Helvetica, sans-serif'" font-size="14" lengthAdjust="spacing" textLength="3.64" x="3060.1395" y="1583.9726">&#160;</text><text fill="#000000" font-family="'Inter, Helvetica, sans-serif'" font-size="14" lengthAdjust="spacing" textLength="205.3512" x="3117.0772" y="1583.9726">Renderer (re-frame events + fx)</text><rect fill="#A45BAD" height="19.0679" style="stroke:none;stroke-width:1;" width="53.2978" x="3060.1395" y="1588.0746"/><text fill="#000000" font-family="'Inter, Helvetica, sans-serif'" font-size="14" lengthAdjust="spacing" textLength="3.64" x="3060.1395" y="1603.0405">&#160;</text><text fill="#000000" font-family="'Inter, Helvetica, sans-serif'" font-size="14" lengthAdjust="spacing" textLength="206.8353" x="3117.0772" y="1603.0405">Stores (DataScript transactions)</text><rect fill="#7590DB" height="19.0679" style="stroke:none;stroke-width:1;" width="53.2978" x="3060.1395" y="1607.1425"/><text fill="#000000" font-family="'Inter, Helvetica, sans-serif'" font-size="14" lengthAdjust="spacing" textLength="3.64" x="3060.1395" y="1622.1085">&#160;</text><text fill="#000000" font-family="'Inter, Helvetica, sans-serif'" font-size="14" lengthAdjust="spacing" textLength="229.3051" x="3117.0772" y="1622.1085">DOM (imperative innerHTML body)</text><rect fill="#E0211D" height="19.0679" style="stroke:none;stroke-width:1;" width="53.2978" x="3060.1395" y="1626.2104"/><text fill="#000000" font-family="'Inter, Helvetica, sans-serif'" font-size="14" lengthAdjust="spacing" textLength="3.64" x="3060.1395" y="1641.1764">&#160;</text><text fill="#000000" font-family="'Inter, Helvetica, sans-serif'" font-size="14" lengthAdjust="spacing" textLength="131.2495" x="3117.0772" y="1641.1764">error path (vv:error)</text><line style="stroke:#000000;stroke-width:1;" x1="3060.1395" x2="3350.1904" y1="1492.735" y2="1492.735"/><line style="stroke:#000000;stroke-width:1;" x1="3060.1395" x2="3350.1904" y1="1511.8029" y2="1511.8029"/><line style="stroke:#000000;stroke-width:1;" x1="3060.1395" x2="3350.1904" y1="1530.8709" y2="1530.8709"/><line style="stroke:#000000;stroke-width:1;" x1="3060.1395" x2="3350.1904" y1="1549.9388" y2="1549.9388"/><line style="stroke:#000000;stroke-width:1;" x1="3060.1395" x2="3350.1904" y1="1569.0067" y2="1569.0067"/><line style="stroke:#000000;stroke-width:1;" x1="3060.1395" x2="3350.1904" y1="1588.0746" y2="1588.0746"/><line style="stroke:#000000;stroke-width:1;" x1="3060.1395" x2="3350.1904" y1="1607.1425" y2="1607.1425"/><line style="stroke:#000000;stroke-width:1;" x1="3060.1395" x2="3350.1904" y1="1626.2104" y2="1626.2104"/><line style="stroke:#000000;stroke-width:1;" x1="3060.1395" x2="3350.1904" y1="1645.2784" y2="1645.2784"/><line style="stroke:#000000;stroke-width:1;" x1="3060.1395" x2="3060.1395" y1="1492.735" y2="1645.2784"/><line style="stroke:#000000;stroke-width:1;" x1="3113.4373" x2="3113.4373" y1="1492.735" y2="1645.2784"/><line style="stroke:#000000;stroke-width:1;" x1="3350.1904" x2="3350.1904" y1="1492.735" y2="1645.2784"/></g></g></svg>