<svg xmlns="http://www.w3.org/2000/svg" xmlns:xlink="http://www.w3.org/1999/xlink" contentStyleType="text/css" data-diagram-type="ACTIVITY" height="1858px" preserveAspectRatio="none" style="width:468px;height:1858px;background:#FBF8EF;" version="1.1" viewBox="0 0 468 1858" width="468px" zoomAndPan="magnify"><?plantuml $version$?><defs/><g><rect fill="#FBF8EF" height="1858" style="stroke:none;stroke-width:1;" width="468" x="0" y="0"/><g class="title" data-source-line="4"><text fill="#000000" font-family="'Inter, Helvetica, sans-serif'" font-size="14" font-weight="700" lengthAdjust="spacing" textLength="426.0883" x="20" y="34.9659">content-view Strategy &#8212; current document body precedence</text></g><ellipse cx="238.4912" cy="65.0679" fill="#222222" rx="10" ry="10" style="stroke:#222222;stroke-width:1;"/><rect fill="#F1F1F1" height="69.0323" rx="4" ry="4" style="stroke:#181818;stroke-width:0.5;" width="129.9448" x="173.5188" y="95.0679"/><text fill="#000000" font-family="'Inter, Helvetica, sans-serif'" font-size="12" lengthAdjust="spacing" textLength="109.9448" x="183.5188" y="117.896">read active tab URI,</text><text fill="#000000" font-family="'Inter, Helvetica, sans-serif'" font-size="12" lengthAdjust="spacing" textLength="59.5204" x="183.5188" y="134.2401">active doc,</text><text fill="#000000" font-family="'Inter, Helvetica, sans-serif'" font-size="12" lengthAdjust="spacing" textLength="91.6207" x="183.5188" y="150.5842">view-source flag</text><rect fill="#2D9574" height="36.3441" rx="4" ry="4" style="stroke:#181818;stroke-width:0.5;" width="81.5364" x="197.723" y="233.5912"/><text fill="#000000" font-family="'Inter, Helvetica, sans-serif'" font-size="12" lengthAdjust="spacing" textLength="61.5364" x="207.723" y="256.4193">watermark</text><ellipse cx="238.4912" cy="308.2633" fill="none" rx="11" ry="11" style="stroke:#222222;stroke-width:1;"/><ellipse cx="238.4912" cy="308.2633" fill="#222222" rx="6" ry="6" style="stroke:#222222;stroke-width:1;"/><polygon fill="#F1F1F1" points="202.219,184.1003,274.7635,184.1003,286.7635,196.1003,274.7635,208.1003,202.219,208.1003,190.219,196.1003,202.219,184.1003" style="stroke:#181818;stroke-width:0.5;stroke-linejoin:miter;stroke-miterlimit:10;"/><text fill="#000000" font-family="'Inter, Helvetica, sans-serif'" font-size="11" lengthAdjust="spacing" textLength="17.0829" x="242.4912" y="219.8592">yes</text><text fill="#000000" font-family="'Inter, Helvetica, sans-serif'" font-size="11" lengthAdjust="spacing" textLength="72.5445" x="202.219" y="200.3682">no open tabs?</text><rect fill="#E0211D" height="36.3441" rx="4" ry="4" style="stroke:#181818;stroke-width:0.5;" width="77.4084" x="199.787" y="410.7542"/><text fill="#000000" font-family="'Inter, Helvetica, sans-serif'" font-size="12" lengthAdjust="spacing" textLength="57.4084" x="209.787" y="433.5823">error view</text><ellipse cx="238.4912" cy="485.4263" fill="none" rx="11" ry="11" style="stroke:#222222;stroke-width:1;"/><ellipse cx="238.4912" cy="485.4263" fill="#222222" rx="6" ry="6" style="stroke:#222222;stroke-width:1;"/><polygon fill="#F1F1F1" points="188.6616,361.2633,288.3209,361.2633,300.3209,373.2633,288.3209,385.2633,188.6616,385.2633,176.6616,373.2633,188.6616,361.2633" style="stroke:#181818;stroke-width:0.5;stroke-linejoin:miter;stroke-miterlimit:10;"/><text fill="#000000" font-family="'Inter, Helvetica, sans-serif'" font-size="11" lengthAdjust="spacing" textLength="17.0829" x="242.4912" y="397.0222">yes</text><text fill="#000000" font-family="'Inter, Helvetica, sans-serif'" font-size="11" lengthAdjust="spacing" textLength="99.6593" x="188.6616" y="377.5312">doc has :doc/error?</text><rect fill="#3A5BA0" height="52.6882" rx="4" ry="4" style="stroke:#181818;stroke-width:0.5;" width="203.5653" x="136.7086" y="587.9172"/><text fill="#000000" font-family="'Inter, Helvetica, sans-serif'" font-size="12" lengthAdjust="spacing" textLength="84.8166" x="146.7086" y="610.7453">HTTP web-host</text><text fill="#000000" font-family="'Inter, Helvetica, sans-serif'" font-size="12" lengthAdjust="spacing" textLength="183.5653" x="146.7086" y="627.0894">(main-owned WebContentsView)</text><ellipse cx="238.4912" cy="671.6054" fill="none" rx="11" ry="11" style="stroke:#222222;stroke-width:1;"/><ellipse cx="238.4912" cy="671.6054" fill="#222222" rx="6" ry="6" style="stroke:#222222;stroke-width:1;"/><polygon fill="#F1F1F1" points="171.3257,538.4263,305.6567,538.4263,317.6567,550.4263,305.6567,562.4263,171.3257,562.4263,159.3257,550.4263,171.3257,538.4263" style="stroke:#181818;stroke-width:0.5;stroke-linejoin:miter;stroke-miterlimit:10;"/><text fill="#000000" font-family="'Inter, Helvetica, sans-serif'" font-size="11" lengthAdjust="spacing" textLength="17.0829" x="242.4912" y="574.1852">yes</text><text fill="#000000" font-family="'Inter, Helvetica, sans-serif'" font-size="11" lengthAdjust="spacing" textLength="134.331" x="171.3257" y="554.6942">active URI is HTTP/HTTPS?</text><rect fill="#3A5BA0" height="52.6882" rx="4" ry="4" style="stroke:#181818;stroke-width:0.5;" width="203.5653" x="136.7086" y="774.0964"/><text fill="#000000" font-family="'Inter, Helvetica, sans-serif'" font-size="12" lengthAdjust="spacing" textLength="50.1244" x="146.7086" y="796.9245">PDF host</text><text fill="#000000" font-family="'Inter, Helvetica, sans-serif'" font-size="12" lengthAdjust="spacing" textLength="183.5653" x="146.7086" y="813.2686">(main-owned WebContentsView)</text><ellipse cx="238.4912" cy="857.7846" fill="none" rx="11" ry="11" style="stroke:#222222;stroke-width:1;"/><ellipse cx="238.4912" cy="857.7846" fill="#222222" rx="6" ry="6" style="stroke:#222222;stroke-width:1;"/><polygon fill="#F1F1F1" points="192.946,724.6054,284.0364,724.6054,296.0364,736.6054,284.0364,748.6054,192.946,748.6054,180.946,736.6054,192.946,724.6054" style="stroke:#181818;stroke-width:0.5;stroke-linejoin:miter;stroke-miterlimit:10;"/><text fill="#000000" font-family="'Inter, Helvetica, sans-serif'" font-size="11" lengthAdjust="spacing" textLength="17.0829" x="242.4912" y="760.3643">yes</text><text fill="#000000" font-family="'Inter, Helvetica, sans-serif'" font-size="11" lengthAdjust="spacing" textLength="91.0903" x="192.946" y="740.8734">:doc/kind = "pdf"?</text><rect fill="#2D9574" height="36.3441" rx="4" ry="4" style="stroke:#181818;stroke-width:0.5;" width="102.8126" x="187.0849" y="960.2756"/><text fill="#000000" font-family="'Inter, Helvetica, sans-serif'" font-size="12" lengthAdjust="spacing" textLength="82.8126" x="197.0849" y="983.1036">image preview</text><ellipse cx="238.4912" cy="1034.9476" fill="none" rx="11" ry="11" style="stroke:#222222;stroke-width:1;"/><ellipse cx="238.4912" cy="1034.9476" fill="#222222" rx="6" ry="6" style="stroke:#222222;stroke-width:1;"/><polygon fill="#F1F1F1" points="185.4716,910.7846,291.5108,910.7846,303.5108,922.7846,291.5108,934.7846,185.4716,934.7846,173.4716,922.7846,185.4716,910.7846" style="stroke:#181818;stroke-width:0.5;stroke-linejoin:miter;stroke-miterlimit:10;"/><text fill="#000000" font-family="'Inter, Helvetica, sans-serif'" font-size="11" lengthAdjust="spacing" textLength="17.0829" x="242.4912" y="946.5435">yes</text><text fill="#000000" font-family="'Inter, Helvetica, sans-serif'" font-size="11" lengthAdjust="spacing" textLength="106.0392" x="185.4716" y="927.0526">:doc/kind = "image"?</text><rect fill="#2D9574" height="52.6882" rx="4" ry="4" style="stroke:#181818;stroke-width:0.5;" width="208.7494" x="134.1165" y="1137.4386"/><text fill="#000000" font-family="'Inter, Helvetica, sans-serif'" font-size="12" lengthAdjust="spacing" textLength="134.641" x="144.1165" y="1160.2666">CodeMirror source view</text><text fill="#000000" font-family="'Inter, Helvetica, sans-serif'" font-size="12" lengthAdjust="spacing" textLength="188.7494" x="144.1165" y="1176.6108">(tree-sitter when grammar exists)</text><ellipse cx="238.4912" cy="1221.1268" fill="none" rx="11" ry="11" style="stroke:#222222;stroke-width:1;"/><ellipse cx="238.4912" cy="1221.1268" fill="#222222" rx="6" ry="6" style="stroke:#222222;stroke-width:1;"/><polygon fill="#F1F1F1" points="184.2286,1087.9476,292.7538,1087.9476,304.7538,1099.9476,292.7538,1111.9476,184.2286,1111.9476,172.2286,1099.9476,184.2286,1087.9476" style="stroke:#181818;stroke-width:0.5;stroke-linejoin:miter;stroke-miterlimit:10;"/><text fill="#000000" font-family="'Inter, Helvetica, sans-serif'" font-size="11" lengthAdjust="spacing" textLength="17.0829" x="242.4912" y="1123.7065">yes</text><text fill="#000000" font-family="'Inter, Helvetica, sans-serif'" font-size="11" lengthAdjust="spacing" textLength="108.5252" x="184.2286" y="1104.2156">:doc/kind = "source"?</text><rect fill="#2D9574" height="36.3441" rx="4" ry="4" style="stroke:#181818;stroke-width:0.5;" width="246.0456" x="115.4684" y="1323.6177"/><text fill="#000000" font-family="'Inter, Helvetica, sans-serif'" font-size="12" lengthAdjust="spacing" textLength="226.0456" x="125.4684" y="1346.4458">source view over cached Markdown text</text><ellipse cx="238.4912" cy="1398.2898" fill="none" rx="11" ry="11" style="stroke:#222222;stroke-width:1;"/><ellipse cx="238.4912" cy="1398.2898" fill="#222222" rx="6" ry="6" style="stroke:#222222;stroke-width:1;"/><polygon fill="#F1F1F1" points="175.6267,1274.1268,301.3558,1274.1268,313.3558,1286.1268,301.3558,1298.1268,175.6267,1298.1268,163.6267,1286.1268,175.6267,1274.1268" style="stroke:#181818;stroke-width:0.5;stroke-linejoin:miter;stroke-miterlimit:10;"/><text fill="#000000" font-family="'Inter, Helvetica, sans-serif'" font-size="11" lengthAdjust="spacing" textLength="17.0829" x="242.4912" y="1309.8857">yes</text><text fill="#000000" font-family="'Inter, Helvetica, sans-serif'" font-size="11" lengthAdjust="spacing" textLength="125.7291" x="175.6267" y="1290.3947">Markdown View Source?</text><polygon fill="#F1F1F1" points="189.9816,1451.2898,287.0009,1451.2898,299.0009,1463.2898,287.0009,1475.2898,189.9816,1475.2898,177.9816,1463.2898,189.9816,1451.2898" style="stroke:#181818;stroke-width:0.5;stroke-linejoin:miter;stroke-miterlimit:10;"/><text fill="#000000" font-family="'Inter, Helvetica, sans-serif'" font-size="11" lengthAdjust="spacing" textLength="97.0193" x="189.9816" y="1467.5577">:doc/html present?</text><text fill="#000000" font-family="'Inter, Helvetica, sans-serif'" font-size="11" lengthAdjust="spacing" textLength="17.0829" x="160.8987" y="1460.0668">yes</text><text fill="#000000" font-family="'Inter, Helvetica, sans-serif'" font-size="11" lengthAdjust="spacing" textLength="13.4529" x="299.0009" y="1460.0668">no</text><rect fill="#67B11D" height="52.6882" rx="4" ry="4" style="stroke:#181818;stroke-width:0.5;" width="174.1651" x="60.7732" y="1485.2898"/><text fill="#000000" font-family="'Inter, Helvetica, sans-serif'" font-size="12" lengthAdjust="spacing" textLength="154.1651" x="70.7732" y="1508.1179">markdown/text HTML body</text><text fill="#000000" font-family="'Inter, Helvetica, sans-serif'" font-size="12" lengthAdjust="spacing" textLength="136.789" x="70.7732" y="1524.462">(form-3 innerHTML sink)</text><ellipse cx="147.8557" cy="1583.978" fill="none" rx="11" ry="11" style="stroke:#222222;stroke-width:1;"/><ellipse cx="147.8557" cy="1583.978" fill="#222222" rx="6" ry="6" style="stroke:#222222;stroke-width:1;"/><rect fill="#DDDDDD" height="36.3441" rx="4" ry="4" style="stroke:#181818;stroke-width:0.5;" width="148.3769" x="254.9383" y="1485.2898"/><text fill="#000000" font-family="'Inter, Helvetica, sans-serif'" font-size="12" lengthAdjust="spacing" textLength="128.3769" x="264.9383" y="1508.1179">Rendering placeholder</text><ellipse cx="329.1267" cy="1567.6339" fill="none" rx="11" ry="11" style="stroke:#222222;stroke-width:1;"/><ellipse cx="329.1267" cy="1567.6339" fill="#222222" rx="6" ry="6" style="stroke:#222222;stroke-width:1;"/><rect fill="none" height="80.412" rx="4" ry="4" style="stroke:#000000;stroke-width:1.5;" width="217.5053" x="129.7386" y="1604.978"/><path d="M287.886,1604.978 L287.886,1617.0459 L277.886,1627.0459 L129.7386,1627.0459" fill="none" style="stroke:#000000;stroke-width:1.5;"/><text fill="#000000" font-family="'Inter, Helvetica, sans-serif'" font-size="14" lengthAdjust="spacing" textLength="148.1474" x="132.7386" y="1620.9439">Planned future branch</text><rect fill="#DDDDDD" height="36.3441" rx="4" ry="4" style="stroke:#181818;stroke-width:0.5;" width="197.5053" x="139.7386" y="1637.0459"/><text fill="#000000" font-family="'Inter, Helvetica, sans-serif'" font-size="12" lengthAdjust="spacing" textLength="177.5053" x="149.7386" y="1659.874">diagram source -&gt; SVG strategy</text><line style="stroke:#555555;stroke-width:1.3;" x1="238.4912" x2="238.4912" y1="75.0679" y2="95.0679"/><polygon fill="#555555" points="234.4912,85.0679,238.4912,95.0679,242.4912,85.0679,238.4912,89.0679" style="stroke:#555555;stroke-width:1;stroke-linejoin:miter;stroke-miterlimit:10;"/><line style="stroke:#555555;stroke-width:1.3;" x1="238.4912" x2="238.4912" y1="269.9353" y2="297.2633"/><polygon fill="#555555" points="234.4912,287.2633,238.4912,297.2633,242.4912,287.2633,238.4912,291.2633" style="stroke:#555555;stroke-width:1;stroke-linejoin:miter;stroke-miterlimit:10;"/><line style="stroke:#555555;stroke-width:1.3;" x1="238.4912" x2="238.4912" y1="208.1003" y2="233.5912"/><polygon fill="#555555" points="234.4912,223.5912,238.4912,233.5912,242.4912,223.5912,238.4912,227.5912" style="stroke:#555555;stroke-width:1;stroke-linejoin:miter;stroke-miterlimit:10;"/><line style="stroke:#555555;stroke-width:1.3;" x1="286.7635" x2="298.7635" y1="196.1003" y2="196.1003"/><polygon fill="#555555" points="294.7635,267.2633,298.7635,277.2633,302.7635,267.2633,298.7635,271.2633" style="stroke:#555555;stroke-width:1.3;stroke-linejoin:miter;stroke-miterlimit:10;"/><line style="stroke:#555555;stroke-width:1.3;" x1="298.7635" x2="298.7635" y1="196.1003" y2="341.2633"/><line style="stroke:#555555;stroke-width:1.3;" x1="298.7635" x2="238.4912" y1="341.2633" y2="341.2633"/><line style="stroke:#555555;stroke-width:1.3;" x1="238.4912" x2="238.4912" y1="341.2633" y2="361.2633"/><polygon fill="#555555" points="234.4912,351.2633,238.4912,361.2633,242.4912,351.2633,238.4912,355.2633" style="stroke:#555555;stroke-width:1;stroke-linejoin:miter;stroke-miterlimit:10;"/><line style="stroke:#555555;stroke-width:1.3;" x1="238.4912" x2="238.4912" y1="164.1003" y2="184.1003"/><polygon fill="#555555" points="234.4912,174.1003,238.4912,184.1003,242.4912,174.1003,238.4912,178.1003" style="stroke:#555555;stroke-width:1;stroke-linejoin:miter;stroke-miterlimit:10;"/><line style="stroke:#555555;stroke-width:1.3;" x1="238.4912" x2="238.4912" y1="447.0983" y2="474.4263"/><polygon fill="#555555" points="234.4912,464.4263,238.4912,474.4263,242.4912,464.4263,238.4912,468.4263" style="stroke:#555555;stroke-width:1;stroke-linejoin:miter;stroke-miterlimit:10;"/><line style="stroke:#555555;stroke-width:1.3;" x1="238.4912" x2="238.4912" y1="385.2633" y2="410.7542"/><polygon fill="#555555" points="234.4912,400.7542,238.4912,410.7542,242.4912,400.7542,238.4912,404.7542" style="stroke:#555555;stroke-width:1;stroke-linejoin:miter;stroke-miterlimit:10;"/><line style="stroke:#555555;stroke-width:1.3;" x1="300.3209" x2="312.3209" y1="373.2633" y2="373.2633"/><polygon fill="#555555" points="308.3209,444.4263,312.3209,454.4263,316.3209,444.4263,312.3209,448.4263" style="stroke:#555555;stroke-width:1.3;stroke-linejoin:miter;stroke-miterlimit:10;"/><line style="stroke:#555555;stroke-width:1.3;" x1="312.3209" x2="312.3209" y1="373.2633" y2="518.4263"/><line style="stroke:#555555;stroke-width:1.3;" x1="312.3209" x2="238.4912" y1="518.4263" y2="518.4263"/><line style="stroke:#555555;stroke-width:1.3;" x1="238.4912" x2="238.4912" y1="518.4263" y2="538.4263"/><polygon fill="#555555" points="234.4912,528.4263,238.4912,538.4263,242.4912,528.4263,238.4912,532.4263" style="stroke:#555555;stroke-width:1;stroke-linejoin:miter;stroke-miterlimit:10;"/><line style="stroke:#555555;stroke-width:1.3;" x1="238.4912" x2="238.4912" y1="640.6054" y2="660.6054"/><polygon fill="#555555" points="234.4912,650.6054,238.4912,660.6054,242.4912,650.6054,238.4912,654.6054" style="stroke:#555555;stroke-width:1;stroke-linejoin:miter;stroke-miterlimit:10;"/><line style="stroke:#555555;stroke-width:1.3;" x1="238.4912" x2="238.4912" y1="562.4263" y2="587.9172"/><polygon fill="#555555" points="234.4912,577.9172,238.4912,587.9172,242.4912,577.9172,238.4912,581.9172" style="stroke:#555555;stroke-width:1;stroke-linejoin:miter;stroke-miterlimit:10;"/><line style="stroke:#555555;stroke-width:1.3;" x1="317.6567" x2="350.2739" y1="550.4263" y2="550.4263"/><polygon fill="#555555" points="346.2739,629.7613,350.2739,639.7613,354.2739,629.7613,350.2739,633.7613" style="stroke:#555555;stroke-width:1.3;stroke-linejoin:miter;stroke-miterlimit:10;"/><line style="stroke:#555555;stroke-width:1.3;" x1="350.2739" x2="350.2739" y1="550.4263" y2="704.6054"/><line style="stroke:#555555;stroke-width:1.3;" x1="350.2739" x2="238.4912" y1="704.6054" y2="704.6054"/><line style="stroke:#555555;stroke-width:1.3;" x1="238.4912" x2="238.4912" y1="704.6054" y2="724.6054"/><polygon fill="#555555" points="234.4912,714.6054,238.4912,724.6054,242.4912,714.6054,238.4912,718.6054" style="stroke:#555555;stroke-width:1;stroke-linejoin:miter;stroke-miterlimit:10;"/><line style="stroke:#555555;stroke-width:1.3;" x1="238.4912" x2="238.4912" y1="826.7846" y2="846.7846"/><polygon fill="#555555" points="234.4912,836.7846,238.4912,846.7846,242.4912,836.7846,238.4912,840.7846" style="stroke:#555555;stroke-width:1;stroke-linejoin:miter;stroke-miterlimit:10;"/><line style="stroke:#555555;stroke-width:1.3;" x1="238.4912" x2="238.4912" y1="748.6054" y2="774.0964"/><polygon fill="#555555" points="234.4912,764.0964,238.4912,774.0964,242.4912,764.0964,238.4912,768.0964" style="stroke:#555555;stroke-width:1;stroke-linejoin:miter;stroke-miterlimit:10;"/><line style="stroke:#555555;stroke-width:1.3;" x1="296.0364" x2="350.2739" y1="736.6054" y2="736.6054"/><polygon fill="#555555" points="346.2739,815.9405,350.2739,825.9405,354.2739,815.9405,350.2739,819.9405" style="stroke:#555555;stroke-width:1.3;stroke-linejoin:miter;stroke-miterlimit:10;"/><line style="stroke:#555555;stroke-width:1.3;" x1="350.2739" x2="350.2739" y1="736.6054" y2="890.7846"/><line style="stroke:#555555;stroke-width:1.3;" x1="350.2739" x2="238.4912" y1="890.7846" y2="890.7846"/><line style="stroke:#555555;stroke-width:1.3;" x1="238.4912" x2="238.4912" y1="890.7846" y2="910.7846"/><polygon fill="#555555" points="234.4912,900.7846,238.4912,910.7846,242.4912,900.7846,238.4912,904.7846" style="stroke:#555555;stroke-width:1;stroke-linejoin:miter;stroke-miterlimit:10;"/><line style="stroke:#555555;stroke-width:1.3;" x1="238.4912" x2="238.4912" y1="996.6197" y2="1023.9476"/><polygon fill="#555555" points="234.4912,1013.9476,238.4912,1023.9476,242.4912,1013.9476,238.4912,1017.9476" style="stroke:#555555;stroke-width:1;stroke-linejoin:miter;stroke-miterlimit:10;"/><line style="stroke:#555555;stroke-width:1.3;" x1="238.4912" x2="238.4912" y1="934.7846" y2="960.2756"/><polygon fill="#555555" points="234.4912,950.2756,238.4912,960.2756,242.4912,950.2756,238.4912,954.2756" style="stroke:#555555;stroke-width:1;stroke-linejoin:miter;stroke-miterlimit:10;"/><line style="stroke:#555555;stroke-width:1.3;" x1="303.5108" x2="315.5108" y1="922.7846" y2="922.7846"/><polygon fill="#555555" points="311.5108,993.9476,315.5108,1003.9476,319.5108,993.9476,315.5108,997.9476" style="stroke:#555555;stroke-width:1.3;stroke-linejoin:miter;stroke-miterlimit:10;"/><line style="stroke:#555555;stroke-width:1.3;" x1="315.5108" x2="315.5108" y1="922.7846" y2="1067.9476"/><line style="stroke:#555555;stroke-width:1.3;" x1="315.5108" x2="238.4912" y1="1067.9476" y2="1067.9476"/><line style="stroke:#555555;stroke-width:1.3;" x1="238.4912" x2="238.4912" y1="1067.9476" y2="1087.9476"/><polygon fill="#555555" points="234.4912,1077.9476,238.4912,1087.9476,242.4912,1077.9476,238.4912,1081.9476" style="stroke:#555555;stroke-width:1;stroke-linejoin:miter;stroke-miterlimit:10;"/><line style="stroke:#555555;stroke-width:1.3;" x1="238.4912" x2="238.4912" y1="1190.1268" y2="1210.1268"/><polygon fill="#555555" points="234.4912,1200.1268,238.4912,1210.1268,242.4912,1200.1268,238.4912,1204.1268" style="stroke:#555555;stroke-width:1;stroke-linejoin:miter;stroke-miterlimit:10;"/><line style="stroke:#555555;stroke-width:1.3;" x1="238.4912" x2="238.4912" y1="1111.9476" y2="1137.4386"/><polygon fill="#555555" points="234.4912,1127.4386,238.4912,1137.4386,242.4912,1127.4386,238.4912,1131.4386" style="stroke:#555555;stroke-width:1;stroke-linejoin:miter;stroke-miterlimit:10;"/><line style="stroke:#555555;stroke-width:1.3;" x1="304.7538" x2="352.8659" y1="1099.9476" y2="1099.9476"/><polygon fill="#555555" points="348.8659,1179.2827,352.8659,1189.2827,356.8659,1179.2827,352.8659,1183.2827" style="stroke:#555555;stroke-width:1.3;stroke-linejoin:miter;stroke-miterlimit:10;"/><line style="stroke:#555555;stroke-width:1.3;" x1="352.8659" x2="352.8659" y1="1099.9476" y2="1254.1268"/><line style="stroke:#555555;stroke-width:1.3;" x1="352.8659" x2="238.4912" y1="1254.1268" y2="1254.1268"/><line style="stroke:#555555;stroke-width:1.3;" x1="238.4912" x2="238.4912" y1="1254.1268" y2="1274.1268"/><polygon fill="#555555" points="234.4912,1264.1268,238.4912,1274.1268,242.4912,1264.1268,238.4912,1268.1268" style="stroke:#555555;stroke-width:1;stroke-linejoin:miter;stroke-miterlimit:10;"/><line style="stroke:#555555;stroke-width:1.3;" x1="238.4912" x2="238.4912" y1="1359.9618" y2="1387.2898"/><polygon fill="#555555" points="234.4912,1377.2898,238.4912,1387.2898,242.4912,1377.2898,238.4912,1381.2898" style="stroke:#555555;stroke-width:1;stroke-linejoin:miter;stroke-miterlimit:10;"/><line style="stroke:#555555;stroke-width:1.3;" x1="238.4912" x2="238.4912" y1="1298.1268" y2="1323.6177"/><polygon fill="#555555" points="234.4912,1313.6177,238.4912,1323.6177,242.4912,1313.6177,238.4912,1317.6177" style="stroke:#555555;stroke-width:1;stroke-linejoin:miter;stroke-miterlimit:10;"/><line style="stroke:#555555;stroke-width:1.3;" x1="313.3558" x2="371.514" y1="1286.1268" y2="1286.1268"/><polygon fill="#555555" points="367.514,1357.2898,371.514,1367.2898,375.514,1357.2898,371.514,1361.2898" style="stroke:#555555;stroke-width:1.3;stroke-linejoin:miter;stroke-miterlimit:10;"/><line style="stroke:#555555;stroke-width:1.3;" x1="371.514" x2="371.514" y1="1286.1268" y2="1431.2898"/><line style="stroke:#555555;stroke-width:1.3;" x1="371.514" x2="238.4912" y1="1431.2898" y2="1431.2898"/><line style="stroke:#555555;stroke-width:1.3;" x1="238.4912" x2="238.4912" y1="1431.2898" y2="1451.2898"/><polygon fill="#555555" points="234.4912,1441.2898,238.4912,1451.2898,242.4912,1441.2898,238.4912,1445.2898" style="stroke:#555555;stroke-width:1;stroke-linejoin:miter;stroke-miterlimit:10;"/><line style="stroke:#555555;stroke-width:1.3;" x1="147.8557" x2="147.8557" y1="1537.978" y2="1572.978"/><polygon fill="#555555" points="143.8557,1562.978,147.8557,1572.978,151.8557,1562.978,147.8557,1566.978" style="stroke:#555555;stroke-width:1;stroke-linejoin:miter;stroke-miterlimit:10;"/><line style="stroke:#555555;stroke-width:1.3;" x1="329.1267" x2="329.1267" y1="1521.6339" y2="1556.6339"/><polygon fill="#555555" points="325.1267,1546.6339,329.1267,1556.6339,333.1267,1546.6339,329.1267,1550.6339" style="stroke:#555555;stroke-width:1;stroke-linejoin:miter;stroke-miterlimit:10;"/><line style="stroke:#555555;stroke-width:1.3;" x1="177.9816" x2="147.8557" y1="1463.2898" y2="1463.2898"/><line style="stroke:#555555;stroke-width:1.3;" x1="147.8557" x2="147.8557" y1="1463.2898" y2="1485.2898"/><polygon fill="#555555" points="143.8557,1475.2898,147.8557,1485.2898,151.8557,1475.2898,147.8557,1479.2898" style="stroke:#555555;stroke-width:1;stroke-linejoin:miter;stroke-miterlimit:10;"/><line style="stroke:#555555;stroke-width:1.3;" x1="299.0009" x2="329.1267" y1="1463.2898" y2="1463.2898"/><line style="stroke:#555555;stroke-width:1.3;" x1="329.1267" x2="329.1267" y1="1463.2898" y2="1485.2898"/><polygon fill="#555555" points="325.1267,1475.2898,329.1267,1485.2898,333.1267,1475.2898,329.1267,1479.2898" style="stroke:#555555;stroke-width:1;stroke-linejoin:miter;stroke-miterlimit:10;"/><g class="legend" data-source-line="57"><rect fill="none" height="128.4075" rx="4" ry="4" style="stroke:#000000;stroke-width:1;" width="318.1108" x="81.2044" y="1706.39"/><text fill="#000000" font-family="'Inter, Helvetica, sans-serif'" font-size="14" font-weight="700" lengthAdjust="spacing" textLength="46.0178" x="89.8444" y="1728.356">Colour</text><text fill="#000000" font-family="'Inter, Helvetica, sans-serif'" font-size="14" font-weight="700" lengthAdjust="spacing" textLength="118.0475" x="143.1422" y="1728.356">Branch / concept</text><rect fill="#2D9574" height="19.0679" style="stroke:none;stroke-width:1;" width="53.2978" x="86.2044" y="1732.458"/><text fill="#000000" font-family="'Inter, Helvetica, sans-serif'" font-size="14" lengthAdjust="spacing" textLength="3.64" x="86.2044" y="1747.4239">&#160;</text><text fill="#000000" font-family="'Inter, Helvetica, sans-serif'" font-size="14" lengthAdjust="spacing" textLength="134.6515" x="143.1422" y="1747.4239">renderer UI strategy</text><rect fill="#3A5BA0" height="19.0679" style="stroke:none;stroke-width:1;" width="53.2978" x="86.2044" y="1751.5259"/><text fill="#000000" font-family="'Inter, Helvetica, sans-serif'" font-size="14" lengthAdjust="spacing" textLength="3.64" x="86.2044" y="1766.4918">&#160;</text><text fill="#000000" font-family="'Inter, Helvetica, sans-serif'" font-size="14" lengthAdjust="spacing" textLength="159.4314" x="143.1422" y="1766.4918">main-owned native view</text><rect fill="#67B11D" height="19.0679" style="stroke:none;stroke-width:1;" width="53.2978" x="86.2044" y="1770.5938"/><text fill="#000000" font-family="'Inter, Helvetica, sans-serif'" font-size="14" lengthAdjust="spacing" textLength="3.64" x="86.2044" y="1785.5597">&#160;</text><text fill="#000000" font-family="'Inter, Helvetica, sans-serif'" font-size="14" lengthAdjust="spacing" textLength="142.9955" x="143.1422" y="1785.5597">Markdown/text HTML</text><rect fill="#E0211D" height="19.0679" style="stroke:none;stroke-width:1;" width="53.2978" x="86.2044" y="1789.6617"/><text fill="#000000" font-family="'Inter, Helvetica, sans-serif'" font-size="14" lengthAdjust="spacing" textLength="3.64" x="86.2044" y="1804.6276">&#160;</text><text fill="#000000" font-family="'Inter, Helvetica, sans-serif'" font-size="14" lengthAdjust="spacing" textLength="66.9757" x="143.1422" y="1804.6276">error view</text><rect fill="#DDDDDD" height="19.0679" style="stroke:none;stroke-width:1;" width="53.2978" x="86.2044" y="1808.7296"/><text fill="#000000" font-family="'Inter, Helvetica, sans-serif'" font-size="14" lengthAdjust="spacing" textLength="3.64" x="86.2044" y="1823.6956">&#160;</text><text fill="#000000" font-family="'Inter, Helvetica, sans-serif'" font-size="14" lengthAdjust="spacing" textLength="247.533" x="143.1422" y="1823.6956">placeholder or planned future branch</text><line style="stroke:#000000;stroke-width:1;" x1="86.2044" x2="394.3152" y1="1713.39" y2="1713.39"/><line style="stroke:#000000;stroke-width:1;" x1="86.2044" x2="394.3152" y1="1732.458" y2="1732.458"/><line style="stroke:#000000;stroke-width:1;" x1="86.2044" x2="394.3152" y1="1751.5259" y2="1751.5259"/><line style="stroke:#000000;stroke-width:1;" x1="86.2044" x2="394.3152" y1="1770.5938" y2="1770.5938"/><line style="stroke:#000000;stroke-width:1;" x1="86.2044" x2="394.3152" y1="1789.6617" y2="1789.6617"/><line style="stroke:#000000;stroke-width:1;" x1="86.2044" x2="394.3152" y1="1808.7296" y2="1808.7296"/><line style="stroke:#000000;stroke-width:1;" x1="86.2044" x2="394.3152" y1="1827.7975" y2="1827.7975"/><line style="stroke:#000000;stroke-width:1;" x1="86.2044" x2="86.2044" y1="1713.39" y2="1827.7975"/><line style="stroke:#000000;stroke-width:1;" x1="139.5022" x2="139.5022" y1="1713.39" y2="1827.7975"/><line style="stroke:#000000;stroke-width:1;" x1="394.3152" x2="394.3152" y1="1713.39" y2="1827.7975"/></g><?plantuml-src hLJRJXin47tVhvY61uZKJRYK8iAb0j8BKb4HjxuWLOuzsRNmsYlRcn1rA_KZ-eNzaewT9OGkQllGbHBvCdFEp9aPhwx29olGee1BRvd7R0OE5N9lB8pfDv6QsLclahs9nAdhSwCzQf-6NIzv8JLNbK3uCfcaFiS2Ux8gL99uwHN2il4Z_i_lFu1Nrj8D2CEh8Yn6HioWjCXHeEQO9CupwvE1HIQ0SIyd29wDuFhYzEMjRWx8cpO1FNMciXnXh5YsboHo36lQW2bH1o_tfWiKdOQr6Rfk0Z2OKYYsOFPk3_RtLpQ7kzixhmuFwSPvKoQeXHpFKOW2SkPWG8i-Mcji2okUGeWYWhrTtzpO63uBreHDEO1qyE7gwhmV_YvRaE4KfZXAS-FyhLuhcDIfcMegqsSSdSnbTJT4sOsSMqVRnqVhptB6mE-a5d00dLACEosoy-4x-Cyyic0PjfdYSQZoGgm_AFy4S5xUDkA94NWcOm6Q3WZGb8ctYAcJdieCq-2IMLPGmG7lfVEk-pVsC-eDGKh0JUpTYDrYNw84Co4cpdXEsYsSFTxxVyepzuKAmZZIkqLJD73z04TjS_OnZWjbIHDQf5iWjKORpvtKT_FSNkySFsr3vJ0CHKIy87wqKcTGAiOnDugsqMqOlrQW9GsZzD9ew9mhfaE3Z2jVMOIHPPhd7LXHKcDFC4S2x8NrO3T-y3KG2ib20HwAb1x2vSrxOfW_2Ryp2_GaPF8jIHHc505OcUMUBke3E36ACCBgE393Fpmp74iFTR1OQ5s3ZLbIMQvF5rGFHaqdrx3Kyfh5yOpbRCmQ5Uj5IPTgq9Wqyrx3uplmSDMaL2-h36HJFYSXEL6yyuH_0G00?></g></svg>