<svg xmlns="http://www.w3.org/2000/svg" xmlns:xlink="http://www.w3.org/1999/xlink" contentStyleType="text/css" data-diagram-type="ACTIVITY" height="1323px" preserveAspectRatio="none" style="width:652px;height:1323px;background:#FBF8EF;" version="1.1" viewBox="0 0 652 1323" width="652px" zoomAndPan="magnify"><?plantuml $version$?><defs/><g><rect fill="#FBF8EF" height="1323" style="stroke:none;stroke-width:1;" width="652" x="0" y="0"/><g class="title" data-source-line="8"><text fill="#000000" font-family="'Inter, Helvetica, sans-serif'" font-size="14" font-weight="700" lengthAdjust="spacing" textLength="610.8317" x="20" y="34.9659">content-view Strategy &#8212; selecting the document body by precedence (first match wins)</text><text fill="#000000" font-family="'Inter, Helvetica, sans-serif'" font-size="14" font-weight="700" lengthAdjust="spacing" textLength="211.6092" x="219.6112" y="54.0339">(vinary.ui.views/content-view)</text></g><ellipse cx="201.3314" cy="84.1358" fill="#222222" rx="10" ry="10" style="stroke:#222222;stroke-width:1;"/><rect fill="#F1F1F1" height="52.6882" rx="4" ry="4" style="stroke:#181818;stroke-width:0.5;" width="229.9775" x="86.3427" y="114.1358"/><text fill="#000000" font-family="'Inter, Helvetica, sans-serif'" font-size="12" lengthAdjust="spacing" textLength="113.9048" x="96.3427" y="136.9639">render content-view</text><text fill="#000000" font-family="'Inter, Helvetica, sans-serif'" font-size="12" lengthAdjust="spacing" textLength="209.9775" x="96.3427" y="153.308">(doc = @[:doc/active], tabs = @[:tabs])</text><rect fill="#2D9574" height="52.6882" rx="4" ry="4" style="stroke:#181818;stroke-width:0.5;" width="164.289" x="119.1869" y="236.315"/><text fill="#000000" font-family="'Inter, Helvetica, sans-serif'" font-size="12" lengthAdjust="spacing" textLength="69.4325" x="129.1869" y="259.1431">[watermark]</text><text fill="#000000" font-family="'Inter, Helvetica, sans-serif'" font-size="12" lengthAdjust="spacing" textLength="144.289" x="129.1869" y="275.4872">.vv-watermark / .vv-shield</text><ellipse cx="201.3314" cy="320.0032" fill="none" rx="11" ry="11" style="stroke:#222222;stroke-width:1;"/><ellipse cx="201.3314" cy="320.0032" fill="#222222" rx="6" ry="6" style="stroke:#222222;stroke-width:1;"/><polygon fill="#F1F1F1" points="170.0091,186.8241,232.6537,186.8241,244.6537,198.8241,232.6537,210.8241,170.0091,210.8241,158.0091,198.8241,170.0091,186.8241" style="stroke:#181818;stroke-width:0.5;stroke-linejoin:miter;stroke-miterlimit:10;"/><text fill="#000000" font-family="'Inter, Helvetica, sans-serif'" font-size="11" lengthAdjust="spacing" textLength="17.0829" x="205.3314" y="222.583">yes</text><text fill="#000000" font-family="'Inter, Helvetica, sans-serif'" font-size="11" lengthAdjust="spacing" textLength="62.6446" x="170.0091" y="203.092">tabs empty?</text><text fill="#000000" font-family="'Inter, Helvetica, sans-serif'" font-size="11" lengthAdjust="spacing" textLength="13.4529" x="244.6537" y="195.6011">no</text><rect fill="#E0211D" height="36.3441" rx="4" ry="4" style="stroke:#181818;stroke-width:0.5;" width="153.393" x="124.6349" y="422.4942"/><text fill="#000000" font-family="'Inter, Helvetica, sans-serif'" font-size="12" lengthAdjust="spacing" textLength="133.393" x="134.6349" y="445.3223">[:div.vv-error "Error: &#8230;"]</text><ellipse cx="201.3314" cy="497.1662" fill="none" rx="11" ry="11" style="stroke:#222222;stroke-width:1;"/><ellipse cx="201.3314" cy="497.1662" fill="#222222" rx="6" ry="6" style="stroke:#222222;stroke-width:1;"/><polygon fill="#F1F1F1" points="151.5238,373.0032,251.1391,373.0032,263.1391,385.0032,251.1391,397.0032,151.5238,397.0032,139.5238,385.0032,151.5238,373.0032" style="stroke:#181818;stroke-width:0.5;stroke-linejoin:miter;stroke-miterlimit:10;"/><text fill="#000000" font-family="'Inter, Helvetica, sans-serif'" font-size="11" lengthAdjust="spacing" textLength="17.0829" x="205.3314" y="408.7621">yes</text><text fill="#000000" font-family="'Inter, Helvetica, sans-serif'" font-size="11" lengthAdjust="spacing" textLength="99.6153" x="151.5238" y="389.2712">:doc/error present?</text><text fill="#000000" font-family="'Inter, Helvetica, sans-serif'" font-size="11" lengthAdjust="spacing" textLength="13.4529" x="263.1391" y="381.7803">no</text><rect fill="#2D9574" height="52.6882" rx="4" ry="4" style="stroke:#181818;stroke-width:0.5;" width="163.545" x="119.5589" y="599.6572"/><text fill="#000000" font-family="'Inter, Helvetica, sans-serif'" font-size="12" lengthAdjust="spacing" textLength="107.4607" x="129.5589" y="622.4853">[:div.vv-image-view</text><text fill="#000000" font-family="'Inter, Helvetica, sans-serif'" font-size="12" lengthAdjust="spacing" textLength="143.545" x="129.5589" y="638.8294">[:img {:src "file://"+path}]]</text><ellipse cx="201.3314" cy="683.3454" fill="none" rx="11" ry="11" style="stroke:#222222;stroke-width:1;"/><ellipse cx="201.3314" cy="683.3454" fill="#222222" rx="6" ry="6" style="stroke:#222222;stroke-width:1;"/><polygon fill="#F1F1F1" points="148.3118,550.1662,254.3511,550.1662,266.3511,562.1662,254.3511,574.1662,148.3118,574.1662,136.3118,562.1662,148.3118,550.1662" style="stroke:#181818;stroke-width:0.5;stroke-linejoin:miter;stroke-miterlimit:10;"/><text fill="#000000" font-family="'Inter, Helvetica, sans-serif'" font-size="11" lengthAdjust="spacing" textLength="17.0829" x="205.3314" y="585.9251">yes</text><text fill="#000000" font-family="'Inter, Helvetica, sans-serif'" font-size="11" lengthAdjust="spacing" textLength="106.0392" x="148.3118" y="566.4342">:doc/kind = "image"?</text><text fill="#000000" font-family="'Inter, Helvetica, sans-serif'" font-size="11" lengthAdjust="spacing" textLength="13.4529" x="266.3511" y="558.9433">no</text><polygon fill="#F1F1F1" points="152.8218,736.3454,249.8411,736.3454,261.8411,748.3454,249.8411,760.3454,152.8218,760.3454,140.8218,748.3454,152.8218,736.3454" style="stroke:#181818;stroke-width:0.5;stroke-linejoin:miter;stroke-miterlimit:10;"/><text fill="#000000" font-family="'Inter, Helvetica, sans-serif'" font-size="11" lengthAdjust="spacing" textLength="97.0193" x="152.8218" y="752.6134">:doc/html present?</text><text fill="#000000" font-family="'Inter, Helvetica, sans-serif'" font-size="11" lengthAdjust="spacing" textLength="17.0829" x="123.7389" y="745.1224">yes</text><text fill="#000000" font-family="'Inter, Helvetica, sans-serif'" font-size="11" lengthAdjust="spacing" textLength="107.5792" x="261.8411" y="745.1224">no &#8212; render in flight</text><rect fill="#67B11D" height="52.6882" rx="4" ry="4" style="stroke:#181818;stroke-width:0.5;" width="157.413" x="27.3154" y="770.3454"/><text fill="#000000" font-family="'Inter, Helvetica, sans-serif'" font-size="12" lengthAdjust="spacing" textLength="129.8889" x="37.3154" y="793.1735">[markdown-body html]</text><text fill="#000000" font-family="'Inter, Helvetica, sans-serif'" font-size="12" lengthAdjust="spacing" textLength="137.413" x="37.3154" y="809.5176">(form-3; set! innerHTML)</text><ellipse cx="106.0219" cy="869.0336" fill="none" rx="11" ry="11" style="stroke:#222222;stroke-width:1;"/><ellipse cx="106.0219" cy="869.0336" fill="#222222" rx="6" ry="6" style="stroke:#222222;stroke-width:1;"/><rect fill="#DDDDDD" height="36.3441" rx="4" ry="4" style="stroke:#181818;stroke-width:0.5;" width="183.8251" x="204.7284" y="770.3454"/><text fill="#000000" font-family="'Inter, Helvetica, sans-serif'" font-size="12" lengthAdjust="spacing" textLength="163.8251" x="214.7284" y="793.1735">[:div.vv-empty "Rendering&#8230;"]</text><ellipse cx="296.641" cy="852.6895" fill="none" rx="11" ry="11" style="stroke:#222222;stroke-width:1;"/><ellipse cx="296.641" cy="852.6895" fill="#222222" rx="6" ry="6" style="stroke:#222222;stroke-width:1;"/><rect fill="none" height="260.2684" rx="4" ry="4" style="stroke:#000000;stroke-width:1.5;" width="530.6761" x="90.8402" y="890.0336"/><path d="M342.4373,890.0336 L342.4373,902.1016 L332.4373,912.1016 L90.8402,912.1016" fill="none" style="stroke:#000000;stroke-width:1.5;"/><text fill="#000000" font-family="'Inter, Helvetica, sans-serif'" font-size="14" lengthAdjust="spacing" textLength="241.5971" x="93.8402" y="905.9996">Forthcoming (planned) registry arms</text><rect fill="#DDDDDD" height="52.6882" rx="4" ry="4" style="stroke:#181818;stroke-width:0.5;" width="147.6089" x="127.527" y="922.1016"/><text fill="#000000" font-family="'Inter, Helvetica, sans-serif'" font-size="12" lengthAdjust="spacing" textLength="127.6089" x="137.527" y="944.9296">&#171;planned&#187; kind = "pdf"</text><text fill="#000000" font-family="'Inter, Helvetica, sans-serif'" font-size="12" lengthAdjust="spacing" textLength="124.1515" x="137.527" y="961.2738">&#8594; native BrowserView</text><rect fill="#DDDDDD" height="52.6882" rx="4" ry="4" style="stroke:#181818;stroke-width:0.5;" width="200.9825" x="100.8402" y="994.7898"/><text fill="#000000" font-family="'Inter, Helvetica, sans-serif'" font-size="12" lengthAdjust="spacing" textLength="156.2171" x="110.8402" y="1017.6179">&#171;planned&#187; kind = "diagram"</text><text fill="#000000" font-family="'Inter, Helvetica, sans-serif'" font-size="12" lengthAdjust="spacing" textLength="180.9825" x="110.8402" y="1033.962">&#8594; d2/PlantUML/Mermaid &#8594; SVG</text><path d="M304.646,1057.478 L304.646,1093.89 L284.646,1097.89 L304.646,1101.89 L304.646,1138.3021 A0,0 0 0 0 304.646,1138.3021 L611.5163,1138.3021 A0,0 0 0 0 611.5163,1138.3021 L611.5163,1067.478 L601.5163,1057.478 L304.646,1057.478 A0,0 0 0 0 304.646,1057.478" fill="#EEEEEE" style="stroke:#7F6B14;stroke-width:0.5;"/><path d="M601.5163,1057.478 L601.5163,1067.478 L611.5163,1067.478 L601.5163,1057.478" fill="#EEEEEE" style="stroke:#7F6B14;stroke-width:0.5;"/><text fill="#000000" font-family="'Inter, Helvetica, sans-serif'" font-size="13" lengthAdjust="spacing" textLength="285.8703" x="310.646" y="1076.375">Today the Strategy is a fixed cond; the planned</text><text fill="#000000" font-family="'Inter, Helvetica, sans-serif'" font-size="13" lengthAdjust="spacing" textLength="271.4272" x="310.646" y="1094.081">"registry as data" replaces these arms with a</text><text fill="#000000" font-family="'Inter, Helvetica, sans-serif'" font-size="13" lengthAdjust="spacing" textLength="272.2318" x="310.646" y="1111.7871">{kind &#8594; render-fn} table (open for extension,</text><text fill="#000000" font-family="'Inter, Helvetica, sans-serif'" font-size="13" lengthAdjust="spacing" textLength="147.5371" x="310.646" y="1129.4931">closed for modification).</text><rect fill="#DDDDDD" height="52.6882" rx="4" ry="4" style="stroke:#181818;stroke-width:0.5;" width="166.6291" x="118.0169" y="1071.5459"/><text fill="#000000" font-family="'Inter, Helvetica, sans-serif'" font-size="12" lengthAdjust="spacing" textLength="146.6291" x="128.0169" y="1094.374">&#171;planned&#187; kind = "source"</text><text fill="#000000" font-family="'Inter, Helvetica, sans-serif'" font-size="12" lengthAdjust="spacing" textLength="97.6073" x="128.0169" y="1110.7181">&#8594; tree-sitter view</text><line style="stroke:#555555;stroke-width:1.3;" x1="201.3314" x2="201.3314" y1="94.1358" y2="114.1358"/><polygon fill="#555555" points="197.3314,104.1358,201.3314,114.1358,205.3314,104.1358,201.3314,108.1358" style="stroke:#555555;stroke-width:1;stroke-linejoin:miter;stroke-miterlimit:10;"/><line style="stroke:#555555;stroke-width:1.3;" x1="201.3314" x2="201.3314" y1="289.0032" y2="309.0032"/><polygon fill="#555555" points="197.3314,299.0032,201.3314,309.0032,205.3314,299.0032,201.3314,303.0032" style="stroke:#555555;stroke-width:1;stroke-linejoin:miter;stroke-miterlimit:10;"/><line style="stroke:#555555;stroke-width:1.3;" x1="201.3314" x2="201.3314" y1="210.8241" y2="236.315"/><polygon fill="#555555" points="197.3314,226.315,201.3314,236.315,205.3314,226.315,201.3314,230.315" style="stroke:#555555;stroke-width:1;stroke-linejoin:miter;stroke-miterlimit:10;"/><line style="stroke:#555555;stroke-width:1.3;" x1="244.6537" x2="293.4759" y1="198.8241" y2="198.8241"/><polygon fill="#555555" points="289.4759,278.1591,293.4759,288.1591,297.4759,278.1591,293.4759,282.1591" style="stroke:#555555;stroke-width:1.3;stroke-linejoin:miter;stroke-miterlimit:10;"/><line style="stroke:#555555;stroke-width:1.3;" x1="293.4759" x2="293.4759" y1="198.8241" y2="353.0032"/><line style="stroke:#555555;stroke-width:1.3;" x1="293.4759" x2="201.3314" y1="353.0032" y2="353.0032"/><line style="stroke:#555555;stroke-width:1.3;" x1="201.3314" x2="201.3314" y1="353.0032" y2="373.0032"/><polygon fill="#555555" points="197.3314,363.0032,201.3314,373.0032,205.3314,363.0032,201.3314,367.0032" style="stroke:#555555;stroke-width:1;stroke-linejoin:miter;stroke-miterlimit:10;"/><line style="stroke:#555555;stroke-width:1.3;" x1="201.3314" x2="201.3314" y1="166.8241" y2="186.8241"/><polygon fill="#555555" points="197.3314,176.8241,201.3314,186.8241,205.3314,176.8241,201.3314,180.8241" style="stroke:#555555;stroke-width:1;stroke-linejoin:miter;stroke-miterlimit:10;"/><line style="stroke:#555555;stroke-width:1.3;" x1="201.3314" x2="201.3314" y1="458.8383" y2="486.1662"/><polygon fill="#555555" points="197.3314,476.1662,201.3314,486.1662,205.3314,476.1662,201.3314,480.1662" style="stroke:#555555;stroke-width:1;stroke-linejoin:miter;stroke-miterlimit:10;"/><line style="stroke:#555555;stroke-width:1.3;" x1="201.3314" x2="201.3314" y1="397.0032" y2="422.4942"/><polygon fill="#555555" points="197.3314,412.4942,201.3314,422.4942,205.3314,412.4942,201.3314,416.4942" style="stroke:#555555;stroke-width:1;stroke-linejoin:miter;stroke-miterlimit:10;"/><line style="stroke:#555555;stroke-width:1.3;" x1="263.1391" x2="288.0279" y1="385.0032" y2="385.0032"/><polygon fill="#555555" points="284.0279,456.1662,288.0279,466.1662,292.0279,456.1662,288.0279,460.1662" style="stroke:#555555;stroke-width:1.3;stroke-linejoin:miter;stroke-miterlimit:10;"/><line style="stroke:#555555;stroke-width:1.3;" x1="288.0279" x2="288.0279" y1="385.0032" y2="530.1662"/><line style="stroke:#555555;stroke-width:1.3;" x1="288.0279" x2="201.3314" y1="530.1662" y2="530.1662"/><line style="stroke:#555555;stroke-width:1.3;" x1="201.3314" x2="201.3314" y1="530.1662" y2="550.1662"/><polygon fill="#555555" points="197.3314,540.1662,201.3314,550.1662,205.3314,540.1662,201.3314,544.1662" style="stroke:#555555;stroke-width:1;stroke-linejoin:miter;stroke-miterlimit:10;"/><line style="stroke:#555555;stroke-width:1.3;" x1="201.3314" x2="201.3314" y1="652.3454" y2="672.3454"/><polygon fill="#555555" points="197.3314,662.3454,201.3314,672.3454,205.3314,662.3454,201.3314,666.3454" style="stroke:#555555;stroke-width:1;stroke-linejoin:miter;stroke-miterlimit:10;"/><line style="stroke:#555555;stroke-width:1.3;" x1="201.3314" x2="201.3314" y1="574.1662" y2="599.6572"/><polygon fill="#555555" points="197.3314,589.6572,201.3314,599.6572,205.3314,589.6572,201.3314,593.6572" style="stroke:#555555;stroke-width:1;stroke-linejoin:miter;stroke-miterlimit:10;"/><line style="stroke:#555555;stroke-width:1.3;" x1="266.3511" x2="293.1039" y1="562.1662" y2="562.1662"/><polygon fill="#555555" points="289.1039,641.5013,293.1039,651.5013,297.1039,641.5013,293.1039,645.5013" style="stroke:#555555;stroke-width:1.3;stroke-linejoin:miter;stroke-miterlimit:10;"/><line style="stroke:#555555;stroke-width:1.3;" x1="293.1039" x2="293.1039" y1="562.1662" y2="716.3454"/><line style="stroke:#555555;stroke-width:1.3;" x1="293.1039" x2="201.3314" y1="716.3454" y2="716.3454"/><line style="stroke:#555555;stroke-width:1.3;" x1="201.3314" x2="201.3314" y1="716.3454" y2="736.3454"/><polygon fill="#555555" points="197.3314,726.3454,201.3314,736.3454,205.3314,726.3454,201.3314,730.3454" style="stroke:#555555;stroke-width:1;stroke-linejoin:miter;stroke-miterlimit:10;"/><line style="stroke:#555555;stroke-width:1.3;" x1="106.0219" x2="106.0219" y1="823.0336" y2="858.0336"/><polygon fill="#555555" points="102.0219,848.0336,106.0219,858.0336,110.0219,848.0336,106.0219,852.0336" style="stroke:#555555;stroke-width:1;stroke-linejoin:miter;stroke-miterlimit:10;"/><line style="stroke:#555555;stroke-width:1.3;" x1="296.641" x2="296.641" y1="806.6895" y2="841.6895"/><polygon fill="#555555" points="292.641,831.6895,296.641,841.6895,300.641,831.6895,296.641,835.6895" style="stroke:#555555;stroke-width:1;stroke-linejoin:miter;stroke-miterlimit:10;"/><line style="stroke:#555555;stroke-width:1.3;" x1="140.8218" x2="106.0219" y1="748.3454" y2="748.3454"/><line style="stroke:#555555;stroke-width:1.3;" x1="106.0219" x2="106.0219" y1="748.3454" y2="770.3454"/><polygon fill="#555555" points="102.0219,760.3454,106.0219,770.3454,110.0219,760.3454,106.0219,764.3454" style="stroke:#555555;stroke-width:1;stroke-linejoin:miter;stroke-miterlimit:10;"/><line style="stroke:#555555;stroke-width:1.3;" x1="261.8411" x2="296.641" y1="748.3454" y2="748.3454"/><line style="stroke:#555555;stroke-width:1.3;" x1="296.641" x2="296.641" y1="748.3454" y2="770.3454"/><polygon fill="#555555" points="292.641,760.3454,296.641,770.3454,300.641,760.3454,296.641,764.3454" style="stroke:#555555;stroke-width:1;stroke-linejoin:miter;stroke-miterlimit:10;"/><line style="stroke:#555555;stroke-width:1.3;" x1="201.3314" x2="201.3314" y1="974.7898" y2="994.7898"/><polygon fill="#555555" points="197.3314,984.7898,201.3314,994.7898,205.3314,984.7898,201.3314,988.7898" style="stroke:#555555;stroke-width:1;stroke-linejoin:miter;stroke-miterlimit:10;"/><line style="stroke:#555555;stroke-width:1.3;" x1="201.3314" x2="201.3314" y1="1047.478" y2="1071.5459"/><polygon fill="#555555" points="197.3314,1061.5459,201.3314,1071.5459,205.3314,1061.5459,201.3314,1065.5459" style="stroke:#555555;stroke-width:1;stroke-linejoin:miter;stroke-miterlimit:10;"/><g class="legend" data-source-line="53"><rect fill="none" height="128.4075" rx="4" ry="4" style="stroke:#000000;stroke-width:1;" width="438.9165" x="178.5998" y="1171.3021"/><text fill="#000000" font-family="'Inter, Helvetica, sans-serif'" font-size="14" font-weight="700" lengthAdjust="spacing" textLength="46.0178" x="187.2398" y="1193.268">Colour</text><text fill="#000000" font-family="'Inter, Helvetica, sans-serif'" font-size="14" font-weight="700" lengthAdjust="spacing" textLength="118.0475" x="240.5376" y="1193.268">Branch / concept</text><rect fill="#2D9574" height="19.0679" style="stroke:none;stroke-width:1;" width="53.2978" x="183.5998" y="1197.37"/><text fill="#000000" font-family="'Inter, Helvetica, sans-serif'" font-size="14" lengthAdjust="spacing" textLength="3.64" x="183.5998" y="1212.3359">&#160;</text><text fill="#000000" font-family="'Inter, Helvetica, sans-serif'" font-size="14" lengthAdjust="spacing" textLength="271.9769" x="240.5376" y="1212.3359">renderer view output (watermark, image)</text><rect fill="#67B11D" height="19.0679" style="stroke:none;stroke-width:1;" width="53.2978" x="183.5998" y="1216.4379"/><text fill="#000000" font-family="'Inter, Helvetica, sans-serif'" font-size="14" lengthAdjust="spacing" textLength="3.64" x="183.5998" y="1231.4038">&#160;</text><text fill="#000000" font-family="'Inter, Helvetica, sans-serif'" font-size="14" lengthAdjust="spacing" textLength="246.987" x="240.5376" y="1231.4038">Markdown body (rendered :doc/html)</text><rect fill="#E0211D" height="19.0679" style="stroke:none;stroke-width:1;" width="53.2978" x="183.5998" y="1235.5058"/><text fill="#000000" font-family="'Inter, Helvetica, sans-serif'" font-size="14" lengthAdjust="spacing" textLength="3.64" x="183.5998" y="1250.4718">&#160;</text><text fill="#000000" font-family="'Inter, Helvetica, sans-serif'" font-size="14" lengthAdjust="spacing" textLength="145.4874" x="240.5376" y="1250.4718">error view (:doc/error)</text><rect fill="#DDDDDD" height="19.0679" style="stroke:none;stroke-width:1;" width="53.2978" x="183.5998" y="1254.5737"/><text fill="#000000" font-family="'Inter, Helvetica, sans-serif'" font-size="14" lengthAdjust="spacing" textLength="3.64" x="183.5998" y="1269.5397">&#160;</text><text fill="#000000" font-family="'Inter, Helvetica, sans-serif'" font-size="14" lengthAdjust="spacing" textLength="337.2587" x="240.5376" y="1269.5397">"Rendering&#8230;" placeholder + &#171;planned&#187; future arms</text><line style="stroke:#000000;stroke-width:1;" x1="183.5998" x2="581.4362" y1="1178.3021" y2="1178.3021"/><line style="stroke:#000000;stroke-width:1;" x1="183.5998" x2="581.4362" y1="1197.37" y2="1197.37"/><line style="stroke:#000000;stroke-width:1;" x1="183.5998" x2="581.4362" y1="1216.4379" y2="1216.4379"/><line style="stroke:#000000;stroke-width:1;" x1="183.5998" x2="581.4362" y1="1235.5058" y2="1235.5058"/><line style="stroke:#000000;stroke-width:1;" x1="183.5998" x2="581.4362" y1="1254.5737" y2="1254.5737"/><line style="stroke:#000000;stroke-width:1;" x1="183.5998" x2="581.4362" y1="1273.6417" y2="1273.6417"/><line style="stroke:#000000;stroke-width:1;" x1="183.5998" x2="183.5998" y1="1178.3021" y2="1273.6417"/><line style="stroke:#000000;stroke-width:1;" x1="236.8976" x2="236.8976" y1="1178.3021" y2="1273.6417"/><line style="stroke:#000000;stroke-width:1;" x1="581.4362" x2="581.4362" y1="1178.3021" y2="1273.6417"/><text fill="#000000" font-family="'Inter, Helvetica, sans-serif'" font-size="14" lengthAdjust="spacing" textLength="428.9165" x="183.5998" y="1290.6076">Arms are tried top-to-bottom; the FIRST matching condition wins.</text></g><?plantuml-src bLNDRjj64BxpAIRKmIAidyRz2KB5QUl8QGlOQ66xkTX2iIA7uYBaBh6xaYnO1dhg0nHzXbxw2BtbKV8adTcbPDcnWPGNBfSxVzzyy-tU7lnI2UL-FJq1lK03fsXg8NEOOYRc5i6L29bM3fNhBoGkuTmPuN2s0cb1AFZvR7nyTZpcCpbq2sciWrguh9Hg1iBKi9JA9hreRm-i1W5EDtsd-rFjdAuXnqnQgHLamcOYHphjIiY5BJ673_yqb9h2_CE_KCpTt21CZL1PYPQ3SsP6pae7jXGDZhQ5S2oHERcGZh8iXbXPb0Kq1YsQ1GPB-iemHvKXQ9DJuOBohz1PQ8DoyfPWWDo8fMfp6iuChWOSu4GwDAA2Hf2HGoZn6cqA3cclSp1--VMBhy2W8i_aMyzTCtUs1sIE2ZhVl3Xw_dnCE9dtkLwg7ftCeNFynG7leZ7QUC0u67J6_jb5On0zaoghveJNRuj5dygfSI3dTHL5JhhggOPz_Fqli5WXGKEzOH1odSrhEWXJdQzWkjf5PRUNeObNghkGIfZLO2u7xDeETmCbKMITC2vAGzttiY1R2WQ7yDrbIekXxmzEUk34r8PjNasIKHHHhxf-6-l6hRvDE5K5tHNQ9098BvTKZc7i9bTgGFLlls48_6rBYLK-WbUlsaQyVarsbfWNCHMWgtGIKOgo2B5yGXxrm17bFesPvdB1liEn-9XVAI7wTppnWKBlFYVGUqb4EuHOrcA6yTEH_FyMkyjKrZEuIQt982vaXUbm6EytmfMtayd_BBHqTVLqdHjAzZqZ-2o1t2sqgVjVZeWzxXb88g7vyUBq9F6H0vS_ZUpfrZ91AYWg7jK7O79_8JxpXuYJTt06pkyu3KNGJFJvWRVQk3BJDHDvgmdTTa2IT3Epw4J6IhA_Exx1HTGGLQLZxObtlMsTKEupQPrPUI68eLD9XOFWPyJhzAL_u8PhsjMgJOURl8YlrCS__WGbcErmPFII9EWTzVHXbOywoAMO6L6tJlA3uKRXXXkLvltpTpzybZUhvoR3rfaZ8UfRISfbOF58FagxZRfsZlr3cm0NEXShBntthW4ev3N1p7V0AAXhYEvjuZiWBVN1YPYWfGDPK69YYrTQh_p2Mzpub3dDm9z-eMvPA4ZPkheXlX8V0Qz9NFZkw7cRhDAMKk0_jIQoo4nmSvC1_IKdlY1Q1af4jr5KuOptVOtqOtq8RtH54F7go5EAv8Ggoh1niEOJsobRtocxLzWWxz3T2b4F_FGc6xjsHjPmsevN4DnkwoQ7xMHkJLf1MOVh8CJPKQhjkRPdwmTZ11xWKbSyVlkFNQKUT7RoFIy4xJWZAPLx5tJevjkVpiulxcvrRdEO7BuM1ZoS0Sp_0000?></g></svg>