<svg xmlns="http://www.w3.org/2000/svg" xmlns:xlink="http://www.w3.org/1999/xlink" contentStyleType="text/css" data-diagram-type="ACTIVITY" height="1688px" preserveAspectRatio="none" style="width:3464px;height:1688px;background:#FBF8EF;" version="1.1" viewBox="0 0 3464 1688" width="3464px" zoomAndPan="magnify"><?plantuml $version$?><defs/><g><rect fill="#FBF8EF" height="1688" style="stroke:none;stroke-width:1;" width="3464" x="0" y="0"/><g class="title" data-source-line="8"><text fill="#000000" font-family="'Inter, Helvetica, sans-serif'" font-size="14" font-weight="700" lengthAdjust="spacing" textLength="472.6928" x="1494.6804" y="34.9659">Live-refresh spine &#8212; layer ownership of one file-change &#8594; re-render</text></g><rect fill="none" height="24.5158" style="stroke:none;stroke-width:1;" width="3417.0536" x="20" y="58.8419"/><rect fill="#EEEBE8" height="1417.1693" style="stroke:#EEEBE8;stroke-width:1;" width="214.2733" x="20" y="58.8419"/><ellipse cx="128.1366" cy="98.3577" fill="#222222" rx="10" ry="10" style="stroke:#222222;stroke-width:1;"/><rect fill="#F1F1F1" height="36.3441" rx="4" ry="4" style="stroke:#181818;stroke-width:0.5;" width="111.4527" x="72.4103" y="128.3577"/><text fill="#000000" font-family="'Inter, Helvetica, sans-serif'" font-size="12" lengthAdjust="spacing" textLength="91.4527" x="82.4103" y="151.1858">editor writes file</text><rect fill="#F1F1F1" height="69.0323" rx="4" ry="4" style="stroke:#181818;stroke-width:0.5;" width="204.2733" x="26" y="184.7018"/><text fill="#000000" font-family="'Inter, Helvetica, sans-serif'" font-size="12" lengthAdjust="spacing" textLength="184.2733" x="36" y="207.5299">chokidar watcher (retained path)</text><text fill="#000000" font-family="'Inter, Helvetica, sans-serif'" font-size="12" lengthAdjust="spacing" textLength="114.8288" x="36" y="223.874">fires "change"/"add"</text><text fill="#000000" font-family="'Inter, Helvetica, sans-serif'" font-size="12" lengthAdjust="spacing" textLength="164.6892" x="36" y="240.2182">after awaitWriteFinish (80ms)</text><line style="stroke:#000000;stroke-width:1.5;" x1="20" x2="20" y1="58.8419" y2="1476.0112"/><rect fill="#E4E8F1" height="1417.1693" style="stroke:#E4E8F1;stroke-width:1;" width="768.5891" x="234.2733" y="58.8419"/><rect fill="#F1F1F1" height="36.3441" rx="4" ry="4" style="stroke:#181818;stroke-width:0.5;" width="88.5325" x="443.3469" y="273.7342"/><text fill="#000000" font-family="'Inter, Helvetica, sans-serif'" font-size="12" lengthAdjust="spacing" textLength="68.5325" x="453.3469" y="296.5623">kind-of path</text><polygon fill="#F1F1F1" points="475.6132,330.0783,499.6132,330.0783,511.6132,342.0783,499.6132,354.0783,475.6132,354.0783,463.6132,342.0783,475.6132,330.0783" style="stroke:#181818;stroke-width:0.5;stroke-linejoin:miter;stroke-miterlimit:10;"/><text fill="#000000" font-family="'Inter, Helvetica, sans-serif'" font-size="11" lengthAdjust="spacing" textLength="22.2748" x="476.4757" y="346.3463">kind</text><text fill="#000000" font-family="'Inter, Helvetica, sans-serif'" font-size="11" lengthAdjust="spacing" textLength="32.2628" x="431.3504" y="338.8553">image</text><text fill="#000000" font-family="'Inter, Helvetica, sans-serif'" font-size="11" lengthAdjust="spacing" textLength="85.5134" x="511.6132" y="338.8553">markdown / text</text><rect fill="#F1F1F1" height="52.6882" rx="4" ry="4" style="stroke:#181818;stroke-width:0.5;" width="181.0771" x="240.2733" y="364.0783"/><text fill="#000000" font-family="'Inter, Helvetica, sans-serif'" font-size="12" lengthAdjust="spacing" textLength="161.0771" x="250.2733" y="386.9064">send vv:content {:path :kind}</text><text fill="#000000" font-family="'Inter, Helvetica, sans-serif'" font-size="12" lengthAdjust="spacing" textLength="103.9327" x="250.2733" y="403.2505">(no :text &#8212; binary)</text><rect fill="#F1F1F1" height="36.3441" rx="4" ry="4" style="stroke:#181818;stroke-width:0.5;" width="129.8608" x="590.4937" y="364.0783"/><text fill="#000000" font-family="'Inter, Helvetica, sans-serif'" font-size="12" lengthAdjust="spacing" textLength="109.8608" x="600.4937" y="386.9064">fs.readFileSync utf8</text><polygon fill="#F1F1F1" points="633.5012,435.4224,677.3469,435.4224,689.3469,447.4224,677.3469,459.4224,633.5012,459.4224,621.5012,447.4224,633.5012,435.4224" style="stroke:#181818;stroke-width:0.5;stroke-linejoin:miter;stroke-miterlimit:10;"/><text fill="#000000" font-family="'Inter, Helvetica, sans-serif'" font-size="11" lengthAdjust="spacing" textLength="43.8457" x="633.5012" y="451.6904">read ok?</text><text fill="#000000" font-family="'Inter, Helvetica, sans-serif'" font-size="11" lengthAdjust="spacing" textLength="17.0829" x="604.4184" y="444.1994">yes</text><text fill="#000000" font-family="'Inter, Helvetica, sans-serif'" font-size="11" lengthAdjust="spacing" textLength="35.8817" x="689.3469" y="444.1994">throws</text><rect fill="#F1F1F1" height="36.3441" rx="4" ry="4" style="stroke:#181818;stroke-width:0.5;" width="209.1933" x="440.3408" y="469.4224"/><text fill="#000000" font-family="'Inter, Helvetica, sans-serif'" font-size="12" lengthAdjust="spacing" textLength="189.1933" x="450.3408" y="492.2505">send vv:content {:path :kind :text}</text><path d="M882.2873,473.7415 L882.2873,483.5945 L862.2873,487.5945 L882.2873,491.5945 L882.2873,501.4475 A0,0 0 0 0 882.2873,501.4475 L997.8624,501.4475 A0,0 0 0 0 997.8624,501.4475 L997.8624,483.7415 L987.8624,473.7415 L882.2873,473.7415 A0,0 0 0 0 882.2873,473.7415" fill="#FFCCCC" style="stroke:#7F6B14;stroke-width:0.5;"/><path d="M987.8624,473.7415 L987.8624,483.7415 L997.8624,483.7415 L987.8624,473.7415" fill="#FFCCCC" style="stroke:#7F6B14;stroke-width:0.5;"/><text fill="#000000" font-family="'Inter, Helvetica, sans-serif'" font-size="13" lengthAdjust="spacing" textLength="94.5751" x="888.2873" y="492.6385">error path (red)</text><rect fill="#F1F1F1" height="36.3441" rx="4" ry="4" style="stroke:#181818;stroke-width:0.5;" width="192.7532" x="669.5341" y="469.4224"/><text fill="#000000" font-family="'Inter, Helvetica, sans-serif'" font-size="12" lengthAdjust="spacing" textLength="172.7532" x="679.5341" y="492.2505">send vv:error {:path :message}</text><polygon fill="#F1F1F1" points="655.4241,511.7665,667.4241,523.7665,655.4241,535.7665,643.4241,523.7665,655.4241,511.7665" style="stroke:#181818;stroke-width:0.5;stroke-linejoin:miter;stroke-miterlimit:10;"/><polygon fill="#F1F1F1" points="487.6132,541.7665,499.6132,553.7665,487.6132,565.7665,475.6132,553.7665,487.6132,541.7665" style="stroke:#181818;stroke-width:0.5;stroke-linejoin:miter;stroke-miterlimit:10;"/><line style="stroke:#000000;stroke-width:1.5;" x1="234.2733" x2="234.2733" y1="58.8419" y2="1476.0112"/><rect fill="#F4F1E1" height="1417.1693" style="stroke:#F4F1E1;stroke-width:1;" width="237.8641" x="1002.8624" y="58.8419"/><rect fill="#F1F1F1" height="52.6882" rx="4" ry="4" style="stroke:#181818;stroke-width:0.5;" width="227.8641" x="1008.8624" y="585.7665"/><text fill="#000000" font-family="'Inter, Helvetica, sans-serif'" font-size="12" lengthAdjust="spacing" textLength="126.2889" x="1018.8624" y="608.5946">preload contextBridge</text><text fill="#000000" font-family="'Inter, Helvetica, sans-serif'" font-size="12" lengthAdjust="spacing" textLength="207.8641" x="1018.8624" y="624.9387">webContents.send &#8594; ipcRenderer.on</text><rect fill="#F1F1F1" height="36.3441" rx="4" ry="4" style="stroke:#181818;stroke-width:0.5;" width="196.6053" x="1024.4918" y="658.4548"/><text fill="#000000" font-family="'Inter, Helvetica, sans-serif'" font-size="12" lengthAdjust="spacing" textLength="176.6053" x="1034.4918" y="681.2828">window.vv.onContent / onError</text><line style="stroke:#000000;stroke-width:1.5;" x1="1002.8624" x2="1002.8624" y1="58.8419" y2="1476.0112"/><rect fill="#E3F2ED" height="1417.1693" style="stroke:#E3F2ED;stroke-width:1;" width="609.1906" x="1240.7265" y="58.8419"/><rect fill="#F1F1F1" height="36.3441" rx="4" ry="4" style="stroke:#181818;stroke-width:0.5;" width="289.4259" x="1540.9311" y="714.7989"/><text fill="#000000" font-family="'Inter, Helvetica, sans-serif'" font-size="12" lengthAdjust="spacing" textLength="269.4259" x="1550.9311" y="737.627">rf/dispatch [:content/received] / [:content/error]</text><rect fill="#F1F1F1" height="52.6882" rx="4" ry="4" style="stroke:#181818;stroke-width:0.5;" width="298.5461" x="1536.371" y="771.143"/><text fill="#000000" font-family="'Inter, Helvetica, sans-serif'" font-size="12" lengthAdjust="spacing" textLength="169.7892" x="1546.371" y="793.9711">event handler (PURE) builds tx</text><text fill="#000000" font-family="'Inter, Helvetica, sans-serif'" font-size="12" lengthAdjust="spacing" textLength="278.5461" x="1546.371" y="810.3152">(cond-&gt; omit nil :doc/text; retract stale :doc/error)</text><rect fill="#F1F1F1" height="52.6882" rx="4" ry="4" style="stroke:#181818;stroke-width:0.5;" width="185.1452" x="1293.9762" y="1013.7784"/><text fill="#000000" font-family="'Inter, Helvetica, sans-serif'" font-size="12" lengthAdjust="spacing" textLength="120.3249" x="1303.9762" y="1036.6064">fx :markdown/render</text><text fill="#000000" font-family="'Inter, Helvetica, sans-serif'" font-size="12" lengthAdjust="spacing" textLength="165.1452" x="1303.9762" y="1052.9506">(async unified + SVG pipeline)</text><rect fill="#F1F1F1" height="36.3441" rx="4" ry="4" style="stroke:#181818;stroke-width:0.5;" width="279.6445" x="1246.7265" y="1101.4666"/><text fill="#000000" font-family="'Inter, Helvetica, sans-serif'" font-size="12" lengthAdjust="spacing" textLength="259.6445" x="1256.7265" y="1124.2947">.then &#8594; [:content/rendered path stamp result]</text><line style="stroke:#000000;stroke-width:1.5;" x1="1240.7265" x2="1240.7265" y1="58.8419" y2="1476.0112"/><rect fill="#EEE6EF" height="1417.1693" style="stroke:#EEE6EF;stroke-width:1;" width="944.8805" x="1849.9171" y="58.8419"/><rect fill="#F1F1F1" height="36.3441" rx="4" ry="4" style="stroke:#181818;stroke-width:0.5;" width="394.5468" x="2126.084" y="843.8312"/><text fill="#000000" font-family="'Inter, Helvetica, sans-serif'" font-size="12" font-weight="700" lengthAdjust="spacing" textLength="72.1325" x="2136.084" y="866.6593">:ds/transact</text><text fill="#000000" font-family="'Inter, Helvetica, sans-serif'" font-size="12" lengthAdjust="spacing" textLength="299.2942" x="2211.3365" y="866.6593">{:doc/path :doc/kind :doc/text :doc/open? :doc/order}</text><rect fill="#F1F1F1" height="36.3441" rx="4" ry="4" style="stroke:#181818;stroke-width:0.5;" width="225.1267" x="2210.794" y="900.1753"/><text fill="#000000" font-family="'Inter, Helvetica, sans-serif'" font-size="12" lengthAdjust="spacing" textLength="205.1267" x="2220.794" y="923.0034">bridge &#8594; [:ds/changed] &#8594; :ds/rev inc</text><polygon fill="#F1F1F1" points="1973.7215,956.5194,2068.5188,956.5194,2080.5188,968.5194,2068.5188,980.5194,1973.7215,980.5194,1961.7215,968.5194,1973.7215,956.5194" style="stroke:#181818;stroke-width:0.5;stroke-linejoin:miter;stroke-miterlimit:10;"/><text fill="#000000" font-family="'Inter, Helvetica, sans-serif'" font-size="11" lengthAdjust="spacing" textLength="17.0829" x="2025.1202" y="992.2784">yes</text><text fill="#000000" font-family="'Inter, Helvetica, sans-serif'" font-size="11" lengthAdjust="spacing" textLength="94.7973" x="1973.7215" y="972.7874">kind = markdown?</text><rect fill="#F1F1F1" height="36.3441" rx="4" ry="4" style="stroke:#181818;stroke-width:0.5;" width="330.4062" x="1855.9171" y="1157.8107"/><text fill="#000000" font-family="'Inter, Helvetica, sans-serif'" font-size="12" font-weight="700" lengthAdjust="spacing" textLength="72.1325" x="1865.9171" y="1180.6388">:ds/transact</text><text fill="#000000" font-family="'Inter, Helvetica, sans-serif'" font-size="12" lengthAdjust="spacing" textLength="235.1537" x="1941.1696" y="1180.6388">{:doc/path :doc/html :doc/toc :doc/assets}</text><polygon fill="#F1F1F1" points="2322.3215,956.5194,2381.3471,956.5194,2393.3471,968.5194,2381.3471,980.5194,2322.3215,980.5194,2310.3215,968.5194,2322.3215,956.5194" style="stroke:#181818;stroke-width:0.5;stroke-linejoin:miter;stroke-miterlimit:10;"/><text fill="#000000" font-family="'Inter, Helvetica, sans-serif'" font-size="11" lengthAdjust="spacing" textLength="17.0829" x="2355.8343" y="992.2784">yes</text><text fill="#000000" font-family="'Inter, Helvetica, sans-serif'" font-size="11" lengthAdjust="spacing" textLength="59.0256" x="2322.3215" y="972.7874">kind = text?</text><text fill="#000000" font-family="'Inter, Helvetica, sans-serif'" font-size="11" lengthAdjust="spacing" textLength="32.2628" x="2393.3471" y="965.2965">image</text><rect fill="#F1F1F1" height="36.3441" rx="4" ry="4" style="stroke:#181818;stroke-width:0.5;" width="291.0219" x="2206.3233" y="1013.7784"/><text fill="#000000" font-family="'Inter, Helvetica, sans-serif'" font-size="12" font-weight="700" lengthAdjust="spacing" textLength="72.1325" x="2216.3233" y="1036.6064">:ds/transact</text><text fill="#000000" font-family="'Inter, Helvetica, sans-serif'" font-size="12" lengthAdjust="spacing" textLength="195.7694" x="2291.5759" y="1036.6064">{:doc/html &lt;pre vv-plain escaped&gt;}</text><rect fill="#F1F1F1" height="55.412" rx="4" ry="4" style="stroke:#181818;stroke-width:0.5;" width="273.4524" x="2517.3452" y="1079.2696"/><text fill="#000000" font-family="'Inter, Helvetica, sans-serif'" font-size="12" lengthAdjust="spacing" textLength="71.9405" x="2527.3452" y="1102.0977">no :doc/html</text><text fill="#000000" font-family="'Inter, Helvetica, sans-serif'" font-size="12" lengthAdjust="spacing" textLength="76.1046" x="2527.3452" y="1121.1656">(view renders</text><text fill="#000000" font-family="monospace" font-size="14" lengthAdjust="spacing" textLength="125.9995" x="2606.5698" y="1120.5797">(Cannot&#160;decode)</text><text fill="#000000" font-family="'Inter, Helvetica, sans-serif'" font-size="12" lengthAdjust="spacing" textLength="45.1083" x="2735.6893" y="1121.1656">directly)</text><rect fill="#F1F1F1" height="52.6882" rx="4" ry="4" style="stroke:#181818;stroke-width:0.5;" width="225.1267" x="2210.794" y="1234.1548"/><text fill="#000000" font-family="'Inter, Helvetica, sans-serif'" font-size="12" lengthAdjust="spacing" textLength="205.1267" x="2220.794" y="1256.9829">bridge &#8594; [:ds/changed] &#8594; :ds/rev inc</text><text fill="#000000" font-family="'Inter, Helvetica, sans-serif'" font-size="12" lengthAdjust="spacing" textLength="162.4572" x="2220.794" y="1273.327">(:doc/active sub recomputes)</text><line style="stroke:#000000;stroke-width:1.5;" x1="1849.9171" x2="1849.9171" y1="58.8419" y2="1476.0112"/><rect fill="#E3E7F2" height="1417.1693" style="stroke:#E3E7F2;stroke-width:1;" width="640.916" x="2794.7976" y="58.8419"/><rect fill="#F1F1F1" height="36.3441" rx="4" ry="4" style="stroke:#181818;stroke-width:0.5;" width="299.3979" x="3132.3157" y="1306.843"/><text fill="#000000" font-family="'Inter, Helvetica, sans-serif'" font-size="12" lengthAdjust="spacing" textLength="279.3979" x="3142.3157" y="1329.6711">content-view Strategy picks the body by :doc/kind</text><path d="M2799.7976,1353.1872 L2799.7976,1434.0112 L3128.6118,1434.0112 L3128.6118,1363.1872 L3118.6118,1353.1872 L2799.7976,1353.1872" fill="#FFF6D6" style="stroke:#7F6B14;stroke-width:0.5;"/><path d="M3118.6118,1353.1872 L3118.6118,1363.1872 L3128.6118,1363.1872 L3118.6118,1353.1872" fill="#FFF6D6" style="stroke:#7F6B14;stroke-width:0.5;"/><text fill="#000000" font-family="'Inter, Helvetica, sans-serif'" font-size="13" font-weight="700" lengthAdjust="spacing" textLength="92.1701" x="2805.7976" y="1372.0842">UI untouched.</text><text fill="#000000" font-family="'Inter, Helvetica, sans-serif'" font-size="13" lengthAdjust="spacing" textLength="170.3912" x="2901.3477" y="1372.0842">:ui/find ranges, scroll offset,</text><text fill="#000000" font-family="'Inter, Helvetica, sans-serif'" font-size="13" lengthAdjust="spacing" textLength="281.0863" x="2805.7976" y="1389.7902">:ui/theme, :ui/history all live in app-db and are</text><text fill="#000000" font-family="'Inter, Helvetica, sans-serif'" font-size="13" lengthAdjust="spacing" textLength="273.2732" x="2805.7976" y="1407.4962">never written by a :ds/* transaction &#8212; so the</text><text fill="#000000" font-family="'Inter, Helvetica, sans-serif'" font-size="13" lengthAdjust="spacing" textLength="307.8142" x="2805.7976" y="1425.2022">refresh leaves the reader exactly where they were.</text><rect fill="#F1F1F1" height="52.6882" rx="4" ry="4" style="stroke:#181818;stroke-width:0.5;" width="266.8058" x="3148.6118" y="1367.2551"/><text fill="#000000" font-family="'Inter, Helvetica, sans-serif'" font-size="12" lengthAdjust="spacing" textLength="226.3336" x="3158.6118" y="1390.0832">markdown-body component-did-update</text><text fill="#000000" font-family="'Inter, Helvetica, sans-serif'" font-size="12" lengthAdjust="spacing" textLength="246.8058" x="3158.6118" y="1406.4273">set! innerHTML (:html result) (no VDOM diff)</text><ellipse cx="3282.0147" cy="1465.0112" fill="none" rx="11" ry="11" style="stroke:#222222;stroke-width:1;"/><ellipse cx="3282.0147" cy="1465.0112" fill="#222222" rx="6" ry="6" style="stroke:#222222;stroke-width:1;"/><line style="stroke:#000000;stroke-width:1.5;" x1="2794.7976" x2="2794.7976" y1="58.8419" y2="1476.0112"/><line style="stroke:#000000;stroke-width:1.5;" x1="3435.7136" x2="3435.7136" y1="58.8419" y2="1476.0112"/><line style="stroke:#555555;stroke-width:1.3;" x1="128.1366" x2="128.1366" y1="108.3577" y2="128.3577"/><polygon fill="#555555" points="124.1366,118.3577,128.1366,128.3577,132.1366,118.3577,128.1366,122.3577" style="stroke:#555555;stroke-width:1;stroke-linejoin:miter;stroke-miterlimit:10;"/><line style="stroke:#555555;stroke-width:1.3;" x1="128.1366" x2="128.1366" y1="164.7018" y2="184.7018"/><polygon fill="#555555" points="124.1366,174.7018,128.1366,184.7018,132.1366,174.7018,128.1366,178.7018" style="stroke:#555555;stroke-width:1;stroke-linejoin:miter;stroke-miterlimit:10;"/><line style="stroke:#555555;stroke-width:1.3;" x1="621.5012" x2="544.9374" y1="447.4224" y2="447.4224"/><line style="stroke:#555555;stroke-width:1.3;" x1="544.9374" x2="544.9374" y1="447.4224" y2="469.4224"/><polygon fill="#555555" points="540.9374,459.4224,544.9374,469.4224,548.9374,459.4224,544.9374,463.4224" style="stroke:#555555;stroke-width:1;stroke-linejoin:miter;stroke-miterlimit:10;"/><line style="stroke:#555555;stroke-width:1.3;" x1="689.3469" x2="765.9107" y1="447.4224" y2="447.4224"/><line style="stroke:#555555;stroke-width:1.3;" x1="765.9107" x2="765.9107" y1="447.4224" y2="469.4224"/><polygon fill="#555555" points="761.9107,459.4224,765.9107,469.4224,769.9107,459.4224,765.9107,463.4224" style="stroke:#555555;stroke-width:1;stroke-linejoin:miter;stroke-miterlimit:10;"/><line style="stroke:#555555;stroke-width:1.3;" x1="544.9374" x2="544.9374" y1="505.7665" y2="523.7665"/><line style="stroke:#555555;stroke-width:1.3;" x1="544.9374" x2="643.4241" y1="523.7665" y2="523.7665"/><polygon fill="#555555" points="633.4241,519.7665,643.4241,523.7665,633.4241,527.7665,637.4241,523.7665" style="stroke:#555555;stroke-width:1;stroke-linejoin:miter;stroke-miterlimit:10;"/><line style="stroke:#555555;stroke-width:1.3;" x1="765.9107" x2="765.9107" y1="505.7665" y2="523.7665"/><line style="stroke:#555555;stroke-width:1.3;" x1="765.9107" x2="667.4241" y1="523.7665" y2="523.7665"/><polygon fill="#555555" points="677.4241,519.7665,667.4241,523.7665,677.4241,527.7665,673.4241,523.7665" style="stroke:#555555;stroke-width:1;stroke-linejoin:miter;stroke-miterlimit:10;"/><line style="stroke:#555555;stroke-width:1.3;" x1="655.4241" x2="655.4241" y1="400.4224" y2="435.4224"/><polygon fill="#555555" points="651.4241,425.4224,655.4241,435.4224,659.4241,425.4224,655.4241,429.4224" style="stroke:#555555;stroke-width:1;stroke-linejoin:miter;stroke-miterlimit:10;"/><line style="stroke:#555555;stroke-width:1.3;" x1="463.6132" x2="330.8118" y1="342.0783" y2="342.0783"/><line style="stroke:#555555;stroke-width:1.3;" x1="330.8118" x2="330.8118" y1="342.0783" y2="364.0783"/><polygon fill="#555555" points="326.8118,354.0783,330.8118,364.0783,334.8118,354.0783,330.8118,358.0783" style="stroke:#555555;stroke-width:1;stroke-linejoin:miter;stroke-miterlimit:10;"/><line style="stroke:#555555;stroke-width:1.3;" x1="511.6132" x2="655.4241" y1="342.0783" y2="342.0783"/><line style="stroke:#555555;stroke-width:1.3;" x1="655.4241" x2="655.4241" y1="342.0783" y2="364.0783"/><polygon fill="#555555" points="651.4241,354.0783,655.4241,364.0783,659.4241,354.0783,655.4241,358.0783" style="stroke:#555555;stroke-width:1;stroke-linejoin:miter;stroke-miterlimit:10;"/><line style="stroke:#555555;stroke-width:1.3;" x1="330.8118" x2="330.8118" y1="416.7665" y2="553.7665"/><line style="stroke:#555555;stroke-width:1.3;" x1="330.8118" x2="475.6132" y1="553.7665" y2="553.7665"/><polygon fill="#555555" points="465.6132,549.7665,475.6132,553.7665,465.6132,557.7665,469.6132,553.7665" style="stroke:#555555;stroke-width:1;stroke-linejoin:miter;stroke-miterlimit:10;"/><line style="stroke:#555555;stroke-width:1.3;" x1="655.4241" x2="655.4241" y1="535.7665" y2="553.7665"/><line style="stroke:#555555;stroke-width:1.3;" x1="655.4241" x2="499.6132" y1="553.7665" y2="553.7665"/><polygon fill="#555555" points="509.6132,549.7665,499.6132,553.7665,509.6132,557.7665,505.6132,553.7665" style="stroke:#555555;stroke-width:1;stroke-linejoin:miter;stroke-miterlimit:10;"/><line style="stroke:#555555;stroke-width:1.3;" x1="487.6132" x2="487.6132" y1="310.0783" y2="330.0783"/><polygon fill="#555555" points="483.6132,320.0783,487.6132,330.0783,491.6132,320.0783,487.6132,324.0783" style="stroke:#555555;stroke-width:1;stroke-linejoin:miter;stroke-miterlimit:10;"/><line style="stroke:#555555;stroke-width:1.3;" x1="1122.7945" x2="1122.7945" y1="638.4548" y2="658.4548"/><polygon fill="#555555" points="1118.7945,648.4548,1122.7945,658.4548,1126.7945,648.4548,1122.7945,652.4548" style="stroke:#555555;stroke-width:1;stroke-linejoin:miter;stroke-miterlimit:10;"/><line style="stroke:#555555;stroke-width:1.3;" x1="1685.644" x2="1685.644" y1="751.143" y2="771.143"/><polygon fill="#555555" points="1681.644,761.143,1685.644,771.143,1689.644,761.143,1685.644,765.143" style="stroke:#555555;stroke-width:1;stroke-linejoin:miter;stroke-miterlimit:10;"/><line style="stroke:#555555;stroke-width:1.3;" x1="1386.5487" x2="1386.5487" y1="1066.4666" y2="1101.4666"/><polygon fill="#555555" points="1382.5487,1091.4666,1386.5487,1101.4666,1390.5487,1091.4666,1386.5487,1095.4666" style="stroke:#555555;stroke-width:1;stroke-linejoin:miter;stroke-miterlimit:10;"/><line style="stroke:#555555;stroke-width:1.3;" x1="2323.3573" x2="2323.3573" y1="880.1753" y2="900.1753"/><polygon fill="#555555" points="2319.3573,890.1753,2323.3573,900.1753,2327.3573,890.1753,2323.3573,894.1753" style="stroke:#555555;stroke-width:1;stroke-linejoin:miter;stroke-miterlimit:10;"/><line style="stroke:#555555;stroke-width:1.3;" x1="2021.1202" x2="2021.1202" y1="1194.1548" y2="1214.1548"/><polygon fill="#555555" points="2017.1202,1204.1548,2021.1202,1214.1548,2025.1202,1204.1548,2021.1202,1208.1548" style="stroke:#555555;stroke-width:1;stroke-linejoin:miter;stroke-miterlimit:10;"/><line style="stroke:#555555;stroke-width:1.3;" x1="2351.8343" x2="2351.8343" y1="980.5194" y2="1013.7784"/><polygon fill="#555555" points="2347.8343,1003.7784,2351.8343,1013.7784,2355.8343,1003.7784,2351.8343,1007.7784" style="stroke:#555555;stroke-width:1;stroke-linejoin:miter;stroke-miterlimit:10;"/><line style="stroke:#555555;stroke-width:1.3;" x1="2351.8343" x2="2351.8343" y1="1050.1225" y2="1214.1548"/><polygon fill="#555555" points="2347.8343,1204.1548,2351.8343,1214.1548,2355.8343,1204.1548,2351.8343,1208.1548" style="stroke:#555555;stroke-width:1;stroke-linejoin:miter;stroke-miterlimit:10;"/><line style="stroke:#555555;stroke-width:1.3;" x1="2080.5188" x2="2310.3215" y1="968.5194" y2="968.5194"/><polygon fill="#555555" points="2300.3215,964.5194,2310.3215,968.5194,2300.3215,972.5194,2304.3215,968.5194" style="stroke:#555555;stroke-width:1;stroke-linejoin:miter;stroke-miterlimit:10;"/><line style="stroke:#555555;stroke-width:1.3;" x1="2323.3573" x2="2323.3573" y1="936.5194" y2="941.5194"/><line style="stroke:#555555;stroke-width:1.3;" x1="2323.3573" x2="2021.1202" y1="941.5194" y2="941.5194"/><line style="stroke:#555555;stroke-width:1.3;" x1="2021.1202" x2="2021.1202" y1="941.5194" y2="956.5194"/><polygon fill="#555555" points="2017.1202,946.5194,2021.1202,956.5194,2025.1202,946.5194,2021.1202,950.5194" style="stroke:#555555;stroke-width:1;stroke-linejoin:miter;stroke-miterlimit:10;"/><line style="stroke:#555555;stroke-width:1.3;" x1="2393.3471" x2="2654.0714" y1="968.5194" y2="968.5194"/><line style="stroke:#555555;stroke-width:1.3;" x1="2654.0714" x2="2654.0714" y1="968.5194" y2="1079.2696"/><polygon fill="#555555" points="2650.0714,1069.2696,2654.0714,1079.2696,2658.0714,1069.2696,2654.0714,1073.2696" style="stroke:#555555;stroke-width:1;stroke-linejoin:miter;stroke-miterlimit:10;"/><line style="stroke:#555555;stroke-width:1.3;" x1="2654.0714" x2="2654.0714" y1="1134.6817" y2="1214.1548"/><polygon fill="#555555" points="2650.0714,1204.1548,2654.0714,1214.1548,2658.0714,1204.1548,2654.0714,1208.1548" style="stroke:#555555;stroke-width:1;stroke-linejoin:miter;stroke-miterlimit:10;"/><line style="stroke:#555555;stroke-width:1.3;" x1="2021.1202" x2="2654.0714" y1="1214.1548" y2="1214.1548"/><line style="stroke:#555555;stroke-width:1.3;" x1="2323.3573" x2="2323.3573" y1="1214.1548" y2="1234.1548"/><polygon fill="#555555" points="2319.3573,1224.1548,2323.3573,1234.1548,2327.3573,1224.1548,2323.3573,1228.1548" style="stroke:#555555;stroke-width:1;stroke-linejoin:miter;stroke-miterlimit:10;"/><line style="stroke:#555555;stroke-width:1.3;" x1="3282.0147" x2="3282.0147" y1="1343.1872" y2="1367.2551"/><polygon fill="#555555" points="3278.0147,1357.2551,3282.0147,1367.2551,3286.0147,1357.2551,3282.0147,1361.2551" style="stroke:#555555;stroke-width:1;stroke-linejoin:miter;stroke-miterlimit:10;"/><line style="stroke:#555555;stroke-width:1.3;" x1="3282.0147" x2="3282.0147" y1="1419.9433" y2="1454.0112"/><polygon fill="#555555" points="3278.0147,1444.0112,3282.0147,1454.0112,3286.0147,1444.0112,3282.0147,1448.0112" style="stroke:#555555;stroke-width:1;stroke-linejoin:miter;stroke-miterlimit:10;"/><line style="stroke:#555555;stroke-width:1.3;" x1="128.1366" x2="128.1366" y1="253.7342" y2="258.7342"/><line style="stroke:#555555;stroke-width:1.3;" x1="128.1366" x2="487.6132" y1="258.7342" y2="258.7342"/><line style="stroke:#555555;stroke-width:1.3;" x1="487.6132" x2="487.6132" y1="258.7342" y2="273.7342"/><polygon fill="#555555" points="483.6132,263.7342,487.6132,273.7342,491.6132,263.7342,487.6132,267.7342" style="stroke:#555555;stroke-width:1;stroke-linejoin:miter;stroke-miterlimit:10;"/><line style="stroke:#555555;stroke-width:1.3;" x1="487.6132" x2="487.6132" y1="565.7665" y2="570.7665"/><line style="stroke:#555555;stroke-width:1.3;" x1="487.6132" x2="1122.7945" y1="570.7665" y2="570.7665"/><line style="stroke:#555555;stroke-width:1.3;" x1="1122.7945" x2="1122.7945" y1="570.7665" y2="585.7665"/><polygon fill="#555555" points="1118.7945,575.7665,1122.7945,585.7665,1126.7945,575.7665,1122.7945,579.7665" style="stroke:#555555;stroke-width:1;stroke-linejoin:miter;stroke-miterlimit:10;"/><line style="stroke:#555555;stroke-width:1.3;" x1="1122.7945" x2="1122.7945" y1="694.7989" y2="699.7989"/><line style="stroke:#555555;stroke-width:1.3;" x1="1122.7945" x2="1685.644" y1="699.7989" y2="699.7989"/><line style="stroke:#555555;stroke-width:1.3;" x1="1685.644" x2="1685.644" y1="699.7989" y2="714.7989"/><polygon fill="#555555" points="1681.644,704.7989,1685.644,714.7989,1689.644,704.7989,1685.644,708.7989" style="stroke:#555555;stroke-width:1;stroke-linejoin:miter;stroke-miterlimit:10;"/><line style="stroke:#555555;stroke-width:1.3;" x1="1685.644" x2="1685.644" y1="823.8312" y2="828.8312"/><line style="stroke:#555555;stroke-width:1.3;" x1="1685.644" x2="2323.3573" y1="828.8312" y2="828.8312"/><line style="stroke:#555555;stroke-width:1.3;" x1="2323.3573" x2="2323.3573" y1="828.8312" y2="843.8312"/><polygon fill="#555555" points="2319.3573,833.8312,2323.3573,843.8312,2327.3573,833.8312,2323.3573,837.8312" style="stroke:#555555;stroke-width:1;stroke-linejoin:miter;stroke-miterlimit:10;"/><line style="stroke:#555555;stroke-width:1.3;" x1="1386.5487" x2="1386.5487" y1="1137.8107" y2="1142.8107"/><line style="stroke:#555555;stroke-width:1.3;" x1="1386.5487" x2="2021.1202" y1="1142.8107" y2="1142.8107"/><line style="stroke:#555555;stroke-width:1.3;" x1="2021.1202" x2="2021.1202" y1="1142.8107" y2="1157.8107"/><polygon fill="#555555" points="2017.1202,1147.8107,2021.1202,1157.8107,2025.1202,1147.8107,2021.1202,1151.8107" style="stroke:#555555;stroke-width:1;stroke-linejoin:miter;stroke-miterlimit:10;"/><line style="stroke:#555555;stroke-width:1.3;" x1="2021.1202" x2="2021.1202" y1="980.5194" y2="984.5194"/><line style="stroke:#555555;stroke-width:1.3;" x1="2021.1202" x2="1386.5487" y1="984.5194" y2="984.5194"/><line style="stroke:#555555;stroke-width:1.3;" x1="1386.5487" x2="1386.5487" y1="984.5194" y2="1013.7784"/><polygon fill="#555555" points="1382.5487,1003.7784,1386.5487,1013.7784,1390.5487,1003.7784,1386.5487,1007.7784" style="stroke:#555555;stroke-width:1;stroke-linejoin:miter;stroke-miterlimit:10;"/><line style="stroke:#555555;stroke-width:1.3;" x1="2323.3573" x2="2323.3573" y1="1286.843" y2="1291.843"/><line style="stroke:#555555;stroke-width:1.3;" x1="2323.3573" x2="3282.0147" y1="1291.843" y2="1291.843"/><line style="stroke:#555555;stroke-width:1.3;" x1="3282.0147" x2="3282.0147" y1="1291.843" y2="1306.843"/><polygon fill="#555555" points="3278.0147,1296.843,3282.0147,1306.843,3286.0147,1296.843,3282.0147,1300.843" style="stroke:#555555;stroke-width:1;stroke-linejoin:miter;stroke-miterlimit:10;"/><text fill="#000000" font-family="'Inter, Helvetica, sans-serif'" font-size="18" lengthAdjust="spacing" textLength="88.6854" x="82.7939" y="78.0838">Filesystem</text><text fill="#000000" font-family="'Inter, Helvetica, sans-serif'" font-size="18" lengthAdjust="spacing" textLength="103.4633" x="566.8362" y="78.0838">Main (Node)</text><text fill="#000000" font-family="'Inter, Helvetica, sans-serif'" font-size="18" lengthAdjust="spacing" textLength="78.7495" x="1082.4197" y="78.0838">IPC seam</text><text fill="#000000" font-family="'Inter, Helvetica, sans-serif'" font-size="18" lengthAdjust="spacing" textLength="168.2809" x="1461.1813" y="78.0838">Renderer (re-frame)</text><text fill="#000000" font-family="'Inter, Helvetica, sans-serif'" font-size="18" lengthAdjust="spacing" textLength="53.4777" x="2295.6185" y="78.0838">Stores</text><text fill="#000000" font-family="'Inter, Helvetica, sans-serif'" font-size="18" lengthAdjust="spacing" textLength="43.5237" x="3093.4938" y="78.0838">DOM</text><g class="legend" data-source-line="65"><rect fill="none" height="166.5433" rx="4" ry="4" style="stroke:#000000;stroke-width:1;" width="300.0509" x="3140.0027" y="1498.0112"/><text fill="#000000" font-family="'Inter, Helvetica, sans-serif'" font-size="14" font-weight="700" lengthAdjust="spacing" textLength="46.0178" x="3148.6427" y="1519.9772">Colour</text><text fill="#000000" font-family="'Inter, Helvetica, sans-serif'" font-size="14" font-weight="700" lengthAdjust="spacing" textLength="136.2195" x="3201.9405" y="1519.9772">Swimlane / concept</text><rect fill="#9F8766" height="19.0679" style="stroke:none;stroke-width:1;" width="53.2978" x="3145.0027" y="1524.0791"/><text fill="#000000" font-family="'Inter, Helvetica, sans-serif'" font-size="14" lengthAdjust="spacing" textLength="14.5599" x="3145.0027" y="1539.0451">&#160;&#160;&#160;&#160;</text><text fill="#000000" font-family="'Inter, Helvetica, sans-serif'" font-size="14" lengthAdjust="spacing" textLength="192.9053" x="3201.9405" y="1539.0451">Filesystem (editor + chokidar)</text><rect fill="#3A5BA0" height="19.0679" style="stroke:none;stroke-width:1;" width="53.2978" x="3145.0027" y="1543.1471"/><text fill="#000000" font-family="'Inter, Helvetica, sans-serif'" font-size="14" lengthAdjust="spacing" textLength="14.5599" x="3145.0027" y="1558.113">&#160;&#160;&#160;&#160;</text><text fill="#000000" font-family="'Inter, Helvetica, sans-serif'" font-size="14" lengthAdjust="spacing" textLength="154.3214" x="3201.9405" y="1558.113">Main process (Node IO)</text><rect fill="#B1951D" height="19.0679" style="stroke:none;stroke-width:1;" width="53.2978" x="3145.0027" y="1562.215"/><text fill="#000000" font-family="'Inter, Helvetica, sans-serif'" font-size="14" lengthAdjust="spacing" textLength="14.5599" x="3145.0027" y="1577.1809">&#160;&#160;&#160;&#160;</text><text fill="#000000" font-family="'Inter, Helvetica, sans-serif'" font-size="14" lengthAdjust="spacing" textLength="229.4731" x="3201.9405" y="1577.1809">IPC seam (preload / contextBridge)</text><rect fill="#2D9574" height="19.0679" style="stroke:none;stroke-width:1;" width="53.2978" x="3145.0027" y="1581.2829"/><text fill="#000000" font-family="'Inter, Helvetica, sans-serif'" font-size="14" lengthAdjust="spacing" textLength="14.5599" x="3145.0027" y="1596.2488">&#160;&#160;&#160;&#160;</text><text fill="#000000" font-family="'Inter, Helvetica, sans-serif'" font-size="14" lengthAdjust="spacing" textLength="205.3512" x="3201.9405" y="1596.2488">Renderer (re-frame events + fx)</text><rect fill="#A45BAD" height="19.0679" style="stroke:none;stroke-width:1;" width="53.2978" x="3145.0027" y="1600.3508"/><text fill="#000000" font-family="'Inter, Helvetica, sans-serif'" font-size="14" lengthAdjust="spacing" textLength="14.5599" x="3145.0027" y="1615.3167">&#160;&#160;&#160;&#160;</text><text fill="#000000" font-family="'Inter, Helvetica, sans-serif'" font-size="14" lengthAdjust="spacing" textLength="206.8353" x="3201.9405" y="1615.3167">Stores (DataScript transactions)</text><rect fill="#7590DB" height="19.0679" style="stroke:none;stroke-width:1;" width="53.2978" x="3145.0027" y="1619.4187"/><text fill="#000000" font-family="'Inter, Helvetica, sans-serif'" font-size="14" lengthAdjust="spacing" textLength="14.5599" x="3145.0027" y="1634.3847">&#160;&#160;&#160;&#160;</text><text fill="#000000" font-family="'Inter, Helvetica, sans-serif'" font-size="14" lengthAdjust="spacing" textLength="229.3051" x="3201.9405" y="1634.3847">DOM (imperative innerHTML body)</text><rect fill="#E0211D" height="19.0679" style="stroke:none;stroke-width:1;" width="53.2978" x="3145.0027" y="1638.4866"/><text fill="#000000" font-family="'Inter, Helvetica, sans-serif'" font-size="14" lengthAdjust="spacing" textLength="14.5599" x="3145.0027" y="1653.4526">&#160;&#160;&#160;&#160;</text><text fill="#000000" font-family="'Inter, Helvetica, sans-serif'" font-size="14" lengthAdjust="spacing" textLength="131.2495" x="3201.9405" y="1653.4526">error path (vv:error)</text><line style="stroke:#000000;stroke-width:1;" x1="3145.0027" x2="3435.0536" y1="1505.0112" y2="1505.0112"/><line style="stroke:#000000;stroke-width:1;" x1="3145.0027" x2="3435.0536" y1="1524.0791" y2="1524.0791"/><line style="stroke:#000000;stroke-width:1;" x1="3145.0027" x2="3435.0536" y1="1543.1471" y2="1543.1471"/><line style="stroke:#000000;stroke-width:1;" x1="3145.0027" x2="3435.0536" y1="1562.215" y2="1562.215"/><line style="stroke:#000000;stroke-width:1;" x1="3145.0027" x2="3435.0536" y1="1581.2829" y2="1581.2829"/><line style="stroke:#000000;stroke-width:1;" x1="3145.0027" x2="3435.0536" y1="1600.3508" y2="1600.3508"/><line style="stroke:#000000;stroke-width:1;" x1="3145.0027" x2="3435.0536" y1="1619.4187" y2="1619.4187"/><line style="stroke:#000000;stroke-width:1;" x1="3145.0027" x2="3435.0536" y1="1638.4866" y2="1638.4866"/><line style="stroke:#000000;stroke-width:1;" x1="3145.0027" x2="3435.0536" y1="1657.5546" y2="1657.5546"/><line style="stroke:#000000;stroke-width:1;" x1="3145.0027" x2="3145.0027" y1="1505.0112" y2="1657.5546"/><line style="stroke:#000000;stroke-width:1;" x1="3198.3005" x2="3198.3005" y1="1505.0112" y2="1657.5546"/><line style="stroke:#000000;stroke-width:1;" x1="3435.0536" x2="3435.0536" y1="1505.0112" y2="1657.5546"/></g><?plantuml-src ZLRRRXj737tNLp0sK4kE9TcEh-l4HMnBZO6u2U8cUOY3OhJBbGRU6sP6aeNAG9_w0KM_i5_Imncjv2I54py8wztX8NbuICx61htDLE7UNxscSiA6hjZaIYSqu5YDBPCRQKiJpLFYl1efgorR-lZgylmLPMe6Wt9QM68LZyWwhgZPlvvVALtCBz-UpzznaR1XCsziRD2rAmtR-SMRAx9JdSChsnQf8Y55jxf8scLA0wCA84sr6-5jN1O8QQYB8QszlwHnuSfnFE9aZOhIySagSXKxFT5k9cugPPnskaHKnhkN2DdOaQxeAT9XIZZM5WSeqIeluV-fzvMLOyE9Xrwoa6RbD1u1qLAi2dmY2RlZqrdaiB2qf0nJfXqRbI68Z1rmHdm7kffE5RH-t3ywF3YW_lKMsKpXu_gpb_jdBxT9wDeYbGyGw_hPpl7-pWM1lItnuXXewxiNn_k7UrJJkKNLs5GP45xk0U5YGUqM3R8njoUwXFFkqF2Cqj8G26zr6azq4MVZXEdtoQGD5dBkw76UDHeW2qYlzOJRXbF0e92LHbx__ldFgiGB0b6Y4fzIdN4Rl1H37FlhRn3T3bmt6lFrNgztrZkQzt76pg29VDwm3XGs8auq0gMf0KlMWvmqedXKtkf4uRLoAAwXfc47Hb2AIhbHwwP8DQAYjU1lhRkcacJjfb0fg2OrLTfz5C2-BZHYRnvjvxPruWFPwntrTxmQgVbhcN1hteXgfGdsIKEdr9GtBH46JkbS3RdL88eiyg7998867HUE_eZ4Whpz_KtHB4gA7DyvJzD05yhCu9Kpj4mpL-Os0MdK9JdYyLBRCQmIOULwLiGqTkdH2Jv81FA1ojkVwoXcQ0ny-auKmV-zW0ItRcJAwTUMR0meh-rojXOPUYCAKZTwE7Aqtk-Vuo-YSDwVHbo9e059futm2rhxU_sTtexqDrbMg6vK6SvAfE2Zl7DdHYT3lYccF3WFSTkE3qUaegkubd6dB53_AL8ffvt91FykZeEtikX98A6Ep_gxlOlbC96usgbHkQ-dIRk9jfLeXpxLF7KDnmn59vy1jNhhS_iCdpmHBz1JaWdUs_VlUYqQZ7MMM79tg2uialOfbRbsLEYCegICkvBR2RJk3EODfXrwF7pmk0lDzNe7lVvyCUiQqUPcbDWkB0eBeyrDL48iGZNaALIoXWzFPSN5puj7WvnHhcZWIVKKVXB8q0r8KDx82yCJGe-lD4qlg1RYryfwd5DHwnsqiZ3kXjO6AyfwvHOwrInJy_h3BrJfYZDqQqia5NMycn3agXRUHsXdeIslGA8TP-xpIOZbIyu0yrtMHYwlYrB6uK5PoyxUXnvym87G-Z_v_wXFx-av58vcQbUPp1AsiQeuERsl-tqrDMGgr5OWpE_DaB-bvpeV-g4NTRkds3tGgClyqF2TzSCL1cv8M9OUanqFu28kysgCgRfGuRFUONzNLYqakAX3smTpZGGT3sUeMtnh_JeSbCcC1hEL7A6sklPj_r70CVQ1aUYaFQuIGDmKeFi9ui5gUFKRTd0pybI5ohP81kG7sVN8BKLKsAJAoIQNeGEgDZSVRlGE-8x6kfjApOpaZMrcOrDc6NPE2bTRGYzE-DMrvHznCq7vPgHmA1CgK1jLLUra46uLHlmKBBSQMJaWGT9KdijDgYij5m6PuROKDc1HRy6CrOG3HJAWWS9tIaf6KwmfkHbXmKxnr94AXhmGKDLeP3oKDtwoYjfUqBc_8yZJyjhGbN4PS-L8v3T_lhWVdFwqldEmVVBjxvnM6vMQYrNwbEhrsQfXmgNY4HY_3ojJnjW5OI_IvPkbURX_F69UptrgrcE_--NWNqA5MyiZKDzE7_AJsIAlz6w94ouvZ-24BgRcXNBgEZOQd3wehbq27UuVRr-SFG8aUaKtLxZ3kI2eMjtI1qkStlRkpgCSFLoYzGuMQvQ58zhu3m00?></g></svg>