<svg xmlns="http://www.w3.org/2000/svg" xmlns:xlink="http://www.w3.org/1999/xlink" contentStyleType="text/css" data-diagram-type="ACTIVITY" height="881px" preserveAspectRatio="none" style="width:1781px;height:881px;background:#FBF8EF;" version="1.1" viewBox="0 0 1781 881" width="1781px" zoomAndPan="magnify"><?plantuml $version$?><defs/><g><rect fill="#FBF8EF" height="881" style="stroke:none;stroke-width:1;" width="1781" x="0" y="0"/><g class="title" data-source-line="7"><text fill="#000000" font-family="'Inter, Helvetica, sans-serif'" font-size="14" font-weight="700" lengthAdjust="spacing" textLength="624.4258" x="577.6682" y="34.9659">Unified history spine &#8212; every navigation affordance is one interface over one mechanism</text></g><rect fill="none" height="24.5158" style="stroke:none;stroke-width:1;" width="1734.7622" x="20" y="58.8419"/><rect fill="#E3E7F2" height="705.1252" style="stroke:#E3E7F2;stroke-width:1;" width="386.1625" x="20" y="58.8419"/><ellipse cx="214.0812" cy="98.3577" fill="#222222" rx="10" ry="10" style="stroke:#222222;stroke-width:1;"/><rect fill="#F1F1F1" height="101.7206" rx="4" ry="4" style="stroke:#181818;stroke-width:0.5;" width="376.1625" x="26" y="128.3577"/><text fill="#000000" font-family="'Inter, Helvetica, sans-serif'" font-size="12" lengthAdjust="spacing" textLength="163.3811" x="36" y="151.1858">Any navigation affordance &#8212;</text><text fill="#000000" font-family="'Inter, Helvetica, sans-serif'" font-size="12" lengthAdjust="spacing" textLength="125.4609" x="36" y="167.5299">toolbar Back/Forward,</text><text fill="#000000" font-family="'Inter, Helvetica, sans-serif'" font-size="12" font-weight="700" lengthAdjust="spacing" textLength="114.9008" x="164.5809" y="167.5299">Alt+Left / Alt+Right</text><text fill="#000000" font-family="'Inter, Helvetica, sans-serif'" font-size="12" lengthAdjust="spacing" textLength="76.8365" x="282.6018" y="167.5299">(all keymaps),</text><text fill="#000000" font-family="'Inter, Helvetica, sans-serif'" font-size="12" lengthAdjust="spacing" textLength="356.1625" x="36" y="183.874">mouse thumb buttons, web-view back/forward (vv:history-nav),</text><text fill="#000000" font-family="'Inter, Helvetica, sans-serif'" font-size="12" font-weight="700" lengthAdjust="spacing" textLength="40.6083" x="36" y="200.2182">Alt+Up</text><text fill="#000000" font-family="'Inter, Helvetica, sans-serif'" font-size="12" lengthAdjust="spacing" textLength="4.464" x="79.7283" y="200.2182">/</text><text fill="#000000" font-family="'Inter, Helvetica, sans-serif'" font-size="12" font-weight="700" lengthAdjust="spacing" textLength="58.3084" x="87.3124" y="200.2182">Alt+Down</text><text fill="#000000" font-family="'Inter, Helvetica, sans-serif'" font-size="12" lengthAdjust="spacing" textLength="160.2371" x="145.6208" y="200.2182">, breadcrumb-segment click,</text><text fill="#000000" font-family="'Inter, Helvetica, sans-serif'" font-size="12" lengthAdjust="spacing" textLength="301.0216" x="36" y="216.5623">file / link / tree click, URI bar Enter, File &#9656; Open Recent</text><line style="stroke:#000000;stroke-width:1.5;" x1="20" x2="20" y1="58.8419" y2="763.9671"/><rect fill="#E3F2ED" height="705.1252" style="stroke:#E3F2ED;stroke-width:1;" width="801.3243" x="406.1625" y="58.8419"/><rect fill="#F1F1F1" height="36.3441" rx="4" ry="4" style="stroke:#181818;stroke-width:0.5;" width="373.8706" x="469.6297" y="250.0783"/><text fill="#000000" font-family="'Inter, Helvetica, sans-serif'" font-size="12" lengthAdjust="spacing" textLength="353.8706" x="479.6297" y="272.9064">resolver / command registry / UI dispatches a navigation event</text><polygon fill="#F1F1F1" points="607.6649,306.4224,705.4652,306.4224,717.4652,318.4224,705.4652,330.4224,607.6649,330.4224,595.6649,318.4224,607.6649,306.4224" style="stroke:#181818;stroke-width:0.5;stroke-linejoin:miter;stroke-miterlimit:10;"/><text fill="#000000" font-family="'Inter, Helvetica, sans-serif'" font-size="11" lengthAdjust="spacing" textLength="97.8003" x="607.6649" y="322.6904">kind of navigation?</text><text fill="#000000" font-family="'Inter, Helvetica, sans-serif'" font-size="11" lengthAdjust="spacing" textLength="75.0085" x="520.6564" y="315.1994">back / forward</text><text fill="#000000" font-family="'Inter, Helvetica, sans-serif'" font-size="11" lengthAdjust="spacing" textLength="61.8635" x="717.4652" y="315.1994">open / push</text><rect fill="#F1F1F1" height="36.3441" rx="4" ry="4" style="stroke:#181818;stroke-width:0.5;" width="210.8374" x="412.1625" y="350.4224"/><text fill="#000000" font-family="'Inter, Helvetica, sans-serif'" font-size="12" lengthAdjust="spacing" textLength="190.8374" x="422.1625" y="373.2505">[:history/back] / [:history/forward]</text><path d="M919.1075,350.4224 L919.1075,386.8344 L899.1075,390.8344 L919.1075,394.8344 L919.1075,431.2465 A0,0 0 0 0 919.1075,431.2465 L1202.4868,431.2465 A0,0 0 0 0 1202.4868,431.2465 L1202.4868,360.4224 L1192.4868,350.4224 L919.1075,350.4224 A0,0 0 0 0 919.1075,350.4224" fill="#FFF6D6" style="stroke:#7F6B14;stroke-width:0.5;"/><path d="M1192.4868,350.4224 L1192.4868,360.4224 L1202.4868,360.4224 L1192.4868,350.4224" fill="#FFF6D6" style="stroke:#7F6B14;stroke-width:0.5;"/><text fill="#000000" font-family="'Inter, Helvetica, sans-serif'" font-size="13" lengthAdjust="spacing" textLength="244.1792" x="925.1075" y="369.3194">A directory opens the same way as a file</text><text fill="#000000" font-family="'Inter, Helvetica, sans-serif'" font-size="13" lengthAdjust="spacing" textLength="262.3792" x="925.1075" y="387.0254">(:tab/navigate / :doc/open), so **filesystem</text><text fill="#000000" font-family="'Inter, Helvetica, sans-serif'" font-size="13" lengthAdjust="spacing" textLength="248.6642" x="925.1075" y="404.7315">navigation is part of history** &#8212; Alt+Left</text><text fill="#000000" font-family="'Inter, Helvetica, sans-serif'" font-size="13" lengthAdjust="spacing" textLength="112.3461" x="925.1075" y="422.4375">undoes an Alt+Up.</text><rect fill="#F1F1F1" height="52.6882" rx="4" ry="4" style="stroke:#181818;stroke-width:0.5;" width="207.1173" x="691.9902" y="364.4903"/><text fill="#000000" font-family="'Inter, Helvetica, sans-serif'" font-size="12" lengthAdjust="spacing" textLength="165.6612" x="701.9902" y="387.3184">[:tab/navigate] / [:doc/open] /</text><text fill="#000000" font-family="'Inter, Helvetica, sans-serif'" font-size="12" lengthAdjust="spacing" textLength="187.1173" x="701.9902" y="403.6625">[:nav/parent] / [:nav/open-target]</text><polygon fill="#F1F1F1" points="656.565,528.9347,668.565,540.9347,656.565,552.9347,644.565,540.9347,656.565,528.9347" style="stroke:#181818;stroke-width:0.5;stroke-linejoin:miter;stroke-miterlimit:10;"/><line style="stroke:#000000;stroke-width:1.5;" x1="406.1625" x2="406.1625" y1="58.8419" y2="763.9671"/><rect fill="#E3E7F2" height="705.1252" style="stroke:#E3E7F2;stroke-width:1;" width="545.9354" x="1207.4868" y="58.8419"/><rect fill="#F1F1F1" height="52.6882" rx="4" ry="4" style="stroke:#181818;stroke-width:0.5;" width="256.5817" x="1213.4868" y="421.7665"/><text fill="#000000" font-family="'Inter, Helvetica, sans-serif'" font-size="12" font-weight="700" lengthAdjust="spacing" textLength="69.6485" x="1223.4868" y="444.5946">nav/step &#177;1</text><text fill="#000000" font-family="'Inter, Helvetica, sans-serif'" font-size="12" lengthAdjust="spacing" textLength="236.5817" x="1223.4868" y="460.9387">move [:hist :idx]; restore that entry's scroll</text><rect fill="#F1F1F1" height="52.6882" rx="4" ry="4" style="stroke:#181818;stroke-width:0.5;" width="259.3537" x="1490.0685" y="466.2465"/><text fill="#000000" font-family="'Inter, Helvetica, sans-serif'" font-size="12" font-weight="700" lengthAdjust="spacing" textLength="88.6926" x="1500.0685" y="489.0746">nav/nav-active</text><text fill="#000000" font-family="'Inter, Helvetica, sans-serif'" font-size="12" lengthAdjust="spacing" textLength="239.3537" x="1500.0685" y="505.4187">push {:uri :scroll}; truncate forward entries</text><rect fill="#F1F1F1" height="36.3441" rx="4" ry="4" style="stroke:#181818;stroke-width:0.5;" width="228.8375" x="1366.3427" y="572.9347"/><text fill="#000000" font-family="'Inter, Helvetica, sans-serif'" font-size="12" lengthAdjust="spacing" textLength="208.8375" x="1376.3427" y="595.7628">active tab :uri := current history entry</text><rect fill="#F1F1F1" height="36.3441" rx="4" ry="4" style="stroke:#181818;stroke-width:0.5;" width="384.6693" x="1288.4269" y="629.2788"/><text fill="#000000" font-family="'Inter, Helvetica, sans-serif'" font-size="12" lengthAdjust="spacing" textLength="364.6693" x="1298.4269" y="652.1069">retained-file-paths &#8594; main watcher / DataScript cache ownership</text><rect fill="#F1F1F1" height="36.3441" rx="4" ry="4" style="stroke:#181818;stroke-width:0.5;" width="279.0339" x="1341.2445" y="685.6229"/><text fill="#000000" font-family="'Inter, Helvetica, sans-serif'" font-size="12" lengthAdjust="spacing" textLength="259.0339" x="1351.2445" y="708.451">load local content [:vv/open] + [:scroll/restore]</text><ellipse cx="1480.7615" cy="752.9671" fill="none" rx="11" ry="11" style="stroke:#222222;stroke-width:1;"/><ellipse cx="1480.7615" cy="752.9671" fill="#222222" rx="6" ry="6" style="stroke:#222222;stroke-width:1;"/><line style="stroke:#000000;stroke-width:1.5;" x1="1207.4868" x2="1207.4868" y1="58.8419" y2="763.9671"/><line style="stroke:#000000;stroke-width:1.5;" x1="1753.4222" x2="1753.4222" y1="58.8419" y2="763.9671"/><line style="stroke:#555555;stroke-width:1.3;" x1="214.0812" x2="214.0812" y1="108.3577" y2="128.3577"/><polygon fill="#555555" points="210.0812,118.3577,214.0812,128.3577,218.0812,118.3577,214.0812,122.3577" style="stroke:#555555;stroke-width:1;stroke-linejoin:miter;stroke-miterlimit:10;"/><line style="stroke:#555555;stroke-width:1.3;" x1="595.6649" x2="517.5812" y1="318.4224" y2="318.4224"/><line style="stroke:#555555;stroke-width:1.3;" x1="517.5812" x2="517.5812" y1="318.4224" y2="350.4224"/><polygon fill="#555555" points="513.5812,340.4224,517.5812,350.4224,521.5812,340.4224,517.5812,344.4224" style="stroke:#555555;stroke-width:1;stroke-linejoin:miter;stroke-miterlimit:10;"/><line style="stroke:#555555;stroke-width:1.3;" x1="717.4652" x2="795.5489" y1="318.4224" y2="318.4224"/><line style="stroke:#555555;stroke-width:1.3;" x1="795.5489" x2="795.5489" y1="318.4224" y2="364.4903"/><polygon fill="#555555" points="791.5489,354.4903,795.5489,364.4903,799.5489,354.4903,795.5489,358.4903" style="stroke:#555555;stroke-width:1;stroke-linejoin:miter;stroke-miterlimit:10;"/><line style="stroke:#555555;stroke-width:1.3;" x1="656.565" x2="656.565" y1="286.4224" y2="306.4224"/><polygon fill="#555555" points="652.565,296.4224,656.565,306.4224,660.565,296.4224,656.565,300.4224" style="stroke:#555555;stroke-width:1;stroke-linejoin:miter;stroke-miterlimit:10;"/><line style="stroke:#555555;stroke-width:1.3;" x1="1480.7615" x2="1480.7615" y1="609.2788" y2="629.2788"/><polygon fill="#555555" points="1476.7615,619.2788,1480.7615,629.2788,1484.7615,619.2788,1480.7615,623.2788" style="stroke:#555555;stroke-width:1;stroke-linejoin:miter;stroke-miterlimit:10;"/><line style="stroke:#555555;stroke-width:1.3;" x1="1480.7615" x2="1480.7615" y1="665.6229" y2="685.6229"/><polygon fill="#555555" points="1476.7615,675.6229,1480.7615,685.6229,1484.7615,675.6229,1480.7615,679.6229" style="stroke:#555555;stroke-width:1;stroke-linejoin:miter;stroke-miterlimit:10;"/><line style="stroke:#555555;stroke-width:1.3;" x1="1480.7615" x2="1480.7615" y1="721.9671" y2="741.9671"/><polygon fill="#555555" points="1476.7615,731.9671,1480.7615,741.9671,1484.7615,731.9671,1480.7615,735.9671" style="stroke:#555555;stroke-width:1;stroke-linejoin:miter;stroke-miterlimit:10;"/><line style="stroke:#555555;stroke-width:1.3;" x1="214.0812" x2="214.0812" y1="230.0783" y2="235.0783"/><line style="stroke:#555555;stroke-width:1.3;" x1="214.0812" x2="656.565" y1="235.0783" y2="235.0783"/><line style="stroke:#555555;stroke-width:1.3;" x1="656.565" x2="656.565" y1="235.0783" y2="250.0783"/><polygon fill="#555555" points="652.565,240.0783,656.565,250.0783,660.565,240.0783,656.565,244.0783" style="stroke:#555555;stroke-width:1;stroke-linejoin:miter;stroke-miterlimit:10;"/><line style="stroke:#555555;stroke-width:1.3;" x1="517.5812" x2="517.5812" y1="386.7665" y2="404.2665"/><line style="stroke:#555555;stroke-width:1.3;" x1="517.5812" x2="1341.7776" y1="404.2665" y2="404.2665"/><line style="stroke:#555555;stroke-width:1.3;" x1="1341.7776" x2="1341.7776" y1="404.2665" y2="421.7665"/><polygon fill="#555555" points="1337.7776,411.7665,1341.7776,421.7665,1345.7776,411.7665,1341.7776,415.7665" style="stroke:#555555;stroke-width:1;stroke-linejoin:miter;stroke-miterlimit:10;"/><line style="stroke:#555555;stroke-width:1.3;" x1="795.5489" x2="795.5489" y1="417.1786" y2="441.7125"/><line style="stroke:#555555;stroke-width:1.3;" x1="795.5489" x2="1619.7453" y1="441.7125" y2="441.7125"/><line style="stroke:#555555;stroke-width:1.3;" x1="1619.7453" x2="1619.7453" y1="441.7125" y2="466.2465"/><polygon fill="#555555" points="1615.7453,456.2465,1619.7453,466.2465,1623.7453,456.2465,1619.7453,460.2465" style="stroke:#555555;stroke-width:1;stroke-linejoin:miter;stroke-miterlimit:10;"/><line style="stroke:#555555;stroke-width:1.3;" x1="1341.7776" x2="1341.7776" y1="474.4548" y2="522.9347"/><line style="stroke:#555555;stroke-width:1.3;" x1="1341.7776" x2="626.565" y1="522.9347" y2="522.9347"/><line style="stroke:#555555;stroke-width:1.3;" x1="626.565" x2="626.565" y1="522.9347" y2="540.9347"/><line style="stroke:#555555;stroke-width:1.3;" x1="626.565" x2="644.565" y1="540.9347" y2="540.9347"/><polygon fill="#555555" points="634.565,536.9347,644.565,540.9347,634.565,544.9347,638.565,540.9347" style="stroke:#555555;stroke-width:1;stroke-linejoin:miter;stroke-miterlimit:10;"/><line style="stroke:#555555;stroke-width:1.3;" x1="1619.7453" x2="1619.7453" y1="518.9347" y2="540.9347"/><line style="stroke:#555555;stroke-width:1.3;" x1="1619.7453" x2="668.565" y1="540.9347" y2="540.9347"/><polygon fill="#555555" points="678.565,536.9347,668.565,540.9347,678.565,544.9347,674.565,540.9347" style="stroke:#555555;stroke-width:1;stroke-linejoin:miter;stroke-miterlimit:10;"/><line style="stroke:#555555;stroke-width:1.3;" x1="656.565" x2="656.565" y1="552.9347" y2="557.9347"/><line style="stroke:#555555;stroke-width:1.3;" x1="656.565" x2="1480.7615" y1="557.9347" y2="557.9347"/><line style="stroke:#555555;stroke-width:1.3;" x1="1480.7615" x2="1480.7615" y1="557.9347" y2="572.9347"/><polygon fill="#555555" points="1476.7615,562.9347,1480.7615,572.9347,1484.7615,562.9347,1480.7615,566.9347" style="stroke:#555555;stroke-width:1;stroke-linejoin:miter;stroke-miterlimit:10;"/><text fill="#000000" font-family="'Inter, Helvetica, sans-serif'" font-size="18" lengthAdjust="spacing" textLength="153.233" x="136.4647" y="78.0838">Affordance (input)</text><text fill="#000000" font-family="'Inter, Helvetica, sans-serif'" font-size="18" lengthAdjust="spacing" textLength="228.6525" x="692.4984" y="78.0838">Renderer (re-frame events)</text><text fill="#000000" font-family="'Inter, Helvetica, sans-serif'" font-size="18" lengthAdjust="spacing" textLength="262.6003" x="1349.1543" y="78.0838">app-db history (vinary.app.nav)</text><g class="legend" data-source-line="41"><rect fill="none" height="71.2038" rx="4" ry="4" style="stroke:#000000;stroke-width:1;" width="344.4167" x="1413.3455" y="785.9671"/><text fill="#000000" font-family="'Inter, Helvetica, sans-serif'" font-size="14" font-weight="700" lengthAdjust="spacing" textLength="46.0178" x="1421.9855" y="807.933">Colour</text><text fill="#000000" font-family="'Inter, Helvetica, sans-serif'" font-size="14" font-weight="700" lengthAdjust="spacing" textLength="57.3438" x="1475.2832" y="807.933">Concept</text><rect fill="#7590DB" height="19.0679" style="stroke:none;stroke-width:1;" width="53.2978" x="1418.3455" y="812.035"/><text fill="#000000" font-family="'Inter, Helvetica, sans-serif'" font-size="14" lengthAdjust="spacing" textLength="14.5599" x="1418.3455" y="827.0009">&#160;&#160;&#160;&#160;</text><text fill="#000000" font-family="'Inter, Helvetica, sans-serif'" font-size="14" lengthAdjust="spacing" textLength="273.839" x="1475.2832" y="827.0009">app-db &#8212; per-tab history (vinary.app.nav)</text><rect fill="#2D9574" height="19.0679" style="stroke:none;stroke-width:1;" width="53.2978" x="1418.3455" y="831.1029"/><text fill="#000000" font-family="'Inter, Helvetica, sans-serif'" font-size="14" lengthAdjust="spacing" textLength="14.5599" x="1418.3455" y="846.0688">&#160;&#160;&#160;&#160;</text><text fill="#000000" font-family="'Inter, Helvetica, sans-serif'" font-size="14" lengthAdjust="spacing" textLength="187.0813" x="1475.2832" y="846.0688">Renderer &#8212; re-frame events</text><line style="stroke:#000000;stroke-width:1;" x1="1418.3455" x2="1752.7622" y1="792.9671" y2="792.9671"/><line style="stroke:#000000;stroke-width:1;" x1="1418.3455" x2="1752.7622" y1="812.035" y2="812.035"/><line style="stroke:#000000;stroke-width:1;" x1="1418.3455" x2="1752.7622" y1="831.1029" y2="831.1029"/><line style="stroke:#000000;stroke-width:1;" x1="1418.3455" x2="1752.7622" y1="850.1708" y2="850.1708"/><line style="stroke:#000000;stroke-width:1;" x1="1418.3455" x2="1418.3455" y1="792.9671" y2="850.1708"/><line style="stroke:#000000;stroke-width:1;" x1="1471.6433" x2="1471.6433" y1="792.9671" y2="850.1708"/><line style="stroke:#000000;stroke-width:1;" x1="1752.7622" x2="1752.7622" y1="792.9671" y2="850.1708"/></g><?plantuml-src dLNTRkD45BxtKnnKYVmqZdSBIxKE1QKabLRQTgkWNA1kXIRsSJpgUCQQ6JiR4IIkU024U0_kkEPH-YISOpj9wGgGk4di-VdEET_tdUDU3swLq7vv_HPCZHQkqHP2fZ7uN3ge9Mu0Yp8NJZfqj2WyN4zllWEfoyg3o39ZKw4JsakC9e0rWj7mxcOETDyRkmrwFIWmoOMMhe2-W4peK6hm1hIe8-UnX5D-34NYPOq3s4YVWu07gTFGP25joRNmac1NbaBbyFZJho0qDEUbtq8gnTgAWYCrTzr65bGKPRBHQ5qkEOA051Ff60O_b1RTePuLUa-LqpDXGgRCXhArVWpV66Kgws9OgGh3MXg5deDCRszdbt01eYp3T0Kbsj2BrRxW2NWK2XRpczbyCL_GEOjXHlaXO8tQkt7mYTI9gbA4x-iwz3aME9PLeOB0IwyGbbfc4jCz8BXIKZ5SDG7G-nD6ZW80oMNecDHKJ2PeeT6Jbmxq1y7kPFxP_FpgR3SzNkmtMWvsWVDKTX1FzJ-5e1G2RunQ2GkN8dc8hepT29kEO3YSAd_w5ZCF4V3ZGgvpFnoIu4h10suBKRh1A2XCvP2eheeLh2hlZNOZsE0gR9osOioinOH-NSST0-m1kjm6MPO46tKHPoJnS3WYPw184qkmeSDrGJH3ecJoC0eoIOn6eAH-e3zl4RiTM2xU05SoPyP6SCK77t_x0zwLg6612O5CMiQkpkQptG9rYfOexJ_JavYBoKz6CTyHzK5H29sIwclAdkIAOFc6FEfAuPESJ2UUijj0J0APGPyD3oPxillrWAYYPFfC3E5qr0m2WFXkJqx4c_UqUrpfpjrFwE11ySwjUrFrQwc5tOvfUSpqxXXqE3pqv9-_lnmEt-k2NDGXGopJ3_SJAemHi6qUojvkUmvSOerIam0LwTitJ644PUNoGPV3VtBOr4Hz57NrOrjJQfA8uUZjlRwBERzIMBhJRlCxRrC7qkpnJSdQU0JB1gGNW2cHRp5fgkQZtFO8ZeDln1O4Ay8kQGxt_vO2XJWaC1Y1CsGxFkgsn57HN7YY9NKWfUPPmuvbSYgtxRutcWkLJWsxG4FhvZ6j4YrDrlzFh-FmPCMOTFWXhgo4k5NbHnf9jj895xJlBjPDeYF1T2gp88XR0E11rjwzWAIoJFGXXKRh2PlT2vf8QSXKX6JhtC7Zpxy0VJWqKSekvqQO2I--JQmigHS5hHt7CM4e8r9G9g59IHyEps7kuhhkf3wbbpRtg7CR2Kl_PH0eN3DRUtbt5zsORfzeIb4uvcRtvSdvgzSlPfTVVNhoyeiNauz_T_i1pX8z6-8VqRt7F9kzVdN--RzW7YpEgCzSJY2qsrRm5m00?></g></svg>