<svg xmlns="http://www.w3.org/2000/svg" xmlns:xlink="http://www.w3.org/1999/xlink" contentStyleType="text/css" data-diagram-type="ACTIVITY" height="960px" preserveAspectRatio="none" style="width:915px;height:960px;background:#FBF8EF;" version="1.1" viewBox="0 0 915 960" width="915px" zoomAndPan="magnify"><?plantuml $version$?><defs/><g><rect fill="#FBF8EF" height="960" style="stroke:none;stroke-width:1;" width="915" x="0" y="0"/><g class="title" data-source-line="6"><text fill="#000000" font-family="'Inter, Helvetica, sans-serif'" font-size="14" font-weight="700" lengthAdjust="spacing" textLength="432.9904" x="240.1863" y="34.9659">Key-binding editor &#8212; undo / redo as a data-command lifecycle</text><text fill="#000000" font-family="'Inter, Helvetica, sans-serif'" font-size="14" font-weight="700" lengthAdjust="spacing" textLength="199.0653" x="357.1488" y="54.0339">[:ui :kbedit] {:undo [] :redo []}</text></g><ellipse cx="344.1636" cy="84.1358" fill="#222222" rx="10" ry="10" style="stroke:#222222;stroke-width:1;"/><rect fill="#EAF6FF" height="52.6882" rx="4" ry="4" style="stroke:#4C66AE;stroke-width:0.5;" width="287.8179" x="200.2547" y="114.1358"/><text fill="#1A1A1A" font-family="'Inter, Helvetica, sans-serif'" font-size="12" lengthAdjust="spacing" textLength="139.021" x="210.2547" y="136.9639">user edits a binding / set</text><text fill="#1A1A1A" font-family="'Inter, Helvetica, sans-serif'" font-size="12" lengthAdjust="spacing" textLength="267.8179" x="210.2547" y="153.308">(capture C-x C-f, delete, rename, reorder, clone)</text><rect fill="#EAF6FF" height="36.3441" rx="4" ry="4" style="stroke:#4C66AE;stroke-width:0.5;" width="230.6615" x="228.8329" y="186.8241"/><text fill="#1A1A1A" font-family="'Inter, Helvetica, sans-serif'" font-size="12" lengthAdjust="spacing" textLength="210.6615" x="238.8329" y="209.6522">build a data-command  cmd = {:op &#8230;}</text><rect fill="#E2CAE5" height="36.3441" rx="4" ry="4" style="stroke:#4C66AE;stroke-width:0.5;" width="164.2876" x="262.0198" y="243.1682"/><text fill="#1A1A1A" font-family="'Inter, Helvetica, sans-serif'" font-size="12" lengthAdjust="spacing" textLength="144.2876" x="272.0198" y="265.9963">apply-cmd db cmd  &#8594;  db'</text><rect fill="#C5CFEA" height="36.3441" rx="4" ry="4" style="stroke:#4C66AE;stroke-width:0.5;" width="210.1053" x="239.1109" y="299.5123"/><text fill="#1A1A1A" font-family="'Inter, Helvetica, sans-serif'" font-size="12" lengthAdjust="spacing" textLength="190.1053" x="249.1109" y="322.3404">push cmd onto :undo,  clear :redo</text><rect fill="#EEE6C1" height="36.3441" rx="4" ry="4" style="stroke:#4C66AE;stroke-width:0.5;" width="244.5216" x="221.9028" y="355.8564"/><text fill="#1A1A1A" font-family="'Inter, Helvetica, sans-serif'" font-size="12" lengthAdjust="spacing" textLength="224.5216" x="231.9028" y="378.6845">install-active (live) + persist (debounced)</text><polygon fill="#FFF6D6" points="147.1404,412.2005,238.6697,412.2005,250.6697,424.2005,238.6697,436.2005,147.1404,436.2005,135.1404,424.2005,147.1404,412.2005" style="stroke:#7F6B14;stroke-width:0.5;stroke-linejoin:miter;stroke-miterlimit:10;"/><text fill="#000000" font-family="'Inter, Helvetica, sans-serif'" font-size="11" lengthAdjust="spacing" textLength="17.0829" x="196.905" y="447.9594">yes</text><text fill="#1A1A1A" font-family="'Inter, Helvetica, sans-serif'" font-size="11" lengthAdjust="spacing" textLength="91.5292" x="147.1404" y="428.4685">Ctrl+Z  /  &#8630; Undo?</text><polygon fill="#FFF6D6" points="145.7924,469.4594,240.0177,469.4594,252.0177,481.4594,240.0177,493.4594,145.7924,493.4594,133.7924,481.4594,145.7924,469.4594" style="stroke:#7F6B14;stroke-width:0.5;stroke-linejoin:miter;stroke-miterlimit:10;"/><text fill="#1A1A1A" font-family="'Inter, Helvetica, sans-serif'" font-size="11" lengthAdjust="spacing" textLength="94.2253" x="145.7924" y="485.7274">:undo non-empty?</text><text fill="#000000" font-family="'Inter, Helvetica, sans-serif'" font-size="11" lengthAdjust="spacing" textLength="17.0829" x="116.7095" y="478.2365">yes</text><text fill="#000000" font-family="'Inter, Helvetica, sans-serif'" font-size="11" lengthAdjust="spacing" textLength="32.8348" x="252.0177" y="478.2365">empty</text><rect fill="#E2CAE5" height="52.6882" rx="4" ry="4" style="stroke:#4C66AE;stroke-width:0.5;" width="201.0319" x="17.8907" y="503.4594"/><text fill="#1A1A1A" font-family="'Inter, Helvetica, sans-serif'" font-size="12" lengthAdjust="spacing" textLength="103.7874" x="27.8907" y="526.2875">cmd &#8592; peek :undo</text><text fill="#1A1A1A" font-family="'Inter, Helvetica, sans-serif'" font-size="12" lengthAdjust="spacing" textLength="181.0319" x="27.8907" y="542.6316">apply-cmd db (invert cmd) &#8594; db'</text><rect fill="#C5CFEA" height="36.3441" rx="4" ry="4" style="stroke:#4C66AE;stroke-width:0.5;" width="204.8133" x="16" y="590.8107"/><text fill="#1A1A1A" font-family="'Inter, Helvetica, sans-serif'" font-size="12" lengthAdjust="spacing" textLength="184.8133" x="26" y="613.6388">pop :undo,  push cmd onto :redo</text><rect fill="#EEE6C1" height="36.3441" rx="4" ry="4" style="stroke:#4C66AE;stroke-width:0.5;" width="141.2969" x="47.7582" y="647.1548"/><text fill="#1A1A1A" font-family="'Inter, Helvetica, sans-serif'" font-size="12" lengthAdjust="spacing" textLength="121.2969" x="57.7582" y="669.9829">install-active + persist</text><rect fill="#EAF6FF" height="36.3441" rx="4" ry="4" style="stroke:#4C66AE;stroke-width:0.5;" width="53.1802" x="240.8133" y="503.4594"/><text fill="#1A1A1A" font-family="'Inter, Helvetica, sans-serif'" font-size="12" lengthAdjust="spacing" textLength="33.1802" x="250.8133" y="526.2875">no-op</text><polygon fill="#FFF6D6" points="192.905,689.4989,204.905,701.4989,192.905,713.4989,180.905,701.4989,192.905,689.4989" style="stroke:#7F6B14;stroke-width:0.5;stroke-linejoin:miter;stroke-miterlimit:10;"/><polygon fill="#FFF6D6" points="451.1696,412.2005,570.6276,412.2005,582.6276,424.2005,570.6276,436.2005,451.1696,436.2005,439.1696,424.2005,451.1696,412.2005" style="stroke:#7F6B14;stroke-width:0.5;stroke-linejoin:miter;stroke-miterlimit:10;"/><text fill="#000000" font-family="'Inter, Helvetica, sans-serif'" font-size="11" lengthAdjust="spacing" textLength="17.0829" x="514.8986" y="447.9594">yes</text><text fill="#1A1A1A" font-family="'Inter, Helvetica, sans-serif'" font-size="11" lengthAdjust="spacing" textLength="119.458" x="451.1696" y="428.4685">Ctrl+Shift+Z  /  &#8631; Redo?</text><text fill="#000000" font-family="'Inter, Helvetica, sans-serif'" font-size="11" lengthAdjust="spacing" textLength="72.5445" x="582.6276" y="420.9775">no history key</text><polygon fill="#FFF6D6" points="465.2104,469.4594,556.5868,469.4594,568.5868,481.4594,556.5868,493.4594,465.2104,493.4594,453.2104,481.4594,465.2104,469.4594" style="stroke:#7F6B14;stroke-width:0.5;stroke-linejoin:miter;stroke-miterlimit:10;"/><text fill="#1A1A1A" font-family="'Inter, Helvetica, sans-serif'" font-size="11" lengthAdjust="spacing" textLength="91.3763" x="465.2104" y="485.7274">:redo non-empty?</text><text fill="#000000" font-family="'Inter, Helvetica, sans-serif'" font-size="11" lengthAdjust="spacing" textLength="17.0829" x="436.1275" y="478.2365">yes</text><text fill="#000000" font-family="'Inter, Helvetica, sans-serif'" font-size="11" lengthAdjust="spacing" textLength="32.8348" x="568.5868" y="478.2365">empty</text><rect fill="#E2CAE5" height="52.6882" rx="4" ry="4" style="stroke:#4C66AE;stroke-width:0.5;" width="158.0476" x="357.3764" y="503.4594"/><text fill="#1A1A1A" font-family="'Inter, Helvetica, sans-serif'" font-size="12" lengthAdjust="spacing" textLength="100.6794" x="367.3764" y="526.2875">cmd &#8592; peek :redo</text><text fill="#1A1A1A" font-family="'Inter, Helvetica, sans-serif'" font-size="12" lengthAdjust="spacing" textLength="138.0476" x="367.3764" y="542.6316">apply-cmd db cmd &#8594; db'</text><rect fill="#C5CFEA" height="36.3441" rx="4" ry="4" style="stroke:#4C66AE;stroke-width:0.5;" width="204.8133" x="333.9935" y="590.8107"/><text fill="#1A1A1A" font-family="'Inter, Helvetica, sans-serif'" font-size="12" lengthAdjust="spacing" textLength="184.8133" x="343.9935" y="613.6388">pop :redo,  push cmd onto :undo</text><rect fill="#EEE6C1" height="36.3441" rx="4" ry="4" style="stroke:#4C66AE;stroke-width:0.5;" width="141.2969" x="365.7518" y="647.1548"/><text fill="#1A1A1A" font-family="'Inter, Helvetica, sans-serif'" font-size="12" lengthAdjust="spacing" textLength="121.2969" x="375.7518" y="669.9829">install-active + persist</text><rect fill="#EAF6FF" height="36.3441" rx="4" ry="4" style="stroke:#4C66AE;stroke-width:0.5;" width="53.1802" x="558.8069" y="503.4594"/><text fill="#1A1A1A" font-family="'Inter, Helvetica, sans-serif'" font-size="12" lengthAdjust="spacing" textLength="33.1802" x="568.8069" y="526.2875">no-op</text><polygon fill="#FFF6D6" points="510.8986,689.4989,522.8986,701.4989,510.8986,713.4989,498.8986,701.4989,510.8986,689.4989" style="stroke:#7F6B14;stroke-width:0.5;stroke-linejoin:miter;stroke-miterlimit:10;"/><rect fill="#EAF6FF" height="36.3441" rx="4" ry="4" style="stroke:#4C66AE;stroke-width:0.5;" width="40.3401" x="641.9871" y="576.1477"/><text fill="#1A1A1A" font-family="'Inter, Helvetica, sans-serif'" font-size="12" lengthAdjust="spacing" textLength="20.3401" x="651.9871" y="598.9757">idle</text><path d="M375.1636,743.4989 L375.1636,779.9109 L355.1636,783.9109 L375.1636,787.9109 L375.1636,824.323 A0,0 0 0 0 375.1636,824.323 L894.3629,824.323 A0,0 0 0 0 894.3629,824.323 L894.3629,753.4989 L884.3629,743.4989 L375.1636,743.4989 A0,0 0 0 0 375.1636,743.4989" fill="#FFF6D6" style="stroke:#7F6B14;stroke-width:0.5;"/><path d="M884.3629,743.4989 L884.3629,753.4989 L894.3629,753.4989 L884.3629,743.4989" fill="#FFF6D6" style="stroke:#7F6B14;stroke-width:0.5;"/><text fill="#000000" font-family="'Inter, Helvetica, sans-serif'" font-size="13" lengthAdjust="spacing" textLength="498.1993" x="381.1636" y="762.3959">Because :insert-set / :remove-set are mutual inverses that carry the removed set's</text><text fill="#000000" font-family="'Inter, Helvetica, sans-serif'" font-size="13" lengthAdjust="spacing" textLength="69.9791" x="381.1636" y="780.1019">cfg + index,</text><text fill="#000000" font-family="'Inter, Helvetica, sans-serif'" font-size="13" font-weight="700" lengthAdjust="spacing" textLength="361.1403" x="454.5227" y="780.1019">undoing a delete restores the set at its original position</text><text fill="#000000" font-family="'Inter, Helvetica, sans-serif'" font-size="13" lengthAdjust="spacing" textLength="3.484" x="815.6629" y="780.1019">.</text><text fill="#000000" font-family="'Inter, Helvetica, sans-serif'" font-size="13" lengthAdjust="spacing" textLength="210.7562" x="381.1636" y="797.8079">A real Ctrl+Shift+Z arrives as chord</text><text fill="#000000" font-family="'Inter, Helvetica, sans-serif'" font-size="13" font-weight="700" lengthAdjust="spacing" textLength="20.033" x="595.2998" y="797.8079">C-Z</text><text fill="#000000" font-family="'Inter, Helvetica, sans-serif'" font-size="13" lengthAdjust="spacing" textLength="177.2682" x="618.7128" y="797.8079">(Shift uppercases z); the redo</text><text fill="#000000" font-family="'Inter, Helvetica, sans-serif'" font-size="13" lengthAdjust="spacing" textLength="193.8562" x="381.1636" y="815.514">listener accepts C-Z / C-S-z / C-y.</text><ellipse cx="344.1636" cy="783.9109" fill="none" rx="11" ry="11" style="stroke:#222222;stroke-width:1;"/><ellipse cx="344.1636" cy="783.9109" fill="#222222" rx="6" ry="6" style="stroke:#222222;stroke-width:1;"/><line style="stroke:#555555;stroke-width:1.3;" x1="344.1636" x2="344.1636" y1="94.1358" y2="114.1358"/><polygon fill="#555555" points="340.1636,104.1358,344.1636,114.1358,348.1636,104.1358,344.1636,108.1358" style="stroke:#555555;stroke-width:1;stroke-linejoin:miter;stroke-miterlimit:10;"/><line style="stroke:#555555;stroke-width:1.3;" x1="344.1636" x2="344.1636" y1="166.8241" y2="186.8241"/><polygon fill="#555555" points="340.1636,176.8241,344.1636,186.8241,348.1636,176.8241,344.1636,180.8241" style="stroke:#555555;stroke-width:1;stroke-linejoin:miter;stroke-miterlimit:10;"/><line style="stroke:#555555;stroke-width:1.3;" x1="344.1636" x2="344.1636" y1="223.1682" y2="243.1682"/><polygon fill="#555555" points="340.1636,233.1682,344.1636,243.1682,348.1636,233.1682,344.1636,237.1682" style="stroke:#555555;stroke-width:1;stroke-linejoin:miter;stroke-miterlimit:10;"/><line style="stroke:#555555;stroke-width:1.3;" x1="344.1636" x2="344.1636" y1="279.5123" y2="299.5123"/><polygon fill="#555555" points="340.1636,289.5123,344.1636,299.5123,348.1636,289.5123,344.1636,293.5123" style="stroke:#555555;stroke-width:1;stroke-linejoin:miter;stroke-miterlimit:10;"/><line style="stroke:#555555;stroke-width:1.3;" x1="344.1636" x2="344.1636" y1="335.8564" y2="355.8564"/><polygon fill="#555555" points="340.1636,345.8564,344.1636,355.8564,348.1636,345.8564,344.1636,349.8564" style="stroke:#555555;stroke-width:1;stroke-linejoin:miter;stroke-miterlimit:10;"/><line style="stroke:#555555;stroke-width:1.3;" x1="118.4067" x2="118.4067" y1="556.1477" y2="590.8107"/><polygon fill="#555555" points="114.4067,580.8107,118.4067,590.8107,122.4067,580.8107,118.4067,584.8107" style="stroke:#555555;stroke-width:1;stroke-linejoin:miter;stroke-miterlimit:10;"/><line style="stroke:#555555;stroke-width:1.3;" x1="118.4067" x2="118.4067" y1="627.1548" y2="647.1548"/><polygon fill="#555555" points="114.4067,637.1548,118.4067,647.1548,122.4067,637.1548,118.4067,641.1548" style="stroke:#555555;stroke-width:1;stroke-linejoin:miter;stroke-miterlimit:10;"/><line style="stroke:#555555;stroke-width:1.3;" x1="133.7924" x2="118.4067" y1="481.4594" y2="481.4594"/><line style="stroke:#555555;stroke-width:1.3;" x1="118.4067" x2="118.4067" y1="481.4594" y2="503.4594"/><polygon fill="#555555" points="114.4067,493.4594,118.4067,503.4594,122.4067,493.4594,118.4067,497.4594" style="stroke:#555555;stroke-width:1;stroke-linejoin:miter;stroke-miterlimit:10;"/><line style="stroke:#555555;stroke-width:1.3;" x1="252.0177" x2="267.4034" y1="481.4594" y2="481.4594"/><line style="stroke:#555555;stroke-width:1.3;" x1="267.4034" x2="267.4034" y1="481.4594" y2="503.4594"/><polygon fill="#555555" points="263.4034,493.4594,267.4034,503.4594,271.4034,493.4594,267.4034,497.4594" style="stroke:#555555;stroke-width:1;stroke-linejoin:miter;stroke-miterlimit:10;"/><line style="stroke:#555555;stroke-width:1.3;" x1="118.4067" x2="118.4067" y1="683.4989" y2="701.4989"/><line style="stroke:#555555;stroke-width:1.3;" x1="118.4067" x2="180.905" y1="701.4989" y2="701.4989"/><polygon fill="#555555" points="170.905,697.4989,180.905,701.4989,170.905,705.4989,174.905,701.4989" style="stroke:#555555;stroke-width:1;stroke-linejoin:miter;stroke-miterlimit:10;"/><line style="stroke:#555555;stroke-width:1.3;" x1="267.4034" x2="267.4034" y1="539.8035" y2="701.4989"/><line style="stroke:#555555;stroke-width:1.3;" x1="267.4034" x2="204.905" y1="701.4989" y2="701.4989"/><polygon fill="#555555" points="214.905,697.4989,204.905,701.4989,214.905,705.4989,210.905,701.4989" style="stroke:#555555;stroke-width:1;stroke-linejoin:miter;stroke-miterlimit:10;"/><line style="stroke:#555555;stroke-width:1.3;" x1="436.4002" x2="436.4002" y1="556.1477" y2="590.8107"/><polygon fill="#555555" points="432.4002,580.8107,436.4002,590.8107,440.4002,580.8107,436.4002,584.8107" style="stroke:#555555;stroke-width:1;stroke-linejoin:miter;stroke-miterlimit:10;"/><line style="stroke:#555555;stroke-width:1.3;" x1="436.4002" x2="436.4002" y1="627.1548" y2="647.1548"/><polygon fill="#555555" points="432.4002,637.1548,436.4002,647.1548,440.4002,637.1548,436.4002,641.1548" style="stroke:#555555;stroke-width:1;stroke-linejoin:miter;stroke-miterlimit:10;"/><line style="stroke:#555555;stroke-width:1.3;" x1="453.2104" x2="436.4002" y1="481.4594" y2="481.4594"/><line style="stroke:#555555;stroke-width:1.3;" x1="436.4002" x2="436.4002" y1="481.4594" y2="503.4594"/><polygon fill="#555555" points="432.4002,493.4594,436.4002,503.4594,440.4002,493.4594,436.4002,497.4594" style="stroke:#555555;stroke-width:1;stroke-linejoin:miter;stroke-miterlimit:10;"/><line style="stroke:#555555;stroke-width:1.3;" x1="568.5868" x2="585.397" y1="481.4594" y2="481.4594"/><line style="stroke:#555555;stroke-width:1.3;" x1="585.397" x2="585.397" y1="481.4594" y2="503.4594"/><polygon fill="#555555" points="581.397,493.4594,585.397,503.4594,589.397,493.4594,585.397,497.4594" style="stroke:#555555;stroke-width:1;stroke-linejoin:miter;stroke-miterlimit:10;"/><line style="stroke:#555555;stroke-width:1.3;" x1="436.4002" x2="436.4002" y1="683.4989" y2="701.4989"/><line style="stroke:#555555;stroke-width:1.3;" x1="436.4002" x2="498.8986" y1="701.4989" y2="701.4989"/><polygon fill="#555555" points="488.8986,697.4989,498.8986,701.4989,488.8986,705.4989,492.8986,701.4989" style="stroke:#555555;stroke-width:1;stroke-linejoin:miter;stroke-miterlimit:10;"/><line style="stroke:#555555;stroke-width:1.3;" x1="585.397" x2="585.397" y1="539.8035" y2="701.4989"/><line style="stroke:#555555;stroke-width:1.3;" x1="585.397" x2="522.8986" y1="701.4989" y2="701.4989"/><polygon fill="#555555" points="532.8986,697.4989,522.8986,701.4989,532.8986,705.4989,528.8986,701.4989" style="stroke:#555555;stroke-width:1;stroke-linejoin:miter;stroke-miterlimit:10;"/><line style="stroke:#555555;stroke-width:1.3;" x1="192.905" x2="192.905" y1="436.2005" y2="469.4594"/><polygon fill="#555555" points="188.905,459.4594,192.905,469.4594,196.905,459.4594,192.905,463.4594" style="stroke:#555555;stroke-width:1;stroke-linejoin:miter;stroke-miterlimit:10;"/><line style="stroke:#555555;stroke-width:1.3;" x1="192.905" x2="192.905" y1="713.4989" y2="733.4989"/><polygon fill="#555555" points="188.905,723.4989,192.905,733.4989,196.905,723.4989,192.905,727.4989" style="stroke:#555555;stroke-width:1;stroke-linejoin:miter;stroke-miterlimit:10;"/><line style="stroke:#555555;stroke-width:1.3;" x1="510.8986" x2="510.8986" y1="436.2005" y2="469.4594"/><polygon fill="#555555" points="506.8986,459.4594,510.8986,469.4594,514.8986,459.4594,510.8986,463.4594" style="stroke:#555555;stroke-width:1;stroke-linejoin:miter;stroke-miterlimit:10;"/><line style="stroke:#555555;stroke-width:1.3;" x1="510.8986" x2="510.8986" y1="713.4989" y2="733.4989"/><polygon fill="#555555" points="506.8986,723.4989,510.8986,733.4989,514.8986,723.4989,510.8986,727.4989" style="stroke:#555555;stroke-width:1;stroke-linejoin:miter;stroke-miterlimit:10;"/><line style="stroke:#555555;stroke-width:1.3;" x1="250.6697" x2="439.1696" y1="424.2005" y2="424.2005"/><polygon fill="#555555" points="429.1696,420.2005,439.1696,424.2005,429.1696,428.2005,433.1696,424.2005" style="stroke:#555555;stroke-width:1;stroke-linejoin:miter;stroke-miterlimit:10;"/><line style="stroke:#555555;stroke-width:1.3;" x1="344.1636" x2="344.1636" y1="392.2005" y2="397.2005"/><line style="stroke:#555555;stroke-width:1.3;" x1="344.1636" x2="192.905" y1="397.2005" y2="397.2005"/><line style="stroke:#555555;stroke-width:1.3;" x1="192.905" x2="192.905" y1="397.2005" y2="412.2005"/><polygon fill="#555555" points="188.905,402.2005,192.905,412.2005,196.905,402.2005,192.905,406.2005" style="stroke:#555555;stroke-width:1;stroke-linejoin:miter;stroke-miterlimit:10;"/><line style="stroke:#555555;stroke-width:1.3;" x1="582.6276" x2="662.1572" y1="424.2005" y2="424.2005"/><line style="stroke:#555555;stroke-width:1.3;" x1="662.1572" x2="662.1572" y1="424.2005" y2="576.1477"/><polygon fill="#555555" points="658.1572,566.1477,662.1572,576.1477,666.1572,566.1477,662.1572,570.1477" style="stroke:#555555;stroke-width:1;stroke-linejoin:miter;stroke-miterlimit:10;"/><line style="stroke:#555555;stroke-width:1.3;" x1="662.1572" x2="662.1572" y1="612.4918" y2="733.4989"/><polygon fill="#555555" points="658.1572,723.4989,662.1572,733.4989,666.1572,723.4989,662.1572,727.4989" style="stroke:#555555;stroke-width:1;stroke-linejoin:miter;stroke-miterlimit:10;"/><line style="stroke:#555555;stroke-width:1.3;" x1="192.905" x2="662.1572" y1="733.4989" y2="733.4989"/><line style="stroke:#555555;stroke-width:1.3;" x1="344.1636" x2="344.1636" y1="733.4989" y2="772.9109"/><polygon fill="#555555" points="340.1636,762.9109,344.1636,772.9109,348.1636,762.9109,344.1636,766.9109" style="stroke:#555555;stroke-width:1;stroke-linejoin:miter;stroke-miterlimit:10;"/><g class="legend" data-source-line="51"><rect fill="none" height="90.2717" rx="4" ry="4" style="stroke:#000000;stroke-width:1;" width="293.1489" x="598.214" y="846.323"/><text fill="#000000" font-family="'Inter, Helvetica, sans-serif'" font-size="14" font-weight="700" lengthAdjust="spacing" textLength="46.0178" x="606.854" y="868.2889">Colour</text><text fill="#000000" font-family="'Inter, Helvetica, sans-serif'" font-size="14" font-weight="700" lengthAdjust="spacing" textLength="90.2156" x="660.1518" y="868.2889">Step concept</text><rect fill="#BC6EC5" height="19.0679" style="stroke:none;stroke-width:1;" width="53.2978" x="603.214" y="872.3909"/><text fill="#000000" font-family="'Inter, Helvetica, sans-serif'" font-size="14" lengthAdjust="spacing" textLength="14.5599" x="603.214" y="887.3568">&#160;&#160;&#160;&#160;</text><text fill="#000000" font-family="'Inter, Helvetica, sans-serif'" font-size="14" lengthAdjust="spacing" textLength="222.5711" x="660.1518" y="887.3568">apply-cmd / invert (kbedit-history)</text><rect fill="#7590DB" height="19.0679" style="stroke:none;stroke-width:1;" width="53.2978" x="603.214" y="891.4588"/><text fill="#000000" font-family="'Inter, Helvetica, sans-serif'" font-size="14" lengthAdjust="spacing" textLength="14.5599" x="603.214" y="906.4247">&#160;&#160;&#160;&#160;</text><text fill="#000000" font-family="'Inter, Helvetica, sans-serif'" font-size="14" lengthAdjust="spacing" textLength="179.7313" x="660.1518" y="906.4247">app-db :undo / :redo stacks</text><rect fill="#B1951D" height="19.0679" style="stroke:none;stroke-width:1;" width="53.2978" x="603.214" y="910.5267"/><text fill="#000000" font-family="'Inter, Helvetica, sans-serif'" font-size="14" lengthAdjust="spacing" textLength="14.5599" x="603.214" y="925.4926">&#160;&#160;&#160;&#160;</text><text fill="#000000" font-family="'Inter, Helvetica, sans-serif'" font-size="14" lengthAdjust="spacing" textLength="124.6275" x="660.1518" y="925.4926">live install + persist</text><line style="stroke:#000000;stroke-width:1;" x1="603.214" x2="886.3629" y1="853.323" y2="853.323"/><line style="stroke:#000000;stroke-width:1;" x1="603.214" x2="886.3629" y1="872.3909" y2="872.3909"/><line style="stroke:#000000;stroke-width:1;" x1="603.214" x2="886.3629" y1="891.4588" y2="891.4588"/><line style="stroke:#000000;stroke-width:1;" x1="603.214" x2="886.3629" y1="910.5267" y2="910.5267"/><line style="stroke:#000000;stroke-width:1;" x1="603.214" x2="886.3629" y1="929.5946" y2="929.5946"/><line style="stroke:#000000;stroke-width:1;" x1="603.214" x2="603.214" y1="853.323" y2="929.5946"/><line style="stroke:#000000;stroke-width:1;" x1="656.5118" x2="656.5118" y1="853.323" y2="929.5946"/><line style="stroke:#000000;stroke-width:1;" x1="886.3629" x2="886.3629" y1="853.323" y2="929.5946"/></g><?plantuml-src lPNTRjf85CVl_HIdYhGOYfD6QbZLfAd0W5GrQL2IQhLDecZm7634UCQonpIqgRHNlLvLlT-xVOJj--H9zipO44AwtLvL28mzvty-VZvpfbQ3eMJAl3aw13t738umIvZWCCAO5Jc2cI8KYkkT3Bc6H7EK879W41s_FZivFeJ1uV5lfTIyqv0R5izoU2VCb6nYYIppQZKWwOvpGnVdQ9Gn5PE9uYu2IrEv2EA4m-rVNq4eScU05qmAisXRHrhgWeHtoRBOY3cj0bwd6UOvvjQHYuMno8LMA-Sk9qfzJZQeU61qG9Tjxv5GiImumjLy7f1XWjkYIAJd6M4amYjS12EXk50JG2wCpk3sZo_tgc0M16U61R5E4XjFYZ762whxGfs7XO1mDhBQI_WGEk7v9OHEUdxvqVFocL0forXoLyu73w1B-KuoJOA8wivWgzyPj0O3kw8pZbdrz6dKQdNwzBGdMA8LVo0R30QjNclDO4tzSXXTTOzFUlqJMXzePIhDRiT-F9kSOPdnGcg2pDLlQrtos84SpONoOvOQUYyG1TVq7JS9laI3JSAZMEAkBcQJMa4hhBUzS5G8oJUnWNtrpmcIJWdotn_9xgub-CWjm-sdpq0tjJRixx_g_txK6LwTlNnzTd3WXMcHJvqH5QB1eMv2sNubRwlf38UzxaeY51KePU388_YIVklm65BCSf4Ry3cEY6MCl6x5bbSbzSGO_CXayl5R81AKrp_mXYA-gDjsK-0lCAyJLMjMldMbLO19QXQR9W2XQ_fFVr9Sd9MPNwXxjVlLTg3RkcFmJGJELqhubiLl8Fac12VQ0B4Yi54r04gQ1xwheyfTwK2dRRj4RJ7shC6ApUbKZCsAq5SumVyWvBR3ZnEovXk4IeF_1MEL3y5ON3y33FXAmvJaEbl039rbABZ4jbSQqKhgUKeRX4nCfcPj_tQhOMnJebO8QFCHLYh83ZLtnsWJ9eMXYLbEpt8UCkeQbb4yEmPBQsvtRYqdf_5uGZNHXiRh9ZGQbeFTsgpQmsHlSotdAhWO1kmKq9ITK1GerRamD6WRZMroro41FRptxYcsi5ENvcGyfK50OQBWRQC1lhE08YMaCRF9lgTTLcR9DNcJ10eLJHuMnvXILD9HoL5m6hntryMsnGOMb-T9dDWRXut4DyyXSWU6_NTgCANpGratS6DNzxUwKQiVxHtyihNRUj9--7kpTXxjB4yZlvpaGVKAwqjVl-uzUzBhVjzNG4qQLWT7sU_LERdCP_VPtcxlEpxiS8Ag7zTcr8rbK1R_Bm00?></g></svg>