<svg xmlns="http://www.w3.org/2000/svg" xmlns:xlink="http://www.w3.org/1999/xlink" contentStyleType="text/css" data-diagram-type="ACTIVITY" height="1355px" preserveAspectRatio="none" style="width:2291px;height:1355px;background:#FBF8EF;" version="1.1" viewBox="0 0 2291 1355" width="2291px" zoomAndPan="magnify"><?plantuml $version$?><defs/><g><rect fill="#FBF8EF" height="1355" style="stroke:none;stroke-width:1;" width="2291" x="0" y="0"/><g class="title" data-source-line="6"><text fill="#000000" font-family="'Inter, Helvetica, sans-serif'" font-size="14" font-weight="700" lengthAdjust="spacing" textLength="556.2584" x="866.5254" y="34.9659">Open a directory &#8594; in-pane browser (piggybacks the vv:open / vv:content spine)</text></g><rect fill="none" height="24.5158" style="stroke:none;stroke-width:1;" width="2244.3093" x="20" y="58.8419"/><rect fill="#2D9574" height="1122.3981" style="stroke:#2D9574;stroke-width:1;" width="239.8095" x="20" y="58.8419"/><ellipse cx="140.9047" cy="98.3577" fill="#222222" rx="10" ry="10" style="stroke:#222222;stroke-width:1;"/><rect fill="#F1F1F1" height="52.6882" rx="4" ry="4" style="stroke:#181818;stroke-width:0.5;" width="222.9334" x="29.438" y="128.3577"/><text fill="#000000" font-family="'Inter, Helvetica, sans-serif'" font-size="12" lengthAdjust="spacing" textLength="192.732" x="39.438" y="151.1858">folder click / URI bar / Alt+Down &#8594;</text><text fill="#000000" font-family="'Inter, Helvetica, sans-serif'" font-size="12" lengthAdjust="spacing" textLength="202.9334" x="39.438" y="167.5299">[:doc/open dir] or [:tab/navigate dir]</text><rect fill="#F1F1F1" height="36.3441" rx="4" ry="4" style="stroke:#181818;stroke-width:0.5;" width="229.8095" x="26" y="201.046"/><text fill="#000000" font-family="'Inter, Helvetica, sans-serif'" font-size="12" lengthAdjust="spacing" textLength="209.8095" x="36" y="223.874">nav/nav-active pushes a history entry</text><rect fill="#F1F1F1" height="36.3441" rx="4" ry="4" style="stroke:#181818;stroke-width:0.5;" width="108.7406" x="86.5344" y="257.3901"/><text fill="#000000" font-family="'Inter, Helvetica, sans-serif'" font-size="12" lengthAdjust="spacing" textLength="88.7406" x="96.5344" y="280.2182">fx [:vv/open dir]</text><line style="stroke:#000000;stroke-width:1.5;" x1="20" x2="20" y1="58.8419" y2="1181.24"/><rect fill="#B1951D" height="1122.3981" style="stroke:#B1951D;stroke-width:1;" width="212.5319" x="259.8095" y="58.8419"/><rect fill="#F1F1F1" height="36.3441" rx="4" ry="4" style="stroke:#181818;stroke-width:0.5;" width="194.6238" x="269.7635" y="313.7342"/><text fill="#000000" font-family="'Inter, Helvetica, sans-serif'" font-size="12" lengthAdjust="spacing" textLength="174.6238" x="279.7635" y="336.5623">window.vv.open(dir) &#8594; vv:open</text><rect fill="#F1F1F1" height="36.3441" rx="4" ry="4" style="stroke:#181818;stroke-width:0.5;" width="202.5319" x="265.8095" y="675.7989"/><text fill="#000000" font-family="'Inter, Helvetica, sans-serif'" font-size="12" lengthAdjust="spacing" textLength="182.5319" x="275.8095" y="698.627">onContent &#8594; [:content/received]</text><line style="stroke:#000000;stroke-width:1.5;" x1="259.8095" x2="259.8095" y1="58.8419" y2="1181.24"/><rect fill="#3A5BA0" height="1122.3981" style="stroke:#3A5BA0;stroke-width:1;" width="773.1455" x="472.3414" y="58.8419"/><rect fill="#F1F1F1" height="36.3441" rx="4" ry="4" style="stroke:#181818;stroke-width:0.5;" width="165.021" x="805.8245" y="370.0783"/><text fill="#000000" font-family="'Inter, Helvetica, sans-serif'" font-size="12" lengthAdjust="spacing" textLength="145.021" x="815.8245" y="392.9064">vinary.main.service/open!</text><polygon fill="#F1F1F1" points="849.4612,426.4224,927.2087,426.4224,939.2087,438.4224,927.2087,450.4224,849.4612,450.4224,837.4612,438.4224,849.4612,426.4224" style="stroke:#181818;stroke-width:0.5;stroke-linejoin:miter;stroke-miterlimit:10;"/><text fill="#000000" font-family="'Inter, Helvetica, sans-serif'" font-size="11" lengthAdjust="spacing" textLength="77.7475" x="849.4612" y="442.6904">directory? path</text><text fill="#000000" font-family="'Inter, Helvetica, sans-serif'" font-size="11" lengthAdjust="spacing" textLength="17.0829" x="820.3784" y="435.1994">yes</text><text fill="#000000" font-family="'Inter, Helvetica, sans-serif'" font-size="11" lengthAdjust="spacing" textLength="15.6639" x="939.2087" y="435.1994">file</text><rect fill="#F1F1F1" height="36.3441" rx="4" ry="4" style="stroke:#181818;stroke-width:0.5;" width="316.0167" x="480.6095" y="460.4224"/><text fill="#000000" font-family="'Inter, Helvetica, sans-serif'" font-size="12" lengthAdjust="spacing" textLength="296.0167" x="490.6095" y="483.2505">list-dir &#8594; [{:name :path :dir? :size :mtime :symlink} &#8230;]</text><rect fill="#F1F1F1" height="36.3441" rx="4" ry="4" style="stroke:#181818;stroke-width:0.5;" width="275.7098" x="500.7629" y="516.7665"/><text fill="#000000" font-family="'Inter, Helvetica, sans-serif'" font-size="12" lengthAdjust="spacing" textLength="27.3122" x="510.7629" y="539.5946">send</text><text fill="#000000" font-family="'Inter, Helvetica, sans-serif'" font-size="12" font-weight="700" lengthAdjust="spacing" textLength="63.9484" x="541.1951" y="539.5946">vv:content</text><text fill="#000000" font-family="'Inter, Helvetica, sans-serif'" font-size="12" lengthAdjust="spacing" textLength="158.2092" x="608.2636" y="539.5946">{:kind "directory" :entries &#8230;}</text><path d="M818.8942,576.7487 L818.8942,595.4548 L798.8942,599.4548 L818.8942,603.4548 L818.8942,622.1608 A0,0 0 0 0 818.8942,622.1608 L1004.6174,622.1608 A0,0 0 0 0 1004.6174,622.1608 L1004.6174,586.7487 L994.6174,576.7487 L818.8942,576.7487 A0,0 0 0 0 818.8942,576.7487" fill="#FFF6D6" style="stroke:#7F6B14;stroke-width:0.5;"/><path d="M994.6174,576.7487 L994.6174,586.7487 L1004.6174,586.7487 L994.6174,576.7487" fill="#FFF6D6" style="stroke:#7F6B14;stroke-width:0.5;"/><text fill="#000000" font-family="'Inter, Helvetica, sans-serif'" font-size="13" lengthAdjust="spacing" textLength="146.1591" x="824.8942" y="595.6458">bounded depth-0 watch</text><text fill="#000000" font-family="'Inter, Helvetica, sans-serif'" font-size="13" lengthAdjust="spacing" textLength="164.7232" x="824.8942" y="613.3518">(an ADR-0006 amendment)</text><rect fill="#F1F1F1" height="52.6882" rx="4" ry="4" style="stroke:#181818;stroke-width:0.5;" width="320.5529" x="478.3414" y="573.1106"/><text fill="#000000" font-family="'Inter, Helvetica, sans-serif'" font-size="12" lengthAdjust="spacing" textLength="168.8532" x="488.3414" y="595.9387">watch path {ignoreInitial true,</text><text fill="#000000" font-family="'Inter, Helvetica, sans-serif'" font-size="12" font-weight="700" lengthAdjust="spacing" textLength="45.3243" x="660.3146" y="595.9387">depth 0</text><text fill="#000000" font-family="'Inter, Helvetica, sans-serif'" font-size="12" lengthAdjust="spacing" textLength="4.56" x="705.6389" y="595.9387">}</text><text fill="#000000" font-family="'Inter, Helvetica, sans-serif'" font-size="12" lengthAdjust="spacing" textLength="300.5529" x="488.3414" y="612.2828">add / unlink / addDir / unlinkDir &#8594; re-list (live-refresh)</text><rect fill="#F1F1F1" height="36.3441" rx="4" ry="4" style="stroke:#181818;stroke-width:0.5;" width="226.8694" x="1014.6174" y="460.4224"/><text fill="#000000" font-family="'Inter, Helvetica, sans-serif'" font-size="12" lengthAdjust="spacing" textLength="206.8694" x="1024.6174" y="483.2505">read + send file content (unchanged)</text><polygon fill="#F1F1F1" points="888.335,631.7989,900.335,643.7989,888.335,655.7989,876.335,643.7989,888.335,631.7989" style="stroke:#181818;stroke-width:0.5;stroke-linejoin:miter;stroke-miterlimit:10;"/><line style="stroke:#000000;stroke-width:1.5;" x1="472.3414" x2="472.3414" y1="58.8419" y2="1181.24"/><rect fill="#2D9574" height="1122.3981" style="stroke:#2D9574;stroke-width:1;" width="328.1768" x="1245.4868" y="58.8419"/><rect fill="#F1F1F1" height="36.3441" rx="4" ry="4" style="stroke:#181818;stroke-width:0.5;" width="293.482" x="1263.8342" y="732.143"/><text fill="#000000" font-family="'Inter, Helvetica, sans-serif'" font-size="12" lengthAdjust="spacing" textLength="273.482" x="1273.8342" y="754.9711">event (PURE): attrs gain :doc/entries (vec entries)</text><rect fill="#F1F1F1" height="52.6882" rx="4" ry="4" style="stroke:#181818;stroke-width:0.5;" width="265.2324" x="1277.959" y="788.4871"/><text fill="#000000" font-family="'Inter, Helvetica, sans-serif'" font-size="12" lengthAdjust="spacing" textLength="157.1998" x="1287.959" y="811.3152">record-recent &#8594; [:ui :recent]</text><text fill="#000000" font-family="'Inter, Helvetica, sans-serif'" font-size="12" lengthAdjust="spacing" textLength="245.2324" x="1287.959" y="827.6593">trail (dir&#8594;child) + (file only) recent-files MRU</text><rect fill="#F1F1F1" height="36.3441" rx="4" ry="4" style="stroke:#181818;stroke-width:0.5;" width="318.1768" x="1251.4868" y="861.1753"/><text fill="#000000" font-family="'Inter, Helvetica, sans-serif'" font-size="12" lengthAdjust="spacing" textLength="298.1768" x="1261.4868" y="884.0034">fx [:vv/save-recent] (debounced 300ms &#8594; recent.edn)</text><line style="stroke:#000000;stroke-width:1.5;" x1="1245.4868" x2="1245.4868" y1="58.8419" y2="1181.24"/><rect fill="#A45BAD" height="1122.3981" style="stroke:#A45BAD;stroke-width:1;" width="377.0397" x="1573.6636" y="58.8419"/><rect fill="#F1F1F1" height="36.3441" rx="4" ry="4" style="stroke:#181818;stroke-width:0.5;" width="347.6384" x="1589.3643" y="917.5194"/><text fill="#000000" font-family="'Inter, Helvetica, sans-serif'" font-size="12" font-weight="700" lengthAdjust="spacing" textLength="72.1325" x="1599.3643" y="940.3475">:ds/transact</text><text fill="#000000" font-family="'Inter, Helvetica, sans-serif'" font-size="12" lengthAdjust="spacing" textLength="252.3858" x="1674.6168" y="940.3475">{:doc/path :doc/kind "directory" :doc/entries}</text><rect fill="#F1F1F1" height="36.3441" rx="4" ry="4" style="stroke:#181818;stroke-width:0.5;" width="367.0397" x="1579.6636" y="973.8636"/><text fill="#000000" font-family="'Inter, Helvetica, sans-serif'" font-size="12" lengthAdjust="spacing" textLength="347.0397" x="1589.6636" y="996.6916">bridge &#8594; [:ds/changed] &#8594; :ds/rev inc (:doc/active recomputes)</text><line style="stroke:#000000;stroke-width:1.5;" x1="1573.6636" x2="1573.6636" y1="58.8419" y2="1181.24"/><rect fill="#7590DB" height="1122.3981" style="stroke:#7590DB;stroke-width:1;" width="312.266" x="1950.7033" y="58.8419"/><rect fill="#F1F1F1" height="36.3441" rx="4" ry="4" style="stroke:#181818;stroke-width:0.5;" width="302.266" x="1956.7033" y="1030.2077"/><text fill="#000000" font-family="'Inter, Helvetica, sans-serif'" font-size="12" lengthAdjust="spacing" textLength="282.266" x="1966.7033" y="1053.0358">content-view branch (= "directory" (:doc/kind doc))</text><rect fill="#F1F1F1" height="52.6882" rx="4" ry="4" style="stroke:#181818;stroke-width:0.5;" width="285.8259" x="1964.9233" y="1086.5518"/><text fill="#000000" font-family="'Inter, Helvetica, sans-serif'" font-size="12" font-weight="700" lengthAdjust="spacing" textLength="48.2524" x="1974.9233" y="1109.3799">dir-view</text><text fill="#000000" font-family="'Inter, Helvetica, sans-serif'" font-size="12" lengthAdjust="spacing" textLength="158.1971" x="2026.2957" y="1109.3799">(pure Reagent): detailed list,</text><text fill="#000000" font-family="'Inter, Helvetica, sans-serif'" font-size="12" lengthAdjust="spacing" textLength="265.8259" x="1974.9233" y="1125.724">sort dirs-first; highlight = nav/effective-selected</text><ellipse cx="2107.8363" cy="1170.24" fill="none" rx="11" ry="11" style="stroke:#222222;stroke-width:1;"/><ellipse cx="2107.8363" cy="1170.24" fill="#222222" rx="6" ry="6" style="stroke:#222222;stroke-width:1;"/><line style="stroke:#000000;stroke-width:1.5;" x1="1950.7033" x2="1950.7033" y1="58.8419" y2="1181.24"/><line style="stroke:#000000;stroke-width:1.5;" x1="2262.9693" x2="2262.9693" y1="58.8419" y2="1181.24"/><line style="stroke:#555555;stroke-width:1.3;" x1="140.9047" x2="140.9047" y1="108.3577" y2="128.3577"/><polygon fill="#555555" points="136.9047,118.3577,140.9047,128.3577,144.9047,118.3577,140.9047,122.3577" style="stroke:#555555;stroke-width:1;stroke-linejoin:miter;stroke-miterlimit:10;"/><line style="stroke:#555555;stroke-width:1.3;" x1="140.9047" x2="140.9047" y1="181.046" y2="201.046"/><polygon fill="#555555" points="136.9047,191.046,140.9047,201.046,144.9047,191.046,140.9047,195.046" style="stroke:#555555;stroke-width:1;stroke-linejoin:miter;stroke-miterlimit:10;"/><line style="stroke:#555555;stroke-width:1.3;" x1="140.9047" x2="140.9047" y1="237.3901" y2="257.3901"/><polygon fill="#555555" points="136.9047,247.3901,140.9047,257.3901,144.9047,247.3901,140.9047,251.3901" style="stroke:#555555;stroke-width:1;stroke-linejoin:miter;stroke-miterlimit:10;"/><line style="stroke:#555555;stroke-width:1.3;" x1="638.6178" x2="638.6178" y1="496.7665" y2="516.7665"/><polygon fill="#555555" points="634.6178,506.7665,638.6178,516.7665,642.6178,506.7665,638.6178,510.7665" style="stroke:#555555;stroke-width:1;stroke-linejoin:miter;stroke-miterlimit:10;"/><line style="stroke:#555555;stroke-width:1.3;" x1="638.6178" x2="638.6178" y1="553.1106" y2="573.1106"/><polygon fill="#555555" points="634.6178,563.1106,638.6178,573.1106,642.6178,563.1106,638.6178,567.1106" style="stroke:#555555;stroke-width:1;stroke-linejoin:miter;stroke-miterlimit:10;"/><line style="stroke:#555555;stroke-width:1.3;" x1="837.4612" x2="638.6178" y1="438.4224" y2="438.4224"/><line style="stroke:#555555;stroke-width:1.3;" x1="638.6178" x2="638.6178" y1="438.4224" y2="460.4224"/><polygon fill="#555555" points="634.6178,450.4224,638.6178,460.4224,642.6178,450.4224,638.6178,454.4224" style="stroke:#555555;stroke-width:1;stroke-linejoin:miter;stroke-miterlimit:10;"/><line style="stroke:#555555;stroke-width:1.3;" x1="939.2087" x2="1128.0521" y1="438.4224" y2="438.4224"/><line style="stroke:#555555;stroke-width:1.3;" x1="1128.0521" x2="1128.0521" y1="438.4224" y2="460.4224"/><polygon fill="#555555" points="1124.0521,450.4224,1128.0521,460.4224,1132.0521,450.4224,1128.0521,454.4224" style="stroke:#555555;stroke-width:1;stroke-linejoin:miter;stroke-miterlimit:10;"/><line style="stroke:#555555;stroke-width:1.3;" x1="638.6178" x2="638.6178" y1="625.7989" y2="643.7989"/><line style="stroke:#555555;stroke-width:1.3;" x1="638.6178" x2="876.335" y1="643.7989" y2="643.7989"/><polygon fill="#555555" points="866.335,639.7989,876.335,643.7989,866.335,647.7989,870.335,643.7989" style="stroke:#555555;stroke-width:1;stroke-linejoin:miter;stroke-miterlimit:10;"/><line style="stroke:#555555;stroke-width:1.3;" x1="1128.0521" x2="1128.0521" y1="496.7665" y2="643.7989"/><line style="stroke:#555555;stroke-width:1.3;" x1="1128.0521" x2="900.335" y1="643.7989" y2="643.7989"/><polygon fill="#555555" points="910.335,639.7989,900.335,643.7989,910.335,647.7989,906.335,643.7989" style="stroke:#555555;stroke-width:1;stroke-linejoin:miter;stroke-miterlimit:10;"/><line style="stroke:#555555;stroke-width:1.3;" x1="888.335" x2="888.335" y1="406.4224" y2="426.4224"/><polygon fill="#555555" points="884.335,416.4224,888.335,426.4224,892.335,416.4224,888.335,420.4224" style="stroke:#555555;stroke-width:1;stroke-linejoin:miter;stroke-miterlimit:10;"/><line style="stroke:#555555;stroke-width:1.3;" x1="1410.5752" x2="1410.5752" y1="768.4871" y2="788.4871"/><polygon fill="#555555" points="1406.5752,778.4871,1410.5752,788.4871,1414.5752,778.4871,1410.5752,782.4871" style="stroke:#555555;stroke-width:1;stroke-linejoin:miter;stroke-miterlimit:10;"/><line style="stroke:#555555;stroke-width:1.3;" x1="1410.5752" x2="1410.5752" y1="841.1753" y2="861.1753"/><polygon fill="#555555" points="1406.5752,851.1753,1410.5752,861.1753,1414.5752,851.1753,1410.5752,855.1753" style="stroke:#555555;stroke-width:1;stroke-linejoin:miter;stroke-miterlimit:10;"/><line style="stroke:#555555;stroke-width:1.3;" x1="1763.1834" x2="1763.1834" y1="953.8636" y2="973.8636"/><polygon fill="#555555" points="1759.1834,963.8636,1763.1834,973.8636,1767.1834,963.8636,1763.1834,967.8636" style="stroke:#555555;stroke-width:1;stroke-linejoin:miter;stroke-miterlimit:10;"/><line style="stroke:#555555;stroke-width:1.3;" x1="2107.8363" x2="2107.8363" y1="1066.5518" y2="1086.5518"/><polygon fill="#555555" points="2103.8363,1076.5518,2107.8363,1086.5518,2111.8363,1076.5518,2107.8363,1080.5518" style="stroke:#555555;stroke-width:1;stroke-linejoin:miter;stroke-miterlimit:10;"/><line style="stroke:#555555;stroke-width:1.3;" x1="2107.8363" x2="2107.8363" y1="1139.24" y2="1159.24"/><polygon fill="#555555" points="2103.8363,1149.24,2107.8363,1159.24,2111.8363,1149.24,2107.8363,1153.24" style="stroke:#555555;stroke-width:1;stroke-linejoin:miter;stroke-miterlimit:10;"/><line style="stroke:#555555;stroke-width:1.3;" x1="140.9047" x2="140.9047" y1="293.7342" y2="298.7342"/><line style="stroke:#555555;stroke-width:1.3;" x1="140.9047" x2="367.0754" y1="298.7342" y2="298.7342"/><line style="stroke:#555555;stroke-width:1.3;" x1="367.0754" x2="367.0754" y1="298.7342" y2="313.7342"/><polygon fill="#555555" points="363.0754,303.7342,367.0754,313.7342,371.0754,303.7342,367.0754,307.7342" style="stroke:#555555;stroke-width:1;stroke-linejoin:miter;stroke-miterlimit:10;"/><line style="stroke:#555555;stroke-width:1.3;" x1="367.0754" x2="367.0754" y1="350.0783" y2="355.0783"/><line style="stroke:#555555;stroke-width:1.3;" x1="367.0754" x2="888.335" y1="355.0783" y2="355.0783"/><line style="stroke:#555555;stroke-width:1.3;" x1="888.335" x2="888.335" y1="355.0783" y2="370.0783"/><polygon fill="#555555" points="884.335,360.0783,888.335,370.0783,892.335,360.0783,888.335,364.0783" style="stroke:#555555;stroke-width:1;stroke-linejoin:miter;stroke-miterlimit:10;"/><line style="stroke:#555555;stroke-width:1.3;" x1="888.335" x2="888.335" y1="655.7989" y2="660.7989"/><line style="stroke:#555555;stroke-width:1.3;" x1="888.335" x2="367.0754" y1="660.7989" y2="660.7989"/><line style="stroke:#555555;stroke-width:1.3;" x1="367.0754" x2="367.0754" y1="660.7989" y2="675.7989"/><polygon fill="#555555" points="363.0754,665.7989,367.0754,675.7989,371.0754,665.7989,367.0754,669.7989" style="stroke:#555555;stroke-width:1;stroke-linejoin:miter;stroke-miterlimit:10;"/><line style="stroke:#555555;stroke-width:1.3;" x1="367.0754" x2="367.0754" y1="712.143" y2="717.143"/><line style="stroke:#555555;stroke-width:1.3;" x1="367.0754" x2="1410.5752" y1="717.143" y2="717.143"/><line style="stroke:#555555;stroke-width:1.3;" x1="1410.5752" x2="1410.5752" y1="717.143" y2="732.143"/><polygon fill="#555555" points="1406.5752,722.143,1410.5752,732.143,1414.5752,722.143,1410.5752,726.143" style="stroke:#555555;stroke-width:1;stroke-linejoin:miter;stroke-miterlimit:10;"/><line style="stroke:#555555;stroke-width:1.3;" x1="1410.5752" x2="1410.5752" y1="897.5194" y2="902.5194"/><line style="stroke:#555555;stroke-width:1.3;" x1="1410.5752" x2="1763.1834" y1="902.5194" y2="902.5194"/><line style="stroke:#555555;stroke-width:1.3;" x1="1763.1834" x2="1763.1834" y1="902.5194" y2="917.5194"/><polygon fill="#555555" points="1759.1834,907.5194,1763.1834,917.5194,1767.1834,907.5194,1763.1834,911.5194" style="stroke:#555555;stroke-width:1;stroke-linejoin:miter;stroke-miterlimit:10;"/><line style="stroke:#555555;stroke-width:1.3;" x1="1763.1834" x2="1763.1834" y1="1010.2077" y2="1015.2077"/><line style="stroke:#555555;stroke-width:1.3;" x1="1763.1834" x2="2107.8363" y1="1015.2077" y2="1015.2077"/><line style="stroke:#555555;stroke-width:1.3;" x1="2107.8363" x2="2107.8363" y1="1015.2077" y2="1030.2077"/><polygon fill="#555555" points="2103.8363,1020.2077,2107.8363,1030.2077,2111.8363,1020.2077,2107.8363,1024.2077" style="stroke:#555555;stroke-width:1;stroke-linejoin:miter;stroke-miterlimit:10;"/><text fill="#000000" font-family="'Inter, Helvetica, sans-serif'" font-size="18" lengthAdjust="spacing" textLength="78.7135" x="100.548" y="78.0838">Renderer</text><text fill="#000000" font-family="'Inter, Helvetica, sans-serif'" font-size="18" lengthAdjust="spacing" textLength="78.7495" x="326.7007" y="78.0838">IPC seam</text><text fill="#000000" font-family="'Inter, Helvetica, sans-serif'" font-size="18" lengthAdjust="spacing" textLength="103.4633" x="807.1824" y="78.0838">Main (Node)</text><text fill="#000000" font-family="'Inter, Helvetica, sans-serif'" font-size="18" lengthAdjust="spacing" textLength="168.2809" x="1325.4348" y="78.0838">Renderer (re-frame)</text><text fill="#000000" font-family="'Inter, Helvetica, sans-serif'" font-size="18" lengthAdjust="spacing" textLength="53.4777" x="1735.4446" y="78.0838">Stores</text><text fill="#000000" font-family="'Inter, Helvetica, sans-serif'" font-size="18" lengthAdjust="spacing" textLength="119.7533" x="2046.9596" y="78.0838">DOM / app-db</text><g class="legend" data-source-line="45"><rect fill="none" height="128.4075" rx="4" ry="4" style="stroke:#000000;stroke-width:1;" width="276.517" x="1990.7923" y="1203.24"/><text fill="#000000" font-family="'Inter, Helvetica, sans-serif'" font-size="14" font-weight="700" lengthAdjust="spacing" textLength="46.0178" x="1999.4323" y="1225.206">Colour</text><text fill="#000000" font-family="'Inter, Helvetica, sans-serif'" font-size="14" font-weight="700" lengthAdjust="spacing" textLength="67.5497" x="2052.7301" y="1225.206">Swimlane</text><rect fill="#2D9574" height="19.0679" style="stroke:none;stroke-width:1;" width="53.2978" x="1995.7923" y="1229.3079"/><text fill="#000000" font-family="'Inter, Helvetica, sans-serif'" font-size="14" lengthAdjust="spacing" textLength="3.64" x="1995.7923" y="1244.2739">&#160;</text><text fill="#000000" font-family="'Inter, Helvetica, sans-serif'" font-size="14" lengthAdjust="spacing" textLength="205.3512" x="2052.7301" y="1244.2739">Renderer (re-frame events + fx)</text><rect fill="#B1951D" height="19.0679" style="stroke:none;stroke-width:1;" width="53.2978" x="1995.7923" y="1248.3758"/><text fill="#000000" font-family="'Inter, Helvetica, sans-serif'" font-size="14" lengthAdjust="spacing" textLength="3.64" x="1995.7923" y="1263.3418">&#160;</text><text fill="#000000" font-family="'Inter, Helvetica, sans-serif'" font-size="14" lengthAdjust="spacing" textLength="205.9392" x="2052.7301" y="1263.3418">IPC seam (preload / window.vv)</text><rect fill="#3A5BA0" height="19.0679" style="stroke:none;stroke-width:1;" width="53.2978" x="1995.7923" y="1267.4438"/><text fill="#000000" font-family="'Inter, Helvetica, sans-serif'" font-size="14" lengthAdjust="spacing" textLength="3.64" x="1995.7923" y="1282.4097">&#160;</text><text fill="#000000" font-family="'Inter, Helvetica, sans-serif'" font-size="14" lengthAdjust="spacing" textLength="154.3214" x="2052.7301" y="1282.4097">Main process (Node IO)</text><rect fill="#A45BAD" height="19.0679" style="stroke:none;stroke-width:1;" width="53.2978" x="1995.7923" y="1286.5117"/><text fill="#000000" font-family="'Inter, Helvetica, sans-serif'" font-size="14" lengthAdjust="spacing" textLength="3.64" x="1995.7923" y="1301.4776">&#160;</text><text fill="#000000" font-family="'Inter, Helvetica, sans-serif'" font-size="14" lengthAdjust="spacing" textLength="122.0796" x="2052.7301" y="1301.4776">Stores (DataScript)</text><rect fill="#7590DB" height="19.0679" style="stroke:none;stroke-width:1;" width="53.2978" x="1995.7923" y="1305.5796"/><text fill="#000000" font-family="'Inter, Helvetica, sans-serif'" font-size="14" lengthAdjust="spacing" textLength="3.64" x="1995.7923" y="1320.5455">&#160;</text><text fill="#000000" font-family="'Inter, Helvetica, sans-serif'" font-size="14" lengthAdjust="spacing" textLength="157.3174" x="2052.7301" y="1320.5455">DOM / app-db (dir-view)</text><line style="stroke:#000000;stroke-width:1;" x1="1995.7923" x2="2262.3093" y1="1210.24" y2="1210.24"/><line style="stroke:#000000;stroke-width:1;" x1="1995.7923" x2="2262.3093" y1="1229.3079" y2="1229.3079"/><line style="stroke:#000000;stroke-width:1;" x1="1995.7923" x2="2262.3093" y1="1248.3758" y2="1248.3758"/><line style="stroke:#000000;stroke-width:1;" x1="1995.7923" x2="2262.3093" y1="1267.4438" y2="1267.4438"/><line style="stroke:#000000;stroke-width:1;" x1="1995.7923" x2="2262.3093" y1="1286.5117" y2="1286.5117"/><line style="stroke:#000000;stroke-width:1;" x1="1995.7923" x2="2262.3093" y1="1305.5796" y2="1305.5796"/><line style="stroke:#000000;stroke-width:1;" x1="1995.7923" x2="2262.3093" y1="1324.6475" y2="1324.6475"/><line style="stroke:#000000;stroke-width:1;" x1="1995.7923" x2="1995.7923" y1="1210.24" y2="1324.6475"/><line style="stroke:#000000;stroke-width:1;" x1="2049.0901" x2="2049.0901" y1="1210.24" y2="1324.6475"/><line style="stroke:#000000;stroke-width:1;" x1="2262.3093" x2="2262.3093" y1="1210.24" y2="1324.6475"/></g><?plantuml-src RLNTRjis5BxNKvnc5v7Sod7NPaNaPKKI5sY0PGaS1Bj8We4MZsKYCYcGj5ml3h2hFS2mPzY3zKdsaLQSTDc50Uhm_7tV-NYykqiNjT3-wkndCYrREcCx5qeMv9PgZXjsv6PcIRz-FZtvJBLOmSSijICMvOoSvuRCb4p3MkcA14bbkVJ6heRaPvpixZvPFjB42eqeeMMuf1qdvanjMvH6UzQUNACqqzS__YPjIFEIJYzETd3sJCBYLthLAh_AfHAL5NEQil0BYnP5A3IjpRAS2Ukf51f15DhlqucfpSAwc25KTN1XIGtR77LBRZmrecQF8kblRPl3PyvzjPZNMJzvfNHPBoJJjpT9ufMlcSw1-pbe-lhdNwHqtg0oq9gb0rrfewfgDH7bdOiD073WY_PUGC-IPFtTzwE3_G_lrsFMaYtRTU8yC2N5rDGmK5chyWwnL-DJcWYBqr7jNuymar3yHbyNqfHxiG3QkYLZwRhmOhAdHQig0PJ1F4mAV0TR7bbbQXPk5fYacN8H2hh2557t2nAqxLFAOUZo-Et1_jlH6WCYnsA-Jegbqj8i-stR3vufFBD8HmStHhqxsZy-6gpFXDAK_c8aPmXibHPsrOViT1zyjQhaMEpLC55JIf_ffn5-bWKE4RrYboL4HOrs8GWRQrtV0nOqLGHFAc3-I8LJlyCozofSkDMyLlhk0Ihx1qYGm85ewlMUPj7hqNrn1pIqiwszGqNWGu4X13x4mANm47EiTAygRIoVQkMLgCdR1Rz1JWbnpMZGwptSQ24bPhNGeJeE-1mfkxMCEW2Mym28qXepoIrFeUvP5ih5Ls1LDVC5JSm2uf0Ky-S3YftSw5HeEXgDyy5Wy0E11Ytnyrd2jOEsfwhco9Xb8UarHTp1I8yQJ1TudK9NB54Hjshw_vCs-gIBY9m_yhO7hXXjour2_gDZIe5jYbSRPyvjB7XnDVwK5IIynmEjWYgYUX-fJbikgVj0I-YyD5RceSws-485HC5mUmDFeUee6LoMCrNB34WZT3AwNcMqSSs3nT7P-EgPm9s8bCTKoC61vH8ilniCvgwRJhZiizHPX7Zq7d8UhI-X47P0rUiLqksX2UtmggAE0fnEZ3YzLDKpk51LCR5ALjn1Gwvk7hVH4WoMMooOaj8OsRtTmCkyMVZ84lhwi7ym61slH-TdGMbDayi9kkl6bBSAcxLRnUdXD-saJrtYa0NEeM9bOmpmf0tMBOrPL45O1GJeGJWu2g9zSwETmVQ5lmF1rlaXbaarguDewP32mk7fb6FFkUCQ9vP3x3VJ94dDLH1aL3XKkZxi5dSuNNR_HRGEDpzsqlffJI_5HL5P3bEVViaU_JSIXl-ZY074Scr4U9BRlRLrtsmfkCSzrLXJidERVKMdvrktpVJXjfa_fIFXnMLfLUEtFfj9mEVvBA908wN13n0ssFy5?></g></svg>