<svg xmlns="http://www.w3.org/2000/svg" xmlns:xlink="http://www.w3.org/1999/xlink" contentStyleType="text/css" data-diagram-type="ACTIVITY" height="1406px" preserveAspectRatio="none" style="width:632px;height:1406px;background:#FBF8EF;" version="1.1" viewBox="0 0 632 1406" width="632px" zoomAndPan="magnify"><?plantuml $version$?><defs/><g><rect fill="#FBF8EF" height="1406" style="stroke:none;stroke-width:1;" width="632" x="0" y="0"/><g class="title" data-source-line="6"><text fill="#000000" font-family="'Inter, Helvetica, sans-serif'" font-size="14" font-weight="700" lengthAdjust="spacing" textLength="374.7505" x="127.8103" y="34.9659">SSH authentication + host-key verification (main-side)</text></g><ellipse cx="320.2936" cy="65.0679" fill="#222222" rx="10" ry="10" style="stroke:#222222;stroke-width:1;"/><rect fill="#E4E8F1" height="36.3441" rx="4" ry="4" style="stroke:#181818;stroke-width:0.5;" width="231.8615" x="204.3628" y="95.0679"/><text fill="#000000" font-family="'Inter, Helvetica, sans-serif'" font-size="12" lengthAdjust="spacing" textLength="211.8615" x="214.3628" y="117.896">TCP connect; read the server host key</text><polygon fill="#F1F1F1" points="254.8001,151.412,385.7871,151.412,397.7871,163.412,385.7871,175.412,254.8001,175.412,242.8001,163.412,254.8001,151.412" style="stroke:#181818;stroke-width:0.5;stroke-linejoin:miter;stroke-miterlimit:10;"/><text fill="#000000" font-family="'Inter, Helvetica, sans-serif'" font-size="11" lengthAdjust="spacing" textLength="130.9871" x="254.8001" y="167.68">host key in known_hosts?</text><text fill="#000000" font-family="'Inter, Helvetica, sans-serif'" font-size="11" lengthAdjust="spacing" textLength="39.7537" x="203.0464" y="160.1891">present</text><text fill="#000000" font-family="'Inter, Helvetica, sans-serif'" font-size="11" lengthAdjust="spacing" textLength="73.9194" x="397.7871" y="160.1891">unknown host</text><polygon fill="#F1F1F1" points="91.2378,185.412,160.5373,185.412,172.5373,197.412,160.5373,209.412,91.2378,209.412,79.2378,197.412,91.2378,185.412" style="stroke:#181818;stroke-width:0.5;stroke-linejoin:miter;stroke-miterlimit:10;"/><text fill="#000000" font-family="'Inter, Helvetica, sans-serif'" font-size="11" lengthAdjust="spacing" textLength="69.2995" x="91.2378" y="201.68">key matches?</text><text fill="#000000" font-family="'Inter, Helvetica, sans-serif'" font-size="11" lengthAdjust="spacing" textLength="17.0829" x="62.155" y="194.1891">yes</text><text fill="#000000" font-family="'Inter, Helvetica, sans-serif'" font-size="11" lengthAdjust="spacing" textLength="52.6456" x="172.5373" y="194.1891">CHANGED</text><rect fill="#C9D2E6" height="36.3441" rx="4" ry="4" style="stroke:#181818;stroke-width:0.5;" width="66.2723" x="16" y="219.412"/><text fill="#000000" font-family="'Inter, Helvetica, sans-serif'" font-size="12" lengthAdjust="spacing" textLength="46.2723" x="26" y="242.2401">proceed</text><rect fill="#F0C0BF" height="52.6882" rx="4" ry="4" style="stroke:#181818;stroke-width:0.5;" width="200.7333" x="102.2723" y="219.412"/><text fill="#000000" font-family="'Inter, Helvetica, sans-serif'" font-size="12" font-weight="700" lengthAdjust="spacing" textLength="77.1725" x="112.2723" y="242.2401">HARD REJECT</text><text fill="#000000" font-family="'Inter, Helvetica, sans-serif'" font-size="12" lengthAdjust="spacing" textLength="100.4407" x="192.5649" y="242.2401">&#8212; possible MITM;</text><text fill="#000000" font-family="'Inter, Helvetica, sans-serif'" font-size="12" lengthAdjust="spacing" textLength="127.7889" x="112.2723" y="258.5842">abort, surface an error</text><ellipse cx="202.639" cy="318.1003" fill="none" rx="11" ry="11" style="stroke:#222222;stroke-width:1;"/><ellipse cx="202.639" cy="318.1003" fill="#222222" rx="6" ry="6" style="stroke:#222222;stroke-width:1;"/><rect fill="#EEE6C1" height="52.6882" rx="4" ry="4" style="stroke:#181818;stroke-width:0.5;" width="160.893" x="434.2531" y="185.412"/><text fill="#000000" font-family="'Inter, Helvetica, sans-serif'" font-size="12" lengthAdjust="spacing" textLength="140.893" x="444.2531" y="208.2401">prompt trust-on-first-use</text><text fill="#000000" font-family="'Inter, Helvetica, sans-serif'" font-size="12" lengthAdjust="spacing" textLength="94.6567" x="444.2531" y="224.5842">(`vv:ssh-prompt`)</text><polygon fill="#F1F1F1" points="480.0059,273.1003,549.3934,273.1003,561.3934,285.1003,549.3934,297.1003,480.0059,297.1003,468.0059,285.1003,480.0059,273.1003" style="stroke:#181818;stroke-width:0.5;stroke-linejoin:miter;stroke-miterlimit:10;"/><text fill="#000000" font-family="'Inter, Helvetica, sans-serif'" font-size="11" lengthAdjust="spacing" textLength="69.3875" x="480.0059" y="289.3682">user accepts?</text><text fill="#000000" font-family="'Inter, Helvetica, sans-serif'" font-size="11" lengthAdjust="spacing" textLength="17.0829" x="450.923" y="281.8773">yes</text><text fill="#000000" font-family="'Inter, Helvetica, sans-serif'" font-size="11" lengthAdjust="spacing" textLength="13.4529" x="561.3934" y="281.8773">no</text><rect fill="#C9D2E6" height="36.3441" rx="4" ry="4" style="stroke:#181818;stroke-width:0.5;" width="198.7053" x="343.0056" y="307.1003"/><text fill="#000000" font-family="'Inter, Helvetica, sans-serif'" font-size="12" lengthAdjust="spacing" textLength="178.7053" x="353.0056" y="329.9283">append the key to known_hosts</text><rect fill="#F0C0BF" height="36.3441" rx="4" ry="4" style="stroke:#181818;stroke-width:0.5;" width="50.6602" x="561.7109" y="307.1003"/><text fill="#000000" font-family="'Inter, Helvetica, sans-serif'" font-size="12" lengthAdjust="spacing" textLength="30.6602" x="571.7109" y="329.9283">abort</text><ellipse cx="587.041" cy="374.4444" fill="none" rx="11" ry="11" style="stroke:#222222;stroke-width:1;"/><ellipse cx="587.041" cy="374.4444" fill="#222222" rx="6" ry="6" style="stroke:#222222;stroke-width:1;"/><polygon fill="#F1F1F1" points="320.2936,395.4444,332.2936,407.4444,320.2936,419.4444,308.2936,407.4444,320.2936,395.4444" style="stroke:#181818;stroke-width:0.5;stroke-linejoin:miter;stroke-miterlimit:10;"/><rect fill="#C9D2E6" height="36.3441" rx="4" ry="4" style="stroke:#181818;stroke-width:0.5;" width="152.313" x="244.1371" y="439.4444"/><text fill="#000000" font-family="'Inter, Helvetica, sans-serif'" font-size="12" lengthAdjust="spacing" textLength="15.4081" x="254.1371" y="462.2725">try</text><text fill="#000000" font-family="'Inter, Helvetica, sans-serif'" font-size="12" font-weight="700" lengthAdjust="spacing" textLength="58.6324" x="272.6653" y="462.2725">ssh-agent</text><text fill="#000000" font-family="'Inter, Helvetica, sans-serif'" font-size="12" lengthAdjust="spacing" textLength="52.0324" x="334.4177" y="462.2725">identities</text><rect fill="#C9D2E6" height="36.3441" rx="4" ry="4" style="stroke:#181818;stroke-width:0.5;" width="244.3056" x="198.1408" y="545.2794"/><text fill="#000000" font-family="'Inter, Helvetica, sans-serif'" font-size="12" lengthAdjust="spacing" textLength="15.4081" x="208.1408" y="568.1075">try</text><text fill="#000000" font-family="'Inter, Helvetica, sans-serif'" font-size="12" font-weight="700" lengthAdjust="spacing" textLength="49.5723" x="226.6689" y="568.1075">key files</text><text fill="#000000" font-family="'Inter, Helvetica, sans-serif'" font-size="12" lengthAdjust="spacing" textLength="153.0851" x="279.3613" y="568.1075">from /.ssh/config / defaults</text><rect fill="#EEE6C1" height="52.6882" rx="4" ry="4" style="stroke:#181818;stroke-width:0.5;" width="231.2495" x="204.6689" y="651.1145"/><text fill="#000000" font-family="'Inter, Helvetica, sans-serif'" font-size="12" lengthAdjust="spacing" textLength="211.2495" x="214.6689" y="673.9426">prompt passphrase (`vv:ssh-prompt`);</text><text fill="#000000" font-family="'Inter, Helvetica, sans-serif'" font-size="12" lengthAdjust="spacing" textLength="163.0692" x="214.6689" y="690.2867">on success, AddKeysToAgent</text><polygon fill="#F1F1F1" points="276.0794,601.6235,364.5078,601.6235,376.5078,613.6235,364.5078,625.6235,276.0794,625.6235,264.0794,613.6235,276.0794,601.6235" style="stroke:#181818;stroke-width:0.5;stroke-linejoin:miter;stroke-miterlimit:10;"/><text fill="#000000" font-family="'Inter, Helvetica, sans-serif'" font-size="11" lengthAdjust="spacing" textLength="17.0829" x="324.2936" y="637.3825">yes</text><text fill="#000000" font-family="'Inter, Helvetica, sans-serif'" font-size="11" lengthAdjust="spacing" textLength="88.4284" x="276.0794" y="617.8915">key is encrypted?</text><text fill="#000000" font-family="'Inter, Helvetica, sans-serif'" font-size="11" lengthAdjust="spacing" textLength="13.4529" x="376.5078" y="610.4006">no</text><polygon fill="#F1F1F1" points="320.2936,723.8027,332.2936,735.8027,320.2936,747.8027,308.2936,735.8027,320.2936,723.8027" style="stroke:#181818;stroke-width:0.5;stroke-linejoin:miter;stroke-miterlimit:10;"/><rect fill="#EEE6C1" height="52.6882" rx="4" ry="4" style="stroke:#181818;stroke-width:0.5;" width="233.1216" x="203.7328" y="817.2937"/><text fill="#000000" font-family="'Inter, Helvetica, sans-serif'" font-size="12" lengthAdjust="spacing" textLength="15.4081" x="213.7328" y="840.1218">try</text><text fill="#000000" font-family="'Inter, Helvetica, sans-serif'" font-size="12" font-weight="700" lengthAdjust="spacing" textLength="194.5934" x="232.261" y="840.1218">keyboard-interactive / password</text><text fill="#000000" font-family="'Inter, Helvetica, sans-serif'" font-size="12" lengthAdjust="spacing" textLength="137.077" x="213.7328" y="856.4659">(prompt each challenge)</text><rect fill="#F0C0BF" height="36.3441" rx="4" ry="4" style="stroke:#181818;stroke-width:0.5;" width="151.977" x="244.3051" y="939.4728"/><text fill="#000000" font-family="'Inter, Helvetica, sans-serif'" font-size="12" lengthAdjust="spacing" textLength="131.977" x="254.3051" y="962.3009">fail &#8212; report auth error</text><ellipse cx="320.2936" cy="1014.1449" fill="none" rx="11" ry="11" style="stroke:#222222;stroke-width:1;"/><ellipse cx="320.2936" cy="1014.1449" fill="#222222" rx="6" ry="6" style="stroke:#222222;stroke-width:1;"/><polygon fill="#F1F1F1" points="281.0734,889.9819,359.5138,889.9819,371.5138,901.9819,359.5138,913.9819,281.0734,913.9819,269.0734,901.9819,281.0734,889.9819" style="stroke:#181818;stroke-width:0.5;stroke-linejoin:miter;stroke-miterlimit:10;"/><text fill="#000000" font-family="'Inter, Helvetica, sans-serif'" font-size="11" lengthAdjust="spacing" textLength="102.8053" x="324.2936" y="925.7408">methods exhausted</text><text fill="#000000" font-family="'Inter, Helvetica, sans-serif'" font-size="11" lengthAdjust="spacing" textLength="78.4404" x="281.0734" y="906.2499">auth succeeds?</text><text fill="#000000" font-family="'Inter, Helvetica, sans-serif'" font-size="11" lengthAdjust="spacing" textLength="17.0829" x="371.5138" y="898.7589">yes</text><polygon fill="#F1F1F1" points="270.7995,767.8027,369.7878,767.8027,381.7878,779.8027,369.7878,791.8027,270.7995,791.8027,258.7995,779.8027,270.7995,767.8027" style="stroke:#181818;stroke-width:0.5;stroke-linejoin:miter;stroke-miterlimit:10;"/><text fill="#000000" font-family="'Inter, Helvetica, sans-serif'" font-size="11" lengthAdjust="spacing" textLength="13.4529" x="324.2936" y="803.5616">no</text><text fill="#000000" font-family="'Inter, Helvetica, sans-serif'" font-size="11" lengthAdjust="spacing" textLength="98.9883" x="270.7995" y="784.0707">key auth succeeds?</text><text fill="#000000" font-family="'Inter, Helvetica, sans-serif'" font-size="11" lengthAdjust="spacing" textLength="17.0829" x="381.7878" y="776.5797">yes</text><polygon fill="#F1F1F1" points="320.2936,1067.1449,332.2936,1079.1449,320.2936,1091.1449,308.2936,1079.1449,320.2936,1067.1449" style="stroke:#181818;stroke-width:0.5;stroke-linejoin:miter;stroke-miterlimit:10;"/><polygon fill="#F1F1F1" points="264.689,495.7885,375.8982,495.7885,387.8982,507.7885,375.8982,519.7885,264.689,519.7885,252.689,507.7885,264.689,495.7885" style="stroke:#181818;stroke-width:0.5;stroke-linejoin:miter;stroke-miterlimit:10;"/><text fill="#000000" font-family="'Inter, Helvetica, sans-serif'" font-size="11" lengthAdjust="spacing" textLength="13.4529" x="324.2936" y="531.5474">no</text><text fill="#000000" font-family="'Inter, Helvetica, sans-serif'" font-size="11" lengthAdjust="spacing" textLength="111.2092" x="264.689" y="512.0565">agent auth succeeds?</text><text fill="#000000" font-family="'Inter, Helvetica, sans-serif'" font-size="11" lengthAdjust="spacing" textLength="17.0829" x="387.8982" y="504.5655">yes</text><polygon fill="#F1F1F1" points="320.2936,1111.1449,332.2936,1123.1449,320.2936,1135.1449,308.2936,1123.1449,320.2936,1111.1449" style="stroke:#181818;stroke-width:0.5;stroke-linejoin:miter;stroke-miterlimit:10;"/><rect fill="#D7EEC1" height="36.3441" rx="4" ry="4" style="stroke:#181818;stroke-width:0.5;" width="213.8854" x="213.3509" y="1155.1449"/><text fill="#000000" font-family="'Inter, Helvetica, sans-serif'" font-size="12" lengthAdjust="spacing" textLength="193.8854" x="223.3509" y="1177.973">authenticated -&gt; open sftp session</text><ellipse cx="320.2936" cy="1222.489" fill="none" rx="11" ry="11" style="stroke:#222222;stroke-width:1;"/><ellipse cx="320.2936" cy="1222.489" fill="#222222" rx="6" ry="6" style="stroke:#222222;stroke-width:1;"/><line style="stroke:#555555;stroke-width:1.3;" x1="320.2936" x2="320.2936" y1="75.0679" y2="95.0679"/><polygon fill="#555555" points="316.2936,85.0679,320.2936,95.0679,324.2936,85.0679,320.2936,89.0679" style="stroke:#555555;stroke-width:1;stroke-linejoin:miter;stroke-miterlimit:10;"/><line style="stroke:#555555;stroke-width:1.3;" x1="202.639" x2="202.639" y1="272.1003" y2="307.1003"/><polygon fill="#555555" points="198.639,297.1003,202.639,307.1003,206.639,297.1003,202.639,301.1003" style="stroke:#555555;stroke-width:1;stroke-linejoin:miter;stroke-miterlimit:10;"/><line style="stroke:#555555;stroke-width:1.3;" x1="79.2378" x2="49.1362" y1="197.412" y2="197.412"/><line style="stroke:#555555;stroke-width:1.3;" x1="49.1362" x2="49.1362" y1="197.412" y2="219.412"/><polygon fill="#555555" points="45.1362,209.412,49.1362,219.412,53.1362,209.412,49.1362,213.412" style="stroke:#555555;stroke-width:1;stroke-linejoin:miter;stroke-miterlimit:10;"/><line style="stroke:#555555;stroke-width:1.3;" x1="172.5373" x2="202.639" y1="197.412" y2="197.412"/><line style="stroke:#555555;stroke-width:1.3;" x1="202.639" x2="202.639" y1="197.412" y2="219.412"/><polygon fill="#555555" points="198.639,209.412,202.639,219.412,206.639,209.412,202.639,213.412" style="stroke:#555555;stroke-width:1;stroke-linejoin:miter;stroke-miterlimit:10;"/><line style="stroke:#555555;stroke-width:1.3;" x1="49.1362" x2="49.1362" y1="255.7561" y2="407.4444"/><line style="stroke:#555555;stroke-width:1.3;" x1="49.1362" x2="308.2936" y1="407.4444" y2="407.4444"/><polygon fill="#555555" points="298.2936,403.4444,308.2936,407.4444,298.2936,411.4444,302.2936,407.4444" style="stroke:#555555;stroke-width:1;stroke-linejoin:miter;stroke-miterlimit:10;"/><line style="stroke:#555555;stroke-width:1.3;" x1="587.041" x2="587.041" y1="343.4444" y2="363.4444"/><polygon fill="#555555" points="583.041,353.4444,587.041,363.4444,591.041,353.4444,587.041,357.4444" style="stroke:#555555;stroke-width:1;stroke-linejoin:miter;stroke-miterlimit:10;"/><line style="stroke:#555555;stroke-width:1.3;" x1="468.0059" x2="442.3583" y1="285.1003" y2="285.1003"/><line style="stroke:#555555;stroke-width:1.3;" x1="442.3583" x2="442.3583" y1="285.1003" y2="307.1003"/><polygon fill="#555555" points="438.3583,297.1003,442.3583,307.1003,446.3583,297.1003,442.3583,301.1003" style="stroke:#555555;stroke-width:1;stroke-linejoin:miter;stroke-miterlimit:10;"/><line style="stroke:#555555;stroke-width:1.3;" x1="561.3934" x2="587.041" y1="285.1003" y2="285.1003"/><line style="stroke:#555555;stroke-width:1.3;" x1="587.041" x2="587.041" y1="285.1003" y2="307.1003"/><polygon fill="#555555" points="583.041,297.1003,587.041,307.1003,591.041,297.1003,587.041,301.1003" style="stroke:#555555;stroke-width:1;stroke-linejoin:miter;stroke-miterlimit:10;"/><line style="stroke:#555555;stroke-width:1.3;" x1="442.3583" x2="442.3583" y1="343.4444" y2="407.4444"/><line style="stroke:#555555;stroke-width:1.3;" x1="442.3583" x2="332.2936" y1="407.4444" y2="407.4444"/><polygon fill="#555555" points="342.2936,403.4444,332.2936,407.4444,342.2936,411.4444,338.2936,407.4444" style="stroke:#555555;stroke-width:1;stroke-linejoin:miter;stroke-miterlimit:10;"/><line style="stroke:#555555;stroke-width:1.3;" x1="514.6997" x2="514.6997" y1="238.1003" y2="273.1003"/><polygon fill="#555555" points="510.6997,263.1003,514.6997,273.1003,518.6997,263.1003,514.6997,267.1003" style="stroke:#555555;stroke-width:1;stroke-linejoin:miter;stroke-miterlimit:10;"/><line style="stroke:#555555;stroke-width:1.3;" x1="242.8001" x2="125.8876" y1="163.412" y2="163.412"/><line style="stroke:#555555;stroke-width:1.3;" x1="125.8876" x2="125.8876" y1="163.412" y2="185.412"/><polygon fill="#555555" points="121.8876,175.412,125.8876,185.412,129.8876,175.412,125.8876,179.412" style="stroke:#555555;stroke-width:1;stroke-linejoin:miter;stroke-miterlimit:10;"/><line style="stroke:#555555;stroke-width:1.3;" x1="397.7871" x2="514.6997" y1="163.412" y2="163.412"/><line style="stroke:#555555;stroke-width:1.3;" x1="514.6997" x2="514.6997" y1="163.412" y2="185.412"/><polygon fill="#555555" points="510.6997,175.412,514.6997,185.412,518.6997,175.412,514.6997,179.412" style="stroke:#555555;stroke-width:1;stroke-linejoin:miter;stroke-miterlimit:10;"/><line style="stroke:#555555;stroke-width:1.3;" x1="320.2936" x2="320.2936" y1="131.412" y2="151.412"/><polygon fill="#555555" points="316.2936,141.412,320.2936,151.412,324.2936,141.412,320.2936,145.412" style="stroke:#555555;stroke-width:1;stroke-linejoin:miter;stroke-miterlimit:10;"/><line style="stroke:#555555;stroke-width:1.3;" x1="320.2936" x2="320.2936" y1="419.4444" y2="439.4444"/><polygon fill="#555555" points="316.2936,429.4444,320.2936,439.4444,324.2936,429.4444,320.2936,433.4444" style="stroke:#555555;stroke-width:1;stroke-linejoin:miter;stroke-miterlimit:10;"/><line style="stroke:#555555;stroke-width:1.3;" x1="320.2936" x2="320.2936" y1="625.6235" y2="651.1145"/><polygon fill="#555555" points="316.2936,641.1145,320.2936,651.1145,324.2936,641.1145,320.2936,645.1145" style="stroke:#555555;stroke-width:1;stroke-linejoin:miter;stroke-miterlimit:10;"/><line style="stroke:#555555;stroke-width:1.3;" x1="376.5078" x2="445.9184" y1="613.6235" y2="613.6235"/><polygon fill="#555555" points="441.9184,667.4586,445.9184,677.4586,449.9184,667.4586,445.9184,671.4586" style="stroke:#555555;stroke-width:1.3;stroke-linejoin:miter;stroke-miterlimit:10;"/><line style="stroke:#555555;stroke-width:1.3;" x1="445.9184" x2="445.9184" y1="613.6235" y2="735.8027"/><line style="stroke:#555555;stroke-width:1.3;" x1="445.9184" x2="332.2936" y1="735.8027" y2="735.8027"/><polygon fill="#555555" points="342.2936,731.8027,332.2936,735.8027,342.2936,739.8027,338.2936,735.8027" style="stroke:#555555;stroke-width:1;stroke-linejoin:miter;stroke-miterlimit:10;"/><line style="stroke:#555555;stroke-width:1.3;" x1="320.2936" x2="320.2936" y1="703.8027" y2="723.8027"/><polygon fill="#555555" points="316.2936,713.8027,320.2936,723.8027,324.2936,713.8027,320.2936,717.8027" style="stroke:#555555;stroke-width:1;stroke-linejoin:miter;stroke-miterlimit:10;"/><line style="stroke:#555555;stroke-width:1.3;" x1="320.2936" x2="320.2936" y1="581.6235" y2="601.6235"/><polygon fill="#555555" points="316.2936,591.6235,320.2936,601.6235,324.2936,591.6235,320.2936,595.6235" style="stroke:#555555;stroke-width:1;stroke-linejoin:miter;stroke-miterlimit:10;"/><line style="stroke:#555555;stroke-width:1.3;" x1="320.2936" x2="320.2936" y1="975.8169" y2="1003.1449"/><polygon fill="#555555" points="316.2936,993.1449,320.2936,1003.1449,324.2936,993.1449,320.2936,997.1449" style="stroke:#555555;stroke-width:1;stroke-linejoin:miter;stroke-miterlimit:10;"/><line style="stroke:#555555;stroke-width:1.3;" x1="320.2936" x2="320.2936" y1="913.9819" y2="939.4728"/><polygon fill="#555555" points="316.2936,929.4728,320.2936,939.4728,324.2936,929.4728,320.2936,933.4728" style="stroke:#555555;stroke-width:1;stroke-linejoin:miter;stroke-miterlimit:10;"/><line style="stroke:#555555;stroke-width:1.3;" x1="371.5138" x2="406.2821" y1="901.9819" y2="901.9819"/><polygon fill="#555555" points="402.2821,973.1449,406.2821,983.1449,410.2821,973.1449,406.2821,977.1449" style="stroke:#555555;stroke-width:1.3;stroke-linejoin:miter;stroke-miterlimit:10;"/><line style="stroke:#555555;stroke-width:1.3;" x1="406.2821" x2="406.2821" y1="901.9819" y2="1047.1449"/><line style="stroke:#555555;stroke-width:1.3;" x1="406.2821" x2="320.2936" y1="1047.1449" y2="1047.1449"/><line style="stroke:#555555;stroke-width:1.3;" x1="320.2936" x2="320.2936" y1="1047.1449" y2="1067.1449"/><polygon fill="#555555" points="316.2936,1057.1449,320.2936,1067.1449,324.2936,1057.1449,320.2936,1061.1449" style="stroke:#555555;stroke-width:1;stroke-linejoin:miter;stroke-miterlimit:10;"/><line style="stroke:#555555;stroke-width:1.3;" x1="320.2936" x2="320.2936" y1="869.9819" y2="889.9819"/><polygon fill="#555555" points="316.2936,879.9819,320.2936,889.9819,324.2936,879.9819,320.2936,883.9819" style="stroke:#555555;stroke-width:1;stroke-linejoin:miter;stroke-miterlimit:10;"/><line style="stroke:#555555;stroke-width:1.3;" x1="320.2936" x2="320.2936" y1="791.8027" y2="817.2937"/><polygon fill="#555555" points="316.2936,807.2937,320.2936,817.2937,324.2936,807.2937,320.2936,811.2937" style="stroke:#555555;stroke-width:1;stroke-linejoin:miter;stroke-miterlimit:10;"/><line style="stroke:#555555;stroke-width:1.3;" x1="381.7878" x2="446.8544" y1="779.8027" y2="779.8027"/><polygon fill="#555555" points="442.8544,923.3008,446.8544,933.3008,450.8544,923.3008,446.8544,927.3008" style="stroke:#555555;stroke-width:1.3;stroke-linejoin:miter;stroke-miterlimit:10;"/><line style="stroke:#555555;stroke-width:1.3;" x1="446.8544" x2="446.8544" y1="779.8027" y2="1079.1449"/><line style="stroke:#555555;stroke-width:1.3;" x1="446.8544" x2="332.2936" y1="1079.1449" y2="1079.1449"/><polygon fill="#555555" points="342.2936,1075.1449,332.2936,1079.1449,342.2936,1083.1449,338.2936,1079.1449" style="stroke:#555555;stroke-width:1;stroke-linejoin:miter;stroke-miterlimit:10;"/><line style="stroke:#555555;stroke-width:1.3;" x1="320.2936" x2="320.2936" y1="747.8027" y2="767.8027"/><polygon fill="#555555" points="316.2936,757.8027,320.2936,767.8027,324.2936,757.8027,320.2936,761.8027" style="stroke:#555555;stroke-width:1;stroke-linejoin:miter;stroke-miterlimit:10;"/><line style="stroke:#555555;stroke-width:1.3;" x1="320.2936" x2="320.2936" y1="519.7885" y2="545.2794"/><polygon fill="#555555" points="316.2936,535.2794,320.2936,545.2794,324.2936,535.2794,320.2936,539.2794" style="stroke:#555555;stroke-width:1;stroke-linejoin:miter;stroke-miterlimit:10;"/><line style="stroke:#555555;stroke-width:1.3;" x1="387.8982" x2="468.8544" y1="507.7885" y2="507.7885"/><polygon fill="#555555" points="464.8544,809.2937,468.8544,819.2937,472.8544,809.2937,468.8544,813.2937" style="stroke:#555555;stroke-width:1.3;stroke-linejoin:miter;stroke-miterlimit:10;"/><line style="stroke:#555555;stroke-width:1.3;" x1="468.8544" x2="468.8544" y1="507.7885" y2="1123.1449"/><line style="stroke:#555555;stroke-width:1.3;" x1="468.8544" x2="332.2936" y1="1123.1449" y2="1123.1449"/><polygon fill="#555555" points="342.2936,1119.1449,332.2936,1123.1449,342.2936,1127.1449,338.2936,1123.1449" style="stroke:#555555;stroke-width:1;stroke-linejoin:miter;stroke-miterlimit:10;"/><line style="stroke:#555555;stroke-width:1.3;" x1="320.2936" x2="320.2936" y1="1091.1449" y2="1111.1449"/><polygon fill="#555555" points="316.2936,1101.1449,320.2936,1111.1449,324.2936,1101.1449,320.2936,1105.1449" style="stroke:#555555;stroke-width:1;stroke-linejoin:miter;stroke-miterlimit:10;"/><line style="stroke:#555555;stroke-width:1.3;" x1="320.2936" x2="320.2936" y1="475.7885" y2="495.7885"/><polygon fill="#555555" points="316.2936,485.7885,320.2936,495.7885,324.2936,485.7885,320.2936,489.7885" style="stroke:#555555;stroke-width:1;stroke-linejoin:miter;stroke-miterlimit:10;"/><line style="stroke:#555555;stroke-width:1.3;" x1="320.2936" x2="320.2936" y1="1135.1449" y2="1155.1449"/><polygon fill="#555555" points="316.2936,1145.1449,320.2936,1155.1449,324.2936,1145.1449,320.2936,1149.1449" style="stroke:#555555;stroke-width:1;stroke-linejoin:miter;stroke-miterlimit:10;"/><line style="stroke:#555555;stroke-width:1.3;" x1="320.2936" x2="320.2936" y1="1191.489" y2="1211.489"/><polygon fill="#555555" points="316.2936,1201.489,320.2936,1211.489,324.2936,1201.489,320.2936,1205.489" style="stroke:#555555;stroke-width:1;stroke-linejoin:miter;stroke-miterlimit:10;"/><g class="legend" data-source-line="48"><rect fill="none" height="128.4075" rx="4" ry="4" style="stroke:#000000;stroke-width:1;" width="582.3038" x="26.0673" y="1254.489"/><text fill="#000000" font-family="'Inter, Helvetica, sans-serif'" font-size="14" font-weight="700" lengthAdjust="spacing" textLength="46.0178" x="34.7073" y="1276.4549">Colour</text><text fill="#000000" font-family="'Inter, Helvetica, sans-serif'" font-size="14" font-weight="700" lengthAdjust="spacing" textLength="57.3438" x="88.0051" y="1276.4549">Concept</text><rect fill="#3A5BA0" height="19.0679" style="stroke:none;stroke-width:1;" width="53.2978" x="31.0673" y="1280.5569"/><text fill="#000000" font-family="'Inter, Helvetica, sans-serif'" font-size="14" lengthAdjust="spacing" textLength="14.5599" x="31.0673" y="1295.5229">&#160;&#160;&#160;&#160;</text><text fill="#000000" font-family="'Inter, Helvetica, sans-serif'" font-size="14" lengthAdjust="spacing" textLength="125.8315" x="88.0051" y="1295.5229">main-side SSH step</text><rect fill="#B1951D" height="19.0679" style="stroke:none;stroke-width:1;" width="53.2978" x="31.0673" y="1299.6248"/><text fill="#000000" font-family="'Inter, Helvetica, sans-serif'" font-size="14" lengthAdjust="spacing" textLength="14.5599" x="31.0673" y="1314.5908">&#160;&#160;&#160;&#160;</text><text fill="#000000" font-family="'Inter, Helvetica, sans-serif'" font-size="14" lengthAdjust="spacing" textLength="185.6253" x="88.0051" y="1314.5908">prompt across the IPC seam</text><rect fill="#E0211D" height="19.0679" style="stroke:none;stroke-width:1;" width="53.2978" x="31.0673" y="1318.6928"/><text fill="#000000" font-family="'Inter, Helvetica, sans-serif'" font-size="14" lengthAdjust="spacing" textLength="14.5599" x="31.0673" y="1333.6587">&#160;&#160;&#160;&#160;</text><text fill="#000000" font-family="'Inter, Helvetica, sans-serif'" font-size="14" lengthAdjust="spacing" textLength="125.5235" x="88.0051" y="1333.6587">reject / auth failure</text><rect fill="#67B11D" height="19.0679" style="stroke:none;stroke-width:1;" width="53.2978" x="31.0673" y="1337.7607"/><text fill="#000000" font-family="'Inter, Helvetica, sans-serif'" font-size="14" lengthAdjust="spacing" textLength="14.5599" x="31.0673" y="1352.7266">&#160;&#160;&#160;&#160;</text><text fill="#000000" font-family="'Inter, Helvetica, sans-serif'" font-size="14" lengthAdjust="spacing" textLength="91.5596" x="88.0051" y="1352.7266">authenticated</text><line style="stroke:#000000;stroke-width:1;" x1="31.0673" x2="277.2704" y1="1261.489" y2="1261.489"/><line style="stroke:#000000;stroke-width:1;" x1="31.0673" x2="277.2704" y1="1280.5569" y2="1280.5569"/><line style="stroke:#000000;stroke-width:1;" x1="31.0673" x2="277.2704" y1="1299.6248" y2="1299.6248"/><line style="stroke:#000000;stroke-width:1;" x1="31.0673" x2="277.2704" y1="1318.6928" y2="1318.6928"/><line style="stroke:#000000;stroke-width:1;" x1="31.0673" x2="277.2704" y1="1337.7607" y2="1337.7607"/><line style="stroke:#000000;stroke-width:1;" x1="31.0673" x2="277.2704" y1="1356.8286" y2="1356.8286"/><line style="stroke:#000000;stroke-width:1;" x1="31.0673" x2="31.0673" y1="1261.489" y2="1356.8286"/><line style="stroke:#000000;stroke-width:1;" x1="84.3651" x2="84.3651" y1="1261.489" y2="1356.8286"/><line style="stroke:#000000;stroke-width:1;" x1="277.2704" x2="277.2704" y1="1261.489" y2="1356.8286"/><text fill="#000000" font-family="'Inter, Helvetica, sans-serif'" font-size="14" lengthAdjust="spacing" textLength="572.3038" x="31.0673" y="1373.7945">Auth cascades agent -&gt; key -&gt; keyboard-interactive; a changed host key is a hard reject.</text></g><?plantuml-src ZLNRRjj647tdLqmGeBPKKxOJ944bruKigxKIop4K5NqnuAoMGt6JvIwnkvGZm2Zw4Vd2V4bcIEhIoX4A21IvbvbppfoTFJY0MorC-7Dy3NQ13iReSg4IcA4KfKS8cV90Fm49IkMLDR544voI82tzMmsfjW_me486me1r2JfCG9JqBOMN8a4Qfu7eu00yojAfi8mbFPKK6Xn-GXbWveIH6HncreVuCov1PiBCiNL4MRGjEU9i2ROCqkO8gRCv8KFmcU2fGcWC0U7RFr-1lrFhE9kOMHUEOEuG3O-1BT1qrXIbCCQ69i5sU4DB7HeYGgC1OuU5iqafrKmlEz4pPQGkYTNzOX4JY1mxginr50KLDCA73rSLUHA920OI37w6DIsIMAMhyKE2OMAl4cn5aG_2XQWx7Tooi8P4wH48aTGyqN5nE0nGc1wSdOtxevlxtqVNr-VdaKfhvNWEb87FnZwOUnxnlxKu0EKg77h2r8e0U3clp4MG6MwMBD7pD42N-4h4P9rdEhgPKXu0rEI9my5L_-QFuMMpkDs-waykOJ9yEnnCs-sg2eNrdkH268-cuzwTQKhXIvSAoOO0TCuwJZ2SJDvFDXa0VB05fpA9IgCwOMagIfK0d9K1vaM0u4eIbZoPAaSlPDWxS_XniUXwdyNrceyjJZAw7MnIC7zQwa18YKLuIW1Ha5LgxLcfOBSr_P4ingvsCzl_mQrwHjtWbj1kCsGnfnAHX6G9iazGk9EBiLUhwXFcIyc5-W-5RJXDT6QHAesUebV7v-_Z3cKy9g-bQWx7TBnJKUgdoAtiGbq0ZNJB8c3oj6Uu98NmliYSO0GxbRWpPFiAi_T7q4-ITxZqKzjdGZjbscPHIxN1ieVyJZNM0ioiS4ciJ40dP50B9DeCzu6QLhjDpcaeeA1MH0r8Q-GUj0EiXh4NmWf4ZY6p2Gdt9QDsIiBLauGg5Ket3QiWjzICVdmerjRPQB5jekvMow4669zNlGvy6Wfg7fxxTbtOoRlBzt-jYrl5Z3JEsUnEpRD0SHz_XK7T4witmsS47ddYxFdB_gkB_idvJyzFNv_qTf-Fi6vfLICaniLgwyNfBwzEB_TiRTGNqb7pg8uUgKxeHRuACJnvSRetH7ER7DTgiiHqTQnsltvpiN_tlpNaNVsjMupkmEhSaRRimFflnr8zkYdhkok1JKlc-vEkggG1sE6grQf_1m00?></g></svg>