<svg xmlns="http://www.w3.org/2000/svg" xmlns:xlink="http://www.w3.org/1999/xlink" contentStyleType="text/css" data-diagram-type="ACTIVITY" height="1418px" preserveAspectRatio="none" style="width:652px;height:1418px;background:#FBF8EF;" version="1.1" viewBox="0 0 652 1418" width="652px" zoomAndPan="magnify"><?plantuml $version$?><defs/><g><rect fill="#FBF8EF" height="1418" style="stroke:none;stroke-width:1;" width="652" x="0" y="0"/><g class="title" data-source-line="8"><text fill="#000000" font-family="'Inter, Helvetica, sans-serif'" font-size="14" font-weight="700" lengthAdjust="spacing" textLength="610.8317" x="20" y="34.9659">content-view Strategy &#8212; selecting the document body by precedence (first match wins)</text><text fill="#000000" font-family="'Inter, Helvetica, sans-serif'" font-size="14" font-weight="700" lengthAdjust="spacing" textLength="211.6092" x="219.6112" y="54.0339">(vinary.ui.views/content-view)</text></g><rect fill="#FFFFCC" height="89.4799" rx="2.5" ry="2.5" style="stroke:#FFDD88;stroke-width:3;" width="599.2009" x="24.3154" y="72.1358"/><text fill="#000000" font-family="monospace" font-size="10" lengthAdjust="spacing" textLength="534" x="31.3154" y="84.7558">This&#160;syntax&#160;is&#160;deprecated,&#160;you&#160;must&#160;add&#160;&lt;&lt;#2D9574&gt;&gt;&#160;at&#160;the&#160;end&#160;of&#160;the&#160;line,&#160;after&#160;the&#160;';'</text><text fill="#000000" font-family="monospace" font-size="10" lengthAdjust="spacing" textLength="534" x="31.3154" y="108.3758">This&#160;syntax&#160;is&#160;deprecated,&#160;you&#160;must&#160;add&#160;&lt;&lt;#E0211D&gt;&gt;&#160;at&#160;the&#160;end&#160;of&#160;the&#160;line,&#160;after&#160;the&#160;';'</text><text fill="#000000" font-family="monospace" font-size="10" lengthAdjust="spacing" textLength="534" x="31.3154" y="131.9958">This&#160;syntax&#160;is&#160;deprecated,&#160;you&#160;must&#160;add&#160;&lt;&lt;#67B11D&gt;&gt;&#160;at&#160;the&#160;end&#160;of&#160;the&#160;line,&#160;after&#160;the&#160;';'</text><text fill="#000000" font-family="monospace" font-size="10" lengthAdjust="spacing" textLength="534" x="31.3154" y="155.6158">This&#160;syntax&#160;is&#160;deprecated,&#160;you&#160;must&#160;add&#160;&lt;&lt;#DDDDDD&gt;&gt;&#160;at&#160;the&#160;end&#160;of&#160;the&#160;line,&#160;after&#160;the&#160;';'</text><ellipse cx="201.3314" cy="178.6158" fill="#222222" rx="10" ry="10" style="stroke:#222222;stroke-width:1;"/><rect fill="#F1F1F1" height="52.6882" rx="4" ry="4" style="stroke:#181818;stroke-width:0.5;" width="229.9775" x="86.3427" y="208.6158"/><text fill="#000000" font-family="'Inter, Helvetica, sans-serif'" font-size="12" lengthAdjust="spacing" textLength="113.9048" x="96.3427" y="231.4439">render content-view</text><text fill="#000000" font-family="'Inter, Helvetica, sans-serif'" font-size="12" lengthAdjust="spacing" textLength="209.9775" x="96.3427" y="247.788">(doc = @[:doc/active], tabs = @[:tabs])</text><rect fill="#F1F1F1" height="52.6882" rx="4" ry="4" style="stroke:#181818;stroke-width:0.5;" width="164.289" x="119.1869" y="330.795"/><text fill="#000000" font-family="'Inter, Helvetica, sans-serif'" font-size="12" lengthAdjust="spacing" textLength="69.4325" x="129.1869" y="353.623">[watermark]</text><text fill="#000000" font-family="'Inter, Helvetica, sans-serif'" font-size="12" lengthAdjust="spacing" textLength="144.289" x="129.1869" y="369.9672">.vv-watermark / .vv-shield</text><ellipse cx="201.3314" cy="414.4832" fill="none" rx="11" ry="11" style="stroke:#222222;stroke-width:1;"/><ellipse cx="201.3314" cy="414.4832" fill="#222222" rx="6" ry="6" style="stroke:#222222;stroke-width:1;"/><polygon fill="#F1F1F1" points="170.0091,281.304,232.6537,281.304,244.6537,293.304,232.6537,305.304,170.0091,305.304,158.0091,293.304,170.0091,281.304" style="stroke:#181818;stroke-width:0.5;stroke-linejoin:miter;stroke-miterlimit:10;"/><text fill="#000000" font-family="'Inter, Helvetica, sans-serif'" font-size="11" lengthAdjust="spacing" textLength="17.0829" x="205.3314" y="317.0629">yes</text><text fill="#000000" font-family="'Inter, Helvetica, sans-serif'" font-size="11" lengthAdjust="spacing" textLength="62.6446" x="170.0091" y="297.572">tabs empty?</text><text fill="#000000" font-family="'Inter, Helvetica, sans-serif'" font-size="11" lengthAdjust="spacing" textLength="13.4529" x="244.6537" y="290.081">no</text><rect fill="#F1F1F1" height="36.3441" rx="4" ry="4" style="stroke:#181818;stroke-width:0.5;" width="153.393" x="124.6349" y="516.9741"/><text fill="#000000" font-family="'Inter, Helvetica, sans-serif'" font-size="12" lengthAdjust="spacing" textLength="133.393" x="134.6349" y="539.8022">[:div.vv-error "Error: &#8230;"]</text><ellipse cx="201.3314" cy="591.6462" fill="none" rx="11" ry="11" style="stroke:#222222;stroke-width:1;"/><ellipse cx="201.3314" cy="591.6462" fill="#222222" rx="6" ry="6" style="stroke:#222222;stroke-width:1;"/><polygon fill="#F1F1F1" points="151.5238,467.4832,251.1391,467.4832,263.1391,479.4832,251.1391,491.4832,151.5238,491.4832,139.5238,479.4832,151.5238,467.4832" style="stroke:#181818;stroke-width:0.5;stroke-linejoin:miter;stroke-miterlimit:10;"/><text fill="#000000" font-family="'Inter, Helvetica, sans-serif'" font-size="11" lengthAdjust="spacing" textLength="17.0829" x="205.3314" y="503.2421">yes</text><text fill="#000000" font-family="'Inter, Helvetica, sans-serif'" font-size="11" lengthAdjust="spacing" textLength="99.6153" x="151.5238" y="483.7512">:doc/error present?</text><text fill="#000000" font-family="'Inter, Helvetica, sans-serif'" font-size="11" lengthAdjust="spacing" textLength="13.4529" x="263.1391" y="476.2602">no</text><rect fill="#F1F1F1" height="52.6882" rx="4" ry="4" style="stroke:#181818;stroke-width:0.5;" width="163.545" x="119.5589" y="694.1371"/><text fill="#000000" font-family="'Inter, Helvetica, sans-serif'" font-size="12" lengthAdjust="spacing" textLength="107.4607" x="129.5589" y="716.9652">[:div.vv-image-view</text><text fill="#000000" font-family="'Inter, Helvetica, sans-serif'" font-size="12" lengthAdjust="spacing" textLength="143.545" x="129.5589" y="733.3093">[:img {:src "file://"+path}]]</text><ellipse cx="201.3314" cy="777.8254" fill="none" rx="11" ry="11" style="stroke:#222222;stroke-width:1;"/><ellipse cx="201.3314" cy="777.8254" fill="#222222" rx="6" ry="6" style="stroke:#222222;stroke-width:1;"/><polygon fill="#F1F1F1" points="148.3118,644.6462,254.3511,644.6462,266.3511,656.6462,254.3511,668.6462,148.3118,668.6462,136.3118,656.6462,148.3118,644.6462" style="stroke:#181818;stroke-width:0.5;stroke-linejoin:miter;stroke-miterlimit:10;"/><text fill="#000000" font-family="'Inter, Helvetica, sans-serif'" font-size="11" lengthAdjust="spacing" textLength="17.0829" x="205.3314" y="680.4051">yes</text><text fill="#000000" font-family="'Inter, Helvetica, sans-serif'" font-size="11" lengthAdjust="spacing" textLength="106.0392" x="148.3118" y="660.9142">:doc/kind = "image"?</text><text fill="#000000" font-family="'Inter, Helvetica, sans-serif'" font-size="11" lengthAdjust="spacing" textLength="13.4529" x="266.3511" y="653.4232">no</text><polygon fill="#F1F1F1" points="152.8218,830.8254,249.8411,830.8254,261.8411,842.8254,249.8411,854.8254,152.8218,854.8254,140.8218,842.8254,152.8218,830.8254" style="stroke:#181818;stroke-width:0.5;stroke-linejoin:miter;stroke-miterlimit:10;"/><text fill="#000000" font-family="'Inter, Helvetica, sans-serif'" font-size="11" lengthAdjust="spacing" textLength="97.0193" x="152.8218" y="847.0933">:doc/html present?</text><text fill="#000000" font-family="'Inter, Helvetica, sans-serif'" font-size="11" lengthAdjust="spacing" textLength="17.0829" x="123.7389" y="839.6024">yes</text><text fill="#000000" font-family="'Inter, Helvetica, sans-serif'" font-size="11" lengthAdjust="spacing" textLength="107.5792" x="261.8411" y="839.6024">no &#8212; render in flight</text><rect fill="#F1F1F1" height="52.6882" rx="4" ry="4" style="stroke:#181818;stroke-width:0.5;" width="157.413" x="27.3154" y="864.8254"/><text fill="#000000" font-family="'Inter, Helvetica, sans-serif'" font-size="12" lengthAdjust="spacing" textLength="129.8889" x="37.3154" y="887.6534">[markdown-body html]</text><text fill="#000000" font-family="'Inter, Helvetica, sans-serif'" font-size="12" lengthAdjust="spacing" textLength="137.413" x="37.3154" y="903.9976">(form-3; set! innerHTML)</text><ellipse cx="106.0219" cy="963.5136" fill="none" rx="11" ry="11" style="stroke:#222222;stroke-width:1;"/><ellipse cx="106.0219" cy="963.5136" fill="#222222" rx="6" ry="6" style="stroke:#222222;stroke-width:1;"/><rect fill="#F1F1F1" height="36.3441" rx="4" ry="4" style="stroke:#181818;stroke-width:0.5;" width="183.8251" x="204.7284" y="864.8254"/><text fill="#000000" font-family="'Inter, Helvetica, sans-serif'" font-size="12" lengthAdjust="spacing" textLength="163.8251" x="214.7284" y="887.6534">[:div.vv-empty "Rendering&#8230;"]</text><ellipse cx="296.641" cy="947.1695" fill="none" rx="11" ry="11" style="stroke:#222222;stroke-width:1;"/><ellipse cx="296.641" cy="947.1695" fill="#222222" rx="6" ry="6" style="stroke:#222222;stroke-width:1;"/><rect fill="none" height="260.2684" rx="4" ry="4" style="stroke:#000000;stroke-width:1.5;" width="530.6761" x="90.8402" y="984.5136"/><path d="M342.4373,984.5136 L342.4373,996.5815 L332.4373,1006.5815 L90.8402,1006.5815" fill="none" style="stroke:#000000;stroke-width:1.5;"/><text fill="#000000" font-family="'Inter, Helvetica, sans-serif'" font-size="14" lengthAdjust="spacing" textLength="241.5971" x="93.8402" y="1000.4795">Forthcoming (planned) registry arms</text><rect fill="#F1F1F1" height="52.6882" rx="4" ry="4" style="stroke:#181818;stroke-width:0.5;" width="147.6089" x="127.527" y="1016.5815"/><text fill="#000000" font-family="'Inter, Helvetica, sans-serif'" font-size="12" lengthAdjust="spacing" textLength="127.6089" x="137.527" y="1039.4096">&#171;planned&#187; kind = "pdf"</text><text fill="#000000" font-family="'Inter, Helvetica, sans-serif'" font-size="12" lengthAdjust="spacing" textLength="124.1515" x="137.527" y="1055.7537">&#8594; native BrowserView</text><rect fill="#F1F1F1" height="52.6882" rx="4" ry="4" style="stroke:#181818;stroke-width:0.5;" width="200.9825" x="100.8402" y="1089.2697"/><text fill="#000000" font-family="'Inter, Helvetica, sans-serif'" font-size="12" lengthAdjust="spacing" textLength="156.2171" x="110.8402" y="1112.0978">&#171;planned&#187; kind = "diagram"</text><text fill="#000000" font-family="'Inter, Helvetica, sans-serif'" font-size="12" lengthAdjust="spacing" textLength="180.9825" x="110.8402" y="1128.4419">&#8594; d2/PlantUML/Mermaid &#8594; SVG</text><path d="M304.646,1151.958 L304.646,1188.37 L284.646,1192.37 L304.646,1196.37 L304.646,1232.782 A0,0 0 0 0 304.646,1232.782 L611.5163,1232.782 A0,0 0 0 0 611.5163,1232.782 L611.5163,1161.958 L601.5163,1151.958 L304.646,1151.958 A0,0 0 0 0 304.646,1151.958" fill="#EEEEEE" style="stroke:#7F6B14;stroke-width:0.5;"/><path d="M601.5163,1151.958 L601.5163,1161.958 L611.5163,1161.958 L601.5163,1151.958" fill="#EEEEEE" style="stroke:#7F6B14;stroke-width:0.5;"/><text fill="#000000" font-family="'Inter, Helvetica, sans-serif'" font-size="13" lengthAdjust="spacing" textLength="285.8703" x="310.646" y="1170.855">Today the Strategy is a fixed cond; the planned</text><text fill="#000000" font-family="'Inter, Helvetica, sans-serif'" font-size="13" lengthAdjust="spacing" textLength="271.4272" x="310.646" y="1188.561">"registry as data" replaces these arms with a</text><text fill="#000000" font-family="'Inter, Helvetica, sans-serif'" font-size="13" lengthAdjust="spacing" textLength="272.2318" x="310.646" y="1206.267">{kind &#8594; render-fn} table (open for extension,</text><text fill="#000000" font-family="'Inter, Helvetica, sans-serif'" font-size="13" lengthAdjust="spacing" textLength="147.5371" x="310.646" y="1223.973">closed for modification).</text><rect fill="#F1F1F1" height="52.6882" rx="4" ry="4" style="stroke:#181818;stroke-width:0.5;" width="166.6291" x="118.0169" y="1166.0259"/><text fill="#000000" font-family="'Inter, Helvetica, sans-serif'" font-size="12" lengthAdjust="spacing" textLength="146.6291" x="128.0169" y="1188.854">&#171;planned&#187; kind = "source"</text><text fill="#000000" font-family="'Inter, Helvetica, sans-serif'" font-size="12" lengthAdjust="spacing" textLength="97.6073" x="128.0169" y="1205.1981">&#8594; tree-sitter view</text><line style="stroke:#555555;stroke-width:1.3;" x1="201.3314" x2="201.3314" y1="188.6158" y2="208.6158"/><polygon fill="#555555" points="197.3314,198.6158,201.3314,208.6158,205.3314,198.6158,201.3314,202.6158" style="stroke:#555555;stroke-width:1;stroke-linejoin:miter;stroke-miterlimit:10;"/><line style="stroke:#555555;stroke-width:1.3;" x1="201.3314" x2="201.3314" y1="383.4832" y2="403.4832"/><polygon fill="#555555" points="197.3314,393.4832,201.3314,403.4832,205.3314,393.4832,201.3314,397.4832" style="stroke:#555555;stroke-width:1;stroke-linejoin:miter;stroke-miterlimit:10;"/><line style="stroke:#555555;stroke-width:1.3;" x1="201.3314" x2="201.3314" y1="305.304" y2="330.795"/><polygon fill="#555555" points="197.3314,320.795,201.3314,330.795,205.3314,320.795,201.3314,324.795" style="stroke:#555555;stroke-width:1;stroke-linejoin:miter;stroke-miterlimit:10;"/><line style="stroke:#555555;stroke-width:1.3;" x1="244.6537" x2="293.4759" y1="293.304" y2="293.304"/><polygon fill="#555555" points="289.4759,372.6391,293.4759,382.6391,297.4759,372.6391,293.4759,376.6391" style="stroke:#555555;stroke-width:1.3;stroke-linejoin:miter;stroke-miterlimit:10;"/><line style="stroke:#555555;stroke-width:1.3;" x1="293.4759" x2="293.4759" y1="293.304" y2="447.4832"/><line style="stroke:#555555;stroke-width:1.3;" x1="293.4759" x2="201.3314" y1="447.4832" y2="447.4832"/><line style="stroke:#555555;stroke-width:1.3;" x1="201.3314" x2="201.3314" y1="447.4832" y2="467.4832"/><polygon fill="#555555" points="197.3314,457.4832,201.3314,467.4832,205.3314,457.4832,201.3314,461.4832" style="stroke:#555555;stroke-width:1;stroke-linejoin:miter;stroke-miterlimit:10;"/><line style="stroke:#555555;stroke-width:1.3;" x1="201.3314" x2="201.3314" y1="261.304" y2="281.304"/><polygon fill="#555555" points="197.3314,271.304,201.3314,281.304,205.3314,271.304,201.3314,275.304" style="stroke:#555555;stroke-width:1;stroke-linejoin:miter;stroke-miterlimit:10;"/><line style="stroke:#555555;stroke-width:1.3;" x1="201.3314" x2="201.3314" y1="553.3182" y2="580.6462"/><polygon fill="#555555" points="197.3314,570.6462,201.3314,580.6462,205.3314,570.6462,201.3314,574.6462" style="stroke:#555555;stroke-width:1;stroke-linejoin:miter;stroke-miterlimit:10;"/><line style="stroke:#555555;stroke-width:1.3;" x1="201.3314" x2="201.3314" y1="491.4832" y2="516.9741"/><polygon fill="#555555" points="197.3314,506.9741,201.3314,516.9741,205.3314,506.9741,201.3314,510.9741" style="stroke:#555555;stroke-width:1;stroke-linejoin:miter;stroke-miterlimit:10;"/><line style="stroke:#555555;stroke-width:1.3;" x1="263.1391" x2="288.0279" y1="479.4832" y2="479.4832"/><polygon fill="#555555" points="284.0279,550.6462,288.0279,560.6462,292.0279,550.6462,288.0279,554.6462" style="stroke:#555555;stroke-width:1.3;stroke-linejoin:miter;stroke-miterlimit:10;"/><line style="stroke:#555555;stroke-width:1.3;" x1="288.0279" x2="288.0279" y1="479.4832" y2="624.6462"/><line style="stroke:#555555;stroke-width:1.3;" x1="288.0279" x2="201.3314" y1="624.6462" y2="624.6462"/><line style="stroke:#555555;stroke-width:1.3;" x1="201.3314" x2="201.3314" y1="624.6462" y2="644.6462"/><polygon fill="#555555" points="197.3314,634.6462,201.3314,644.6462,205.3314,634.6462,201.3314,638.6462" style="stroke:#555555;stroke-width:1;stroke-linejoin:miter;stroke-miterlimit:10;"/><line style="stroke:#555555;stroke-width:1.3;" x1="201.3314" x2="201.3314" y1="746.8254" y2="766.8254"/><polygon fill="#555555" points="197.3314,756.8254,201.3314,766.8254,205.3314,756.8254,201.3314,760.8254" style="stroke:#555555;stroke-width:1;stroke-linejoin:miter;stroke-miterlimit:10;"/><line style="stroke:#555555;stroke-width:1.3;" x1="201.3314" x2="201.3314" y1="668.6462" y2="694.1371"/><polygon fill="#555555" points="197.3314,684.1371,201.3314,694.1371,205.3314,684.1371,201.3314,688.1371" style="stroke:#555555;stroke-width:1;stroke-linejoin:miter;stroke-miterlimit:10;"/><line style="stroke:#555555;stroke-width:1.3;" x1="266.3511" x2="293.1039" y1="656.6462" y2="656.6462"/><polygon fill="#555555" points="289.1039,735.9812,293.1039,745.9812,297.1039,735.9812,293.1039,739.9812" style="stroke:#555555;stroke-width:1.3;stroke-linejoin:miter;stroke-miterlimit:10;"/><line style="stroke:#555555;stroke-width:1.3;" x1="293.1039" x2="293.1039" y1="656.6462" y2="810.8254"/><line style="stroke:#555555;stroke-width:1.3;" x1="293.1039" x2="201.3314" y1="810.8254" y2="810.8254"/><line style="stroke:#555555;stroke-width:1.3;" x1="201.3314" x2="201.3314" y1="810.8254" y2="830.8254"/><polygon fill="#555555" points="197.3314,820.8254,201.3314,830.8254,205.3314,820.8254,201.3314,824.8254" style="stroke:#555555;stroke-width:1;stroke-linejoin:miter;stroke-miterlimit:10;"/><line style="stroke:#555555;stroke-width:1.3;" x1="106.0219" x2="106.0219" y1="917.5136" y2="952.5136"/><polygon fill="#555555" points="102.0219,942.5136,106.0219,952.5136,110.0219,942.5136,106.0219,946.5136" style="stroke:#555555;stroke-width:1;stroke-linejoin:miter;stroke-miterlimit:10;"/><line style="stroke:#555555;stroke-width:1.3;" x1="296.641" x2="296.641" y1="901.1695" y2="936.1695"/><polygon fill="#555555" points="292.641,926.1695,296.641,936.1695,300.641,926.1695,296.641,930.1695" style="stroke:#555555;stroke-width:1;stroke-linejoin:miter;stroke-miterlimit:10;"/><line style="stroke:#555555;stroke-width:1.3;" x1="140.8218" x2="106.0219" y1="842.8254" y2="842.8254"/><line style="stroke:#555555;stroke-width:1.3;" x1="106.0219" x2="106.0219" y1="842.8254" y2="864.8254"/><polygon fill="#555555" points="102.0219,854.8254,106.0219,864.8254,110.0219,854.8254,106.0219,858.8254" style="stroke:#555555;stroke-width:1;stroke-linejoin:miter;stroke-miterlimit:10;"/><line style="stroke:#555555;stroke-width:1.3;" x1="261.8411" x2="296.641" y1="842.8254" y2="842.8254"/><line style="stroke:#555555;stroke-width:1.3;" x1="296.641" x2="296.641" y1="842.8254" y2="864.8254"/><polygon fill="#555555" points="292.641,854.8254,296.641,864.8254,300.641,854.8254,296.641,858.8254" style="stroke:#555555;stroke-width:1;stroke-linejoin:miter;stroke-miterlimit:10;"/><line style="stroke:#555555;stroke-width:1.3;" x1="201.3314" x2="201.3314" y1="1069.2697" y2="1089.2697"/><polygon fill="#555555" points="197.3314,1079.2697,201.3314,1089.2697,205.3314,1079.2697,201.3314,1083.2697" style="stroke:#555555;stroke-width:1;stroke-linejoin:miter;stroke-miterlimit:10;"/><line style="stroke:#555555;stroke-width:1.3;" x1="201.3314" x2="201.3314" y1="1141.958" y2="1166.0259"/><polygon fill="#555555" points="197.3314,1156.0259,201.3314,1166.0259,205.3314,1156.0259,201.3314,1160.0259" style="stroke:#555555;stroke-width:1;stroke-linejoin:miter;stroke-miterlimit:10;"/><g class="legend" data-source-line="53"><rect fill="none" height="128.4075" rx="4" ry="4" style="stroke:#000000;stroke-width:1;" width="438.9165" x="178.5998" y="1265.782"/><text fill="#000000" font-family="'Inter, Helvetica, sans-serif'" font-size="14" font-weight="700" lengthAdjust="spacing" textLength="46.0178" x="187.2398" y="1287.748">Colour</text><text fill="#000000" font-family="'Inter, Helvetica, sans-serif'" font-size="14" font-weight="700" lengthAdjust="spacing" textLength="118.0475" x="240.5376" y="1287.748">Branch / concept</text><rect fill="#2D9574" height="19.0679" style="stroke:none;stroke-width:1;" width="53.2978" x="183.5998" y="1291.8499"/><text fill="#000000" font-family="'Inter, Helvetica, sans-serif'" font-size="14" lengthAdjust="spacing" textLength="3.64" x="183.5998" y="1306.8159">&#160;</text><text fill="#000000" font-family="'Inter, Helvetica, sans-serif'" font-size="14" lengthAdjust="spacing" textLength="271.9769" x="240.5376" y="1306.8159">renderer view output (watermark, image)</text><rect fill="#67B11D" height="19.0679" style="stroke:none;stroke-width:1;" width="53.2978" x="183.5998" y="1310.9179"/><text fill="#000000" font-family="'Inter, Helvetica, sans-serif'" font-size="14" lengthAdjust="spacing" textLength="3.64" x="183.5998" y="1325.8838">&#160;</text><text fill="#000000" font-family="'Inter, Helvetica, sans-serif'" font-size="14" lengthAdjust="spacing" textLength="246.987" x="240.5376" y="1325.8838">Markdown body (rendered :doc/html)</text><rect fill="#E0211D" height="19.0679" style="stroke:none;stroke-width:1;" width="53.2978" x="183.5998" y="1329.9858"/><text fill="#000000" font-family="'Inter, Helvetica, sans-serif'" font-size="14" lengthAdjust="spacing" textLength="3.64" x="183.5998" y="1344.9517">&#160;</text><text fill="#000000" font-family="'Inter, Helvetica, sans-serif'" font-size="14" lengthAdjust="spacing" textLength="145.4874" x="240.5376" y="1344.9517">error view (:doc/error)</text><rect fill="#DDDDDD" height="19.0679" style="stroke:none;stroke-width:1;" width="53.2978" x="183.5998" y="1349.0537"/><text fill="#000000" font-family="'Inter, Helvetica, sans-serif'" font-size="14" lengthAdjust="spacing" textLength="3.64" x="183.5998" y="1364.0196">&#160;</text><text fill="#000000" font-family="'Inter, Helvetica, sans-serif'" font-size="14" lengthAdjust="spacing" textLength="337.2587" x="240.5376" y="1364.0196">"Rendering&#8230;" placeholder + &#171;planned&#187; future arms</text><line style="stroke:#000000;stroke-width:1;" x1="183.5998" x2="581.4362" y1="1272.782" y2="1272.782"/><line style="stroke:#000000;stroke-width:1;" x1="183.5998" x2="581.4362" y1="1291.8499" y2="1291.8499"/><line style="stroke:#000000;stroke-width:1;" x1="183.5998" x2="581.4362" y1="1310.9179" y2="1310.9179"/><line style="stroke:#000000;stroke-width:1;" x1="183.5998" x2="581.4362" y1="1329.9858" y2="1329.9858"/><line style="stroke:#000000;stroke-width:1;" x1="183.5998" x2="581.4362" y1="1349.0537" y2="1349.0537"/><line style="stroke:#000000;stroke-width:1;" x1="183.5998" x2="581.4362" y1="1368.1216" y2="1368.1216"/><line style="stroke:#000000;stroke-width:1;" x1="183.5998" x2="183.5998" y1="1272.782" y2="1368.1216"/><line style="stroke:#000000;stroke-width:1;" x1="236.8976" x2="236.8976" y1="1272.782" y2="1368.1216"/><line style="stroke:#000000;stroke-width:1;" x1="581.4362" x2="581.4362" y1="1272.782" y2="1368.1216"/><text fill="#000000" font-family="'Inter, Helvetica, sans-serif'" font-size="14" lengthAdjust="spacing" textLength="428.9165" x="183.5998" y="1385.0875">Arms are tried top-to-bottom; the FIRST matching condition wins.</text></g></g></svg>