<svg xmlns="http://www.w3.org/2000/svg" xmlns:xlink="http://www.w3.org/1999/xlink" contentStyleType="text/css" data-diagram-type="CLASS" height="1400px" preserveAspectRatio="none" style="width:1741px;height:1400px;background:#FBF8EF;" version="1.1" viewBox="0 0 1741 1400" width="1741px" zoomAndPan="magnify"><?plantuml $version$?><defs/><g><rect fill="#FBF8EF" height="1400" style="stroke:none;stroke-width:1;" width="1741" x="0" y="0"/><g class="title" data-source-line="8"><text fill="#000000" font-family="'Inter, Helvetica, sans-serif'" font-size="14" font-weight="700" lengthAdjust="spacing" textLength="574.572" x="579.714" y="24.9659">vinary-viewer state model &#8212; DataScript :doc entity (SSOT) + app-db (ephemeral UI)</text><text fill="#000000" font-family="'Inter, Helvetica, sans-serif'" font-size="14" font-weight="700" lengthAdjust="spacing" textLength="275.6169" x="729.1915" y="44.0339">linked by the amber :ds/rev bridge field</text></g><!--cluster DataScript conn  (vinary--><g class="cluster" data-qualified-name="DataScript conn  .vinary" data-source-line="18" id="ent0003"><path d="M862,65.7378 L1027.1594,65.7378 A6,6 0 0 1 1031.1594,69.7378 L1038.1594,90.8057 L1722,90.8057 A4,4 0 0 1 1726,94.8057 L1726,744.9578 A4,4 0 0 1 1722,748.9578 L862,748.9578 A4,4 0 0 1 858,744.9578 L858,69.7378 A4,4 0 0 1 862,65.7378" fill="none" style="stroke:#888888;stroke-width:1.5;"/><line style="stroke:#888888;stroke-width:1.5;" x1="858" x2="1038.1594" y1="90.8057" y2="90.8057"/><text fill="#1A1A1A" font-family="'Inter, Helvetica, sans-serif'" font-size="14" font-weight="700" lengthAdjust="spacing" textLength="167.1594" x="862" y="82.7038">DataScript conn  (vinary</text></g><!--cluster app--><g class="cluster" data-qualified-name="DataScript conn  .vinary.app" data-source-line="18" id="ent0004"><path d="M886,111.7378 L910.0819,111.7378 A6,6 0 0 1 914.0819,115.7378 L921.0819,136.8057 L1698,136.8057 A4,4 0 0 1 1702,140.8057 L1702,720.9578 A4,4 0 0 1 1698,724.9578 L886,724.9578 A4,4 0 0 1 882,720.9578 L882,115.7378 A4,4 0 0 1 886,111.7378" fill="none" style="stroke:#888888;stroke-width:1.5;"/><line style="stroke:#888888;stroke-width:1.5;" x1="882" x2="921.0819" y1="136.8057" y2="136.8057"/><text fill="#1A1A1A" font-family="'Inter, Helvetica, sans-serif'" font-size="14" font-weight="700" lengthAdjust="spacing" textLength="26.0819" x="886" y="128.7038">app</text></g><!--cluster ds)--><g class="cluster" data-qualified-name="DataScript conn  .vinary.app.ds." data-source-line="16" id="ent0001"><path d="M910,157.7378 L928.6219,157.7378 A6,6 0 0 1 932.6219,161.7378 L939.6219,182.8057 L1674,182.8057 A4,4 0 0 1 1678,186.8057 L1678,696.9578 A4,4 0 0 1 1674,700.9578 L910,700.9578 A4,4 0 0 1 906,696.9578 L906,161.7378 A4,4 0 0 1 910,157.7378" fill="none" style="stroke:#743F7B;stroke-width:1.5;"/><line style="stroke:#743F7B;stroke-width:1.5;" x1="906" x2="939.6219" y1="182.8057" y2="182.8057"/><text fill="#000000" font-family="'Inter, Helvetica, sans-serif'" font-size="14" font-weight="700" lengthAdjust="spacing" textLength="20.6219" x="910" y="174.7038">ds)</text></g><!--cluster app-db  (re-frame; vinary--><g class="cluster" data-qualified-name="app-db  .re-frame. vinary" data-source-line="43" id="ent0011"><path d="M10,473.6278 L180.9974,473.6278 A6,6 0 0 1 184.9974,477.6278 L191.9974,498.6957 L830,498.6957 A4,4 0 0 1 834,502.6957 L834,1247.3978 A4,4 0 0 1 830,1251.3978 L10,1251.3978 A4,4 0 0 1 6,1247.3978 L6,477.6278 A4,4 0 0 1 10,473.6278" fill="none" style="stroke:#888888;stroke-width:1.5;"/><line style="stroke:#888888;stroke-width:1.5;" x1="6" x2="191.9974" y1="498.6957" y2="498.6957"/><text fill="#1A1A1A" font-family="'Inter, Helvetica, sans-serif'" font-size="14" font-weight="700" lengthAdjust="spacing" textLength="172.9974" x="10" y="490.5938">app-db  (re-frame; vinary</text></g><!--cluster app--><g class="cluster" data-qualified-name="app-db  .re-frame. vinary.app" data-source-line="43" id="ent0012"><path d="M34,519.6278 L58.0819,519.6278 A6,6 0 0 1 62.0819,523.6278 L69.0819,544.6957 L806,544.6957 A4,4 0 0 1 810,548.6957 L810,1223.3978 A4,4 0 0 1 806,1227.3978 L34,1227.3978 A4,4 0 0 1 30,1223.3978 L30,523.6278 A4,4 0 0 1 34,519.6278" fill="none" style="stroke:#888888;stroke-width:1.5;"/><line style="stroke:#888888;stroke-width:1.5;" x1="30" x2="69.0819" y1="544.6957" y2="544.6957"/><text fill="#1A1A1A" font-family="'Inter, Helvetica, sans-serif'" font-size="14" font-weight="700" lengthAdjust="spacing" textLength="26.0819" x="34" y="536.5938">app</text></g><!--cluster db/default-db)--><g class="cluster" data-qualified-name="app-db  .re-frame. vinary.app.db.default-db." data-source-line="41" id="ent0009"><path d="M58,565.6278 L156.7856,565.6278 A6,6 0 0 1 160.7856,569.6278 L167.7856,590.6957 L782,590.6957 A4,4 0 0 1 786,594.6957 L786,1199.3978 A4,4 0 0 1 782,1203.3978 L58,1203.3978 A4,4 0 0 1 54,1199.3978 L54,569.6278 A4,4 0 0 1 58,565.6278" fill="none" style="stroke:#4C66AE;stroke-width:1.5;"/><line style="stroke:#4C66AE;stroke-width:1.5;" x1="54" x2="167.7856" y1="590.6957" y2="590.6957"/><text fill="#000000" font-family="'Inter, Helvetica, sans-serif'" font-size="14" font-weight="700" lengthAdjust="spacing" textLength="100.7856" x="58" y="582.5938">db/default-db)</text></g><!--class Schema--><g class="entity" data-qualified-name="DataScript conn  .vinary.app.ds..Schema" data-source-line="18" id="ent0002"><rect fill="#E0CDE2" height="87.6698" rx="4" ry="4" style="stroke:#181818;stroke-width:0.5;" width="313.3893" x="922.31" y="249.3478"/><ellipse cx="1049.2958" cy="265.3478" fill="#A45BAD" rx="11" ry="11" style="stroke:#181818;stroke-width:1;"/><path d="M1048.9676,272.0197 Q1048.0458,272.0197 1047.1551,271.8478 Q1046.2645,271.6603 1045.4833,271.2853 L1045.4833,269.0353 Q1046.4364,269.5197 1047.3114,269.7541 Q1048.202,269.9728 1049.0458,269.9728 Q1049.9208,269.9728 1050.4833,269.6759 Q1051.0458,269.3791 1051.0458,268.5978 Q1051.0458,268.0509 1050.7489,267.7541 Q1050.452,267.4416 1049.8895,267.1603 Q1049.327,266.8791 1048.5458,266.4728 Q1047.7645,266.0509 1047.1083,265.5666 Q1046.4676,265.0666 1046.0926,264.3947 Q1045.7176,263.7228 1045.7176,262.7697 Q1045.7176,261.1447 1046.8114,260.3478 Q1047.9208,259.5353 1049.702,259.5353 Q1050.4208,259.5353 1051.4051,259.7072 Q1052.3895,259.8634 1053.3426,260.3166 L1052.5614,262.2384 Q1051.7176,261.8791 1051.0301,261.7384 Q1050.3583,261.5822 1049.8426,261.5822 Q1048.9989,261.5822 1048.6083,261.9259 Q1048.2333,262.2541 1048.2333,262.8947 Q1048.2333,263.3791 1048.4676,263.6916 Q1048.7176,263.9884 1049.1864,264.2384 Q1049.6708,264.4884 1050.4051,264.8634 Q1051.4051,265.3478 1052.1083,265.8166 Q1052.8114,266.2853 1053.1864,266.9103 Q1053.5614,267.5197 1053.5614,268.4572 Q1053.5614,269.6447 1052.9833,270.4416 Q1052.4208,271.2228 1051.3739,271.6291 Q1050.3426,272.0197 1048.9676,272.0197 Z " fill="#000000"/><text fill="#1A1A1A" font-family="'Inter, Helvetica, sans-serif'" font-size="14" lengthAdjust="spacing" textLength="50.9178" x="1069.7958" y="270.7798">schema</text><line style="stroke:#181818;stroke-width:0.5;" x1="923.31" x2="1234.6993" y1="281.3478" y2="281.3478"/><text fill="#1A1A1A" font-family="'Inter, Helvetica, sans-serif'" font-size="14" lengthAdjust="spacing" textLength="301.3893" x="928.31" y="300.3138">:doc/path  &#8594;  {:db/unique :db.unique/identity}</text><line style="stroke:#181818;stroke-width:1;stroke-dasharray:1,2;" x1="923.31" x2="993.276" y1="317.9497" y2="317.9497"/><text fill="#1A1A1A" font-family="'Inter, Helvetica, sans-serif'" font-size="14" lengthAdjust="spacing" textLength="171.4573" x="993.276" y="322.8817">that is the ENTIRE schema</text><line style="stroke:#181818;stroke-width:1;stroke-dasharray:1,2;" x1="1164.7333" x2="1234.6993" y1="317.9497" y2="317.9497"/></g><!--class Doc--><g class="entity" data-qualified-name="DataScript conn  .vinary.app.ds..Doc" data-source-line="23" id="ent0005"><rect fill="#E0CDE2" height="194.8874" rx="4" ry="4" style="stroke:#181818;stroke-width:0.5;" width="391.3286" x="1270.34" y="195.7378"/><ellipse cx="1384.2436" cy="218.4438" fill="#A45BAD" rx="11" ry="11" style="stroke:#181818;stroke-width:1;"/><path d="M1380.603,224.9438 L1380.603,212.8032 L1388.2592,212.8032 L1388.2592,214.9282 L1382.978,214.9282 L1382.978,217.5845 L1387.9936,217.5845 L1387.9936,219.7095 L1382.978,219.7095 L1382.978,222.8188 L1388.2592,222.8188 L1388.2592,224.9438 L1380.603,224.9438 Z " fill="#000000"/><text fill="#000000" font-family="Inter, Helvetica, sans-serif" font-size="12" font-style="italic" lengthAdjust="spacing" textLength="41.0523" x="1461.7281" y="213.5659">&#171;entity&#187;</text><text fill="#1A1A1A" font-family="'Inter, Helvetica, sans-serif'" font-size="14" lengthAdjust="spacing" textLength="155.0214" x="1404.7436" y="232.0479">:doc  (one per open file)</text><line style="stroke:#181818;stroke-width:0.5;" x1="1271.34" x2="1660.6686" y1="241.1498" y2="241.1498"/><g data-visibility-modifier="PUBLIC_FIELD"><ellipse cx="1281.34" cy="256.1838" fill="none" rx="3" ry="3" style="stroke:#038048;stroke-width:1;"/></g><text fill="#1A1A1A" font-family="'Inter, Helvetica, sans-serif'" font-size="14" lengthAdjust="spacing" textLength="233.2531" x="1290.34" y="260.1158">:doc/path : string  &#171;unique identity&#187;</text><line style="stroke:#181818;stroke-width:1;" x1="1271.34" x2="1660.6686" y1="268.2178" y2="268.2178"/><text fill="#1A1A1A" font-family="'Inter, Helvetica, sans-serif'" font-size="14" lengthAdjust="spacing" textLength="379.3286" x="1276.34" y="287.1837">:doc/kind  : "markdown" | "image" | "text"  &#171;schema-less&#187;</text><text fill="#1A1A1A" font-family="'Inter, Helvetica, sans-serif'" font-size="14" lengthAdjust="spacing" textLength="357.4186" x="1276.34" y="306.2516">:doc/text  : string?   (absent for images)  &#171;schema-less&#187;</text><text fill="#1A1A1A" font-family="'Inter, Helvetica, sans-serif'" font-size="14" lengthAdjust="spacing" textLength="363.7046" x="1276.34" y="325.3195">:doc/html  : string?   (rendered output)     &#171;schema-less&#187;</text><text fill="#1A1A1A" font-family="'Inter, Helvetica, sans-serif'" font-size="14" lengthAdjust="spacing" textLength="377.3126" x="1276.34" y="344.3874">:doc/error : string?   (retracted when gone) &#171;schema-less&#187;</text><text fill="#1A1A1A" font-family="'Inter, Helvetica, sans-serif'" font-size="14" lengthAdjust="spacing" textLength="349.0886" x="1276.34" y="363.4554">:doc/open? : boolean   (is it a tab?)         &#171;schema-less&#187;</text><text fill="#1A1A1A" font-family="'Inter, Helvetica, sans-serif'" font-size="14" lengthAdjust="spacing" textLength="345.6167" x="1276.34" y="382.5233">:doc/order : long      (tab position)         &#171;schema-less&#187;</text></g><g class="entity" data-qualified-name="DataScript conn  .vinary.app.ds..GMN6" data-source-line="34" id="ent0007"><path d="M1289.52,625.8478 L1289.52,680.9659 A4,4 0 0 0 1293.52,684.9659 L1638.4753,684.9659 A4,4 0 0 0 1642.4753,680.9659 L1642.4753,631.8478 L1632.4753,621.8478 L1470,621.8478 L1466,391.1278 L1462,621.8478 L1293.52,621.8478 A4,4 0 0 0 1289.52,625.8478" fill="#FFF6D6" style="stroke:#7F6B14;stroke-width:0.5;"/><path d="M1632.4753,621.8478 L1632.4753,629.8478 A2,2 0 0 0 1634.4753,631.8478 L1642.4753,631.8478 L1632.4753,621.8478" fill="#FFF6D6" style="stroke:#7F6B14;stroke-width:0.5;"/><text fill="#000000" font-family="'Inter, Helvetica, sans-serif'" font-size="13" lengthAdjust="spacing" textLength="307.1252" x="1295.52" y="640.7448">&#171;schema-less&#187; = a plain scalar attribute that needs</text><text fill="#000000" font-family="'Inter, Helvetica, sans-serif'" font-size="13" lengthAdjust="spacing" textLength="331.9553" x="1295.52" y="658.4508">NO schema entry. DataScript requires schema only for</text><text fill="#000000" font-family="'Inter, Helvetica, sans-serif'" font-size="13" lengthAdjust="spacing" textLength="306.7874" x="1295.52" y="676.1569">:db.unique, :db.type/ref, and :db.cardinality/many.</text></g><!--class AppDb--><g class="entity" data-qualified-name="app-db  .re-frame. vinary.app.db.default-db..AppDb" data-source-line="43" id="ent0010"><rect fill="#C5CFEA" height="99.5479" rx="4" ry="4" style="stroke:#181818;stroke-width:0.5;" width="189.0293" x="517.49" y="603.6278"/><ellipse cx="568.6458" cy="626.3338" fill="#ADD1B2" rx="11" ry="11" style="stroke:#181818;stroke-width:1;"/><path d="M568.1145,633.2557 Q566.3645,633.2557 565.2239,632.5213 Q564.0989,631.7713 563.5364,630.4276 Q562.9895,629.0682 562.9895,627.2713 Q562.9895,625.2401 563.6458,623.787 Q564.302,622.3338 565.5833,621.5526 Q566.8645,620.7713 568.7395,620.7713 Q569.6302,620.7713 570.302,620.9588 Q570.9739,621.1307 571.6614,621.4745 L570.8489,623.4901 Q570.2239,623.1776 569.677,623.0526 Q569.1458,622.9276 568.6614,622.9276 Q567.4895,622.9276 566.7864,623.4588 Q566.0833,623.9901 565.7864,624.9432 Q565.4895,625.8963 565.4895,627.162 Q565.4895,629.1776 566.2083,630.1463 Q566.927,631.0995 568.5208,631.0995 Q569.1145,631.0995 569.7395,630.9432 Q570.3645,630.787 571.1927,630.412 L571.1927,632.6307 Q570.4583,632.9432 569.6614,633.0995 Q568.8802,633.2557 568.1145,633.2557 Z " fill="#000000"/><text fill="#000000" font-family="Inter, Helvetica, sans-serif" font-size="12" font-style="italic" lengthAdjust="spacing" textLength="35.7123" x="610.3985" y="621.4559">&#171;map&#187;</text><text fill="#1A1A1A" font-family="'Inter, Helvetica, sans-serif'" font-size="14" lengthAdjust="spacing" textLength="78.2177" x="589.1458" y="639.9379">app-db root</text><line style="stroke:#181818;stroke-width:0.5;" x1="518.49" x2="705.5193" y1="649.0398" y2="649.0398"/><text fill="#1A1A1A" font-family="'Inter, Helvetica, sans-serif'" font-size="14" lengthAdjust="spacing" textLength="177.0293" x="523.49" y="668.0058">:ds/rev : long = 0   &#171;bridge&#187;</text><text fill="#1A1A1A" font-family="'Inter, Helvetica, sans-serif'" font-size="14" lengthAdjust="spacing" textLength="56.0418" x="523.49" y="687.0737">:ui : { &#8230; }</text><line style="stroke:#181818;stroke-width:0.5;" x1="518.49" x2="705.5193" y1="695.1757" y2="695.1757"/></g><!--class Ui--><g class="entity" data-qualified-name="app-db  .re-frame. vinary.app.db.default-db..Ui" data-source-line="48" id="ent0013"><rect fill="#C5CFEA" height="156.7516" rx="4" ry="4" style="stroke:#181818;stroke-width:0.5;" width="319.8029" x="324.1" y="813.9578"/><ellipse cx="463.8953" cy="836.6638" fill="#ADD1B2" rx="11" ry="11" style="stroke:#181818;stroke-width:1;"/><path d="M463.3641,843.5857 Q461.6141,843.5857 460.4734,842.8513 Q459.3484,842.1013 458.7859,840.7576 Q458.2391,839.3982 458.2391,837.6013 Q458.2391,835.5701 458.8953,834.117 Q459.5516,832.6638 460.8328,831.8826 Q462.1141,831.1013 463.9891,831.1013 Q464.8797,831.1013 465.5516,831.2888 Q466.2234,831.4607 466.9109,831.8045 L466.0984,833.8201 Q465.4734,833.5076 464.9266,833.3826 Q464.3953,833.2576 463.9109,833.2576 Q462.7391,833.2576 462.0359,833.7888 Q461.3328,834.3201 461.0359,835.2732 Q460.7391,836.2263 460.7391,837.492 Q460.7391,839.5076 461.4578,840.4763 Q462.1766,841.4295 463.7703,841.4295 Q464.3641,841.4295 464.9891,841.2732 Q465.6141,841.117 466.4422,840.742 L466.4422,842.9607 Q465.7078,843.2732 464.9109,843.4295 Q464.1297,843.5857 463.3641,843.5857 Z " fill="#000000"/><text fill="#000000" font-family="Inter, Helvetica, sans-serif" font-size="12" font-style="italic" lengthAdjust="spacing" textLength="35.7123" x="482.3953" y="831.7859">&#171;map&#187;</text><text fill="#1A1A1A" font-family="'Inter, Helvetica, sans-serif'" font-size="14" lengthAdjust="spacing" textLength="16.0159" x="492.2435" y="850.2679">:ui</text><line style="stroke:#181818;stroke-width:0.5;" x1="325.1" x2="642.9029" y1="859.3698" y2="859.3698"/><text fill="#1A1A1A" font-family="'Inter, Helvetica, sans-serif'" font-size="14" lengthAdjust="spacing" textLength="307.8029" x="330.1" y="878.3358">:theme : "spacemacs-dark" | "spacemacs-light"</text><text fill="#1A1A1A" font-family="'Inter, Helvetica, sans-serif'" font-size="14" lengthAdjust="spacing" textLength="169.1613" x="330.1" y="897.4037">:sidebar-visible? : boolean</text><text fill="#1A1A1A" font-family="'Inter, Helvetica, sans-serif'" font-size="14" lengthAdjust="spacing" textLength="254.925" x="330.1" y="916.4716">:tree : {:root :files}  / :tree-filter : string?</text><line style="stroke:#181818;stroke-width:0.5;" x1="325.1" x2="642.9029" y1="924.5736" y2="924.5736"/><text fill="#1A1A1A" font-family="'Inter, Helvetica, sans-serif'" font-size="14" lengthAdjust="spacing" textLength="250.151" x="330.1" y="943.5395">:active-path : string?  (the focused tab)</text><text fill="#1A1A1A" font-family="'Inter, Helvetica, sans-serif'" font-size="14" lengthAdjust="spacing" textLength="210.9092" x="330.1" y="962.6074">:active-heading : id?   (scroll-spy)</text></g><!--class Hist--><g class="entity" data-qualified-name="app-db  .re-frame. vinary.app.db.default-db..Hist" data-source-line="56" id="ent0014"><rect fill="#C5CFEA" height="99.5479" rx="4" ry="4" style="stroke:#181818;stroke-width:0.5;" width="220.3833" x="69.81" y="1068.7778"/><ellipse cx="84.81" cy="1091.4838" fill="#ADD1B2" rx="11" ry="11" style="stroke:#181818;stroke-width:1;"/><path d="M84.2788,1098.4057 Q82.5288,1098.4057 81.3881,1097.6713 Q80.2631,1096.9213 79.7006,1095.5776 Q79.1538,1094.2182 79.1538,1092.4213 Q79.1538,1090.3901 79.81,1088.937 Q80.4663,1087.4838 81.7475,1086.7026 Q83.0288,1085.9213 84.9038,1085.9213 Q85.7944,1085.9213 86.4663,1086.1088 Q87.1381,1086.2807 87.8256,1086.6245 L87.0131,1088.6401 Q86.3881,1088.3276 85.8413,1088.2026 Q85.31,1088.0776 84.8256,1088.0776 Q83.6538,1088.0776 82.9506,1088.6088 Q82.2475,1089.1401 81.9506,1090.0932 Q81.6538,1091.0463 81.6538,1092.312 Q81.6538,1094.3276 82.3725,1095.2963 Q83.0913,1096.2495 84.685,1096.2495 Q85.2788,1096.2495 85.9038,1096.0932 Q86.5288,1095.937 87.3569,1095.562 L87.3569,1097.7807 Q86.6225,1098.0932 85.8256,1098.2495 Q85.0444,1098.4057 84.2788,1098.4057 Z " fill="#000000"/><text fill="#000000" font-family="Inter, Helvetica, sans-serif" font-size="12" font-style="italic" lengthAdjust="spacing" textLength="35.7123" x="175.1455" y="1086.6059">&#171;map&#187;</text><text fill="#1A1A1A" font-family="'Inter, Helvetica, sans-serif'" font-size="14" lengthAdjust="spacing" textLength="188.3833" x="98.81" y="1105.0879">:ui/history  (Command stack)</text><line style="stroke:#181818;stroke-width:0.5;" x1="70.81" x2="289.1933" y1="1114.1898" y2="1114.1898"/><text fill="#1A1A1A" font-family="'Inter, Helvetica, sans-serif'" font-size="14" lengthAdjust="spacing" textLength="102.6896" x="75.81" y="1133.1558">:stack : [path &#8230;]</text><text fill="#1A1A1A" font-family="'Inter, Helvetica, sans-serif'" font-size="14" lengthAdjust="spacing" textLength="98.8396" x="75.81" y="1152.2237">:idx   : long = -1</text><line style="stroke:#181818;stroke-width:0.5;" x1="70.81" x2="289.1933" y1="1160.3257" y2="1160.3257"/></g><!--class Find--><g class="entity" data-qualified-name="app-db  .re-frame. vinary.app.db.default-db..Find" data-source-line="61" id="ent0015"><rect fill="#C5CFEA" height="137.6837" rx="4" ry="4" style="stroke:#181818;stroke-width:0.5;" width="173.7554" x="325.12" y="1049.7178"/><ellipse cx="384.2908" cy="1072.4238" fill="#ADD1B2" rx="11" ry="11" style="stroke:#181818;stroke-width:1;"/><path d="M383.7595,1079.3457 Q382.0095,1079.3457 380.8689,1078.6113 Q379.7439,1077.8613 379.1814,1076.5176 Q378.6345,1075.1582 378.6345,1073.3613 Q378.6345,1071.3301 379.2908,1069.877 Q379.947,1068.4238 381.2283,1067.6426 Q382.5095,1066.8613 384.3845,1066.8613 Q385.2752,1066.8613 385.947,1067.0488 Q386.6189,1067.2207 387.3064,1067.5645 L386.4939,1069.5801 Q385.8689,1069.2676 385.322,1069.1426 Q384.7908,1069.0176 384.3064,1069.0176 Q383.1345,1069.0176 382.4314,1069.5488 Q381.7283,1070.0801 381.4314,1071.0332 Q381.1345,1071.9863 381.1345,1073.252 Q381.1345,1075.2676 381.8533,1076.2363 Q382.572,1077.1895 384.1658,1077.1895 Q384.7595,1077.1895 385.3845,1077.0332 Q386.0095,1076.877 386.8377,1076.502 L386.8377,1078.7207 Q386.1033,1079.0332 385.3064,1079.1895 Q384.5252,1079.3457 383.7595,1079.3457 Z " fill="#000000"/><text fill="#000000" font-family="Inter, Helvetica, sans-serif" font-size="12" font-style="italic" lengthAdjust="spacing" textLength="35.7123" x="410.3915" y="1067.5459">&#171;map&#187;</text><text fill="#1A1A1A" font-family="'Inter, Helvetica, sans-serif'" font-size="14" lengthAdjust="spacing" textLength="46.9138" x="404.7908" y="1086.0279">:ui/find</text><line style="stroke:#181818;stroke-width:0.5;" x1="326.12" x2="497.8754" y1="1095.1298" y2="1095.1298"/><text fill="#1A1A1A" font-family="'Inter, Helvetica, sans-serif'" font-size="14" lengthAdjust="spacing" textLength="161.7554" x="331.12" y="1114.0958">:visible? : boolean = false</text><text fill="#1A1A1A" font-family="'Inter, Helvetica, sans-serif'" font-size="14" lengthAdjust="spacing" textLength="117.9915" x="331.12" y="1133.1637">:query : string = ""</text><text fill="#1A1A1A" font-family="'Inter, Helvetica, sans-serif'" font-size="14" lengthAdjust="spacing" textLength="104.9716" x="331.12" y="1152.2316">:count : long = 0</text><text fill="#1A1A1A" font-family="'Inter, Helvetica, sans-serif'" font-size="14" lengthAdjust="spacing" textLength="94.3316" x="331.12" y="1171.2995">:idx   : long = 0</text><line style="stroke:#181818;stroke-width:0.5;" x1="326.12" x2="497.8754" y1="1179.4015" y2="1179.4015"/></g><!--class Input--><g class="entity" data-qualified-name="app-db  .re-frame. vinary.app.db.default-db..Input" data-source-line="68" id="ent0016"><rect fill="#FFFFFF" height="118.6158" rx="4" ry="4" style="stroke:#181818;stroke-width:0.5;" width="236.5031" x="533.75" y="1059.2478"/><ellipse cx="580.0058" cy="1091.4878" fill="#ADD1B2" rx="11" ry="11" style="stroke:#181818;stroke-width:1;"/><path d="M579.4746,1098.4097 Q577.7246,1098.4097 576.5839,1097.6753 Q575.4589,1096.9253 574.8964,1095.5815 Q574.3496,1094.2222 574.3496,1092.4253 Q574.3496,1090.394 575.0058,1088.9409 Q575.6621,1087.4878 576.9433,1086.7065 Q578.2246,1085.9253 580.0996,1085.9253 Q580.9902,1085.9253 581.6621,1086.1128 Q582.3339,1086.2847 583.0214,1086.6284 L582.2089,1088.644 Q581.5839,1088.3315 581.0371,1088.2065 Q580.5058,1088.0815 580.0214,1088.0815 Q578.8496,1088.0815 578.1464,1088.6128 Q577.4433,1089.144 577.1464,1090.0972 Q576.8496,1091.0503 576.8496,1092.3159 Q576.8496,1094.3315 577.5683,1095.3003 Q578.2871,1096.2534 579.8808,1096.2534 Q580.4746,1096.2534 581.0996,1096.0972 Q581.7246,1095.9409 582.5527,1095.5659 L582.5527,1097.7847 Q581.8183,1098.0972 581.0214,1098.2534 Q580.2402,1098.4097 579.4746,1098.4097 Z " fill="#000000"/><text fill="#000000" font-family="Inter, Helvetica, sans-serif" font-size="12" font-style="italic" lengthAdjust="spacing" textLength="35.7123" x="650.3954" y="1077.0759">&#171;map&#187;</text><text fill="#1A1A1A" font-family="'Inter, Helvetica, sans-serif'" font-size="14" lengthAdjust="spacing" textLength="135.4915" x="600.5058" y="1095.5579">:ui/input / :ui/palette</text><text fill="#1A1A1A" font-family="'Inter, Helvetica, sans-serif'" font-size="14" lengthAdjust="spacing" textLength="104.0336" x="616.2347" y="1114.6258">&#171;now available&#187;</text><line style="stroke:#181818;stroke-width:0.5;" x1="534.75" x2="769.2531" y1="1123.7278" y2="1123.7278"/><text fill="#1A1A1A" font-family="'Inter, Helvetica, sans-serif'" font-size="14" lengthAdjust="spacing" textLength="224.5031" x="539.75" y="1142.6937">:input {:mode :sequence :count &#8230;}</text><text fill="#1A1A1A" font-family="'Inter, Helvetica, sans-serif'" font-size="14" lengthAdjust="spacing" textLength="219.2671" x="539.75" y="1161.7616">:palette {:open? :source :query &#8230;}</text><line style="stroke:#181818;stroke-width:0.5;" x1="534.75" x2="769.2531" y1="1169.8636" y2="1169.8636"/></g><g class="entity" data-qualified-name="N1" data-source-line="83" id="ent0022"><path d="M400.64,239.0678 L400.64,347.3039 A4,4 0 0 0 404.64,351.3039 L608,351.3039 L612,603.3478 L616,351.3039 L819.3533,351.3039 A4,4 0 0 0 823.3533,347.3039 L823.3533,245.0678 L813.3533,235.0678 L404.64,235.0678 A4,4 0 0 0 400.64,239.0678" fill="#FFF6D6" style="stroke:#7F6B14;stroke-width:0.5;"/><path d="M813.3533,235.0678 L813.3533,243.0678 A2,2 0 0 0 815.3533,245.0678 L823.3533,245.0678 L813.3533,235.0678" fill="#FFF6D6" style="stroke:#7F6B14;stroke-width:0.5;"/><text fill="#000000" font-family="'Inter, Helvetica, sans-serif'" font-size="13" lengthAdjust="spacing" textLength="391.4043" x="406.64" y="253.9648">THE BRIDGE (amber): the two stores are kept in lock-step by one</text><text fill="#000000" font-family="'Inter, Helvetica, sans-serif'" font-size="13" lengthAdjust="spacing" textLength="384.8912" x="406.64" y="271.6708">field. Every DataScript transaction fires the conn listener, which</text><text fill="#000000" font-family="'Inter, Helvetica, sans-serif'" font-size="13" lengthAdjust="spacing" textLength="401.582" x="406.64" y="289.3769">dispatches [:ds/changed] &#8594; (update db :ds/rev inc). The subs :tabs</text><text fill="#000000" font-family="'Inter, Helvetica, sans-serif'" font-size="13" lengthAdjust="spacing" textLength="377.1303" x="406.64" y="307.0829">and :doc/active declare :&lt;- [:ds/rev], so they recompute per tx.</text><text fill="#000000" font-family="'Inter, Helvetica, sans-serif'" font-size="13" lengthAdjust="spacing" textLength="401.7133" x="406.64" y="324.7889">re-posh is a declared dependency but UNUSED &#8212; this hand-rolled</text><text fill="#000000" font-family="'Inter, Helvetica, sans-serif'" font-size="13" lengthAdjust="spacing" textLength="165.5941" x="406.64" y="342.4949">bridge is the real reactivity.</text></g><!--reverse link AppDb to Ui--><g class="link" data-entity-1="ent0010" data-entity-2="ent0013" data-link-type="composition" data-source-line="74" id="lnk17"><path codeLine="74" d="M579.7754,714.0552 C562.5654,745.9052 545.48,777.5378 525.86,813.8578" fill="none" id="AppDb-backto-Ui" style="stroke:#555555;stroke-width:1.3;"/><polygon fill="#555555" points="585.48,703.4978,579.1086,706.8749,579.7754,714.0552,586.1468,710.678,585.48,703.4978" style="stroke:#555555;stroke-width:1.3;stroke-linejoin:miter;stroke-miterlimit:10;"/><text fill="#000000" font-family="'Inter, Helvetica, sans-serif'" font-size="13" lengthAdjust="spacing" textLength="14.872" x="552.84" y="779.8548">:ui</text></g><!--reverse link Ui to Hist--><g class="link" data-entity-1="ent0013" data-entity-2="ent0014" data-link-type="composition" data-source-line="75" id="lnk18"><path codeLine="75" d="M368.8723,978.2502 C325.1423,1010.5002 285.38,1039.8278 246.79,1068.2978" fill="none" id="Ui-backto-Hist" style="stroke:#555555;stroke-width:1.3;"/><polygon fill="#555555" points="378.53,971.1278,371.327,971.4698,368.8723,978.2502,376.0753,977.9082,378.53,971.1278" style="stroke:#555555;stroke-width:1.3;stroke-linejoin:miter;stroke-miterlimit:10;"/><text fill="#000000" font-family="'Inter, Helvetica, sans-serif'" font-size="13" lengthAdjust="spacing" textLength="45.6561" x="333" y="1015.6148">:history</text></g><!--reverse link Ui to Find--><g class="link" data-entity-1="ent0013" data-entity-2="ent0015" data-link-type="composition" data-source-line="76" id="lnk19"><path codeLine="76" d="M455.3523,982.5536 C447.1923,1007.9736 441.86,1024.5778 433.93,1049.2478" fill="none" id="Ui-backto-Find" style="stroke:#555555;stroke-width:1.3;"/><polygon fill="#555555" points="459.02,971.1278,453.3775,975.6181,455.3523,982.5536,460.9947,978.0633,459.02,971.1278" style="stroke:#555555;stroke-width:1.3;stroke-linejoin:miter;stroke-miterlimit:10;"/><text fill="#000000" font-family="'Inter, Helvetica, sans-serif'" font-size="13" lengthAdjust="spacing" textLength="27.339" x="449" y="1015.6148">:find</text></g><!--reverse link Ui to Input--><g class="link" data-entity-1="ent0013" data-entity-2="ent0016" data-link-type="composition" data-source-line="77" id="lnk20"><path codeLine="77" d="M549.4836,980.7326 C571.0836,1009.5726 588.01,1032.1578 608.12,1058.9978" fill="none" id="Ui-backto-Input" style="stroke:#555555;stroke-width:1.3;"/><polygon fill="#555555" points="542.29,971.1278,542.6852,978.3281,549.4836,980.7326,549.0884,973.5323,542.29,971.1278" style="stroke:#555555;stroke-width:1.3;stroke-linejoin:miter;stroke-miterlimit:10;"/><text fill="#000000" font-family="'Inter, Helvetica, sans-serif'" font-size="13" lengthAdjust="spacing" textLength="93.3661" x="579.06" y="1015.6148">:input / :palette</text></g><!--link Doc to AppDb--><g class="link" data-entity-1="ent0005" data-entity-2="ent0010" data-link-type="dependency" data-source-line="80" id="lnk21"><path codeLine="80" d="M1269.89,384.8078 C1264.23,386.8378 1258.59,388.7878 1253,390.6278 C1103.18,440.1178 1051.97,405.7278 906,465.6278 C820.27,500.8078 735.8335,557.8259 678.6435,600.3159" fill="none" id="Doc-to-AppDb" style="stroke:#B1951D;stroke-width:2;"/><polygon fill="#B1951D" points="674.63,603.2978,684.2398,601.1412,678.6435,600.3159,679.4688,594.7196,674.63,603.2978" style="stroke:#B1951D;stroke-width:2;stroke-linejoin:miter;stroke-miterlimit:10;"/><text fill="#000000" font-family="'Inter, Helvetica, sans-serif'" font-size="13" font-weight="700" lengthAdjust="spacing" textLength="53.417" x="1109.17" y="435.5248">d/listen!</text><text fill="#000000" font-family="'Inter, Helvetica, sans-serif'" font-size="13" lengthAdjust="spacing" textLength="98.2917" x="1165.967" y="435.5248">&#8594; [:ds/changed]</text><text fill="#000000" font-family="'Inter, Helvetica, sans-serif'" font-size="13" font-weight="700" lengthAdjust="spacing" textLength="145.2881" x="1114.0703" y="453.2308">(update db :ds/rev inc)</text></g><g class="legend" data-source-line="92"><rect fill="none" height="109.3396" rx="4" ry="4" style="stroke:#000000;stroke-width:1;" width="574.1139" x="1147.8861" y="1272.3978"/><text fill="#000000" font-family="'Inter, Helvetica, sans-serif'" font-size="14" font-weight="700" lengthAdjust="spacing" textLength="46.0178" x="1156.5261" y="1294.3638">Colour</text><text fill="#000000" font-family="'Inter, Helvetica, sans-serif'" font-size="14" font-weight="700" lengthAdjust="spacing" textLength="57.3438" x="1209.8239" y="1294.3638">Concept</text><rect fill="#A45BAD" height="19.0679" style="stroke:none;stroke-width:1;" width="53.2978" x="1152.8861" y="1298.4657"/><text fill="#000000" font-family="'Inter, Helvetica, sans-serif'" font-size="14" lengthAdjust="spacing" textLength="14.5599" x="1152.8861" y="1313.4317">&#160;&#160;&#160;&#160;</text><text fill="#000000" font-family="'Inter, Helvetica, sans-serif'" font-size="14" lengthAdjust="spacing" textLength="349.7607" x="1209.8239" y="1313.4317">DataScript &#8212; single source of truth (documents/tabs)</text><rect fill="#7590DB" height="19.0679" style="stroke:none;stroke-width:1;" width="53.2978" x="1152.8861" y="1317.5336"/><text fill="#000000" font-family="'Inter, Helvetica, sans-serif'" font-size="14" lengthAdjust="spacing" textLength="14.5599" x="1152.8861" y="1332.4996">&#160;&#160;&#160;&#160;</text><text fill="#000000" font-family="'Inter, Helvetica, sans-serif'" font-size="14" lengthAdjust="spacing" textLength="263.857" x="1209.8239" y="1332.4996">app-db &#8212; ephemeral UI state (re-frame)</text><rect fill="#B1951D" height="19.0679" style="stroke:none;stroke-width:1;" width="53.2978" x="1152.8861" y="1336.6016"/><text fill="#000000" font-family="'Inter, Helvetica, sans-serif'" font-size="14" lengthAdjust="spacing" textLength="14.5599" x="1152.8861" y="1351.5675">&#160;&#160;&#160;&#160;</text><text fill="#000000" font-family="'Inter, Helvetica, sans-serif'" font-size="14" lengthAdjust="spacing" textLength="281.1314" x="1209.8239" y="1351.5675">:ds/rev bridge field (DataScript &#8644; re-frame)</text><line style="stroke:#000000;stroke-width:1;" x1="1152.8861" x2="1563.2245" y1="1279.3978" y2="1279.3978"/><line style="stroke:#000000;stroke-width:1;" x1="1152.8861" x2="1563.2245" y1="1298.4657" y2="1298.4657"/><line style="stroke:#000000;stroke-width:1;" x1="1152.8861" x2="1563.2245" y1="1317.5336" y2="1317.5336"/><line style="stroke:#000000;stroke-width:1;" x1="1152.8861" x2="1563.2245" y1="1336.6016" y2="1336.6016"/><line style="stroke:#000000;stroke-width:1;" x1="1152.8861" x2="1563.2245" y1="1355.6695" y2="1355.6695"/><line style="stroke:#000000;stroke-width:1;" x1="1152.8861" x2="1152.8861" y1="1279.3978" y2="1355.6695"/><line style="stroke:#000000;stroke-width:1;" x1="1206.1839" x2="1206.1839" y1="1279.3978" y2="1355.6695"/><line style="stroke:#000000;stroke-width:1;" x1="1563.2245" x2="1563.2245" y1="1279.3978" y2="1355.6695"/><text fill="#000000" font-family="'Inter, Helvetica, sans-serif'" font-size="14" lengthAdjust="spacing" textLength="564.1139" x="1152.8861" y="1372.6354">&#171;schema-less&#187; needs no schema &#183; &#171;unique&#187; = identity key &#183; &#171;now available&#187; = available</text></g><?plantuml-src VLV1RXiv4hthAsfaO29fB2dUJHnC9tOWM_QCWHqdY6tC8Ga6L3Sb4MwHFIHRZk0OsCDYvpxORzXBFc0FkVbJvals5TcIMevj9R3RJR9OzLxLgzAJ9_Gs5zfV_F8FCdDfwHTfPq9bD9AfA9qaFvNalF2IPYQJEIb7_ihGL7ffpKHgQKg73SPAHor1LkR2AwD5JabcKfBQAxzeF7b2LyfFwVPBgTNlfRpzsh_zujAfd8bkBfsx_GeRqahZ5uNCI7XlrQZqqcrJaUC2GLfYGqQom1bfOLuKHJSRqKmKRHgPKiFb1Haj-Iun6o6KaLNPHD9OoJnxkGuppOLpy3OLrYvgrphwWLAJczA6XrbXdE9G2FlC5SAU2a_oKu587L_Ih3nuy-lf6SC4i5okKkcQ9E1Dav6hkm2RPO5W0wICOKIjIN_zypyhs8DpGoKcLipWeTR6yrsLNpF9WJdInjOS9wKpDLTPoQYiaEirlbCwpSjCqc_pUTSpRZrLpl960vJaakPA2xlepfMyadQ3OtPeABmuIwqgV9r8QfsTlJbl0w0g-DQQa8kJzWUTAtqf0nKSPUGXoLpVola668s6krIw425CZfck6qI3fVV7Hlj3n6nfQsV0_x1u8DBBYMMcgvNZy6dSD1YXxkfJSps9wQlq1F4w89XACcFojaGkZc43aPKpXERwNenSpKYZm6q2tZPhGAH6Qw9M1Au717gPQpVfrQjZasVIxk_J5kANoOjdVpz-SO28u7KChXbp7PdXw2myuXJ0tDuQF7j-C1Ys2OU7W_F1sU6xaxVdlvsVd9u7H2YWtoy47AQ__lqdqNMIZVgnYh0swiN7lieYGpVXKAyNqrN5R3iwFJzvTqJH2InYpqtDkK0mjL0yL80lKqWDbdBP3luEiSZE7gsThPBXGPz_g7cT8BKi620OgTnU-hg_7tO3xLMWI8eCZzIS2NkPcIlTfC_KL3DG4Pwy_EIRRAec7fMPS9xNQNNdQxnkWLXS5-WETbpxaVDJFylldBTIWrmajIbzKVesxttOW8HOsBi6l1KfgzVL5CXEW7FxOGEC_ciO61cJIw7P05XK7Xg877qTht_K1MCphZhA3QFEdnPEqbBF7hF0sGF9WN0PxysCYmNq1zDtzNeF3XMvK1ff9N9Xrz8JKqzBcRbmylJDClF00mgdhYrM_bugxXtL3gFp1LDLHRDCx-tmp6879Hbl1u7bDz3m3DMO8vdwCw4NdDcWAyJmhJ14pKgehbdnnliAlr8uvgyxXax9brIl_54_asDHvXwRxXE1PuUxkuEZ3H6eB5fZVAYiGL4CHrnRQ69SJ8EtRuS7cxKVbRFYSe-U1jQYa2ufBnNMho7Q_mtqRHHsgS955-hHMv2SQYwx6-NwchC6qZ66GZgaBZAe7NU7Ji8bwW0LE4jTDqEnXl9SlyhLPEgR6_QdKcGi10a481I6Iwt9ywuh5fLf1sKO2OkUvDGebxKogAwsac--JXX2IbYZt0rHFwvqyRUNjUBx5et-L77NNU3oGpERSHgXyQMNKUb-nkAZG8MziFy-G0N4FyRtAll4lvOiTNVkkNaCPGkt7BF4FNRBjz73vbZaJiPrr0CYMEdg7ZKhd35WGEZMoNAlSq_lyGsTkFGC8vuBaKllvGTz-qMRAn9peN81Tsw_1kzFmjQr-vNFqS9rmWC4S49LIurcMxa4f69VIYhhs5dfNDMLgw2gZJTSkx4wEgXRfE_gax2JZVY6rm9dwxMAtzg60FTw0zDGMutXh5PNG5H-1WLPJpAny1AMOYkquxp6V8Z_OJ8ObRF2BMjs6sAlqcbOwTegyrs98IEJ1KkKqGtkhDttMmSxFpxV6MvxxB_4cEls_lQnkr-9GqATJjRF4PNKttKwOGHuprUaKw4dClluGNSwhRB8U7g3jYmL0wDVkzDfD8AOWxRJdJ0lxGvt0U_vpqTqyEva-DCHkYC7raxk3AMOUILTIWWqz3qtwMKN3XJB2PlY3DUZepcJLfFpEYpZeEjiDw0JOv2s0WP6CWMvyD1zjnbI2FA1c7fqpXCTuvZmo0OpiHUWxqMP0Rx8RBYVlEf6kpZxSHlZ7_koGCVXsPxR5Cyw_XEt32WykkEKnoMnF9zLH26F5w3MqyNfnTdHC0p7eCeHlCswB60oWubgkAq6BX2Uym_s2BsfrrWr9H21uIoGssZaSi8BbhKIDZxlqM4SzCCJ2WYGVkQ5LzNejV_zrixkqvVV_lnSPu5TV63eRMrElEsb-HVFVtmwF7Z4VDMxsFH6-upV6rOzScKm9lKZ1k_xLa2jUXH__8ispTuTGSA80LYNmyFj_sfVC25ropaJcRo8YtSKZOUOvLzCKUJZ_m00?></g></svg>