<svg xmlns="http://www.w3.org/2000/svg" xmlns:xlink="http://www.w3.org/1999/xlink" contentStyleType="text/css" data-diagram-type="DESCRIPTION" height="1111px" preserveAspectRatio="none" style="width:1001px;height:1111px;background:#FBF8EF;" version="1.1" viewBox="0 0 1001 1111" width="1001px" zoomAndPan="magnify"><?plantuml $version$?><defs/><g><rect fill="#FBF8EF" height="1111" style="stroke:none;stroke-width:1;" width="1001" x="0" y="0"/><g class="title" data-source-line="6"><text fill="#000000" font-family="'Inter, Helvetica, sans-serif'" font-size="14" font-weight="700" lengthAdjust="spacing" textLength="467.6121" x="263.2397" y="24.9659">Diff / patch rendering &#8212; one pure model, two views (unified + split)</text></g><!--cluster Pure model + IR front-end--><g class="cluster" data-qualified-name="Pure model . IR front-end" data-source-line="10" id="ent0002"><path d="M10,162.2079 L187.7733,162.2079 A6,6 0 0 1 191.7733,166.2079 L198.7733,187.2758 L290,187.2758 A4,4 0 0 1 294,191.2758 L294,428.5479 A4,4 0 0 1 290,432.5479 L10,432.5479 A4,4 0 0 1 6,428.5479 L6,166.2079 A4,4 0 0 1 10,162.2079" fill="none" style="stroke:#888888;stroke-width:1.5;"/><line style="stroke:#888888;stroke-width:1.5;" x1="6" x2="198.7733" y1="187.2758" y2="187.2758"/><text fill="#1A1A1A" font-family="'Inter, Helvetica, sans-serif'" font-size="14" font-weight="700" lengthAdjust="spacing" textLength="179.7733" x="10" y="179.1739">Pure model + IR front-end</text></g><!--cluster Unified view--><g class="cluster" data-qualified-name="Unified view" data-source-line="15" id="ent0005"><path d="M12,483.5479 L96.8417,483.5479 A6,6 0 0 1 100.8417,487.5479 L107.8417,508.6158 L573,508.6158 A4,4 0 0 1 577,512.6158 L577,620.7479 A4,4 0 0 1 573,624.7479 L12,624.7479 A4,4 0 0 1 8,620.7479 L8,487.5479 A4,4 0 0 1 12,483.5479" fill="none" style="stroke:#888888;stroke-width:1.5;"/><line style="stroke:#888888;stroke-width:1.5;" x1="8" x2="107.8417" y1="508.6158" y2="508.6158"/><text fill="#1A1A1A" font-family="'Inter, Helvetica, sans-serif'" font-size="14" font-weight="700" lengthAdjust="spacing" textLength="86.8417" x="12" y="500.5139">Unified view</text></g><!--cluster Split / side-by-side view  (GUI only)--><g class="cluster" data-qualified-name="Split . side-by-side view  .GUI only." data-source-line="20" id="ent0008"><path d="M605,493.0779 L842.4831,493.0779 A6,6 0 0 1 846.4831,497.0779 L853.4831,518.1458 L852,518.1458 A4,4 0 0 1 856,522.1458 L856,611.2179 A4,4 0 0 1 852,615.2179 L605,615.2179 A4,4 0 0 1 601,611.2179 L601,497.0779 A4,4 0 0 1 605,493.0779" fill="none" style="stroke:#888888;stroke-width:1.5;"/><line style="stroke:#888888;stroke-width:1.5;" x1="601" x2="853.4831" y1="518.1458" y2="518.1458"/><text fill="#1A1A1A" font-family="'Inter, Helvetica, sans-serif'" font-size="14" font-weight="700" lengthAdjust="spacing" textLength="239.4831" x="605" y="510.0439">Split / side-by-side view  (GUI only)</text></g><!--entity Model--><g class="entity" data-qualified-name="Pure model . IR front-end.Model" data-source-line="11" id="ent0003"><rect fill="#F1D6BE" height="87.2038" rx="4" ry="4" style="stroke:#4A4A4A;stroke-width:1.4;" width="255.6691" x="22.17" y="200.2079"/><rect fill="#F1D6BE" height="10" style="stroke:#4A4A4A;stroke-width:1.4;" width="15" x="257.8391" y="205.2079"/><rect fill="#F1D6BE" height="2" style="stroke:#4A4A4A;stroke-width:1.4;" width="4" x="255.8391" y="207.2079"/><rect fill="#F1D6BE" height="2" style="stroke:#4A4A4A;stroke-width:1.4;" width="4" x="255.8391" y="211.2079"/><text fill="#1A1A1A" font-family="'Inter, Helvetica, sans-serif'" font-size="14" lengthAdjust="spacing" textLength="73.6257" x="37.17" y="235.1739">`vinary.diff`</text><text fill="#1A1A1A" font-family="'Inter, Helvetica, sans-serif'" font-size="14" lengthAdjust="spacing" textLength="215.6691" x="37.17" y="254.2418">pure parse: files -&gt; hunks -&gt; lines</text><text fill="#1A1A1A" font-family="'Inter, Helvetica, sans-serif'" font-size="14" lengthAdjust="spacing" textLength="127.8195" x="37.17" y="273.3097">(add / del / context)</text></g><!--entity FE--><g class="entity" data-qualified-name="Pure model . IR front-end.FE" data-source-line="12" id="ent0004"><rect fill="#F1D6BE" height="68.1358" rx="4" ry="4" style="stroke:#4A4A4A;stroke-width:1.4;" width="184.3954" x="57.8" y="348.4079"/><rect fill="#F1D6BE" height="10" style="stroke:#4A4A4A;stroke-width:1.4;" width="15" x="222.1954" y="353.4079"/><rect fill="#F1D6BE" height="2" style="stroke:#4A4A4A;stroke-width:1.4;" width="4" x="220.1954" y="355.4079"/><rect fill="#F1D6BE" height="2" style="stroke:#4A4A4A;stroke-width:1.4;" width="4" x="220.1954" y="359.4079"/><text fill="#1A1A1A" font-family="'Inter, Helvetica, sans-serif'" font-size="14" lengthAdjust="spacing" textLength="104.5516" x="72.8" y="383.3739">`ir.frontend.diff`</text><text fill="#1A1A1A" font-family="'Inter, Helvetica, sans-serif'" font-size="14" lengthAdjust="spacing" textLength="144.3954" x="72.8" y="402.4418">diff model -&gt; IR nodes</text></g><!--entity UHtml--><g class="entity" data-qualified-name="Unified view.UHtml" data-source-line="16" id="ent0006"><rect fill="#D7EEC1" height="87.2038" rx="4" ry="4" style="stroke:#4A4A4A;stroke-width:1.4;" width="261.3531" x="299.32" y="521.5479"/><rect fill="#D7EEC1" height="10" style="stroke:#4A4A4A;stroke-width:1.4;" width="15" x="540.6731" y="526.5479"/><rect fill="#D7EEC1" height="2" style="stroke:#4A4A4A;stroke-width:1.4;" width="4" x="538.6731" y="528.5479"/><rect fill="#D7EEC1" height="2" style="stroke:#4A4A4A;stroke-width:1.4;" width="4" x="538.6731" y="532.5479"/><text fill="#1A1A1A" font-family="'Inter, Helvetica, sans-serif'" font-size="14" lengthAdjust="spacing" textLength="89.9776" x="314.32" y="556.5139">backend.html</text><text fill="#1A1A1A" font-family="'Inter, Helvetica, sans-serif'" font-size="14" lengthAdjust="spacing" textLength="187.6833" x="314.32" y="575.5818">`div.vv-diff` + `data-*` gutters</text><text fill="#1A1A1A" font-family="'Inter, Helvetica, sans-serif'" font-size="14" lengthAdjust="spacing" textLength="221.3531" x="314.32" y="594.6497">(GUI line numbers, ANSI-invisible)</text></g><!--entity UAnsi--><g class="entity" data-qualified-name="Unified view.UAnsi" data-source-line="17" id="ent0007"><rect fill="#F1D6BE" height="68.1358" rx="4" ry="4" style="stroke:#4A4A4A;stroke-width:1.4;" width="240.4372" x="23.78" y="531.0779"/><rect fill="#F1D6BE" height="10" style="stroke:#4A4A4A;stroke-width:1.4;" width="15" x="244.2172" y="536.0779"/><rect fill="#F1D6BE" height="2" style="stroke:#4A4A4A;stroke-width:1.4;" width="4" x="242.2172" y="538.0779"/><rect fill="#F1D6BE" height="2" style="stroke:#4A4A4A;stroke-width:1.4;" width="4" x="242.2172" y="542.0779"/><text fill="#1A1A1A" font-family="'Inter, Helvetica, sans-serif'" font-size="14" lengthAdjust="spacing" textLength="86.3937" x="38.78" y="566.0439">backend.ansi</text><text fill="#1A1A1A" font-family="'Inter, Helvetica, sans-serif'" font-size="14" lengthAdjust="spacing" textLength="200.4372" x="38.78" y="585.1118">coloured unified diff (vv-cli/tui)</text></g><!--entity Split--><g class="entity" data-qualified-name="Split . side-by-side view  .GUI only..Split" data-source-line="21" id="ent0009"><rect fill="#C7E8DE" height="68.1358" rx="4" ry="4" style="stroke:#4A4A4A;stroke-width:1.4;" width="162.7795" x="616.61" y="531.0779"/><rect fill="#C7E8DE" height="10" style="stroke:#4A4A4A;stroke-width:1.4;" width="15" x="759.3895" y="536.0779"/><rect fill="#C7E8DE" height="2" style="stroke:#4A4A4A;stroke-width:1.4;" width="4" x="757.3895" y="538.0779"/><rect fill="#C7E8DE" height="2" style="stroke:#4A4A4A;stroke-width:1.4;" width="4" x="757.3895" y="542.0779"/><text fill="#1A1A1A" font-family="'Inter, Helvetica, sans-serif'" font-size="14" lengthAdjust="spacing" textLength="89.5297" x="631.61" y="566.0439">split renderer</text><text fill="#1A1A1A" font-family="'Inter, Helvetica, sans-serif'" font-size="14" lengthAdjust="spacing" textLength="122.7795" x="631.61" y="585.1118">old | new columns</text></g><!--entity Src--><g class="entity" data-qualified-name="Src" data-source-line="8" id="ent0001"><rect fill="#DFD9D0" height="68.1358" rx="4" ry="4" style="stroke:#4A4A4A;stroke-width:1.4;" width="234.5152" x="32.74" y="47.0679"/><rect fill="#DFD9D0" height="10" style="stroke:#4A4A4A;stroke-width:1.4;" width="15" x="247.2552" y="52.0679"/><rect fill="#DFD9D0" height="2" style="stroke:#4A4A4A;stroke-width:1.4;" width="4" x="245.2552" y="54.0679"/><rect fill="#DFD9D0" height="2" style="stroke:#4A4A4A;stroke-width:1.4;" width="4" x="245.2552" y="58.0679"/><text fill="#1A1A1A" font-family="'Inter, Helvetica, sans-serif'" font-size="14" lengthAdjust="spacing" textLength="142.3375" x="47.74" y="82.0339">`.diff` / `.patch` source</text><text fill="#1A1A1A" font-family="'Inter, Helvetica, sans-serif'" font-size="14" lengthAdjust="spacing" textLength="194.5152" x="47.74" y="101.1018">(git format-patch, unified diff)</text></g><!--entity Seam--><g class="entity" data-qualified-name="Seam" data-source-line="24" id="ent0010"><rect fill="#EEE6C1" height="68.1358" rx="4" ry="4" style="stroke:#4A4A4A;stroke-width:1.4;" width="176.1915" x="810.9" y="689.7479"/><rect fill="#EEE6C1" height="10" style="stroke:#4A4A4A;stroke-width:1.4;" width="15" x="967.0915" y="694.7479"/><rect fill="#EEE6C1" height="2" style="stroke:#4A4A4A;stroke-width:1.4;" width="4" x="965.0915" y="696.7479"/><rect fill="#EEE6C1" height="2" style="stroke:#4A4A4A;stroke-width:1.4;" width="4" x="965.0915" y="700.7479"/><text fill="#1A1A1A" font-family="'Inter, Helvetica, sans-serif'" font-size="14" lengthAdjust="spacing" textLength="90.0197" x="825.9" y="724.7139">preload seam</text><text fill="#1A1A1A" font-family="'Inter, Helvetica, sans-serif'" font-size="14" lengthAdjust="spacing" textLength="136.1915" x="825.9" y="743.7818">`vv:load-diff-sources`</text></g><!--entity Main--><g class="entity" data-qualified-name="Main" data-source-line="25" id="ent0011"><rect fill="#C9D2E6" height="87.2038" rx="4" ry="4" style="stroke:#4A4A4A;stroke-width:1.4;" width="186.5234" x="538.74" y="818.8879"/><rect fill="#C9D2E6" height="10" style="stroke:#4A4A4A;stroke-width:1.4;" width="15" x="705.2634" y="823.8879"/><rect fill="#C9D2E6" height="2" style="stroke:#4A4A4A;stroke-width:1.4;" width="4" x="703.2634" y="825.8879"/><rect fill="#C9D2E6" height="2" style="stroke:#4A4A4A;stroke-width:1.4;" width="4" x="703.2634" y="829.8879"/><text fill="#1A1A1A" font-family="'Inter, Helvetica, sans-serif'" font-size="14" lengthAdjust="spacing" textLength="82.6837" x="553.74" y="853.8539">main.service</text><text fill="#1A1A1A" font-family="'Inter, Helvetica, sans-serif'" font-size="14" lengthAdjust="spacing" textLength="146.5234" x="553.74" y="872.9218">read both on-disk files</text><text fill="#1A1A1A" font-family="'Inter, Helvetica, sans-serif'" font-size="14" lengthAdjust="spacing" textLength="116.1436" x="553.74" y="891.9897">(pre/post images)</text></g><!--entity Toggle--><g class="entity" data-qualified-name="Toggle" data-source-line="27" id="ent0012"><rect fill="#C5CFEA" height="68.1358" rx="4" ry="4" style="stroke:#4A4A4A;stroke-width:1.4;" width="227.6413" x="450.18" y="348.4079"/><rect fill="#C5CFEA" height="10" style="stroke:#4A4A4A;stroke-width:1.4;" width="15" x="657.8213" y="353.4079"/><rect fill="#C5CFEA" height="2" style="stroke:#4A4A4A;stroke-width:1.4;" width="4" x="655.8213" y="355.4079"/><rect fill="#C5CFEA" height="2" style="stroke:#4A4A4A;stroke-width:1.4;" width="4" x="655.8213" y="359.4079"/><text fill="#1A1A1A" font-family="'Inter, Helvetica, sans-serif'" font-size="14" lengthAdjust="spacing" textLength="153.9714" x="465.18" y="383.3739">`[Unified | Split]` toggle</text><text fill="#1A1A1A" font-family="'Inter, Helvetica, sans-serif'" font-size="14" lengthAdjust="spacing" textLength="187.6413" x="465.18" y="402.4418">(toolbar + command palette)</text></g><!--link Src to Model--><g class="link" data-entity-1="ent0001" data-entity-2="ent0003" data-link-type="dependency" data-source-line="29" id="lnk13"><path d="M150,115.4279 C150,139.8779 150,168.3079 150,194.7779" fill="none" id="Src-to-Model" style="stroke:#555555;stroke-width:1.3;"/><polygon fill="#555555" points="150,199.7779,154,190.7779,150,194.7779,146,190.7779,150,199.7779" style="stroke:#555555;stroke-width:1.3;stroke-linejoin:miter;stroke-miterlimit:10;"/></g><!--link Model to FE--><g class="link" data-entity-1="ent0003" data-entity-2="ent0004" data-link-type="dependency" data-source-line="30" id="lnk14"><path d="M150,287.6779 C150,307.2479 150,325.0679 150,343.2979" fill="none" id="Model-to-FE" style="stroke:#555555;stroke-width:1.3;"/><polygon fill="#555555" points="150,348.2979,154,339.2979,150,343.2979,146,339.2979,150,348.2979" style="stroke:#555555;stroke-width:1.3;stroke-linejoin:miter;stroke-miterlimit:10;"/></g><!--link FE to UHtml--><g class="link" data-entity-1="ent0004" data-entity-2="ent0006" data-link-type="dependency" data-source-line="31" id="lnk15"><path d="M202.01,417.0379 C247.56,446.4279 309.7988,486.5869 359.2188,518.4769" fill="none" id="FE-to-UHtml" style="stroke:#555555;stroke-width:1.3;"/><polygon fill="#555555" points="363.42,521.1879,358.0266,512.9471,359.2188,518.4769,353.689,519.6691,363.42,521.1879" style="stroke:#555555;stroke-width:1.3;stroke-linejoin:miter;stroke-miterlimit:10;"/></g><!--link FE to UAnsi--><g class="link" data-entity-1="ent0004" data-entity-2="ent0007" data-link-type="dependency" data-source-line="32" id="lnk16"><path d="M148.89,417.0379 C147.81,449.4879 146.3451,493.3806 145.2751,525.7706" fill="none" id="FE-to-UAnsi" style="stroke:#555555;stroke-width:1.3;"/><polygon fill="#555555" points="145.11,530.7679,149.405,521.9049,145.2751,525.7706,141.4093,521.6408,145.11,530.7679" style="stroke:#555555;stroke-width:1.3;stroke-linejoin:miter;stroke-miterlimit:10;"/></g><!--link Toggle to UHtml--><g class="link" data-entity-1="ent0012" data-entity-2="ent0006" data-link-type="dependency" data-source-line="33" id="lnk17"><path d="M539.11,417.0379 C517.31,446.4279 488.4884,485.2818 464.8384,517.1718" fill="none" id="Toggle-to-UHtml" style="stroke:#555555;stroke-width:1.3;"/><polygon fill="#555555" points="461.86,521.1879,470.434,516.3416,464.8384,517.1718,464.0082,511.5762,461.86,521.1879" style="stroke:#555555;stroke-width:1.3;stroke-linejoin:miter;stroke-miterlimit:10;"/><text fill="#000000" font-family="'Inter, Helvetica, sans-serif'" font-size="13" lengthAdjust="spacing" textLength="42.575" x="513.94" y="463.4449">unified</text></g><!--link Toggle to Split--><g class="link" data-entity-1="ent0012" data-entity-2="ent0009" data-link-type="dependency" data-source-line="34" id="lnk18"><path d="M588.89,417.0379 C612.96,449.4879 646.2417,494.3618 670.2617,526.7518" fill="none" id="Toggle-to-Split" style="stroke:#555555;stroke-width:1.3;"/><polygon fill="#555555" points="673.24,530.7679,671.0919,521.1562,670.2617,526.7518,664.6661,525.9215,673.24,530.7679" style="stroke:#555555;stroke-width:1.3;stroke-linejoin:miter;stroke-miterlimit:10;"/><text fill="#000000" font-family="'Inter, Helvetica, sans-serif'" font-size="13" lengthAdjust="spacing" textLength="25.623" x="623.98" y="463.4449">split</text></g><!--link Split to Seam--><g class="link" data-entity-1="ent0009" data-entity-2="ent0010" data-link-type="dependency" data-source-line="35" id="lnk19"><path d="M740.63,599.3679 C774.62,625.8679 818.0761,659.7445 852.1461,686.2945" fill="none" id="Split-to-Seam" style="stroke:#555555;stroke-width:1.3;stroke-dasharray:7,7;"/><polygon fill="#555555" points="856.09,689.3679,851.4497,680.6807,852.1461,686.2945,846.5323,686.9909,856.09,689.3679" style="stroke:#555555;stroke-width:1.3;stroke-linejoin:miter;stroke-miterlimit:10;"/><text fill="#000000" font-family="'Inter, Helvetica, sans-serif'" font-size="13" lengthAdjust="spacing" textLength="154.7261" x="817.5" y="655.6449">request enriched sources</text></g><!--link Seam to Main--><g class="link" data-entity-1="ent0010" data-entity-2="ent0011" data-link-type="dependency" data-source-line="36" id="lnk20"><path d="M833.68,758.2479 C798.18,776.4279 758.3211,796.8303 720.2911,816.2903" fill="none" id="Seam-to-Main" style="stroke:#555555;stroke-width:1.3;stroke-dasharray:7,7;"/><polygon fill="#555555" points="715.84,818.5679,725.6741,818.0291,720.2911,816.2903,722.0299,810.9073,715.84,818.5679" style="stroke:#555555;stroke-width:1.3;stroke-linejoin:miter;stroke-miterlimit:10;"/></g><!--link Main to Split--><g class="link" data-entity-1="ent0011" data-entity-2="ent0009" data-link-type="dependency" data-source-line="37" id="lnk21"><path d="M624.96,818.7379 C620.64,783.5279 617.85,732.6079 629,689.7479 C637.57,656.8079 654.2588,627.4696 670.3488,603.6796" fill="none" id="Main-to-Split" style="stroke:#555555;stroke-width:1.3;stroke-dasharray:7,7;"/><polygon fill="#555555" points="673.15,599.5379,664.7946,604.752,670.3488,603.6796,671.4213,609.2339,673.15,599.5379" style="stroke:#555555;stroke-width:1.3;stroke-linejoin:miter;stroke-miterlimit:10;"/><text fill="#000000" font-family="'Inter, Helvetica, sans-serif'" font-size="13" lengthAdjust="spacing" textLength="91.0261" x="665.776" y="720.2149">full-file context</text><text fill="#000000" font-family="'Inter, Helvetica, sans-serif'" font-size="13" lengthAdjust="spacing" textLength="162.5782" x="630" y="737.9209">(beyond the hunk window)</text></g><g class="legend" data-source-line="39"><rect fill="none" height="166.5433" rx="4" ry="4" style="stroke:#000000;stroke-width:1;" width="536.4821" x="445.6094" y="926.0917"/><text fill="#000000" font-family="'Inter, Helvetica, sans-serif'" font-size="14" font-weight="700" lengthAdjust="spacing" textLength="46.0178" x="454.2494" y="948.0576">Colour</text><text fill="#000000" font-family="'Inter, Helvetica, sans-serif'" font-size="14" font-weight="700" lengthAdjust="spacing" textLength="57.3438" x="507.5472" y="948.0576">Concept</text><rect fill="#E67E22" height="19.0679" style="stroke:none;stroke-width:1;" width="53.2978" x="450.6094" y="952.1596"/><text fill="#000000" font-family="'Inter, Helvetica, sans-serif'" font-size="14" lengthAdjust="spacing" textLength="14.5599" x="450.6094" y="967.1255">&#160;&#160;&#160;&#160;</text><text fill="#000000" font-family="'Inter, Helvetica, sans-serif'" font-size="14" lengthAdjust="spacing" textLength="172.1993" x="507.5472" y="967.1255">pure diff model / IR / ANSI</text><rect fill="#67B11D" height="19.0679" style="stroke:none;stroke-width:1;" width="53.2978" x="450.6094" y="971.2275"/><text fill="#000000" font-family="'Inter, Helvetica, sans-serif'" font-size="14" lengthAdjust="spacing" textLength="14.5599" x="450.6094" y="986.1934">&#160;&#160;&#160;&#160;</text><text fill="#000000" font-family="'Inter, Helvetica, sans-serif'" font-size="14" lengthAdjust="spacing" textLength="87.6816" x="507.5472" y="986.1934">unified HTML</text><rect fill="#2D9574" height="19.0679" style="stroke:none;stroke-width:1;" width="53.2978" x="450.6094" y="990.2954"/><text fill="#000000" font-family="'Inter, Helvetica, sans-serif'" font-size="14" lengthAdjust="spacing" textLength="14.5599" x="450.6094" y="1005.2614">&#160;&#160;&#160;&#160;</text><text fill="#000000" font-family="'Inter, Helvetica, sans-serif'" font-size="14" lengthAdjust="spacing" textLength="191.1973" x="507.5472" y="1005.2614">split renderer (renderer-side)</text><rect fill="#B1951D" height="19.0679" style="stroke:none;stroke-width:1;" width="53.2978" x="450.6094" y="1009.3633"/><text fill="#000000" font-family="'Inter, Helvetica, sans-serif'" font-size="14" lengthAdjust="spacing" textLength="14.5599" x="450.6094" y="1024.3293">&#160;&#160;&#160;&#160;</text><text fill="#000000" font-family="'Inter, Helvetica, sans-serif'" font-size="14" lengthAdjust="spacing" textLength="200.9692" x="507.5472" y="1024.3293">IPC seam (on-disk enrichment)</text><rect fill="#3A5BA0" height="19.0679" style="stroke:none;stroke-width:1;" width="53.2978" x="450.6094" y="1028.4313"/><text fill="#000000" font-family="'Inter, Helvetica, sans-serif'" font-size="14" lengthAdjust="spacing" textLength="14.5599" x="450.6094" y="1043.3972">&#160;&#160;&#160;&#160;</text><text fill="#000000" font-family="'Inter, Helvetica, sans-serif'" font-size="14" lengthAdjust="spacing" textLength="112.2236" x="507.5472" y="1043.3972">main / filesystem</text><rect fill="#7590DB" height="19.0679" style="stroke:none;stroke-width:1;" width="53.2978" x="450.6094" y="1047.4992"/><text fill="#000000" font-family="'Inter, Helvetica, sans-serif'" font-size="14" lengthAdjust="spacing" textLength="14.5599" x="450.6094" y="1062.4651">&#160;&#160;&#160;&#160;</text><text fill="#000000" font-family="'Inter, Helvetica, sans-serif'" font-size="14" lengthAdjust="spacing" textLength="134.3575" x="507.5472" y="1062.4651">view toggle (app-db)</text><line style="stroke:#000000;stroke-width:1;" x1="450.6094" x2="712.1564" y1="933.0917" y2="933.0917"/><line style="stroke:#000000;stroke-width:1;" x1="450.6094" x2="712.1564" y1="952.1596" y2="952.1596"/><line style="stroke:#000000;stroke-width:1;" x1="450.6094" x2="712.1564" y1="971.2275" y2="971.2275"/><line style="stroke:#000000;stroke-width:1;" x1="450.6094" x2="712.1564" y1="990.2954" y2="990.2954"/><line style="stroke:#000000;stroke-width:1;" x1="450.6094" x2="712.1564" y1="1009.3633" y2="1009.3633"/><line style="stroke:#000000;stroke-width:1;" x1="450.6094" x2="712.1564" y1="1028.4313" y2="1028.4313"/><line style="stroke:#000000;stroke-width:1;" x1="450.6094" x2="712.1564" y1="1047.4992" y2="1047.4992"/><line style="stroke:#000000;stroke-width:1;" x1="450.6094" x2="712.1564" y1="1066.5671" y2="1066.5671"/><line style="stroke:#000000;stroke-width:1;" x1="450.6094" x2="450.6094" y1="933.0917" y2="1066.5671"/><line style="stroke:#000000;stroke-width:1;" x1="503.9072" x2="503.9072" y1="933.0917" y2="1066.5671"/><line style="stroke:#000000;stroke-width:1;" x1="712.1564" x2="712.1564" y1="933.0917" y2="1066.5671"/><text fill="#000000" font-family="'Inter, Helvetica, sans-serif'" font-size="14" lengthAdjust="spacing" textLength="526.4821" x="450.6094" y="1083.533">Unified renders from the diff alone; split enriches with the on-disk pre/post files.</text></g><?plantuml-src VLNHRjis57tNLzobm68taPnaIu8uMm2xTbPZSseu3lfG5pKjqZOHYbH9Igan3zX7x0lt9Rqa9ST12h_OaaYUU--vvrmU7i9846aVXd-1Afc68TCPuHJcB2M5OQ0aWxpG3395cO05aGPKOS4gc7py09f9oZINIp25Nf2K6MWKaYyuestuus40xoU8V0ITk_l1TNHu22ONtFgbM4cnFiO0CUNcCMPIytJ5Q1E8f61NB6o5dDWLf5ePWzZkCydccETWz0uC8vbB11EMyF-__m7xbck66oaySRjouL8bKvRRE5L2OHKKFsGvrYIjWOLMMGYq8cuf9u9Pov8j1ocHKba8Pn62ih3TXIK6I8sUH3zncOe2rx-KPOnxCfRm8XDHPBaL37fyiO2MAoLTxL3cKdx9xp7O9mKbPq_FF29xdebc56sJXuDPGX5qXgYpnEFEm62MAPlAnX9fMoYimSP-wHXgA7UcUU2IlzSftDv_cGpk9b6Ka_IHB1aSZ9uxVGI3iQD8McmDFO2_8u3T-2MNHAz35bFfIyY9DgmD2owmLV4Dh0hvw1y4bynWOeHIJDYXjnntbdsp8PkX3paOXtnU1k8wyMbW5dKqzrUbYUYOfyHduv5k-rkOVtOAUwW8SDI-gcMEknpwocPYAcUKbmcsCV1x13DAB8dVpc1Pe3gqgyC9szK4id1YDCTUtp6N9JTyBbWewk4zui6mC_wpz-7ZtGzAg-EYf_XKRYMwsoneO2Qfu2rRy0grWxj_MEEzzqiB3ASidgzZz-yB1l0PExyrNnKVN1P4oVHKAa5X0n9FOK959WEj0NlSl-lrn_tds3iuw3oX2FNkG1BBikrUFOjnKAQP1IXd7xHl0Db1S3PE3DCbTohM3C7c2irVJOYWAsGV8xLoPIpm3EisbOBS31Xs1XNFBwpogUx-9jJnUOPJOxaKpYjMAJ4d6lkC9p8tUgen460dVXzqHgDUjq9spebHTbwpKL2kUx_jHoW-z-GRltrn_OegdEqgjEisxou5bjl1xr5uIvARG5aRc_IrO5XtFIehnvl8hxkDZeN8K-6FLN2BGeZOiLUR3kkUixMgvgopAGvCITKJpXZ1bgW5q7ovigYKpU_mpWipFFbv1nktyDkR_iLb_-pivkStfnSdrwz_Ds6mxPYrvRpQycQfCIukkwUdlJqOjHlyHL8TEkjTdL_-kkVGIr53etxodcZMCDtJg_EziRUNJAFMOA0-GrrjKNxfd7Sx9tjG_FNK2l9T6yko-kJb-TL9hxldf3Tla2eqI9x7T1x2re8ETUrSPPvi8b3vrnK9bLYClnBzdhgMhOzyPac4MA7vtm40?></g></svg>