<svg xmlns="http://www.w3.org/2000/svg" xmlns:xlink="http://www.w3.org/1999/xlink" contentStyleType="text/css" data-diagram-type="DESCRIPTION" height="1291px" preserveAspectRatio="none" style="width:1765px;height:1291px;background:#FBF8EF;" version="1.1" viewBox="0 0 1765 1291" width="1765px" zoomAndPan="magnify"><?plantuml $version$?><defs/><g><rect fill="#FBF8EF" height="1291" style="stroke:none;stroke-width:1;" width="1765" x="0" y="0"/><g class="title" data-source-line="11"><text fill="#000000" font-family="'Inter, Helvetica, sans-serif'" font-size="14" font-weight="700" lengthAdjust="spacing" textLength="607.5558" x="575.5687" y="24.9659">Custom keybindings (being implemented) &#8212; command registry + modal/chord resolver</text></g><!--cluster KD--><g class="cluster" data-qualified-name="KD" data-source-line="14" id="ent0001"><rect fill="#2D9574" height="171.27" rx="4" ry="4" style="stroke:#888888;stroke-width:1;" width="259" x="7" y="47.0679"/><text fill="#000000" font-family="'Inter, Helvetica, sans-serif'" font-size="14" font-weight="700" lengthAdjust="spacing" textLength="167.7053" x="52.6473" y="64.0339">global keydown listener</text><text fill="#000000" font-family="'Inter, Helvetica, sans-serif'" font-size="14" font-weight="700" lengthAdjust="spacing" textLength="200.4512" x="36.2744" y="83.1018">(renderer/core keybindings!)</text></g><!--cluster INPUT--><g class="cluster" data-qualified-name="INPUT" data-source-line="18" id="ent0003"><rect fill="#7590DB" height="171.33" rx="4" ry="4" style="stroke:#888888;stroke-width:1;" width="277" x="1270" y="533.0779"/><text fill="#000000" font-family="'Inter, Helvetica, sans-serif'" font-size="14" font-weight="700" lengthAdjust="spacing" textLength="261.673" x="1277.6635" y="550.0439">app-db :ui/:input  (landed scaffolding)</text></g><!--cluster FX--><g class="cluster" data-qualified-name="FX" data-source-line="22" id="ent0005"><rect fill="#4F97D7" height="133.2" rx="4" ry="4" style="stroke:#888888;stroke-width:1;" width="311" x="263" y="1009.6879"/><text fill="#000000" font-family="'Inter, Helvetica, sans-serif'" font-size="14" font-weight="700" lengthAdjust="spacing" textLength="167.0894" x="334.9553" y="1026.6539">vinary.input.fx  (landed)</text></g><!--cluster CMD--><g class="cluster" data-qualified-name="CMD" data-source-line="27" id="ent0007"><rect fill="#DDDDDD" height="171.28" rx="4" ry="4" style="stroke:#999999;stroke-width:1;stroke-dasharray:7,7;" width="363" x="771" y="771.4079"/><text fill="#000000" font-family="'Inter, Helvetica, sans-serif'" font-size="14" font-style="italic" lengthAdjust="spacing" textLength="64.3298" x="920.3351" y="788.3739">&#171;planned&#187;</text><text fill="#000000" font-family="'Inter, Helvetica, sans-serif'" font-size="14" font-weight="700" lengthAdjust="spacing" textLength="310.7568" x="797.1216" y="807.4418">vinary.input.commands  (command registry)</text></g><!--cluster KM--><g class="cluster" data-qualified-name="KM" data-source-line="31" id="ent0009"><rect fill="#DDDDDD" height="171.27" rx="4" ry="4" style="stroke:#999999;stroke-width:1;stroke-dasharray:7,7;" width="392" x="799" y="523.6079"/><text fill="#000000" font-family="'Inter, Helvetica, sans-serif'" font-size="14" font-style="italic" lengthAdjust="spacing" textLength="64.3298" x="962.8351" y="540.5739">&#171;planned&#187;</text><text fill="#000000" font-family="'Inter, Helvetica, sans-serif'" font-size="14" font-weight="700" lengthAdjust="spacing" textLength="224.7272" x="882.6364" y="559.6418">vinary.input.keymap  (keymaps)</text></g><!--cluster RES--><g class="cluster" data-qualified-name="RES" data-source-line="35" id="ent0011"><rect fill="#DDDDDD" height="171.27" rx="4" ry="4" style="stroke:#999999;stroke-width:1;stroke-dasharray:7,7;" width="327" x="854" y="285.3379"/><text fill="#000000" font-family="'Inter, Helvetica, sans-serif'" font-size="14" font-style="italic" lengthAdjust="spacing" textLength="64.3298" x="985.3351" y="302.3039">&#171;planned&#187;</text><text fill="#000000" font-family="'Inter, Helvetica, sans-serif'" font-size="14" font-weight="700" lengthAdjust="spacing" textLength="252.8391" x="891.0805" y="321.3718">vinary.input.resolver  (modal/chord)</text></g><!--cluster PAL--><g class="cluster" data-qualified-name="PAL" data-source-line="39" id="ent0013"><rect fill="#DDDDDD" height="133.13" rx="4" ry="4" style="stroke:#999999;stroke-width:1;stroke-dasharray:7,7;" width="349" x="410" y="542.6779"/><text fill="#000000" font-family="'Inter, Helvetica, sans-serif'" font-size="14" font-style="italic" lengthAdjust="spacing" textLength="64.3298" x="552.3351" y="559.6439">&#171;planned&#187;</text><text fill="#000000" font-family="'Inter, Helvetica, sans-serif'" font-size="14" font-weight="700" lengthAdjust="spacing" textLength="183.0913" x="492.9544" y="578.7118">command palette  (M-x / :)</text></g><!--entity BASELINE--><g class="entity" data-qualified-name="KD.BASELINE" data-source-line="15" id="ent0002"><rect fill="#F1F1F1" height="82.2717" rx="4" ry="4" style="stroke:#181818;stroke-width:0.5;" width="192.2664" x="30.87" y="112.0679"/><text fill="#000000" font-family="'Inter, Helvetica, sans-serif'" font-size="14" lengthAdjust="spacing" textLength="169.0633" x="40.87" y="130.0339">TODAY (baseline, landed):</text><text fill="#000000" font-family="'Inter, Helvetica, sans-serif'" font-size="14" lengthAdjust="spacing" textLength="143.694" x="40.87" y="149.1018">Ctrl+F &#8594; [:find/toggle]</text><text fill="#000000" font-family="'Inter, Helvetica, sans-serif'" font-size="14" lengthAdjust="spacing" textLength="150.6085" x="40.87" y="168.1697">Alt+&#8592; &#8594; [:history/back]</text><text fill="#000000" font-family="'Inter, Helvetica, sans-serif'" font-size="14" lengthAdjust="spacing" textLength="172.2664" x="40.87" y="187.2376">Alt+&#8594; &#8594; [:history/forward]</text></g><!--entity INPUTSTATE--><g class="entity" data-qualified-name="INPUT.INPUTSTATE" data-source-line="19" id="ent0004"><rect fill="#F1F1F1" height="101.3396" rx="4" ry="4" style="stroke:#181818;stroke-width:0.5;" width="121.9896" x="1314.01" y="579.0779"/><text fill="#000000" font-family="'Inter, Helvetica, sans-serif'" font-size="14" lengthAdjust="spacing" textLength="101.9896" x="1324.01" y="597.0439">{:mode :normal</text><text fill="#000000" font-family="'Inter, Helvetica, sans-serif'" font-size="14" lengthAdjust="spacing" textLength="79.6317" x="1327.65" y="616.1118">:sequence []</text><text fill="#000000" font-family="'Inter, Helvetica, sans-serif'" font-size="14" lengthAdjust="spacing" textLength="60.8158" x="1327.65" y="635.1797">:count nil</text><text fill="#000000" font-family="'Inter, Helvetica, sans-serif'" font-size="14" lengthAdjust="spacing" textLength="95.7036" x="1327.65" y="654.2476">:in-input? false</text><text fill="#000000" font-family="'Inter, Helvetica, sans-serif'" font-size="14" lengthAdjust="spacing" textLength="97.1456" x="1327.65" y="673.3155">:timeout-id nil}</text></g><!--entity FXBODY--><g class="entity" data-qualified-name="FX.FXBODY" data-source-line="23" id="ent0006"><rect fill="#F1F1F1" height="63.2038" rx="4" ry="4" style="stroke:#181818;stroke-width:0.5;" width="244.1951" x="286.9" y="1055.6879"/><text fill="#000000" font-family="'Inter, Helvetica, sans-serif'" font-size="14" lengthAdjust="spacing" textLength="125.2995" x="296.9" y="1073.6539">:dom/scroll {dy|to}</text><text fill="#000000" font-family="'Inter, Helvetica, sans-serif'" font-size="14" lengthAdjust="spacing" textLength="152.8094" x="296.9" y="1092.7218">(page/half/top/bottom)</text><text fill="#000000" font-family="'Inter, Helvetica, sans-serif'" font-size="14" lengthAdjust="spacing" textLength="224.1951" x="296.9" y="1111.7897">:dom/focus :tree|:content|:toggle</text></g><!--entity CMDBODY--><g class="entity" data-qualified-name="CMD.CMDBODY" data-source-line="28" id="ent0008"><rect fill="#F1F1F1" height="82.2717" rx="4" ry="4" style="stroke:#181818;stroke-width:0.5;" width="295.9094" x="795.05" y="836.4079"/><text fill="#000000" font-family="'Inter, Helvetica, sans-serif'" font-size="14" lengthAdjust="spacing" textLength="252.3195" x="805.05" y="854.3739">named command &#8594; re-frame dispatch</text><text fill="#000000" font-family="'Inter, Helvetica, sans-serif'" font-size="14" lengthAdjust="spacing" textLength="275.9094" x="805.05" y="873.4418">e.g. :scroll-down &#8594; [:dom/scroll {:dy :half}]</text><text fill="#000000" font-family="'Inter, Helvetica, sans-serif'" font-size="14" lengthAdjust="spacing" textLength="160.0459" x="823.2499" y="892.5097">:find        &#8594; [:find/toggle]</text><text fill="#000000" font-family="'Inter, Helvetica, sans-serif'" font-size="14" lengthAdjust="spacing" textLength="194.2758" x="823.2499" y="911.5776">:next-tab    &#8594; [:tab/activate &#8230;]</text></g><!--entity KMBODY--><g class="entity" data-qualified-name="KM.KMBODY" data-source-line="32" id="ent0010"><rect fill="#F1F1F1" height="82.2717" rx="4" ry="4" style="stroke:#181818;stroke-width:0.5;" width="324.7493" x="822.63" y="588.6079"/><text fill="#000000" font-family="'Inter, Helvetica, sans-serif'" font-size="14" lengthAdjust="spacing" textLength="189.3633" x="832.63" y="606.5739">preset vim + emacs keymaps</text><text fill="#000000" font-family="'Inter, Helvetica, sans-serif'" font-size="14" lengthAdjust="spacing" textLength="225.0756" x="832.63" y="625.6418">(key-sequence &#8594; command name)</text><text fill="#000000" font-family="'Inter, Helvetica, sans-serif'" font-size="14" lengthAdjust="spacing" textLength="304.7493" x="832.63" y="644.7097">&#8853; user /.config/vinary-viewer/keybindings.edn</text><text fill="#000000" font-family="'Inter, Helvetica, sans-serif'" font-size="14" lengthAdjust="spacing" textLength="226.2096" x="832.63" y="663.7776">(loaded main &#8594; renderer over IPC)</text></g><!--entity RESBODY--><g class="entity" data-qualified-name="RES.RESBODY" data-source-line="36" id="ent0012"><rect fill="#F1F1F1" height="82.2717" rx="4" ry="4" style="stroke:#181818;stroke-width:0.5;" width="259.9591" x="878.02" y="350.3379"/><text fill="#000000" font-family="'Inter, Helvetica, sans-serif'" font-size="14" lengthAdjust="spacing" textLength="239.9591" x="888.02" y="368.3039">longest-prefix match over :sequence</text><text fill="#000000" font-family="'Inter, Helvetica, sans-serif'" font-size="14" lengthAdjust="spacing" textLength="196.5313" x="888.02" y="387.3718">respect :mode (normal/insert)</text><text fill="#000000" font-family="'Inter, Helvetica, sans-serif'" font-size="14" lengthAdjust="spacing" textLength="178.0513" x="888.02" y="406.4397">chord timeout (:timeout-id)</text><text fill="#000000" font-family="'Inter, Helvetica, sans-serif'" font-size="14" lengthAdjust="spacing" textLength="179.1153" x="888.02" y="425.5076">ignore keys while :in-input?</text></g><!--entity PALBODY--><g class="entity" data-qualified-name="PAL.PALBODY" data-source-line="40" id="ent0014"><rect fill="#F1F1F1" height="44.1358" rx="4" ry="4" style="stroke:#181818;stroke-width:0.5;" width="281.8395" x="434.08" y="607.6779"/><text fill="#000000" font-family="'Inter, Helvetica, sans-serif'" font-size="14" lengthAdjust="spacing" textLength="206.1492" x="444.08" y="625.6439">app-db :ui/:palette (landed slot)</text><text fill="#000000" font-family="'Inter, Helvetica, sans-serif'" font-size="14" lengthAdjust="spacing" textLength="261.8395" x="444.08" y="644.7118">fuzzy-filter command names &#8594; dispatch</text></g><g class="entity" data-qualified-name="GMN22" data-source-line="53" id="ent0023"><path d="M212.84,832.2879 L212.84,922.818 A4,4 0 0 0 216.84,926.818 L743.1584,926.818 A4,4 0 0 0 747.1584,922.818 L747.1584,838.2879 L737.1584,828.2879 L502.69,828.2879 L566.74,652.1279 L494.69,828.2879 L216.84,828.2879 A4,4 0 0 0 212.84,832.2879" fill="#FFF6D6" style="stroke:#7F6B14;stroke-width:0.5;"/><path d="M737.1584,828.2879 L737.1584,836.2879 A2,2 0 0 0 739.1584,838.2879 L747.1584,838.2879 L737.1584,828.2879" fill="#FFF6D6" style="stroke:#7F6B14;stroke-width:0.5;"/><text fill="#000000" font-family="'Inter, Helvetica, sans-serif'" font-size="13" font-weight="700" lengthAdjust="spacing" textLength="44.863" x="218.84" y="847.1849">Status:</text><text fill="#000000" font-family="'Inter, Helvetica, sans-serif'" font-size="13" lengthAdjust="spacing" textLength="403.5852" x="267.083" y="847.1849">the IO-at-the-edge effects (`vinary.input.fx` &#8212; scroll/focus) and the</text><text fill="#000000" font-family="'Inter, Helvetica, sans-serif'" font-size="13" lengthAdjust="spacing" textLength="355.6153" x="218.84" y="864.8909">ephemeral app-db state slots (`:ui/:input`, `:ui/:palette`) are</text><text fill="#000000" font-family="'Inter, Helvetica, sans-serif'" font-size="13" font-weight="700" lengthAdjust="spacing" textLength="44.304" x="577.8353" y="864.8909">landed</text><text fill="#000000" font-family="'Inter, Helvetica, sans-serif'" font-size="13" lengthAdjust="spacing" textLength="26.923" x="622.1393" y="864.8909">; the</text><text fill="#000000" font-family="'Inter, Helvetica, sans-serif'" font-size="13" lengthAdjust="spacing" textLength="513.3184" x="218.84" y="882.597">command registry, preset keymaps, EDN user config, modal/chord resolver, and the</text><text fill="#000000" font-family="'Inter, Helvetica, sans-serif'" font-size="13" lengthAdjust="spacing" textLength="131.1831" x="218.84" y="900.303">command palette are</text><text fill="#000000" font-family="'Inter, Helvetica, sans-serif'" font-size="13" font-weight="700" lengthAdjust="spacing" textLength="52.754" x="353.4031" y="900.303">planned</text><text fill="#000000" font-family="'Inter, Helvetica, sans-serif'" font-size="13" lengthAdjust="spacing" textLength="274.0533" x="409.5372" y="900.303">(designed; not yet wired). Until they land, the</text><text fill="#000000" font-family="'Inter, Helvetica, sans-serif'" font-size="13" lengthAdjust="spacing" textLength="328.1954" x="218.84" y="918.009">baseline Ctrl+F / Alt+&#8592;/&#8594; keys are the active bindings.</text></g><!--link KD to RES--><g class="link" data-entity-1="ent0001" data-entity-2="ent0011" data-link-type="dependency" data-source-line="44" id="lnk15"><path d="M266.0621,154.6546 C266.4132,154.6747 266.7752,154.6955 267.1482,154.7169 C267.8941,154.7597 268.6836,154.8052 269.5161,154.8533 C276.1757,155.2383 285.581,155.7914 297.356,156.5078 C320.9061,157.9406 353.9352,160.0267 393.4367,162.7273 C472.4397,168.1285 577.3319,175.9879 684.0587,185.9954 C897.5125,206.0104 1118.305,234.6179 1154,269.3379 C1158.8075,274.0129 1160.326,274.9816 1163.4901,280.7848" fill="none" id="KD-to-RES" style="stroke:#999999;stroke-width:2;stroke-dasharray:7,7;"/><polygon fill="#999999" points="1165.8837,285.1747,1165.0872,275.3581,1163.4901,280.7848,1158.0634,279.1878,1165.8837,285.1747" style="stroke:#999999;stroke-width:2;stroke-linejoin:miter;stroke-miterlimit:10;"/><text fill="#000000" font-family="'Inter, Helvetica, sans-serif'" font-size="13" lengthAdjust="spacing" textLength="248.5082" x="1142.86" y="257.2349">(planned) feed each key into the resolver</text></g><!--link RES to INPUT--><g class="link" data-entity-1="ent0011" data-entity-2="ent0003" data-link-type="dependency" data-source-line="45" id="lnk16"><path d="M1181.1018,392.6862 C1181.2597,392.6924 1181.4196,392.6988 1181.5817,392.7053 C1181.906,392.7184 1182.2387,392.7322 1182.5797,392.7467 C1188.0368,392.9794 1195.6358,393.4049 1204.8809,394.1826 C1223.3713,395.7379 1248.4463,398.7017 1276.14,404.3479 C1331.5275,415.6404 1397.39,437.6629 1442,480.6079 C1454.07,492.2279 1462.5612,507.0998 1468.5042,522.9193 C1469.2471,524.8968 1469.9501,526.889 1470.6154,528.8916 C1470.948,529.8928 1471.2712,530.8967 1471.5852,531.9026 C1471.6637,532.154 1470.2729,527.6262 1470.3503,527.8779" fill="none" id="RES-to-INPUT" style="stroke:#7590DB;stroke-width:2;stroke-dasharray:7,7;"/><polygon fill="#7590DB" points="1471.8189,532.6573,1472.9989,522.8794,1470.3503,527.8779,1465.3518,525.2293,1471.8189,532.6573" style="stroke:#7590DB;stroke-width:2;stroke-linejoin:miter;stroke-miterlimit:10;"/><text fill="#000000" font-family="'Inter, Helvetica, sans-serif'" font-size="13" lengthAdjust="spacing" textLength="293.6832" x="1456.01" y="495.5049">(planned) read/update :sequence, :mode, :count</text></g><!--link RES to KM--><g class="link" data-entity-1="ent0011" data-entity-2="ent0009" data-link-type="dependency" data-source-line="46" id="lnk17"><path d="M1170.5587,456.7884 C1170.541,457.4054 1170.5235,458.0227 1170.5062,458.6402 C1170.437,461.1103 1170.3712,463.5837 1170.3098,466.0474 C1170.1869,470.9746 1170.0813,475.8629 1170,480.6079 C1169.86,489.0479 1169.58,491.1779 1170,499.6079 C1170.3563,506.6967 1170.8217,513.996 1171.3641,521.3469 C1171.398,521.8063 1171.4322,522.2659 1171.4667,522.7257 C1171.484,522.9556 1171.1242,518.1998 1171.1416,518.4298" fill="none" id="RES-to-KM" style="stroke:#999999;stroke-width:2;stroke-dasharray:7,7;"/><polygon fill="#999999" points="1171.5187,523.4155,1174.8286,514.1395,1171.1416,518.4298,1166.8514,514.7428,1171.5187,523.4155" style="stroke:#999999;stroke-width:2;stroke-linejoin:miter;stroke-miterlimit:10;"/><text fill="#000000" font-family="'Inter, Helvetica, sans-serif'" font-size="13" lengthAdjust="spacing" textLength="266.9293" x="1171" y="495.5049">(planned) match sequence in active keymap</text></g><!--link KM to CMD--><g class="link" data-entity-1="ent0009" data-entity-2="ent0007" data-link-type="dependency" data-source-line="47" id="lnk18"><path d="M1168.7171,695.2618 C1168.6466,695.5752 1168.576,695.8888 1168.5054,696.2024 C1168.3641,696.8297 1168.2226,697.4573 1168.081,698.0851 C1167.5146,700.5964 1166.946,703.1107 1166.3781,705.6147 C1165.2422,710.6226 1164.1087,715.5892 1163,720.4079 C1155.13,754.6179 1146.045,792.9779 1138.8475,823.1154 C1137.9478,826.8826 1137.0776,830.5213 1136.243,834.0074 C1135.8257,835.7504 1135.4172,837.4553 1135.0184,839.119 C1134.819,839.9508 1134.6221,840.7724 1134.4276,841.5833 C1134.3303,841.9887 1135.4001,837.5294 1135.3042,837.9295" fill="none" id="KM-to-CMD" style="stroke:#999999;stroke-width:2;stroke-dasharray:7,7;"/><polygon fill="#999999" points="1134.1378,842.7915,1140.1269,834.973,1135.3042,837.9295,1132.3476,833.1067,1134.1378,842.7915" style="stroke:#999999;stroke-width:2;stroke-linejoin:miter;stroke-miterlimit:10;"/><text fill="#000000" font-family="'Inter, Helvetica, sans-serif'" font-size="13" lengthAdjust="spacing" textLength="216.6062" x="1162.06" y="743.3049">(planned) resolved command name</text></g><!--link CMD to FX--><g class="link" data-entity-1="ent0007" data-entity-2="ent0005" data-link-type="dependency" data-source-line="48" id="lnk19"><path d="M1117.753,943.0328 C1117.6343,943.2845 1117.5141,943.5354 1117.3925,943.7854 C1117.1491,944.2854 1116.8997,944.7821 1116.6442,945.2752 C1116.1332,946.2613 1115.5976,947.2329 1115.0364,948.1876 C1112.7916,952.0064 1110.1363,955.5554 1107,958.6879 C1063.645,1001.9929 930.1625,1033.7354 806.645,1054.7292 C744.8863,1065.226 685.6188,1073.0357 641.3541,1078.2599 C619.2217,1080.8721 600.8401,1082.8378 587.7731,1084.1699 C584.5063,1084.5029 581.5718,1084.7963 578.9938,1085.0503 C577.7048,1085.1774 576.5049,1085.2945 575.3973,1085.4018 C575.1204,1085.4287 579.8261,1084.9746 579.5608,1085.0002" fill="none" id="CMD-to-FX" style="stroke:#4F97D7;stroke-width:2;"/><polygon fill="#4F97D7" points="574.5839,1085.4805,583.9265,1088.5975,579.5608,1085.0002,583.1581,1080.6345,574.5839,1085.4805" style="stroke:#4F97D7;stroke-width:2;stroke-linejoin:miter;stroke-miterlimit:10;"/><text fill="#000000" font-family="'Inter, Helvetica, sans-serif'" font-size="13" lengthAdjust="spacing" textLength="216.3058" x="1095.81" y="981.5849">dispatch &#8594; effect (FX already exists)</text></g><!--link PAL to CMD--><g class="link" data-entity-1="ent0013" data-entity-2="ent0007" data-link-type="dependency" data-source-line="49" id="lnk20"><path d="M759.0849,652.223 C759.1394,652.35 759.1942,652.4774 759.2492,652.6052 C761.0113,656.6939 763.0563,661.1617 765.385,665.8329 C774.7,684.5179 788.555,706.4579 807,720.4079 C841.33,746.3779 857.51,740.5279 900,747.4079 C911.36,749.2479 1098.4,747.7679 1107,755.4079 C1112.01,759.8654 1116.0747,765.0601 1119.3509,770.7431 C1119.4532,770.9207 1117.0958,766.7452 1117.1967,766.9237" fill="none" id="PAL-to-CMD" style="stroke:#999999;stroke-width:2;stroke-dasharray:7,7;"/><polygon fill="#999999" points="1119.6557,771.2773,1118.7123,761.4737,1117.1967,766.9237,1111.7466,765.4081,1119.6557,771.2773" style="stroke:#999999;stroke-width:2;stroke-linejoin:miter;stroke-miterlimit:10;"/><text fill="#000000" font-family="'Inter, Helvetica, sans-serif'" font-size="13" lengthAdjust="spacing" textLength="247.4812" x="901" y="743.3049">(planned) pick command by fuzzy search</text></g><!--link KD to FX--><g class="link" data-entity-1="ent0001" data-entity-2="ent0005" data-link-type="dependency" data-source-line="50" id="lnk21"><path d="M245.6261,218.7279 C245.2446,219.8083 244.8515,220.8835 244.4466,221.952 C242.8272,226.226 241.0188,230.3917 239,234.3379 C197.22,316.0079 104,298.7379 104,390.4679 C104,390.4679 104,390.4679 104,878.5479 C104,932.4379 145.59,937.1779 195,958.6879 C267.08,990.0579 488.62,941.0379 547,993.6879 C550.8388,997.1492 554.0205,1001.1606 556.6487,1005.5343 C557.3058,1006.6278 557.9283,1007.7439 558.5178,1008.8797 C558.5915,1009.0217 556.3944,1004.709 556.4671,1004.8516" fill="none" id="KD-to-FX" style="stroke:#4F97D7;stroke-width:2;"/><polygon fill="#4F97D7" points="558.7373,1009.3065,558.2149,999.4715,556.4671,1004.8516,551.087,1003.1038,558.7373,1009.3065" style="stroke:#4F97D7;stroke-width:2;stroke-linejoin:miter;stroke-miterlimit:10;"/><text fill="#000000" font-family="'Inter, Helvetica, sans-serif'" font-size="13" lengthAdjust="spacing" textLength="280.8912" x="105" y="635.1349">TODAY: baseline keys dispatch existing events</text></g><g class="legend" data-source-line="60"><rect fill="none" height="109.3396" rx="4" ry="4" style="stroke:#000000;stroke-width:1;" width="500.5161" x="1246.1771" y="1162.8879"/><text fill="#000000" font-family="'Inter, Helvetica, sans-serif'" font-size="14" font-weight="700" lengthAdjust="spacing" textLength="74.5917" x="1254.8171" y="1184.8539">color/style</text><text fill="#000000" font-family="'Inter, Helvetica, sans-serif'" font-size="14" font-weight="700" lengthAdjust="spacing" textLength="55.5798" x="1415.2705" y="1184.8539">concept</text><rect fill="#2D9574" height="19.0679" style="stroke:none;stroke-width:1;" width="160.4534" x="1251.1771" y="1188.9558"/><text fill="#000000" font-family="'Inter, Helvetica, sans-serif'" font-size="14" lengthAdjust="spacing" textLength="3.64" x="1251.1771" y="1203.9218">&#160;</text><text fill="#000000" font-family="'Inter, Helvetica, sans-serif'" font-size="14" lengthAdjust="spacing" textLength="322.7827" x="1415.2705" y="1203.9218">renderer (Chromium) &#8212; landed keydown listener</text><rect fill="#7590DB" height="19.0679" style="stroke:none;stroke-width:1;" width="160.4534" x="1251.1771" y="1208.0238"/><text fill="#000000" font-family="'Inter, Helvetica, sans-serif'" font-size="14" lengthAdjust="spacing" textLength="3.64" x="1251.1771" y="1222.9897">&#160;</text><text fill="#000000" font-family="'Inter, Helvetica, sans-serif'" font-size="14" lengthAdjust="spacing" textLength="296.8549" x="1415.2705" y="1222.9897">app-db ephemeral input state &#8212; landed slots</text><rect fill="#4F97D7" height="19.0679" style="stroke:none;stroke-width:1;" width="160.4534" x="1251.1771" y="1227.0917"/><text fill="#000000" font-family="'Inter, Helvetica, sans-serif'" font-size="14" lengthAdjust="spacing" textLength="3.64" x="1251.1771" y="1242.0576">&#160;</text><text fill="#000000" font-family="'Inter, Helvetica, sans-serif'" font-size="14" lengthAdjust="spacing" textLength="221.8851" x="1415.2705" y="1242.0576">re-frame machinery / fx &#8212; landed</text><text fill="#000000" font-family="'Inter, Helvetica, sans-serif'" font-size="14" lengthAdjust="spacing" textLength="153.1734" x="1254.8171" y="1261.1255">dashed grey &#171;planned&#187;</text><text fill="#000000" font-family="'Inter, Helvetica, sans-serif'" font-size="14" lengthAdjust="spacing" textLength="295.5108" x="1415.2705" y="1261.1255">designed, not yet wired (being implemented)</text><line style="stroke:#000000;stroke-width:1;" x1="1251.1771" x2="1741.6932" y1="1169.8879" y2="1169.8879"/><line style="stroke:#000000;stroke-width:1;" x1="1251.1771" x2="1741.6932" y1="1188.9558" y2="1188.9558"/><line style="stroke:#000000;stroke-width:1;" x1="1251.1771" x2="1741.6932" y1="1208.0238" y2="1208.0238"/><line style="stroke:#000000;stroke-width:1;" x1="1251.1771" x2="1741.6932" y1="1227.0917" y2="1227.0917"/><line style="stroke:#000000;stroke-width:1;" x1="1251.1771" x2="1741.6932" y1="1246.1596" y2="1246.1596"/><line style="stroke:#000000;stroke-width:1;" x1="1251.1771" x2="1741.6932" y1="1265.2275" y2="1265.2275"/><line style="stroke:#000000;stroke-width:1;" x1="1251.1771" x2="1251.1771" y1="1169.8879" y2="1265.2275"/><line style="stroke:#000000;stroke-width:1;" x1="1411.6305" x2="1411.6305" y1="1169.8879" y2="1265.2275"/><line style="stroke:#000000;stroke-width:1;" x1="1741.6932" x2="1741.6932" y1="1169.8879" y2="1265.2275"/></g></g></svg>