<svg xmlns="http://www.w3.org/2000/svg" xmlns:xlink="http://www.w3.org/1999/xlink" contentStyleType="text/css" data-diagram-type="DESCRIPTION" height="830px" preserveAspectRatio="none" style="width:1904px;height:830px;background:#FBF8EF;" version="1.1" viewBox="0 0 1904 830" width="1904px" zoomAndPan="magnify"><?plantuml $version$?><defs/><g><rect fill="#FBF8EF" height="830" style="stroke:none;stroke-width:1;" width="1904" x="0" y="0"/><g class="title" data-source-line="6"><text fill="#000000" font-family="'Inter, Helvetica, sans-serif'" font-size="14" font-weight="700" lengthAdjust="spacing" textLength="510.438" x="693.6008" y="24.9659">Remote files over SSH &#8212; a virtual backend that reuses the whole pipeline</text></g><!--cluster URI router  (main.service)--><g class="cluster" data-qualified-name="URI router  .main.service." data-source-line="8" id="ent0001"><path d="M36,46.6699 L213.0873,46.6699 A6,6 0 0 1 217.0873,50.6699 L224.0873,71.7378 L524,71.7378 A4,4 0 0 1 528,75.7378 L528,164.7999 A4,4 0 0 1 524,168.7999 L36,168.7999 A4,4 0 0 1 32,164.7999 L32,50.6699 A4,4 0 0 1 36,46.6699" fill="none" style="stroke:#888888;stroke-width:1.5;"/><line style="stroke:#888888;stroke-width:1.5;" x1="32" x2="224.0873" y1="71.7378" y2="71.7378"/><text fill="#1A1A1A" font-family="'Inter, Helvetica, sans-serif'" font-size="14" font-weight="700" lengthAdjust="spacing" textLength="179.0873" x="36" y="63.6358">URI router  (main.service)</text></g><!--cluster SSH backend  (main-side only, secrets never leave)--><g class="cluster" data-qualified-name="SSH backend  .main-side only. secrets never leave." data-source-line="14" id="ent0005"><path d="M503,372.9399 L851.4467,372.9399 A6,6 0 0 1 855.4467,376.9399 L862.4467,398.0078 L1718,398.0078 A4,4 0 0 1 1722,402.0078 L1722,620.2099 A4,4 0 0 1 1718,624.2099 L503,624.2099 A4,4 0 0 1 499,620.2099 L499,376.9399 A4,4 0 0 1 503,372.9399" fill="none" style="stroke:#888888;stroke-width:1.5;"/><line style="stroke:#888888;stroke-width:1.5;" x1="499" x2="862.4467" y1="398.0078" y2="398.0078"/><text fill="#1A1A1A" font-family="'Inter, Helvetica, sans-serif'" font-size="14" font-weight="700" lengthAdjust="spacing" textLength="350.4467" x="503" y="389.9058">SSH backend  (main-side only, secrets never leave)</text></g><!--cluster Shared downstream (identical to local)--><g class="cluster" data-qualified-name="Shared downstream .identical to local." data-source-line="24" id="ent0012"><path d="M10,201.7999 L277.2189,201.7999 A6,6 0 0 1 281.2189,205.7999 L288.2189,226.8678 L471,226.8678 A4,4 0 0 1 475,230.8678 L475,620.2099 A4,4 0 0 1 471,624.2099 L10,624.2099 A4,4 0 0 1 6,620.2099 L6,205.7999 A4,4 0 0 1 10,201.7999" fill="none" style="stroke:#888888;stroke-width:1.5;"/><line style="stroke:#888888;stroke-width:1.5;" x1="6" x2="288.2189" y1="226.8678" y2="226.8678"/><text fill="#1A1A1A" font-family="'Inter, Helvetica, sans-serif'" font-size="14" font-weight="700" lengthAdjust="spacing" textLength="269.2189" x="10" y="218.7658">Shared downstream (identical to local)</text></g><!--entity OLoc--><g class="entity" data-qualified-name="URI router  .main.service..OLoc" data-source-line="9" id="ent0002"><rect fill="#C9D2E6" height="68.1358" rx="4" ry="4" style="stroke:#4A4A4A;stroke-width:1.4;" width="107.6197" x="48.19" y="84.6699"/><rect fill="#C9D2E6" height="10" style="stroke:#4A4A4A;stroke-width:1.4;" width="15" x="135.8097" y="89.6699"/><rect fill="#C9D2E6" height="2" style="stroke:#4A4A4A;stroke-width:1.4;" width="4" x="133.8097" y="91.6699"/><rect fill="#C9D2E6" height="2" style="stroke:#4A4A4A;stroke-width:1.4;" width="4" x="133.8097" y="95.6699"/><text fill="#1A1A1A" font-family="'Inter, Helvetica, sans-serif'" font-size="14" lengthAdjust="spacing" textLength="67.6197" x="63.19" y="119.6358">openLocal</text><text fill="#1A1A1A" font-family="'Inter, Helvetica, sans-serif'" font-size="14" lengthAdjust="spacing" textLength="62.1458" x="63.19" y="138.7038">(file path)</text></g><!--entity OArc--><g class="entity" data-qualified-name="URI router  .main.service..OArc" data-source-line="10" id="ent0003"><rect fill="#C9D2E6" height="68.1358" rx="4" ry="4" style="stroke:#4A4A4A;stroke-width:1.4;" width="141.9756" x="191.01" y="84.6699"/><rect fill="#C9D2E6" height="10" style="stroke:#4A4A4A;stroke-width:1.4;" width="15" x="312.9856" y="89.6699"/><rect fill="#C9D2E6" height="2" style="stroke:#4A4A4A;stroke-width:1.4;" width="4" x="310.9856" y="91.6699"/><rect fill="#C9D2E6" height="2" style="stroke:#4A4A4A;stroke-width:1.4;" width="4" x="310.9856" y="95.6699"/><text fill="#1A1A1A" font-family="'Inter, Helvetica, sans-serif'" font-size="14" lengthAdjust="spacing" textLength="101.9756" x="206.01" y="119.6358">openArchiveUri</text><text fill="#1A1A1A" font-family="'Inter, Helvetica, sans-serif'" font-size="14" lengthAdjust="spacing" textLength="88.9276" x="206.01" y="138.7038">(vv-archive://)</text></g><!--entity ORem--><g class="entity" data-qualified-name="URI router  .main.service..ORem" data-source-line="11" id="ent0004"><rect fill="#E4E8F1" height="68.1358" rx="4" ry="4" style="stroke:#4A4A4A;stroke-width:1.4;" width="144.3696" x="367.82" y="84.6699"/><rect fill="#E4E8F1" height="10" style="stroke:#4A4A4A;stroke-width:1.4;" width="15" x="492.1896" y="89.6699"/><rect fill="#E4E8F1" height="2" style="stroke:#4A4A4A;stroke-width:1.4;" width="4" x="490.1896" y="91.6699"/><rect fill="#E4E8F1" height="2" style="stroke:#4A4A4A;stroke-width:1.4;" width="4" x="490.1896" y="95.6699"/><text fill="#1A1A1A" font-family="'Inter, Helvetica, sans-serif'" font-size="14" lengthAdjust="spacing" textLength="104.3696" x="382.82" y="119.6358">openRemoteUri</text><text fill="#1A1A1A" font-family="'Inter, Helvetica, sans-serif'" font-size="14" lengthAdjust="spacing" textLength="30.0159" x="382.82" y="138.7038">(ssh:</text><text fill="#1A1A1A" font-family="'Inter, Helvetica, sans-serif'" font-size="14" font-style="italic" lengthAdjust="spacing" textLength="34.0619" x="416.4759" y="138.7038">&#183; sftp:</text><text fill="#1A1A1A" font-family="'Inter, Helvetica, sans-serif'" font-size="14" lengthAdjust="spacing" textLength="4.2" x="450.5377" y="138.7038">)</text></g><!--entity Ssh--><g class="entity" data-qualified-name="SSH backend  .main-side only. secrets never leave..Ssh" data-source-line="15" id="ent0006"><rect fill="#C9D2E6" height="68.1358" rx="4" ry="4" style="stroke:#4A4A4A;stroke-width:1.4;" width="145.4756" x="966.26" y="410.9399"/><rect fill="#C9D2E6" height="10" style="stroke:#4A4A4A;stroke-width:1.4;" width="15" x="1091.7356" y="415.9399"/><rect fill="#C9D2E6" height="2" style="stroke:#4A4A4A;stroke-width:1.4;" width="4" x="1089.7356" y="417.9399"/><rect fill="#C9D2E6" height="2" style="stroke:#4A4A4A;stroke-width:1.4;" width="4" x="1089.7356" y="421.9399"/><text fill="#1A1A1A" font-family="'Inter, Helvetica, sans-serif'" font-size="14" lengthAdjust="spacing" textLength="59.0238" x="981.26" y="445.9058">main.ssh</text><text fill="#1A1A1A" font-family="'Inter, Helvetica, sans-serif'" font-size="14" lengthAdjust="spacing" textLength="105.4756" x="981.26" y="464.9738">ssh2 client &#183; sftp</text></g><!--entity Cfg--><g class="entity" data-qualified-name="SSH backend  .main-side only. secrets never leave..Cfg" data-source-line="16" id="ent0007"><rect fill="#C9D2E6" height="68.1358" rx="4" ry="4" style="stroke:#4A4A4A;stroke-width:1.4;" width="313.139" x="515.43" y="540.0699"/><rect fill="#C9D2E6" height="10" style="stroke:#4A4A4A;stroke-width:1.4;" width="15" x="808.569" y="545.0699"/><rect fill="#C9D2E6" height="2" style="stroke:#4A4A4A;stroke-width:1.4;" width="4" x="806.569" y="547.0699"/><rect fill="#C9D2E6" height="2" style="stroke:#4A4A4A;stroke-width:1.4;" width="4" x="806.569" y="551.0699"/><text fill="#1A1A1A" font-family="'Inter, Helvetica, sans-serif'" font-size="14" lengthAdjust="spacing" textLength="83.2297" x="530.43" y="575.0358">ssh_config.js</text><text fill="#1A1A1A" font-family="'Inter, Helvetica, sans-serif'" font-size="14" lengthAdjust="spacing" textLength="273.139" x="530.43" y="594.1038">Host/Match/Include/ProxyJump/%-tokens</text></g><!--entity Auth--><g class="entity" data-qualified-name="SSH backend  .main-side only. secrets never leave..Auth" data-source-line="17" id="ent0008"><rect fill="#EEE6C1" height="68.1358" rx="4" ry="4" style="stroke:#4A4A4A;stroke-width:1.4;" width="350.0148" x="863.99" y="540.0699"/><rect fill="#EEE6C1" height="10" style="stroke:#4A4A4A;stroke-width:1.4;" width="15" x="1194.0048" y="545.0699"/><rect fill="#EEE6C1" height="2" style="stroke:#4A4A4A;stroke-width:1.4;" width="4" x="1192.0048" y="547.0699"/><rect fill="#EEE6C1" height="2" style="stroke:#4A4A4A;stroke-width:1.4;" width="4" x="1192.0048" y="551.0699"/><text fill="#1A1A1A" font-family="'Inter, Helvetica, sans-serif'" font-size="14" lengthAdjust="spacing" textLength="30.2119" x="878.99" y="575.0358">auth</text><text fill="#1A1A1A" font-family="'Inter, Helvetica, sans-serif'" font-size="14" lengthAdjust="spacing" textLength="310.0148" x="878.99" y="594.1038">agent &#183; key(+passphrase) &#183; keyboard-interactive</text></g><!--entity KH--><g class="entity" data-qualified-name="SSH backend  .main-side only. secrets never leave..KH" data-source-line="18" id="ent0009"><rect fill="#F0C0BF" height="68.1358" rx="4" ry="4" style="stroke:#4A4A4A;stroke-width:1.4;" width="232.4012" x="1248.8" y="540.0699"/><rect fill="#F0C0BF" height="10" style="stroke:#4A4A4A;stroke-width:1.4;" width="15" x="1461.2012" y="545.0699"/><rect fill="#F0C0BF" height="2" style="stroke:#4A4A4A;stroke-width:1.4;" width="4" x="1459.2012" y="547.0699"/><rect fill="#F0C0BF" height="2" style="stroke:#4A4A4A;stroke-width:1.4;" width="4" x="1459.2012" y="551.0699"/><text fill="#1A1A1A" font-family="'Inter, Helvetica, sans-serif'" font-size="14" lengthAdjust="spacing" textLength="86.0577" x="1263.8" y="575.0358">known_hosts</text><text fill="#1A1A1A" font-family="'Inter, Helvetica, sans-serif'" font-size="14" lengthAdjust="spacing" textLength="192.4012" x="1263.8" y="594.1038">TOFU &#183; hard-reject on change</text></g><!--entity Conn--><g class="entity" data-qualified-name="SSH backend  .main-side only. secrets never leave..Conn" data-source-line="19" id="ent0010"><rect fill="#C9D2E6" height="68.1358" rx="4" ry="4" style="stroke:#4A4A4A;stroke-width:1.4;" width="190.3314" x="1515.83" y="540.0699"/><rect fill="#C9D2E6" height="10" style="stroke:#4A4A4A;stroke-width:1.4;" width="15" x="1686.1614" y="545.0699"/><rect fill="#C9D2E6" height="2" style="stroke:#4A4A4A;stroke-width:1.4;" width="4" x="1684.1614" y="547.0699"/><rect fill="#C9D2E6" height="2" style="stroke:#4A4A4A;stroke-width:1.4;" width="4" x="1684.1614" y="551.0699"/><text fill="#1A1A1A" font-family="'Inter, Helvetica, sans-serif'" font-size="14" lengthAdjust="spacing" textLength="116.5635" x="1530.83" y="575.0358">main.connections</text><text fill="#1A1A1A" font-family="'Inter, Helvetica, sans-serif'" font-size="14" lengthAdjust="spacing" textLength="150.3314" x="1530.83" y="594.1038">saved connections.edn</text></g><!--entity Pipe--><g class="entity" data-qualified-name="Shared downstream .identical to local..Pipe" data-source-line="25" id="ent0013"><rect fill="#F1D6BE" height="68.1358" rx="4" ry="4" style="stroke:#4A4A4A;stroke-width:1.4;" width="219.7453" x="22.13" y="239.7999"/><rect fill="#F1D6BE" height="10" style="stroke:#4A4A4A;stroke-width:1.4;" width="15" x="221.8753" y="244.7999"/><rect fill="#F1D6BE" height="2" style="stroke:#4A4A4A;stroke-width:1.4;" width="4" x="219.8753" y="246.7999"/><rect fill="#F1D6BE" height="2" style="stroke:#4A4A4A;stroke-width:1.4;" width="4" x="219.8753" y="250.7999"/><text fill="#1A1A1A" font-family="'Inter, Helvetica, sans-serif'" font-size="14" lengthAdjust="spacing" textLength="106.6376" x="37.13" y="274.7658">content pipeline</text><text fill="#1A1A1A" font-family="'Inter, Helvetica, sans-serif'" font-size="14" lengthAdjust="spacing" textLength="179.7453" x="37.13" y="293.8338">classify -&gt; IR front-end -&gt; IR</text></g><!--entity Stream--><g class="entity" data-qualified-name="Shared downstream .identical to local..Stream" data-source-line="26" id="ent0014"><rect fill="#C7E8DE" height="68.1358" rx="4" ry="4" style="stroke:#4A4A4A;stroke-width:1.4;" width="290.4731" x="21.76" y="410.9399"/><rect fill="#C7E8DE" height="10" style="stroke:#4A4A4A;stroke-width:1.4;" width="15" x="292.2331" y="415.9399"/><rect fill="#C7E8DE" height="2" style="stroke:#4A4A4A;stroke-width:1.4;" width="4" x="290.2331" y="417.9399"/><rect fill="#C7E8DE" height="2" style="stroke:#4A4A4A;stroke-width:1.4;" width="4" x="290.2331" y="421.9399"/><text fill="#1A1A1A" font-family="'Inter, Helvetica, sans-serif'" font-size="14" lengthAdjust="spacing" textLength="125.6915" x="36.76" y="445.9058">streaming / paging</text><text fill="#1A1A1A" font-family="'Inter, Helvetica, sans-serif'" font-size="14" lengthAdjust="spacing" textLength="250.4731" x="36.76" y="464.9738">bounded-memory (mid-drop = partial)</text></g><!--entity Rend--><g class="entity" data-qualified-name="Shared downstream .identical to local..Rend" data-source-line="27" id="ent0015"><rect fill="#C7E8DE" height="68.1358" rx="4" ry="4" style="stroke:#4A4A4A;stroke-width:1.4;" width="135.6616" x="99.17" y="540.0699"/><rect fill="#C7E8DE" height="10" style="stroke:#4A4A4A;stroke-width:1.4;" width="15" x="214.8316" y="545.0699"/><rect fill="#C7E8DE" height="2" style="stroke:#4A4A4A;stroke-width:1.4;" width="4" x="212.8316" y="547.0699"/><rect fill="#C7E8DE" height="2" style="stroke:#4A4A4A;stroke-width:1.4;" width="4" x="212.8316" y="551.0699"/><text fill="#1A1A1A" font-family="'Inter, Helvetica, sans-serif'" font-size="14" lengthAdjust="spacing" textLength="65.0018" x="114.17" y="575.0358">renderers</text><text fill="#1A1A1A" font-family="'Inter, Helvetica, sans-serif'" font-size="14" lengthAdjust="spacing" textLength="95.6616" x="114.17" y="594.1038">GUI + vv-cli/tui</text></g><!--entity Poll--><g class="entity" data-qualified-name="Shared downstream .identical to local..Poll" data-source-line="28" id="ent0016"><rect fill="#DFD9D0" height="68.1358" rx="4" ry="4" style="stroke:#4A4A4A;stroke-width:1.4;" width="181.9035" x="277.05" y="239.7999"/><rect fill="#DFD9D0" height="10" style="stroke:#4A4A4A;stroke-width:1.4;" width="15" x="438.9535" y="244.7999"/><rect fill="#DFD9D0" height="2" style="stroke:#4A4A4A;stroke-width:1.4;" width="4" x="436.9535" y="246.7999"/><rect fill="#DFD9D0" height="2" style="stroke:#4A4A4A;stroke-width:1.4;" width="4" x="436.9535" y="250.7999"/><text fill="#1A1A1A" font-family="'Inter, Helvetica, sans-serif'" font-size="14" lengthAdjust="spacing" textLength="96.3476" x="292.05" y="274.7658">polling refresh</text><text fill="#1A1A1A" font-family="'Inter, Helvetica, sans-serif'" font-size="14" lengthAdjust="spacing" textLength="141.9035" x="292.05" y="293.8338">:remote :poll-seconds</text></g><!--entity Host--><g class="entity" data-qualified-name="Host" data-source-line="22" id="ent0011"><rect fill="#DFD9D0" height="68.1358" rx="4" ry="4" style="stroke:#4A4A4A;stroke-width:1.4;" width="149.2696" x="1741.37" y="540.0699"/><rect fill="#DFD9D0" height="10" style="stroke:#4A4A4A;stroke-width:1.4;" width="15" x="1870.6396" y="545.0699"/><rect fill="#DFD9D0" height="2" style="stroke:#4A4A4A;stroke-width:1.4;" width="4" x="1868.6396" y="547.0699"/><rect fill="#DFD9D0" height="2" style="stroke:#4A4A4A;stroke-width:1.4;" width="4" x="1868.6396" y="551.0699"/><text fill="#1A1A1A" font-family="'Inter, Helvetica, sans-serif'" font-size="14" lengthAdjust="spacing" textLength="80.7097" x="1756.37" y="575.0358">remote host</text><text fill="#1A1A1A" font-family="'Inter, Helvetica, sans-serif'" font-size="14" lengthAdjust="spacing" textLength="109.2696" x="1756.37" y="594.1038">files / directories</text></g><!--link ORem to Ssh--><g class="link" data-entity-1="ent0004" data-entity-2="ent0006" data-link-type="dependency" data-source-line="31" id="lnk17"><path d="M501.85,153.2199 C616.78,215.4399 857.6229,345.8197 972.6429,408.0797" fill="none" id="ORem-to-Ssh" style="stroke:#555555;stroke-width:1.3;"/><polygon fill="#555555" points="977.04,410.4599,971.0293,402.6579,972.6429,408.0797,967.221,409.6933,977.04,410.4599" style="stroke:#555555;stroke-width:1.3;stroke-linejoin:miter;stroke-miterlimit:10;"/></g><!--link Ssh to Cfg--><g class="link" data-entity-1="ent0006" data-entity-2="ent0007" data-link-type="dependency" data-source-line="32" id="lnk18"><path d="M966.05,471.2799 C909.51,490.8599 835.3544,516.5529 773.5344,537.9729" fill="none" id="Ssh-to-Cfg" style="stroke:#555555;stroke-width:1.3;"/><polygon fill="#555555" points="768.81,539.6099,778.6236,540.4429,773.5344,537.9729,776.0044,532.8838,768.81,539.6099" style="stroke:#555555;stroke-width:1.3;stroke-linejoin:miter;stroke-miterlimit:10;"/></g><!--link Ssh to Auth--><g class="link" data-entity-1="ent0006" data-entity-2="ent0008" data-link-type="dependency" data-source-line="33" id="lnk19"><path d="M1039,479.4099 C1039,498.0999 1039,516.3099 1039,534.9599" fill="none" id="Ssh-to-Auth" style="stroke:#555555;stroke-width:1.3;"/><polygon fill="#555555" points="1039,539.9599,1043,530.9599,1039,534.9599,1035,530.9599,1039,539.9599" style="stroke:#555555;stroke-width:1.3;stroke-linejoin:miter;stroke-miterlimit:10;"/></g><!--link Ssh to KH--><g class="link" data-entity-1="ent0006" data-entity-2="ent0009" data-link-type="dependency" data-source-line="34" id="lnk20"><path d="M1112.16,474.5399 C1161.63,493.8299 1222.4918,517.5629 1274.4318,537.8229" fill="none" id="Ssh-to-KH" style="stroke:#555555;stroke-width:1.3;"/><polygon fill="#555555" points="1279.09,539.6399,1272.1589,532.6428,1274.4318,537.8229,1269.2517,540.0959,1279.09,539.6399" style="stroke:#555555;stroke-width:1.3;stroke-linejoin:miter;stroke-miterlimit:10;"/></g><!--link Ssh to Conn--><g class="link" data-entity-1="ent0006" data-entity-2="ent0010" data-link-type="dependency" data-source-line="35" id="lnk21"><path d="M1111.93,458.9299 C1203.01,475.5299 1363.36,506.2499 1499,540.0699 C1504.41,541.4199 1505.1214,541.5619 1510.7014,543.0619" fill="none" id="Ssh-to-Conn" style="stroke:#555555;stroke-width:1.3;"/><polygon fill="#555555" points="1515.53,544.3599,1507.877,538.1606,1510.7014,543.0619,1505.8002,545.8864,1515.53,544.3599" style="stroke:#555555;stroke-width:1.3;stroke-linejoin:miter;stroke-miterlimit:10;"/></g><!--link Ssh to Host--><g class="link" data-entity-1="ent0006" data-entity-2="ent0011" data-link-type="dependency" data-source-line="36" id="lnk22"><path d="M1112.18,451.2199 C1238.17,461.2799 1503.58,487.1899 1722,540.0699 C1728.22,541.5799 1729.8207,541.9038 1736.1907,543.8138" fill="none" id="Ssh-to-Host" style="stroke:#555555;stroke-width:1.3;"/><polygon fill="#555555" points="1740.98,545.2499,1733.508,538.8335,1736.1907,543.8138,1731.2104,546.4965,1740.98,545.2499" style="stroke:#555555;stroke-width:1.3;stroke-linejoin:miter;stroke-miterlimit:10;"/></g><!--link OLoc to Pipe--><g class="link" data-entity-1="ent0002" data-entity-2="ent0013" data-link-type="dependency" data-source-line="37" id="lnk23"><path d="M108.51,152.9599 C113.52,178.5599 119.4693,208.8931 124.4893,234.5331" fill="none" id="OLoc-to-Pipe" style="stroke:#555555;stroke-width:1.3;"/><polygon fill="#555555" points="125.45,239.4399,127.6462,229.839,124.4893,234.5331,119.7953,231.3762,125.45,239.4399" style="stroke:#555555;stroke-width:1.3;stroke-linejoin:miter;stroke-miterlimit:10;"/></g><!--link OArc to Pipe--><g class="link" data-entity-1="ent0003" data-entity-2="ent0013" data-link-type="dependency" data-source-line="38" id="lnk24"><path d="M233.79,152.9599 C212.06,178.5599 185.3862,209.9884 163.6162,235.6284" fill="none" id="OArc-to-Pipe" style="stroke:#555555;stroke-width:1.3;"/><polygon fill="#555555" points="160.38,239.4399,169.2543,235.1682,163.6162,235.6284,163.1559,229.9903,160.38,239.4399" style="stroke:#555555;stroke-width:1.3;stroke-linejoin:miter;stroke-miterlimit:10;"/></g><!--link ORem to Pipe--><g class="link" data-entity-1="ent0004" data-entity-2="ent0013" data-link-type="dependency" data-source-line="39" id="lnk25"><path d="M394.62,153.1899 C380.86,162.0199 365.32,170.7599 350,176.7999 C312.13,191.7499 297.95,179.0799 260,193.7999 C230.66,205.1799 204.7148,220.5585 181.0948,236.6185" fill="none" id="ORem-to-Pipe" style="stroke:#555555;stroke-width:1.3;"/><polygon fill="#555555" points="176.96,239.4299,186.6517,237.6773,181.0948,236.6185,182.1535,231.0616,176.96,239.4299" style="stroke:#555555;stroke-width:1.3;stroke-linejoin:miter;stroke-miterlimit:10;"/></g><!--link Pipe to Stream--><g class="link" data-entity-1="ent0013" data-entity-2="ent0014" data-link-type="dependency" data-source-line="40" id="lnk26"><path d="M138.91,308.2899 C145.05,337.9399 152.957,376.1336 159.087,405.7636" fill="none" id="Pipe-to-Stream" style="stroke:#555555;stroke-width:1.3;"/><polygon fill="#555555" points="160.1,410.6599,162.1937,401.0362,159.087,405.7636,154.3596,402.6569,160.1,410.6599" style="stroke:#555555;stroke-width:1.3;stroke-linejoin:miter;stroke-miterlimit:10;"/></g><!--link Stream to Rend--><g class="link" data-entity-1="ent0014" data-entity-2="ent0015" data-link-type="dependency" data-source-line="41" id="lnk27"><path d="M167,479.4099 C167,498.0999 167,516.3099 167,534.9599" fill="none" id="Stream-to-Rend" style="stroke:#555555;stroke-width:1.3;"/><polygon fill="#555555" points="167,539.9599,171,530.9599,167,534.9599,163,530.9599,167,539.9599" style="stroke:#555555;stroke-width:1.3;stroke-linejoin:miter;stroke-miterlimit:10;"/></g><!--link Poll to Ssh--><g class="link" data-entity-1="ent0016" data-entity-2="ent0006" data-link-type="dependency" data-source-line="42" id="lnk28"><path d="M459.29,305.6299 C509.62,322.0199 573.4,341.8399 631,356.9399 C747.13,387.3799 878.9983,413.9645 961.0183,429.5845" fill="none" id="Poll-to-Ssh" style="stroke:#555555;stroke-width:1.3;stroke-dasharray:7,7;"/><polygon fill="#555555" points="965.93,430.5199,957.8372,424.9068,961.0183,429.5845,956.3406,432.7656,965.93,430.5199" style="stroke:#555555;stroke-width:1.3;stroke-linejoin:miter;stroke-miterlimit:10;"/><text fill="#000000" font-family="'Inter, Helvetica, sans-serif'" font-size="13" lengthAdjust="spacing" textLength="116.3501" x="632" y="352.8369">re-fetch on interval</text></g><g class="legend" data-source-line="44"><rect fill="none" height="166.5433" rx="4" ry="4" style="stroke:#000000;stroke-width:1;" width="645.4857" x="1240.1539" y="645.2099"/><text fill="#000000" font-family="'Inter, Helvetica, sans-serif'" font-size="14" font-weight="700" lengthAdjust="spacing" textLength="46.0178" x="1248.7938" y="667.1758">Colour</text><text fill="#000000" font-family="'Inter, Helvetica, sans-serif'" font-size="14" font-weight="700" lengthAdjust="spacing" textLength="57.3438" x="1302.0916" y="667.1758">Concept</text><rect fill="#3A5BA0" height="19.0679" style="stroke:none;stroke-width:1;" width="53.2978" x="1245.1539" y="671.2778"/><text fill="#000000" font-family="'Inter, Helvetica, sans-serif'" font-size="14" lengthAdjust="spacing" textLength="14.5599" x="1245.1539" y="686.2438">&#160;&#160;&#160;&#160;</text><text fill="#000000" font-family="'Inter, Helvetica, sans-serif'" font-size="14" lengthAdjust="spacing" textLength="130.8995" x="1302.0916" y="686.2438">main / SSH backend</text><rect fill="#B1951D" height="19.0679" style="stroke:none;stroke-width:1;" width="53.2978" x="1245.1539" y="690.3457"/><text fill="#000000" font-family="'Inter, Helvetica, sans-serif'" font-size="14" lengthAdjust="spacing" textLength="14.5599" x="1245.1539" y="705.3117">&#160;&#160;&#160;&#160;</text><text fill="#000000" font-family="'Inter, Helvetica, sans-serif'" font-size="14" lengthAdjust="spacing" textLength="201.0253" x="1302.0916" y="705.3117">auth prompts (cross the seam)</text><rect fill="#E0211D" height="19.0679" style="stroke:none;stroke-width:1;" width="53.2978" x="1245.1539" y="709.4136"/><text fill="#000000" font-family="'Inter, Helvetica, sans-serif'" font-size="14" lengthAdjust="spacing" textLength="14.5599" x="1245.1539" y="724.3796">&#160;&#160;&#160;&#160;</text><text fill="#000000" font-family="'Inter, Helvetica, sans-serif'" font-size="14" lengthAdjust="spacing" textLength="132.7335" x="1302.0916" y="724.3796">host-key verification</text><rect fill="#9F8766" height="19.0679" style="stroke:none;stroke-width:1;" width="53.2978" x="1245.1539" y="728.4816"/><text fill="#000000" font-family="'Inter, Helvetica, sans-serif'" font-size="14" lengthAdjust="spacing" textLength="14.5599" x="1245.1539" y="743.4475">&#160;&#160;&#160;&#160;</text><text fill="#000000" font-family="'Inter, Helvetica, sans-serif'" font-size="14" lengthAdjust="spacing" textLength="161.1114" x="1302.0916" y="743.4475">remote / local filesystem</text><rect fill="#E67E22" height="19.0679" style="stroke:none;stroke-width:1;" width="53.2978" x="1245.1539" y="747.5495"/><text fill="#000000" font-family="'Inter, Helvetica, sans-serif'" font-size="14" lengthAdjust="spacing" textLength="14.5599" x="1245.1539" y="762.5154">&#160;&#160;&#160;&#160;</text><text fill="#000000" font-family="'Inter, Helvetica, sans-serif'" font-size="14" lengthAdjust="spacing" textLength="118.7335" x="1302.0916" y="762.5154">shared IR pipeline</text><rect fill="#2D9574" height="19.0679" style="stroke:none;stroke-width:1;" width="53.2978" x="1245.1539" y="766.6174"/><text fill="#000000" font-family="'Inter, Helvetica, sans-serif'" font-size="14" lengthAdjust="spacing" textLength="14.5599" x="1245.1539" y="781.5833">&#160;&#160;&#160;&#160;</text><text fill="#000000" font-family="'Inter, Helvetica, sans-serif'" font-size="14" lengthAdjust="spacing" textLength="147.5454" x="1302.0916" y="781.5833">streaming + renderers</text><line style="stroke:#000000;stroke-width:1;" x1="1245.1539" x2="1506.7569" y1="652.2099" y2="652.2099"/><line style="stroke:#000000;stroke-width:1;" x1="1245.1539" x2="1506.7569" y1="671.2778" y2="671.2778"/><line style="stroke:#000000;stroke-width:1;" x1="1245.1539" x2="1506.7569" y1="690.3457" y2="690.3457"/><line style="stroke:#000000;stroke-width:1;" x1="1245.1539" x2="1506.7569" y1="709.4136" y2="709.4136"/><line style="stroke:#000000;stroke-width:1;" x1="1245.1539" x2="1506.7569" y1="728.4816" y2="728.4816"/><line style="stroke:#000000;stroke-width:1;" x1="1245.1539" x2="1506.7569" y1="747.5495" y2="747.5495"/><line style="stroke:#000000;stroke-width:1;" x1="1245.1539" x2="1506.7569" y1="766.6174" y2="766.6174"/><line style="stroke:#000000;stroke-width:1;" x1="1245.1539" x2="1506.7569" y1="785.6853" y2="785.6853"/><line style="stroke:#000000;stroke-width:1;" x1="1245.1539" x2="1245.1539" y1="652.2099" y2="785.6853"/><line style="stroke:#000000;stroke-width:1;" x1="1298.4516" x2="1298.4516" y1="652.2099" y2="785.6853"/><line style="stroke:#000000;stroke-width:1;" x1="1506.7569" x2="1506.7569" y1="652.2099" y2="785.6853"/><text fill="#000000" font-family="'Inter, Helvetica, sans-serif'" font-size="14" lengthAdjust="spacing" textLength="635.4857" x="1245.1539" y="802.6513">A remote URI opens through the same renderers, streaming, paging, and refresh as a local path.</text></g><?plantuml-src VLNjJYCt5Fq_Jt7BgYM8J0AqGA7TbR9BMDBbIm7KFv6GcN4oNYRsoFPaDogL-X1zb_xle_H9Uguz2P5WymV6Zk_nkUVUSxsvITUbqFxkufpCJ5gwa7OgL4uFCXEra-GBIPLHsfDoM0XFWYxxlzDCML-BaXv4zYXrJYtdYkDkTukgifuuGe09iJUzYtwokKcv-QATjr9CgLALB9MM91oL9WF8DWcR5MecwMuuSFJVNt-J_5fPwPm4apbPKtkb9m2qCfmXKqajRNEF0POhX9KvtvGPxINukWftj7cPoSgdcIbDZICqjcOQqnAbz5w2UYdmxoqXSRr8g4rUQEnPEJNuSUpQPApG4put64RmhKxodT9PMUUIxcUp5A1JsL7rj4mIhtmfQTX4grAwgE_DpLd8JxnGC8Xh9KHtWTwNmW1X8LQIL3WdSFy6vy-A08rQpBdZf9sfJ6vjq1y98UDf1KaWmGRBTCuIZtIBII1dN-0ObB_2Fbtq1fVtjuFBsvTXlLYHEwiGY-IQ2d6DOpmEh8kFgSVms1lqxp_anhvwXi2P274wE3zF_bp9aMLQ21EJJ9s2p4QNypOvcLdf7Md9afPIp5x9FIhZYf76dptAIiNR3OTm_uqhlfK1GkxHEMCrwNns8trcdEzU29yLtK4iUFVQcg_pt-ffrVq-zGP4NS3yC9vy2rFK7cIGNgJnAEUjxKeuLnLMEBdLx3qOOVCKVIsjo3mK3x0znDBW-iChi8yQrhelm114RwzExnYeO10hFylCGpFA2cxTWFJfZFh3uTNm5QIW6BBMY5960yv1sPnMjZeorp5FxAqaYjgj03McOKuZ7Pk_Ixco035MoQWKQqgdDp5-fVB1oAlpeeN2QwzuKC3iOMAyhFR2zGk_Z50cQAl6SqhViMDXU-rJxgUm3XIkSHZVhzK_NCqpfmlFJF0nqW-crhdCqocoitDqfShJt9eA4w4Irgj0YzigqXxsBq_wm_vhw1OqfCNy6kcFTmECF_WB_TdrjGe8GwQv9huoPSdSh1nZIAAfZXl5Z_cN5FOmEeygNsDZgJAg53oNGW8qVy86u6yqxVAREssv-7JsV0O5NowuTacO8BnY6PCm3vvNYsl2AkWSBWtI98r2lCEf9e5afnD8qJ7IIiSINkFE3KQO2KpKKavO5gicXOSSJsz1YKTw_0f3dfxuXr_V_DZRVz_RUVV3czs3dLzU_dsAaxvBgrEc2Ns_UxI_Ux8cb5rC5TwG2WEebLdZuhXso6XhWTBVsTjTYyBMIE5smW1JO_GsksiHVNJwy-71mPhefjhTvlaC3fix3yaNznySzlVsrY34vv9ziNoDcz2zawFzmv_MXIwjiKtBHWxHlGMnnGlDok2bcXHH8J6Lpn7jPw1sOx4s2IvmR6fkNj4aoAzM9q5ax87_0G00?></g></svg>