<svg xmlns="http://www.w3.org/2000/svg" xmlns:xlink="http://www.w3.org/1999/xlink" contentStyleType="text/css" data-diagram-type="DESCRIPTION" height="612px" preserveAspectRatio="none" style="width:1082px;height:612px;background:#FBF8EF;" version="1.1" viewBox="0 0 1082 612" width="1082px" zoomAndPan="magnify"><?plantuml $version$?><defs/><g><rect fill="#FBF8EF" height="612" style="stroke:none;stroke-width:1;" width="1082" x="0" y="0"/><g class="title" data-source-line="7"><text fill="#000000" font-family="'Inter, Helvetica, sans-serif'" font-size="14" font-weight="700" lengthAdjust="spacing" textLength="618.6158" x="228.3792" y="24.9659">Password-manager bridge &#8212; the secret is revealed main-side, straight into the web-view</text></g><!--entity Page--><g class="entity" data-qualified-name="Page" data-source-line="9" id="ent0001"><rect fill="#C7E8DE" height="68.1358" rx="4" ry="4" style="stroke:#4A4A4A;stroke-width:1.4;" width="139.9176" x="64.13" y="396.4079"/><rect fill="#C7E8DE" height="10" style="stroke:#4A4A4A;stroke-width:1.4;" width="15" x="184.0476" y="401.4079"/><rect fill="#C7E8DE" height="2" style="stroke:#4A4A4A;stroke-width:1.4;" width="4" x="182.0476" y="403.4079"/><rect fill="#C7E8DE" height="2" style="stroke:#4A4A4A;stroke-width:1.4;" width="4" x="182.0476" y="407.4079"/><text fill="#1A1A1A" font-family="'Inter, Helvetica, sans-serif'" font-size="14" lengthAdjust="spacing" textLength="99.9176" x="79.13" y="431.3739">web page form</text><text fill="#1A1A1A" font-family="'Inter, Helvetica, sans-serif'" font-size="14" lengthAdjust="spacing" textLength="86.2817" x="79.13" y="450.4418">(login inputs)</text></g><!--entity WP--><g class="entity" data-qualified-name="WP" data-source-line="10" id="ent0002"><rect fill="#EEE6C1" height="68.1358" rx="4" ry="4" style="stroke:#4A4A4A;stroke-width:1.4;" width="253.4012" x="7.39" y="221.7379"/><rect fill="#EEE6C1" height="10" style="stroke:#4A4A4A;stroke-width:1.4;" width="15" x="240.7912" y="226.7379"/><rect fill="#EEE6C1" height="2" style="stroke:#4A4A4A;stroke-width:1.4;" width="4" x="238.7912" y="228.7379"/><rect fill="#EEE6C1" height="2" style="stroke:#4A4A4A;stroke-width:1.4;" width="4" x="238.7912" y="232.7379"/><text fill="#1A1A1A" font-family="'Inter, Helvetica, sans-serif'" font-size="14" lengthAdjust="spacing" textLength="96.9216" x="22.39" y="256.7039">web-preload.js</text><text fill="#1A1A1A" font-family="'Inter, Helvetica, sans-serif'" font-size="14" lengthAdjust="spacing" textLength="213.4012" x="22.39" y="275.7718">(isolated bridge in the web-view)</text></g><!--entity Main--><g class="entity" data-qualified-name="Main" data-source-line="11" id="ent0003"><rect fill="#C9D2E6" height="68.1358" rx="4" ry="4" style="stroke:#4A4A4A;stroke-width:1.4;" width="191.3114" x="437.43" y="47.0679"/><rect fill="#C9D2E6" height="10" style="stroke:#4A4A4A;stroke-width:1.4;" width="15" x="608.7414" y="52.0679"/><rect fill="#C9D2E6" height="2" style="stroke:#4A4A4A;stroke-width:1.4;" width="4" x="606.7414" y="54.0679"/><rect fill="#C9D2E6" height="2" style="stroke:#4A4A4A;stroke-width:1.4;" width="4" x="606.7414" y="58.0679"/><text fill="#1A1A1A" font-family="'Inter, Helvetica, sans-serif'" font-size="14" lengthAdjust="spacing" textLength="151.3114" x="452.43" y="82.0339">vinary.main.passwords</text><text fill="#1A1A1A" font-family="'Inter, Helvetica, sans-serif'" font-size="14" lengthAdjust="spacing" textLength="126.2795" x="452.43" y="101.1018">(provider adapters)</text></g><!--entity CLI--><g class="entity" data-qualified-name="CLI" data-source-line="12" id="ent0004"><rect fill="#DFD9D0" height="87.2038" rx="4" ry="4" style="stroke:#4A4A4A;stroke-width:1.4;" width="212.9274" x="386.63" y="212.2079"/><rect fill="#DFD9D0" height="10" style="stroke:#4A4A4A;stroke-width:1.4;" width="15" x="579.5574" y="217.2079"/><rect fill="#DFD9D0" height="2" style="stroke:#4A4A4A;stroke-width:1.4;" width="4" x="577.5574" y="219.2079"/><rect fill="#DFD9D0" height="2" style="stroke:#4A4A4A;stroke-width:1.4;" width="4" x="577.5574" y="223.2079"/><text fill="#1A1A1A" font-family="'Inter, Helvetica, sans-serif'" font-size="14" lengthAdjust="spacing" textLength="80.4437" x="401.63" y="247.1739">provider CLI</text><text fill="#1A1A1A" font-family="'Inter, Helvetica, sans-serif'" font-size="14" lengthAdjust="spacing" textLength="172.9274" x="401.63" y="266.2418">(1Password / LastPass / ...)</text><text fill="#1A1A1A" font-family="'Inter, Helvetica, sans-serif'" font-size="14" lengthAdjust="spacing" textLength="150.9614" x="401.63" y="285.3097">spawned argv, no shell</text></g><!--entity R--><g class="entity" data-qualified-name="R" data-source-line="13" id="ent0005"><rect fill="#C7E8DE" height="68.1358" rx="4" ry="4" style="stroke:#4A4A4A;stroke-width:1.4;" width="183.8074" x="776.19" y="221.7379"/><rect fill="#C7E8DE" height="10" style="stroke:#4A4A4A;stroke-width:1.4;" width="15" x="939.9974" y="226.7379"/><rect fill="#C7E8DE" height="2" style="stroke:#4A4A4A;stroke-width:1.4;" width="4" x="937.9974" y="228.7379"/><rect fill="#C7E8DE" height="2" style="stroke:#4A4A4A;stroke-width:1.4;" width="4" x="937.9974" y="232.7379"/><text fill="#1A1A1A" font-family="'Inter, Helvetica, sans-serif'" font-size="14" lengthAdjust="spacing" textLength="79.8417" x="791.19" y="256.7039">Renderer UI</text><text fill="#1A1A1A" font-family="'Inter, Helvetica, sans-serif'" font-size="14" lengthAdjust="spacing" textLength="143.8074" x="791.19" y="275.7718">(picker / save prompt)</text></g><g class="entity" data-qualified-name="GMN14" data-source-line="24" id="ent0015"><path d="M663.56,53.5779 L663.56,77.1379 L629.04,81.1379 L663.56,85.1379 L663.56,108.696 A4,4 0 0 0 667.56,112.696 L922.6202,112.696 A4,4 0 0 0 926.6202,108.696 L926.6202,59.5779 L916.6202,49.5779 L667.56,49.5779 A4,4 0 0 0 663.56,53.5779" fill="#F5E1E0" style="stroke:#7F6B14;stroke-width:0.5;"/><path d="M916.6202,49.5779 L916.6202,57.5779 A2,2 0 0 0 918.6202,59.5779 L926.6202,59.5779 L916.6202,49.5779" fill="#F5E1E0" style="stroke:#7F6B14;stroke-width:0.5;"/><text fill="#000000" font-family="'Inter, Helvetica, sans-serif'" font-size="13" lengthAdjust="spacing" textLength="164.4891" x="669.56" y="68.4749">the secret never enters the</text><text fill="#000000" font-family="'Inter, Helvetica, sans-serif'" font-size="13" lengthAdjust="spacing" textLength="202.2802" x="669.56" y="86.1809">Renderer UI, app-db, or config &#8212;</text><text fill="#000000" font-family="'Inter, Helvetica, sans-serif'" font-size="13" lengthAdjust="spacing" textLength="242.0602" x="669.56" y="103.887">it goes main -&gt; web-preload -&gt; the form</text></g><!--link Page to WP--><g class="link" data-entity-1="ent0001" data-entity-2="ent0002" data-link-type="dependency" data-source-line="15" id="lnk6"><path d="M179.07,396.2179 C187.61,387.5479 195.36,377.4879 200.09,366.4079 C206.56,351.2879 206.02,344.7479 200.09,329.4079 C194.44,314.7979 187.7608,304.9451 177.1208,293.6651" fill="none" id="Page-to-WP" style="stroke:#555555;stroke-width:1.3;"/><polygon fill="#555555" points="173.69,290.0279,176.9558,299.3196,177.1208,293.6651,182.7753,293.8302,173.69,290.0279" style="stroke:#555555;stroke-width:1.3;stroke-linejoin:miter;stroke-miterlimit:10;"/><text fill="#000000" font-family="'Inter, Helvetica, sans-serif'" font-size="13" lengthAdjust="spacing" textLength="100.2041" x="205.74" y="344.3049">form metadata /</text><text fill="#000000" font-family="'Inter, Helvetica, sans-serif'" font-size="13" lengthAdjust="spacing" textLength="91.0651" x="210.3095" y="362.0109">save candidate</text></g><!--link WP to Page--><g class="link" data-entity-1="ent0002" data-entity-2="ent0001" data-link-type="dependency" data-source-line="22" id="lnk13"><path d="M63.64,290.3179 C32.34,310.1179 6,337.0379 23.09,366.4079 C32.46,382.5079 43.2959,392.3348 59.4459,401.6248" fill="none" id="WP-to-Page" style="stroke:#555555;stroke-width:1.3;"/><polygon fill="#555555" points="63.78,404.1179,57.9731,396.163,59.4459,401.6248,53.9841,403.0976,63.78,404.1179" style="stroke:#555555;stroke-width:1.3;stroke-linejoin:miter;stroke-miterlimit:10;"/><text fill="#000000" font-family="'Inter, Helvetica, sans-serif'" font-size="13" lengthAdjust="spacing" textLength="167.0502" x="24.09" y="353.3049">DOM input / change events</text></g><!--link WP to Main--><g class="link" data-entity-1="ent0002" data-entity-2="ent0003" data-link-type="dependency" data-source-line="16" id="lnk7"><path d="M186.61,221.4679 C234.24,191.3779 298.97,150.9879 312.09,145.2079 C351.71,127.7579 392.602,115.0303 432.152,104.7103" fill="none" id="WP-to-Main" style="stroke:#555555;stroke-width:1.3;"/><polygon fill="#555555" points="436.99,103.4479,427.2717,101.8498,432.152,104.7103,429.2915,109.5907,436.99,103.4479" style="stroke:#555555;stroke-width:1.3;stroke-linejoin:miter;stroke-miterlimit:10;"/><text fill="#000000" font-family="'Inter, Helvetica, sans-serif'" font-size="13" lengthAdjust="spacing" textLength="100.2041" x="313.09" y="160.1049">form metadata /</text><text fill="#000000" font-family="'Inter, Helvetica, sans-serif'" font-size="13" lengthAdjust="spacing" textLength="91.0651" x="317.6595" y="177.8109">save candidate</text></g><!--link Main to WP--><g class="link" data-entity-1="ent0003" data-entity-2="ent0002" data-link-type="dependency" data-source-line="21" id="lnk12"><path d="M437.35,82.1379 C323.56,84.4179 143.66,95.9679 101.09,145.2079 C82.7,166.4779 92.119,193.4477 106.549,217.1377" fill="none" id="Main-to-WP" style="stroke:#555555;stroke-width:1.3;"/><polygon fill="#555555" points="109.15,221.4079,107.8843,211.6407,106.549,217.1377,101.052,215.8024,109.15,221.4079" style="stroke:#555555;stroke-width:1.3;stroke-linejoin:miter;stroke-miterlimit:10;"/><text fill="#000000" font-family="'Inter, Helvetica, sans-serif'" font-size="13" font-weight="700" lengthAdjust="spacing" textLength="139.6201" x="102.09" y="169.1049">revealed secret ONLY</text></g><!--link R to Main--><g class="link" data-entity-1="ent0005" data-entity-2="ent0003" data-link-type="dependency" data-source-line="17" id="lnk8"><path d="M896.39,221.4879 C912.94,197.8279 927.17,166.5979 908.09,145.2079 C869.08,101.4779 703.53,126.8179 646.09,115.2079 C640.48,114.0779 639.6109,113.9689 633.8409,112.5789" fill="none" id="R-to-Main" style="stroke:#555555;stroke-width:1.3;"/><polygon fill="#555555" points="628.98,111.4079,636.7929,117.4045,633.8409,112.5789,638.6665,109.627,628.98,111.4079" style="stroke:#555555;stroke-width:1.3;stroke-linejoin:miter;stroke-miterlimit:10;"/><text fill="#000000" font-family="'Inter, Helvetica, sans-serif'" font-size="13" lengthAdjust="spacing" textLength="104.3641" x="940.105" y="160.1049">selected item id /</text><text fill="#000000" font-family="'Inter, Helvetica, sans-serif'" font-size="13" lengthAdjust="spacing" textLength="148.1741" x="918.2" y="177.8109">save token (NON-secret)</text></g><!--link Main to R--><g class="link" data-entity-1="ent0003" data-entity-2="ent0005" data-link-type="dependency" data-source-line="20" id="lnk11"><path d="M629.2,110.8779 C667.17,122.8879 705.82,136.1379 723.09,145.2079 C762.76,166.0579 799.225,194.2542 827.225,218.1242" fill="none" id="Main-to-R" style="stroke:#555555;stroke-width:1.3;"/><polygon fill="#555555" points="831.03,221.3679,826.776,212.4851,827.225,218.1242,821.586,218.5731,831.03,221.3679" style="stroke:#555555;stroke-width:1.3;stroke-linejoin:miter;stroke-miterlimit:10;"/><text fill="#000000" font-family="'Inter, Helvetica, sans-serif'" font-size="13" lengthAdjust="spacing" textLength="116.5191" x="778.94" y="160.1049">sanitized metadata</text><text fill="#000000" font-family="'Inter, Helvetica, sans-serif'" font-size="13" lengthAdjust="spacing" textLength="68.4061" x="802.9965" y="177.8109">(NO secret)</text></g><!--link Main to CLI--><g class="link" data-entity-1="ent0003" data-entity-2="ent0004" data-link-type="dependency" data-source-line="18" id="lnk9"><path d="M454.56,115.6379 C443.57,123.7079 433.76,133.4779 427.09,145.2079 C414.46,167.4179 423.2621,187.9779 440.3521,208.0879" fill="none" id="Main-to-CLI" style="stroke:#555555;stroke-width:1.3;"/><polygon fill="#555555" points="443.59,211.8979,440.8099,202.4496,440.3521,208.0879,434.7138,207.6302,443.59,211.8979" style="stroke:#555555;stroke-width:1.3;stroke-linejoin:miter;stroke-miterlimit:10;"/><text fill="#000000" font-family="'Inter, Helvetica, sans-serif'" font-size="13" lengthAdjust="spacing" textLength="164.5021" x="428.09" y="169.1049">spawn argv array (no shell)</text></g><!--link CLI to Main--><g class="link" data-entity-1="ent0004" data-entity-2="ent0003" data-link-type="dependency" data-source-line="19" id="lnk10"><path d="M573.15,211.7979 C582.76,203.2779 591.24,193.4379 597.09,182.2079 C604.69,167.6279 603.44,160.3779 597.09,145.2079 C592.51,134.2679 588.4654,127.8819 580.1854,119.2219" fill="none" id="CLI-to-Main" style="stroke:#555555;stroke-width:1.3;"/><polygon fill="#555555" points="576.73,115.6079,580.0585,124.8773,580.1854,119.2219,585.8408,119.3487,576.73,115.6079" style="stroke:#555555;stroke-width:1.3;stroke-linejoin:miter;stroke-miterlimit:10;"/><text fill="#000000" font-family="'Inter, Helvetica, sans-serif'" font-size="13" lengthAdjust="spacing" textLength="111.6441" x="603.33" y="169.1049">provider response</text></g><g class="legend" data-source-line="26"><rect fill="none" height="109.3396" rx="4" ry="4" style="stroke:#000000;stroke-width:1;" width="660.3816" x="402.9925" y="484.5438"/><text fill="#000000" font-family="'Inter, Helvetica, sans-serif'" font-size="14" font-weight="700" lengthAdjust="spacing" textLength="46.0178" x="411.6325" y="506.5097">Colour</text><text fill="#000000" font-family="'Inter, Helvetica, sans-serif'" font-size="14" font-weight="700" lengthAdjust="spacing" textLength="57.3438" x="464.9303" y="506.5097">Concept</text><rect fill="#2D9574" height="19.0679" style="stroke:none;stroke-width:1;" width="53.2978" x="407.9925" y="510.6117"/><text fill="#000000" font-family="'Inter, Helvetica, sans-serif'" font-size="14" lengthAdjust="spacing" textLength="14.5599" x="407.9925" y="525.5776">&#160;&#160;&#160;&#160;</text><text fill="#000000" font-family="'Inter, Helvetica, sans-serif'" font-size="14" lengthAdjust="spacing" textLength="153.5234" x="464.9303" y="525.5776">web page / renderer UI</text><rect fill="#B1951D" height="19.0679" style="stroke:none;stroke-width:1;" width="53.2978" x="407.9925" y="529.6796"/><text fill="#000000" font-family="'Inter, Helvetica, sans-serif'" font-size="14" lengthAdjust="spacing" textLength="14.5599" x="407.9925" y="544.6455">&#160;&#160;&#160;&#160;</text><text fill="#000000" font-family="'Inter, Helvetica, sans-serif'" font-size="14" lengthAdjust="spacing" textLength="177.1973" x="464.9303" y="544.6455">web-preload bridge (seam)</text><rect fill="#3A5BA0" height="19.0679" style="stroke:none;stroke-width:1;" width="53.2978" x="407.9925" y="548.7475"/><text fill="#000000" font-family="'Inter, Helvetica, sans-serif'" font-size="14" lengthAdjust="spacing" textLength="14.5599" x="407.9925" y="563.7134">&#160;&#160;&#160;&#160;</text><text fill="#000000" font-family="'Inter, Helvetica, sans-serif'" font-size="14" lengthAdjust="spacing" textLength="200.3392" x="464.9303" y="563.7134">main.passwords / provider CLI</text><line style="stroke:#000000;stroke-width:1;" x1="407.9925" x2="668.9095" y1="491.5438" y2="491.5438"/><line style="stroke:#000000;stroke-width:1;" x1="407.9925" x2="668.9095" y1="510.6117" y2="510.6117"/><line style="stroke:#000000;stroke-width:1;" x1="407.9925" x2="668.9095" y1="529.6796" y2="529.6796"/><line style="stroke:#000000;stroke-width:1;" x1="407.9925" x2="668.9095" y1="548.7475" y2="548.7475"/><line style="stroke:#000000;stroke-width:1;" x1="407.9925" x2="668.9095" y1="567.8154" y2="567.8154"/><line style="stroke:#000000;stroke-width:1;" x1="407.9925" x2="407.9925" y1="491.5438" y2="567.8154"/><line style="stroke:#000000;stroke-width:1;" x1="461.2903" x2="461.2903" y1="491.5438" y2="567.8154"/><line style="stroke:#000000;stroke-width:1;" x1="668.9095" x2="668.9095" y1="491.5438" y2="567.8154"/><text fill="#000000" font-family="'Inter, Helvetica, sans-serif'" font-size="14" lengthAdjust="spacing" textLength="650.3816" x="407.9925" y="584.7814">Non-secret metadata may reach the UI; the revealed secret goes only main -&gt; web-preload -&gt; form.</text></g><?plantuml-src XLNXJjim4FwVfxY1jBQeIUcsRW864j2YLQAbwa1e4X9oaoFnSEp8TjCnyMCFiIVSa-pifALGZVr9a_FTTzzzlhis6Z0HJDghqJce4ZMCKEUC9p33cCqDWiqG3CPppUr36DEJnqn0eRYqm0rSVnbC1qidZHQiPYKA0tz-_GO2ag7X2OAIug4TD1gWiKGcC053ZZpD24HQvG4ME0jBZeisI7HCRARLFCtycKQPe2RZrT0ZBp8ULoUnaZ4Mbdw5ccj3EU_H9S8VXU0njz0qWbc4GyycAfWn2wKJqmQMpmZmqAFCD4zIx1XaUPkI9RMvhgbWDcj5IsaQ1bWIPYfsQM91W7syWvX9gIpCk4o0rMo0AcDWvjnYk70or6IZu0sNiPYJvROiGygKOyJdkGW2owr0cDGimvn9bXBBYfylVOqNwR_ISwLr-nLfWo1MUQ4aqkLjaP4g8zGxfVCRsHGgvP9YYharhIrWXcZGwNGmxjCTJsylX-FB5_5XeL4ebaJV3G5mevpKoP8jeQqdhp2l9p2Sd6w0bLmo_H0zloF2BBGggIXDahF2egwPZSWFHiV3yGRGAk3qV4ZntQMKq85pPgpxfDSeYbetqXHi8Oalqsb9NQV0P2Y4Jq3HSFPr0ttwr8UE78_lwRq3XdeUA7DUs8hVz8LiWPSo38zS_VjUSSZHKb6MGOUOE01geOIJ1GDoShw-olzxJzUT3GgCtILGq-L0Wxpqj-eU9JJ75-EmQfzMu4DShAkMGfqSNWnwQFO0pQKahS1vh6LPgQpHa3O6dx2c3eb9MXG_NLlMj4cjyGLi9FPgxEmyROMgiI_6vzzsTfOoUEtseNynghgJ18yp9ib8OTAQ8A39entXUrxTLHotptg3xc1tVtrUghr28TH7pduZr-wJ5a9HXCci3KgxGRtZgPkt6we4KeN6JnWGdRM-TvyEtzrG40XC2QxY4G0y7i9fjGRyMxMc7jt1v-rt_RtUfmz7RxUx7tSFDf-Fi1hEphFTLuUVTFTwtVxhuIkEzJGstN9hBH7U7_TEZdTVGNW-YKHZVR0yobZ9kfEUcZEdhj78wjryDJoej_Vpw_Lokh-4Vsdgz8m2ghkIz2y0?></g></svg>