<svg xmlns="http://www.w3.org/2000/svg" xmlns:xlink="http://www.w3.org/1999/xlink" contentStyleType="text/css" data-diagram-type="DESCRIPTION" height="796px" preserveAspectRatio="none" style="width:1300px;height:796px;background:#FBF8EF;" version="1.1" viewBox="0 0 1300 796" width="1300px" zoomAndPan="magnify"><?plantuml $version$?><defs/><g><rect fill="#FBF8EF" height="796" style="stroke:none;stroke-width:1;" width="1300" x="0" y="0"/><g class="title" data-source-line="11"><text fill="#000000" font-family="'Inter, Helvetica, sans-serif'" font-size="14" font-weight="700" lengthAdjust="spacing" textLength="604.1398" x="344.7727" y="24.9659">Native PDF (Forthcoming / &#171;planned&#187;) &#8212; a BrowserView positioned over the active tab</text></g><!--cluster MAIN--><g class="cluster" data-qualified-name="MAIN" data-source-line="13" id="ent0001"><rect fill="#3A5BA0" height="582.08" rx="4" ry="4" style="stroke:#888888;stroke-width:1;" width="356" x="917.87" y="47.0679"/><text fill="#000000" font-family="'Inter, Helvetica, sans-serif'" font-size="14" font-weight="700" lengthAdjust="spacing" textLength="158.2694" x="1016.7353" y="64.0339">Electron MAIN process</text></g><!--cluster PRE--><g class="cluster" data-qualified-name="PRE" data-source-line="20" id="ent0006"><rect fill="#B1951D" height="141.21" rx="4" ry="4" style="stroke:#888888;stroke-width:1;" width="252" x="552.87" y="478.4079"/><text fill="#000000" font-family="'Inter, Helvetica, sans-serif'" font-size="14" font-weight="700" lengthAdjust="spacing" textLength="207.2972" x="575.2214" y="495.3739">preload (contextBridge seam)</text></g><!--cluster REND--><g class="cluster" data-qualified-name="REND" data-source-line="24" id="ent0008"><rect fill="#2D9574" height="157.2" rx="4" ry="4" style="stroke:#888888;stroke-width:1;" width="455" x="285.87" y="244.2079"/><text fill="#000000" font-family="'Inter, Helvetica, sans-serif'" font-size="14" font-weight="700" lengthAdjust="spacing" textLength="220.9331" x="402.9034" y="261.1739">Electron RENDERER (Chromium)</text></g><!--entity SVC--><g class="entity" data-qualified-name="MAIN.SVC" data-source-line="14" id="ent0002"><rect fill="#3A5BA0" height="68.1358" rx="4" ry="4" style="stroke:#181818;stroke-width:1.4;" width="122.6837" x="933.53" y="85.0679"/><rect fill="#3A5BA0" height="10" style="stroke:#181818;stroke-width:1.4;" width="15" x="1036.2137" y="90.0679"/><rect fill="#3A5BA0" height="2" style="stroke:#181818;stroke-width:1.4;" width="4" x="1034.2137" y="92.0679"/><rect fill="#3A5BA0" height="2" style="stroke:#181818;stroke-width:1.4;" width="4" x="1034.2137" y="96.0679"/><text fill="#1A1A1A" font-family="'Inter, Helvetica, sans-serif'" font-size="14" lengthAdjust="spacing" textLength="82.6837" x="948.53" y="120.0339">main.service</text><text fill="#1A1A1A" font-family="'Inter, Helvetica, sans-serif'" font-size="14" lengthAdjust="spacing" textLength="59.9478" x="948.53" y="139.1018">(existing)</text></g><!--entity PDF--><g class="entity" data-qualified-name="MAIN.PDF" data-source-line="15" id="ent0003"><rect fill="#DDDDDD" height="68.1358" rx="4" ry="4" style="stroke:#999999;stroke-width:1.4;stroke-dasharray:7,7;" width="108.5997" x="990.57" y="299.7379"/><rect fill="#DDDDDD" height="10" style="stroke:#999999;stroke-width:1.4;stroke-dasharray:7,7;" width="15" x="1079.1697" y="304.7379"/><rect fill="#DDDDDD" height="2" style="stroke:#999999;stroke-width:1.4;stroke-dasharray:7,7;" width="4" x="1077.1697" y="306.7379"/><rect fill="#DDDDDD" height="2" style="stroke:#999999;stroke-width:1.4;stroke-dasharray:7,7;" width="4" x="1077.1697" y="310.7379"/><text fill="#555555" font-family="'Inter, Helvetica, sans-serif'" font-size="14" font-style="italic" lengthAdjust="spacing" textLength="64.3298" x="1007.705" y="334.7039">&#171;planned&#187;</text><text fill="#555555" font-family="'Inter, Helvetica, sans-serif'" font-size="14" lengthAdjust="spacing" textLength="68.5997" x="1005.57" y="353.7718">PdfService</text></g><!--entity BV--><g class="entity" data-qualified-name="MAIN.BV" data-source-line="16" id="ent0004"><rect fill="#DDDDDD" height="106.2717" rx="4" ry="4" style="stroke:#999999;stroke-width:1.4;stroke-dasharray:7,7;" width="195.1334" x="969.3" y="506.8779"/><rect fill="#DDDDDD" height="10" style="stroke:#999999;stroke-width:1.4;stroke-dasharray:7,7;" width="15" x="1144.4334" y="511.8779"/><rect fill="#DDDDDD" height="2" style="stroke:#999999;stroke-width:1.4;stroke-dasharray:7,7;" width="4" x="1142.4334" y="513.8779"/><rect fill="#DDDDDD" height="2" style="stroke:#999999;stroke-width:1.4;stroke-dasharray:7,7;" width="4" x="1142.4334" y="517.8779"/><text fill="#555555" font-family="'Inter, Helvetica, sans-serif'" font-size="14" font-style="italic" lengthAdjust="spacing" textLength="64.3298" x="1029.7018" y="541.8439">&#171;planned&#187;</text><text fill="#555555" font-family="'Inter, Helvetica, sans-serif'" font-size="14" lengthAdjust="spacing" textLength="85.6517" x="984.3" y="560.9118">BrowserView</text><text fill="#555555" font-family="'Inter, Helvetica, sans-serif'" font-size="14" lengthAdjust="spacing" textLength="153.2714" x="984.3" y="579.9797">navigated to file://&#8230;pdf</text><text fill="#555555" font-family="'Inter, Helvetica, sans-serif'" font-size="14" lengthAdjust="spacing" textLength="155.1334" x="984.3" y="599.0476">(Chromium PDF viewer)</text></g><!--entity WATCH--><g class="entity" data-qualified-name="MAIN.WATCH" data-source-line="17" id="ent0005"><rect fill="#9F8766" height="68.1358" rx="4" ry="4" style="stroke:#181818;stroke-width:1.4;" width="166.7695" x="1091.49" y="85.0679"/><rect fill="#9F8766" height="10" style="stroke:#181818;stroke-width:1.4;" width="15" x="1238.2595" y="90.0679"/><rect fill="#9F8766" height="2" style="stroke:#181818;stroke-width:1.4;" width="4" x="1236.2595" y="92.0679"/><rect fill="#9F8766" height="2" style="stroke:#181818;stroke-width:1.4;" width="4" x="1236.2595" y="96.0679"/><text fill="#1A1A1A" font-family="'Inter, Helvetica, sans-serif'" font-size="14" lengthAdjust="spacing" textLength="113.7776" x="1106.49" y="120.0339">chokidar watcher</text><text fill="#1A1A1A" font-family="'Inter, Helvetica, sans-serif'" font-size="14" lengthAdjust="spacing" textLength="126.7695" x="1106.49" y="139.1018">(existing &#8212; reused)</text></g><!--entity BRIDGE--><g class="entity" data-qualified-name="PRE.BRIDGE" data-source-line="21" id="ent0007"><rect fill="#DDDDDD" height="87.2038" rx="4" ry="4" style="stroke:#999999;stroke-width:1.4;stroke-dasharray:7,7;" width="220.9773" x="568.38" y="516.4079"/><rect fill="#DDDDDD" height="10" style="stroke:#999999;stroke-width:1.4;stroke-dasharray:7,7;" width="15" x="769.3573" y="521.4079"/><rect fill="#DDDDDD" height="2" style="stroke:#999999;stroke-width:1.4;stroke-dasharray:7,7;" width="4" x="767.3573" y="523.4079"/><rect fill="#DDDDDD" height="2" style="stroke:#999999;stroke-width:1.4;stroke-dasharray:7,7;" width="4" x="767.3573" y="527.4079"/><text fill="#555555" font-family="'Inter, Helvetica, sans-serif'" font-size="14" font-style="italic" lengthAdjust="spacing" textLength="64.3298" x="641.7038" y="551.3739">&#171;planned&#187;</text><text fill="#555555" font-family="'Inter, Helvetica, sans-serif'" font-size="14" lengthAdjust="spacing" textLength="179.1573" x="583.38" y="570.4418">window.vv.pdfBounds(rect)</text><text fill="#555555" font-family="'Inter, Helvetica, sans-serif'" font-size="14" lengthAdjust="spacing" textLength="180.9773" x="583.38" y="589.5097">window.vv.onPdfReload(cb)</text></g><!--entity CV--><g class="entity" data-qualified-name="REND.CV" data-source-line="25" id="ent0009"><rect fill="#2D9574" height="68.1358" rx="4" ry="4" style="stroke:#181818;stroke-width:1.4;" width="158.6636" x="329.54" y="299.7379"/><rect fill="#2D9574" height="10" style="stroke:#181818;stroke-width:1.4;" width="15" x="468.2036" y="304.7379"/><rect fill="#2D9574" height="2" style="stroke:#181818;stroke-width:1.4;" width="4" x="466.2036" y="306.7379"/><rect fill="#2D9574" height="2" style="stroke:#181818;stroke-width:1.4;" width="4" x="466.2036" y="310.7379"/><text fill="#1A1A1A" font-family="'Inter, Helvetica, sans-serif'" font-size="14" lengthAdjust="spacing" textLength="84.6297" x="344.54" y="334.7039">content-view</text><text fill="#1A1A1A" font-family="'Inter, Helvetica, sans-serif'" font-size="14" lengthAdjust="spacing" textLength="118.6636" x="344.54" y="353.7718">Strategy (existing)</text></g><!--entity PH--><g class="entity" data-qualified-name="REND.PH" data-source-line="26" id="ent0010"><rect fill="#DDDDDD" height="87.2038" rx="4" ry="4" style="stroke:#999999;stroke-width:1.4;stroke-dasharray:7,7;" width="194.0694" x="522.84" y="290.2079"/><rect fill="#DDDDDD" height="10" style="stroke:#999999;stroke-width:1.4;stroke-dasharray:7,7;" width="15" x="696.9094" y="295.2079"/><rect fill="#DDDDDD" height="2" style="stroke:#999999;stroke-width:1.4;stroke-dasharray:7,7;" width="4" x="694.9094" y="297.2079"/><rect fill="#DDDDDD" height="2" style="stroke:#999999;stroke-width:1.4;stroke-dasharray:7,7;" width="4" x="694.9094" y="301.2079"/><text fill="#555555" font-family="'Inter, Helvetica, sans-serif'" font-size="14" font-style="italic" lengthAdjust="spacing" textLength="64.3298" x="582.7098" y="325.1739">&#171;planned&#187;</text><text fill="#555555" font-family="'Inter, Helvetica, sans-serif'" font-size="14" lengthAdjust="spacing" textLength="126.3635" x="537.84" y="344.2418">pdf placeholder div</text><text fill="#555555" font-family="'Inter, Helvetica, sans-serif'" font-size="14" lengthAdjust="spacing" textLength="154.0694" x="537.84" y="363.3097">(measured each layout)</text></g><g class="entity" data-qualified-name="GMN17" data-source-line="37" id="ent0018"><path d="M6,523.5979 L6,596.422 A4,4 0 0 0 10,600.422 L529.7404,600.422 A4,4 0 0 0 533.7404,596.422 L533.7404,529.5979 L523.7404,519.5979 L10,519.5979 A4,4 0 0 0 6,523.5979" fill="#FFF6D6" style="stroke:#7F6B14;stroke-width:0.5;"/><path d="M523.7404,519.5979 L523.7404,527.5979 A2,2 0 0 0 525.7404,529.5979 L533.7404,529.5979 L523.7404,519.5979" fill="#FFF6D6" style="stroke:#7F6B14;stroke-width:1;"/><text fill="#000000" font-family="'Inter, Helvetica, sans-serif'" font-size="13" lengthAdjust="spacing" textLength="142.7531" x="12" y="538.4949">The renderer keeps the</text><text fill="#000000" font-family="'Inter, Helvetica, sans-serif'" font-size="13" font-weight="700" lengthAdjust="spacing" textLength="92.9371" x="158.1331" y="538.4949">tab/scroll/find</text><text fill="#000000" font-family="'Inter, Helvetica, sans-serif'" font-size="13" lengthAdjust="spacing" textLength="214.6432" x="254.4502" y="538.4949">state in app-db; the BrowserView is</text><text fill="#000000" font-family="'Inter, Helvetica, sans-serif'" font-size="13" lengthAdjust="spacing" textLength="493.1943" x="12" y="556.2009">a separate native surface owned by MAIN, kept aligned to the placeholder by IPC</text><text fill="#000000" font-family="'Inter, Helvetica, sans-serif'" font-size="13" lengthAdjust="spacing" textLength="256.9452" x="12" y="573.907">bounds messages. Live-refresh reuses the</text><text fill="#000000" font-family="'Inter, Helvetica, sans-serif'" font-size="13" font-weight="700" lengthAdjust="spacing" textLength="246.4152" x="272.3252" y="573.907">same chokidar watcher per open path</text><text fill="#000000" font-family="'Inter, Helvetica, sans-serif'" font-size="13" lengthAdjust="spacing" textLength="395.1742" x="12" y="591.613">as Markdown &#8212; only the action (reload the BrowserView) differs.</text></g><!--link CV to BRIDGE--><g class="link" data-entity-1="ent0009" data-entity-2="ent0007" data-link-type="dependency" data-source-line="29" id="lnk11"><path d="M396.49,368.1979 C388.19,397.0179 382.57,437.7879 405.87,462.4079 C416.96,474.1279 535.61,465.1779 550.87,470.4079 C579.63,480.2679 603.8712,495.5238 626.4512,512.9438" fill="none" id="CV-to-BRIDGE" style="stroke:#B1951D;stroke-width:2;stroke-dasharray:7,7;"/><polygon fill="#B1951D" points="630.41,515.9979,625.7274,507.3334,626.4512,512.9438,620.8408,513.6675,630.41,515.9979" style="stroke:#B1951D;stroke-width:2;stroke-linejoin:miter;stroke-miterlimit:10;"/><text fill="#000000" font-family="'Inter, Helvetica, sans-serif'" font-size="13" lengthAdjust="spacing" textLength="182.3122" x="417.3805" y="440.3049">(1) report placeholder bounds</text><text fill="#000000" font-family="'Inter, Helvetica, sans-serif'" font-size="13" lengthAdjust="spacing" textLength="203.3332" x="406.87" y="458.0109">(getBoundingClientRect) over IPC</text></g><!--link BRIDGE to PDF--><g class="link" data-entity-1="ent0007" data-entity-2="ent0003" data-link-type="dependency" data-source-line="30" id="lnk12"><path d="M652.8,516.0879 C638.89,487.0979 628.74,449.8079 650.87,425.4079 C663.17,411.8479 714.85,420.6479 732.87,417.4079 C824.41,400.9379 923.6396,372.5633 985.4596,353.6133" fill="none" id="BRIDGE-to-PDF" style="stroke:#B1951D;stroke-width:2;stroke-dasharray:7,7;"/><polygon fill="#B1951D" points="990.24,352.1479,980.4629,350.9612,985.4596,353.6133,982.8075,358.6099,990.24,352.1479" style="stroke:#B1951D;stroke-width:2;stroke-linejoin:miter;stroke-miterlimit:10;"/><text fill="#000000" font-family="'Inter, Helvetica, sans-serif'" font-size="13" lengthAdjust="spacing" textLength="70.7071" x="651.87" y="449.3049">(2) {x,y,w,h}</text></g><!--link PDF to BRIDGE--><g class="link" data-entity-1="ent0003" data-entity-2="ent0007" data-link-type="dependency" data-source-line="33" id="lnk15"><path d="M992.06,368.3179 C968.38,384.3779 940.7,404.6179 917.87,425.4079 C901.8,440.0479 903.22,449.2979 885.87,462.4079 C857,484.2279 826.9608,500.6966 794.4008,515.5166" fill="none" id="PDF-to-BRIDGE" style="stroke:#B1951D;stroke-width:2;stroke-dasharray:7,7;"/><polygon fill="#B1951D" points="789.85,517.5879,799.6985,517.5001,794.4008,515.5166,796.3843,510.2189,789.85,517.5879" style="stroke:#B1951D;stroke-width:2;stroke-linejoin:miter;stroke-miterlimit:10;"/><text fill="#000000" font-family="'Inter, Helvetica, sans-serif'" font-size="13" lengthAdjust="spacing" textLength="135.2001" x="918.87" y="449.3049">(5) onPdfReload notify</text></g><!--link PDF to BV--><g class="link" data-entity-1="ent0003" data-entity-2="ent0004" data-link-type="dependency" data-source-line="31" id="lnk13"><path d="M1052.88,368.1579 C1056.61,385.1879 1060.7,406.2879 1062.87,425.4079 C1065.89,452.0379 1066.9372,476.8383 1067.2472,501.5183" fill="none" id="PDF-to-BV" style="stroke:#999999;stroke-width:2;stroke-dasharray:7,7;"/><polygon fill="#999999" points="1067.31,506.5179,1071.1966,497.4684,1067.2472,501.5183,1063.1973,497.5689,1067.31,506.5179" style="stroke:#999999;stroke-width:2;stroke-linejoin:miter;stroke-miterlimit:10;"/><text fill="#000000" font-family="'Inter, Helvetica, sans-serif'" font-size="13" lengthAdjust="spacing" textLength="114.9071" x="1086.464" y="440.3049">(3) setBounds(rect)</text><text fill="#000000" font-family="'Inter, Helvetica, sans-serif'" font-size="13" lengthAdjust="spacing" textLength="154.1151" x="1066.86" y="458.0109">+ attach over the window</text></g><!--link WATCH to PDF--><g class="link" data-entity-1="ent0005" data-entity-2="ent0003" data-link-type="dependency" data-source-line="32" id="lnk14"><path d="M1154.56,153.3679 C1130.21,193.2079 1092.2487,255.3124 1067.8587,295.1924" fill="none" id="WATCH-to-PDF" style="stroke:#9F8766;stroke-width:2;stroke-dasharray:7,7;"/><polygon fill="#9F8766" points="1065.25,299.4579,1073.3581,293.867,1067.8587,295.1924,1066.5333,289.693,1065.25,299.4579" style="stroke:#9F8766;stroke-width:2;stroke-linejoin:miter;stroke-miterlimit:10;"/><text fill="#000000" font-family="'Inter, Helvetica, sans-serif'" font-size="13" lengthAdjust="spacing" textLength="99.7087" x="1159.3982" y="198.1049">(4) file change &#8594;</text><text fill="#000000" font-family="'Inter, Helvetica, sans-serif'" font-size="13" lengthAdjust="spacing" textLength="150.8651" x="1133.82" y="215.8109">BV.webContents.reload()</text></g><!--link PH to BV--><g class="link" data-entity-1="ent0010" data-entity-2="ent0004" data-link-type="association" data-source-line="34" id="lnk16"><path d="M673.82,377.7079 C691.26,392.2979 710.35,409.0579 726.87,425.4079 C742.32,440.7079 739.95,451.6979 758.87,462.4079 C776.93,472.6279 784.76,465.2979 804.87,470.4079 C860.01,484.4379 920.24,504.4679 969.04,521.9279" fill="none" id="PH-BV" style="stroke:#999999;stroke-width:1.3;stroke-dasharray:7,7;"/><text fill="#000000" font-family="'Inter, Helvetica, sans-serif'" font-size="13" lengthAdjust="spacing" textLength="101.5171" x="767.8455" y="440.3049">visually occupies</text><text fill="#000000" font-family="'Inter, Helvetica, sans-serif'" font-size="13" lengthAdjust="spacing" textLength="117.4681" x="759.87" y="458.0109">the same rectangle</text></g><!--link REND to GMN17--><g class="link" data-entity-1="ent0008" data-entity-2="ent0018" data-link-type="association" data-source-line="37" id="lnk19"><path d="M286.6923,401.8378 C286.5681,402.9974 286.4432,404.1648 286.3175,405.3392 C282.295,442.9204 277.495,487.7629 274.12,519.2779" fill="none" id="REND-GMN17" style="stroke:#555555;stroke-width:1.3;stroke-dasharray:7,7;"/></g><g class="legend" data-source-line="43"><rect fill="none" height="128.4075" rx="4" ry="4" style="stroke:#000000;stroke-width:1;" width="502.0562" x="779.629" y="649.1479"/><text fill="#000000" font-family="'Inter, Helvetica, sans-serif'" font-size="14" font-weight="700" lengthAdjust="spacing" textLength="74.5917" x="788.269" y="671.1139">color/style</text><text fill="#000000" font-family="'Inter, Helvetica, sans-serif'" font-size="14" font-weight="700" lengthAdjust="spacing" textLength="55.5798" x="948.7223" y="671.1139">concept</text><rect fill="#3A5BA0" height="19.0679" style="stroke:none;stroke-width:1;" width="160.4534" x="784.629" y="675.2158"/><text fill="#000000" font-family="'Inter, Helvetica, sans-serif'" font-size="14" lengthAdjust="spacing" textLength="3.64" x="784.629" y="690.1818">&#160;</text><text fill="#000000" font-family="'Inter, Helvetica, sans-serif'" font-size="14" lengthAdjust="spacing" textLength="277.6609" x="948.7223" y="690.1818">MAIN process (Node IO) &#8212; solid = existing</text><rect fill="#B1951D" height="19.0679" style="stroke:none;stroke-width:1;" width="160.4534" x="784.629" y="694.2838"/><text fill="#000000" font-family="'Inter, Helvetica, sans-serif'" font-size="14" lengthAdjust="spacing" textLength="3.64" x="784.629" y="709.2497">&#160;</text><text fill="#000000" font-family="'Inter, Helvetica, sans-serif'" font-size="14" lengthAdjust="spacing" textLength="324.3228" x="948.7223" y="709.2497">IPC seam (contextBridge) &#8212; all IPC arrows amber</text><rect fill="#2D9574" height="19.0679" style="stroke:none;stroke-width:1;" width="160.4534" x="784.629" y="713.3517"/><text fill="#000000" font-family="'Inter, Helvetica, sans-serif'" font-size="14" lengthAdjust="spacing" textLength="3.64" x="784.629" y="728.3176">&#160;</text><text fill="#000000" font-family="'Inter, Helvetica, sans-serif'" font-size="14" lengthAdjust="spacing" textLength="278.277" x="948.7223" y="728.3176">renderer (Chromium UI) &#8212; solid = existing</text><rect fill="#9F8766" height="19.0679" style="stroke:none;stroke-width:1;" width="160.4534" x="784.629" y="732.4196"/><text fill="#000000" font-family="'Inter, Helvetica, sans-serif'" font-size="14" lengthAdjust="spacing" textLength="3.64" x="784.629" y="747.3855">&#160;</text><text fill="#000000" font-family="'Inter, Helvetica, sans-serif'" font-size="14" lengthAdjust="spacing" textLength="180.7113" x="948.7223" y="747.3855">filesystem watcher (reused)</text><text fill="#000000" font-family="'Inter, Helvetica, sans-serif'" font-size="14" lengthAdjust="spacing" textLength="153.1734" x="788.269" y="766.4534">dashed grey &#171;planned&#187;</text><text fill="#000000" font-family="'Inter, Helvetica, sans-serif'" font-size="14" lengthAdjust="spacing" textLength="182.6853" x="948.7223" y="766.4534">NOT yet built (Forthcoming)</text><line style="stroke:#000000;stroke-width:1;" x1="784.629" x2="1276.6851" y1="656.1479" y2="656.1479"/><line style="stroke:#000000;stroke-width:1;" x1="784.629" x2="1276.6851" y1="675.2158" y2="675.2158"/><line style="stroke:#000000;stroke-width:1;" x1="784.629" x2="1276.6851" y1="694.2838" y2="694.2838"/><line style="stroke:#000000;stroke-width:1;" x1="784.629" x2="1276.6851" y1="713.3517" y2="713.3517"/><line style="stroke:#000000;stroke-width:1;" x1="784.629" x2="1276.6851" y1="732.4196" y2="732.4196"/><line style="stroke:#000000;stroke-width:1;" x1="784.629" x2="1276.6851" y1="751.4875" y2="751.4875"/><line style="stroke:#000000;stroke-width:1;" x1="784.629" x2="1276.6851" y1="770.5554" y2="770.5554"/><line style="stroke:#000000;stroke-width:1;" x1="784.629" x2="784.629" y1="656.1479" y2="770.5554"/><line style="stroke:#000000;stroke-width:1;" x1="945.0824" x2="945.0824" y1="656.1479" y2="770.5554"/><line style="stroke:#000000;stroke-width:1;" x1="1276.6851" x2="1276.6851" y1="656.1479" y2="770.5554"/></g></g></svg>