<svg xmlns="http://www.w3.org/2000/svg" xmlns:xlink="http://www.w3.org/1999/xlink" contentStyleType="text/css" data-diagram-type="DESCRIPTION" height="830px" preserveAspectRatio="none" style="width:961px;height:830px;background:#FBF8EF;" version="1.1" viewBox="0 0 961 830" width="961px" zoomAndPan="magnify"><?plantuml $version$?><defs/><g><rect fill="#FBF8EF" height="830" style="stroke:none;stroke-width:1;" width="961" x="0" y="0"/><g class="title" data-source-line="6"><text fill="#000000" font-family="'Inter, Helvetica, sans-serif'" font-size="14" font-weight="700" lengthAdjust="spacing" textLength="468.7323" x="242.6339" y="24.9659">Terminal preview layer (ADR-0019) &#8212; a shared spine, two renderers</text></g><!--cluster Shared spine (pure, DOM-free)--><g class="cluster" data-qualified-name="Shared spine .pure. DOM-free." data-source-line="8" id="ent0001"><path d="M365,137.2079 L573.5452,137.2079 A6,6 0 0 1 577.5452,141.2079 L584.5452,162.2758 L714,162.2758 A4,4 0 0 1 718,166.2758 L718,383.4779 A4,4 0 0 1 714,387.4779 L365,387.4779 A4,4 0 0 1 361,383.4779 L361,141.2079 A4,4 0 0 1 365,137.2079" fill="none" style="stroke:#888888;stroke-width:1.5;"/><line style="stroke:#888888;stroke-width:1.5;" x1="361" x2="584.5452" y1="162.2758" y2="162.2758"/><text fill="#1A1A1A" font-family="'Inter, Helvetica, sans-serif'" font-size="14" font-weight="700" lengthAdjust="spacing" textLength="210.5452" x="365" y="154.1739">Shared spine (pure, DOM-free)</text></g><!--cluster GUI renderer (Electron)--><g class="cluster" data-qualified-name="GUI renderer .Electron." data-source-line="16" id="ent0006"><path d="M10,421.0079 L170.5114,421.0079 A6,6 0 0 1 174.5114,425.0079 L181.5114,446.0758 L406,446.0758 A4,4 0 0 1 410,450.0758 L410,520.0779 A4,4 0 0 1 406,524.0779 L10,524.0779 A4,4 0 0 1 6,520.0779 L6,425.0079 A4,4 0 0 1 10,421.0079" fill="none" style="stroke:#888888;stroke-width:1.5;"/><line style="stroke:#888888;stroke-width:1.5;" x1="6" x2="181.5114" y1="446.0758" y2="446.0758"/><text fill="#1A1A1A" font-family="'Inter, Helvetica, sans-serif'" font-size="14" font-weight="700" lengthAdjust="spacing" textLength="162.5114" x="10" y="437.9739">GUI renderer (Electron)</text></g><!--cluster Terminal renderer (new)--><g class="cluster" data-qualified-name="Terminal renderer .new." data-source-line="21" id="ent0009"><path d="M559,411.4779 L727.1974,411.4779 A6,6 0 0 1 731.1974,415.4779 L738.1974,436.5458 L942,436.5458 A4,4 0 0 1 946,440.5458 L946,657.7479 A4,4 0 0 1 942,661.7479 L559,661.7479 A4,4 0 0 1 555,657.7479 L555,415.4779 A4,4 0 0 1 559,411.4779" fill="none" style="stroke:#888888;stroke-width:1.5;"/><line style="stroke:#888888;stroke-width:1.5;" x1="555" x2="738.1974" y1="436.5458" y2="436.5458"/><text fill="#1A1A1A" font-family="'Inter, Helvetica, sans-serif'" font-size="14" font-weight="700" lengthAdjust="spacing" textLength="170.1974" x="559" y="428.4439">Terminal renderer (new)</text></g><!--entity FE--><g class="entity" data-qualified-name="Shared spine .pure. DOM-free..FE" data-source-line="9" id="ent0002"><rect fill="#F1D6BE" height="68.1358" rx="4" ry="4" style="stroke:#4A4A4A;stroke-width:1.4;" width="122.5437" x="475.73" y="175.2079"/><rect fill="#F1D6BE" height="10" style="stroke:#4A4A4A;stroke-width:1.4;" width="15" x="578.2737" y="180.2079"/><rect fill="#F1D6BE" height="2" style="stroke:#4A4A4A;stroke-width:1.4;" width="4" x="576.2737" y="182.2079"/><rect fill="#F1D6BE" height="2" style="stroke:#4A4A4A;stroke-width:1.4;" width="4" x="576.2737" y="186.2079"/><text fill="#1A1A1A" font-family="'Inter, Helvetica, sans-serif'" font-size="14" lengthAdjust="spacing" textLength="69.1457" x="490.73" y="210.1739">front-ends</text><text fill="#1A1A1A" font-family="'Inter, Helvetica, sans-serif'" font-size="14" lengthAdjust="spacing" textLength="82.5437" x="490.73" y="229.2418">ir.frontend.*</text></g><!--entity WPDA--><g class="entity" data-qualified-name="Shared spine .pure. DOM-free..WPDA" data-source-line="10" id="ent0003"><rect fill="#F1D6BE" height="68.1358" rx="4" ry="4" style="stroke:#4A4A4A;stroke-width:1.4;" width="149.9276" x="552.04" y="303.3379"/><rect fill="#F1D6BE" height="10" style="stroke:#4A4A4A;stroke-width:1.4;" width="15" x="681.9676" y="308.3379"/><rect fill="#F1D6BE" height="2" style="stroke:#4A4A4A;stroke-width:1.4;" width="4" x="679.9676" y="310.3379"/><rect fill="#F1D6BE" height="2" style="stroke:#4A4A4A;stroke-width:1.4;" width="4" x="679.9676" y="314.3379"/><text fill="#1A1A1A" font-family="'Inter, Helvetica, sans-serif'" font-size="14" lengthAdjust="spacing" textLength="109.9276" x="567.04" y="338.3039">WPDA decoder +</text><text fill="#1A1A1A" font-family="'Inter, Helvetica, sans-serif'" font-size="14" lengthAdjust="spacing" textLength="89.8517" x="567.04" y="357.3718">StreamParser</text></g><!--entity CAP--><g class="entity" data-qualified-name="Shared spine .pure. DOM-free..CAP" data-source-line="11" id="ent0004"><rect fill="#C4D9EB" height="68.1358" rx="4" ry="4" style="stroke:#4A4A4A;stroke-width:1.4;" width="139.8196" x="377.09" y="303.3379"/><rect fill="#C4D9EB" height="10" style="stroke:#4A4A4A;stroke-width:1.4;" width="15" x="496.9096" y="308.3379"/><rect fill="#C4D9EB" height="2" style="stroke:#4A4A4A;stroke-width:1.4;" width="4" x="494.9096" y="310.3379"/><rect fill="#C4D9EB" height="2" style="stroke:#4A4A4A;stroke-width:1.4;" width="4" x="494.9096" y="314.3379"/><text fill="#1A1A1A" font-family="'Inter, Helvetica, sans-serif'" font-size="14" lengthAdjust="spacing" textLength="73.7517" x="392.09" y="338.3039">capabilities</text><text fill="#1A1A1A" font-family="'Inter, Helvetica, sans-serif'" font-size="14" lengthAdjust="spacing" textLength="99.8196" x="392.09" y="357.3718">ir.capability.toc</text></g><!--entity HTML--><g class="entity" data-qualified-name="GUI renderer .Electron..HTML" data-source-line="17" id="ent0007"><rect fill="#D7EEC1" height="49.0679" rx="4" ry="4" style="stroke:#4A4A4A;stroke-width:1.4;" width="143.1236" x="22.44" y="459.0079"/><rect fill="#D7EEC1" height="10" style="stroke:#4A4A4A;stroke-width:1.4;" width="15" x="145.5636" y="464.0079"/><rect fill="#D7EEC1" height="2" style="stroke:#4A4A4A;stroke-width:1.4;" width="4" x="143.5636" y="466.0079"/><rect fill="#D7EEC1" height="2" style="stroke:#4A4A4A;stroke-width:1.4;" width="4" x="143.5636" y="470.0079"/><text fill="#1A1A1A" font-family="'Inter, Helvetica, sans-serif'" font-size="14" lengthAdjust="spacing" textLength="103.1236" x="37.44" y="493.9739">ir.backend.html</text></g><!--entity GUISINK--><g class="entity" data-qualified-name="GUI renderer .Electron..GUISINK" data-source-line="18" id="ent0008"><rect fill="#C7E8DE" height="49.0679" rx="4" ry="4" style="stroke:#4A4A4A;stroke-width:1.4;" width="193.5934" x="200.2" y="459.0079"/><rect fill="#C7E8DE" height="10" style="stroke:#4A4A4A;stroke-width:1.4;" width="15" x="373.7934" y="464.0079"/><rect fill="#C7E8DE" height="2" style="stroke:#4A4A4A;stroke-width:1.4;" width="4" x="371.7934" y="466.0079"/><rect fill="#C7E8DE" height="2" style="stroke:#4A4A4A;stroke-width:1.4;" width="4" x="371.7934" y="470.0079"/><text fill="#1A1A1A" font-family="'Inter, Helvetica, sans-serif'" font-size="14" lengthAdjust="spacing" textLength="153.5934" x="215.2" y="493.9739">stream.sink / scheduler</text></g><!--entity ANSI--><g class="entity" data-qualified-name="Terminal renderer .new..ANSI" data-source-line="22" id="ent0010"><rect fill="#F1D6BE" height="49.0679" rx="4" ry="4" style="stroke:#4A4A4A;stroke-width:1.4;" width="139.5396" x="790.23" y="459.0079"/><rect fill="#F1D6BE" height="10" style="stroke:#4A4A4A;stroke-width:1.4;" width="15" x="909.7696" y="464.0079"/><rect fill="#F1D6BE" height="2" style="stroke:#4A4A4A;stroke-width:1.4;" width="4" x="907.7696" y="466.0079"/><rect fill="#F1D6BE" height="2" style="stroke:#4A4A4A;stroke-width:1.4;" width="4" x="907.7696" y="470.0079"/><text fill="#1A1A1A" font-family="'Inter, Helvetica, sans-serif'" font-size="14" lengthAdjust="spacing" textLength="99.5396" x="805.23" y="493.9739">ir.backend.ansi</text></g><!--entity TERM--><g class="entity" data-qualified-name="Terminal renderer .new..TERM" data-source-line="23" id="ent0011"><rect fill="#F1D6BE" height="68.1358" rx="4" ry="4" style="stroke:#4A4A4A;stroke-width:1.4;" width="184.8295" x="570.59" y="449.4779"/><rect fill="#F1D6BE" height="10" style="stroke:#4A4A4A;stroke-width:1.4;" width="15" x="735.4195" y="454.4779"/><rect fill="#F1D6BE" height="2" style="stroke:#4A4A4A;stroke-width:1.4;" width="4" x="733.4195" y="456.4779"/><rect fill="#F1D6BE" height="2" style="stroke:#4A4A4A;stroke-width:1.4;" width="4" x="733.4195" y="460.4779"/><text fill="#1A1A1A" font-family="'Inter, Helvetica, sans-serif'" font-size="14" lengthAdjust="spacing" textLength="144.8295" x="585.59" y="484.4439">terminal.{caps,syntax,</text><text fill="#1A1A1A" font-family="'Inter, Helvetica, sans-serif'" font-size="14" lengthAdjust="spacing" textLength="137.7875" x="585.59" y="503.5118">graphics,pdf,stream}</text></g><!--entity CLI--><g class="entity" data-qualified-name="Terminal renderer .new..CLI" data-source-line="24" id="ent0012"><rect fill="#E4E8F1" height="68.1358" rx="4" ry="4" style="stroke:#4A4A4A;stroke-width:1.4;" width="88.6918" x="594.65" y="577.6079"/><rect fill="#E4E8F1" height="10" style="stroke:#4A4A4A;stroke-width:1.4;" width="15" x="663.3418" y="582.6079"/><rect fill="#E4E8F1" height="2" style="stroke:#4A4A4A;stroke-width:1.4;" width="4" x="661.3418" y="584.6079"/><rect fill="#E4E8F1" height="2" style="stroke:#4A4A4A;stroke-width:1.4;" width="4" x="661.3418" y="588.6079"/><text fill="#1A1A1A" font-family="'Inter, Helvetica, sans-serif'" font-size="14" lengthAdjust="spacing" textLength="48.6918" x="609.65" y="612.5739">`vv --cli`</text><text fill="#1A1A1A" font-family="'Inter, Helvetica, sans-serif'" font-size="14" lengthAdjust="spacing" textLength="46.5638" x="609.65" y="631.6418">cli.core</text></g><!--entity TUI--><g class="entity" data-qualified-name="Terminal renderer .new..TUI" data-source-line="25" id="ent0013"><rect fill="#E4E8F1" height="68.1358" rx="4" ry="4" style="stroke:#4A4A4A;stroke-width:1.4;" width="92.0658" x="717.97" y="577.6079"/><rect fill="#E4E8F1" height="10" style="stroke:#4A4A4A;stroke-width:1.4;" width="15" x="790.0358" y="582.6079"/><rect fill="#E4E8F1" height="2" style="stroke:#4A4A4A;stroke-width:1.4;" width="4" x="788.0358" y="584.6079"/><rect fill="#E4E8F1" height="2" style="stroke:#4A4A4A;stroke-width:1.4;" width="4" x="788.0358" y="588.6079"/><text fill="#1A1A1A" font-family="'Inter, Helvetica, sans-serif'" font-size="14" lengthAdjust="spacing" textLength="52.0658" x="732.97" y="612.5739">`vv --tui`</text><text fill="#1A1A1A" font-family="'Inter, Helvetica, sans-serif'" font-size="14" lengthAdjust="spacing" textLength="28.7839" x="732.97" y="631.6418">tui.*</text></g><!--entity CS--><g class="entity" data-qualified-name="CS" data-source-line="14" id="ent0005"><rect fill="#C9D2E6" height="68.1358" rx="4" ry="4" style="stroke:#4A4A4A;stroke-width:1.4;" width="228.5372" x="422.73" y="47.0679"/><rect fill="#C9D2E6" height="10" style="stroke:#4A4A4A;stroke-width:1.4;" width="15" x="631.2672" y="52.0679"/><rect fill="#C9D2E6" height="2" style="stroke:#4A4A4A;stroke-width:1.4;" width="4" x="629.2672" y="54.0679"/><rect fill="#C9D2E6" height="2" style="stroke:#4A4A4A;stroke-width:1.4;" width="4" x="629.2672" y="58.0679"/><text fill="#1A1A1A" font-family="'Inter, Helvetica, sans-serif'" font-size="14" lengthAdjust="spacing" textLength="102.4376" x="437.73" y="82.0339">content_service</text><text fill="#1A1A1A" font-family="'Inter, Helvetica, sans-serif'" font-size="14" lengthAdjust="spacing" textLength="188.5372" x="437.73" y="101.1018">(Electron-free fs / zip / office)</text></g><!--link CS to FE--><g class="link" data-entity-1="ent0005" data-entity-2="ent0002" data-link-type="dependency" data-source-line="28" id="lnk14"><path d="M537,115.6079 C537,133.9979 537,151.7379 537,170.0779" fill="none" id="CS-to-FE" style="stroke:#555555;stroke-width:1.3;"/><polygon fill="#555555" points="537,175.0779,541,166.0779,537,170.0779,533,166.0779,537,175.0779" style="stroke:#555555;stroke-width:1.3;stroke-linejoin:miter;stroke-miterlimit:10;"/></g><!--link FE to WPDA--><g class="link" data-entity-1="ent0002" data-entity-2="ent0003" data-link-type="dependency" data-source-line="29" id="lnk15"><path d="M560.88,243.7479 C574.01,262.1379 587.3263,280.7975 600.4163,299.1475" fill="none" id="FE-to-WPDA" style="stroke:#555555;stroke-width:1.3;"/><polygon fill="#555555" points="603.32,303.2179,601.3498,293.5681,600.4163,299.1475,594.837,298.214,603.32,303.2179" style="stroke:#555555;stroke-width:1.3;stroke-linejoin:miter;stroke-miterlimit:10;"/></g><!--link FE to CAP--><g class="link" data-entity-1="ent0002" data-entity-2="ent0004" data-link-type="dependency" data-source-line="30" id="lnk16"><path d="M513.12,243.7479 C499.99,262.1379 486.6737,280.7975 473.5837,299.1475" fill="none" id="FE-to-CAP" style="stroke:#555555;stroke-width:1.3;"/><polygon fill="#555555" points="470.68,303.2179,479.163,298.214,473.5837,299.1475,472.6502,293.5681,470.68,303.2179" style="stroke:#555555;stroke-width:1.3;stroke-linejoin:miter;stroke-miterlimit:10;"/></g><!--link FE to HTML--><g class="link" data-entity-1="ent0002" data-entity-2="ent0007" data-link-type="dependency" data-source-line="31" id="lnk17"><path d="M475.49,238.2079 C402.7,272.5079 279.26,334.6679 183,403.4779 C159.63,420.1879 139.0152,438.6039 121.7452,455.1039" fill="none" id="FE-to-HTML" style="stroke:#555555;stroke-width:1.3;"/><polygon fill="#555555" points="118.13,458.5579,127.4006,455.2328,121.7452,455.1039,121.8742,449.4485,118.13,458.5579" style="stroke:#555555;stroke-width:1.3;stroke-linejoin:miter;stroke-miterlimit:10;"/></g><!--link FE to ANSI--><g class="link" data-entity-1="ent0002" data-entity-2="ent0010" data-link-type="dependency" data-source-line="32" id="lnk18"><path d="M598.7,233.8579 C635.92,249.9479 682.96,273.6879 719,303.3379 C775.1,349.4879 820.6059,417.2957 843.3659,454.4057" fill="none" id="FE-to-ANSI" style="stroke:#555555;stroke-width:1.3;"/><polygon fill="#555555" points="845.98,458.6679,844.6844,448.9046,843.3659,454.4057,837.8649,453.0872,845.98,458.6679" style="stroke:#555555;stroke-width:1.3;stroke-linejoin:miter;stroke-miterlimit:10;"/></g><!--link WPDA to GUISINK--><g class="link" data-entity-1="ent0003" data-entity-2="ent0008" data-link-type="dependency" data-source-line="33" id="lnk19"><path d="M576.37,371.9779 C562.9,380.2079 548.15,388.6179 534,395.4779 C482.23,420.5679 425.9832,441.2362 378.8432,456.9562" fill="none" id="WPDA-to-GUISINK" style="stroke:#555555;stroke-width:1.3;"/><polygon fill="#555555" points="374.1,458.5379,383.9032,459.4854,378.8432,456.9562,381.3724,451.8962,374.1,458.5379" style="stroke:#555555;stroke-width:1.3;stroke-linejoin:miter;stroke-miterlimit:10;"/></g><!--link WPDA to TERM--><g class="link" data-entity-1="ent0003" data-entity-2="ent0011" data-link-type="dependency" data-source-line="34" id="lnk20"><path d="M635.35,371.8379 C641.14,395.0379 647.6183,420.977 653.4183,444.197" fill="none" id="WPDA-to-TERM" style="stroke:#555555;stroke-width:1.3;"/><polygon fill="#555555" points="654.63,449.0479,656.3297,439.3468,653.4183,444.197,648.5682,441.2855,654.63,449.0479" style="stroke:#555555;stroke-width:1.3;stroke-linejoin:miter;stroke-miterlimit:10;"/></g><!--link ANSI to CLI--><g class="link" data-entity-1="ent0010" data-entity-2="ent0012" data-link-type="dependency" data-source-line="35" id="lnk21"><path d="M817.91,508.5679 C779.46,530.5079 727.1424,560.3694 687.9324,582.7494" fill="none" id="ANSI-to-CLI" style="stroke:#555555;stroke-width:1.3;"/><polygon fill="#555555" points="683.59,585.2279,693.3892,584.2405,687.9324,582.7494,689.4236,577.2926,683.59,585.2279" style="stroke:#555555;stroke-width:1.3;stroke-linejoin:miter;stroke-miterlimit:10;"/></g><!--link ANSI to TUI--><g class="link" data-entity-1="ent0010" data-entity-2="ent0013" data-link-type="dependency" data-source-line="36" id="lnk22"><path d="M841.72,508.5679 C826.92,528.0079 808.9373,551.6286 792.4973,573.2386" fill="none" id="ANSI-to-TUI" style="stroke:#555555;stroke-width:1.3;"/><polygon fill="#555555" points="789.47,577.2179,798.1027,572.4769,792.4973,573.2386,791.7357,567.6332,789.47,577.2179" style="stroke:#555555;stroke-width:1.3;stroke-linejoin:miter;stroke-miterlimit:10;"/></g><!--link TERM to CLI--><g class="link" data-entity-1="ent0011" data-entity-2="ent0012" data-link-type="dependency" data-source-line="37" id="lnk23"><path d="M656.63,518.0179 C653.13,536.4079 649.7442,554.226 646.2542,572.576" fill="none" id="TERM-to-CLI" style="stroke:#555555;stroke-width:1.3;"/><polygon fill="#555555" points="645.32,577.4879,650.9311,569.3938,646.2542,572.576,643.072,567.899,645.32,577.4879" style="stroke:#555555;stroke-width:1.3;stroke-linejoin:miter;stroke-miterlimit:10;"/></g><!--link TERM to TUI--><g class="link" data-entity-1="ent0011" data-entity-2="ent0013" data-link-type="dependency" data-source-line="38" id="lnk24"><path d="M689.8,518.0179 C704.53,536.4079 719.6052,555.2346 734.2952,573.5846" fill="none" id="TERM-to-TUI" style="stroke:#555555;stroke-width:1.3;"/><polygon fill="#555555" points="737.42,577.4879,734.9181,567.9621,734.2952,573.5846,728.6728,572.9618,737.42,577.4879" style="stroke:#555555;stroke-width:1.3;stroke-linejoin:miter;stroke-miterlimit:10;"/></g><!--link CAP to CLI--><g class="link" data-entity-1="ent0004" data-entity-2="ent0012" data-link-type="dependency" data-source-line="39" id="lnk25"><path d="M446.68,371.6979 C447.94,413.3179 455.77,484.8179 492,532.0779 C517.53,565.3779 556.588,584.5054 589.748,596.2754" fill="none" id="CAP-to-CLI" style="stroke:#555555;stroke-width:1.3;"/><polygon fill="#555555" points="594.46,597.9479,587.3164,591.1678,589.748,596.2754,584.6404,598.707,594.46,597.9479" style="stroke:#555555;stroke-width:1.3;stroke-linejoin:miter;stroke-miterlimit:10;"/></g><!--link CAP to TUI--><g class="link" data-entity-1="ent0004" data-entity-2="ent0013" data-link-type="dependency" data-source-line="40" id="lnk26"><path d="M474.46,371.8379 C481.93,381.7079 489.69,392.7479 496,403.4779 C527.68,457.3779 506.25,490.5679 553,532.0779 C604.47,577.7679 637.37,551.3879 701,577.6079 C706.48,579.8679 707.6206,580.2671 713.1706,582.9571" fill="none" id="CAP-to-TUI" style="stroke:#555555;stroke-width:1.3;"/><polygon fill="#555555" points="717.67,585.1379,711.3158,577.613,713.1706,582.9571,707.8265,584.812,717.67,585.1379" style="stroke:#555555;stroke-width:1.3;stroke-linejoin:miter;stroke-miterlimit:10;"/></g><!--link CAP to GUISINK--><g class="link" data-entity-1="ent0004" data-entity-2="ent0008" data-link-type="dependency" data-source-line="41" id="lnk27"><path d="M412.21,371.8379 C384.52,398.4479 350.045,431.5732 325.375,455.2832" fill="none" id="CAP-to-GUISINK" style="stroke:#555555;stroke-width:1.3;"/><polygon fill="#555555" points="321.77,458.7479,331.0307,455.3954,325.375,455.2832,325.4872,449.6275,321.77,458.7479" style="stroke:#555555;stroke-width:1.3;stroke-linejoin:miter;stroke-miterlimit:10;"/></g><g class="legend" data-source-line="43"><rect fill="none" height="128.4075" rx="4" ry="4" style="stroke:#000000;stroke-width:1;" width="275.649" x="666.351" y="682.7479"/><text fill="#000000" font-family="'Inter, Helvetica, sans-serif'" font-size="14" font-weight="700" lengthAdjust="spacing" textLength="46.0178" x="674.991" y="704.7139">Colour</text><text fill="#000000" font-family="'Inter, Helvetica, sans-serif'" font-size="14" font-weight="700" lengthAdjust="spacing" textLength="57.3438" x="728.2888" y="704.7139">Concept</text><rect fill="#E67E22" height="19.0679" style="stroke:none;stroke-width:1;" width="53.2978" x="671.351" y="708.8158"/><text fill="#000000" font-family="'Inter, Helvetica, sans-serif'" font-size="14" lengthAdjust="spacing" textLength="14.5599" x="671.351" y="723.7818">&#160;&#160;&#160;&#160;</text><text fill="#000000" font-family="'Inter, Helvetica, sans-serif'" font-size="14" lengthAdjust="spacing" textLength="146.2154" x="728.2888" y="723.7818">shared IR spine / ANSI</text><rect fill="#3A5BA0" height="19.0679" style="stroke:none;stroke-width:1;" width="53.2978" x="671.351" y="727.8838"/><text fill="#000000" font-family="'Inter, Helvetica, sans-serif'" font-size="14" lengthAdjust="spacing" textLength="14.5599" x="671.351" y="742.8497">&#160;&#160;&#160;&#160;</text><text fill="#000000" font-family="'Inter, Helvetica, sans-serif'" font-size="14" lengthAdjust="spacing" textLength="205.0712" x="728.2888" y="742.8497">content_service / Node process</text><rect fill="#67B11D" height="19.0679" style="stroke:none;stroke-width:1;" width="53.2978" x="671.351" y="746.9517"/><text fill="#000000" font-family="'Inter, Helvetica, sans-serif'" font-size="14" lengthAdjust="spacing" textLength="14.5599" x="671.351" y="761.9176">&#160;&#160;&#160;&#160;</text><text fill="#000000" font-family="'Inter, Helvetica, sans-serif'" font-size="14" lengthAdjust="spacing" textLength="130.9695" x="728.2888" y="761.9176">GUI HTML back-end</text><rect fill="#2D9574" height="19.0679" style="stroke:none;stroke-width:1;" width="53.2978" x="671.351" y="766.0196"/><text fill="#000000" font-family="'Inter, Helvetica, sans-serif'" font-size="14" lengthAdjust="spacing" textLength="14.5599" x="671.351" y="780.9855">&#160;&#160;&#160;&#160;</text><text fill="#000000" font-family="'Inter, Helvetica, sans-serif'" font-size="14" lengthAdjust="spacing" textLength="117.0676" x="728.2888" y="780.9855">renderer surfaces</text><rect fill="#4F97D7" height="19.0679" style="stroke:none;stroke-width:1;" width="53.2978" x="671.351" y="785.0875"/><text fill="#000000" font-family="'Inter, Helvetica, sans-serif'" font-size="14" lengthAdjust="spacing" textLength="14.5599" x="671.351" y="800.0534">&#160;&#160;&#160;&#160;</text><text fill="#000000" font-family="'Inter, Helvetica, sans-serif'" font-size="14" lengthAdjust="spacing" textLength="183.6373" x="728.2888" y="800.0534">capability (Contents outline)</text><line style="stroke:#000000;stroke-width:1;" x1="671.351" x2="937" y1="689.7479" y2="689.7479"/><line style="stroke:#000000;stroke-width:1;" x1="671.351" x2="937" y1="708.8158" y2="708.8158"/><line style="stroke:#000000;stroke-width:1;" x1="671.351" x2="937" y1="727.8838" y2="727.8838"/><line style="stroke:#000000;stroke-width:1;" x1="671.351" x2="937" y1="746.9517" y2="746.9517"/><line style="stroke:#000000;stroke-width:1;" x1="671.351" x2="937" y1="766.0196" y2="766.0196"/><line style="stroke:#000000;stroke-width:1;" x1="671.351" x2="937" y1="785.0875" y2="785.0875"/><line style="stroke:#000000;stroke-width:1;" x1="671.351" x2="937" y1="804.1554" y2="804.1554"/><line style="stroke:#000000;stroke-width:1;" x1="671.351" x2="671.351" y1="689.7479" y2="804.1554"/><line style="stroke:#000000;stroke-width:1;" x1="724.6488" x2="724.6488" y1="689.7479" y2="804.1554"/><line style="stroke:#000000;stroke-width:1;" x1="937" x2="937" y1="689.7479" y2="804.1554"/></g><?plantuml-src VLH_Jnf14Ft_FiKKamhj7KMh4jDgSdfdUn7G0CP_I7Gz1jXux5rszx1MJVeX-WdxIJgxnm4g8I6N_S5xC_FcxMnlmsN2XBvgjo2TeOGsoYdZGxZ3cEKAGK-u0lhf2O8VTBr6O-SG4lQ84eSmn9WhdWhuz-SlCCXoYQ0cp5ofZ0k44UAGYp7T_RYAdErja2Y619NWTm8w5VW0cY9omPB5dGjnAcBCj1UdIPeRjf5CfpQ5ENl64jGQePfA9iO8Hn1rYv2kYJAMY88EAUYNd_rsowKW5E1e6LxbSiHYL2weX6b3ODZ316CjK-6DYC1aeL5eK2XdFCPQtVd0HPpaGuIRsSmZm1JhF9ycZgEvJX3wPIMPn1cdqgnEK2rrgyrrMfM8Kdj85tafnybOVC-ef4flLSYgqTQ5uA9jSwjLuCa1od2QfSBaM265XFQ8HWq4btMxfLtzKmMOWhEG1BhfHvt-QzJrPU2RBgOK7JuFH4zBPDDB9gbc2xH_M0kDMSRkUC8rnoBauk2nhjFOea_zI-Y6Prs_7HOCBuwpIb48V3CNU22ghnimKl05VlEClkbeP5fGiFQWxKUTWd6f5pLxsTy5qtkbADKxmXXn9dgQM4fZ4YBjdWSNrvqrnIghIrrnSK_9g7Y2mpoPIqHnUr7dd0hj164tx2ugNMJMV-jmg9BnDsR6XEAMtU_qelKDADzD_OcKLwvw59hzSWTYB5asuR5oi-78BH9_iLJziDjUJtKxcu7dnGc_7P31UJrE9HPIjw92wxEerLg7qRd1q7TkjFxLAe14e6PvtZ4Pq24FcfLnLBacVvHBqu5oRMfshFFCRgxlyi3KuLXTB4ShMcuel6FBB6yM6tDZx5XUbElLypAIa-2OcW2IZoUQgdu-WbCxYOgLdKtmR2w-RuK7pN1tz_ZZriv1uzlxxtFvsClvHFQnsSxXN_tz4x-n0VxcZH2yGu-L9anAqqkLD0VDavsTO0EDUHpMvCPWPaoKoDtWSB-vjm7vRcIMoBspmsRGt9JwOY10zRGeGq6QwuHag14B4HT2_mS0?></g></svg>