<svg xmlns="http://www.w3.org/2000/svg" xmlns:xlink="http://www.w3.org/1999/xlink" contentStyleType="text/css" data-diagram-type="DESCRIPTION" height="726px" preserveAspectRatio="none" style="width:1642px;height:726px;background:#FBF8EF;" version="1.1" viewBox="0 0 1642 726" width="1642px" zoomAndPan="magnify"><?plantuml $version$?><defs/><g><rect fill="#FBF8EF" height="726" style="stroke:none;stroke-width:1;" width="1642" x="0" y="0"/><g class="title" data-source-line="11"><text fill="#000000" font-family="'Inter, Helvetica, sans-serif'" font-size="14" font-weight="700" lengthAdjust="spacing" textLength="590.0963" x="522.4518" y="24.9659">Diagram rendering (Forthcoming / &#171;planned&#187;) &#8212; new Strategy entries: source &#8594; SVG</text></g><!--cluster REG--><g class="cluster" data-qualified-name="REG" data-source-line="13" id="ent0001"><rect fill="#2D9574" height="430.34" rx="4" ry="4" style="stroke:#888888;stroke-width:1;" width="728" x="7" y="108.3769"/><text fill="#000000" font-family="'Inter, Helvetica, sans-serif'" font-size="14" font-weight="700" lengthAdjust="spacing" textLength="311.8768" x="215.0616" y="125.3429">content-view &#8212; Renderer Registry [Strategy]</text><text fill="#000000" font-family="'Inter, Helvetica, sans-serif'" font-size="14" font-weight="700" lengthAdjust="spacing" textLength="285.9069" x="228.0465" y="144.4108">(views/content-view, keyed by :doc/kind)</text></g><!--cluster MAIN--><g class="cluster" data-qualified-name="MAIN" data-source-line="20" id="ent0006"><rect fill="#3A5BA0" height="163.2" rx="4" ry="4" style="stroke:#888888;stroke-width:1;" width="622" x="962" y="144.8469"/><text fill="#000000" font-family="'Inter, Helvetica, sans-serif'" font-size="14" font-weight="700" lengthAdjust="spacing" textLength="234.0231" x="1155.9884" y="161.8129">Electron MAIN &#8212; diagram service</text></g><!--cluster PRE--><g class="cluster" data-qualified-name="PRE" data-source-line="27" id="ent0011"><rect fill="#B1951D" height="163.2" rx="4" ry="4" style="stroke:#888888;stroke-width:1;" width="328" x="1300" y="377.0469"/><text fill="#000000" font-family="'Inter, Helvetica, sans-serif'" font-size="14" font-weight="700" lengthAdjust="spacing" textLength="207.2972" x="1360.3514" y="394.0129">preload (contextBridge seam)</text></g><!--entity MD--><g class="entity" data-qualified-name="REG.MD" data-source-line="14" id="ent0002"><rect fill="#67B11D" height="68.1358" rx="4" ry="4" style="stroke:#181818;stroke-width:1.4;" width="220.1653" x="30.92" y="214.3769"/><rect fill="#67B11D" height="10" style="stroke:#181818;stroke-width:1.4;" width="15" x="231.0853" y="219.3769"/><rect fill="#67B11D" height="2" style="stroke:#181818;stroke-width:1.4;" width="4" x="229.0853" y="221.3769"/><rect fill="#67B11D" height="2" style="stroke:#181818;stroke-width:1.4;" width="4" x="229.0853" y="225.3769"/><text fill="#1A1A1A" font-family="'Inter, Helvetica, sans-serif'" font-size="14" lengthAdjust="spacing" textLength="70.9377" x="45.92" y="249.3429">markdown</text><text fill="#1A1A1A" font-family="'Inter, Helvetica, sans-serif'" font-size="14" lengthAdjust="spacing" textLength="180.1653" x="45.92" y="268.4108">(unified/remark &#8212; existing)</text></g><!--entity IMG--><g class="entity" data-qualified-name="REG.IMG" data-source-line="15" id="ent0003"><rect fill="#2D9574" height="68.1358" rx="4" ry="4" style="stroke:#181818;stroke-width:1.4;" width="247.2271" x="286.39" y="214.3769"/><rect fill="#2D9574" height="10" style="stroke:#181818;stroke-width:1.4;" width="15" x="513.6171" y="219.3769"/><rect fill="#2D9574" height="2" style="stroke:#181818;stroke-width:1.4;" width="4" x="511.6171" y="221.3769"/><rect fill="#2D9574" height="2" style="stroke:#181818;stroke-width:1.4;" width="4" x="511.6171" y="225.3769"/><text fill="#1A1A1A" font-family="'Inter, Helvetica, sans-serif'" font-size="14" lengthAdjust="spacing" textLength="41.0618" x="301.39" y="249.3429">image</text><text fill="#1A1A1A" font-family="'Inter, Helvetica, sans-serif'" font-size="14" lengthAdjust="spacing" textLength="4.2" x="301.39" y="268.4108">(</text><text fill="#000000" font-family="monospace" font-size="14" lengthAdjust="spacing" textLength="125.9995" x="305.59" y="268.4108">(Cannot&#160;decode)</text><text fill="#1A1A1A" font-family="'Inter, Helvetica, sans-serif'" font-size="14" lengthAdjust="spacing" textLength="73.3877" x="435.2294" y="268.4108">&#8212; existing)</text></g><!--entity TXT--><g class="entity" data-qualified-name="REG.TXT" data-source-line="16" id="ent0004"><rect fill="#2D9574" height="68.1358" rx="4" ry="4" style="stroke:#181818;stroke-width:1.4;" width="159.5315" x="61.23" y="446.5769"/><rect fill="#2D9574" height="10" style="stroke:#181818;stroke-width:1.4;" width="15" x="200.7615" y="451.5769"/><rect fill="#2D9574" height="2" style="stroke:#181818;stroke-width:1.4;" width="4" x="198.7615" y="453.5769"/><rect fill="#2D9574" height="2" style="stroke:#181818;stroke-width:1.4;" width="4" x="198.7615" y="457.5769"/><text fill="#1A1A1A" font-family="'Inter, Helvetica, sans-serif'" font-size="14" lengthAdjust="spacing" textLength="25.4099" x="76.23" y="481.5429">text</text><text fill="#1A1A1A" font-family="'Inter, Helvetica, sans-serif'" font-size="14" lengthAdjust="spacing" textLength="119.5315" x="76.23" y="500.6108">(&lt;pre&gt; &#8212; existing)</text></g><!--entity DG--><g class="entity" data-qualified-name="REG.DG" data-source-line="17" id="ent0005"><rect fill="#DDDDDD" height="68.1358" rx="4" ry="4" style="stroke:#999999;stroke-width:1.4;stroke-dasharray:7,7;" width="122.3477" x="568.83" y="214.3769"/><rect fill="#DDDDDD" height="10" style="stroke:#999999;stroke-width:1.4;stroke-dasharray:7,7;" width="15" x="671.1777" y="219.3769"/><rect fill="#DDDDDD" height="2" style="stroke:#999999;stroke-width:1.4;stroke-dasharray:7,7;" width="4" x="669.1777" y="221.3769"/><rect fill="#DDDDDD" height="2" style="stroke:#999999;stroke-width:1.4;stroke-dasharray:7,7;" width="4" x="669.1777" y="225.3769"/><text fill="#555555" font-family="'Inter, Helvetica, sans-serif'" font-size="14" font-style="italic" lengthAdjust="spacing" textLength="64.3298" x="592.839" y="249.3429">&#171;planned&#187;</text><text fill="#555555" font-family="'Inter, Helvetica, sans-serif'" font-size="14" lengthAdjust="spacing" textLength="82.3477" x="583.83" y="268.4108">diagram-svg</text></g><!--entity D2--><g class="entity" data-qualified-name="MAIN.D2" data-source-line="21" id="ent0007"><rect fill="#DDDDDD" height="87.2038" rx="4" ry="4" style="stroke:#999999;stroke-width:1.4;stroke-dasharray:7,7;" width="106.3298" x="1179.84" y="204.8469"/><rect fill="#DDDDDD" height="10" style="stroke:#999999;stroke-width:1.4;stroke-dasharray:7,7;" width="15" x="1266.1698" y="209.8469"/><rect fill="#DDDDDD" height="2" style="stroke:#999999;stroke-width:1.4;stroke-dasharray:7,7;" width="4" x="1264.1698" y="211.8469"/><rect fill="#DDDDDD" height="2" style="stroke:#999999;stroke-width:1.4;stroke-dasharray:7,7;" width="4" x="1264.1698" y="215.8469"/><text fill="#555555" font-family="'Inter, Helvetica, sans-serif'" font-size="14" font-style="italic" lengthAdjust="spacing" textLength="64.3298" x="1195.84" y="239.8129">&#171;planned&#187;</text><text fill="#555555" font-family="'Inter, Helvetica, sans-serif'" font-size="14" lengthAdjust="spacing" textLength="16.6179" x="1207.1807" y="258.8808">d2</text><text fill="#555555" font-family="'Inter, Helvetica, sans-serif'" font-size="14" lengthAdjust="spacing" textLength="41.6483" x="1207.1807" y="277.9487">&#8594; SVG</text></g><!--entity PUML--><g class="entity" data-qualified-name="MAIN.PUML" data-source-line="22" id="ent0008"><rect fill="#DDDDDD" height="87.2038" rx="4" ry="4" style="stroke:#999999;stroke-width:1.4;stroke-dasharray:7,7;" width="106.3298" x="1320.84" y="204.8469"/><rect fill="#DDDDDD" height="10" style="stroke:#999999;stroke-width:1.4;stroke-dasharray:7,7;" width="15" x="1407.1698" y="209.8469"/><rect fill="#DDDDDD" height="2" style="stroke:#999999;stroke-width:1.4;stroke-dasharray:7,7;" width="4" x="1405.1698" y="211.8469"/><rect fill="#DDDDDD" height="2" style="stroke:#999999;stroke-width:1.4;stroke-dasharray:7,7;" width="4" x="1405.1698" y="215.8469"/><text fill="#555555" font-family="'Inter, Helvetica, sans-serif'" font-size="14" font-style="italic" lengthAdjust="spacing" textLength="64.3298" x="1336.84" y="239.8129">&#171;planned&#187;</text><text fill="#555555" font-family="'Inter, Helvetica, sans-serif'" font-size="14" lengthAdjust="spacing" textLength="59.1358" x="1339.437" y="258.8808">plantuml</text><text fill="#555555" font-family="'Inter, Helvetica, sans-serif'" font-size="14" lengthAdjust="spacing" textLength="41.6483" x="1339.437" y="277.9487">&#8594; SVG</text></g><!--entity MER--><g class="entity" data-qualified-name="MAIN.MER" data-source-line="23" id="ent0009"><rect fill="#DDDDDD" height="87.2038" rx="4" ry="4" style="stroke:#999999;stroke-width:1.4;stroke-dasharray:7,7;" width="106.3298" x="1461.84" y="204.8469"/><rect fill="#DDDDDD" height="10" style="stroke:#999999;stroke-width:1.4;stroke-dasharray:7,7;" width="15" x="1548.1698" y="209.8469"/><rect fill="#DDDDDD" height="2" style="stroke:#999999;stroke-width:1.4;stroke-dasharray:7,7;" width="4" x="1546.1698" y="211.8469"/><rect fill="#DDDDDD" height="2" style="stroke:#999999;stroke-width:1.4;stroke-dasharray:7,7;" width="4" x="1546.1698" y="215.8469"/><text fill="#555555" font-family="'Inter, Helvetica, sans-serif'" font-size="14" font-style="italic" lengthAdjust="spacing" textLength="64.3298" x="1477.84" y="239.8129">&#171;planned&#187;</text><text fill="#555555" font-family="'Inter, Helvetica, sans-serif'" font-size="14" lengthAdjust="spacing" textLength="59.9338" x="1480.038" y="258.8808">mermaid</text><text fill="#555555" font-family="'Inter, Helvetica, sans-serif'" font-size="14" lengthAdjust="spacing" textLength="41.6483" x="1480.038" y="277.9487">&#8594; SVG</text></g><!--entity WATCH--><g class="entity" data-qualified-name="MAIN.WATCH" data-source-line="24" id="ent0010"><rect fill="#9F8766" height="68.1358" rx="4" ry="4" style="stroke:#181818;stroke-width:1.4;" width="166.7695" x="977.62" y="214.3769"/><rect fill="#9F8766" height="10" style="stroke:#181818;stroke-width:1.4;" width="15" x="1124.3895" y="219.3769"/><rect fill="#9F8766" height="2" style="stroke:#181818;stroke-width:1.4;" width="4" x="1122.3895" y="221.3769"/><rect fill="#9F8766" height="2" style="stroke:#181818;stroke-width:1.4;" width="4" x="1122.3895" y="225.3769"/><text fill="#1A1A1A" font-family="'Inter, Helvetica, sans-serif'" font-size="14" lengthAdjust="spacing" textLength="113.7776" x="992.62" y="249.3429">chokidar watcher</text><text fill="#1A1A1A" font-family="'Inter, Helvetica, sans-serif'" font-size="14" lengthAdjust="spacing" textLength="126.7695" x="992.62" y="268.4108">(existing &#8212; reused)</text></g><!--entity BRIDGE--><g class="entity" data-qualified-name="PRE.BRIDGE" data-source-line="28" id="ent0012"><rect fill="#DDDDDD" height="87.2038" rx="4" ry="4" style="stroke:#999999;stroke-width:1.4;stroke-dasharray:7,7;" width="295.037" x="1316.48" y="437.0469"/><rect fill="#DDDDDD" height="10" style="stroke:#999999;stroke-width:1.4;stroke-dasharray:7,7;" width="15" x="1591.517" y="442.0469"/><rect fill="#DDDDDD" height="2" style="stroke:#999999;stroke-width:1.4;stroke-dasharray:7,7;" width="4" x="1589.517" y="444.0469"/><rect fill="#DDDDDD" height="2" style="stroke:#999999;stroke-width:1.4;stroke-dasharray:7,7;" width="4" x="1589.517" y="448.0469"/><text fill="#555555" font-family="'Inter, Helvetica, sans-serif'" font-size="14" font-style="italic" lengthAdjust="spacing" textLength="64.3298" x="1426.8336" y="472.0129">&#171;planned&#187;</text><text fill="#555555" font-family="'Inter, Helvetica, sans-serif'" font-size="14" lengthAdjust="spacing" textLength="255.037" x="1331.48" y="491.0808">window.vv.renderDiagram(src, engine)</text><text fill="#555555" font-family="'Inter, Helvetica, sans-serif'" font-size="14" lengthAdjust="spacing" textLength="149.896" x="1331.48" y="510.1487">&#8594; Promise&lt;svg string&gt;</text></g><g class="entity" data-qualified-name="GMN21" data-source-line="41" id="ent0022"><path d="M758.91,453.0869 L758.91,508.205 A4,4 0 0 0 762.91,512.205 L1277.0993,512.205 A4,4 0 0 0 1281.0993,508.205 L1281.0993,459.0869 L1271.0993,449.0869 L762.91,449.0869 A4,4 0 0 0 758.91,453.0869" fill="#FFF6D6" style="stroke:#7F6B14;stroke-width:0.5;"/><path d="M1271.0993,449.0869 L1271.0993,457.0869 A2,2 0 0 0 1273.0993,459.0869 L1281.0993,459.0869 L1271.0993,449.0869" fill="#FFF6D6" style="stroke:#7F6B14;stroke-width:1;"/><text fill="#000000" font-family="'Inter, Helvetica, sans-serif'" font-size="13" lengthAdjust="spacing" textLength="466.7133" x="764.91" y="467.9839">Each entry is one Strategy keyed by detected kind. SVG output is injected the</text><text fill="#000000" font-family="'Inter, Helvetica, sans-serif'" font-size="13" lengthAdjust="spacing" textLength="501.1893" x="764.91" y="485.6899">same way Markdown is (imperative innerHTML on a body node) and benefits from</text><text fill="#000000" font-family="'Inter, Helvetica, sans-serif'" font-size="13" lengthAdjust="spacing" textLength="20.059" x="764.91" y="503.396">the</text><text fill="#000000" font-family="'Inter, Helvetica, sans-serif'" font-size="13" font-weight="700" lengthAdjust="spacing" textLength="150.6051" x="788.349" y="503.396">same live-refresh spine</text><text fill="#000000" font-family="'Inter, Helvetica, sans-serif'" font-size="13" lengthAdjust="spacing" textLength="295.6203" x="942.3341" y="503.396">&#8212; only the transform (engine) changes per kind.</text></g><!--link DG to BRIDGE--><g class="link" data-entity-1="ent0005" data-entity-2="ent0012" data-link-type="dependency" data-source-line="31" id="lnk13"><path d="M654.73,282.9769 C665.67,295.3669 679.56,308.2769 695,316.0469 C828.42,383.1469 879.16,348.8269 1028,361.0469 C1058.02,363.5169 1270.31,359.8569 1299,369.0469 C1342.35,382.9369 1380.9658,408.7833 1411.9758,433.5933" fill="none" id="DG-to-BRIDGE" style="stroke:#B1951D;stroke-width:2;stroke-dasharray:7,7;"/><polygon fill="#B1951D" points="1415.88,436.7169,1411.3513,427.971,1411.9758,433.5933,1406.3535,434.2178,1415.88,436.7169" style="stroke:#B1951D;stroke-width:2;stroke-linejoin:miter;stroke-miterlimit:10;"/><text fill="#000000" font-family="'Inter, Helvetica, sans-serif'" font-size="13" lengthAdjust="spacing" textLength="163.7742" x="1030.3" y="338.9439">(1) on :doc/kind = diagram,</text><text fill="#000000" font-family="'Inter, Helvetica, sans-serif'" font-size="13" lengthAdjust="spacing" textLength="166.3742" x="1029" y="356.6499">request render(src, engine)</text></g><!--link BRIDGE to D2--><g class="link" data-entity-1="ent0012" data-entity-2="ent0007" data-link-type="dependency" data-source-line="32" id="lnk14"><path d="M1440.8,436.8869 C1419.17,401.1769 1383.58,351.7669 1339,324.0469 C1325.08,315.3869 1317.46,323.7569 1303,316.0469 C1291.45,309.8969 1284.1145,304.6978 1274.3945,295.7278" fill="none" id="BRIDGE-to-D2" style="stroke:#999999;stroke-width:2;stroke-dasharray:7,7;"/><polygon fill="#999999" points="1270.72,292.3369,1274.6213,301.3802,1274.3945,295.7278,1280.0468,295.501,1270.72,292.3369" style="stroke:#999999;stroke-width:2;stroke-linejoin:miter;stroke-miterlimit:10;"/></g><!--link D2 to BRIDGE--><g class="link" data-entity-1="ent0007" data-entity-2="ent0012" data-link-type="dependency" data-source-line="35" id="lnk17"><path d="M1211.46,292.4169 C1203.26,315.4469 1199.4,342.7669 1216,361.0469 C1228.46,374.7669 1281.55,362.8069 1299,369.0469 C1341.22,384.1369 1379.1675,409.3518 1410.1675,433.5318" fill="none" id="D2-to-BRIDGE" style="stroke:#B1951D;stroke-width:2;stroke-dasharray:7,7;"/><polygon fill="#B1951D" points="1414.11,436.6069,1409.4736,427.9176,1410.1675,433.5318,1404.5534,434.2256,1414.11,436.6069" style="stroke:#B1951D;stroke-width:2;stroke-linejoin:miter;stroke-miterlimit:10;"/><text fill="#000000" font-family="'Inter, Helvetica, sans-serif'" font-size="13" lengthAdjust="spacing" textLength="113.9191" x="1217" y="347.9439">(2) SVG string back</text></g><!--link BRIDGE to PUML--><g class="link" data-entity-1="ent0012" data-entity-2="ent0008" data-link-type="dependency" data-source-line="33" id="lnk15"><path d="M1447.26,436.8269 C1431.16,395.6469 1408.7709,338.3836 1392.6409,297.1336" fill="none" id="BRIDGE-to-PUML" style="stroke:#999999;stroke-width:2;stroke-dasharray:7,7;"/><polygon fill="#999999" points="1390.82,292.4769,1390.3723,302.3156,1392.6409,297.1336,1397.8229,299.4022,1390.82,292.4769" style="stroke:#999999;stroke-width:2;stroke-linejoin:miter;stroke-miterlimit:10;"/></g><!--link PUML to BRIDGE--><g class="link" data-entity-1="ent0008" data-entity-2="ent0012" data-link-type="dependency" data-source-line="36" id="lnk18"><path d="M1404.06,292.4469 C1410.25,302.5069 1416.3,313.4069 1421,324.0469 C1437.14,360.5769 1447.5554,399.7738 1454.5754,431.6738" fill="none" id="PUML-to-BRIDGE" style="stroke:#B1951D;stroke-width:2;stroke-dasharray:7,7;"/><polygon fill="#B1951D" points="1455.65,436.5569,1457.6222,426.9076,1454.5754,431.6738,1449.8092,428.6269,1455.65,436.5569" style="stroke:#B1951D;stroke-width:2;stroke-linejoin:miter;stroke-miterlimit:10;"/></g><!--link BRIDGE to MER--><g class="link" data-entity-1="ent0012" data-entity-2="ent0009" data-link-type="dependency" data-source-line="34" id="lnk16"><path d="M1473.49,436.8269 C1482.61,395.6469 1495.2484,338.6085 1504.3884,297.3585" fill="none" id="BRIDGE-to-MER" style="stroke:#999999;stroke-width:2;stroke-dasharray:7,7;"/><polygon fill="#999999" points="1505.47,292.4769,1499.6178,300.3985,1504.3884,297.3585,1507.4283,302.1291,1505.47,292.4769" style="stroke:#999999;stroke-width:2;stroke-linejoin:miter;stroke-miterlimit:10;"/></g><!--link MER to BRIDGE--><g class="link" data-entity-1="ent0009" data-entity-2="ent0012" data-link-type="dependency" data-source-line="37" id="lnk19"><path d="M1512.5,292.4469 C1510.75,313.3169 1507.83,338.6669 1503,361.0469 C1497.49,386.5769 1490.213,409.6487 1482.263,431.8887" fill="none" id="MER-to-BRIDGE" style="stroke:#B1951D;stroke-width:2;stroke-dasharray:7,7;"/><polygon fill="#B1951D" points="1480.58,436.5969,1487.376,429.4685,1482.263,431.8887,1479.8429,426.7757,1480.58,436.5969" style="stroke:#B1951D;stroke-width:2;stroke-linejoin:miter;stroke-miterlimit:10;"/></g><!--link WATCH to DG--><g class="link" data-entity-1="ent0010" data-entity-2="ent0005" data-link-type="dependency" data-source-line="38" id="lnk20"><path d="M1009.5,213.9469 C948.82,175.5569 843.48,115.8569 743,92.5469 C722.22,87.7269 712.75,80.7169 695,92.5469 C654.5,119.5469 639.9567,172.1361 634.1967,209.2561" fill="none" id="WATCH-to-DG" style="stroke:#9F8766;stroke-width:2;stroke-dasharray:7,7;"/><polygon fill="#9F8766" points="633.43,214.1969,638.7627,205.9167,634.1967,209.2561,630.8573,204.69,633.43,214.1969" style="stroke:#9F8766;stroke-width:2;stroke-linejoin:miter;stroke-miterlimit:10;"/><text fill="#000000" font-family="'Inter, Helvetica, sans-serif'" font-size="13" lengthAdjust="spacing" textLength="116.0367" x="782.3942" y="62.2739">(3) source edited &#8594;</text><text fill="#000000" font-family="'Inter, Helvetica, sans-serif'" font-size="13" lengthAdjust="spacing" textLength="188.8251" x="746" y="79.9799">re-request render (live-refresh)</text></g><!--link REG to GMN21--><g class="link" data-entity-1="ent0001" data-entity-2="ent0022" data-link-type="association" data-source-line="41" id="lnk23"><path d="M735.0237,251.1809 C735.2678,251.2367 735.5169,251.2939 735.7711,251.3524 C736.7876,251.5866 737.8841,251.8427 739.0562,252.1212 C741.4002,252.6782 744.0463,253.3244 746.9586,254.0621 C758.6078,257.0129 774.5169,261.4275 792.3963,267.4507 C828.155,279.4969 871.795,297.9769 905,324.0469 C949.12,358.6869 984.62,414.3469 1003.96,448.8669" fill="none" id="REG-GMN21" style="stroke:#555555;stroke-width:1.3;stroke-dasharray:7,7;"/></g><g class="legend" data-source-line="46"><rect fill="none" height="147.4754" rx="4" ry="4" style="stroke:#000000;stroke-width:1;" width="426.7363" x="1196.2637" y="560.2469"/><text fill="#000000" font-family="'Inter, Helvetica, sans-serif'" font-size="14" font-weight="700" lengthAdjust="spacing" textLength="74.5917" x="1204.9036" y="582.2129">color/style</text><text fill="#000000" font-family="'Inter, Helvetica, sans-serif'" font-size="14" font-weight="700" lengthAdjust="spacing" textLength="55.5798" x="1365.357" y="582.2129">concept</text><rect fill="#67B11D" height="19.0679" style="stroke:none;stroke-width:1;" width="160.4534" x="1201.2637" y="586.3148"/><text fill="#000000" font-family="'Inter, Helvetica, sans-serif'" font-size="14" lengthAdjust="spacing" textLength="3.64" x="1201.2637" y="601.2808">&#160;</text><text fill="#000000" font-family="'Inter, Helvetica, sans-serif'" font-size="14" lengthAdjust="spacing" textLength="249.003" x="1365.357" y="601.2808">markdown / unified pipeline (existing)</text><rect fill="#2D9574" height="19.0679" style="stroke:none;stroke-width:1;" width="160.4534" x="1201.2637" y="605.3828"/><text fill="#000000" font-family="'Inter, Helvetica, sans-serif'" font-size="14" lengthAdjust="spacing" textLength="3.64" x="1201.2637" y="620.3487">&#160;</text><text fill="#000000" font-family="'Inter, Helvetica, sans-serif'" font-size="14" lengthAdjust="spacing" textLength="229.8371" x="1365.357" y="620.3487">renderer Strategy entries (existing)</text><rect fill="#3A5BA0" height="19.0679" style="stroke:none;stroke-width:1;" width="160.4534" x="1201.2637" y="624.4507"/><text fill="#000000" font-family="'Inter, Helvetica, sans-serif'" font-size="14" lengthAdjust="spacing" textLength="3.64" x="1201.2637" y="639.4166">&#160;</text><text fill="#000000" font-family="'Inter, Helvetica, sans-serif'" font-size="14" lengthAdjust="spacing" textLength="195.4812" x="1365.357" y="639.4166">MAIN process render engines</text><rect fill="#B1951D" height="19.0679" style="stroke:none;stroke-width:1;" width="160.4534" x="1201.2637" y="643.5186"/><text fill="#000000" font-family="'Inter, Helvetica, sans-serif'" font-size="14" lengthAdjust="spacing" textLength="3.64" x="1201.2637" y="658.4845">&#160;</text><text fill="#000000" font-family="'Inter, Helvetica, sans-serif'" font-size="14" lengthAdjust="spacing" textLength="166.1514" x="1365.357" y="658.4845">IPC seam (contextBridge)</text><rect fill="#9F8766" height="19.0679" style="stroke:none;stroke-width:1;" width="160.4534" x="1201.2637" y="662.5865"/><text fill="#000000" font-family="'Inter, Helvetica, sans-serif'" font-size="14" lengthAdjust="spacing" textLength="3.64" x="1201.2637" y="677.5524">&#160;</text><text fill="#000000" font-family="'Inter, Helvetica, sans-serif'" font-size="14" lengthAdjust="spacing" textLength="180.7113" x="1365.357" y="677.5524">filesystem watcher (reused)</text><text fill="#000000" font-family="'Inter, Helvetica, sans-serif'" font-size="14" lengthAdjust="spacing" textLength="153.1734" x="1204.9036" y="696.6204">dashed grey &#171;planned&#187;</text><text fill="#000000" font-family="'Inter, Helvetica, sans-serif'" font-size="14" lengthAdjust="spacing" textLength="182.6853" x="1365.357" y="696.6204">NOT yet built (Forthcoming)</text><line style="stroke:#000000;stroke-width:1;" x1="1201.2637" x2="1618" y1="567.2469" y2="567.2469"/><line style="stroke:#000000;stroke-width:1;" x1="1201.2637" x2="1618" y1="586.3148" y2="586.3148"/><line style="stroke:#000000;stroke-width:1;" x1="1201.2637" x2="1618" y1="605.3828" y2="605.3828"/><line style="stroke:#000000;stroke-width:1;" x1="1201.2637" x2="1618" y1="624.4507" y2="624.4507"/><line style="stroke:#000000;stroke-width:1;" x1="1201.2637" x2="1618" y1="643.5186" y2="643.5186"/><line style="stroke:#000000;stroke-width:1;" x1="1201.2637" x2="1618" y1="662.5865" y2="662.5865"/><line style="stroke:#000000;stroke-width:1;" x1="1201.2637" x2="1618" y1="681.6544" y2="681.6544"/><line style="stroke:#000000;stroke-width:1;" x1="1201.2637" x2="1618" y1="700.7223" y2="700.7223"/><line style="stroke:#000000;stroke-width:1;" x1="1201.2637" x2="1201.2637" y1="567.2469" y2="700.7223"/><line style="stroke:#000000;stroke-width:1;" x1="1361.717" x2="1361.717" y1="567.2469" y2="700.7223"/><line style="stroke:#000000;stroke-width:1;" x1="1618" x2="1618" y1="567.2469" y2="700.7223"/></g></g></svg>