<svg xmlns="http://www.w3.org/2000/svg" xmlns:xlink="http://www.w3.org/1999/xlink" contentStyleType="text/css" data-diagram-type="DESCRIPTION" height="961px" preserveAspectRatio="none" style="width:1091px;height:961px;background:#FBF8EF;" version="1.1" viewBox="0 0 1091 961" width="1091px" zoomAndPan="magnify"><?plantuml $version$?><defs/><g><rect fill="#FBF8EF" height="961" style="stroke:none;stroke-width:1;" width="1091" x="0" y="0"/><g class="title" data-source-line="14"><text fill="#000000" font-family="'Inter, Helvetica, sans-serif'" font-size="14" font-weight="700" lengthAdjust="spacing" textLength="710.0074" x="187.1889" y="24.9659">Common document IR &#8212; format front-ends -&gt; weighted-transducer IR -&gt; HTML back-end + capabilities</text></g><!--cluster Format front-ends (parse -> IR)--><g class="cluster" data-qualified-name="Format front-ends .parse -. IR." data-source-line="16" id="ent0001"><path d="M10,46.6699 L222.2692,46.6699 A6,6 0 0 1 226.2692,50.6699 L233.2692,71.7378 L1055,71.7378 A4,4 0 0 1 1059,75.7378 L1059,164.7999 A4,4 0 0 1 1055,168.7999 L10,168.7999 A4,4 0 0 1 6,164.7999 L6,50.6699 A4,4 0 0 1 10,46.6699" fill="none" style="stroke:#888888;stroke-width:1.5;"/><line style="stroke:#888888;stroke-width:1.5;" x1="6" x2="233.2692" y1="71.7378" y2="71.7378"/><text fill="#000000" font-family="'Inter, Helvetica, sans-serif'" font-size="14" font-weight="700" lengthAdjust="spacing" textLength="214.2692" x="10" y="63.6358">Format front-ends (parse -&gt; IR)</text></g><!--cluster Common IR core  (DOM-free, node-tested)--><g class="cluster" data-qualified-name="Common IR core  .DOM-free. node-tested." data-source-line="24" id="ent0007"><path d="M316,201.7999 L605.4649,201.7999 A6,6 0 0 1 609.4649,205.7999 L616.4649,226.8678 L899,226.8678 A4,4 0 0 1 903,230.8678 L903,487.2099 A4,4 0 0 1 899,491.2099 L316,491.2099 A4,4 0 0 1 312,487.2099 L312,205.7999 A4,4 0 0 1 316,201.7999" fill="none" style="stroke:#888888;stroke-width:1.5;"/><line style="stroke:#888888;stroke-width:1.5;" x1="312" x2="616.4649" y1="226.8678" y2="226.8678"/><text fill="#000000" font-family="'Inter, Helvetica, sans-serif'" font-size="14" font-weight="700" lengthAdjust="spacing" textLength="291.4649" x="316" y="218.7658">Common IR core  (DOM-free, node-tested)</text></g><!--cluster Back-end + capabilities--><g class="cluster" data-qualified-name="Back-end . capabilities" data-source-line="31" id="ent0012"><path d="M184,524.2099 L341.5574,524.2099 A6,6 0 0 1 345.5574,528.2099 L352.5574,549.2778 L699,549.2778 A4,4 0 0 1 703,553.2778 L703,789.4799 A4,4 0 0 1 699,793.4799 L184,793.4799 A4,4 0 0 1 180,789.4799 L180,528.2099 A4,4 0 0 1 184,524.2099" fill="none" style="stroke:#888888;stroke-width:1.5;"/><line style="stroke:#888888;stroke-width:1.5;" x1="180" x2="352.5574" y1="549.2778" y2="549.2778"/><text fill="#000000" font-family="'Inter, Helvetica, sans-serif'" font-size="14" font-weight="700" lengthAdjust="spacing" textLength="159.5574" x="184" y="541.1758">Back-end + capabilities</text></g><!--entity FMd--><g class="entity" data-qualified-name="Format front-ends .parse -. IR..FMd" data-source-line="17" id="ent0002"><rect fill="#67B11D" height="68.1358" rx="4" ry="4" style="stroke:#181818;stroke-width:1.4;" width="172.6215" x="398.69" y="84.6699"/><rect fill="#67B11D" height="10" style="stroke:#181818;stroke-width:1.4;" width="15" x="551.3115" y="89.6699"/><rect fill="#67B11D" height="2" style="stroke:#181818;stroke-width:1.4;" width="4" x="549.3115" y="91.6699"/><rect fill="#67B11D" height="2" style="stroke:#181818;stroke-width:1.4;" width="4" x="549.3115" y="95.6699"/><text fill="#1A1A1A" font-family="'Inter, Helvetica, sans-serif'" font-size="14" lengthAdjust="spacing" textLength="132.6215" x="413.69" y="119.6358">frontend.markdown</text><text fill="#1A1A1A" font-family="'Inter, Helvetica, sans-serif'" font-size="14" lengthAdjust="spacing" textLength="126.0555" x="413.69" y="138.7038">(rehype HAST -&gt; IR)</text></g><!--entity FOf--><g class="entity" data-qualified-name="Format front-ends .parse -. IR..FOf" data-source-line="18" id="ent0003"><rect fill="#67B11D" height="68.1358" rx="4" ry="4" style="stroke:#181818;stroke-width:1.4;" width="159.8115" x="22.09" y="84.6699"/><rect fill="#67B11D" height="10" style="stroke:#181818;stroke-width:1.4;" width="15" x="161.9015" y="89.6699"/><rect fill="#67B11D" height="2" style="stroke:#181818;stroke-width:1.4;" width="4" x="159.9015" y="91.6699"/><rect fill="#67B11D" height="2" style="stroke:#181818;stroke-width:1.4;" width="4" x="159.9015" y="95.6699"/><text fill="#1A1A1A" font-family="'Inter, Helvetica, sans-serif'" font-size="14" lengthAdjust="spacing" textLength="98.0136" x="37.09" y="119.6358">frontend.office</text><text fill="#1A1A1A" font-family="'Inter, Helvetica, sans-serif'" font-size="14" lengthAdjust="spacing" textLength="119.8115" x="37.09" y="138.7038">(office HTML -&gt; IR)</text></g><!--entity FSrc--><g class="entity" data-qualified-name="Format front-ends .parse -. IR..FSrc" data-source-line="19" id="ent0004"><rect fill="#2D9574" height="68.1358" rx="4" ry="4" style="stroke:#181818;stroke-width:1.4;" width="146.8896" x="216.56" y="84.6699"/><rect fill="#2D9574" height="10" style="stroke:#181818;stroke-width:1.4;" width="15" x="343.4496" y="89.6699"/><rect fill="#2D9574" height="2" style="stroke:#181818;stroke-width:1.4;" width="4" x="341.4496" y="91.6699"/><rect fill="#2D9574" height="2" style="stroke:#181818;stroke-width:1.4;" width="4" x="341.4496" y="95.6699"/><text fill="#1A1A1A" font-family="'Inter, Helvetica, sans-serif'" font-size="14" lengthAdjust="spacing" textLength="105.9096" x="231.56" y="119.6358">frontend.source</text><text fill="#1A1A1A" font-family="'Inter, Helvetica, sans-serif'" font-size="14" lengthAdjust="spacing" textLength="106.8896" x="231.56" y="138.7038">(tree-sitter -&gt; IR)</text></g><!--entity FPdf--><g class="entity" data-qualified-name="Format front-ends .parse -. IR..FPdf" data-source-line="20" id="ent0005"><rect fill="#2D9574" height="68.1358" rx="4" ry="4" style="stroke:#181818;stroke-width:1.4;" width="180.2375" x="862.88" y="84.6699"/><rect fill="#2D9574" height="10" style="stroke:#181818;stroke-width:1.4;" width="15" x="1023.1175" y="89.6699"/><rect fill="#2D9574" height="2" style="stroke:#181818;stroke-width:1.4;" width="4" x="1021.1175" y="91.6699"/><rect fill="#2D9574" height="2" style="stroke:#181818;stroke-width:1.4;" width="4" x="1021.1175" y="95.6699"/><text fill="#1A1A1A" font-family="'Inter, Helvetica, sans-serif'" font-size="14" lengthAdjust="spacing" textLength="83.7197" x="877.88" y="119.6358">frontend.pdf</text><text fill="#1A1A1A" font-family="'Inter, Helvetica, sans-serif'" font-size="14" lengthAdjust="spacing" textLength="140.2375" x="877.88" y="138.7038">(pdf.js text runs -&gt; IR)</text></g><!--entity FData--><g class="entity" data-qualified-name="Format front-ends .parse -. IR..FData" data-source-line="21" id="ent0006"><rect fill="#2D9574" height="49.0679" rx="4" ry="4" style="stroke:#181818;stroke-width:1.4;" width="221.1733" x="606.41" y="94.1999"/><rect fill="#2D9574" height="10" style="stroke:#181818;stroke-width:1.4;" width="15" x="807.5833" y="99.1999"/><rect fill="#2D9574" height="2" style="stroke:#181818;stroke-width:1.4;" width="4" x="805.5833" y="101.1999"/><rect fill="#2D9574" height="2" style="stroke:#181818;stroke-width:1.4;" width="4" x="805.5833" y="105.1999"/><text fill="#1A1A1A" font-family="'Inter, Helvetica, sans-serif'" font-size="14" lengthAdjust="spacing" textLength="181.1733" x="621.41" y="129.1658">frontend.{table,log,archive}</text></g><!--entity Node--><g class="entity" data-qualified-name="Common IR core  .DOM-free. node-tested..Node" data-source-line="25" id="ent0008"><rect fill="#E67E22" height="87.2038" rx="4" ry="4" style="stroke:#181818;stroke-width:1.4;" width="290.627" x="327.69" y="239.7999"/><rect fill="#E67E22" height="10" style="stroke:#181818;stroke-width:1.4;" width="15" x="598.317" y="244.7999"/><rect fill="#E67E22" height="2" style="stroke:#181818;stroke-width:1.4;" width="4" x="596.317" y="246.7999"/><rect fill="#E67E22" height="2" style="stroke:#181818;stroke-width:1.4;" width="4" x="596.317" y="250.7999"/><text fill="#1A1A1A" font-family="'Inter, Helvetica, sans-serif'" font-size="14" lengthAdjust="spacing" textLength="80.0097" x="342.69" y="274.7658">node / meta</text><text fill="#1A1A1A" font-family="'Inter, Helvetica, sans-serif'" font-size="14" lengthAdjust="spacing" textLength="250.627" x="342.69" y="293.8338">tagged node {kind,children,text,meta}</text><text fill="#1A1A1A" font-family="'Inter, Helvetica, sans-serif'" font-size="14" lengthAdjust="spacing" textLength="191.0013" x="342.69" y="312.9017">span / bbox / role / anchor-id</text></g><!--entity Sem--><g class="entity" data-qualified-name="Common IR core  .DOM-free. node-tested..Sem" data-source-line="26" id="ent0009"><rect fill="#E67E22" height="87.2038" rx="4" ry="4" style="stroke:#181818;stroke-width:1.4;" width="234.3333" x="652.83" y="239.7999"/><rect fill="#E67E22" height="10" style="stroke:#181818;stroke-width:1.4;" width="15" x="867.1633" y="244.7999"/><rect fill="#E67E22" height="2" style="stroke:#181818;stroke-width:1.4;" width="4" x="865.1633" y="246.7999"/><rect fill="#E67E22" height="2" style="stroke:#181818;stroke-width:1.4;" width="4" x="865.1633" y="250.7999"/><text fill="#1A1A1A" font-family="'Inter, Helvetica, sans-serif'" font-size="14" lengthAdjust="spacing" textLength="57.9598" x="667.83" y="274.7658">semiring</text><text fill="#1A1A1A" font-family="'Inter, Helvetica, sans-serif'" font-size="14" lengthAdjust="spacing" textLength="94.8636" x="667.83" y="293.8338">(K, (+), (x), 0, 1)</text><text fill="#1A1A1A" font-family="'Inter, Helvetica, sans-serif'" font-size="14" lengthAdjust="spacing" textLength="194.3333" x="667.83" y="312.9017">Boolean/Tropical/Log/Prob/...</text></g><!--entity TT--><g class="entity" data-qualified-name="Common IR core  .DOM-free. node-tested..TT" data-source-line="27" id="ent0010"><rect fill="#E67E22" height="87.2038" rx="4" ry="4" style="stroke:#181818;stroke-width:1.4;" width="206.9494" x="440.53" y="387.9999"/><rect fill="#E67E22" height="10" style="stroke:#181818;stroke-width:1.4;" width="15" x="627.4794" y="392.9999"/><rect fill="#E67E22" height="2" style="stroke:#181818;stroke-width:1.4;" width="4" x="625.4794" y="394.9999"/><rect fill="#E67E22" height="2" style="stroke:#181818;stroke-width:1.4;" width="4" x="625.4794" y="398.9999"/><text fill="#1A1A1A" font-family="'Inter, Helvetica, sans-serif'" font-size="14" lengthAdjust="spacing" textLength="71.7077" x="455.53" y="422.9658">transducer</text><text fill="#1A1A1A" font-family="'Inter, Helvetica, sans-serif'" font-size="14" lengthAdjust="spacing" textLength="166.9494" x="455.53" y="442.0338">weighted tree transducer</text><text fill="#1A1A1A" font-family="'Inter, Helvetica, sans-serif'" font-size="14" lengthAdjust="spacing" textLength="140.0835" x="455.53" y="461.1017">(+ exact composition)</text></g><!--entity Auto--><g class="entity" data-qualified-name="Common IR core  .DOM-free. node-tested..Auto" data-source-line="28" id="ent0011"><rect fill="#E67E22" height="87.2038" rx="4" ry="4" style="stroke:#181818;stroke-width:1.4;" width="204.9194" x="682.54" y="387.9999"/><rect fill="#E67E22" height="10" style="stroke:#181818;stroke-width:1.4;" width="15" x="867.4594" y="392.9999"/><rect fill="#E67E22" height="2" style="stroke:#181818;stroke-width:1.4;" width="4" x="865.4594" y="394.9999"/><rect fill="#E67E22" height="2" style="stroke:#181818;stroke-width:1.4;" width="4" x="865.4594" y="398.9999"/><text fill="#1A1A1A" font-family="'Inter, Helvetica, sans-serif'" font-size="14" lengthAdjust="spacing" textLength="96.7676" x="697.54" y="422.9658">wpda / decode</text><text fill="#1A1A1A" font-family="'Inter, Helvetica, sans-serif'" font-size="14" lengthAdjust="spacing" textLength="91.3916" x="697.54" y="442.0338">earley / forest</text><text fill="#1A1A1A" font-family="'Inter, Helvetica, sans-serif'" font-size="14" lengthAdjust="spacing" textLength="164.9194" x="697.54" y="461.1017">(weighted segmentation)</text></g><!--entity BHtml--><g class="entity" data-qualified-name="Back-end . capabilities.BHtml" data-source-line="32" id="ent0013"><rect fill="#67B11D" height="68.1358" rx="4" ry="4" style="stroke:#181818;stroke-width:1.4;" width="232.3032" x="454.85" y="562.2099"/><rect fill="#67B11D" height="10" style="stroke:#181818;stroke-width:1.4;" width="15" x="667.1532" y="567.2099"/><rect fill="#67B11D" height="2" style="stroke:#181818;stroke-width:1.4;" width="4" x="665.1532" y="569.2099"/><rect fill="#67B11D" height="2" style="stroke:#181818;stroke-width:1.4;" width="4" x="665.1532" y="573.2099"/><text fill="#1A1A1A" font-family="'Inter, Helvetica, sans-serif'" font-size="14" lengthAdjust="spacing" textLength="89.9776" x="469.85" y="597.1758">backend.html</text><text fill="#1A1A1A" font-family="'Inter, Helvetica, sans-serif'" font-size="14" lengthAdjust="spacing" textLength="192.3032" x="469.85" y="616.2438">IR -&gt; HAST -&gt; rehype-stringify</text></g><!--entity San--><g class="entity" data-qualified-name="Back-end . capabilities.San" data-source-line="33" id="ent0014"><rect fill="#B1951D" height="68.1358" rx="4" ry="4" style="stroke:#181818;stroke-width:1.4;" width="186.3974" x="477.8" y="709.3399"/><rect fill="#B1951D" height="10" style="stroke:#181818;stroke-width:1.4;" width="15" x="644.1974" y="714.3399"/><rect fill="#B1951D" height="2" style="stroke:#181818;stroke-width:1.4;" width="4" x="642.1974" y="716.3399"/><rect fill="#B1951D" height="2" style="stroke:#181818;stroke-width:1.4;" width="4" x="642.1974" y="720.3399"/><text fill="#1A1A1A" font-family="'Inter, Helvetica, sans-serif'" font-size="14" lengthAdjust="spacing" textLength="109.5356" x="492.8" y="744.3058">backend.sanitize</text><text fill="#1A1A1A" font-family="'Inter, Helvetica, sans-serif'" font-size="14" lengthAdjust="spacing" textLength="146.3974" x="492.8" y="763.3738">single GitHub allowlist</text></g><!--entity Toc--><g class="entity" data-qualified-name="Back-end . capabilities.Toc" data-source-line="34" id="ent0015"><rect fill="#4F97D7" height="68.1358" rx="4" ry="4" style="stroke:#181818;stroke-width:1.4;" width="224.5473" x="195.73" y="562.2099"/><rect fill="#4F97D7" height="10" style="stroke:#181818;stroke-width:1.4;" width="15" x="400.2773" y="567.2099"/><rect fill="#4F97D7" height="2" style="stroke:#181818;stroke-width:1.4;" width="4" x="398.2773" y="569.2099"/><rect fill="#4F97D7" height="2" style="stroke:#181818;stroke-width:1.4;" width="4" x="398.2773" y="573.2099"/><text fill="#1A1A1A" font-family="'Inter, Helvetica, sans-serif'" font-size="14" lengthAdjust="spacing" textLength="86.6737" x="210.73" y="597.1758">capability.toc</text><text fill="#1A1A1A" font-family="'Inter, Helvetica, sans-serif'" font-size="14" lengthAdjust="spacing" textLength="184.5473" x="210.73" y="616.2438">headings/outline -&gt; :doc/toc</text></g><!--link FMd to Node--><g class="link" data-entity-1="ent0002" data-entity-2="ent0008" data-link-type="dependency" data-source-line="37" id="lnk16"><path d="M482.54,153.0399 C480.7,178.0499 478.5287,207.5035 476.5287,234.5535" fill="none" id="FMd-to-Node" style="stroke:#555555;stroke-width:1.3;"/><polygon fill="#555555" points="476.16,239.5399,480.8127,230.8593,476.5287,234.5535,472.8345,230.2695,476.16,239.5399" style="stroke:#555555;stroke-width:1.3;stroke-linejoin:miter;stroke-miterlimit:10;"/></g><!--link FOf to Node--><g class="link" data-entity-1="ent0003" data-entity-2="ent0008" data-link-type="dependency" data-source-line="38" id="lnk17"><path d="M155.27,153.1799 C169.25,161.3699 184.48,169.7899 199,176.7999 C246.75,199.8499 296.2347,219.864 343.7347,237.564" fill="none" id="FOf-to-Node" style="stroke:#555555;stroke-width:1.3;"/><polygon fill="#555555" points="348.42,239.3099,341.3832,232.4191,343.7347,237.564,338.5898,239.9155,348.42,239.3099" style="stroke:#555555;stroke-width:1.3;stroke-linejoin:miter;stroke-miterlimit:10;"/></g><!--link FSrc to Node--><g class="link" data-entity-1="ent0004" data-entity-2="ent0008" data-link-type="dependency" data-source-line="39" id="lnk18"><path d="M327.47,153.0399 C355.6,178.0499 390.613,209.168 421.043,236.218" fill="none" id="FSrc-to-Node" style="stroke:#555555;stroke-width:1.3;"/><polygon fill="#555555" points="424.78,239.5399,420.711,230.5709,421.043,236.218,415.3959,236.5501,424.78,239.5399" style="stroke:#555555;stroke-width:1.3;stroke-linejoin:miter;stroke-miterlimit:10;"/></g><!--link FPdf to Node--><g class="link" data-entity-1="ent0005" data-entity-2="ent0008" data-link-type="dependency" data-source-line="40" id="lnk19"><path d="M899.88,153.2699 C882.95,162.4399 863.73,171.3399 845,176.7999 C755.1,202.9899 724.71,166.9699 635,193.7999 C600.76,204.0399 569.9015,219.6042 541.1315,236.8042" fill="none" id="FPdf-to-Node" style="stroke:#555555;stroke-width:1.3;"/><polygon fill="#555555" points="536.84,239.3699,546.6173,238.1849,541.1315,236.8042,542.5122,231.3185,536.84,239.3699" style="stroke:#555555;stroke-width:1.3;stroke-linejoin:miter;stroke-miterlimit:10;"/></g><!--link FData to Node--><g class="link" data-entity-1="ent0006" data-entity-2="ent0008" data-link-type="dependency" data-source-line="41" id="lnk20"><path d="M681,143.7399 C643.35,168.8299 587.63,205.976 541.77,236.556" fill="none" id="FData-to-Node" style="stroke:#555555;stroke-width:1.3;"/><polygon fill="#555555" points="537.61,239.3299,547.3171,237.6648,541.77,236.556,542.8788,231.0089,537.61,239.3299" style="stroke:#555555;stroke-width:1.3;stroke-linejoin:miter;stroke-miterlimit:10;"/></g><!--link Node to TT--><g class="link" data-entity-1="ent0008" data-entity-2="ent0010" data-link-type="dependency" data-source-line="43" id="lnk21"><path d="M493.92,327.4799 C503.12,346.4299 511.7263,364.142 520.9263,383.092" fill="none" id="Node-to-TT" style="stroke:#555555;stroke-width:1.3;"/><polygon fill="#555555" points="523.11,387.5899,522.7777,377.7466,520.9263,383.092,515.581,381.2406,523.11,387.5899" style="stroke:#555555;stroke-width:1.3;stroke-linejoin:miter;stroke-miterlimit:10;"/></g><!--link Sem to TT--><g class="link" data-entity-1="ent0009" data-entity-2="ent0010" data-link-type="dependency" data-source-line="44" id="lnk22"><path d="M703.41,327.4799 C674.12,346.4299 643.988,365.9239 614.698,384.8739" fill="none" id="Sem-to-TT" style="stroke:#555555;stroke-width:1.3;"/><polygon fill="#555555" points="610.5,387.5899,620.2292,386.0595,614.698,384.8739,615.8836,379.3427,610.5,387.5899" style="stroke:#555555;stroke-width:1.3;stroke-linejoin:miter;stroke-miterlimit:10;"/></g><!--link Sem to Auto--><g class="link" data-entity-1="ent0009" data-entity-2="ent0011" data-link-type="dependency" data-source-line="45" id="lnk23"><path d="M774.42,327.4799 C776.36,346.4299 778.1282,363.6662 780.0782,382.6162" fill="none" id="Sem-to-Auto" style="stroke:#555555;stroke-width:1.3;"/><polygon fill="#555555" points="780.59,387.5899,783.6477,378.2277,780.0782,382.6162,775.6898,379.0466,780.59,387.5899" style="stroke:#555555;stroke-width:1.3;stroke-linejoin:miter;stroke-miterlimit:10;"/></g><!--link FPdf to Auto--><g class="link" data-entity-1="ent0005" data-entity-2="ent0011" data-link-type="dependency" data-source-line="46" id="lnk24"><path d="M951.6,152.9699 C948.45,195.9999 938.21,271.9799 905,326.9999 C890.99,350.2099 873.8816,367.7481 853.3516,384.4181" fill="none" id="FPdf-to-Auto" style="stroke:#555555;stroke-width:1.3;stroke-dasharray:7,7;"/><polygon fill="#555555" points="849.47,387.5699,858.9782,385.002,853.3516,384.4181,853.9354,378.7915,849.47,387.5699" style="stroke:#555555;stroke-width:1.3;stroke-linejoin:miter;stroke-miterlimit:10;"/><text fill="#000000" font-family="'Inter, Helvetica, sans-serif'" font-size="13" lengthAdjust="spacing" textLength="127.4651" x="947.92" y="279.7969">ambiguous run-&gt;line</text><text fill="#000000" font-family="'Inter, Helvetica, sans-serif'" font-size="13" lengthAdjust="spacing" textLength="104.0391" x="959.633" y="297.5029">-&gt;block grouping</text></g><!--link TT to BHtml--><g class="link" data-entity-1="ent0010" data-entity-2="ent0013" data-link-type="dependency" data-source-line="48" id="lnk25"><path d="M551.09,475.3499 C555.58,502.3599 560.4722,531.8372 564.6222,556.8672" fill="none" id="TT-to-BHtml" style="stroke:#555555;stroke-width:1.3;"/><polygon fill="#555555" points="565.44,561.7999,567.914,552.2668,564.6222,556.8672,560.0218,553.5754,565.44,561.7999" style="stroke:#555555;stroke-width:1.3;stroke-linejoin:miter;stroke-miterlimit:10;"/></g><!--link BHtml to San--><g class="link" data-entity-1="ent0013" data-entity-2="ent0014" data-link-type="dependency" data-source-line="49" id="lnk26"><path d="M571,630.5699 C571,654.0899 571,680.4799 571,704.0199" fill="none" id="BHtml-to-San" style="stroke:#555555;stroke-width:1.3;"/><polygon fill="#555555" points="571,709.0199,575,700.0199,571,704.0199,567,700.0199,571,709.0199" style="stroke:#555555;stroke-width:1.3;stroke-linejoin:miter;stroke-miterlimit:10;"/><text fill="#000000" font-family="'Inter, Helvetica, sans-serif'" font-size="13" lengthAdjust="spacing" textLength="78.3771" x="572" y="675.2369">one sanitizer</text></g><!--link Node to Toc--><g class="link" data-entity-1="ent0008" data-entity-2="ent0015" data-link-type="dependency" data-source-line="50" id="lnk27"><path d="M450.23,327.2999 C416.99,389.9299 358.214,500.6734 328.084,557.4434" fill="none" id="Node-to-Toc" style="stroke:#555555;stroke-width:1.3;"/><polygon fill="#555555" points="325.74,561.8599,333.4924,555.7854,328.084,557.4434,326.426,552.035,325.74,561.8599" style="stroke:#555555;stroke-width:1.3;stroke-linejoin:miter;stroke-miterlimit:10;"/></g><g class="legend" data-source-line="52"><rect fill="none" height="128.4075" rx="4" ry="4" style="stroke:#000000;stroke-width:1;" width="283.5869" x="788.7982" y="814.4799"/><text fill="#000000" font-family="'Inter, Helvetica, sans-serif'" font-size="14" font-weight="700" lengthAdjust="spacing" textLength="44.2538" x="797.4382" y="836.4458">colour</text><text fill="#000000" font-family="'Inter, Helvetica, sans-serif'" font-size="14" font-weight="700" lengthAdjust="spacing" textLength="55.5798" x="848.972" y="836.4458">concept</text><rect fill="#E67E22" height="19.0679" style="stroke:none;stroke-width:1;" width="51.5338" x="793.7982" y="840.5478"/><text fill="#000000" font-family="'Inter, Helvetica, sans-serif'" font-size="14" lengthAdjust="spacing" textLength="3.64" x="793.7982" y="855.5138">&#160;</text><text fill="#000000" font-family="'Inter, Helvetica, sans-serif'" font-size="14" lengthAdjust="spacing" textLength="108.0936" x="848.972" y="855.5138">common IR core</text><rect fill="#67B11D" height="19.0679" style="stroke:none;stroke-width:1;" width="51.5338" x="793.7982" y="859.6157"/><text fill="#000000" font-family="'Inter, Helvetica, sans-serif'" font-size="14" lengthAdjust="spacing" textLength="3.64" x="793.7982" y="874.5817">&#160;</text><text fill="#000000" font-family="'Inter, Helvetica, sans-serif'" font-size="14" lengthAdjust="spacing" textLength="214.7731" x="848.972" y="874.5817">HTML surface (markdown/office)</text><rect fill="#2D9574" height="19.0679" style="stroke:none;stroke-width:1;" width="51.5338" x="793.7982" y="878.6836"/><text fill="#000000" font-family="'Inter, Helvetica, sans-serif'" font-size="14" lengthAdjust="spacing" textLength="3.64" x="793.7982" y="893.6496">&#160;</text><text fill="#000000" font-family="'Inter, Helvetica, sans-serif'" font-size="14" lengthAdjust="spacing" textLength="125.6075" x="848.972" y="893.6496">renderer-side facet</text><rect fill="#B1951D" height="19.0679" style="stroke:none;stroke-width:1;" width="51.5338" x="793.7982" y="897.7516"/><text fill="#000000" font-family="'Inter, Helvetica, sans-serif'" font-size="14" lengthAdjust="spacing" textLength="3.64" x="793.7982" y="912.7175">&#160;</text><text fill="#000000" font-family="'Inter, Helvetica, sans-serif'" font-size="14" lengthAdjust="spacing" textLength="166.8934" x="848.972" y="912.7175">trust boundary / sanitizer</text><rect fill="#4F97D7" height="19.0679" style="stroke:none;stroke-width:1;" width="51.5338" x="793.7982" y="916.8195"/><text fill="#000000" font-family="'Inter, Helvetica, sans-serif'" font-size="14" lengthAdjust="spacing" textLength="3.64" x="793.7982" y="931.7854">&#160;</text><text fill="#000000" font-family="'Inter, Helvetica, sans-serif'" font-size="14" lengthAdjust="spacing" textLength="122.6675" x="848.972" y="931.7854">re-frame (:doc/toc)</text><line style="stroke:#000000;stroke-width:1;" x1="793.7982" x2="1067.3851" y1="821.4799" y2="821.4799"/><line style="stroke:#000000;stroke-width:1;" x1="793.7982" x2="1067.3851" y1="840.5478" y2="840.5478"/><line style="stroke:#000000;stroke-width:1;" x1="793.7982" x2="1067.3851" y1="859.6157" y2="859.6157"/><line style="stroke:#000000;stroke-width:1;" x1="793.7982" x2="1067.3851" y1="878.6836" y2="878.6836"/><line style="stroke:#000000;stroke-width:1;" x1="793.7982" x2="1067.3851" y1="897.7516" y2="897.7516"/><line style="stroke:#000000;stroke-width:1;" x1="793.7982" x2="1067.3851" y1="916.8195" y2="916.8195"/><line style="stroke:#000000;stroke-width:1;" x1="793.7982" x2="1067.3851" y1="935.8874" y2="935.8874"/><line style="stroke:#000000;stroke-width:1;" x1="793.7982" x2="793.7982" y1="821.4799" y2="935.8874"/><line style="stroke:#000000;stroke-width:1;" x1="845.332" x2="845.332" y1="821.4799" y2="935.8874"/><line style="stroke:#000000;stroke-width:1;" x1="1067.3851" x2="1067.3851" y1="821.4799" y2="935.8874"/></g><?plantuml-src hLLjJzj84FxkNp6b7mWYJW3HSg032KWeg8IWaEg-H6hNzjZPOxrhxQuJSe1qF-9-uVsIcx7prWEgVgWLELxF-9dPcUVPsTo4urzu1PkRC95Qs5auaJX52__-_G-Scxmm6hK7VWac1Jz6EE_tUlqRwFJFl_IwDqEu6a0X2rHI8y4mqgqIsd_fNOEP458FRIva0X76edH86D81_GGeCKEB2IJ2YrIPAKp7jAw2t9tskX0RPKhBY7dfFEGezBfHnrXu40Ic0IdI30nPBQGoAmccaLb43SUG2tkVcAbkNmvxrupcIfkA69lWKIXoiAWJ2coRa1cLq0iEuYt7Z4of4oeBjC49BRtyYzqYLI9KHRCOfbRakDM2lbQprTOLUWUb8uTwpmXkB7YptxvE9Y6jS_m6XI0tZvHXR8rhCU0lxUexgMDL9WZBc2rPvYe8tYMOKh-eTr_F-zVz0G2yxtuywExjhPlE-eDEbsplJt_Rx-xi186NNY7J8ZSQ4XENEPE32C1iIGtrsKDgZVOXLTH1U09JbDdOOn9wAxHBofZwG_vauMP09E9xzeLjY4KX8gcenEY2e223o10sBbwWDWfXgQG4SJNOse3708WB2w9kL8xarrfqVQGR5iUp0k7oz6wu_8neSz5B07gdWy-T_XytTHtUm39fAcCafFgXpdqTgPy2Npy5veZJ5PWdVePE4W7iTs1tDcQmGVU6gjyT_12iI592edlhJqTqVl1WI-s-WxjDqfy4U_GYKjXK9ciA6u_b19zhY0u955RN_y2UrzervmQrE3QaGMXq-ZrI29BOj4amzEY83I_RnaRIM8vUZBGNMKPAgTuztakTD2aPbP1Ccxp59dizZxGhw3neGnIP1_gpHZ62qF7Os50cLUOt377rwguTvj9AdL7vFZUXiRr5jmUwxJHXTskapmpX2TqUMbF8MAZsjSdQjzP4xLQhLM7VOVu6z8hh8xqG072tOTtIs0Py4B6lloGUIAFhbWs7Rm1FYqJG7XECQLyZZS8gvAE9f4Tr9SXbD8SPQrEiG4zBRrQmwpqxUrs4Bth4OcMQZ7skHdgkuhccQec5pdD9PJghGfvTakSFHR60N9ojr5JwdXhvIVhBCWAXQ2mewNnTSUht_BgwFNyDRvd_hELDFD9Z50a1khOfFGyeJlM83gusMUjIctXEwOi1JPLLTQh38IHtfb1G2NorOeMkLYomrQhIod8PL0pavN0OC6DUF7DVQenMgrx14OWyeY5cU7wKEZpXr4Vq7oaJtqDcJLdGheA0Y5A3L9KEwdhpcYjr15IKrTHQoyJ4GQ0muvPRvWlLyEbuFcthftgqFh7Xz_bWE7dYGg-BUsx-U72skziXStKgpcShD9PJjpupjnRkUvt33mVxvBwOkdG4KcByqJBYsUxXXmhoxI6ySDs_E3pe75HmzII6ngB1799Yr3iD_WC0?></g></svg>