<svg xmlns="http://www.w3.org/2000/svg" xmlns:xlink="http://www.w3.org/1999/xlink" contentStyleType="text/css" data-diagram-type="DESCRIPTION" height="909px" preserveAspectRatio="none" style="width:1276px;height:909px;background:#FBF8EF;" version="1.1" viewBox="0 0 1276 909" width="1276px" zoomAndPan="magnify"><?plantuml $version$?><defs/><g><rect fill="#FBF8EF" height="909" style="stroke:none;stroke-width:1;" width="1276" x="0" y="0"/><g class="title" data-source-line="4"><text fill="#000000" font-family="'Inter, Helvetica, sans-serif'" font-size="14" font-weight="700" lengthAdjust="spacing" textLength="553.2078" x="358.0922" y="24.9659">Custom keybindings &#8212; command registry, palette, resolver, editor, persistence</text></g><!--entity KD--><g class="entity" data-qualified-name="KD" data-source-line="6" id="ent0001"><rect fill="#2D9574" height="39.0679" rx="4" ry="4" style="stroke:#181818;stroke-width:0.5;" width="116.7396" x="836.84" y="47.0679"/><text fill="#000000" font-family="'Inter, Helvetica, sans-serif'" font-size="14" lengthAdjust="spacing" textLength="96.7396" x="846.84" y="72.0339">DOM keydown</text></g><!--entity KEYS--><g class="entity" data-qualified-name="KEYS" data-source-line="7" id="ent0002"><rect fill="#2D9574" height="58.1358" rx="4" ry="4" style="stroke:#181818;stroke-width:0.5;" width="243.3411" x="773.54" y="147.1379"/><text fill="#000000" font-family="'Inter, Helvetica, sans-serif'" font-size="14" lengthAdjust="spacing" textLength="111.4536" x="783.54" y="172.1039">vinary.input.keys</text><text fill="#000000" font-family="'Inter, Helvetica, sans-serif'" font-size="14" lengthAdjust="spacing" textLength="223.3411" x="783.54" y="191.1718">KeyboardEvent -&gt; canonical chord</text></g><!--entity RES--><g class="entity" data-qualified-name="RES" data-source-line="8" id="ent0003"><rect fill="#2D9574" height="58.1358" rx="4" ry="4" style="stroke:#181818;stroke-width:0.5;" width="201.3973" x="794.51" y="284.2679"/><text fill="#000000" font-family="'Inter, Helvetica, sans-serif'" font-size="14" lengthAdjust="spacing" textLength="135.4915" x="804.51" y="309.2339">vinary.input.resolver</text><text fill="#000000" font-family="'Inter, Helvetica, sans-serif'" font-size="14" lengthAdjust="spacing" textLength="181.3973" x="804.51" y="328.3018">modal/chord state machine</text></g><!--entity KM--><g class="entity" data-qualified-name="KM" data-source-line="9" id="ent0004"><rect fill="#A45BAD" height="58.1358" rx="4" ry="4" style="stroke:#181818;stroke-width:0.5;" width="154.3015" x="263.06" y="421.4079"/><text fill="#000000" font-family="'Inter, Helvetica, sans-serif'" font-size="14" lengthAdjust="spacing" textLength="134.3015" x="273.06" y="446.3739">vinary.input.keymap</text><text fill="#000000" font-family="'Inter, Helvetica, sans-serif'" font-size="14" lengthAdjust="spacing" textLength="132.0615" x="273.06" y="465.4418">active keymap atom</text></g><!--entity PRESETS--><g class="entity" data-qualified-name="PRESETS" data-source-line="10" id="ent0005"><rect fill="#A45BAD" height="58.1358" rx="4" ry="4" style="stroke:#181818;stroke-width:0.5;" width="190.4213" x="7" y="284.2679"/><text fill="#000000" font-family="'Inter, Helvetica, sans-serif'" font-size="14" lengthAdjust="spacing" textLength="170.4213" x="17" y="309.2339">resources/keymaps/*.edn</text><text fill="#000000" font-family="'Inter, Helvetica, sans-serif'" font-size="14" lengthAdjust="spacing" textLength="152.3334" x="17" y="328.3018">Standard / Vim / Emacs</text></g><!--entity REG--><g class="entity" data-qualified-name="REG" data-source-line="11" id="ent0006"><rect fill="#7590DB" height="58.1358" rx="4" ry="4" style="stroke:#181818;stroke-width:0.5;" width="216.0972" x="232.16" y="284.2679"/><text fill="#000000" font-family="'Inter, Helvetica, sans-serif'" font-size="14" lengthAdjust="spacing" textLength="196.0972" x="242.16" y="309.2339">vinary.input.keymaps-registry</text><text fill="#000000" font-family="'Inter, Helvetica, sans-serif'" font-size="14" lengthAdjust="spacing" textLength="153.8174" x="242.16" y="328.3018">app-db registry helpers</text></g><!--entity CMD--><g class="entity" data-qualified-name="CMD" data-source-line="12" id="ent0007"><rect fill="#4F97D7" height="58.1358" rx="4" ry="4" style="stroke:#181818;stroke-width:0.5;" width="165.9214" x="941.25" y="421.4079"/><text fill="#000000" font-family="'Inter, Helvetica, sans-serif'" font-size="14" lengthAdjust="spacing" textLength="145.9214" x="951.25" y="446.3739">vinary.app.commands</text><text fill="#000000" font-family="'Inter, Helvetica, sans-serif'" font-size="14" lengthAdjust="spacing" textLength="120.7076" x="951.25" y="465.4418">command registry</text></g><!--entity PAL--><g class="entity" data-qualified-name="PAL" data-source-line="13" id="ent0008"><rect fill="#2D9574" height="58.1358" rx="4" ry="4" style="stroke:#181818;stroke-width:0.5;" width="161.2455" x="1030.59" y="284.2679"/><text fill="#000000" font-family="'Inter, Helvetica, sans-serif'" font-size="14" lengthAdjust="spacing" textLength="105.8956" x="1040.59" y="309.2339">vinary.ui.palette</text><text fill="#000000" font-family="'Inter, Helvetica, sans-serif'" font-size="14" lengthAdjust="spacing" textLength="141.2455" x="1040.59" y="328.3018">command/file palette</text></g><!--entity EDIT--><g class="entity" data-qualified-name="EDIT" data-source-line="14" id="ent0009"><rect fill="#2D9574" height="58.1358" rx="4" ry="4" style="stroke:#181818;stroke-width:0.5;" width="203.4273" x="238.5" y="147.1379"/><text fill="#000000" font-family="'Inter, Helvetica, sans-serif'" font-size="14" lengthAdjust="spacing" textLength="183.4273" x="248.5" y="172.1039">vinary.ui.keybindings-editor</text><text fill="#000000" font-family="'Inter, Helvetica, sans-serif'" font-size="14" lengthAdjust="spacing" textLength="166.2494" x="248.5" y="191.1718">visual editor + undo/redo</text></g><!--entity CONFIG--><g class="entity" data-qualified-name="CONFIG" data-source-line="15" id="ent0010"><rect fill="#3A5BA0" height="58.1358" rx="4" ry="4" style="stroke:#181818;stroke-width:0.5;" width="206.1853" x="498.12" y="147.1379"/><text fill="#000000" font-family="'Inter, Helvetica, sans-serif'" font-size="14" lengthAdjust="spacing" textLength="121.7435" x="508.12" y="172.1039">vinary.main.config</text><text fill="#000000" font-family="'Inter, Helvetica, sans-serif'" font-size="14" lengthAdjust="spacing" textLength="186.1853" x="508.12" y="191.1718">keybindings.edn watch/save</text></g><!--entity EDN--><g class="entity" data-qualified-name="EDN" data-source-line="16" id="ent0011"><path d="M482.86,299.3079 C482.86,289.3079 621.2115,289.3079 621.2115,289.3079 C621.2115,289.3079 759.5629,289.3079 759.5629,299.3079 L759.5629,327.3758 C759.5629,337.3758 621.2115,337.3758 621.2115,337.3758 C621.2115,337.3758 482.86,337.3758 482.86,327.3758 L482.86,299.3079" fill="#9F8766" style="stroke:#181818;stroke-width:0.5;"/><path d="M482.86,299.3079 C482.86,309.3079 621.2115,309.3079 621.2115,309.3079 C621.2115,309.3079 759.5629,309.3079 759.5629,299.3079" fill="none" style="stroke:#181818;stroke-width:0.5;"/><text fill="#000000" font-family="'Inter, Helvetica, sans-serif'" font-size="14" lengthAdjust="spacing" textLength="256.7029" x="492.86" y="328.2739">/.config/vinary-viewer/keybindings.edn</text></g><!--entity RF--><g class="entity" data-qualified-name="RF" data-source-line="17" id="ent0012"><rect fill="#4F97D7" height="39.0679" rx="4" ry="4" style="stroke:#181818;stroke-width:0.5;" width="186.1934" x="931.11" y="558.5379"/><text fill="#000000" font-family="'Inter, Helvetica, sans-serif'" font-size="14" lengthAdjust="spacing" textLength="166.1934" x="941.11" y="583.5039">re-frame dispatch/effects</text></g><g class="entity" data-qualified-name="GMN24" data-source-line="32" id="ent0025"><path d="M787.03,662.6079 L787.03,717.726 A4,4 0 0 0 791.03,721.726 L1257.3923,721.726 A4,4 0 0 0 1261.3923,717.726 L1261.3923,668.6079 L1251.3923,658.6079 L1028.21,658.6079 L1024.21,597.7479 L1020.21,658.6079 L791.03,658.6079 A4,4 0 0 0 787.03,662.6079" fill="#FFF6D6" style="stroke:#7F6B14;stroke-width:0.5;"/><path d="M1251.3923,658.6079 L1251.3923,666.6079 A2,2 0 0 0 1253.3923,668.6079 L1261.3923,668.6079 L1251.3923,658.6079" fill="#FFF6D6" style="stroke:#7F6B14;stroke-width:0.5;"/><text fill="#000000" font-family="'Inter, Helvetica, sans-serif'" font-size="13" lengthAdjust="spacing" textLength="423.4623" x="793.03" y="677.5049">The system is available now: built-in sets, custom sets, persisted EDN,</text><text fill="#000000" font-family="'Inter, Helvetica, sans-serif'" font-size="13" lengthAdjust="spacing" textLength="453.3623" x="793.03" y="695.2109">modal/chord resolver, command palette, visual editor, and live installation</text><text fill="#000000" font-family="'Inter, Helvetica, sans-serif'" font-size="13" lengthAdjust="spacing" textLength="129.8831" x="793.03" y="712.917">of the active keymap.</text></g><!--link PRESETS to KM--><g class="link" data-entity-1="ent0005" data-entity-2="ent0004" data-link-type="dependency" data-source-line="19" id="lnk13"><path d="M132.96,342.8279 C151.01,358.5579 174.82,377.6279 198.21,391.4079 C218.29,403.2379 236.597,411.8776 258.107,420.6076" fill="none" id="PRESETS-to-KM" style="stroke:#555555;stroke-width:1.3;"/><polygon fill="#555555" points="262.74,422.4879,255.9049,415.397,258.107,420.6076,252.8964,422.8097,262.74,422.4879" style="stroke:#555555;stroke-width:1.3;stroke-linejoin:miter;stroke-miterlimit:10;"/><text fill="#000000" font-family="'Inter, Helvetica, sans-serif'" font-size="13" lengthAdjust="spacing" textLength="132.7951" x="199.21" y="387.3049">compile-time defaults</text></g><!--link CONFIG to EDN--><g class="link" data-entity-1="ent0010" data-entity-2="ent0011" data-link-type="dependency" data-source-line="20" id="lnk14"><path d="M605.4,205.5279 C609.07,230.2979 613.5975,260.8819 617.0275,284.0419" fill="none" id="CONFIG-to-EDN" style="stroke:#555555;stroke-width:1.3;"/><polygon fill="#555555" points="617.76,288.9879,620.3983,279.499,617.0275,284.0419,612.4846,280.671,617.76,288.9879" style="stroke:#555555;stroke-width:1.3;stroke-linejoin:miter;stroke-miterlimit:10;"/><text fill="#000000" font-family="'Inter, Helvetica, sans-serif'" font-size="13" lengthAdjust="spacing" textLength="105.1051" x="613.41" y="250.1649">read/write/watch</text></g><!--link CONFIG to REG--><g class="link" data-entity-1="ent0010" data-entity-2="ent0006" data-link-type="dependency" data-source-line="21" id="lnk15"><path d="M546.18,205.6979 C501.76,228.6979 444.0101,258.5989 399.6101,281.5889" fill="none" id="CONFIG-to-REG" style="stroke:#555555;stroke-width:1.3;"/><polygon fill="#555555" points="395.17,283.8879,405.0014,283.3017,399.6101,281.5889,401.3229,276.1976,395.17,283.8879" style="stroke:#555555;stroke-width:1.3;stroke-linejoin:miter;stroke-miterlimit:10;"/><text fill="#000000" font-family="'Inter, Helvetica, sans-serif'" font-size="13" lengthAdjust="spacing" textLength="65.039" x="487.34" y="250.1649">vv:keymap</text></g><!--link EDIT to REG--><g class="link" data-entity-1="ent0009" data-entity-2="ent0006" data-link-type="dependency" data-source-line="22" id="lnk16"><path d="M340.21,205.5279 C340.21,228.5979 340.21,255.9979 340.21,279.0479" fill="none" id="EDIT-to-REG" style="stroke:#555555;stroke-width:1.3;"/><polygon fill="#555555" points="340.21,284.0479,344.21,275.0479,340.21,279.0479,336.21,275.0479,340.21,284.0479" style="stroke:#555555;stroke-width:1.3;stroke-linejoin:miter;stroke-miterlimit:10;"/><text fill="#000000" font-family="'Inter, Helvetica, sans-serif'" font-size="13" lengthAdjust="spacing" textLength="99.8271" x="341.21" y="250.1649">edit custom sets</text></g><!--link PAL to CMD--><g class="link" data-entity-1="ent0008" data-entity-2="ent0007" data-link-type="dependency" data-source-line="23" id="lnk17"><path d="M1092.97,342.6679 C1078.12,365.7279 1059.9779,393.9247 1045.1279,416.9747" fill="none" id="PAL-to-CMD" style="stroke:#555555;stroke-width:1.3;"/><polygon fill="#555555" points="1042.42,421.1779,1050.6569,415.7785,1045.1279,416.9747,1043.9317,411.4458,1042.42,421.1779" style="stroke:#555555;stroke-width:1.3;stroke-linejoin:miter;stroke-miterlimit:10;"/><text fill="#000000" font-family="'Inter, Helvetica, sans-serif'" font-size="13" lengthAdjust="spacing" textLength="108.6801" x="1073.92" y="387.3049">choose command</text></g><!--link KD to KEYS--><g class="link" data-entity-1="ent0001" data-entity-2="ent0002" data-link-type="dependency" data-source-line="24" id="lnk18"><path d="M895.21,86.3479 C895.21,103.0779 895.21,122.8379 895.21,141.9779" fill="none" id="KD-to-KEYS" style="stroke:#555555;stroke-width:1.3;"/><polygon fill="#555555" points="895.21,146.9779,899.21,137.9779,895.21,141.9779,891.21,137.9779,895.21,146.9779" style="stroke:#555555;stroke-width:1.3;stroke-linejoin:miter;stroke-miterlimit:10;"/></g><!--link KEYS to RES--><g class="link" data-entity-1="ent0002" data-entity-2="ent0003" data-link-type="dependency" data-source-line="25" id="lnk19"><path d="M895.21,205.5279 C895.21,228.5979 895.21,255.9979 895.21,279.0479" fill="none" id="KEYS-to-RES" style="stroke:#555555;stroke-width:1.3;"/><polygon fill="#555555" points="895.21,284.0479,899.21,275.0479,895.21,279.0479,891.21,275.0479,895.21,284.0479" style="stroke:#555555;stroke-width:1.3;stroke-linejoin:miter;stroke-miterlimit:10;"/></g><!--link RES to KM--><g class="link" data-entity-1="ent0003" data-entity-2="ent0004" data-link-type="dependency" data-source-line="26" id="lnk20"><path d="M794.06,338.9679 C685.72,365.3479 521.018,405.4448 422.718,429.3848" fill="none" id="RES-to-KM" style="stroke:#555555;stroke-width:1.3;"/><polygon fill="#555555" points="417.86,430.5679,427.5509,432.3247,422.718,429.3848,425.6579,424.5519,417.86,430.5679" style="stroke:#555555;stroke-width:1.3;stroke-linejoin:miter;stroke-miterlimit:10;"/><text fill="#000000" font-family="'Inter, Helvetica, sans-serif'" font-size="13" lengthAdjust="spacing" textLength="98.5271" x="651.94" y="387.3049">read modes/trie</text></g><!--link RES to CMD--><g class="link" data-entity-1="ent0003" data-entity-2="ent0007" data-link-type="dependency" data-source-line="27" id="lnk21"><path d="M899.65,342.7979 C903.29,358.5179 909.78,377.5879 921.21,391.4079 C930.96,403.1879 939.484,410.4365 952.734,418.4665" fill="none" id="RES-to-CMD" style="stroke:#555555;stroke-width:1.3;"/><polygon fill="#555555" points="957.01,421.0579,951.3863,412.9725,952.734,418.4665,947.24,419.8142,957.01,421.0579" style="stroke:#555555;stroke-width:1.3;stroke-linejoin:miter;stroke-miterlimit:10;"/><text fill="#000000" font-family="'Inter, Helvetica, sans-serif'" font-size="13" lengthAdjust="spacing" textLength="131.9241" x="922.21" y="387.3049">resolved command id</text></g><!--link REG to KM--><g class="link" data-entity-1="ent0006" data-entity-2="ent0004" data-link-type="dependency" data-source-line="28" id="lnk22"><path d="M340.21,342.6679 C340.21,365.7279 340.21,393.1279 340.21,416.1779" fill="none" id="REG-to-KM" style="stroke:#555555;stroke-width:1.3;"/><polygon fill="#555555" points="340.21,421.1779,344.21,412.1779,340.21,416.1779,336.21,412.1779,340.21,421.1779" style="stroke:#555555;stroke-width:1.3;stroke-linejoin:miter;stroke-miterlimit:10;"/><text fill="#000000" font-family="'Inter, Helvetica, sans-serif'" font-size="13" lengthAdjust="spacing" textLength="96.8371" x="341.21" y="387.3049">install active set</text></g><!--link CMD to RF--><g class="link" data-entity-1="ent0007" data-entity-2="ent0012" data-link-type="dependency" data-source-line="29" id="lnk23"><path d="M1024.21,479.9779 C1024.21,503.8579 1024.21,532.2979 1024.21,553.0479" fill="none" id="CMD-to-RF" style="stroke:#555555;stroke-width:1.3;"/><polygon fill="#555555" points="1024.21,558.0479,1028.21,549.0479,1024.21,553.0479,1020.21,549.0479,1024.21,558.0479" style="stroke:#555555;stroke-width:1.3;stroke-linejoin:miter;stroke-miterlimit:10;"/><text fill="#000000" font-family="'Inter, Helvetica, sans-serif'" font-size="13" lengthAdjust="spacing" textLength="116.9481" x="1025.21" y="524.4349">dispatch command</text></g><g class="legend" data-source-line="37"><rect fill="none" height="147.4754" rx="4" ry="4" style="stroke:#000000;stroke-width:1;" width="265.793" x="991.5993" y="742.726"/><text fill="#000000" font-family="'Inter, Helvetica, sans-serif'" font-size="14" font-weight="700" lengthAdjust="spacing" textLength="35.1539" x="1000.2393" y="764.6919">color</text><text fill="#000000" font-family="'Inter, Helvetica, sans-serif'" font-size="14" font-weight="700" lengthAdjust="spacing" textLength="55.5798" x="1042.6731" y="764.6919">concept</text><rect fill="#2D9574" height="19.0679" style="stroke:none;stroke-width:1;" width="42.4338" x="996.5993" y="768.7939"/><text fill="#000000" font-family="'Inter, Helvetica, sans-serif'" font-size="14" lengthAdjust="spacing" textLength="3.64" x="996.5993" y="783.7598">&#160;</text><text fill="#000000" font-family="'Inter, Helvetica, sans-serif'" font-size="14" lengthAdjust="spacing" textLength="116.7036" x="1042.6731" y="783.7598">renderer UI/input</text><rect fill="#7590DB" height="19.0679" style="stroke:none;stroke-width:1;" width="42.4338" x="996.5993" y="787.8618"/><text fill="#000000" font-family="'Inter, Helvetica, sans-serif'" font-size="14" lengthAdjust="spacing" textLength="3.64" x="996.5993" y="802.8277">&#160;</text><text fill="#000000" font-family="'Inter, Helvetica, sans-serif'" font-size="14" lengthAdjust="spacing" textLength="137.2275" x="1042.6731" y="802.8277">app-db registry state</text><rect fill="#A45BAD" height="19.0679" style="stroke:none;stroke-width:1;" width="42.4338" x="996.5993" y="806.9297"/><text fill="#000000" font-family="'Inter, Helvetica, sans-serif'" font-size="14" lengthAdjust="spacing" textLength="3.64" x="996.5993" y="821.8957">&#160;</text><text fill="#000000" font-family="'Inter, Helvetica, sans-serif'" font-size="14" lengthAdjust="spacing" textLength="85.0777" x="1042.6731" y="821.8957">keymap data</text><rect fill="#4F97D7" height="19.0679" style="stroke:none;stroke-width:1;" width="42.4338" x="996.5993" y="825.9976"/><text fill="#000000" font-family="'Inter, Helvetica, sans-serif'" font-size="14" lengthAdjust="spacing" textLength="3.64" x="996.5993" y="840.9636">&#160;</text><text fill="#000000" font-family="'Inter, Helvetica, sans-serif'" font-size="14" lengthAdjust="spacing" textLength="206.0792" x="1042.6731" y="840.9636">re-frame command/effect layer</text><rect fill="#3A5BA0" height="19.0679" style="stroke:none;stroke-width:1;" width="42.4338" x="996.5993" y="845.0656"/><text fill="#000000" font-family="'Inter, Helvetica, sans-serif'" font-size="14" lengthAdjust="spacing" textLength="3.64" x="996.5993" y="860.0315">&#160;</text><text fill="#000000" font-family="'Inter, Helvetica, sans-serif'" font-size="14" lengthAdjust="spacing" textLength="181.6213" x="1042.6731" y="860.0315">main process config service</text><rect fill="#9F8766" height="19.0679" style="stroke:none;stroke-width:1;" width="42.4338" x="996.5993" y="864.1335"/><text fill="#000000" font-family="'Inter, Helvetica, sans-serif'" font-size="14" lengthAdjust="spacing" textLength="3.64" x="996.5993" y="879.0994">&#160;</text><text fill="#000000" font-family="'Inter, Helvetica, sans-serif'" font-size="14" lengthAdjust="spacing" textLength="97.1316" x="1042.6731" y="879.0994">user config file</text><line style="stroke:#000000;stroke-width:1;" x1="996.5993" x2="1252.3923" y1="749.726" y2="749.726"/><line style="stroke:#000000;stroke-width:1;" x1="996.5993" x2="1252.3923" y1="768.7939" y2="768.7939"/><line style="stroke:#000000;stroke-width:1;" x1="996.5993" x2="1252.3923" y1="787.8618" y2="787.8618"/><line style="stroke:#000000;stroke-width:1;" x1="996.5993" x2="1252.3923" y1="806.9297" y2="806.9297"/><line style="stroke:#000000;stroke-width:1;" x1="996.5993" x2="1252.3923" y1="825.9976" y2="825.9976"/><line style="stroke:#000000;stroke-width:1;" x1="996.5993" x2="1252.3923" y1="845.0656" y2="845.0656"/><line style="stroke:#000000;stroke-width:1;" x1="996.5993" x2="1252.3923" y1="864.1335" y2="864.1335"/><line style="stroke:#000000;stroke-width:1;" x1="996.5993" x2="1252.3923" y1="883.2014" y2="883.2014"/><line style="stroke:#000000;stroke-width:1;" x1="996.5993" x2="996.5993" y1="749.726" y2="883.2014"/><line style="stroke:#000000;stroke-width:1;" x1="1039.0331" x2="1039.0331" y1="749.726" y2="883.2014"/><line style="stroke:#000000;stroke-width:1;" x1="1252.3923" x2="1252.3923" y1="749.726" y2="883.2014"/></g><?plantuml-src ZLNjRjis5FtFfxXjVXJeBAjOatenjW9fR0z1btQOim4330oqU6qJeqY1f6GO28O-H9-mJz9xHKbsWg3T7ziIppqyz-DSltW1rxNtQ2CKTOYkpFx5mrfRfUqMf2zsEc8HQuzZyKpRmjGAuP-coU8EInphkZH2H1qD4Ws7mp4ym9TFdw5mPIcj0ezR7Q8_ZA2I1cF44RqApZJeHu1AHqVV5Vf0ABG52k7fOcctHFryzl6MYPNRs-SW0xoVmTcFiykBoVafgj5M-iDOswgEOuA7bNrFQfpqQjvmXjbRAAHrLXVIGB5pNYMs-T_Bx_BrObUsT4gQl0s746L4A2NLoM9BziTy-N-qbR9QMLb4tI2aHv1KlgJd5iwkpY_UNSrE6LX0xGiCUSA7_EKObLtP9I4KvGWv_ALB-foJdj0o_KvgvdVBf-YU41IolaaahQeojHww1Ziqt9mknL_XR79n-MhsxWb6YXntJQS6F6v_It1zI_qxNrnEPfCd26ezxaPa2CytcW3TsvJPrM_VA3DHdCnXbiPhPHiTQkfyUeGVeBRAvHwLQoddivkxRt2MKbjAp6xqTcLFsBa9i9UnsEL1DadTzSSFYnigqkihAliheMIKQnc8wx-yeyWJQzPetAFF7_5rUZx0sUNYfycRDm_d8DjuMI8e7QhsMjniwBZhpMAehEYxdz7SqqnDsOiL5JABciDn8siJW-Z4Cegld5AlfChtdfoVjtcT8hZtKsYQQHePqHRjUC2bxHO912HoxXCVSykdx3b7PUYwAiZ6hJRodsXDc8YMWaqqg6OvGAQZoOzUut2OA3jVgc7HQ2LOon2kBPdK6EZCHge4HxPNBUYyB-EWIbX7dbwxI4a8WBiT1HreAPMW0yX6QYFNr0ZhzbDOrzh4JDissT5fviTbfhYi8s8wNHp7tTVh7jRYWoaT0PyPLjub8gDsbjZS1cW9muCTCXP8QDOlXC4jFtYztKM2t_z2DnaQ-_O7BTWgmZs_Xv-xcNzBl-cFGA573t_UvErg6339xunvl1hI3knnQTCmhbjhFFp3QHhDT5Ctnht5qnI3aGUwliSd0p6UxGULTxG00oGFKPrzeulZtSaiZAxfg4Urk-EUAvDAyXK0?></g></svg>