<svg xmlns="http://www.w3.org/2000/svg" xmlns:xlink="http://www.w3.org/1999/xlink" contentStyleType="text/css" data-diagram-type="DESCRIPTION" height="848px" preserveAspectRatio="none" style="width:1063px;height:848px;background:#FBF8EF;" version="1.1" viewBox="0 0 1063 848" width="1063px" zoomAndPan="magnify"><?plantuml $version$?><defs/><g><rect fill="#FBF8EF" height="848" style="stroke:none;stroke-width:1;" width="1063" x="0" y="0"/><g class="title" data-source-line="6"><text fill="#000000" font-family="'Inter, Helvetica, sans-serif'" font-size="14" font-weight="700" lengthAdjust="spacing" textLength="604.9238" x="225.5381" y="24.9659">Terminal previewer &#8212; vv-cli / vv-tui as a second renderer over the IR + streaming spine</text></g><!--cluster Shared spine (identical to the GUI)--><g class="cluster" data-qualified-name="Shared spine .identical to the GUI." data-source-line="8" id="ent0001"><path d="M10,174.8099 L246.9371,174.8099 A6,6 0 0 1 250.9371,178.8099 L257.9371,199.8778 L367,199.8778 A4,4 0 0 1 371,203.8778 L371,421.0799 A4,4 0 0 1 367,425.0799 L10,425.0799 A4,4 0 0 1 6,421.0799 L6,178.8099 A4,4 0 0 1 10,174.8099" fill="none" style="stroke:#888888;stroke-width:1.5;"/><line style="stroke:#888888;stroke-width:1.5;" x1="6" x2="257.9371" y1="199.8778" y2="199.8778"/><text fill="#1A1A1A" font-family="'Inter, Helvetica, sans-serif'" font-size="14" font-weight="700" lengthAdjust="spacing" textLength="238.9371" x="10" y="191.7758">Shared spine (identical to the GUI)</text></g><!--cluster Terminal support (vinary.terminal.*)--><g class="cluster" data-qualified-name="Terminal support .vinary.terminal..." data-source-line="14" id="ent0005"><path d="M399,46.6699 L650.4271,46.6699 A6,6 0 0 1 654.4271,50.6699 L661.4271,71.7378 L1044,71.7378 A4,4 0 0 1 1048,75.7378 L1048,292.9399 A4,4 0 0 1 1044,296.9399 L399,296.9399 A4,4 0 0 1 395,292.9399 L395,50.6699 A4,4 0 0 1 399,46.6699" fill="none" style="stroke:#888888;stroke-width:1.5;"/><line style="stroke:#888888;stroke-width:1.5;" x1="395" x2="661.4271" y1="71.7378" y2="71.7378"/><text fill="#1A1A1A" font-family="'Inter, Helvetica, sans-serif'" font-size="14" font-weight="700" lengthAdjust="spacing" textLength="253.4271" x="399" y="63.6358">Terminal support (vinary.terminal.*)</text></g><!--cluster cli  (vv - -cli, one-shot)--><g class="cluster" data-qualified-name="cli  .vv --cli. one-shot." data-source-line="21" id="ent0010"><path d="M448,449.0799 L591.7954,449.0799 A6,6 0 0 1 595.7954,453.0799 L602.7954,474.1478 L666,474.1478 A4,4 0 0 1 670,478.1478 L670,567.2099 A4,4 0 0 1 666,571.2099 L448,571.2099 A4,4 0 0 1 444,567.2099 L444,453.0799 A4,4 0 0 1 448,449.0799" fill="none" style="stroke:#888888;stroke-width:1.5;"/><line style="stroke:#888888;stroke-width:1.5;" x1="444" x2="602.7954" y1="474.1478" y2="474.1478"/><text fill="#1A1A1A" font-family="'Inter, Helvetica, sans-serif'" font-size="14" font-weight="700" lengthAdjust="spacing" textLength="145.7954" x="448" y="466.0458">cli  (vv --cli, one-shot)</text></g><!--cluster tui  (vv - -tui, interactive)--><g class="cluster" data-qualified-name="tui  .vv --tui. interactive." data-source-line="25" id="ent0012"><path d="M169,449.0799 L334.9154,449.0799 A6,6 0 0 1 338.9154,453.0799 L345.9154,474.1478 L409,474.1478 A4,4 0 0 1 413,478.1478 L413,695.3499 A4,4 0 0 1 409,699.3499 L169,699.3499 A4,4 0 0 1 165,695.3499 L165,453.0799 A4,4 0 0 1 169,449.0799" fill="none" style="stroke:#888888;stroke-width:1.5;"/><line style="stroke:#888888;stroke-width:1.5;" x1="165" x2="345.9154" y1="474.1478" y2="474.1478"/><text fill="#1A1A1A" font-family="'Inter, Helvetica, sans-serif'" font-size="14" font-weight="700" lengthAdjust="spacing" textLength="167.9154" x="169" y="466.0458">tui  (vv --tui, interactive)</text></g><!--entity IR--><g class="entity" data-qualified-name="Shared spine .identical to the GUI..IR" data-source-line="9" id="ent0002"><rect fill="#F1D6BE" height="68.1358" rx="4" ry="4" style="stroke:#4A4A4A;stroke-width:1.4;" width="148.0936" x="21.95" y="212.8099"/><rect fill="#F1D6BE" height="10" style="stroke:#4A4A4A;stroke-width:1.4;" width="15" x="150.0436" y="217.8099"/><rect fill="#F1D6BE" height="2" style="stroke:#4A4A4A;stroke-width:1.4;" width="4" x="148.0436" y="219.8099"/><rect fill="#F1D6BE" height="2" style="stroke:#4A4A4A;stroke-width:1.4;" width="4" x="148.0436" y="223.8099"/><text fill="#1A1A1A" font-family="'Inter, Helvetica, sans-serif'" font-size="14" lengthAdjust="spacing" textLength="108.0936" x="36.95" y="247.7758">common IR core</text><text fill="#1A1A1A" font-family="'Inter, Helvetica, sans-serif'" font-size="14" lengthAdjust="spacing" textLength="73.1637" x="36.95" y="266.8438">(vinary.ir.*)</text></g><!--entity Stream--><g class="entity" data-qualified-name="Shared spine .identical to the GUI..Stream" data-source-line="10" id="ent0003"><rect fill="#C7E8DE" height="68.1358" rx="4" ry="4" style="stroke:#4A4A4A;stroke-width:1.4;" width="150.1516" x="204.92" y="212.8099"/><rect fill="#C7E8DE" height="10" style="stroke:#4A4A4A;stroke-width:1.4;" width="15" x="335.0716" y="217.8099"/><rect fill="#C7E8DE" height="2" style="stroke:#4A4A4A;stroke-width:1.4;" width="4" x="333.0716" y="219.8099"/><rect fill="#C7E8DE" height="2" style="stroke:#4A4A4A;stroke-width:1.4;" width="4" x="333.0716" y="223.8099"/><text fill="#1A1A1A" font-family="'Inter, Helvetica, sans-serif'" font-size="14" lengthAdjust="spacing" textLength="67.2558" x="219.92" y="247.7758">streaming</text><text fill="#1A1A1A" font-family="'Inter, Helvetica, sans-serif'" font-size="14" lengthAdjust="spacing" textLength="110.1516" x="219.92" y="266.8438">(vinary.stream.*)</text></g><!--entity Ansi--><g class="entity" data-qualified-name="Shared spine .identical to the GUI..Ansi" data-source-line="11" id="ent0004"><rect fill="#F1D6BE" height="68.1358" rx="4" ry="4" style="stroke:#4A4A4A;stroke-width:1.4;" width="134.3176" x="220.84" y="340.9399"/><rect fill="#F1D6BE" height="10" style="stroke:#4A4A4A;stroke-width:1.4;" width="15" x="335.1576" y="345.9399"/><rect fill="#F1D6BE" height="2" style="stroke:#4A4A4A;stroke-width:1.4;" width="4" x="333.1576" y="347.9399"/><rect fill="#F1D6BE" height="2" style="stroke:#4A4A4A;stroke-width:1.4;" width="4" x="333.1576" y="351.9399"/><text fill="#1A1A1A" font-family="'Inter, Helvetica, sans-serif'" font-size="14" lengthAdjust="spacing" textLength="86.3937" x="235.84" y="375.9058">backend.ansi</text><text fill="#1A1A1A" font-family="'Inter, Helvetica, sans-serif'" font-size="14" lengthAdjust="spacing" textLength="94.3176" x="235.84" y="394.9738">IR -&gt; ANSI text</text></g><!--entity Caps--><g class="entity" data-qualified-name="Terminal support .vinary.terminal....Caps" data-source-line="15" id="ent0006"><rect fill="#F1D6BE" height="68.1358" rx="4" ry="4" style="stroke:#4A4A4A;stroke-width:1.4;" width="227.8513" x="804.07" y="84.6699"/><rect fill="#F1D6BE" height="10" style="stroke:#4A4A4A;stroke-width:1.4;" width="15" x="1011.9213" y="89.6699"/><rect fill="#F1D6BE" height="2" style="stroke:#4A4A4A;stroke-width:1.4;" width="4" x="1009.9213" y="91.6699"/><rect fill="#F1D6BE" height="2" style="stroke:#4A4A4A;stroke-width:1.4;" width="4" x="1009.9213" y="95.6699"/><text fill="#1A1A1A" font-family="'Inter, Helvetica, sans-serif'" font-size="14" lengthAdjust="spacing" textLength="29.8899" x="819.07" y="119.6358">caps</text><text fill="#1A1A1A" font-family="'Inter, Helvetica, sans-serif'" font-size="14" lengthAdjust="spacing" textLength="187.8513" x="819.07" y="138.7038">detect kitty / sixel / truecolor</text></g><!--entity Gfx--><g class="entity" data-qualified-name="Terminal support .vinary.terminal....Gfx" data-source-line="16" id="ent0007"><rect fill="#F1D6BE" height="68.1358" rx="4" ry="4" style="stroke:#4A4A4A;stroke-width:1.4;" width="206.6413" x="460.68" y="212.8099"/><rect fill="#F1D6BE" height="10" style="stroke:#4A4A4A;stroke-width:1.4;" width="15" x="647.3213" y="217.8099"/><rect fill="#F1D6BE" height="2" style="stroke:#4A4A4A;stroke-width:1.4;" width="4" x="645.3213" y="219.8099"/><rect fill="#F1D6BE" height="2" style="stroke:#4A4A4A;stroke-width:1.4;" width="4" x="645.3213" y="223.8099"/><text fill="#1A1A1A" font-family="'Inter, Helvetica, sans-serif'" font-size="14" lengthAdjust="spacing" textLength="56.5458" x="475.68" y="247.7758">graphics</text><text fill="#1A1A1A" font-family="'Inter, Helvetica, sans-serif'" font-size="14" lengthAdjust="spacing" textLength="166.6413" x="475.68" y="266.8438">kitty / sixel image encode</text></g><!--entity Pdf--><g class="entity" data-qualified-name="Terminal support .vinary.terminal....Pdf" data-source-line="17" id="ent0008"><rect fill="#C7E8DE" height="68.1358" rx="4" ry="4" style="stroke:#4A4A4A;stroke-width:1.4;" width="182.8974" x="410.55" y="84.6699"/><rect fill="#C7E8DE" height="10" style="stroke:#4A4A4A;stroke-width:1.4;" width="15" x="573.4474" y="89.6699"/><rect fill="#C7E8DE" height="2" style="stroke:#4A4A4A;stroke-width:1.4;" width="4" x="571.4474" y="91.6699"/><rect fill="#C7E8DE" height="2" style="stroke:#4A4A4A;stroke-width:1.4;" width="4" x="571.4474" y="95.6699"/><text fill="#1A1A1A" font-family="'Inter, Helvetica, sans-serif'" font-size="14" lengthAdjust="spacing" textLength="22.0359" x="425.55" y="119.6358">pdf</text><text fill="#1A1A1A" font-family="'Inter, Helvetica, sans-serif'" font-size="14" lengthAdjust="spacing" textLength="142.8974" x="425.55" y="138.7038">headless pdf.js reflow</text></g><!--entity Syn--><g class="entity" data-qualified-name="Terminal support .vinary.terminal....Syn" data-source-line="18" id="ent0009"><rect fill="#F1D6BE" height="49.0679" rx="4" ry="4" style="stroke:#4A4A4A;stroke-width:1.4;" width="140.2256" x="628.89" y="94.1999"/><rect fill="#F1D6BE" height="10" style="stroke:#4A4A4A;stroke-width:1.4;" width="15" x="749.1156" y="99.1999"/><rect fill="#F1D6BE" height="2" style="stroke:#4A4A4A;stroke-width:1.4;" width="4" x="747.1156" y="101.1999"/><rect fill="#F1D6BE" height="2" style="stroke:#4A4A4A;stroke-width:1.4;" width="4" x="747.1156" y="105.1999"/><text fill="#1A1A1A" font-family="'Inter, Helvetica, sans-serif'" font-size="14" lengthAdjust="spacing" textLength="100.2256" x="643.89" y="129.1658">syntax &#183; stream</text></g><!--entity Cli--><g class="entity" data-qualified-name="cli  .vv --cli. one-shot..Cli" data-source-line="22" id="ent0011"><rect fill="#E4E8F1" height="68.1358" rx="4" ry="4" style="stroke:#4A4A4A;stroke-width:1.4;" width="194.0974" x="459.95" y="487.0799"/><rect fill="#E4E8F1" height="10" style="stroke:#4A4A4A;stroke-width:1.4;" width="15" x="634.0474" y="492.0799"/><rect fill="#E4E8F1" height="2" style="stroke:#4A4A4A;stroke-width:1.4;" width="4" x="632.0474" y="494.0799"/><rect fill="#E4E8F1" height="2" style="stroke:#4A4A4A;stroke-width:1.4;" width="4" x="632.0474" y="498.0799"/><text fill="#1A1A1A" font-family="'Inter, Helvetica, sans-serif'" font-size="14" lengthAdjust="spacing" textLength="121.3655" x="474.95" y="522.0458">cli.core / cli.render</text><text fill="#1A1A1A" font-family="'Inter, Helvetica, sans-serif'" font-size="14" lengthAdjust="spacing" textLength="154.0974" x="474.95" y="541.1138">-&gt; stdout (pipe-friendly)</text></g><!--entity TCore--><g class="entity" data-qualified-name="tui  .vv --tui. interactive..TCore" data-source-line="26" id="ent0013"><rect fill="#E4E8F1" height="68.1358" rx="4" ry="4" style="stroke:#4A4A4A;stroke-width:1.4;" width="181.3855" x="198.31" y="487.0799"/><rect fill="#E4E8F1" height="10" style="stroke:#4A4A4A;stroke-width:1.4;" width="15" x="359.6955" y="492.0799"/><rect fill="#E4E8F1" height="2" style="stroke:#4A4A4A;stroke-width:1.4;" width="4" x="357.6955" y="494.0799"/><rect fill="#E4E8F1" height="2" style="stroke:#4A4A4A;stroke-width:1.4;" width="4" x="357.6955" y="498.0799"/><text fill="#1A1A1A" font-family="'Inter, Helvetica, sans-serif'" font-size="14" lengthAdjust="spacing" textLength="94.2476" x="213.31" y="522.0458">tui.core / term</text><text fill="#1A1A1A" font-family="'Inter, Helvetica, sans-serif'" font-size="14" lengthAdjust="spacing" textLength="141.3855" x="213.31" y="541.1138">keys &#183; state &#183; viewport</text></g><!--entity TFind--><g class="entity" data-qualified-name="tui  .vv --tui. interactive..TFind" data-source-line="27" id="ent0014"><rect fill="#C9D2E6" height="68.1358" rx="4" ry="4" style="stroke:#4A4A4A;stroke-width:1.4;" width="216.2173" x="180.89" y="615.2099"/><rect fill="#C9D2E6" height="10" style="stroke:#4A4A4A;stroke-width:1.4;" width="15" x="377.1073" y="620.2099"/><rect fill="#C9D2E6" height="2" style="stroke:#4A4A4A;stroke-width:1.4;" width="4" x="375.1073" y="622.2099"/><rect fill="#C9D2E6" height="2" style="stroke:#4A4A4A;stroke-width:1.4;" width="4" x="375.1073" y="626.2099"/><text fill="#1A1A1A" font-family="'Inter, Helvetica, sans-serif'" font-size="14" lengthAdjust="spacing" textLength="99.1056" x="195.89" y="650.1758">tui.find &#183; tui.toc</text><text fill="#1A1A1A" font-family="'Inter, Helvetica, sans-serif'" font-size="14" lengthAdjust="spacing" textLength="176.2173" x="195.89" y="669.2438">(pure core + `--drive` seam)</text></g><g class="entity" data-qualified-name="GMN25" data-source-line="41" id="ent0026"><path d="M435.42,630.5799 L435.42,667.9919 A4,4 0 0 0 439.42,671.9919 L674.5772,671.9919 A4,4 0 0 0 678.5772,667.9919 L678.5772,636.5799 L668.5772,626.5799 L561,626.5799 L557,555.6199 L553,626.5799 L439.42,626.5799 A4,4 0 0 0 435.42,630.5799" fill="#FFF6D6" style="stroke:#7F6B14;stroke-width:0.5;"/><path d="M668.5772,626.5799 L668.5772,634.5799 A2,2 0 0 0 670.5772,636.5799 L678.5772,636.5799 L668.5772,626.5799" fill="#FFF6D6" style="stroke:#7F6B14;stroke-width:0.5;"/><text fill="#000000" font-family="'Inter, Helvetica, sans-serif'" font-size="13" lengthAdjust="spacing" textLength="222.1572" x="441.42" y="645.4769">the GUI (Chromium) is untouched &#8212;</text><text fill="#000000" font-family="'Inter, Helvetica, sans-serif'" font-size="13" lengthAdjust="spacing" textLength="208.6112" x="441.42" y="663.1829">both surfaces render the SAME IR.</text></g><!--link IR to Ansi--><g class="link" data-entity-1="ent0002" data-entity-2="ent0004" data-link-type="dependency" data-source-line="30" id="lnk15"><path d="M146.95,281.3499 C174.83,299.6599 205.1012,319.5445 232.9712,337.8545" fill="none" id="IR-to-Ansi" style="stroke:#555555;stroke-width:1.3;"/><polygon fill="#555555" points="237.15,340.5999,231.8244,332.3151,232.9712,337.8545,227.4318,339.0012,237.15,340.5999" style="stroke:#555555;stroke-width:1.3;stroke-linejoin:miter;stroke-miterlimit:10;"/></g><!--link Stream to Ansi--><g class="link" data-entity-1="ent0003" data-entity-2="ent0004" data-link-type="dependency" data-source-line="31" id="lnk16"><path d="M282.12,281.3499 C283.29,299.7399 284.4146,317.4799 285.5746,335.8299" fill="none" id="Stream-to-Ansi" style="stroke:#555555;stroke-width:1.3;"/><polygon fill="#555555" points="285.89,340.8199,289.3142,331.5855,285.5746,335.8299,281.3302,332.0902,285.89,340.8199" style="stroke:#555555;stroke-width:1.3;stroke-linejoin:miter;stroke-miterlimit:10;"/></g><!--link Ansi to Cli--><g class="link" data-entity-1="ent0004" data-entity-2="ent0011" data-link-type="dependency" data-source-line="32" id="lnk17"><path d="M353.02,409.5099 C372.37,419.5699 393.58,430.6999 413,441.0799 C440.67,455.8699 466.7615,470.1355 492.5315,484.3455" fill="none" id="Ansi-to-Cli" style="stroke:#555555;stroke-width:1.3;"/><polygon fill="#555555" points="496.91,486.7599,490.9603,478.9113,492.5315,484.3455,487.0973,485.9168,496.91,486.7599" style="stroke:#555555;stroke-width:1.3;stroke-linejoin:miter;stroke-miterlimit:10;"/></g><!--link Ansi to TCore--><g class="link" data-entity-1="ent0004" data-entity-2="ent0013" data-link-type="dependency" data-source-line="33" id="lnk18"><path d="M288.23,409.4399 C288.39,432.6399 288.5755,458.43 288.7355,481.65" fill="none" id="Ansi-to-TCore" style="stroke:#555555;stroke-width:1.3;"/><polygon fill="#555555" points="288.77,486.6499,292.7079,477.6226,288.7355,481.65,284.7081,477.6777,288.77,486.6499" style="stroke:#555555;stroke-width:1.3;stroke-linejoin:miter;stroke-miterlimit:10;"/></g><!--link Caps to Gfx--><g class="link" data-entity-1="ent0006" data-entity-2="ent0007" data-link-type="dependency" data-source-line="34" id="lnk19"><path d="M824.06,153.2099 C772.75,171.4899 714.1099,192.3916 662.7799,210.6816" fill="none" id="Caps-to-Gfx" style="stroke:#555555;stroke-width:1.3;"/><polygon fill="#555555" points="658.07,212.3599,667.8905,213.107,662.7799,210.6816,665.2053,205.5711,658.07,212.3599" style="stroke:#555555;stroke-width:1.3;stroke-linejoin:miter;stroke-miterlimit:10;"/></g><!--link Gfx to Cli--><g class="link" data-entity-1="ent0007" data-entity-2="ent0011" data-link-type="dependency" data-source-line="35" id="lnk20"><path d="M563.14,281.2599 C561.79,333.6599 559.329,429.6116 557.979,481.9116" fill="none" id="Gfx-to-Cli" style="stroke:#555555;stroke-width:1.3;"/><polygon fill="#555555" points="557.85,486.9099,562.0809,478.0161,557.979,481.9116,554.0836,477.8097,557.85,486.9099" style="stroke:#555555;stroke-width:1.3;stroke-linejoin:miter;stroke-miterlimit:10;"/></g><!--link Gfx to TCore--><g class="link" data-entity-1="ent0007" data-entity-2="ent0013" data-link-type="dependency" data-source-line="36" id="lnk21"><path d="M530.28,281.2599 C477.36,333.6599 378.943,431.0919 326.123,483.3919" fill="none" id="Gfx-to-TCore" style="stroke:#555555;stroke-width:1.3;"/><polygon fill="#555555" points="322.57,486.9099,331.7798,483.4199,326.123,483.3919,326.151,477.7351,322.57,486.9099" style="stroke:#555555;stroke-width:1.3;stroke-linejoin:miter;stroke-miterlimit:10;"/></g><!--link Pdf to IR--><g class="link" data-entity-1="ent0008" data-entity-2="ent0002" data-link-type="dependency" data-source-line="37" id="lnk22"><path d="M410.24,127.7099 C331.81,135.5699 225.67,148.9899 187,166.8099 C163.81,177.4899 145.5977,192.4165 129.1777,208.8165" fill="none" id="Pdf-to-IR" style="stroke:#555555;stroke-width:1.3;"/><polygon fill="#555555" points="125.64,212.3499,134.8345,208.82,129.1777,208.8165,129.1811,203.1597,125.64,212.3499" style="stroke:#555555;stroke-width:1.3;stroke-linejoin:miter;stroke-miterlimit:10;"/></g><!--link Syn to Ansi--><g class="link" data-entity-1="ent0009" data-entity-2="ent0004" data-link-type="dependency" data-source-line="38" id="lnk23"><path d="M641.95,143.7699 C631.79,147.2999 621.19,150.5099 611,152.8099 C574.45,161.0299 474.08,145.8899 443,166.8099 C385.9,205.2399 416.21,251.3699 373,304.9399 C362.5,317.9699 353.065,327.0647 340.095,337.5047" fill="none" id="Syn-to-Ansi" style="stroke:#555555;stroke-width:1.3;"/><polygon fill="#555555" points="336.2,340.6399,345.7191,338.1125,340.095,337.5047,340.7028,331.8806,336.2,340.6399" style="stroke:#555555;stroke-width:1.3;stroke-linejoin:miter;stroke-miterlimit:10;"/></g><!--link TCore to TFind--><g class="link" data-entity-1="ent0013" data-entity-2="ent0014" data-link-type="dependency" data-source-line="39" id="lnk24"><path d="M289,555.6199 C289,574.0099 289,591.7399 289,610.0899" fill="none" id="TCore-to-TFind" style="stroke:#555555;stroke-width:1.3;"/><polygon fill="#555555" points="289,615.0899,293,606.0899,289,610.0899,285,606.0899,289,615.0899" style="stroke:#555555;stroke-width:1.3;stroke-linejoin:miter;stroke-miterlimit:10;"/></g><g class="legend" data-source-line="43"><rect fill="none" height="109.3396" rx="4" ry="4" style="stroke:#000000;stroke-width:1;" width="489.8201" x="554.1799" y="720.3499"/><text fill="#000000" font-family="'Inter, Helvetica, sans-serif'" font-size="14" font-weight="700" lengthAdjust="spacing" textLength="46.0178" x="562.8199" y="742.3158">Colour</text><text fill="#000000" font-family="'Inter, Helvetica, sans-serif'" font-size="14" font-weight="700" lengthAdjust="spacing" textLength="57.3438" x="616.1177" y="742.3158">Concept</text><rect fill="#E67E22" height="19.0679" style="stroke:none;stroke-width:1;" width="53.2978" x="559.1799" y="746.4178"/><text fill="#000000" font-family="'Inter, Helvetica, sans-serif'" font-size="14" lengthAdjust="spacing" textLength="14.5599" x="559.1799" y="761.3838">&#160;&#160;&#160;&#160;</text><text fill="#000000" font-family="'Inter, Helvetica, sans-serif'" font-size="14" lengthAdjust="spacing" textLength="277.9969" x="616.1177" y="761.3838">IR core / ANSI back-end / terminal support</text><rect fill="#2D9574" height="19.0679" style="stroke:none;stroke-width:1;" width="53.2978" x="559.1799" y="765.4857"/><text fill="#000000" font-family="'Inter, Helvetica, sans-serif'" font-size="14" lengthAdjust="spacing" textLength="14.5599" x="559.1799" y="780.4517">&#160;&#160;&#160;&#160;</text><text fill="#000000" font-family="'Inter, Helvetica, sans-serif'" font-size="14" lengthAdjust="spacing" textLength="208.5712" x="616.1177" y="780.4517">streaming / headless pdf reflow</text><rect fill="#3A5BA0" height="19.0679" style="stroke:none;stroke-width:1;" width="53.2978" x="559.1799" y="784.5536"/><text fill="#000000" font-family="'Inter, Helvetica, sans-serif'" font-size="14" lengthAdjust="spacing" textLength="14.5599" x="559.1799" y="799.5196">&#160;&#160;&#160;&#160;</text><text fill="#000000" font-family="'Inter, Helvetica, sans-serif'" font-size="14" lengthAdjust="spacing" textLength="137.5355" x="616.1177" y="799.5196">Node cli / tui process</text><line style="stroke:#000000;stroke-width:1;" x1="559.1799" x2="897.7546" y1="727.3499" y2="727.3499"/><line style="stroke:#000000;stroke-width:1;" x1="559.1799" x2="897.7546" y1="746.4178" y2="746.4178"/><line style="stroke:#000000;stroke-width:1;" x1="559.1799" x2="897.7546" y1="765.4857" y2="765.4857"/><line style="stroke:#000000;stroke-width:1;" x1="559.1799" x2="897.7546" y1="784.5536" y2="784.5536"/><line style="stroke:#000000;stroke-width:1;" x1="559.1799" x2="897.7546" y1="803.6216" y2="803.6216"/><line style="stroke:#000000;stroke-width:1;" x1="559.1799" x2="559.1799" y1="727.3499" y2="803.6216"/><line style="stroke:#000000;stroke-width:1;" x1="612.4777" x2="612.4777" y1="727.3499" y2="803.6216"/><line style="stroke:#000000;stroke-width:1;" x1="897.7546" x2="897.7546" y1="727.3499" y2="803.6216"/><text fill="#000000" font-family="'Inter, Helvetica, sans-serif'" font-size="14" lengthAdjust="spacing" textLength="479.8201" x="559.1799" y="820.5875">A single IR feeds two back-ends: HTML for the GUI, ANSI for the terminal.</text></g><?plantuml-src VLLTRjj647xdAQOsKDkjA2Tkuw1f7K2LfLI0hGQIyYR0MPD3SHjgbzXTIXRg03b4xzBt7gKdwRTBaOfgmI_IB7T-l_bczkI4tXT2kG-tDwHNREYMpLB8bEuv4PLbShcqP7EzjX1nnBLKeY1XIT1qqFzzV4s6LSe6nZONHgf5q1nDw7koph20mI8wEI5RIiMqbYuF2ky-ZEZVBt-HniT46-wGMskw5ycd6Fvik4kqIhXqSQ8BNHbEAJDw6QnBKR1pJAVQ2BLWkaB0yzvuEgh3T4B0GZX_CzOf38nEs5f4OQH_5PoqYHjTy5ctBJuHIcc7wne13eKXUXDK94PRIvbS82dRZRwHAYag1BbRhMBeBxahgsKHHKwwWcdMW5OQNabU8w0l3hf98UdS2wwIDQIMKNEwoomqvIcUTPLHL08kWVAFfdM6DSQdCcNbP8AGJZTWdntHdn41qcK9o9MZ8uXBhRndZ_zSdQwGfTbqfUb-1staWwlHv6us6i_sBTiyTaRrfyPm6auq6Ool1vF18HU-qIYoAvILSuL0yLiA_NFyu8AF7cxQy9-_ghN5qrPbgOsZ9eU6dI6B_nShIZi7g8uJHv-aSniWR-K35_XtfcBFCHC2zw5wkEw54MKk4pZQzo2NFZ5M2PWMNBpB7WvxADDihd8MQG4o4axTFoowdHLw7GpVfzbpgDcDSkA1_lbxIuKQx8qwY9Dd5x1PKUo9rl6J5cEKtG5m2jdr7411NgpPDrTeYNMfhe1mAKkECoDnKspg7lVX_hOt6jyDHpStUu4zcxU18NP8AdH694wk-6biQ3InVVy0BMziNQ4VNmX-PdoVGzHPt-lkuZxnbKdC3woyx7G2XfQOqa1nJD37E4uDylY8IHFBkf3Pq9i4bms6de-UaA1WjELoUmwyz2S0i3k4lA907Ny40I9FWaQlaMirtsL_6aqYtxpMTLrSqFCvHH7M4DEzTWvhJsS1ykFXS7XvVVccNQAd_HnR4GldZB2hA-LqbUJO1TWnSmNR77DYCe7jjrqhmNBQknqWVZUA2bwmNpboaJl0-NX5_R1kQoaiO7hq5xyS3ovV3ouktdvx_FBonSzFVn-RNO9UXbbkjlcsjtj3ktLvSVtJgzS_FkDoj_FEwUl1sKvDu-U7tgjVUo-UyHDUWNhXUdvktuDWtiCOgqKHbcp6ZCTdxobwGx_Dy3vcsZIOT-hocY_jtedyU0Gu_mC0?></g></svg>