<svg xmlns="http://www.w3.org/2000/svg" xmlns:xlink="http://www.w3.org/1999/xlink" contentStyleType="text/css" data-diagram-type="DESCRIPTION" height="916px" preserveAspectRatio="none" style="width:763px;height:916px;background:#FBF8EF;" version="1.1" viewBox="0 0 763 916" width="763px" zoomAndPan="magnify"><?plantuml $version$?><defs/><g><rect fill="#FBF8EF" height="916" style="stroke:none;stroke-width:1;" width="763" x="0" y="0"/><g class="title" data-source-line="11"><text fill="#000000" font-family="'Inter, Helvetica, sans-serif'" font-size="14" font-weight="700" lengthAdjust="spacing" textLength="673.7336" x="41.1332" y="24.9659">Grammar registry (Forthcoming / &#171;planned&#187;) &#8212; bundled + user grammars [Strategy/Interpreter]</text></g><!--cluster REG--><g class="cluster" data-qualified-name="REG" data-source-line="13" id="ent0001"><rect fill="#DDDDDD" height="209.34" rx="4" ry="4" style="stroke:#999999;stroke-width:1;stroke-dasharray:7,7;" width="319" x="55" y="321.3379"/><text fill="#000000" font-family="'Inter, Helvetica, sans-serif'" font-size="14" font-style="italic" lengthAdjust="spacing" textLength="64.3298" x="182.3351" y="338.3039">&#171;planned&#187;</text><text fill="#000000" font-family="'Inter, Helvetica, sans-serif'" font-size="14" font-weight="700" lengthAdjust="spacing" textLength="95.5076" x="166.7462" y="357.3718">registry atom</text><text fill="#000000" font-family="'Inter, Helvetica, sans-serif'" font-size="14" font-weight="700" lengthAdjust="spacing" textLength="180.5978" x="124.2011" y="376.4397">(name &#8594; grammar config)</text></g><!--cluster BUNDLED--><g class="cluster" data-qualified-name="BUNDLED" data-source-line="17" id="ent0003"><rect fill="#9F8766" height="179.27" rx="4" ry="4" style="stroke:#888888;stroke-width:1;" width="280" x="7" y="47.0679"/><text fill="#000000" font-family="'Inter, Helvetica, sans-serif'" font-size="14" font-weight="700" lengthAdjust="spacing" textLength="133.3775" x="80.3113" y="64.0339">bundled grammars</text><text fill="#000000" font-family="'Inter, Helvetica, sans-serif'" font-size="14" font-weight="700" lengthAdjust="spacing" textLength="101.4296" x="96.2852" y="83.1018">(compile-time)</text></g><!--cluster USER--><g class="cluster" data-qualified-name="USER" data-source-line="21" id="ent0005"><rect fill="#9F8766" height="179.27" rx="4" ry="4" style="stroke:#888888;stroke-width:1;" width="254" x="311" y="47.0679"/><text fill="#000000" font-family="'Inter, Helvetica, sans-serif'" font-size="14" font-weight="700" lengthAdjust="spacing" textLength="106.8476" x="384.5762" y="64.0339">user grammars</text><text fill="#000000" font-family="'Inter, Helvetica, sans-serif'" font-size="14" font-weight="700" lengthAdjust="spacing" textLength="238.6991" x="318.6504" y="83.1018">/.config/vinary-viewer/grammars/</text></g><!--cluster CONS--><g class="cluster" data-qualified-name="CONS" data-source-line="25" id="ent0007"><rect fill="#2D9574" height="160.27" rx="4" ry="4" style="stroke:#888888;stroke-width:1;" width="210" x="539" y="607.6779"/><text fill="#000000" font-family="'Inter, Helvetica, sans-serif'" font-size="14" font-weight="700" lengthAdjust="spacing" textLength="69.4677" x="609.2661" y="624.6439">consumer</text></g><!--entity ATOMBODY--><g class="entity" data-qualified-name="REG.ATOMBODY" data-source-line="14" id="ent0002"><rect fill="#F1F1F1" height="101.3396" rx="4" ry="4" style="stroke:#181818;stroke-width:0.5;" width="251.9231" x="79.04" y="405.3379"/><text fill="#000000" font-family="'Inter, Helvetica, sans-serif'" font-size="14" lengthAdjust="spacing" textLength="161.3914" x="89.04" y="423.3039">{ :rholang {&#8230;} :metta {&#8230;}</text><text fill="#000000" font-family="'Inter, Helvetica, sans-serif'" font-size="14" lengthAdjust="spacing" textLength="123.7175" x="96.32" y="442.3718">:markdown {&#8230;} &#8230; }</text><text fill="#000000" font-family="'Inter, Helvetica, sans-serif'" font-size="14" lengthAdjust="spacing" textLength="161.6714" x="89.04" y="461.4397">validated by clojure.spec</text><text fill="#000000" font-family="'Inter, Helvetica, sans-serif'" font-size="14" lengthAdjust="spacing" textLength="231.9231" x="89.04" y="480.5076">(:grammar/name :wasm :highlights</text><text fill="#000000" font-family="'Inter, Helvetica, sans-serif'" font-size="14" lengthAdjust="spacing" textLength="124.7955" x="92.68" y="499.5755">:extensions :scope)</text></g><!--entity EMBED--><g class="entity" data-qualified-name="BUNDLED.EMBED" data-source-line="18" id="ent0004"><rect fill="#DDDDDD" height="106.2717" rx="4" ry="4" style="stroke:#999999;stroke-width:1.4;stroke-dasharray:7,7;" width="247.2412" x="23.38" y="104.0679"/><rect fill="#DDDDDD" height="10" style="stroke:#999999;stroke-width:1.4;stroke-dasharray:7,7;" width="15" x="250.6212" y="109.0679"/><rect fill="#DDDDDD" height="2" style="stroke:#999999;stroke-width:1.4;stroke-dasharray:7,7;" width="4" x="248.6212" y="111.0679"/><rect fill="#DDDDDD" height="2" style="stroke:#999999;stroke-width:1.4;stroke-dasharray:7,7;" width="4" x="248.6212" y="115.0679"/><text fill="#555555" font-family="'Inter, Helvetica, sans-serif'" font-size="14" font-style="italic" lengthAdjust="spacing" textLength="64.3298" x="109.8357" y="139.0339">&#171;planned&#187;</text><text fill="#555555" font-family="'Inter, Helvetica, sans-serif'" font-size="14" lengthAdjust="spacing" textLength="97.6916" x="38.38" y="158.1018">embed-base64</text><text fill="#555555" font-family="'Inter, Helvetica, sans-serif'" font-size="14" lengthAdjust="spacing" textLength="207.2412" x="38.38" y="177.1697">&lt;name&gt;.wasm + highlights.scm</text><text fill="#555555" font-family="'Inter, Helvetica, sans-serif'" font-size="14" lengthAdjust="spacing" textLength="151.4219" x="38.38" y="196.2376">&#8594; inlined into the build</text></g><!--entity USERFILES--><g class="entity" data-qualified-name="USER.USERFILES" data-source-line="22" id="ent0006"><rect fill="#DDDDDD" height="106.2717" rx="4" ry="4" style="stroke:#999999;stroke-width:1.4;stroke-dasharray:7,7;" width="166.6715" x="326.66" y="104.0679"/><rect fill="#DDDDDD" height="10" style="stroke:#999999;stroke-width:1.4;stroke-dasharray:7,7;" width="15" x="473.3315" y="109.0679"/><rect fill="#DDDDDD" height="2" style="stroke:#999999;stroke-width:1.4;stroke-dasharray:7,7;" width="4" x="471.3315" y="111.0679"/><rect fill="#DDDDDD" height="2" style="stroke:#999999;stroke-width:1.4;stroke-dasharray:7,7;" width="4" x="471.3315" y="115.0679"/><text fill="#555555" font-family="'Inter, Helvetica, sans-serif'" font-size="14" font-style="italic" lengthAdjust="spacing" textLength="64.3298" x="372.8309" y="139.0339">&#171;planned&#187;</text><text fill="#555555" font-family="'Inter, Helvetica, sans-serif'" font-size="14" lengthAdjust="spacing" textLength="95.9136" x="341.66" y="158.1018">&lt;name&gt;.wasm</text><text fill="#555555" font-family="'Inter, Helvetica, sans-serif'" font-size="14" lengthAdjust="spacing" textLength="107.6876" x="341.66" y="177.1697">+ highlights.scm</text><text fill="#555555" font-family="'Inter, Helvetica, sans-serif'" font-size="14" lengthAdjust="spacing" textLength="126.6715" x="341.66" y="196.2376">+ config map (.edn)</text></g><!--entity RESOLVE--><g class="entity" data-qualified-name="CONS.RESOLVE" data-source-line="26" id="ent0008"><rect fill="#DDDDDD" height="106.2717" rx="4" ry="4" style="stroke:#999999;stroke-width:1.4;stroke-dasharray:7,7;" width="178.8094" x="554.6" y="645.6779"/><rect fill="#DDDDDD" height="10" style="stroke:#999999;stroke-width:1.4;stroke-dasharray:7,7;" width="15" x="713.4094" y="650.6779"/><rect fill="#DDDDDD" height="2" style="stroke:#999999;stroke-width:1.4;stroke-dasharray:7,7;" width="4" x="711.4094" y="652.6779"/><rect fill="#DDDDDD" height="2" style="stroke:#999999;stroke-width:1.4;stroke-dasharray:7,7;" width="4" x="711.4094" y="656.6779"/><text fill="#555555" font-family="'Inter, Helvetica, sans-serif'" font-size="14" font-style="italic" lengthAdjust="spacing" textLength="64.3298" x="606.8398" y="680.6439">&#171;planned&#187;</text><text fill="#555555" font-family="'Inter, Helvetica, sans-serif'" font-size="14" lengthAdjust="spacing" textLength="78.3577" x="569.6" y="699.7118">source-view</text><text fill="#555555" font-family="'Inter, Helvetica, sans-serif'" font-size="14" lengthAdjust="spacing" textLength="132.5655" x="569.6" y="718.7797">resolve grammar by</text><text fill="#555555" font-family="'Inter, Helvetica, sans-serif'" font-size="14" lengthAdjust="spacing" textLength="138.8094" x="569.6" y="737.8476">file extension / scope</text></g><g class="entity" data-qualified-name="GMN12" data-source-line="34" id="ent0013"><path d="M32.43,662.3979 L32.43,735.222 A4,4 0 0 0 36.43,739.222 L515.5714,739.222 A4,4 0 0 0 519.5714,735.222 L519.5714,668.3979 L509.5714,658.3979 L36.43,658.3979 A4,4 0 0 0 32.43,662.3979" fill="#FFF6D6" style="stroke:#7F6B14;stroke-width:0.5;"/><path d="M509.5714,658.3979 L509.5714,666.3979 A2,2 0 0 0 511.5714,668.3979 L519.5714,668.3979 L509.5714,658.3979" fill="#FFF6D6" style="stroke:#7F6B14;stroke-width:1;"/><text fill="#000000" font-family="'Inter, Helvetica, sans-serif'" font-size="13" lengthAdjust="spacing" textLength="8.307" x="38.43" y="677.2949">A</text><text fill="#000000" font-family="'Inter, Helvetica, sans-serif'" font-size="13" font-weight="700" lengthAdjust="spacing" textLength="28.548" x="50.117" y="677.2949">user</text><text fill="#000000" font-family="'Inter, Helvetica, sans-serif'" font-size="13" lengthAdjust="spacing" textLength="407.1732" x="82.045" y="677.2949">can teach vinary-viewer a new language without rebuilding: drop a</text><text fill="#000000" font-family="'Inter, Helvetica, sans-serif'" font-size="13" lengthAdjust="spacing" textLength="466.1414" x="38.43" y="695.0009">compiled `.wasm`, a `highlights.scm`, and an `.edn` config into the grammars</text><text fill="#000000" font-family="'Inter, Helvetica, sans-serif'" font-size="13" lengthAdjust="spacing" textLength="453.6743" x="38.43" y="712.707">directory. clojure.spec validates each config before it enters the atom, so a</text><text fill="#000000" font-family="'Inter, Helvetica, sans-serif'" font-size="13" lengthAdjust="spacing" textLength="387.9203" x="38.43" y="730.413">malformed entry is rejected rather than corrupting the registry.</text></g><!--link EMBED to REG--><g class="link" data-entity-1="ent0004" data-entity-2="ent0001" data-link-type="dependency" data-source-line="29" id="lnk9"><path d="M144.23,210.7379 C145.71,240.7979 153.29,276.5479 178,297.3379 C192.38,309.4379 333.19,292.5779 347,305.3379 C371.24,327.7329 376.2225,364.3404 375.0313,395.7442 C374.8823,399.6696 374.637,403.5138 374.3207,407.2387 C374.2416,408.17 374.1581,409.0937 374.0706,410.0095 C374.0487,410.2384 374.5152,405.4908 374.4928,405.7187" fill="none" id="EMBED-to-REG" style="stroke:#999999;stroke-width:2;stroke-dasharray:7,7;"/><polygon fill="#999999" points="374.0042,410.6948,378.8646,402.1288,374.4928,405.7187,370.9029,401.3469,374.0042,410.6948" style="stroke:#999999;stroke-width:2;stroke-linejoin:miter;stroke-miterlimit:10;"/><text fill="#000000" font-family="'Inter, Helvetica, sans-serif'" font-size="13" lengthAdjust="spacing" textLength="120.4061" x="220.535" y="266.2349">(1) register bundled</text><text fill="#000000" font-family="'Inter, Helvetica, sans-serif'" font-size="13" lengthAdjust="spacing" textLength="203.4762" x="179" y="283.9409">(base names: Rholang, MeTTa, &#8230;)</text></g><!--link USERFILES to REG--><g class="link" data-entity-1="ent0006" data-entity-2="ent0001" data-link-type="dependency" data-source-line="30" id="lnk10"><path d="M402.23,210.5779 C396.015,252.5179 387.14,312.3854 379.73,362.3729 C377.8775,374.8698 376.1166,386.7492 374.5116,397.5765 C374.4113,398.2533 374.3116,398.9259 374.2126,399.5942 C374.163,399.9284 374.8468,395.3156 374.7975,395.6477" fill="none" id="USERFILES-to-REG" style="stroke:#999999;stroke-width:2;stroke-dasharray:7,7;"/><polygon fill="#999999" points="374.0644,400.5937,379.3408,392.2774,374.7975,395.6477,371.4273,391.1044,374.0644,400.5937" style="stroke:#999999;stroke-width:2;stroke-linejoin:miter;stroke-miterlimit:10;"/><text fill="#000000" font-family="'Inter, Helvetica, sans-serif'" font-size="13" lengthAdjust="spacing" textLength="133.8741" x="407.0993" y="257.2349">(2) main scans the dir,</text><text fill="#000000" font-family="'Inter, Helvetica, sans-serif'" font-size="13" lengthAdjust="spacing" textLength="152.0727" x="398" y="274.9409">sends configs over IPC &#8594;</text><text fill="#000000" font-family="'Inter, Helvetica, sans-serif'" font-size="13" lengthAdjust="spacing" textLength="110.7211" x="418.6758" y="292.647">register at startup</text></g><!--link REG to RESOLVE--><g class="link" data-entity-1="ent0001" data-entity-2="ent0008" data-link-type="dependency" data-source-line="31" id="lnk11"><path d="M374.076,463.5175 C374.1909,463.6105 374.307,463.7043 374.4241,463.799 C374.6585,463.9885 374.8973,464.1816 375.1404,464.3784 C375.6268,464.7718 376.1309,465.1797 376.6521,465.6016 C378.7372,467.2894 381.0977,469.2023 383.7061,471.3196 C394.1397,479.7889 408.5394,491.5273 425.1388,505.1967 C458.3375,532.5354 500.335,567.5979 537,599.6779 C553.69,614.2779 567.8659,627.0574 584.1259,641.9774" fill="none" id="REG-to-RESOLVE" style="stroke:#2D9574;stroke-width:2;stroke-dasharray:7,7;"/><polygon fill="#2D9574" points="587.81,645.3579,583.883,636.3258,584.1259,641.9774,578.4743,642.2203,587.81,645.3579" style="stroke:#2D9574;stroke-width:2;stroke-linejoin:miter;stroke-miterlimit:10;"/><text fill="#000000" font-family="'Inter, Helvetica, sans-serif'" font-size="13" lengthAdjust="spacing" textLength="141.8041" x="524.38" y="569.5749">(3) lookup by extension</text><text fill="#000000" font-family="'Inter, Helvetica, sans-serif'" font-size="13" lengthAdjust="spacing" textLength="131.4677" x="529.5482" y="587.2809">&#8594; {:wasm :highlights}</text></g><!--link REG to GMN12--><g class="link" data-entity-1="ent0001" data-entity-2="ent0013" data-link-type="association" data-source-line="34" id="lnk14"><path d="M351.7891,530.8271 C351.7469,530.9815 351.7047,531.1358 351.6623,531.29 C351.5775,531.5986 351.4924,531.9069 351.4069,532.2149 C350.0384,537.1431 348.57,542.0017 347,546.6779 C333.85,585.8379 313.34,628.2279 297.74,658.1279" fill="none" id="REG-GMN12" style="stroke:#555555;stroke-width:1.3;stroke-dasharray:7,7;"/></g><g class="legend" data-source-line="40"><rect fill="none" height="109.3396" rx="4" ry="4" style="stroke:#000000;stroke-width:1;" width="499.8862" x="244.1138" y="787.9479"/><text fill="#000000" font-family="'Inter, Helvetica, sans-serif'" font-size="14" font-weight="700" lengthAdjust="spacing" textLength="74.5917" x="252.7538" y="809.9139">color/style</text><text fill="#000000" font-family="'Inter, Helvetica, sans-serif'" font-size="14" font-weight="700" lengthAdjust="spacing" textLength="55.5798" x="413.2072" y="809.9139">concept</text><rect fill="#9F8766" height="19.0679" style="stroke:none;stroke-width:1;" width="160.4534" x="249.1138" y="814.0158"/><text fill="#000000" font-family="'Inter, Helvetica, sans-serif'" font-size="14" lengthAdjust="spacing" textLength="3.64" x="249.1138" y="828.9818">&#160;</text><text fill="#000000" font-family="'Inter, Helvetica, sans-serif'" font-size="14" lengthAdjust="spacing" textLength="322.1528" x="413.2072" y="828.9818">grammar source (bundled asset / user config dir)</text><rect fill="#A45BAD" height="19.0679" style="stroke:none;stroke-width:1;" width="160.4534" x="249.1138" y="833.0838"/><text fill="#000000" font-family="'Inter, Helvetica, sans-serif'" font-size="14" lengthAdjust="spacing" textLength="3.64" x="249.1138" y="848.0497">&#160;</text><text fill="#000000" font-family="'Inter, Helvetica, sans-serif'" font-size="14" lengthAdjust="spacing" textLength="275.435" x="413.2072" y="848.0497">registry = single stateful owner (the atom)</text><rect fill="#2D9574" height="19.0679" style="stroke:none;stroke-width:1;" width="160.4534" x="249.1138" y="852.1517"/><text fill="#000000" font-family="'Inter, Helvetica, sans-serif'" font-size="14" lengthAdjust="spacing" textLength="3.64" x="249.1138" y="867.1176">&#160;</text><text fill="#000000" font-family="'Inter, Helvetica, sans-serif'" font-size="14" lengthAdjust="spacing" textLength="218.3011" x="413.2072" y="867.1176">renderer consumer (source-view)</text><text fill="#000000" font-family="'Inter, Helvetica, sans-serif'" font-size="14" lengthAdjust="spacing" textLength="153.1734" x="252.7538" y="886.1855">dashed grey &#171;planned&#187;</text><text fill="#000000" font-family="'Inter, Helvetica, sans-serif'" font-size="14" lengthAdjust="spacing" textLength="182.6853" x="413.2072" y="886.1855">NOT yet built (Forthcoming)</text><line style="stroke:#000000;stroke-width:1;" x1="249.1138" x2="739" y1="794.9479" y2="794.9479"/><line style="stroke:#000000;stroke-width:1;" x1="249.1138" x2="739" y1="814.0158" y2="814.0158"/><line style="stroke:#000000;stroke-width:1;" x1="249.1138" x2="739" y1="833.0838" y2="833.0838"/><line style="stroke:#000000;stroke-width:1;" x1="249.1138" x2="739" y1="852.1517" y2="852.1517"/><line style="stroke:#000000;stroke-width:1;" x1="249.1138" x2="739" y1="871.2196" y2="871.2196"/><line style="stroke:#000000;stroke-width:1;" x1="249.1138" x2="739" y1="890.2875" y2="890.2875"/><line style="stroke:#000000;stroke-width:1;" x1="249.1138" x2="249.1138" y1="794.9479" y2="890.2875"/><line style="stroke:#000000;stroke-width:1;" x1="409.5672" x2="409.5672" y1="794.9479" y2="890.2875"/><line style="stroke:#000000;stroke-width:1;" x1="739" x2="739" y1="794.9479" y2="890.2875"/></g></g></svg>