<svg xmlns="http://www.w3.org/2000/svg" xmlns:xlink="http://www.w3.org/1999/xlink" contentStyleType="text/css" data-diagram-type="DESCRIPTION" height="901px" preserveAspectRatio="none" style="width:468px;height:901px;background:#FBF8EF;" version="1.1" viewBox="0 0 468 901" width="468px" zoomAndPan="magnify"><?plantuml $version$?><defs/><g><rect fill="#FBF8EF" height="901" style="stroke:none;stroke-width:1;" width="468" x="0" y="0"/><g class="title" data-source-line="4"><text fill="#000000" font-family="'Inter, Helvetica, sans-serif'" font-size="14" font-weight="700" lengthAdjust="spacing" textLength="373.7706" x="43.6147" y="24.9659">Read-only source preview and tree-sitter highlighting</text></g><!--cluster Main process--><g class="cluster" data-qualified-name="Main process" data-source-line="8" id="ent0001"><path d="M10,46.6699 L100.0076,46.6699 A6,6 0 0 1 104.0076,50.6699 L111.0076,71.7378 L413,71.7378 A4,4 0 0 1 417,75.7378 L417,154.8099 A4,4 0 0 1 413,158.8099 L10,158.8099 A4,4 0 0 1 6,154.8099 L6,50.6699 A4,4 0 0 1 10,46.6699" fill="#3A5BA0" style="stroke:#888888;stroke-width:1.5;"/><line style="stroke:#888888;stroke-width:1.5;" x1="6" x2="111.0076" y1="71.7378" y2="71.7378"/><text fill="#000000" font-family="'Inter, Helvetica, sans-serif'" font-size="14" font-weight="700" lengthAdjust="spacing" textLength="92.0076" x="10" y="63.6358">Main process</text></g><!--cluster Renderer process--><g class="cluster" data-qualified-name="Renderer process" data-source-line="13" id="ent0004"><path d="M24,209.8099 L143.8555,209.8099 A6,6 0 0 1 147.8555,213.8099 L154.8555,234.8778 L449,234.8778 A4,4 0 0 1 453,238.8778 L453,729.3499 A4,4 0 0 1 449,733.3499 L24,733.3499 A4,4 0 0 1 20,729.3499 L20,213.8099 A4,4 0 0 1 24,209.8099" fill="#2D9574" style="stroke:#888888;stroke-width:1.5;"/><line style="stroke:#888888;stroke-width:1.5;" x1="20" x2="154.8555" y1="234.8778" y2="234.8778"/><text fill="#000000" font-family="'Inter, Helvetica, sans-serif'" font-size="14" font-weight="700" lengthAdjust="spacing" textLength="121.8555" x="24" y="226.7758">Renderer process</text></g><!--entity Classifier--><g class="entity" data-qualified-name="Main process.Classifier" data-source-line="9" id="ent0002"><rect fill="#3A5BA0" height="58.1358" rx="4" ry="4" style="stroke:#181818;stroke-width:1.4;" width="107.8636" x="22.07" y="84.6699"/><text fill="#1A1A1A" font-family="'Inter, Helvetica, sans-serif'" font-size="14" lengthAdjust="spacing" textLength="80.8917" x="32.07" y="109.6358">file classifier</text><text fill="#1A1A1A" font-family="'Inter, Helvetica, sans-serif'" font-size="14" lengthAdjust="spacing" textLength="87.8636" x="32.07" y="128.7038">kind = source</text></g><!--entity MainRegistry--><g class="entity" data-qualified-name="Main process.MainRegistry" data-source-line="10" id="ent0003"><rect fill="#9F8766" height="58.1358" rx="4" ry="4" style="stroke:#181818;stroke-width:1.4;" width="236.9852" x="164.51" y="84.6699"/><text fill="#1A1A1A" font-family="'Inter, Helvetica, sans-serif'" font-size="14" lengthAdjust="spacing" textLength="149.8555" x="174.51" y="109.6358">grammar registry scan</text><text fill="#1A1A1A" font-family="'Inter, Helvetica, sans-serif'" font-size="14" lengthAdjust="spacing" textLength="216.9852" x="174.51" y="128.7038">/.config/vinary-viewer/grammars</text></g><!--entity SourceView--><g class="entity" data-qualified-name="Renderer process.SourceView" data-source-line="14" id="ent0005"><rect fill="#2D9574" height="58.1358" rx="4" ry="4" style="stroke:#181818;stroke-width:1.4;" width="173.7614" x="36.12" y="247.8099"/><text fill="#1A1A1A" font-family="'Inter, Helvetica, sans-serif'" font-size="14" lengthAdjust="spacing" textLength="78.3577" x="46.12" y="272.7758">source-view</text><text fill="#1A1A1A" font-family="'Inter, Helvetica, sans-serif'" font-size="14" lengthAdjust="spacing" textLength="153.7614" x="46.12" y="291.8438">read-only CodeMirror 6</text></g><!--entity Registry--><g class="entity" data-qualified-name="Renderer process.Registry" data-source-line="15" id="ent0006"><rect fill="#A45BAD" height="58.1358" rx="4" ry="4" style="stroke:#181818;stroke-width:1.4;" width="170.1914" x="189.9" y="384.9399"/><text fill="#1A1A1A" font-family="'Inter, Helvetica, sans-serif'" font-size="14" lengthAdjust="spacing" textLength="113.8756" x="199.9" y="409.9058">grammar catalog</text><text fill="#1A1A1A" font-family="'Inter, Helvetica, sans-serif'" font-size="14" lengthAdjust="spacing" textLength="150.1914" x="199.9" y="428.9738">bundled + user configs</text></g><!--entity TreeSitter--><g class="entity" data-qualified-name="Renderer process.TreeSitter" data-source-line="16" id="ent0007"><rect fill="#67B11D" height="58.1358" rx="4" ry="4" style="stroke:#181818;stroke-width:1.4;" width="193.3333" x="142.33" y="522.0799"/><text fill="#1A1A1A" font-family="'Inter, Helvetica, sans-serif'" font-size="14" lengthAdjust="spacing" textLength="97.2576" x="152.33" y="547.0458">web-tree-sitter</text><text fill="#1A1A1A" font-family="'Inter, Helvetica, sans-serif'" font-size="14" lengthAdjust="spacing" textLength="173.3333" x="152.33" y="566.1138">Language / Parser / Query</text></g><!--entity Decorations--><g class="entity" data-qualified-name="Renderer process.Decorations" data-source-line="17" id="ent0008"><rect fill="#4F97D7" height="58.1358" rx="4" ry="4" style="stroke:#181818;stroke-width:1.4;" width="177.4154" x="93.29" y="659.2099"/><text fill="#1A1A1A" font-family="'Inter, Helvetica, sans-serif'" font-size="14" lengthAdjust="spacing" textLength="157.4154" x="103.29" y="684.1758">CodeMirror decorations</text><text fill="#1A1A1A" font-family="'Inter, Helvetica, sans-serif'" font-size="14" lengthAdjust="spacing" textLength="129.8215" x="103.29" y="703.2438">capture -&gt; CSS class</text></g><!--link Classifier to SourceView--><g class="link" data-entity-1="ent0002" data-entity-2="ent0005" data-link-type="dependency" data-source-line="20" id="lnk9"><path d="M67.84,143.0699 C64.74,158.3799 63.02,177.4399 68,193.8099 C73.99,213.4999 83.388,228.8071 94.938,243.7171" fill="none" id="Classifier-to-SourceView" style="stroke:#B1951D;stroke-width:2;"/><polygon fill="#B1951D" points="98,247.6699,95.6506,238.1054,94.938,243.7171,89.3262,243.0045,98,247.6699" style="stroke:#B1951D;stroke-width:2;stroke-linejoin:miter;stroke-miterlimit:10;"/><text fill="#000000" font-family="'Inter, Helvetica, sans-serif'" font-size="13" lengthAdjust="spacing" textLength="192.1662" x="69" y="189.7069">vv:content {:kind "source" :text}</text></g><!--link MainRegistry to Registry--><g class="link" data-entity-1="ent0003" data-entity-2="ent0006" data-link-type="dependency" data-source-line="21" id="lnk10"><path d="M282.24,143.0699 C280.71,200.0699 277.4145,323.0217 275.8845,379.8717" fill="none" id="MainRegistry-to-Registry" style="stroke:#B1951D;stroke-width:2;"/><polygon fill="#B1951D" points="275.75,384.8699,279.9907,375.9808,275.8845,379.8717,271.9936,375.7655,275.75,384.8699" style="stroke:#B1951D;stroke-width:2;stroke-linejoin:miter;stroke-miterlimit:10;"/><text fill="#000000" font-family="'Inter, Helvetica, sans-serif'" font-size="13" lengthAdjust="spacing" textLength="110.5261" x="281.56" y="282.2669">vv:grammars EDN</text></g><!--link SourceView to Registry--><g class="link" data-entity-1="ent0005" data-entity-2="ent0006" data-link-type="dependency" data-source-line="22" id="lnk11"><path d="M125.25,306.3199 C127.83,322.2199 133.33,341.4899 145,354.9399 C156.98,368.7599 168.4192,377.2211 184.9992,385.4311" fill="none" id="SourceView-to-Registry" style="stroke:#4F97D7;stroke-width:2;"/><polygon fill="#4F97D7" points="189.48,387.6499,183.1897,380.0715,184.9992,385.4311,179.6396,387.2407,189.48,387.6499" style="stroke:#4F97D7;stroke-width:2;stroke-linejoin:miter;stroke-miterlimit:10;"/><text fill="#000000" font-family="'Inter, Helvetica, sans-serif'" font-size="13" lengthAdjust="spacing" textLength="115.3361" x="146" y="350.8369">grammar-for(path)</text></g><!--link Registry to TreeSitter--><g class="link" data-entity-1="ent0006" data-entity-2="ent0007" data-link-type="dependency" data-source-line="23" id="lnk12"><path d="M267.45,443.3399 C261.31,466.3999 253.967,493.9684 247.827,517.0184" fill="none" id="Registry-to-TreeSitter" style="stroke:#67B11D;stroke-width:2;"/><polygon fill="#67B11D" points="246.54,521.8499,252.7218,514.1828,247.827,517.0184,244.9914,512.1236,246.54,521.8499" style="stroke:#67B11D;stroke-width:2;stroke-linejoin:miter;stroke-miterlimit:10;"/><text fill="#000000" font-family="'Inter, Helvetica, sans-serif'" font-size="13" lengthAdjust="spacing" textLength="160.2122" x="260.16" y="487.9769">wasm-url + highlights.scm</text></g><!--link TreeSitter to Decorations--><g class="link" data-entity-1="ent0007" data-entity-2="ent0008" data-link-type="dependency" data-source-line="24" id="lnk13"><path d="M227.05,580.4799 C217.32,603.5399 205.6045,631.3335 195.8745,654.3835" fill="none" id="TreeSitter-to-Decorations" style="stroke:#67B11D;stroke-width:2;"/><polygon fill="#67B11D" points="193.93,658.9899,201.1152,652.254,195.8745,654.3835,193.7449,649.1428,193.93,658.9899" style="stroke:#67B11D;stroke-width:2;stroke-linejoin:miter;stroke-miterlimit:10;"/><text fill="#000000" font-family="'Inter, Helvetica, sans-serif'" font-size="13" lengthAdjust="spacing" textLength="53.183" x="214.91" y="625.1069">captures</text></g><!--link Decorations to SourceView--><g class="link" data-entity-1="ent0008" data-entity-2="ent0005" data-link-type="dependency" data-source-line="25" id="lnk14"><path d="M161.89,658.9299 C137.38,622.4199 97.45,556.0099 83,492.0799 C68.07,426.0299 91.6913,352.2535 108.3913,311.0635" fill="none" id="Decorations-to-SourceView" style="stroke:#4F97D7;stroke-width:2;"/><polygon fill="#4F97D7" points="110.27,306.4299,103.1815,313.2675,108.3913,311.0635,110.5953,316.2734,110.27,306.4299" style="stroke:#4F97D7;stroke-width:2;stroke-linejoin:miter;stroke-miterlimit:10;"/><text fill="#000000" font-family="'Inter, Helvetica, sans-serif'" font-size="13" lengthAdjust="spacing" textLength="162.5002" x="84" y="487.9769">read-only highlighted view</text></g><g class="legend" data-source-line="27"><rect fill="none" height="128.4075" rx="4" ry="4" style="stroke:#000000;stroke-width:1;" width="369.7007" x="45.6496" y="754.3499"/><rect fill="#3A5BA0" height="19.0679" style="stroke:none;stroke-width:1;" width="3.64" x="50.6496" y="761.3499"/><text fill="#000000" font-family="'Inter, Helvetica, sans-serif'" font-size="14" lengthAdjust="spacing" textLength="3.64" x="50.6496" y="776.3158">&#160;</text><text fill="#000000" font-family="'Inter, Helvetica, sans-serif'" font-size="14" lengthAdjust="spacing" textLength="173.2353" x="57.9296" y="776.3158">main classifies source files</text><rect fill="#9F8766" height="19.0679" style="stroke:none;stroke-width:1;" width="3.64" x="50.6496" y="780.4178"/><text fill="#000000" font-family="'Inter, Helvetica, sans-serif'" font-size="14" lengthAdjust="spacing" textLength="3.64" x="50.6496" y="795.3838">&#160;</text><text fill="#000000" font-family="'Inter, Helvetica, sans-serif'" font-size="14" lengthAdjust="spacing" textLength="229.1791" x="57.9296" y="795.3838">filesystem/user grammar directory</text><rect fill="#B1951D" height="19.0679" style="stroke:none;stroke-width:1;" width="3.64" x="50.6496" y="799.4857"/><text fill="#000000" font-family="'Inter, Helvetica, sans-serif'" font-size="14" lengthAdjust="spacing" textLength="3.64" x="50.6496" y="814.4517">&#160;</text><text fill="#000000" font-family="'Inter, Helvetica, sans-serif'" font-size="14" lengthAdjust="spacing" textLength="348.7808" x="57.9296" y="814.4517">IPC mediator transfers content and grammar configs</text><rect fill="#A45BAD" height="19.0679" style="stroke:none;stroke-width:1;" width="3.64" x="50.6496" y="818.5536"/><text fill="#000000" font-family="'Inter, Helvetica, sans-serif'" font-size="14" lengthAdjust="spacing" textLength="3.64" x="50.6496" y="833.5196">&#160;</text><text fill="#000000" font-family="'Inter, Helvetica, sans-serif'" font-size="14" lengthAdjust="spacing" textLength="175.8114" x="57.9296" y="833.5196">renderer grammar catalog</text><rect fill="#67B11D" height="19.0679" style="stroke:none;stroke-width:1;" width="3.64" x="50.6496" y="837.6216"/><text fill="#000000" font-family="'Inter, Helvetica, sans-serif'" font-size="14" lengthAdjust="spacing" textLength="3.64" x="50.6496" y="852.5875">&#160;</text><text fill="#000000" font-family="'Inter, Helvetica, sans-serif'" font-size="14" lengthAdjust="spacing" textLength="205.1552" x="57.9296" y="852.5875">tree-sitter parse/query pipeline</text><rect fill="#4F97D7" height="19.0679" style="stroke:none;stroke-width:1;" width="3.64" x="50.6496" y="856.6895"/><text fill="#000000" font-family="'Inter, Helvetica, sans-serif'" font-size="14" lengthAdjust="spacing" textLength="3.64" x="50.6496" y="871.6554">&#160;</text><text fill="#000000" font-family="'Inter, Helvetica, sans-serif'" font-size="14" lengthAdjust="spacing" textLength="263.437" x="57.9296" y="871.6554">CodeMirror/re-frame rendering support</text><line style="stroke:#000000;stroke-width:1;" x1="50.6496" x2="410.3504" y1="761.3499" y2="761.3499"/><line style="stroke:#000000;stroke-width:1;" x1="50.6496" x2="410.3504" y1="780.4178" y2="780.4178"/><line style="stroke:#000000;stroke-width:1;" x1="50.6496" x2="410.3504" y1="799.4857" y2="799.4857"/><line style="stroke:#000000;stroke-width:1;" x1="50.6496" x2="410.3504" y1="818.5536" y2="818.5536"/><line style="stroke:#000000;stroke-width:1;" x1="50.6496" x2="410.3504" y1="837.6216" y2="837.6216"/><line style="stroke:#000000;stroke-width:1;" x1="50.6496" x2="410.3504" y1="856.6895" y2="856.6895"/><line style="stroke:#000000;stroke-width:1;" x1="50.6496" x2="410.3504" y1="875.7574" y2="875.7574"/><line style="stroke:#000000;stroke-width:1;" x1="50.6496" x2="50.6496" y1="761.3499" y2="875.7574"/><line style="stroke:#000000;stroke-width:1;" x1="54.2896" x2="54.2896" y1="761.3499" y2="875.7574"/><line style="stroke:#000000;stroke-width:1;" x1="410.3504" x2="410.3504" y1="761.3499" y2="875.7574"/></g><?plantuml-src VLHDJzj04BtxLqpXGAlMkBGGIbGgXNn8g0HIXxO7Wj1cFN5Mh7VTtNKW0lhREsl7YMb53xwivxrvy-PZPmT6aYdtVNW6Ue46XcWo9XAO8cU5HN1pOO7hBDSAbOE5m3kmSsRGqYy4Wxcsmccp3Ez4WXGfjO65vcnQI6QMm5G22Z6nWFUv55mumgW43Pg84gaeDvgZjJ3LXKgO4MXtWrT2SLaGtSrY4LAQ37T5aSaWSC99X1XP4cebbs1rOJX2Rh0KvfCvWnYI94V5p4Kwb_GveT8WiBT2vSomR5FFs2sbBu8xfbA9GP0pVijIXAqXQOELjYqOTaxFRxeNPnSnF0G0LpD1C2wPjM8cq4mKKITmlD9p3Sn2T_stWVROb1Hap53ML5X75bdEr4JzZdQvLZEHHWkXoBdGLqGchS9jIUfLnJLkC5wHFZLqnojpDzhZ_dcl7_VZflvAPvbYeipQpgvES2YCeHQsodpZCkw7z_OvJRCGpXoJEfseANLGOW9lWIQ7tijoAk5hqRtEPMVSZKz7bnkYEvo6ZRPDr1bre_3bH32YqeahWcy5ccN9TKcXuwh1mqxyjNVni-5keuG4kJRC2QtiH76Mky8WX5-WEnvNlIlPUfiegd4GTuRzZQsD9ePNsoTxHmTxlNUq4lnMaRV77ww9hk5H6nQBDfNj_AeyjCkXsAgyteAsmtlt53nhuOkawuYIifu1wFVEWqO-WkyFZWvxX_-1hx3XJ9lNENFpDq4pU-lmPE_Vx0s7st37R1OMHb9Rr_jaTotFWaROYrHDUzkmwe8DciylLl7CsSsKhbNGgFa93WA9AOqzjV_ny_R7pi59v_sNH_3NPREZjhuLVdKjF5R1HuDFXwqM1PUlI-imYyhPhMSx4Vuuq7ch4LMx274wwaA6YM3qbuuEKtQ6nf_Agll-5AqNf5g4cgApJmezHNq8uQzDgWChHocmUTDoln3HBxyDa8iSfL1O0oeR2R3PWiXWE2DwN6MZImYso7Dj7A7GBspftHy0?></g></svg>