<svg xmlns="http://www.w3.org/2000/svg" xmlns:xlink="http://www.w3.org/1999/xlink" contentStyleType="text/css" data-diagram-type="DESCRIPTION" height="1098px" preserveAspectRatio="none" style="width:1916px;height:1098px;background:#FBF8EF;" version="1.1" viewBox="0 0 1916 1098" width="1916px" zoomAndPan="magnify"><?plantuml $version$?><defs/><g><rect fill="#FBF8EF" height="1098" style="stroke:none;stroke-width:1;" width="1916" x="0" y="0"/><g class="title" data-source-line="10"><text fill="#000000" font-family="'Inter, Helvetica, sans-serif'" font-size="14" font-weight="700" lengthAdjust="spacing" textLength="638.4396" x="635.3558" y="24.9659">Source preview via tree-sitter (Forthcoming / &#171;planned&#187;) &#8212; read-only CodeMirror 6 + WASM</text></g><!--cluster REND--><g class="cluster" data-qualified-name="REND" data-source-line="12" id="ent0001"><rect fill="#2D9574" height="700.68" rx="4" ry="4" style="stroke:#888888;stroke-width:1;" width="1382" x="7" y="268.1979"/><text fill="#000000" font-family="'Inter, Helvetica, sans-serif'" font-size="14" font-weight="700" lengthAdjust="spacing" textLength="220.9331" x="587.5334" y="285.1639">Electron RENDERER (Chromium)</text></g><!--cluster read-only CodeMirror 6 editor--><g class="cluster" data-qualified-name="REND.read-only CodeMirror 6 editor" data-source-line="15" id="ent0003"><path d="M616,591.4679 L821.6052,591.4679 A6,6 0 0 1 825.6052,595.4679 L832.6052,616.5358 L1345,616.5358 A4,4 0 0 1 1349,620.5358 L1349,788.6779 A4,4 0 0 1 1345,792.6779 L616,792.6779 A4,4 0 0 1 612,788.6779 L612,595.4679 A4,4 0 0 1 616,591.4679" fill="none" style="stroke:#888888;stroke-width:1.5;"/><line style="stroke:#888888;stroke-width:1.5;" x1="612" x2="832.6052" y1="616.5358" y2="616.5358"/><text fill="#000000" font-family="'Inter, Helvetica, sans-serif'" font-size="14" font-weight="700" lengthAdjust="spacing" textLength="207.6052" x="616" y="608.4339">read-only CodeMirror 6 editor</text><text fill="#000000" font-family="'Inter, Helvetica, sans-serif'" font-size="14" font-style="italic" lengthAdjust="spacing" textLength="64.3298" x="952.3351" y="633.5018">&#171;planned&#187;</text></g><!--cluster web-tree-sitter (WASM)--><g class="cluster" data-qualified-name="REND.web-tree-sitter .WASM." data-source-line="21" id="ent0007"><path d="M43,322.1979 L203.4554,322.1979 A6,6 0 0 1 207.4554,326.1979 L214.4554,347.2658 L584,347.2658 A4,4 0 0 1 588,351.2658 L588,788.6779 A4,4 0 0 1 584,792.6779 L43,792.6779 A4,4 0 0 1 39,788.6779 L39,326.1979 A4,4 0 0 1 43,322.1979" fill="none" style="stroke:#888888;stroke-width:1.5;"/><line style="stroke:#888888;stroke-width:1.5;" x1="39" x2="214.4554" y1="347.2658" y2="347.2658"/><text fill="#000000" font-family="'Inter, Helvetica, sans-serif'" font-size="14" font-weight="700" lengthAdjust="spacing" textLength="162.4554" x="43" y="339.1639">web-tree-sitter (WASM)</text><text fill="#000000" font-family="'Inter, Helvetica, sans-serif'" font-size="14" font-style="italic" lengthAdjust="spacing" textLength="64.3298" x="285.3351" y="364.2318">&#171;planned&#187;</text></g><!--cluster GR--><g class="cluster" data-qualified-name="GR" data-source-line="28" id="ent0011"><rect fill="#9F8766" height="144.13" rx="4" ry="4" style="stroke:#888888;stroke-width:1;" width="274" x="288" y="47.0679"/><text fill="#000000" font-family="'Inter, Helvetica, sans-serif'" font-size="14" font-weight="700" lengthAdjust="spacing" textLength="115.7936" x="367.1032" y="64.0339">grammar source</text></g><!--entity SV--><g class="entity" data-qualified-name="REND.SV" data-source-line="13" id="ent0002"><rect fill="#DDDDDD" height="87.2038" rx="4" ry="4" style="stroke:#999999;stroke-width:1.4;stroke-dasharray:7,7;" width="133.2397" x="914.38" y="857.6779"/><rect fill="#DDDDDD" height="10" style="stroke:#999999;stroke-width:1.4;stroke-dasharray:7,7;" width="15" x="1027.6197" y="862.6779"/><rect fill="#DDDDDD" height="2" style="stroke:#999999;stroke-width:1.4;stroke-dasharray:7,7;" width="4" x="1025.6197" y="864.6779"/><rect fill="#DDDDDD" height="2" style="stroke:#999999;stroke-width:1.4;stroke-dasharray:7,7;" width="4" x="1025.6197" y="868.6779"/><text fill="#555555" font-family="'Inter, Helvetica, sans-serif'" font-size="14" font-style="italic" lengthAdjust="spacing" textLength="64.3298" x="943.8349" y="892.6439">&#171;planned&#187;</text><text fill="#555555" font-family="'Inter, Helvetica, sans-serif'" font-size="14" lengthAdjust="spacing" textLength="78.3577" x="929.38" y="911.7118">source-view</text><text fill="#555555" font-family="'Inter, Helvetica, sans-serif'" font-size="14" lengthAdjust="spacing" textLength="93.2397" x="929.38" y="930.7797">Strategy entry</text></g><!--entity STATE--><g class="entity" data-qualified-name="REND.read-only CodeMirror 6 editor.STATE" data-source-line="16" id="ent0004"><rect fill="#DDDDDD" height="87.2038" rx="4" ry="4" style="stroke:#999999;stroke-width:1.4;stroke-dasharray:7,7;" width="198.8574" x="627.57" y="689.4679"/><rect fill="#DDDDDD" height="10" style="stroke:#999999;stroke-width:1.4;stroke-dasharray:7,7;" width="15" x="806.4274" y="694.4679"/><rect fill="#DDDDDD" height="2" style="stroke:#999999;stroke-width:1.4;stroke-dasharray:7,7;" width="4" x="804.4274" y="696.4679"/><rect fill="#DDDDDD" height="2" style="stroke:#999999;stroke-width:1.4;stroke-dasharray:7,7;" width="4" x="804.4274" y="700.4679"/><text fill="#555555" font-family="'Inter, Helvetica, sans-serif'" font-size="14" font-style="italic" lengthAdjust="spacing" textLength="64.3298" x="689.8338" y="724.4339">&#171;planned&#187;</text><text fill="#555555" font-family="'Inter, Helvetica, sans-serif'" font-size="14" lengthAdjust="spacing" textLength="72.8557" x="642.57" y="743.5018">EditorState</text><text fill="#555555" font-family="'Inter, Helvetica, sans-serif'" font-size="14" lengthAdjust="spacing" textLength="158.8574" x="642.57" y="762.5697">(doc text from :doc/text)</text></g><!--entity VP--><g class="entity" data-qualified-name="REND.read-only CodeMirror 6 editor.VP" data-source-line="17" id="ent0005"><rect fill="#DDDDDD" height="87.2038" rx="4" ry="4" style="stroke:#999999;stroke-width:1.4;stroke-dasharray:7,7;" width="238.3652" x="861.82" y="689.4679"/><rect fill="#DDDDDD" height="10" style="stroke:#999999;stroke-width:1.4;stroke-dasharray:7,7;" width="15" x="1080.1852" y="694.4679"/><rect fill="#DDDDDD" height="2" style="stroke:#999999;stroke-width:1.4;stroke-dasharray:7,7;" width="4" x="1078.1852" y="696.4679"/><rect fill="#DDDDDD" height="2" style="stroke:#999999;stroke-width:1.4;stroke-dasharray:7,7;" width="4" x="1078.1852" y="700.4679"/><text fill="#555555" font-family="'Inter, Helvetica, sans-serif'" font-size="14" font-style="italic" lengthAdjust="spacing" textLength="64.3298" x="943.8377" y="724.4339">&#171;planned&#187;</text><text fill="#555555" font-family="'Inter, Helvetica, sans-serif'" font-size="14" lengthAdjust="spacing" textLength="72.5197" x="876.82" y="743.5018">ViewPlugin</text><text fill="#555555" font-family="'Inter, Helvetica, sans-serif'" font-size="14" lengthAdjust="spacing" textLength="198.3652" x="876.82" y="762.5697">(viewport-cached decorations)</text></g><!--entity SF--><g class="entity" data-qualified-name="REND.read-only CodeMirror 6 editor.SF" data-source-line="18" id="ent0006"><rect fill="#DDDDDD" height="87.2038" rx="4" ry="4" style="stroke:#999999;stroke-width:1.4;stroke-dasharray:7,7;" width="197.9754" x="1135.01" y="689.4679"/><rect fill="#DDDDDD" height="10" style="stroke:#999999;stroke-width:1.4;stroke-dasharray:7,7;" width="15" x="1312.9854" y="694.4679"/><rect fill="#DDDDDD" height="2" style="stroke:#999999;stroke-width:1.4;stroke-dasharray:7,7;" width="4" x="1310.9854" y="696.4679"/><rect fill="#DDDDDD" height="2" style="stroke:#999999;stroke-width:1.4;stroke-dasharray:7,7;" width="4" x="1310.9854" y="700.4679"/><text fill="#555555" font-family="'Inter, Helvetica, sans-serif'" font-size="14" font-style="italic" lengthAdjust="spacing" textLength="64.3298" x="1196.8328" y="724.4339">&#171;planned&#187;</text><text fill="#555555" font-family="'Inter, Helvetica, sans-serif'" font-size="14" lengthAdjust="spacing" textLength="64.5398" x="1150.01" y="743.5018">StateField</text><text fill="#555555" font-family="'Inter, Helvetica, sans-serif'" font-size="14" lengthAdjust="spacing" textLength="157.9754" x="1150.01" y="762.5697">(incremental parse tree)</text></g><!--entity PARSER--><g class="entity" data-qualified-name="REND.web-tree-sitter .WASM..PARSER" data-source-line="22" id="ent0008"><rect fill="#DDDDDD" height="106.2717" rx="4" ry="4" style="stroke:#999999;stroke-width:1.4;stroke-dasharray:7,7;" width="293.861" x="278.07" y="420.1979"/><rect fill="#DDDDDD" height="10" style="stroke:#999999;stroke-width:1.4;stroke-dasharray:7,7;" width="15" x="551.931" y="425.1979"/><rect fill="#DDDDDD" height="2" style="stroke:#999999;stroke-width:1.4;stroke-dasharray:7,7;" width="4" x="549.931" y="427.1979"/><rect fill="#DDDDDD" height="2" style="stroke:#999999;stroke-width:1.4;stroke-dasharray:7,7;" width="4" x="549.931" y="431.1979"/><text fill="#555555" font-family="'Inter, Helvetica, sans-serif'" font-size="14" font-style="italic" lengthAdjust="spacing" textLength="64.3298" x="387.8356" y="455.1639">&#171;planned&#187;</text><text fill="#555555" font-family="'Inter, Helvetica, sans-serif'" font-size="14" lengthAdjust="spacing" textLength="42.4899" x="293.07" y="474.2318">Parser</text><text fill="#555555" font-family="'Inter, Helvetica, sans-serif'" font-size="14" lengthAdjust="spacing" textLength="174.3414" x="293.07" y="493.2997">Parser.parse(text, oldTree)</text><text fill="#555555" font-family="'Inter, Helvetica, sans-serif'" font-size="14" lengthAdjust="spacing" textLength="253.861" x="293.07" y="512.3676">[incremental: Wagner &amp; Graham 1998]</text></g><!--entity QUERY--><g class="entity" data-qualified-name="REND.web-tree-sitter .WASM..QUERY" data-source-line="23" id="ent0009"><rect fill="#DDDDDD" height="87.2038" rx="4" ry="4" style="stroke:#999999;stroke-width:1.4;stroke-dasharray:7,7;" width="188.4834" x="54.76" y="429.7279"/><rect fill="#DDDDDD" height="10" style="stroke:#999999;stroke-width:1.4;stroke-dasharray:7,7;" width="15" x="223.2434" y="434.7279"/><rect fill="#DDDDDD" height="2" style="stroke:#999999;stroke-width:1.4;stroke-dasharray:7,7;" width="4" x="221.2434" y="436.7279"/><rect fill="#DDDDDD" height="2" style="stroke:#999999;stroke-width:1.4;stroke-dasharray:7,7;" width="4" x="221.2434" y="440.7279"/><text fill="#555555" font-family="'Inter, Helvetica, sans-serif'" font-size="14" font-style="italic" lengthAdjust="spacing" textLength="64.3298" x="111.8368" y="464.6939">&#171;planned&#187;</text><text fill="#555555" font-family="'Inter, Helvetica, sans-serif'" font-size="14" lengthAdjust="spacing" textLength="148.4834" x="69.76" y="483.7618">Query (highlights.scm)</text><text fill="#555555" font-family="'Inter, Helvetica, sans-serif'" font-size="14" lengthAdjust="spacing" textLength="107.0701" x="69.76" y="502.8297">capture &#8594; name</text></g><!--entity STYLEMAP--><g class="entity" data-qualified-name="REND.web-tree-sitter .WASM..STYLEMAP" data-source-line="24" id="ent0010"><rect fill="#DDDDDD" height="87.2038" rx="4" ry="4" style="stroke:#999999;stroke-width:1.4;stroke-dasharray:7,7;" width="169.036" x="297.48" y="689.4679"/><rect fill="#DDDDDD" height="10" style="stroke:#999999;stroke-width:1.4;stroke-dasharray:7,7;" width="15" x="446.516" y="694.4679"/><rect fill="#DDDDDD" height="2" style="stroke:#999999;stroke-width:1.4;stroke-dasharray:7,7;" width="4" x="444.516" y="696.4679"/><rect fill="#DDDDDD" height="2" style="stroke:#999999;stroke-width:1.4;stroke-dasharray:7,7;" width="4" x="444.516" y="700.4679"/><text fill="#555555" font-family="'Inter, Helvetica, sans-serif'" font-size="14" font-style="italic" lengthAdjust="spacing" textLength="64.3298" x="344.8331" y="724.4339">&#171;planned&#187;</text><text fill="#555555" font-family="'Inter, Helvetica, sans-serif'" font-size="14" lengthAdjust="spacing" textLength="129.036" x="312.48" y="743.5018">capture &#8594; CSS class</text><text fill="#555555" font-family="'Inter, Helvetica, sans-serif'" font-size="14" lengthAdjust="spacing" textLength="64.4698" x="312.48" y="762.5697">style-map</text></g><!--entity LANG--><g class="entity" data-qualified-name="GR.LANG" data-source-line="29" id="ent0012"><rect fill="#DDDDDD" height="68.1358" rx="4" ry="4" style="stroke:#999999;stroke-width:1.4;stroke-dasharray:7,7;" width="242.0752" x="303.96" y="107.0679"/><rect fill="#DDDDDD" height="10" style="stroke:#999999;stroke-width:1.4;stroke-dasharray:7,7;" width="15" x="526.0352" y="112.0679"/><rect fill="#DDDDDD" height="2" style="stroke:#999999;stroke-width:1.4;stroke-dasharray:7,7;" width="4" x="524.0352" y="114.0679"/><rect fill="#DDDDDD" height="2" style="stroke:#999999;stroke-width:1.4;stroke-dasharray:7,7;" width="4" x="524.0352" y="118.0679"/><text fill="#555555" font-family="'Inter, Helvetica, sans-serif'" font-size="14" font-style="italic" lengthAdjust="spacing" textLength="64.3298" x="387.8327" y="142.0339">&#171;planned&#187;</text><text fill="#555555" font-family="'Inter, Helvetica, sans-serif'" font-size="14" lengthAdjust="spacing" textLength="202.0752" x="318.96" y="161.1018">Language.load(&lt;name&gt;.wasm)</text></g><g class="entity" data-qualified-name="GMN20" data-source-line="41" id="ent0021"><path d="M1412.84,696.6579 L1412.84,769.482 A4,4 0 0 0 1416.84,773.482 L1897.1513,773.482 A4,4 0 0 0 1901.1513,769.482 L1901.1513,702.6579 L1891.1513,692.6579 L1416.84,692.6579 A4,4 0 0 0 1412.84,696.6579" fill="#FFF6D6" style="stroke:#7F6B14;stroke-width:0.5;"/><path d="M1891.1513,692.6579 L1891.1513,700.6579 A2,2 0 0 0 1893.1513,702.6579 L1901.1513,702.6579 L1891.1513,692.6579" fill="#FFF6D6" style="stroke:#7F6B14;stroke-width:1;"/><text fill="#000000" font-family="'Inter, Helvetica, sans-serif'" font-size="13" lengthAdjust="spacing" textLength="199.9792" x="1418.84" y="711.5549">On an edit (live-refresh), only the</text><text fill="#000000" font-family="'Inter, Helvetica, sans-serif'" font-size="13" font-weight="700" lengthAdjust="spacing" textLength="101.2181" x="1622.1992" y="711.5549">changed region</text><text fill="#000000" font-family="'Inter, Helvetica, sans-serif'" font-size="13" lengthAdjust="spacing" textLength="75.5431" x="1726.7973" y="711.5549">is re-parsed:</text><text fill="#000000" font-family="'Inter, Helvetica, sans-serif'" font-size="13" lengthAdjust="spacing" textLength="467.3113" x="1418.84" y="729.2609">`Parser.parse(newText, oldTree)` reuses unchanged subtrees, then the query</text><text fill="#000000" font-family="'Inter, Helvetica, sans-serif'" font-size="13" lengthAdjust="spacing" textLength="449.3973" x="1418.84" y="746.967">re-runs over the affected range &#8212; incremental, not a full re-highlight. The</text><text fill="#000000" font-family="'Inter, Helvetica, sans-serif'" font-size="13" lengthAdjust="spacing" textLength="217.7747" x="1418.84" y="764.673">capture&#8594;class style-map reuses the</text><text fill="#000000" font-family="'Inter, Helvetica, sans-serif'" font-size="13" font-weight="700" lengthAdjust="spacing" textLength="217.9582" x="1639.9948" y="764.673">same hljs-style --vv-* token colors</text><text fill="#000000" font-family="'Inter, Helvetica, sans-serif'" font-size="13" lengthAdjust="spacing" textLength="3.484" x="1857.9529" y="764.673">.</text></g><!--link LANG to PARSER--><g class="link" data-entity-1="ent0012" data-entity-2="ent0008" data-link-type="dependency" data-source-line="32" id="lnk13"><path d="M425,175.6079 C425,233.1579 425,346.2579 425,414.8379" fill="none" id="LANG-to-PARSER" style="stroke:#999999;stroke-width:2;stroke-dasharray:7,7;"/><polygon fill="#999999" points="425,419.8379,429,410.8379,425,414.8379,421,410.8379,425,419.8379" style="stroke:#999999;stroke-width:2;stroke-linejoin:miter;stroke-miterlimit:10;"/><text fill="#000000" font-family="'Inter, Helvetica, sans-serif'" font-size="13" lengthAdjust="spacing" textLength="148.8371" x="453.053" y="222.0949">(1) load grammar WASM</text><text fill="#000000" font-family="'Inter, Helvetica, sans-serif'" font-size="13" lengthAdjust="spacing" textLength="202.9432" x="426" y="239.8009">(bundled base64 or user registry)</text></g><!--link STATE to PARSER--><g class="link" data-entity-1="ent0004" data-entity-2="ent0008" data-link-type="dependency" data-source-line="33" id="lnk14"><path d="M734.79,689.3379 C739.35,649.9279 739.01,592.2679 707,556.4679 C667.19,511.9479 633.42,542.9079 576,526.4679 C574.8,526.1279 578.4031,527.1672 577.1931,526.8172" fill="none" id="STATE-to-PARSER" style="stroke:#999999;stroke-width:2;stroke-dasharray:7,7;"/><polygon fill="#999999" points="572.39,525.4279,579.9241,531.7712,577.1931,526.8172,582.147,524.0862,572.39,525.4279" style="stroke:#999999;stroke-width:2;stroke-linejoin:miter;stroke-miterlimit:10;"/><text fill="#000000" font-family="'Inter, Helvetica, sans-serif'" font-size="13" lengthAdjust="spacing" textLength="137.5661" x="719" y="571.3649">(2) parse(text, oldTree)</text></g><!--link PARSER to SF--><g class="link" data-entity-1="ent0008" data-entity-2="ent0006" data-link-type="dependency" data-source-line="34" id="lnk15"><path d="M572.33,525.6379 C573.56,525.9279 574.78,526.1979 576,526.4679 C812.49,578.8479 906.27,465.8279 1118,583.4679 C1160.91,607.3179 1190.9118,649.8783 1210.4318,684.6383" fill="none" id="PARSER-to-SF" style="stroke:#999999;stroke-width:2;stroke-dasharray:7,7;"/><polygon fill="#999999" points="1212.88,688.9979,1211.9609,679.192,1210.4318,684.6383,1204.9855,683.1092,1212.88,688.9979" style="stroke:#999999;stroke-width:2;stroke-linejoin:miter;stroke-miterlimit:10;"/><text fill="#000000" font-family="'Inter, Helvetica, sans-serif'" font-size="13" lengthAdjust="spacing" textLength="164.0587" x="1094.14" y="571.3649">(3) syntax tree &#8594; StateField</text></g><!--link SF to QUERY--><g class="link" data-entity-1="ent0006" data-entity-2="ent0009" data-link-type="dependency" data-source-line="35" id="lnk16"><path d="M1214.02,688.9779 C1194.92,653.4479 1162.45,605.4279 1118,583.4679 C1097.55,573.3679 318.76,582.3079 297,575.4679 C286.79,572.2579 248.9319,546.2296 212.2919,520.1196" fill="none" id="SF-to-QUERY" style="stroke:#999999;stroke-width:2;stroke-dasharray:7,7;"/><polygon fill="#999999" points="208.22,517.2179,213.2281,525.6984,212.2919,520.1196,217.8707,519.1834,208.22,517.2179" style="stroke:#999999;stroke-width:2;stroke-linejoin:miter;stroke-miterlimit:10;"/><text fill="#000000" font-family="'Inter, Helvetica, sans-serif'" font-size="13" lengthAdjust="spacing" textLength="195.6762" x="298" y="571.3649">(4) run highlight query over tree</text></g><!--link QUERY to STYLEMAP--><g class="link" data-entity-1="ent0009" data-entity-2="ent0010" data-link-type="dependency" data-source-line="36" id="lnk17"><path d="M138.45,517.3779 C136.1,536.2279 136.62,557.9779 146,575.4679 C177.85,634.8279 238.6643,673.4038 292.5343,698.3938" fill="none" id="QUERY-to-STYLEMAP" style="stroke:#999999;stroke-width:2;stroke-dasharray:7,7;"/><polygon fill="#999999" points="297.07,700.4979,290.589,693.082,292.5343,698.3938,287.2224,700.3391,297.07,700.4979" style="stroke:#999999;stroke-width:2;stroke-linejoin:miter;stroke-miterlimit:10;"/><text fill="#000000" font-family="'Inter, Helvetica, sans-serif'" font-size="13" lengthAdjust="spacing" textLength="109.9931" x="147" y="571.3649">(5) capture names</text></g><!--link STYLEMAP to VP--><g class="link" data-entity-1="ent0010" data-entity-2="ent0005" data-link-type="dependency" data-source-line="37" id="lnk18"><path d="M437.22,689.1779 C481.57,656.8879 546.98,615.6679 612,597.9879 C711.5,570.9279 748.6,558.8679 844,597.9879 C888.81,616.3679 923.7687,653.2892 948.2987,685.2992" fill="none" id="STYLEMAP-to-VP" style="stroke:#2D9574;stroke-width:2;stroke-dasharray:7,7;"/><polygon fill="#2D9574" points="951.34,689.2679,949.0406,679.6912,948.2987,685.2992,942.6907,684.5573,951.34,689.2679" style="stroke:#2D9574;stroke-width:2;stroke-linejoin:miter;stroke-miterlimit:10;"/><text fill="#000000" font-family="'Inter, Helvetica, sans-serif'" font-size="13" lengthAdjust="spacing" textLength="202.8507" x="503" y="571.3649">(6) class per range &#8594; Decorations</text></g><!--link VP to SV--><g class="link" data-entity-1="ent0005" data-entity-2="ent0002" data-link-type="dependency" data-source-line="38" id="lnk19"><path d="M981,776.8779 C981,801.5879 981,827.5879 981,852.3279" fill="none" id="VP-to-SV" style="stroke:#2D9574;stroke-width:2;stroke-dasharray:7,7;"/><polygon fill="#2D9574" points="981,857.3279,985,848.3279,981,852.3279,977,848.3279,981,857.3279" style="stroke:#2D9574;stroke-width:2;stroke-linejoin:miter;stroke-miterlimit:10;"/><text fill="#000000" font-family="'Inter, Helvetica, sans-serif'" font-size="13" lengthAdjust="spacing" textLength="164.2162" x="982" y="823.5749">(7) styled, read-only source</text></g><!--link REND to GMN20--><g class="link" data-entity-1="ent0001" data-entity-2="ent0021" data-link-type="association" data-source-line="41" id="lnk22"><path d="M1389.2925,482.0784 C1389.4417,482.2177 1389.5927,482.3588 1389.7456,482.5015 C1390.0513,482.7871 1390.3644,483.0795 1390.6846,483.3786 C1391.3252,483.9769 1391.9947,484.6022 1392.6922,485.2537 C1394.0873,486.5566 1395.5946,487.9643 1397.2072,489.4704 C1400.4323,492.4825 1404.0785,495.8877 1408.0903,499.6343 C1424.1375,514.6207 1446.0338,535.0685 1470.225,557.6592 C1518.6075,602.8404 1576.17,656.5929 1614.48,692.3679" fill="none" id="REND-GMN20" style="stroke:#555555;stroke-width:1.3;stroke-dasharray:7,7;"/></g><g class="legend" data-source-line="47"><rect fill="none" height="90.2717" rx="4" ry="4" style="stroke:#000000;stroke-width:1;" width="429.2984" x="1467.8529" y="988.8779"/><text fill="#000000" font-family="'Inter, Helvetica, sans-serif'" font-size="14" font-weight="700" lengthAdjust="spacing" textLength="74.5917" x="1476.4928" y="1010.8439">color/style</text><text fill="#000000" font-family="'Inter, Helvetica, sans-serif'" font-size="14" font-weight="700" lengthAdjust="spacing" textLength="55.5798" x="1636.9462" y="1010.8439">concept</text><rect fill="#2D9574" height="19.0679" style="stroke:none;stroke-width:1;" width="160.4534" x="1472.8529" y="1014.9458"/><text fill="#000000" font-family="'Inter, Helvetica, sans-serif'" font-size="14" lengthAdjust="spacing" textLength="3.64" x="1472.8529" y="1029.9118">&#160;</text><text fill="#000000" font-family="'Inter, Helvetica, sans-serif'" font-size="14" lengthAdjust="spacing" textLength="159.1514" x="1636.9462" y="1029.9118">renderer (Chromium UI)</text><rect fill="#9F8766" height="19.0679" style="stroke:none;stroke-width:1;" width="160.4534" x="1472.8529" y="1034.0138"/><text fill="#000000" font-family="'Inter, Helvetica, sans-serif'" font-size="14" lengthAdjust="spacing" textLength="3.64" x="1472.8529" y="1048.9797">&#160;</text><text fill="#000000" font-family="'Inter, Helvetica, sans-serif'" font-size="14" lengthAdjust="spacing" textLength="251.565" x="1636.9462" y="1048.9797">grammar source (filesystem / registry)</text><text fill="#000000" font-family="'Inter, Helvetica, sans-serif'" font-size="14" lengthAdjust="spacing" textLength="153.1734" x="1476.4928" y="1068.0476">dashed grey &#171;planned&#187;</text><text fill="#000000" font-family="'Inter, Helvetica, sans-serif'" font-size="14" lengthAdjust="spacing" textLength="182.6853" x="1636.9462" y="1068.0476">NOT yet built (Forthcoming)</text><line style="stroke:#000000;stroke-width:1;" x1="1472.8529" x2="1892.1513" y1="995.8779" y2="995.8779"/><line style="stroke:#000000;stroke-width:1;" x1="1472.8529" x2="1892.1513" y1="1014.9458" y2="1014.9458"/><line style="stroke:#000000;stroke-width:1;" x1="1472.8529" x2="1892.1513" y1="1034.0138" y2="1034.0138"/><line style="stroke:#000000;stroke-width:1;" x1="1472.8529" x2="1892.1513" y1="1053.0817" y2="1053.0817"/><line style="stroke:#000000;stroke-width:1;" x1="1472.8529" x2="1892.1513" y1="1072.1496" y2="1072.1496"/><line style="stroke:#000000;stroke-width:1;" x1="1472.8529" x2="1472.8529" y1="995.8779" y2="1072.1496"/><line style="stroke:#000000;stroke-width:1;" x1="1633.3062" x2="1633.3062" y1="995.8779" y2="1072.1496"/><line style="stroke:#000000;stroke-width:1;" x1="1892.1513" x2="1892.1513" y1="995.8779" y2="1072.1496"/></g></g></svg>