<svg xmlns="http://www.w3.org/2000/svg" xmlns:xlink="http://www.w3.org/1999/xlink" contentStyleType="text/css" data-diagram-type="DESCRIPTION" height="1155px" preserveAspectRatio="none" style="width:1909px;height:1155px;background:#FBF8EF;" version="1.1" viewBox="0 0 1909 1155" width="1909px" zoomAndPan="magnify"><?plantuml $version$?><defs/><g><rect fill="#FBF8EF" height="1155" style="stroke:none;stroke-width:1;" width="1909" x="0" y="0"/><g class="title" data-source-line="9"><text fill="#000000" font-family="'Inter, Helvetica, sans-serif'" font-size="14" font-weight="700" lengthAdjust="spacing" textLength="399.1805" x="751.8969" y="24.9659">Source preview via tree-sitter (superseded legacy design)</text></g><!--cluster REND--><g class="cluster" data-qualified-name="REND" data-source-line="11" id="ent0001"><rect fill="#2D9574" height="738.81" rx="4" ry="4" style="stroke:#888888;stroke-width:1;" width="1382" x="7" y="287.2779"/><text fill="#000000" font-family="'Inter, Helvetica, sans-serif'" font-size="14" font-weight="700" lengthAdjust="spacing" textLength="220.9331" x="587.5334" y="304.2439">Electron RENDERER (Chromium)</text></g><!--cluster read-only CodeMirror 6 editor--><g class="cluster" data-qualified-name="REND.read-only CodeMirror 6 editor" data-source-line="14" id="ent0003"><path d="M616,629.6079 L821.6052,629.6079 A6,6 0 0 1 825.6052,633.6079 L832.6052,654.6758 L1345,654.6758 A4,4 0 0 1 1349,658.6758 L1349,845.8879 A4,4 0 0 1 1345,849.8879 L616,849.8879 A4,4 0 0 1 612,845.8879 L612,633.6079 A4,4 0 0 1 616,629.6079" fill="none" style="stroke:#888888;stroke-width:1.5;"/><line style="stroke:#888888;stroke-width:1.5;" x1="612" x2="832.6052" y1="654.6758" y2="654.6758"/><text fill="#000000" font-family="'Inter, Helvetica, sans-serif'" font-size="14" font-weight="700" lengthAdjust="spacing" textLength="207.6052" x="616" y="646.5739">read-only CodeMirror 6 editor</text><text fill="#000000" font-family="'Inter, Helvetica, sans-serif'" font-size="14" font-style="italic" lengthAdjust="spacing" textLength="64.3298" x="952.3351" y="671.6418">&#171;planned&#187;</text></g><!--cluster web-tree-sitter (WASM)--><g class="cluster" data-qualified-name="REND.web-tree-sitter .WASM." data-source-line="20" id="ent0007"><path d="M43,341.2779 L203.4554,341.2779 A6,6 0 0 1 207.4554,345.2779 L214.4554,366.3458 L584,366.3458 A4,4 0 0 1 588,370.3458 L588,845.8879 A4,4 0 0 1 584,849.8879 L43,849.8879 A4,4 0 0 1 39,845.8879 L39,345.2779 A4,4 0 0 1 43,341.2779" fill="none" style="stroke:#888888;stroke-width:1.5;"/><line style="stroke:#888888;stroke-width:1.5;" x1="39" x2="214.4554" y1="366.3458" y2="366.3458"/><text fill="#000000" font-family="'Inter, Helvetica, sans-serif'" font-size="14" font-weight="700" lengthAdjust="spacing" textLength="162.4554" x="43" y="358.2439">web-tree-sitter (WASM)</text><text fill="#000000" font-family="'Inter, Helvetica, sans-serif'" font-size="14" font-style="italic" lengthAdjust="spacing" textLength="64.3298" x="285.3351" y="383.3118">&#171;planned&#187;</text></g><!--cluster GR--><g class="cluster" data-qualified-name="GR" data-source-line="27" id="ent0011"><rect fill="#9F8766" height="163.21" rx="4" ry="4" style="stroke:#888888;stroke-width:1;" width="274" x="288" y="47.0679"/><text fill="#000000" font-family="'Inter, Helvetica, sans-serif'" font-size="14" font-weight="700" lengthAdjust="spacing" textLength="115.7936" x="367.1032" y="64.0339">grammar source</text></g><!--entity SV--><g class="entity" data-qualified-name="REND.SV" data-source-line="12" id="ent0002"><rect fill="#DDDDDD" height="87.2038" rx="4" ry="4" style="stroke:#999999;stroke-width:1.4;stroke-dasharray:7,7;" width="133.2397" x="914.38" y="914.8879"/><rect fill="#DDDDDD" height="10" style="stroke:#999999;stroke-width:1.4;stroke-dasharray:7,7;" width="15" x="1027.6197" y="919.8879"/><rect fill="#DDDDDD" height="2" style="stroke:#999999;stroke-width:1.4;stroke-dasharray:7,7;" width="4" x="1025.6197" y="921.8879"/><rect fill="#DDDDDD" height="2" style="stroke:#999999;stroke-width:1.4;stroke-dasharray:7,7;" width="4" x="1025.6197" y="925.8879"/><text fill="#555555" font-family="'Inter, Helvetica, sans-serif'" font-size="14" font-style="italic" lengthAdjust="spacing" textLength="64.3298" x="943.8349" y="949.8539">&#171;planned&#187;</text><text fill="#555555" font-family="'Inter, Helvetica, sans-serif'" font-size="14" lengthAdjust="spacing" textLength="78.3577" x="929.38" y="968.9218">source-view</text><text fill="#555555" font-family="'Inter, Helvetica, sans-serif'" font-size="14" lengthAdjust="spacing" textLength="93.2397" x="929.38" y="987.9897">Strategy entry</text></g><!--entity STATE--><g class="entity" data-qualified-name="REND.read-only CodeMirror 6 editor.STATE" data-source-line="15" id="ent0004"><rect fill="#DDDDDD" height="106.2717" rx="4" ry="4" style="stroke:#999999;stroke-width:1.4;stroke-dasharray:7,7;" width="198.8574" x="627.57" y="727.6079"/><rect fill="#DDDDDD" height="10" style="stroke:#999999;stroke-width:1.4;stroke-dasharray:7,7;" width="15" x="806.4274" y="732.6079"/><rect fill="#DDDDDD" height="2" style="stroke:#999999;stroke-width:1.4;stroke-dasharray:7,7;" width="4" x="804.4274" y="734.6079"/><rect fill="#DDDDDD" height="2" style="stroke:#999999;stroke-width:1.4;stroke-dasharray:7,7;" width="4" x="804.4274" y="738.6079"/><text fill="#555555" font-family="'Inter, Helvetica, sans-serif'" font-size="14" font-style="italic" lengthAdjust="spacing" textLength="64.3298" x="689.8338" y="762.5739">&#171;planned&#187;</text><text fill="#555555" font-family="'Inter, Helvetica, sans-serif'" font-size="14" lengthAdjust="spacing" textLength="72.8557" x="642.57" y="781.6418">EditorState</text><text fill="#555555" font-family="'Inter, Helvetica, sans-serif'" font-size="14" lengthAdjust="spacing" textLength="158.8574" x="642.57" y="800.7097">(doc text from :doc/text)</text><text fill="#555555" font-family="'Inter, Helvetica, sans-serif'" font-size="14" lengthAdjust="spacing" textLength="82.5997" x="642.57" y="819.7776">(legacy plan)</text></g><!--entity VP--><g class="entity" data-qualified-name="REND.read-only CodeMirror 6 editor.VP" data-source-line="16" id="ent0005"><rect fill="#DDDDDD" height="106.2717" rx="4" ry="4" style="stroke:#999999;stroke-width:1.4;stroke-dasharray:7,7;" width="238.3652" x="861.82" y="727.6079"/><rect fill="#DDDDDD" height="10" style="stroke:#999999;stroke-width:1.4;stroke-dasharray:7,7;" width="15" x="1080.1852" y="732.6079"/><rect fill="#DDDDDD" height="2" style="stroke:#999999;stroke-width:1.4;stroke-dasharray:7,7;" width="4" x="1078.1852" y="734.6079"/><rect fill="#DDDDDD" height="2" style="stroke:#999999;stroke-width:1.4;stroke-dasharray:7,7;" width="4" x="1078.1852" y="738.6079"/><text fill="#555555" font-family="'Inter, Helvetica, sans-serif'" font-size="14" font-style="italic" lengthAdjust="spacing" textLength="64.3298" x="943.8377" y="762.5739">&#171;planned&#187;</text><text fill="#555555" font-family="'Inter, Helvetica, sans-serif'" font-size="14" lengthAdjust="spacing" textLength="72.5197" x="876.82" y="781.6418">ViewPlugin</text><text fill="#555555" font-family="'Inter, Helvetica, sans-serif'" font-size="14" lengthAdjust="spacing" textLength="198.3652" x="876.82" y="800.7097">(viewport-cached decorations)</text><text fill="#555555" font-family="'Inter, Helvetica, sans-serif'" font-size="14" lengthAdjust="spacing" textLength="82.5997" x="876.82" y="819.7776">(legacy plan)</text></g><!--entity SF--><g class="entity" data-qualified-name="REND.read-only CodeMirror 6 editor.SF" data-source-line="17" id="ent0006"><rect fill="#DDDDDD" height="106.2717" rx="4" ry="4" style="stroke:#999999;stroke-width:1.4;stroke-dasharray:7,7;" width="197.9754" x="1135.01" y="727.6079"/><rect fill="#DDDDDD" height="10" style="stroke:#999999;stroke-width:1.4;stroke-dasharray:7,7;" width="15" x="1312.9854" y="732.6079"/><rect fill="#DDDDDD" height="2" style="stroke:#999999;stroke-width:1.4;stroke-dasharray:7,7;" width="4" x="1310.9854" y="734.6079"/><rect fill="#DDDDDD" height="2" style="stroke:#999999;stroke-width:1.4;stroke-dasharray:7,7;" width="4" x="1310.9854" y="738.6079"/><text fill="#555555" font-family="'Inter, Helvetica, sans-serif'" font-size="14" font-style="italic" lengthAdjust="spacing" textLength="64.3298" x="1196.8328" y="762.5739">&#171;planned&#187;</text><text fill="#555555" font-family="'Inter, Helvetica, sans-serif'" font-size="14" lengthAdjust="spacing" textLength="64.5398" x="1150.01" y="781.6418">StateField</text><text fill="#555555" font-family="'Inter, Helvetica, sans-serif'" font-size="14" lengthAdjust="spacing" textLength="157.9754" x="1150.01" y="800.7097">(incremental parse tree)</text><text fill="#555555" font-family="'Inter, Helvetica, sans-serif'" font-size="14" lengthAdjust="spacing" textLength="82.5997" x="1150.01" y="819.7776">(legacy plan)</text></g><!--entity PARSER--><g class="entity" data-qualified-name="REND.web-tree-sitter .WASM..PARSER" data-source-line="21" id="ent0008"><rect fill="#DDDDDD" height="125.3396" rx="4" ry="4" style="stroke:#999999;stroke-width:1.4;stroke-dasharray:7,7;" width="293.861" x="278.07" y="439.2779"/><rect fill="#DDDDDD" height="10" style="stroke:#999999;stroke-width:1.4;stroke-dasharray:7,7;" width="15" x="551.931" y="444.2779"/><rect fill="#DDDDDD" height="2" style="stroke:#999999;stroke-width:1.4;stroke-dasharray:7,7;" width="4" x="549.931" y="446.2779"/><rect fill="#DDDDDD" height="2" style="stroke:#999999;stroke-width:1.4;stroke-dasharray:7,7;" width="4" x="549.931" y="450.2779"/><text fill="#555555" font-family="'Inter, Helvetica, sans-serif'" font-size="14" font-style="italic" lengthAdjust="spacing" textLength="64.3298" x="387.8356" y="474.2439">&#171;planned&#187;</text><text fill="#555555" font-family="'Inter, Helvetica, sans-serif'" font-size="14" lengthAdjust="spacing" textLength="42.4899" x="293.07" y="493.3118">Parser</text><text fill="#555555" font-family="'Inter, Helvetica, sans-serif'" font-size="14" lengthAdjust="spacing" textLength="174.3414" x="293.07" y="512.3797">Parser.parse(text, oldTree)</text><text fill="#555555" font-family="'Inter, Helvetica, sans-serif'" font-size="14" lengthAdjust="spacing" textLength="253.861" x="293.07" y="531.4476">[incremental: Wagner &amp; Graham 1998]</text><text fill="#555555" font-family="'Inter, Helvetica, sans-serif'" font-size="14" lengthAdjust="spacing" textLength="82.5997" x="293.07" y="550.5155">(legacy plan)</text></g><!--entity QUERY--><g class="entity" data-qualified-name="REND.web-tree-sitter .WASM..QUERY" data-source-line="22" id="ent0009"><rect fill="#DDDDDD" height="106.2717" rx="4" ry="4" style="stroke:#999999;stroke-width:1.4;stroke-dasharray:7,7;" width="188.4834" x="54.76" y="448.8079"/><rect fill="#DDDDDD" height="10" style="stroke:#999999;stroke-width:1.4;stroke-dasharray:7,7;" width="15" x="223.2434" y="453.8079"/><rect fill="#DDDDDD" height="2" style="stroke:#999999;stroke-width:1.4;stroke-dasharray:7,7;" width="4" x="221.2434" y="455.8079"/><rect fill="#DDDDDD" height="2" style="stroke:#999999;stroke-width:1.4;stroke-dasharray:7,7;" width="4" x="221.2434" y="459.8079"/><text fill="#555555" font-family="'Inter, Helvetica, sans-serif'" font-size="14" font-style="italic" lengthAdjust="spacing" textLength="64.3298" x="111.8368" y="483.7739">&#171;planned&#187;</text><text fill="#555555" font-family="'Inter, Helvetica, sans-serif'" font-size="14" lengthAdjust="spacing" textLength="148.4834" x="69.76" y="502.8418">Query (highlights.scm)</text><text fill="#555555" font-family="'Inter, Helvetica, sans-serif'" font-size="14" lengthAdjust="spacing" textLength="107.0701" x="69.76" y="521.9097">capture &#8594; name</text><text fill="#555555" font-family="'Inter, Helvetica, sans-serif'" font-size="14" lengthAdjust="spacing" textLength="82.5997" x="69.76" y="540.9776">(legacy plan)</text></g><!--entity STYLEMAP--><g class="entity" data-qualified-name="REND.web-tree-sitter .WASM..STYLEMAP" data-source-line="23" id="ent0010"><rect fill="#DDDDDD" height="106.2717" rx="4" ry="4" style="stroke:#999999;stroke-width:1.4;stroke-dasharray:7,7;" width="169.036" x="297.48" y="727.6079"/><rect fill="#DDDDDD" height="10" style="stroke:#999999;stroke-width:1.4;stroke-dasharray:7,7;" width="15" x="446.516" y="732.6079"/><rect fill="#DDDDDD" height="2" style="stroke:#999999;stroke-width:1.4;stroke-dasharray:7,7;" width="4" x="444.516" y="734.6079"/><rect fill="#DDDDDD" height="2" style="stroke:#999999;stroke-width:1.4;stroke-dasharray:7,7;" width="4" x="444.516" y="738.6079"/><text fill="#555555" font-family="'Inter, Helvetica, sans-serif'" font-size="14" font-style="italic" lengthAdjust="spacing" textLength="64.3298" x="344.8331" y="762.5739">&#171;planned&#187;</text><text fill="#555555" font-family="'Inter, Helvetica, sans-serif'" font-size="14" lengthAdjust="spacing" textLength="129.036" x="312.48" y="781.6418">capture &#8594; CSS class</text><text fill="#555555" font-family="'Inter, Helvetica, sans-serif'" font-size="14" lengthAdjust="spacing" textLength="64.4698" x="312.48" y="800.7097">style-map</text><text fill="#555555" font-family="'Inter, Helvetica, sans-serif'" font-size="14" lengthAdjust="spacing" textLength="82.5997" x="312.48" y="819.7776">(legacy plan)</text></g><!--entity LANG--><g class="entity" data-qualified-name="GR.LANG" data-source-line="28" id="ent0012"><rect fill="#DDDDDD" height="87.2038" rx="4" ry="4" style="stroke:#999999;stroke-width:1.4;stroke-dasharray:7,7;" width="242.0752" x="303.96" y="107.0679"/><rect fill="#DDDDDD" height="10" style="stroke:#999999;stroke-width:1.4;stroke-dasharray:7,7;" width="15" x="526.0352" y="112.0679"/><rect fill="#DDDDDD" height="2" style="stroke:#999999;stroke-width:1.4;stroke-dasharray:7,7;" width="4" x="524.0352" y="114.0679"/><rect fill="#DDDDDD" height="2" style="stroke:#999999;stroke-width:1.4;stroke-dasharray:7,7;" width="4" x="524.0352" y="118.0679"/><text fill="#555555" font-family="'Inter, Helvetica, sans-serif'" font-size="14" font-style="italic" lengthAdjust="spacing" textLength="64.3298" x="387.8327" y="142.0339">&#171;planned&#187;</text><text fill="#555555" font-family="'Inter, Helvetica, sans-serif'" font-size="14" lengthAdjust="spacing" textLength="202.0752" x="318.96" y="161.1018">Language.load(&lt;name&gt;.wasm)</text><text fill="#555555" font-family="'Inter, Helvetica, sans-serif'" font-size="14" lengthAdjust="spacing" textLength="82.5997" x="318.96" y="180.1697">(legacy plan)</text></g><g class="entity" data-qualified-name="GMN20" data-source-line="40" id="ent0021"><path d="M1413.02,762.0379 L1413.02,799.4499 A4,4 0 0 0 1417.02,803.4499 L1890.9743,803.4499 A4,4 0 0 0 1894.9743,799.4499 L1894.9743,768.0379 L1884.9743,758.0379 L1417.02,758.0379 A4,4 0 0 0 1413.02,762.0379" fill="#FFF6D6" style="stroke:#7F6B14;stroke-width:0.5;"/><path d="M1884.9743,758.0379 L1884.9743,766.0379 A2,2 0 0 0 1886.9743,768.0379 L1894.9743,768.0379 L1884.9743,758.0379" fill="#FFF6D6" style="stroke:#7F6B14;stroke-width:1;"/><text fill="#000000" font-family="'Inter, Helvetica, sans-serif'" font-size="13" lengthAdjust="spacing" textLength="459.3945" x="1419.02" y="776.9349">Superseded by component-source-preview.puml. Current runtime provides</text><text fill="#000000" font-family="'Inter, Helvetica, sans-serif'" font-size="13" lengthAdjust="spacing" textLength="460.9543" x="1419.02" y="794.6409">read-only CodeMirror 6 source previews with grammar registry integration.</text></g><!--link LANG to PARSER--><g class="link" data-entity-1="ent0012" data-entity-2="ent0008" data-link-type="dependency" data-source-line="31" id="lnk13"><path d="M425,194.4979 C425,255.7079 425,363.5479 425,433.8979" fill="none" id="LANG-to-PARSER" style="stroke:#999999;stroke-width:2;stroke-dasharray:7,7;"/><polygon fill="#999999" points="425,438.8979,429,429.8979,425,433.8979,421,429.8979,425,438.8979" style="stroke:#999999;stroke-width:2;stroke-linejoin:miter;stroke-miterlimit:10;"/><text fill="#000000" font-family="'Inter, Helvetica, sans-serif'" font-size="13" lengthAdjust="spacing" textLength="148.8371" x="453.053" y="241.1749">(1) load grammar WASM</text><text fill="#000000" font-family="'Inter, Helvetica, sans-serif'" font-size="13" lengthAdjust="spacing" textLength="202.9432" x="426" y="258.8809">(bundled base64 or user registry)</text></g><!--link STATE to PARSER--><g class="link" data-entity-1="ent0004" data-entity-2="ent0008" data-link-type="dependency" data-source-line="32" id="lnk14"><path d="M736.34,727.3779 C740.49,686.2879 738.68,630.2479 707,594.6079 C667.32,549.9679 632.95,582.6279 576,564.6079 C574.79,564.2279 578.3362,565.3491 577.1062,564.9591" fill="none" id="STATE-to-PARSER" style="stroke:#999999;stroke-width:2;stroke-dasharray:7,7;"/><polygon fill="#999999" points="572.34,563.4479,579.7101,569.981,577.1062,564.9591,582.1281,562.3552,572.34,563.4479" style="stroke:#999999;stroke-width:2;stroke-linejoin:miter;stroke-miterlimit:10;"/><text fill="#000000" font-family="'Inter, Helvetica, sans-serif'" font-size="13" lengthAdjust="spacing" textLength="137.5661" x="719.53" y="609.5049">(2) parse(text, oldTree)</text></g><!--link PARSER to SF--><g class="link" data-entity-1="ent0008" data-entity-2="ent0006" data-link-type="dependency" data-source-line="33" id="lnk15"><path d="M572.28,563.6579 C573.52,563.9879 574.76,564.3079 576,564.6079 C810.96,623.4579 908.08,500.7679 1118,621.6079 C1159.61,645.5679 1188.2002,686.7052 1207.6202,722.7852" fill="none" id="PARSER-to-SF" style="stroke:#999999;stroke-width:2;stroke-dasharray:7,7;"/><polygon fill="#999999" points="1209.99,727.1879,1209.2466,717.3672,1207.6202,722.7852,1202.2022,721.1588,1209.99,727.1879" style="stroke:#999999;stroke-width:2;stroke-linejoin:miter;stroke-miterlimit:10;"/><text fill="#000000" font-family="'Inter, Helvetica, sans-serif'" font-size="13" lengthAdjust="spacing" textLength="164.0587" x="1094.33" y="609.5049">(3) syntax tree &#8594; StateField</text></g><!--link SF to QUERY--><g class="link" data-entity-1="ent0006" data-entity-2="ent0009" data-link-type="dependency" data-source-line="34" id="lnk16"><path d="M1211.27,727.1179 C1192.23,690.2379 1161.17,643.7479 1118,621.6079 C1097.71,611.2079 318.61,620.9179 297,613.6079 C278.08,607.2179 246.4535,584.0049 214.9535,558.6249" fill="none" id="SF-to-QUERY" style="stroke:#999999;stroke-width:2;stroke-dasharray:7,7;"/><polygon fill="#999999" points="211.06,555.4879,215.5586,564.2493,214.9535,558.6249,220.5779,558.0198,211.06,555.4879" style="stroke:#999999;stroke-width:2;stroke-linejoin:miter;stroke-miterlimit:10;"/><text fill="#000000" font-family="'Inter, Helvetica, sans-serif'" font-size="13" lengthAdjust="spacing" textLength="195.6762" x="298" y="609.5049">(4) run highlight query over tree</text></g><!--link QUERY to STYLEMAP--><g class="link" data-entity-1="ent0009" data-entity-2="ent0010" data-link-type="dependency" data-source-line="35" id="lnk17"><path d="M137.29,555.4579 C135.59,574.6979 136.88,596.0379 146,613.6079 C177.68,674.6579 238.7502,715.7572 292.7502,742.8272" fill="none" id="QUERY-to-STYLEMAP" style="stroke:#999999;stroke-width:2;stroke-dasharray:7,7;"/><polygon fill="#999999" points="297.22,745.0679,290.9669,737.4588,292.7502,742.8272,287.3818,744.6105,297.22,745.0679" style="stroke:#999999;stroke-width:2;stroke-linejoin:miter;stroke-miterlimit:10;"/><text fill="#000000" font-family="'Inter, Helvetica, sans-serif'" font-size="13" lengthAdjust="spacing" textLength="109.9931" x="147" y="609.5049">(5) capture names</text></g><!--link STYLEMAP to VP--><g class="link" data-entity-1="ent0010" data-entity-2="ent0005" data-link-type="dependency" data-source-line="36" id="lnk18"><path d="M446.18,727.1379 C489.89,694.2579 550.73,655.2179 612,637.7179 C711.15,609.4079 749.17,597.2379 844,637.7179 C886.69,655.9479 919.4736,690.7078 943.7436,723.2978" fill="none" id="STYLEMAP-to-VP" style="stroke:#2D9574;stroke-width:2;stroke-dasharray:7,7;"/><polygon fill="#2D9574" points="946.73,727.3079,944.5626,717.7005,943.7436,723.2978,938.1464,722.4787,946.73,727.3079" style="stroke:#2D9574;stroke-width:2;stroke-linejoin:miter;stroke-miterlimit:10;"/><text fill="#000000" font-family="'Inter, Helvetica, sans-serif'" font-size="13" lengthAdjust="spacing" textLength="202.8507" x="503" y="609.5049">(6) class per range &#8594; Decorations</text></g><!--link VP to SV--><g class="link" data-entity-1="ent0005" data-entity-2="ent0002" data-link-type="dependency" data-source-line="37" id="lnk19"><path d="M981,833.9979 C981,859.6979 981,885.2879 981,909.5979" fill="none" id="VP-to-SV" style="stroke:#2D9574;stroke-width:2;stroke-dasharray:7,7;"/><polygon fill="#2D9574" points="981,914.5979,985,905.5979,981,909.5979,977,905.5979,981,914.5979" style="stroke:#2D9574;stroke-width:2;stroke-linejoin:miter;stroke-miterlimit:10;"/><text fill="#000000" font-family="'Inter, Helvetica, sans-serif'" font-size="13" lengthAdjust="spacing" textLength="164.2162" x="982" y="880.7849">(7) styled, read-only source</text></g><!--link REND to GMN20--><g class="link" data-entity-1="ent0001" data-entity-2="ent0021" data-link-type="association" data-source-line="40" id="lnk22"><path d="M1389.2252,511.2846 C1389.5507,511.6146 1389.885,511.9536 1390.2281,512.3014 C1395.7173,517.8664 1403.4405,525.6968 1412.8105,535.197 C1431.5503,554.1973 1456.8769,579.8767 1484.0913,607.4704 C1538.52,662.6579 1600.5,725.5029 1632.44,757.8879" fill="none" id="REND-GMN20" style="stroke:#555555;stroke-width:1.3;stroke-dasharray:7,7;"/></g><g class="legend" data-source-line="44"><rect fill="none" height="90.2717" rx="4" ry="4" style="stroke:#000000;stroke-width:1;" width="437.3483" x="1453.626" y="1046.0879"/><text fill="#000000" font-family="'Inter, Helvetica, sans-serif'" font-size="14" font-weight="700" lengthAdjust="spacing" textLength="74.5917" x="1462.266" y="1068.0539">color/style</text><text fill="#000000" font-family="'Inter, Helvetica, sans-serif'" font-size="14" font-weight="700" lengthAdjust="spacing" textLength="55.5798" x="1622.7194" y="1068.0539">concept</text><rect fill="#2D9574" height="19.0679" style="stroke:none;stroke-width:1;" width="160.4534" x="1458.626" y="1072.1558"/><text fill="#000000" font-family="'Inter, Helvetica, sans-serif'" font-size="14" lengthAdjust="spacing" textLength="3.64" x="1458.626" y="1087.1218">&#160;</text><text fill="#000000" font-family="'Inter, Helvetica, sans-serif'" font-size="14" lengthAdjust="spacing" textLength="159.1514" x="1622.7194" y="1087.1218">renderer (Chromium UI)</text><rect fill="#9F8766" height="19.0679" style="stroke:none;stroke-width:1;" width="160.4534" x="1458.626" y="1091.2238"/><text fill="#000000" font-family="'Inter, Helvetica, sans-serif'" font-size="14" lengthAdjust="spacing" textLength="3.64" x="1458.626" y="1106.1897">&#160;</text><text fill="#000000" font-family="'Inter, Helvetica, sans-serif'" font-size="14" lengthAdjust="spacing" textLength="251.565" x="1622.7194" y="1106.1897">grammar source (filesystem / registry)</text><text fill="#000000" font-family="'Inter, Helvetica, sans-serif'" font-size="14" lengthAdjust="spacing" textLength="153.1734" x="1462.266" y="1125.2576">dashed grey &#171;planned&#187;</text><text fill="#000000" font-family="'Inter, Helvetica, sans-serif'" font-size="14" lengthAdjust="spacing" textLength="259.615" x="1622.7194" y="1125.2576">superseded legacy planned component</text><line style="stroke:#000000;stroke-width:1;" x1="1458.626" x2="1885.9743" y1="1053.0879" y2="1053.0879"/><line style="stroke:#000000;stroke-width:1;" x1="1458.626" x2="1885.9743" y1="1072.1558" y2="1072.1558"/><line style="stroke:#000000;stroke-width:1;" x1="1458.626" x2="1885.9743" y1="1091.2238" y2="1091.2238"/><line style="stroke:#000000;stroke-width:1;" x1="1458.626" x2="1885.9743" y1="1110.2917" y2="1110.2917"/><line style="stroke:#000000;stroke-width:1;" x1="1458.626" x2="1885.9743" y1="1129.3596" y2="1129.3596"/><line style="stroke:#000000;stroke-width:1;" x1="1458.626" x2="1458.626" y1="1053.0879" y2="1129.3596"/><line style="stroke:#000000;stroke-width:1;" x1="1619.0794" x2="1619.0794" y1="1053.0879" y2="1129.3596"/><line style="stroke:#000000;stroke-width:1;" x1="1885.9743" x2="1885.9743" y1="1053.0879" y2="1129.3596"/></g><?plantuml-src hLPjJzj84FxkNp47qX5BEAWS3GL1f0W2EebKQGnKLQbE6tjmLbtl-dRNeTRHh_S3xYVUBxdPtP0N6iXzg9KeiNVdcPbddvdnpWwS_iGhsjc1eM3ItWokG4rHmm1roNWEOynORV0Ox8GRe0y3mHhKc4Ecoaf9b1OgNg7W4g5rpmN2lt__um2vp3IMjCu4L4mRGgKLo5XbQ-rtmLcQWh6DmAHaLNYYSXnmhPM673EbcULAchWDr-JVexeGJ5qX0UOKXS22PGrjDhoGeD4o2YI7Um9m0JBDZPBmmEt4MSzZJeogTOP9fN7AyQ5TrQLeknq_bTPVY0DHvmX_JAU9dH0RRKwEeiXoIqIbFWQOnG1Jpi1gnCHmQucjrajfnb6aCRDC5WIorHVqNrEIe_xxy_weFuBMsKIhaZp5My2CVmxR--T7RmyFuAy8bavkQqQ3ytydKqjyOz40BUd6swQtS79IaJI8r6ut8kEAPLzPGNuriZnHKZJBXzO1pBbLUclPp3jTSTltcr9BxkvaArSPMFncuPx2XcEwtNEtCItDydPG8PdqkdVTNudf6VGjfJ8KTS4bcRkyAgLjah5iGZGkQseT-ktmDMWVxmL7aPFj3_BsPxS-vejdgDzNY7p0SR9oxXzxwI3UmE3GLzIT3Bzj7q7BiROBIkJN8PJFIq4UmqTMI8B_5Iurcx0ItXmTlVkoBjvXRvIIZ5vXuaEDke7MX1SJGLzhsYOhoU5oSKjMuZhq3pVzqQVNm9ztY4mmO-xal56ibyMdg_wWD_o1wEyhjL9eLfPCGv2zjxmSmVRHnRl3JkTvRLoHKKqdr1QAvQqJbq-t_S1CkVQGhthlBrUyasV_39BFsqV-sisP8HNkKY_DlaeqvdJ_Iz9zeliOMczYSBxWAKmd1F8rhcKkIBrZPh1p05HcjUkc6Wjkg53ZA1J5__Up7yCwmKIp7Pk0ICzq4SvlCPY6nFNDQzyVsA96eh1j4rYGWqCxY47N4kQYWZ-zolmySlXHsBenkYSf4EJRU3vltF6PQBv8AA4Zle12dS01TE8WFwWSuII8aENveez4RYTinAD6EYFjC0upBz-5HGiDWemYgIp2M5bBZL3T-zPDeamNWs3SR1XYS5PhxVHBN5fUkl6Yffm61-6yqBBDoXmoVbhEDVYaCfhdD1j2qkq8PGukrYYYGd0tsfqOkNWyfVY4qdi-nt0hCwmiFBfLE9dHrAN_56PEhn9wCR3WvlTulZ5KfTkuMhRXDSCqnc89Uuioc1a6_ia6cvKM-hZcjM6skbJrZowraDD_?></g></svg>