<svg xmlns="http://www.w3.org/2000/svg" xmlns:xlink="http://www.w3.org/1999/xlink" contentStyleType="text/css" data-diagram-type="DESCRIPTION" height="762px" preserveAspectRatio="none" style="width:939px;height:762px;background:#FBF8EF;" version="1.1" viewBox="0 0 939 762" width="939px" zoomAndPan="magnify"><?plantuml $version$?><defs/><g><rect fill="#FBF8EF" height="762" style="stroke:none;stroke-width:1;" width="939" x="0" y="0"/><g class="title" data-source-line="4"><text fill="#000000" font-family="'Inter, Helvetica, sans-serif'" font-size="14" font-weight="700" lengthAdjust="spacing" textLength="343.1387" x="294.4306" y="24.9659">Bounded content retention and render metadata</text></g><!--cluster Renderer process--><g class="cluster" data-qualified-name="Renderer process" data-source-line="8" id="ent0001"><path d="M10,46.6699 L129.8555,46.6699 A6,6 0 0 1 133.8555,50.6699 L140.8555,71.7378 L487,71.7378 A4,4 0 0 1 491,75.7378 L491,469.5399 A4,4 0 0 1 487,473.5399 L10,473.5399 A4,4 0 0 1 6,469.5399 L6,50.6699 A4,4 0 0 1 10,46.6699" fill="#E3F2ED" style="stroke:#888888;stroke-width:1.5;"/><line style="stroke:#888888;stroke-width:1.5;" x1="6" x2="140.8555" y1="71.7378" y2="71.7378"/><text fill="#1A1A1A" font-family="'Inter, Helvetica, sans-serif'" font-size="14" font-weight="700" lengthAdjust="spacing" textLength="121.8555" x="10" y="63.6358">Renderer process</text></g><!--cluster Preload IPC mediator--><g class="cluster" data-qualified-name="Preload IPC mediator" data-source-line="15" id="ent0006"><path d="M519,207.8099 L665.3855,207.8099 A6,6 0 0 1 669.3855,211.8099 L676.3855,232.8778 L689,232.8778 A4,4 0 0 1 693,236.8778 L693,315.9399 A4,4 0 0 1 689,319.9399 L519,319.9399 A4,4 0 0 1 515,315.9399 L515,211.8099 A4,4 0 0 1 519,207.8099" fill="#F4F1E1" style="stroke:#888888;stroke-width:1.5;"/><line style="stroke:#888888;stroke-width:1.5;" x1="515" x2="676.3855" y1="232.8778" y2="232.8778"/><text fill="#1A1A1A" font-family="'Inter, Helvetica, sans-serif'" font-size="14" font-weight="700" lengthAdjust="spacing" textLength="148.3855" x="519" y="224.7758">Preload IPC mediator</text></g><!--cluster Main process--><g class="cluster" data-qualified-name="Main process" data-source-line="19" id="ent0008"><path d="M525,370.9399 L615.0076,370.9399 A6,6 0 0 1 619.0076,374.9399 L626.0076,396.0078 L920,396.0078 A4,4 0 0 1 924,400.0078 L924,608.6799 A4,4 0 0 1 920,612.6799 L525,612.6799 A4,4 0 0 1 521,608.6799 L521,374.9399 A4,4 0 0 1 525,370.9399" fill="#E4E8F1" style="stroke:#888888;stroke-width:1.5;"/><line style="stroke:#888888;stroke-width:1.5;" x1="521" x2="626.0076" y1="396.0078" y2="396.0078"/><text fill="#1A1A1A" font-family="'Inter, Helvetica, sans-serif'" font-size="14" font-weight="700" lengthAdjust="spacing" textLength="92.0076" x="525" y="387.9058">Main process</text></g><!--entity Tabs--><g class="entity" data-qualified-name="Renderer process.Tabs" data-source-line="9" id="ent0002"><rect fill="#C5CFEA" height="58.1358" rx="4" ry="4" style="stroke:#4A4A4A;stroke-width:1.4;" width="149.2895" x="325.36" y="84.6699"/><text fill="#1A1A1A" font-family="'Inter, Helvetica, sans-serif'" font-size="14" lengthAdjust="spacing" textLength="129.2895" x="335.36" y="109.6358">app-db tabs/history</text><text fill="#1A1A1A" font-family="'Inter, Helvetica, sans-serif'" font-size="14" lengthAdjust="spacing" textLength="60.0318" x="335.36" y="128.7038">(:ui :tabs)</text></g><!--entity DS--><g class="entity" data-qualified-name="Renderer process.DS" data-source-line="10" id="ent0003"><rect fill="#E0CDE2" height="58.1358" rx="4" ry="4" style="stroke:#4A4A4A;stroke-width:1.4;" width="225.5332" x="51.23" y="245.8099"/><text fill="#1A1A1A" font-family="'Inter, Helvetica, sans-serif'" font-size="14" lengthAdjust="spacing" textLength="164.0654" x="61.23" y="270.7758">DataScript content cache</text><text fill="#1A1A1A" font-family="'Inter, Helvetica, sans-serif'" font-size="14" lengthAdjust="spacing" textLength="205.5332" x="61.23" y="289.8438">(:doc/html :doc/toc :doc/assets)</text></g><!--entity MD--><g class="entity" data-qualified-name="Renderer process.MD" data-source-line="11" id="ent0004"><rect fill="#D7EEC1" height="58.1358" rx="4" ry="4" style="stroke:#4A4A4A;stroke-width:1.4;" width="268.905" x="21.55" y="84.6699"/><text fill="#1A1A1A" font-family="'Inter, Helvetica, sans-serif'" font-size="14" lengthAdjust="spacing" textLength="174.9433" x="31.55" y="109.6358">Markdown render pipeline</text><text fill="#1A1A1A" font-family="'Inter, Helvetica, sans-serif'" font-size="14" lengthAdjust="spacing" textLength="248.905" x="31.55" y="128.7038">unified / rehype / tree-sitter post-pass</text></g><!--entity Toc--><g class="entity" data-qualified-name="Renderer process.Toc" data-source-line="12" id="ent0005"><rect fill="#C4D9EB" height="58.1358" rx="4" ry="4" style="stroke:#4A4A4A;stroke-width:1.4;" width="192.1153" x="199.94" y="399.4099"/><text fill="#1A1A1A" font-family="'Inter, Helvetica, sans-serif'" font-size="14" lengthAdjust="spacing" textLength="134.5535" x="209.94" y="424.3758">TOC scroll-spy cache</text><text fill="#1A1A1A" font-family="'Inter, Helvetica, sans-serif'" font-size="14" lengthAdjust="spacing" textLength="172.1153" x="209.94" y="443.4438">measured heading offsets</text></g><!--entity VV--><g class="entity" data-qualified-name="Preload IPC mediator.VV" data-source-line="16" id="ent0007"><rect fill="#EEE6C1" height="58.1358" rx="4" ry="4" style="stroke:#4A4A4A;stroke-width:1.4;" width="146.1955" x="530.9" y="245.8099"/><text fill="#1A1A1A" font-family="'Inter, Helvetica, sans-serif'" font-size="14" lengthAdjust="spacing" textLength="69.3277" x="540.9" y="270.7758">window.vv</text><text fill="#1A1A1A" font-family="'Inter, Helvetica, sans-serif'" font-size="14" lengthAdjust="spacing" textLength="126.1955" x="540.9" y="289.8438">JSON IPC boundary</text></g><!--entity Retained--><g class="entity" data-qualified-name="Main process.Retained" data-source-line="20" id="ent0009"><rect fill="#C9D2E6" height="39.0679" rx="4" ry="4" style="stroke:#4A4A4A;stroke-width:1.4;" width="122.2276" x="542.89" y="408.9399"/><text fill="#1A1A1A" font-family="'Inter, Helvetica, sans-serif'" font-size="14" lengthAdjust="spacing" textLength="102.2276" x="552.89" y="433.9058">retained file set</text></g><!--entity Watchers--><g class="entity" data-qualified-name="Main process.Watchers" data-source-line="21" id="ent0010"><rect fill="#DFD9D0" height="58.1358" rx="4" ry="4" style="stroke:#4A4A4A;stroke-width:1.4;" width="130.3756" x="536.81" y="538.5399"/><text fill="#1A1A1A" font-family="'Inter, Helvetica, sans-serif'" font-size="14" lengthAdjust="spacing" textLength="83.2437" x="546.81" y="563.5058">file watchers</text><text fill="#1A1A1A" font-family="'Inter, Helvetica, sans-serif'" font-size="14" lengthAdjust="spacing" textLength="110.3756" x="546.81" y="582.5738">chokidar by path</text></g><!--entity Assets--><g class="entity" data-qualified-name="Main process.Assets" data-source-line="22" id="ent0011"><rect fill="#DFD9D0" height="58.1358" rx="4" ry="4" style="stroke:#4A4A4A;stroke-width:1.4;" width="189.3293" x="702.34" y="538.5399"/><text fill="#1A1A1A" font-family="'Inter, Helvetica, sans-serif'" font-size="14" lengthAdjust="spacing" textLength="97.5236" x="712.34" y="563.5058">asset watchers</text><text fill="#1A1A1A" font-family="'Inter, Helvetica, sans-serif'" font-size="14" lengthAdjust="spacing" textLength="169.3293" x="712.34" y="582.5738">ref-counted by owner doc</text></g><!--link Tabs to DS--><g class="link" data-entity-1="ent0002" data-entity-2="ent0003" data-link-type="dependency" data-source-line="25" id="lnk12"><path d="M325.2,137.5899 C319.38,139.3599 313.59,141.1099 308,142.8099 C263.59,156.2399 242.71,142.0099 208,172.8099 C186.67,191.7299 176.5093,218.0259 170.6993,240.7359" fill="none" id="Tabs-to-DS" style="stroke:#336699;stroke-width:2;"/><polygon fill="#336699" points="169.46,245.5799,175.5659,237.8521,170.6993,240.7359,167.8155,235.8693,169.46,245.5799" style="stroke:#336699;stroke-width:2;stroke-linejoin:miter;stroke-miterlimit:10;"/><text fill="#000000" font-family="'Inter, Helvetica, sans-serif'" font-size="13" lengthAdjust="spacing" textLength="209.2872" x="209" y="187.7069">evict docs not in retained histories</text></g><!--link Tabs to VV--><g class="link" data-entity-1="ent0002" data-entity-2="ent0007" data-link-type="dependency" data-source-line="26" id="lnk13"><path d="M436.47,143.1899 C473.49,172.0699 526.5273,213.445 563.5573,242.325" fill="none" id="Tabs-to-VV" style="stroke:#7F6B14;stroke-width:2;"/><polygon fill="#7F6B14" points="567.5,245.3999,562.8631,236.7109,563.5573,242.325,557.9432,243.0192,567.5,245.3999" style="stroke:#7F6B14;stroke-width:2;stroke-linejoin:miter;stroke-miterlimit:10;"/><text fill="#000000" font-family="'Inter, Helvetica, sans-serif'" font-size="13" lengthAdjust="spacing" textLength="150.3062" x="496.88" y="187.7069">syncRetainedFiles(paths)</text></g><!--link VV to Retained--><g class="link" data-entity-1="ent0007" data-entity-2="ent0009" data-link-type="dependency" data-source-line="27" id="lnk14"><path d="M604,304.3899 C604,334.9199 604,377.4999 604,403.6599" fill="none" id="VV-to-Retained" style="stroke:#7F6B14;stroke-width:2;"/><polygon fill="#7F6B14" points="604,408.6599,608,399.6599,604,403.6599,600,399.6599,604,408.6599" style="stroke:#7F6B14;stroke-width:2;stroke-linejoin:miter;stroke-miterlimit:10;"/><text fill="#000000" font-family="'Inter, Helvetica, sans-serif'" font-size="13" lengthAdjust="spacing" textLength="97.0191" x="605" y="350.8369">vv:retained-files</text></g><!--link Retained to Watchers--><g class="link" data-entity-1="ent0009" data-entity-2="ent0010" data-link-type="dependency" data-source-line="28" id="lnk15"><path d="M589.52,448.3199 C581.78,459.6099 573.03,474.6299 569,489.5399 C564.48,506.2699 568.7275,519.8024 577.3075,534.1024" fill="none" id="Retained-to-Watchers" style="stroke:#27406F;stroke-width:2;"/><polygon fill="#27406F" points="579.88,538.3899,578.6795,528.6145,577.3075,534.1024,571.8196,532.7304,579.88,538.3899" style="stroke:#27406F;stroke-width:2;stroke-linejoin:miter;stroke-miterlimit:10;"/><text fill="#000000" font-family="'Inter, Helvetica, sans-serif'" font-size="13" lengthAdjust="spacing" textLength="139.4901" x="570" y="504.4369">close unretained paths</text></g><!--link Retained to Assets--><g class="link" data-entity-1="ent0009" data-entity-2="ent0011" data-link-type="dependency" data-source-line="29" id="lnk16"><path d="M644.37,448.4699 C665.83,459.3099 692.19,473.8399 714,489.5399 C734.11,504.0199 750.9842,519.3946 766.5342,534.8546" fill="none" id="Retained-to-Assets" style="stroke:#27406F;stroke-width:2;"/><polygon fill="#27406F" points="770.08,538.3799,766.5178,529.1978,766.5342,534.8546,760.8774,534.8711,770.08,538.3799" style="stroke:#27406F;stroke-width:2;stroke-linejoin:miter;stroke-miterlimit:10;"/><text fill="#000000" font-family="'Inter, Helvetica, sans-serif'" font-size="13" lengthAdjust="spacing" textLength="153.2961" x="736.93" y="504.4369">release doc asset owners</text></g><!--link MD to DS--><g class="link" data-entity-1="ent0004" data-entity-2="ent0003" data-link-type="dependency" data-source-line="30" id="lnk17"><path d="M78.05,143.2499 C57.71,155.5499 43.95,171.7699 54,191.8099 C65.27,214.2799 81.7387,229.4335 102.1387,242.7035" fill="none" id="MD-to-DS" style="stroke:#487E12;stroke-width:2;"/><polygon fill="#487E12" points="106.33,245.4299,100.9668,237.1694,102.1387,242.7035,96.6046,243.8754,106.33,245.4299" style="stroke:#487E12;stroke-width:2;stroke-linejoin:miter;stroke-miterlimit:10;"/><text fill="#000000" font-family="'Inter, Helvetica, sans-serif'" font-size="13" lengthAdjust="spacing" textLength="112.1251" x="55" y="187.7069">{:html :toc :assets}</text></g><!--link DS to Toc--><g class="link" data-entity-1="ent0003" data-entity-2="ent0005" data-link-type="dependency" data-source-line="31" id="lnk18"><path d="M188.83,304.3899 C212.43,331.4899 244.4368,368.2589 267.9968,395.3189" fill="none" id="DS-to-Toc" style="stroke:#336699;stroke-width:2;"/><polygon fill="#336699" points="271.28,399.0899,268.387,389.6755,267.9968,395.3189,262.3534,394.9287,271.28,399.0899" style="stroke:#336699;stroke-width:2;stroke-linejoin:miter;stroke-miterlimit:10;"/><text fill="#000000" font-family="'Inter, Helvetica, sans-serif'" font-size="13" lengthAdjust="spacing" textLength="92.0791" x="231" y="350.8369">stored :doc/toc</text></g><!--link Toc to Tabs--><g class="link" data-entity-1="ent0005" data-entity-2="ent0002" data-link-type="dependency" data-source-line="32" id="lnk19"><path d="M310.99,399.2499 C317.79,385.9799 325.69,369.8299 332,354.9399 C360.53,287.5799 332.21,248.2799 387,199.8099 C399.27,188.9499 412.74,204.5899 423,191.8099 C434.1,177.9699 430.8841,163.3057 422.4541,147.5957" fill="none" id="Toc-to-Tabs" style="stroke:#336699;stroke-width:2;"/><polygon fill="#336699" points="420.09,143.1899,420.8208,153.0116,422.4541,147.5957,427.8701,149.229,420.09,143.1899" style="stroke:#336699;stroke-width:2;stroke-linejoin:miter;stroke-miterlimit:10;"/><text fill="#000000" font-family="'Inter, Helvetica, sans-serif'" font-size="13" lengthAdjust="spacing" textLength="126.3081" x="388" y="280.2669">active heading event</text></g><g class="legend" data-source-line="34"><rect fill="none" height="109.3396" rx="4" ry="4" style="stroke:#000000;stroke-width:1;" width="393.4866" x="269.2567" y="633.6799"/><rect fill="#7590DB" height="19.0679" style="stroke:none;stroke-width:1;" width="14.5599" x="274.2567" y="640.6799"/><text fill="#000000" font-family="'Inter, Helvetica, sans-serif'" font-size="14" lengthAdjust="spacing" textLength="14.5599" x="274.2567" y="655.6458">&#160;&#160;&#160;&#160;</text><text fill="#000000" font-family="'Inter, Helvetica, sans-serif'" font-size="14" lengthAdjust="spacing" textLength="329.9088" x="292.4566" y="655.6458">app-db owns tab histories and therefore retention</text><rect fill="#A45BAD" height="19.0679" style="stroke:none;stroke-width:1;" width="14.5599" x="274.2567" y="659.7478"/><text fill="#000000" font-family="'Inter, Helvetica, sans-serif'" font-size="14" lengthAdjust="spacing" textLength="14.5599" x="274.2567" y="674.7138">&#160;&#160;&#160;&#160;</text><text fill="#000000" font-family="'Inter, Helvetica, sans-serif'" font-size="14" lengthAdjust="spacing" textLength="361.6467" x="292.4566" y="674.7138">DataScript stores bounded rendered content metadata</text><rect fill="#B1951D" height="19.0679" style="stroke:none;stroke-width:1;" width="14.5599" x="274.2567" y="678.8157"/><text fill="#000000" font-family="'Inter, Helvetica, sans-serif'" font-size="14" lengthAdjust="spacing" textLength="14.5599" x="274.2567" y="693.7817">&#160;&#160;&#160;&#160;</text><text fill="#000000" font-family="'Inter, Helvetica, sans-serif'" font-size="14" lengthAdjust="spacing" textLength="312.1147" x="292.4566" y="693.7817">IPC mediator is the only renderer-main channel</text><rect fill="#3A5BA0" height="19.0679" style="stroke:none;stroke-width:1;" width="14.5599" x="274.2567" y="697.8836"/><text fill="#000000" font-family="'Inter, Helvetica, sans-serif'" font-size="14" lengthAdjust="spacing" textLength="14.5599" x="274.2567" y="712.8496">&#160;&#160;&#160;&#160;</text><text fill="#000000" font-family="'Inter, Helvetica, sans-serif'" font-size="14" lengthAdjust="spacing" textLength="208.9772" x="292.4566" y="712.8496">MAIN owns filesystem watchers</text><rect fill="#67B11D" height="19.0679" style="stroke:none;stroke-width:1;" width="14.5599" x="274.2567" y="716.9516"/><text fill="#000000" font-family="'Inter, Helvetica, sans-serif'" font-size="14" lengthAdjust="spacing" textLength="14.5599" x="274.2567" y="731.9175">&#160;&#160;&#160;&#160;</text><text fill="#000000" font-family="'Inter, Helvetica, sans-serif'" font-size="14" lengthAdjust="spacing" textLength="298.2549" x="292.4566" y="731.9175">Markdown render emits structured metadata</text><line style="stroke:#000000;stroke-width:1;" x1="274.2567" x2="657.7433" y1="640.6799" y2="640.6799"/><line style="stroke:#000000;stroke-width:1;" x1="274.2567" x2="657.7433" y1="659.7478" y2="659.7478"/><line style="stroke:#000000;stroke-width:1;" x1="274.2567" x2="657.7433" y1="678.8157" y2="678.8157"/><line style="stroke:#000000;stroke-width:1;" x1="274.2567" x2="657.7433" y1="697.8836" y2="697.8836"/><line style="stroke:#000000;stroke-width:1;" x1="274.2567" x2="657.7433" y1="716.9516" y2="716.9516"/><line style="stroke:#000000;stroke-width:1;" x1="274.2567" x2="657.7433" y1="736.0195" y2="736.0195"/><line style="stroke:#000000;stroke-width:1;" x1="274.2567" x2="274.2567" y1="640.6799" y2="736.0195"/><line style="stroke:#000000;stroke-width:1;" x1="288.8167" x2="288.8167" y1="640.6799" y2="736.0195"/><line style="stroke:#000000;stroke-width:1;" x1="657.7433" x2="657.7433" y1="640.6799" y2="736.0195"/></g><?plantuml-src ZLLTRzis57tNhxXBWBK5fYJEXzreMm4vjW5tiMFONllG505DNSU49L8WAML2q_--IyfIt7G9zk1OqUKvlEVS3xzv0xEKIVltv1fKYHecg3Cc4bWXPuL1i1jXWAiiLnAbXLBW0qZ4n504mMoOneJYgTBXgWgvaXnpws8P0fC9VG3_oLF1XONnx0fMgf09qzLHy8kGF2qIXBko33tWI1HP6WHMs1IXxmvwRcdTpHhTbr3Iqsgae8OCBKkOPK5WjaBcJBFiATc5hOX78xTCtgSO13dZMtQFS33tQCBdMd4qvW3cm-bWE1_ExqRZwslu5W1yONaU9YkmR6MEoGIhT7KhtqQ5WCYzU_SLc84bFK4ycmtwTylnTEbm0yfdmRKW6vhSEUCRTE14yUEDpLBmJrRn-e4PWtR7E5Z085x6YwlvUBPiIITCRnFr81lXkSWn5P982odMWdmwfj2cof4Uh4OCZR3M7LJ6XZbTuCad0vZ4yxy6Dv-dBVNovWeCrofDGvDNJQuPCbEuscwG9KBUWrglNPArQafyFXpDuycmflc-P-vCOwfOugkTOI8OENVW_jlpza58KdDKbhVou-9c-aDd-1i-VVA8dyWdJCYdgatYyNIFbLg4mfJpMb3XALjFDM_U-jEDQd_aWLaIgysjv1kr5NGxh2h8cTruvETT64QB5kTBjGVKkAQkBwZEYSDIYSXqggadY7rTMpW9yVqIVZayE-jsBoz_e-dYMqbQ_Zpz6dvmjOy0Iy6jep0WbGNXQhvJKBUXGDFoz4RTVkVyEG-v5u6f96-qZqYjUUk4cNS1HLz4jcP5K9PHSt7et3916oJuQU_yf3jw3cyTYu2dYjP78Tla_Ut_WsDdMaIoKsf2T5P0RRjtrmJKnOG-VzyRTax_qy9lKJraVi3guVeUKEH5urr3asDahfE-cyt0lNqPuYeG0UDMbDXE2POqxq6GuZtDAVNBun-7lOlBaq7_mw-7dUx9xp__VOJTeY5nncsRfohxJKURaNgC4jlRW8yrStn-qOy7hp3lhIAlpTH3Xit-t5klpIPjkFkToulEQzpxumsY_ZbGCgqQQXrcRbRvXac9QKDx5bFA9w_GkY6jhV0zLncBMJjk3Kktr--ycjppTOcPe9OoLXVS-gss9vTExChrBm00?></g></svg>