<svg xmlns="http://www.w3.org/2000/svg" xmlns:xlink="http://www.w3.org/1999/xlink" contentStyleType="text/css" data-diagram-type="DESCRIPTION" height="980px" preserveAspectRatio="none" style="width:1467px;height:980px;background:#FBF8EF;" version="1.1" viewBox="0 0 1467 980" width="1467px" zoomAndPan="magnify"><?plantuml $version$?><defs/><g><rect fill="#FBF8EF" height="980" style="stroke:none;stroke-width:1;" width="1467" x="0" y="0"/><g class="title" data-source-line="7"><text fill="#000000" font-family="'Inter, Helvetica, sans-serif'" font-size="14" font-weight="700" lengthAdjust="spacing" textLength="604.2656" x="428.1169" y="24.9659">Common document IR &#8212; all front-ends -&gt; one weighted core -&gt; HTML + ANSI back-ends</text></g><!--cluster Format front-ends  (parse -> IR)--><g class="cluster" data-qualified-name="Format front-ends  .parse -. IR." data-source-line="9" id="ent0001"><path d="M10,46.6699 L225.9092,46.6699 A6,6 0 0 1 229.9092,50.6699 L236.9092,71.7378 L1181,71.7378 A4,4 0 0 1 1185,75.7378 L1185,164.7999 A4,4 0 0 1 1181,168.7999 L10,168.7999 A4,4 0 0 1 6,164.7999 L6,50.6699 A4,4 0 0 1 10,46.6699" fill="none" style="stroke:#888888;stroke-width:1.5;"/><line style="stroke:#888888;stroke-width:1.5;" x1="6" x2="236.9092" y1="71.7378" y2="71.7378"/><text fill="#1A1A1A" font-family="'Inter, Helvetica, sans-serif'" font-size="14" font-weight="700" lengthAdjust="spacing" textLength="217.9092" x="10" y="63.6358">Format front-ends  (parse -&gt; IR)</text></g><!--cluster Common IR core  (DOM-free, node-tested)--><g class="cluster" data-qualified-name="Common IR core  .DOM-free. node-tested." data-source-line="18" id="ent0008"><path d="M571,201.7999 L860.4649,201.7999 A6,6 0 0 1 864.4649,205.7999 L871.4649,226.8678 L1116,226.8678 A4,4 0 0 1 1120,230.8678 L1120,487.2099 A4,4 0 0 1 1116,491.2099 L571,491.2099 A4,4 0 0 1 567,487.2099 L567,205.7999 A4,4 0 0 1 571,201.7999" fill="none" style="stroke:#888888;stroke-width:1.5;"/><line style="stroke:#888888;stroke-width:1.5;" x1="567" x2="871.4649" y1="226.8678" y2="226.8678"/><text fill="#1A1A1A" font-family="'Inter, Helvetica, sans-serif'" font-size="14" font-weight="700" lengthAdjust="spacing" textLength="291.4649" x="571" y="218.7658">Common IR core  (DOM-free, node-tested)</text></g><!--cluster Back-ends + capability--><g class="cluster" data-qualified-name="Back-ends . capability" data-source-line="25" id="ent0013"><path d="M364,524.2099 L517.0074,524.2099 A6,6 0 0 1 521.0074,528.2099 L528.0074,549.2778 L1033,549.2778 A4,4 0 0 1 1037,553.2778 L1037,789.4799 A4,4 0 0 1 1033,793.4799 L364,793.4799 A4,4 0 0 1 360,789.4799 L360,528.2099 A4,4 0 0 1 364,524.2099" fill="none" style="stroke:#888888;stroke-width:1.5;"/><line style="stroke:#888888;stroke-width:1.5;" x1="360" x2="528.0074" y1="549.2778" y2="549.2778"/><text fill="#1A1A1A" font-family="'Inter, Helvetica, sans-serif'" font-size="14" font-weight="700" lengthAdjust="spacing" textLength="155.0074" x="364" y="541.1758">Back-ends + capability</text></g><!--entity FMd--><g class="entity" data-qualified-name="Format front-ends  .parse -. IR..FMd" data-source-line="10" id="ent0002"><rect fill="#D7EEC1" height="68.1358" rx="4" ry="4" style="stroke:#4A4A4A;stroke-width:1.4;" width="132.8056" x="202.6" y="84.6699"/><rect fill="#D7EEC1" height="10" style="stroke:#4A4A4A;stroke-width:1.4;" width="15" x="315.4056" y="89.6699"/><rect fill="#D7EEC1" height="2" style="stroke:#4A4A4A;stroke-width:1.4;" width="4" x="313.4056" y="91.6699"/><rect fill="#D7EEC1" height="2" style="stroke:#4A4A4A;stroke-width:1.4;" width="4" x="313.4056" y="95.6699"/><text fill="#1A1A1A" font-family="'Inter, Helvetica, sans-serif'" font-size="14" lengthAdjust="spacing" textLength="70.9377" x="217.6" y="119.6358">markdown</text><text fill="#1A1A1A" font-family="'Inter, Helvetica, sans-serif'" font-size="14" lengthAdjust="spacing" textLength="92.8056" x="217.6" y="138.7038">(rehype HAST)</text></g><!--entity FOrg--><g class="entity" data-qualified-name="Format front-ends  .parse -. IR..FOrg" data-source-line="11" id="ent0003"><rect fill="#D7EEC1" height="68.1358" rx="4" ry="4" style="stroke:#4A4A4A;stroke-width:1.4;" width="186.8454" x="602.58" y="84.6699"/><rect fill="#D7EEC1" height="10" style="stroke:#4A4A4A;stroke-width:1.4;" width="15" x="769.4254" y="89.6699"/><rect fill="#D7EEC1" height="2" style="stroke:#4A4A4A;stroke-width:1.4;" width="4" x="767.4254" y="91.6699"/><rect fill="#D7EEC1" height="2" style="stroke:#4A4A4A;stroke-width:1.4;" width="4" x="767.4254" y="95.6699"/><text fill="#1A1A1A" font-family="'Inter, Helvetica, sans-serif'" font-size="14" lengthAdjust="spacing" textLength="67.1718" x="617.58" y="119.6358">org / latex</text><text fill="#1A1A1A" font-family="'Inter, Helvetica, sans-serif'" font-size="14" lengthAdjust="spacing" textLength="146.8454" x="617.58" y="138.7038">(uniorg / unified-latex)</text></g><!--entity FOf--><g class="entity" data-qualified-name="Format front-ends  .parse -. IR..FOf" data-source-line="12" id="ent0004"><rect fill="#D7EEC1" height="68.1358" rx="4" ry="4" style="stroke:#4A4A4A;stroke-width:1.4;" width="162.3455" x="824.83" y="84.6699"/><rect fill="#D7EEC1" height="10" style="stroke:#4A4A4A;stroke-width:1.4;" width="15" x="967.1755" y="89.6699"/><rect fill="#D7EEC1" height="2" style="stroke:#4A4A4A;stroke-width:1.4;" width="4" x="965.1755" y="91.6699"/><rect fill="#D7EEC1" height="2" style="stroke:#4A4A4A;stroke-width:1.4;" width="4" x="965.1755" y="95.6699"/><text fill="#1A1A1A" font-family="'Inter, Helvetica, sans-serif'" font-size="14" lengthAdjust="spacing" textLength="36.3298" x="839.83" y="119.6358">office</text><text fill="#1A1A1A" font-family="'Inter, Helvetica, sans-serif'" font-size="14" lengthAdjust="spacing" textLength="122.3455" x="839.83" y="138.7038">(docx / ODF HTML)</text></g><!--entity FSrc--><g class="entity" data-qualified-name="Format front-ends  .parse -. IR..FSrc" data-source-line="13" id="ent0005"><rect fill="#C7E8DE" height="68.1358" rx="4" ry="4" style="stroke:#4A4A4A;stroke-width:1.4;" width="145.6576" x="22.17" y="84.6699"/><rect fill="#C7E8DE" height="10" style="stroke:#4A4A4A;stroke-width:1.4;" width="15" x="147.8276" y="89.6699"/><rect fill="#C7E8DE" height="2" style="stroke:#4A4A4A;stroke-width:1.4;" width="4" x="145.8276" y="91.6699"/><rect fill="#C7E8DE" height="2" style="stroke:#4A4A4A;stroke-width:1.4;" width="4" x="145.8276" y="95.6699"/><text fill="#1A1A1A" font-family="'Inter, Helvetica, sans-serif'" font-size="14" lengthAdjust="spacing" textLength="44.2258" x="37.17" y="119.6358">source</text><text fill="#1A1A1A" font-family="'Inter, Helvetica, sans-serif'" font-size="14" lengthAdjust="spacing" textLength="105.6576" x="37.17" y="138.7038">(web-tree-sitter)</text></g><!--entity FPdf--><g class="entity" data-qualified-name="Format front-ends  .parse -. IR..FPdf" data-source-line="14" id="ent0006"><rect fill="#C7E8DE" height="68.1358" rx="4" ry="4" style="stroke:#4A4A4A;stroke-width:1.4;" width="146.9876" x="1022.51" y="84.6699"/><rect fill="#C7E8DE" height="10" style="stroke:#4A4A4A;stroke-width:1.4;" width="15" x="1149.4976" y="89.6699"/><rect fill="#C7E8DE" height="2" style="stroke:#4A4A4A;stroke-width:1.4;" width="4" x="1147.4976" y="91.6699"/><rect fill="#C7E8DE" height="2" style="stroke:#4A4A4A;stroke-width:1.4;" width="4" x="1147.4976" y="95.6699"/><text fill="#1A1A1A" font-family="'Inter, Helvetica, sans-serif'" font-size="14" lengthAdjust="spacing" textLength="22.0359" x="1037.51" y="119.6358">pdf</text><text fill="#1A1A1A" font-family="'Inter, Helvetica, sans-serif'" font-size="14" lengthAdjust="spacing" textLength="106.9876" x="1037.51" y="138.7038">(pdf.js text runs)</text></g><!--entity FData--><g class="entity" data-qualified-name="Format front-ends  .parse -. IR..FData" data-source-line="15" id="ent0007"><rect fill="#C7E8DE" height="49.0679" rx="4" ry="4" style="stroke:#4A4A4A;stroke-width:1.4;" width="196.2954" x="370.85" y="94.1999"/><rect fill="#C7E8DE" height="10" style="stroke:#4A4A4A;stroke-width:1.4;" width="15" x="547.1454" y="99.1999"/><rect fill="#C7E8DE" height="2" style="stroke:#4A4A4A;stroke-width:1.4;" width="4" x="545.1454" y="101.1999"/><rect fill="#C7E8DE" height="2" style="stroke:#4A4A4A;stroke-width:1.4;" width="4" x="545.1454" y="105.1999"/><text fill="#1A1A1A" font-family="'Inter, Helvetica, sans-serif'" font-size="14" lengthAdjust="spacing" textLength="156.2954" x="385.85" y="129.1658">table &#183; log &#183; archive &#183; diff</text></g><!--entity Node--><g class="entity" data-qualified-name="Common IR core  .DOM-free. node-tested..Node" data-source-line="19" id="ent0009"><rect fill="#F1D6BE" height="87.2038" rx="4" ry="4" style="stroke:#4A4A4A;stroke-width:1.4;" width="226.6333" x="582.68" y="239.7999"/><rect fill="#F1D6BE" height="10" style="stroke:#4A4A4A;stroke-width:1.4;" width="15" x="789.3133" y="244.7999"/><rect fill="#F1D6BE" height="2" style="stroke:#4A4A4A;stroke-width:1.4;" width="4" x="787.3133" y="246.7999"/><rect fill="#F1D6BE" height="2" style="stroke:#4A4A4A;stroke-width:1.4;" width="4" x="787.3133" y="250.7999"/><text fill="#1A1A1A" font-family="'Inter, Helvetica, sans-serif'" font-size="14" lengthAdjust="spacing" textLength="80.0097" x="597.68" y="274.7658">node / meta</text><text fill="#1A1A1A" font-family="'Inter, Helvetica, sans-serif'" font-size="14" lengthAdjust="spacing" textLength="174.0053" x="597.68" y="293.8338">{kind, children, text, meta}</text><text fill="#1A1A1A" font-family="'Inter, Helvetica, sans-serif'" font-size="14" lengthAdjust="spacing" textLength="186.6333" x="597.68" y="312.9017">span &#183; bbox &#183; role &#183; anchor-id</text></g><!--entity Sem--><g class="entity" data-qualified-name="Common IR core  .DOM-free. node-tested..Sem" data-source-line="20" id="ent0010"><rect fill="#F1D6BE" height="68.1358" rx="4" ry="4" style="stroke:#4A4A4A;stroke-width:1.4;" width="118.0637" x="873.97" y="249.3299"/><rect fill="#F1D6BE" height="10" style="stroke:#4A4A4A;stroke-width:1.4;" width="15" x="972.0337" y="254.3299"/><rect fill="#F1D6BE" height="2" style="stroke:#4A4A4A;stroke-width:1.4;" width="4" x="970.0337" y="256.3299"/><rect fill="#F1D6BE" height="2" style="stroke:#4A4A4A;stroke-width:1.4;" width="4" x="970.0337" y="260.3299"/><text fill="#1A1A1A" font-family="'Inter, Helvetica, sans-serif'" font-size="14" lengthAdjust="spacing" textLength="57.9598" x="888.97" y="284.2958">semiring</text><text fill="#1A1A1A" font-family="'Inter, Helvetica, sans-serif'" font-size="14" lengthAdjust="spacing" textLength="78.0637" x="888.97" y="303.3638">(K, +, x, 0, 1)</text></g><!--entity TT--><g class="entity" data-qualified-name="Common IR core  .DOM-free. node-tested..TT" data-source-line="21" id="ent0011"><rect fill="#F1D6BE" height="87.2038" rx="4" ry="4" style="stroke:#4A4A4A;stroke-width:1.4;" width="206.9494" x="582.53" y="387.9999"/><rect fill="#F1D6BE" height="10" style="stroke:#4A4A4A;stroke-width:1.4;" width="15" x="769.4794" y="392.9999"/><rect fill="#F1D6BE" height="2" style="stroke:#4A4A4A;stroke-width:1.4;" width="4" x="767.4794" y="394.9999"/><rect fill="#F1D6BE" height="2" style="stroke:#4A4A4A;stroke-width:1.4;" width="4" x="767.4794" y="398.9999"/><text fill="#1A1A1A" font-family="'Inter, Helvetica, sans-serif'" font-size="14" lengthAdjust="spacing" textLength="71.7077" x="597.53" y="422.9658">transducer</text><text fill="#1A1A1A" font-family="'Inter, Helvetica, sans-serif'" font-size="14" lengthAdjust="spacing" textLength="166.9494" x="597.53" y="442.0338">weighted tree transducer</text><text fill="#1A1A1A" font-family="'Inter, Helvetica, sans-serif'" font-size="14" lengthAdjust="spacing" textLength="128.4355" x="597.53" y="461.1017">(exact composition)</text></g><!--entity Auto--><g class="entity" data-qualified-name="Common IR core  .DOM-free. node-tested..Auto" data-source-line="22" id="ent0012"><rect fill="#F1D6BE" height="68.1358" rx="4" ry="4" style="stroke:#4A4A4A;stroke-width:1.4;" width="279.5671" x="824.22" y="397.5399"/><rect fill="#F1D6BE" height="10" style="stroke:#4A4A4A;stroke-width:1.4;" width="15" x="1083.7871" y="402.5399"/><rect fill="#F1D6BE" height="2" style="stroke:#4A4A4A;stroke-width:1.4;" width="4" x="1081.7871" y="404.5399"/><rect fill="#F1D6BE" height="2" style="stroke:#4A4A4A;stroke-width:1.4;" width="4" x="1081.7871" y="408.5399"/><text fill="#1A1A1A" font-family="'Inter, Helvetica, sans-serif'" font-size="14" lengthAdjust="spacing" textLength="199.1912" x="839.22" y="432.5058">wpda / decode &#183; earley / forest</text><text fill="#1A1A1A" font-family="'Inter, Helvetica, sans-serif'" font-size="14" lengthAdjust="spacing" textLength="239.5671" x="839.22" y="451.5738">(weighted segmentation, streaming)</text></g><!--entity BHtml--><g class="entity" data-qualified-name="Back-ends . capability.BHtml" data-source-line="26" id="ent0014"><rect fill="#D7EEC1" height="68.1358" rx="4" ry="4" style="stroke:#4A4A4A;stroke-width:1.4;" width="232.3032" x="569.85" y="562.2099"/><rect fill="#D7EEC1" height="10" style="stroke:#4A4A4A;stroke-width:1.4;" width="15" x="782.1532" y="567.2099"/><rect fill="#D7EEC1" height="2" style="stroke:#4A4A4A;stroke-width:1.4;" width="4" x="780.1532" y="569.2099"/><rect fill="#D7EEC1" height="2" style="stroke:#4A4A4A;stroke-width:1.4;" width="4" x="780.1532" y="573.2099"/><text fill="#1A1A1A" font-family="'Inter, Helvetica, sans-serif'" font-size="14" lengthAdjust="spacing" textLength="89.9776" x="584.85" y="597.1758">backend.html</text><text fill="#1A1A1A" font-family="'Inter, Helvetica, sans-serif'" font-size="14" lengthAdjust="spacing" textLength="192.3032" x="584.85" y="616.2438">IR -&gt; HAST -&gt; rehype-stringify</text></g><!--entity BAnsi--><g class="entity" data-qualified-name="Back-ends . capability.BAnsi" data-source-line="27" id="ent0015"><rect fill="#F1D6BE" height="68.1358" rx="4" ry="4" style="stroke:#4A4A4A;stroke-width:1.4;" width="183.3314" x="837.33" y="562.2099"/><rect fill="#F1D6BE" height="10" style="stroke:#4A4A4A;stroke-width:1.4;" width="15" x="1000.6614" y="567.2099"/><rect fill="#F1D6BE" height="2" style="stroke:#4A4A4A;stroke-width:1.4;" width="4" x="998.6614" y="569.2099"/><rect fill="#F1D6BE" height="2" style="stroke:#4A4A4A;stroke-width:1.4;" width="4" x="998.6614" y="573.2099"/><text fill="#1A1A1A" font-family="'Inter, Helvetica, sans-serif'" font-size="14" lengthAdjust="spacing" textLength="86.3937" x="852.33" y="597.1758">backend.ansi</text><text fill="#1A1A1A" font-family="'Inter, Helvetica, sans-serif'" font-size="14" lengthAdjust="spacing" textLength="143.3314" x="852.33" y="616.2438">IR -&gt; ANSI + sixel/kitty</text></g><!--entity San--><g class="entity" data-qualified-name="Back-ends . capability.San" data-source-line="28" id="ent0016"><rect fill="#EEE6C1" height="68.1358" rx="4" ry="4" style="stroke:#4A4A4A;stroke-width:1.4;" width="264.5171" x="718.74" y="709.3399"/><rect fill="#EEE6C1" height="10" style="stroke:#4A4A4A;stroke-width:1.4;" width="15" x="963.2571" y="714.3399"/><rect fill="#EEE6C1" height="2" style="stroke:#4A4A4A;stroke-width:1.4;" width="4" x="961.2571" y="716.3399"/><rect fill="#EEE6C1" height="2" style="stroke:#4A4A4A;stroke-width:1.4;" width="4" x="961.2571" y="720.3399"/><text fill="#1A1A1A" font-family="'Inter, Helvetica, sans-serif'" font-size="14" lengthAdjust="spacing" textLength="109.5356" x="733.74" y="744.3058">backend.sanitize</text><text fill="#1A1A1A" font-family="'Inter, Helvetica, sans-serif'" font-size="14" lengthAdjust="spacing" textLength="224.5171" x="733.74" y="763.3738">one GitHub allowlist (context-free)</text></g><!--entity Toc--><g class="entity" data-qualified-name="Back-ends . capability.Toc" data-source-line="29" id="ent0017"><rect fill="#C4D9EB" height="68.1358" rx="4" ry="4" style="stroke:#4A4A4A;stroke-width:1.4;" width="158.7475" x="375.63" y="562.2099"/><rect fill="#C4D9EB" height="10" style="stroke:#4A4A4A;stroke-width:1.4;" width="15" x="514.3775" y="567.2099"/><rect fill="#C4D9EB" height="2" style="stroke:#4A4A4A;stroke-width:1.4;" width="4" x="512.3775" y="569.2099"/><rect fill="#C4D9EB" height="2" style="stroke:#4A4A4A;stroke-width:1.4;" width="4" x="512.3775" y="573.2099"/><text fill="#1A1A1A" font-family="'Inter, Helvetica, sans-serif'" font-size="14" lengthAdjust="spacing" textLength="86.6737" x="390.63" y="597.1758">capability.toc</text><text fill="#1A1A1A" font-family="'Inter, Helvetica, sans-serif'" font-size="14" lengthAdjust="spacing" textLength="118.7475" x="390.63" y="616.2438">outline -&gt; :doc/toc</text></g><!--entity GUI--><g class="entity" data-qualified-name="GUI" data-source-line="32" id="ent0018"><rect fill="#E3F2ED" height="68.1358" rx="4" ry="4" style="stroke:#4A4A4A;stroke-width:1.4;" width="188.7074" x="1052.65" y="709.3399"/><rect fill="#E3F2ED" height="10" style="stroke:#4A4A4A;stroke-width:1.4;" width="15" x="1221.3574" y="714.3399"/><rect fill="#E3F2ED" height="2" style="stroke:#4A4A4A;stroke-width:1.4;" width="4" x="1219.3574" y="716.3399"/><rect fill="#E3F2ED" height="2" style="stroke:#4A4A4A;stroke-width:1.4;" width="4" x="1219.3574" y="720.3399"/><text fill="#1A1A1A" font-family="'Inter, Helvetica, sans-serif'" font-size="14" lengthAdjust="spacing" textLength="148.7074" x="1067.65" y="744.3058">GUI `.markdown-body`</text><text fill="#1A1A1A" font-family="'Inter, Helvetica, sans-serif'" font-size="14" lengthAdjust="spacing" textLength="81.1857" x="1067.65" y="763.3738">(innerHTML)</text></g><!--entity Term--><g class="entity" data-qualified-name="Term" data-source-line="33" id="ent0019"><rect fill="#F5EAE0" height="68.1358" rx="4" ry="4" style="stroke:#4A4A4A;stroke-width:1.4;" width="176.9895" x="1276.51" y="709.3399"/><rect fill="#F5EAE0" height="10" style="stroke:#4A4A4A;stroke-width:1.4;" width="15" x="1433.4995" y="714.3399"/><rect fill="#F5EAE0" height="2" style="stroke:#4A4A4A;stroke-width:1.4;" width="4" x="1431.4995" y="716.3399"/><rect fill="#F5EAE0" height="2" style="stroke:#4A4A4A;stroke-width:1.4;" width="4" x="1431.4995" y="720.3399"/><text fill="#1A1A1A" font-family="'Inter, Helvetica, sans-serif'" font-size="14" lengthAdjust="spacing" textLength="136.9895" x="1291.51" y="744.3058">terminal stdout / TUI</text><text fill="#1A1A1A" font-family="'Inter, Helvetica, sans-serif'" font-size="14" lengthAdjust="spacing" textLength="89.6136" x="1291.51" y="763.3738">(vv-cli / vv-tui)</text></g><!--link FMd to Node--><g class="link" data-entity-1="ent0002" data-entity-2="ent0009" data-link-type="dependency" data-source-line="35" id="lnk20"><path d="M312.85,153.1199 C325.37,161.6399 339.33,170.2399 353,176.7999 C426.3,211.9999 509.161,237.4915 577.531,255.2715" fill="none" id="FMd-to-Node" style="stroke:#555555;stroke-width:1.3;"/><polygon fill="#555555" points="582.37,256.5299,574.6665,250.3935,577.531,255.2715,572.653,258.136,582.37,256.5299" style="stroke:#555555;stroke-width:1.3;stroke-linejoin:miter;stroke-miterlimit:10;"/></g><!--link FOrg to Node--><g class="link" data-entity-1="ent0003" data-entity-2="ent0009" data-link-type="dependency" data-source-line="36" id="lnk21"><path d="M696,153.0399 C696,178.0499 696,207.4899 696,234.5399" fill="none" id="FOrg-to-Node" style="stroke:#555555;stroke-width:1.3;"/><polygon fill="#555555" points="696,239.5399,700,230.5399,696,234.5399,692,230.5399,696,239.5399" style="stroke:#555555;stroke-width:1.3;stroke-linejoin:miter;stroke-miterlimit:10;"/></g><!--link FOf to Node--><g class="link" data-entity-1="ent0004" data-entity-2="ent0009" data-link-type="dependency" data-source-line="37" id="lnk22"><path d="M862.74,153.2399 C830.56,178.1699 790.3432,209.3285 755.5432,236.2785" fill="none" id="FOf-to-Node" style="stroke:#555555;stroke-width:1.3;"/><polygon fill="#555555" points="751.59,239.3399,761.1549,236.9918,755.5432,236.2785,756.2566,230.6668,751.59,239.3399" style="stroke:#555555;stroke-width:1.3;stroke-linejoin:miter;stroke-miterlimit:10;"/></g><!--link FSrc to Node--><g class="link" data-entity-1="ent0005" data-entity-2="ent0009" data-link-type="dependency" data-source-line="38" id="lnk23"><path d="M140.44,153.0199 C154.21,161.8499 169.74,170.6299 185,176.7999 C315.69,229.6799 471.3703,256.6561 577.2403,270.1861" fill="none" id="FSrc-to-Node" style="stroke:#555555;stroke-width:1.3;"/><polygon fill="#555555" points="582.2,270.8199,573.7797,265.7113,577.2403,270.1861,572.7655,273.6467,582.2,270.8199" style="stroke:#555555;stroke-width:1.3;stroke-linejoin:miter;stroke-miterlimit:10;"/></g><!--link FPdf to Node--><g class="link" data-entity-1="ent0006" data-entity-2="ent0009" data-link-type="dependency" data-source-line="39" id="lnk24"><path d="M1051.75,153.0099 C1037.5,162.1599 1021.19,171.1299 1005,176.7999 C942.09,198.8299 919.48,173.4899 856,193.7999 C822.58,204.4899 792.4867,219.8861 764.2067,236.8661" fill="none" id="FPdf-to-Node" style="stroke:#555555;stroke-width:1.3;"/><polygon fill="#555555" points="759.92,239.4399,769.695,238.2364,764.2067,236.8661,765.5769,231.3777,759.92,239.4399" style="stroke:#555555;stroke-width:1.3;stroke-linejoin:miter;stroke-miterlimit:10;"/></g><!--link FData to Node--><g class="link" data-entity-1="ent0007" data-entity-2="ent0009" data-link-type="dependency" data-source-line="40" id="lnk25"><path d="M502.49,143.7399 C537.52,168.8299 589.1662,205.8369 631.8262,236.4169" fill="none" id="FData-to-Node" style="stroke:#555555;stroke-width:1.3;"/><polygon fill="#555555" points="635.89,239.3299,630.9056,230.8354,631.8262,236.4169,626.2448,237.3375,635.89,239.3299" style="stroke:#555555;stroke-width:1.3;stroke-linejoin:miter;stroke-miterlimit:10;"/></g><!--link Sem to TT--><g class="link" data-entity-1="ent0010" data-entity-2="ent0011" data-link-type="dependency" data-source-line="42" id="lnk26"><path d="M876.33,317.9399 C841.3,338.6799 800.2926,362.9529 762.6726,385.2229" fill="none" id="Sem-to-TT" style="stroke:#555555;stroke-width:1.3;"/><polygon fill="#555555" points="758.37,387.7699,768.1524,386.6273,762.6726,385.2229,764.0771,379.7431,758.37,387.7699" style="stroke:#555555;stroke-width:1.3;stroke-linejoin:miter;stroke-miterlimit:10;"/></g><!--link Sem to Auto--><g class="link" data-entity-1="ent0010" data-entity-2="ent0012" data-link-type="dependency" data-source-line="43" id="lnk27"><path d="M940.11,317.9399 C945.15,341.7199 950.8536,368.5885 955.8836,392.3285" fill="none" id="Sem-to-Auto" style="stroke:#555555;stroke-width:1.3;"/><polygon fill="#555555" points="956.92,397.2199,958.9676,387.5863,955.8836,392.3285,951.1414,389.2445,956.92,397.2199" style="stroke:#555555;stroke-width:1.3;stroke-linejoin:miter;stroke-miterlimit:10;"/></g><!--link Node to TT--><g class="link" data-entity-1="ent0009" data-entity-2="ent0011" data-link-type="dependency" data-source-line="44" id="lnk28"><path d="M693.05,327.4799 C691.76,346.4299 690.5822,363.6516 689.2822,382.6016" fill="none" id="Node-to-TT" style="stroke:#555555;stroke-width:1.3;"/><polygon fill="#555555" points="688.94,387.5899,693.5466,378.8848,689.2822,382.6016,685.5653,378.3372,688.94,387.5899" style="stroke:#555555;stroke-width:1.3;stroke-linejoin:miter;stroke-miterlimit:10;"/></g><!--link FPdf to Auto--><g class="link" data-entity-1="ent0006" data-entity-2="ent0012" data-link-type="dependency" data-source-line="45" id="lnk29"><path d="M1082.4,153.2199 C1065.65,194.2899 1036.21,265.9699 1010,326.9999 C999.91,350.5099 990.2447,372.2971 981.1747,392.5371" fill="none" id="FPdf-to-Auto" style="stroke:#555555;stroke-width:1.3;stroke-dasharray:7,7;"/><polygon fill="#555555" points="979.13,397.0999,986.4607,390.5226,981.1747,392.5371,979.1602,387.2511,979.13,397.0999" style="stroke:#555555;stroke-width:1.3;stroke-linejoin:miter;stroke-miterlimit:10;"/><text fill="#000000" font-family="'Inter, Helvetica, sans-serif'" font-size="13" lengthAdjust="spacing" textLength="171.4832" x="1066.52" y="288.7969">ambiguous run-&gt;line-&gt;block</text></g><!--link TT to BHtml--><g class="link" data-entity-1="ent0011" data-entity-2="ent0014" data-link-type="dependency" data-source-line="47" id="lnk30"><path d="M686,475.3499 C686,502.3599 686,531.7699 686,556.7999" fill="none" id="TT-to-BHtml" style="stroke:#555555;stroke-width:1.3;"/><polygon fill="#555555" points="686,561.7999,690,552.7999,686,556.7999,682,552.7999,686,561.7999" style="stroke:#555555;stroke-width:1.3;stroke-linejoin:miter;stroke-miterlimit:10;"/></g><!--link TT to BAnsi--><g class="link" data-entity-1="ent0011" data-entity-2="ent0015" data-link-type="dependency" data-source-line="48" id="lnk31"><path d="M756.83,475.5199 C777.39,488.3199 799.76,502.5799 820,516.2099 C841.52,530.6999 860.8413,544.5286 880.3913,558.8986" fill="none" id="TT-to-BAnsi" style="stroke:#555555;stroke-width:1.3;"/><polygon fill="#555555" points="884.42,561.8599,879.5373,553.3066,880.3913,558.8986,874.7992,559.7526,884.42,561.8599" style="stroke:#555555;stroke-width:1.3;stroke-linejoin:miter;stroke-miterlimit:10;"/></g><!--link BHtml to San--><g class="link" data-entity-1="ent0014" data-entity-2="ent0016" data-link-type="dependency" data-source-line="49" id="lnk32"><path d="M723.85,630.5699 C750.59,654.0899 782.5258,682.1775 809.2858,705.7175" fill="none" id="BHtml-to-San" style="stroke:#555555;stroke-width:1.3;"/><polygon fill="#555555" points="813.04,709.0199,808.9244,700.0722,809.2858,705.7175,803.6405,706.0788,813.04,709.0199" style="stroke:#555555;stroke-width:1.3;stroke-linejoin:miter;stroke-miterlimit:10;"/><text fill="#000000" font-family="'Inter, Helvetica, sans-serif'" font-size="13" lengthAdjust="spacing" textLength="78.3771" x="779.38" y="675.2369">one sanitizer</text></g><!--link BAnsi to San--><g class="link" data-entity-1="ent0015" data-entity-2="ent0016" data-link-type="dependency" data-source-line="50" id="lnk33"><path d="M911.11,630.5699 C898.47,654.0899 883.9668,681.0756 871.3168,704.6156" fill="none" id="BAnsi-to-San" style="stroke:#555555;stroke-width:1.3;"/><polygon fill="#555555" points="868.95,709.0199,876.7337,702.9855,871.3168,704.6156,869.6868,699.1986,868.95,709.0199" style="stroke:#555555;stroke-width:1.3;stroke-linejoin:miter;stroke-miterlimit:10;"/></g><!--link Node to Toc--><g class="link" data-entity-1="ent0009" data-entity-2="ent0017" data-link-type="dependency" data-source-line="51" id="lnk34"><path d="M631.04,327.3599 C608.34,344.4299 583.84,365.3999 565,387.9999 C519.62,442.4599 486.9819,514.0035 469.5319,557.2235" fill="none" id="Node-to-Toc" style="stroke:#555555;stroke-width:1.3;"/><polygon fill="#555555" points="467.66,561.8599,474.7386,555.012,469.5319,557.2235,467.3204,552.0169,467.66,561.8599" style="stroke:#555555;stroke-width:1.3;stroke-linejoin:miter;stroke-miterlimit:10;"/></g><!--link BHtml to GUI--><g class="link" data-entity-1="ent0014" data-entity-2="ent0018" data-link-type="dependency" data-source-line="53" id="lnk35"><path d="M792.34,630.7599 C870.78,655.4499 971.8007,687.2587 1047.3807,711.0487" fill="none" id="BHtml-to-GUI" style="stroke:#555555;stroke-width:1.3;"/><polygon fill="#555555" points="1052.15,712.5499,1044.7662,706.0323,1047.3807,711.0487,1042.3643,713.6632,1052.15,712.5499" style="stroke:#555555;stroke-width:1.3;stroke-linejoin:miter;stroke-miterlimit:10;"/></g><!--link BAnsi to Term--><g class="link" data-entity-1="ent0015" data-entity-2="ent0019" data-link-type="dependency" data-source-line="54" id="lnk36"><path d="M1020.92,617.5599 C1067.06,628.6199 1123.51,643.4799 1173,660.3399 C1213.83,674.2599 1253.6275,690.9245 1289.4075,706.9645" fill="none" id="BAnsi-to-Term" style="stroke:#555555;stroke-width:1.3;"/><polygon fill="#555555" points="1293.97,709.0099,1287.3938,701.6783,1289.4075,706.9645,1284.1212,708.9783,1293.97,709.0099" style="stroke:#555555;stroke-width:1.3;stroke-linejoin:miter;stroke-miterlimit:10;"/></g><g class="legend" data-source-line="56"><rect fill="none" height="147.4754" rx="4" ry="4" style="stroke:#000000;stroke-width:1;" width="590.34" x="858.1595" y="814.4799"/><text fill="#000000" font-family="'Inter, Helvetica, sans-serif'" font-size="14" font-weight="700" lengthAdjust="spacing" textLength="46.0178" x="866.7995" y="836.4458">Colour</text><text fill="#000000" font-family="'Inter, Helvetica, sans-serif'" font-size="14" font-weight="700" lengthAdjust="spacing" textLength="57.3438" x="920.0973" y="836.4458">Concept</text><rect fill="#E67E22" height="19.0679" style="stroke:none;stroke-width:1;" width="53.2978" x="863.1595" y="840.5478"/><text fill="#000000" font-family="'Inter, Helvetica, sans-serif'" font-size="14" lengthAdjust="spacing" textLength="14.5599" x="863.1595" y="855.5138">&#160;&#160;&#160;&#160;</text><text fill="#000000" font-family="'Inter, Helvetica, sans-serif'" font-size="14" lengthAdjust="spacing" textLength="216.5652" x="920.0973" y="855.5138">common IR core / ANSI back-end</text><rect fill="#67B11D" height="19.0679" style="stroke:none;stroke-width:1;" width="53.2978" x="863.1595" y="859.6157"/><text fill="#000000" font-family="'Inter, Helvetica, sans-serif'" font-size="14" lengthAdjust="spacing" textLength="14.5599" x="863.1595" y="874.5817">&#160;&#160;&#160;&#160;</text><text fill="#000000" font-family="'Inter, Helvetica, sans-serif'" font-size="14" lengthAdjust="spacing" textLength="242.843" x="920.0973" y="874.5817">HTML surface (markdown/office/org)</text><rect fill="#2D9574" height="19.0679" style="stroke:none;stroke-width:1;" width="53.2978" x="863.1595" y="878.6836"/><text fill="#000000" font-family="'Inter, Helvetica, sans-serif'" font-size="14" lengthAdjust="spacing" textLength="14.5599" x="863.1595" y="893.6496">&#160;&#160;&#160;&#160;</text><text fill="#000000" font-family="'Inter, Helvetica, sans-serif'" font-size="14" lengthAdjust="spacing" textLength="163.2674" x="920.0973" y="893.6496">renderer-side facet / GUI</text><rect fill="#B1951D" height="19.0679" style="stroke:none;stroke-width:1;" width="53.2978" x="863.1595" y="897.7516"/><text fill="#000000" font-family="'Inter, Helvetica, sans-serif'" font-size="14" lengthAdjust="spacing" textLength="14.5599" x="863.1595" y="912.7175">&#160;&#160;&#160;&#160;</text><text fill="#000000" font-family="'Inter, Helvetica, sans-serif'" font-size="14" lengthAdjust="spacing" textLength="166.8934" x="920.0973" y="912.7175">sanitizer / trust boundary</text><rect fill="#4F97D7" height="19.0679" style="stroke:none;stroke-width:1;" width="53.2978" x="863.1595" y="916.8195"/><text fill="#000000" font-family="'Inter, Helvetica, sans-serif'" font-size="14" lengthAdjust="spacing" textLength="14.5599" x="863.1595" y="931.7854">&#160;&#160;&#160;&#160;</text><text fill="#000000" font-family="'Inter, Helvetica, sans-serif'" font-size="14" lengthAdjust="spacing" textLength="188.9853" x="920.0973" y="931.7854">re-frame capability (:doc/toc)</text><line style="stroke:#000000;stroke-width:1;" x1="863.1595" x2="1166.5803" y1="821.4799" y2="821.4799"/><line style="stroke:#000000;stroke-width:1;" x1="863.1595" x2="1166.5803" y1="840.5478" y2="840.5478"/><line style="stroke:#000000;stroke-width:1;" x1="863.1595" x2="1166.5803" y1="859.6157" y2="859.6157"/><line style="stroke:#000000;stroke-width:1;" x1="863.1595" x2="1166.5803" y1="878.6836" y2="878.6836"/><line style="stroke:#000000;stroke-width:1;" x1="863.1595" x2="1166.5803" y1="897.7516" y2="897.7516"/><line style="stroke:#000000;stroke-width:1;" x1="863.1595" x2="1166.5803" y1="916.8195" y2="916.8195"/><line style="stroke:#000000;stroke-width:1;" x1="863.1595" x2="1166.5803" y1="935.8874" y2="935.8874"/><line style="stroke:#000000;stroke-width:1;" x1="863.1595" x2="863.1595" y1="821.4799" y2="935.8874"/><line style="stroke:#000000;stroke-width:1;" x1="916.4573" x2="916.4573" y1="821.4799" y2="935.8874"/><line style="stroke:#000000;stroke-width:1;" x1="1166.5803" x2="1166.5803" y1="821.4799" y2="935.8874"/><text fill="#000000" font-family="'Inter, Helvetica, sans-serif'" font-size="14" lengthAdjust="spacing" textLength="580.34" x="863.1595" y="952.8533">One IR, two back-ends: the GUI and the terminal are two renderers over the same spine.</text></g><?plantuml-src VLPjRXit4Fs_fvWcG2t3MYaEaXXn6mDs9CT2OYkGbGO53CJKBbTYlKiA9DUIyW7q4BrB__SeFKdVSBKhfJ4422j-pPlXp9iPxktH-rne_-7o7PbxQUbIsaAeb2Oo4QMJv6VA4Nv-9YahyvmIenCvzt5YSbDQcT9WHAdm8ilDWlxzyo_g_zOV_KwPDTh7KgUaj3Taj8pszY1iPRKm_ZYaYKZk-8YZriKO1cJ61ZrlFWpQT7frFMXMFAnIMkJxc5bJJcSCI4vevTLdMCrw1NJnsSemn-gAqdagX4zc976v5HaSi9IfAIodbh52JoMzuYkmPMsQMYar5e8vhhIPIB3gfSYnQ66gj2oFLTycKKmmUSMA6akwJefYlqD3dQysddKpOMNbmzjFz_Sn1eMyfRd8fVSI5YRME0fV1-jowJhHJqedUPbAQWGwgYpoAFBAvv9Ucw8mcbAJb8NKdgyGd808DQvt59y4HosaciuyOXNyZyLmluFAnqqKecYEeO177fqRiC1l8r5hBgmBmeFH_YFw4X7GYZdWeVrH8UnTQXRwHhUidAtcaYvEhySu9noTNwPqUJfwsnj-lFeq7boDlnSrTafToeMNIqYNMbKB66HAfd7OM0CDiRCBASjK8W42hom1CUoTXvlMqjakOGVI1E65dCGUF8YTGd3iMlZQ9ZJgN_Nwe_xe0Ubvca4KtyuVYBDSUhAbTclPzscsIzQB2GBwpz-Kcod_2PlCr7rOILMMLHWzfDZ_GBvj1MnDXpMH4QtUy3BES8isQPFAs4k7-FyODzw4fmhfnOt-SgTqsYPeprEGlHqkqWwRtswqcmlDDaqcPid_rbHM2vtCZ8rL6WozOi31GzTqib1MwIdyzBPD1srQjkb9cmuh9rtBuc4nZoHrQPb8UwCR7dDyQ7kd9PSYyPKSugQChc37uuTH5_DKuDwfJDXUt48AcyiLbb1ouAl0WxKo9wUSOe9Hs-IWMw0OJIi5foMAsU21Y9mrnUs04Z4N4vKhl_eX09nzEDMP-IA_qOWVPoTIX_-hJ8gX4UfKjWeApovmSXUHQqGuHzM88T4FoAcbpBjtuFKQwnHd7dPGZL9NjXlDXUIDyXVbXAkCMUGAnRM5Ti0i2LnRHn8q6Rn__G3cnWqTRn8WbZvNEjIKOwHi5ujLq0pdsldezBBV-7KB1ks1RZjrnOad9btT8bvAQsatwSwdcdmv7xnxjmrHznD4CuKL2Flumm0OABL9hZ3bcbkgDOTmc9qKG2AkPZ4iPg97eI9jpRAj2LUCpOnhm6OMihcPHan-det7pP1v5OLaMcy4X4wdsg5ZxZveOwPqN6dY4tPaV3B9JN8NHM0zImMgD1EETLInX-SSfkFlssXKyM6zkwNT9D6M93oxTPAz4qMvd7Aljvmo2FhNLsXGt8QhKNWnq5VU-FLn_yLH_-dJavyV7xvuyikFtw_CcErQrls-JTKmBuxE3WzxEs2sUpYrQhfqgoRHHPFPhw6Uzbu-Ftgs0whk_6W9S4be_p2B6RP6E3jy-NodCPkdIXTrYvyb4rFgLE1DiePuTlxog7UqqmWacIZaLZMXLfqtrLs6ccilwlR2RDhwSVscQbv83VlnAWbdw_kvwWt8PnnhSdEmgXDXjuhlVm00?></g></svg>