<svg xmlns="http://www.w3.org/2000/svg" xmlns:xlink="http://www.w3.org/1999/xlink" contentStyleType="text/css" data-diagram-type="DESCRIPTION" height="782px" preserveAspectRatio="none" style="width:684px;height:782px;background:#FBF8EF;" version="1.1" viewBox="0 0 684 782" width="684px" zoomAndPan="magnify"><?plantuml $version$?><defs/><g><rect fill="#FBF8EF" height="782" style="stroke:none;stroke-width:1;" width="684" x="0" y="0"/><g class="title" data-source-line="4"><text fill="#000000" font-family="'Inter, Helvetica, sans-serif'" font-size="14" font-weight="700" lengthAdjust="spacing" textLength="324.9667" x="176.0166" y="24.9659">Bundled and user tree-sitter grammar registry</text></g><!--cluster Main process--><g class="cluster" data-qualified-name="Main process" data-source-line="8" id="ent0001"><path d="M10,46.6699 L100.0076,46.6699 A6,6 0 0 1 104.0076,50.6699 L111.0076,71.7378 L623,71.7378 A4,4 0 0 1 627,75.7378 L627,309.9399 A4,4 0 0 1 623,313.9399 L10,313.9399 A4,4 0 0 1 6,309.9399 L6,50.6699 A4,4 0 0 1 10,46.6699" fill="#3A5BA0" style="stroke:#888888;stroke-width:1.5;"/><line style="stroke:#888888;stroke-width:1.5;" x1="6" x2="111.0076" y1="71.7378" y2="71.7378"/><text fill="#000000" font-family="'Inter, Helvetica, sans-serif'" font-size="14" font-weight="700" lengthAdjust="spacing" textLength="92.0076" x="10" y="63.6358">Main process</text></g><!--cluster Renderer process--><g class="cluster" data-qualified-name="Renderer process" data-source-line="14" id="ent0005"><path d="M280,364.9399 L399.8555,364.9399 A6,6 0 0 1 403.8555,368.9399 L410.8555,390.0078 L665,390.0078 A4,4 0 0 1 669,394.0078 L669,610.2099 A4,4 0 0 1 665,614.2099 L280,614.2099 A4,4 0 0 1 276,610.2099 L276,368.9399 A4,4 0 0 1 280,364.9399" fill="#2D9574" style="stroke:#888888;stroke-width:1.5;"/><line style="stroke:#888888;stroke-width:1.5;" x1="276" x2="410.8555" y1="390.0078" y2="390.0078"/><text fill="#000000" font-family="'Inter, Helvetica, sans-serif'" font-size="14" font-weight="700" lengthAdjust="spacing" textLength="121.8555" x="280" y="381.9058">Renderer process</text></g><!--entity Bundled--><g class="entity" data-qualified-name="Main process.Bundled" data-source-line="9" id="ent0002"><rect fill="#3A5BA0" height="58.1358" rx="4" ry="4" style="stroke:#181818;stroke-width:1.4;" width="267.8691" x="343.07" y="84.6699"/><text fill="#1A1A1A" font-family="'Inter, Helvetica, sans-serif'" font-size="14" lengthAdjust="spacing" textLength="172.1574" x="353.07" y="109.6358">bundled grammar catalog</text><text fill="#1A1A1A" font-family="'Inter, Helvetica, sans-serif'" font-size="14" lengthAdjust="spacing" textLength="247.8691" x="353.07" y="128.7038">compiled resources/public/grammars</text></g><!--entity Scanner--><g class="entity" data-qualified-name="Main process.Scanner" data-source-line="10" id="ent0003"><rect fill="#9F8766" height="58.1358" rx="4" ry="4" style="stroke:#181818;stroke-width:1.4;" width="286.937" x="21.53" y="84.6699"/><text fill="#1A1A1A" font-family="'Inter, Helvetica, sans-serif'" font-size="14" lengthAdjust="spacing" textLength="150.6394" x="31.53" y="109.6358">user grammar scanner</text><text fill="#1A1A1A" font-family="'Inter, Helvetica, sans-serif'" font-size="14" lengthAdjust="spacing" textLength="266.937" x="31.53" y="128.7038">/.config/vinary-viewer/grammars/&lt;lang&gt;</text></g><!--entity Push--><g class="entity" data-qualified-name="Main process.Push" data-source-line="11" id="ent0004"><rect fill="#B1951D" height="58.1358" rx="4" ry="4" style="stroke:#181818;stroke-width:1.4;" width="215.6773" x="124.16" y="239.7999"/><text fill="#1A1A1A" font-family="'Inter, Helvetica, sans-serif'" font-size="14" lengthAdjust="spacing" textLength="195.6773" x="134.16" y="264.7658">vv:grammars request handler</text><text fill="#1A1A1A" font-family="'Inter, Helvetica, sans-serif'" font-size="14" lengthAdjust="spacing" textLength="154.0974" x="134.16" y="283.8338">push EDN config vector</text></g><!--entity Registry--><g class="entity" data-qualified-name="Renderer process.Registry" data-source-line="15" id="ent0006"><rect fill="#A45BAD" height="58.1358" rx="4" ry="4" style="stroke:#181818;stroke-width:1.4;" width="195.8114" x="317.09" y="402.9399"/><text fill="#1A1A1A" font-family="'Inter, Helvetica, sans-serif'" font-size="14" lengthAdjust="spacing" textLength="175.8114" x="327.09" y="427.9058">renderer grammar catalog</text><text fill="#1A1A1A" font-family="'Inter, Helvetica, sans-serif'" font-size="14" lengthAdjust="spacing" textLength="148.2034" x="327.09" y="446.9738">bundled + user entries</text></g><!--entity SourceView--><g class="entity" data-qualified-name="Renderer process.SourceView" data-source-line="16" id="ent0007"><rect fill="#2D9574" height="58.1358" rx="4" ry="4" style="stroke:#181818;stroke-width:1.4;" width="152.6635" x="291.67" y="540.0699"/><text fill="#1A1A1A" font-family="'Inter, Helvetica, sans-serif'" font-size="14" lengthAdjust="spacing" textLength="99.7776" x="301.67" y="565.0358">source preview</text><text fill="#1A1A1A" font-family="'Inter, Helvetica, sans-serif'" font-size="14" lengthAdjust="spacing" textLength="132.6635" x="301.67" y="584.1038">lookup by extension</text></g><!--entity Markdown--><g class="entity" data-qualified-name="Renderer process.Markdown" data-source-line="17" id="ent0008"><rect fill="#67B11D" height="58.1358" rx="4" ry="4" style="stroke:#181818;stroke-width:1.4;" width="174.1114" x="478.94" y="540.0699"/><text fill="#1A1A1A" font-family="'Inter, Helvetica, sans-serif'" font-size="14" lengthAdjust="spacing" textLength="154.1114" x="488.94" y="565.0358">Markdown fenced code</text><text fill="#1A1A1A" font-family="'Inter, Helvetica, sans-serif'" font-size="14" lengthAdjust="spacing" textLength="145.9214" x="488.94" y="584.1038">lookup by language id</text></g><!--link Bundled to Registry--><g class="link" data-entity-1="ent0002" data-entity-2="ent0006" data-link-type="dependency" data-source-line="20" id="lnk9"><path d="M472.51,142.9599 C465.38,187.0799 450.63,274.9799 435,348.9399 C431.21,366.8699 427.5743,382.0121 423.5943,397.7721" fill="none" id="Bundled-to-Registry" style="stroke:#3A5BA0;stroke-width:2;"/><polygon fill="#3A5BA0" points="422.37,402.6199,428.4519,394.8733,423.5943,397.7721,420.6954,392.9144,422.37,402.6199" style="stroke:#3A5BA0;stroke-width:2;stroke-linejoin:miter;stroke-miterlimit:10;"/><text fill="#000000" font-family="'Inter, Helvetica, sans-serif'" font-size="13" lengthAdjust="spacing" textLength="118.7811" x="456.61" y="274.2669">bundled-grammars</text></g><!--link Scanner to Push--><g class="link" data-entity-1="ent0003" data-entity-2="ent0004" data-link-type="dependency" data-source-line="21" id="lnk10"><path d="M177.45,143.1799 C189.44,170.5999 205.4964,207.2789 217.5064,234.7389" fill="none" id="Scanner-to-Push" style="stroke:#9F8766;stroke-width:2;"/><polygon fill="#9F8766" points="219.51,239.3199,219.5684,229.4712,217.5064,234.7389,212.2388,232.6769,219.51,239.3199" style="stroke:#9F8766;stroke-width:2;stroke-linejoin:miter;stroke-miterlimit:10;"/><text fill="#000000" font-family="'Inter, Helvetica, sans-serif'" font-size="13" lengthAdjust="spacing" textLength="96.4991" x="263.3116" y="187.6969">valid files found</text><text fill="#000000" font-family="'Inter, Helvetica, sans-serif'" font-size="13" lengthAdjust="spacing" textLength="208.1822" x="207.47" y="205.4029">(grammar.wasm + highlights.scm)</text></g><!--link Push to Registry--><g class="link" data-entity-1="ent0004" data-entity-2="ent0006" data-link-type="dependency" data-source-line="22" id="lnk11"><path d="M262.8,298.2799 C279.35,313.4399 300.17,332.3399 319,348.9399 C339.56,367.0599 359.1172,383.8153 377.6472,399.5353" fill="none" id="Push-to-Registry" style="stroke:#B1951D;stroke-width:2;"/><polygon fill="#B1951D" points="381.46,402.7699,377.1847,393.8974,377.6472,399.5353,372.0093,399.9979,381.46,402.7699" style="stroke:#B1951D;stroke-width:2;stroke-linejoin:miter;stroke-miterlimit:10;"/><text fill="#000000" font-family="'Inter, Helvetica, sans-serif'" font-size="13" lengthAdjust="spacing" textLength="110.5261" x="320" y="344.8369">vv:grammars EDN</text></g><!--link Registry to SourceView--><g class="link" data-entity-1="ent0006" data-entity-2="ent0007" data-link-type="dependency" data-source-line="23" id="lnk12"><path d="M357.67,461.3799 C346.94,469.4399 337.18,479.2999 331,491.0699 C322.66,506.9799 327.5463,521.0138 338.1063,535.6638" fill="none" id="Registry-to-SourceView" style="stroke:#4F97D7;stroke-width:2;"/><polygon fill="#4F97D7" points="341.03,539.7199,339.0122,530.08,338.1063,535.6638,332.5224,534.7579,341.03,539.7199" style="stroke:#4F97D7;stroke-width:2;stroke-linejoin:miter;stroke-miterlimit:10;"/><text fill="#000000" font-family="'Inter, Helvetica, sans-serif'" font-size="13" lengthAdjust="spacing" textLength="115.3361" x="332" y="505.9669">grammar-for(path)</text></g><!--link Registry to Markdown--><g class="link" data-entity-1="ent0006" data-entity-2="ent0008" data-link-type="dependency" data-source-line="24" id="lnk13"><path d="M446.65,461.3399 C472.34,484.3199 504.6538,513.2459 530.4038,536.2859" fill="none" id="Registry-to-Markdown" style="stroke:#67B11D;stroke-width:2;"/><polygon fill="#67B11D" points="534.13,539.6199,530.0901,530.6377,530.4038,536.2859,524.7557,536.5996,534.13,539.6199" style="stroke:#67B11D;stroke-width:2;stroke-linejoin:miter;stroke-miterlimit:10;"/><text fill="#000000" font-family="'Inter, Helvetica, sans-serif'" font-size="13" lengthAdjust="spacing" textLength="160.1861" x="500.54" y="505.9669">grammar-for-language(id)</text></g><g class="legend" data-source-line="26"><rect fill="none" height="128.4075" rx="4" ry="4" style="stroke:#000000;stroke-width:1;" width="418.6024" x="129.1988" y="635.2099"/><rect fill="#3A5BA0" height="19.0679" style="stroke:none;stroke-width:1;" width="3.64" x="134.1988" y="642.2099"/><text fill="#000000" font-family="'Inter, Helvetica, sans-serif'" font-size="14" lengthAdjust="spacing" textLength="3.64" x="134.1988" y="657.1758">&#160;</text><text fill="#000000" font-family="'Inter, Helvetica, sans-serif'" font-size="14" lengthAdjust="spacing" textLength="311.0928" x="141.4788" y="657.1758">bundled grammar metadata ships with the app</text><rect fill="#9F8766" height="19.0679" style="stroke:none;stroke-width:1;" width="3.64" x="134.1988" y="661.2778"/><text fill="#000000" font-family="'Inter, Helvetica, sans-serif'" font-size="14" lengthAdjust="spacing" textLength="3.64" x="134.1988" y="676.2438">&#160;</text><text fill="#000000" font-family="'Inter, Helvetica, sans-serif'" font-size="14" lengthAdjust="spacing" textLength="326.5907" x="141.4788" y="676.2438">user grammar files live under the config directory</text><rect fill="#B1951D" height="19.0679" style="stroke:none;stroke-width:1;" width="3.64" x="134.1988" y="680.3457"/><text fill="#000000" font-family="'Inter, Helvetica, sans-serif'" font-size="14" lengthAdjust="spacing" textLength="3.64" x="134.1988" y="695.3117">&#160;</text><text fill="#000000" font-family="'Inter, Helvetica, sans-serif'" font-size="14" lengthAdjust="spacing" textLength="296.5749" x="141.4788" y="695.3117">IPC mediator transfers user grammar entries</text><rect fill="#A45BAD" height="19.0679" style="stroke:none;stroke-width:1;" width="3.64" x="134.1988" y="699.4136"/><text fill="#000000" font-family="'Inter, Helvetica, sans-serif'" font-size="14" lengthAdjust="spacing" textLength="3.64" x="134.1988" y="714.3796">&#160;</text><text fill="#000000" font-family="'Inter, Helvetica, sans-serif'" font-size="14" lengthAdjust="spacing" textLength="346.4566" x="141.4788" y="714.3796">renderer catalog combines bundled and user entries</text><rect fill="#2D9574" height="19.0679" style="stroke:none;stroke-width:1;" width="3.64" x="134.1988" y="718.4816"/><text fill="#000000" font-family="'Inter, Helvetica, sans-serif'" font-size="14" lengthAdjust="spacing" textLength="3.64" x="134.1988" y="733.4475">&#160;</text><text fill="#000000" font-family="'Inter, Helvetica, sans-serif'" font-size="14" lengthAdjust="spacing" textLength="353.6667" x="141.4788" y="733.4475">source preview consumes grammars by file extension</text><rect fill="#67B11D" height="19.0679" style="stroke:none;stroke-width:1;" width="3.64" x="134.1988" y="737.5495"/><text fill="#000000" font-family="'Inter, Helvetica, sans-serif'" font-size="14" lengthAdjust="spacing" textLength="3.64" x="134.1988" y="752.5154">&#160;</text><text fill="#000000" font-family="'Inter, Helvetica, sans-serif'" font-size="14" lengthAdjust="spacing" textLength="397.6824" x="141.4788" y="752.5154">Markdown fenced code consumes grammars by language id</text><line style="stroke:#000000;stroke-width:1;" x1="134.1988" x2="542.8012" y1="642.2099" y2="642.2099"/><line style="stroke:#000000;stroke-width:1;" x1="134.1988" x2="542.8012" y1="661.2778" y2="661.2778"/><line style="stroke:#000000;stroke-width:1;" x1="134.1988" x2="542.8012" y1="680.3457" y2="680.3457"/><line style="stroke:#000000;stroke-width:1;" x1="134.1988" x2="542.8012" y1="699.4136" y2="699.4136"/><line style="stroke:#000000;stroke-width:1;" x1="134.1988" x2="542.8012" y1="718.4816" y2="718.4816"/><line style="stroke:#000000;stroke-width:1;" x1="134.1988" x2="542.8012" y1="737.5495" y2="737.5495"/><line style="stroke:#000000;stroke-width:1;" x1="134.1988" x2="542.8012" y1="756.6174" y2="756.6174"/><line style="stroke:#000000;stroke-width:1;" x1="134.1988" x2="134.1988" y1="642.2099" y2="756.6174"/><line style="stroke:#000000;stroke-width:1;" x1="137.8388" x2="137.8388" y1="642.2099" y2="756.6174"/><line style="stroke:#000000;stroke-width:1;" x1="542.8012" x2="542.8012" y1="642.2099" y2="756.6174"/></g><?plantuml-src VPJRRjf048Rl_HJJzAA9MaEJ9g6WD1848aKD19cqlGXHjDY3MM7lkhjhKzIqpzvPdpWawWKIykvyC_F_C_lk7OmZ9iotuIt831KCKSMC1p13dwKQmIou1b_6YHGe36GSLq3VDHqWw0LJ6D17mTJQjMT4y6KabJsE4PW8w99SQPX9im0Y2pTHqaUjOSuZr6jjC8Q0QzzcN-S12aM0AYS9dSQ9uL8qd3TS-54Q83nbcPlJ6poD8ySnt4G8lLG44TLY0LGV5Q0GNSsDeV-XOd7C5953herQEuvUSf4m-hpfRMBMn57e6oR221qdOVwIXGW7GoeRoh8FODYz6JrTtTtUUV3R0NYObPch93upB9BXL5WojoSAjKmLHJUJT1PnlrbUrO_0T5tvXckfUGyLKljC25HJyRVP857cF6pkQ5u3cnTaPdYPSoT545nFDjGiwrHNgQgVAMe32sRp4pn9zG86_H4KAI0ZAQJAMMDxT3E-Aab_jiJnAhTgWRp1g3_m1jwsIBMdBrIgv7jVs4P6A8w5Cbvf5_Ixzzt9bNSplj-qKaXAMT5gC1MHbCiqWTaQy9T1eMbe2XdoUz_jtEuMPY53ffQ1N0cOe_2f25y6k8soQgQsJHxaiFh-iEjzxT_z66q4gMnq7zv-wfxrkXy_qEhuIq6IV3bvT2yttNIWxDcjl70ghoYuVVsvTNw-7vmRq86CHRIR-UR0N19bAWvBI6F5T4mgBdYuYEXdT4FxyP6JHnAtTzm-E-x_fwZjsQ0fSEeZ2ZwzRhVwhVtWBMaxbR7kNAh3X9d5qGxWlDKxVfczbdCdtArKF-J1aUD46DBma5lF5wMoby-mltGn6XRGID5hmnCDAqwlZNsXM9B0Sn5R24knEwjLQ1dn326r8vf7bGiGS9MlmBf251eIWbQ1KWQS6VlKAIRq74cs7N8voLLizvHAjx6RvwrO0Vi2pJY9KZTLls5xY9D--wnrIeZTsI_VIRfN-qUZQnlRh4A5A7mWn6kJ_pfeQmU8WhR4t91_?></g></svg>