<svg xmlns="http://www.w3.org/2000/svg" xmlns:xlink="http://www.w3.org/1999/xlink" contentStyleType="text/css" data-diagram-type="DESCRIPTION" height="632px" preserveAspectRatio="none" style="width:2019px;height:632px;background:#FBF8EF;" version="1.1" viewBox="0 0 2019 632" width="2019px" zoomAndPan="magnify"><?plantuml $version$?><defs/><g><rect fill="#FBF8EF" height="632" style="stroke:none;stroke-width:1;" width="2019" x="0" y="0"/><g class="title" data-source-line="12"><text fill="#000000" font-family="'Inter, Helvetica, sans-serif'" font-size="14" font-weight="700" lengthAdjust="spacing" textLength="497.0402" x="757.788" y="24.9659">MAIN process &#8212; components (`vinary.main.*`)  &#183;  dashed = Forthcoming</text></g><!--cluster Ipc--><g class="cluster" data-qualified-name="Ipc" data-source-line="36" id="ent0009"><rect fill="#B1951D" height="196.95" rx="4" ry="4" style="stroke:#888888;stroke-width:1.5;" width="160" x="1169.04" y="85.7378"/><rect fill="#B1951D" height="10" style="stroke:#888888;stroke-width:1.5;" width="15" x="1309.04" y="90.7378"/><rect fill="#B1951D" height="2" style="stroke:#888888;stroke-width:1.5;" width="4" x="1307.04" y="92.7378"/><rect fill="#B1951D" height="2" style="stroke:#888888;stroke-width:1.5;" width="4" x="1307.04" y="96.7378"/><text fill="#1A1A1A" font-family="'Inter, Helvetica, sans-serif'" font-size="14" font-weight="700" lengthAdjust="spacing" textLength="120.0215" x="1189.0292" y="113.7038">ipcMain handlers</text></g><!--entity Core--><g class="entity" data-qualified-name="Core" data-source-line="18" id="ent0001"><rect fill="#3A5BA0" height="49.0679" rx="4" ry="4" style="stroke:#181818;stroke-width:1.5;" width="149.7316" x="243.17" y="61.2078"/><rect fill="#3A5BA0" height="10" style="stroke:#181818;stroke-width:1.5;" width="15" x="372.9016" y="66.2078"/><rect fill="#3A5BA0" height="2" style="stroke:#181818;stroke-width:1.5;" width="4" x="370.9016" y="68.2078"/><rect fill="#3A5BA0" height="2" style="stroke:#181818;stroke-width:1.5;" width="4" x="370.9016" y="72.2078"/><text fill="#1A1A1A" font-family="'Inter, Helvetica, sans-serif'" font-size="14" lengthAdjust="spacing" textLength="109.7316" x="258.17" y="96.1738">vinary.main.core</text></g><g class="entity" data-qualified-name="Ipc.POpen" data-source-line="37" id="ent0010"><text fill="#000000" font-family="'Inter, Helvetica, sans-serif'" font-size="14" lengthAdjust="spacing" textLength="51.6038" x="1161.2381" y="63.6358">vv:open</text><rect fill="#F1F1F1" height="12" style="stroke:#181818;stroke-width:1.5;" width="12" x="1181.04" y="79.7378"/></g><g class="entity" data-qualified-name="Ipc.PClose" data-source-line="38" id="ent0011"><text fill="#000000" font-family="'Inter, Helvetica, sans-serif'" font-size="14" lengthAdjust="spacing" textLength="51.3798" x="1285.3501" y="63.6358">vv:close</text><rect fill="#F1F1F1" height="12" style="stroke:#181818;stroke-width:1.5;" width="12" x="1305.04" y="79.7378"/></g><g class="entity" data-qualified-name="GMN2" data-source-line="21" id="ent0003"><path d="M6,211.2778 L6,284.1019 A4,4 0 0 0 10,288.1019 L244.0782,288.1019 A4,4 0 0 0 248.0782,284.1019 L248.0782,217.2778 L238.0782,207.2778 L178.39,207.2778 L289.44,110.6878 L170.39,207.2778 L10,207.2778 A4,4 0 0 0 6,211.2778" fill="#FFF6D6" style="stroke:#7F6B14;stroke-width:0.5;"/><path d="M238.0782,207.2778 L238.0782,215.2778 A2,2 0 0 0 240.0782,217.2778 L248.0782,217.2778 L238.0782,207.2778" fill="#FFF6D6" style="stroke:#7F6B14;stroke-width:0.5;"/><text fill="#000000" font-family="'Inter, Helvetica, sans-serif'" font-size="13" lengthAdjust="spacing" textLength="144.5601" x="12" y="226.1748">`main` &#8212; app bootstrap</text><text fill="#000000" font-family="'Inter, Helvetica, sans-serif'" font-size="13" lengthAdjust="spacing" textLength="221.0782" x="12" y="243.8808">`create-window!` &#8212; BrowserWindow</text><text fill="#000000" font-family="'Inter, Helvetica, sans-serif'" font-size="13" lengthAdjust="spacing" textLength="160.6931" x="18.76" y="261.5869">(contextIsolation, preload)</text><text fill="#000000" font-family="'Inter, Helvetica, sans-serif'" font-size="13" lengthAdjust="spacing" textLength="148.0571" x="12" y="279.2929">`initial-file` &#8212; parse argv</text></g><!--entity Svc--><g class="entity" data-qualified-name="Svc" data-source-line="27" id="ent0005"><rect fill="#3A5BA0" height="49.0679" rx="4" ry="4" style="stroke:#181818;stroke-width:1.5;" width="166.5875" x="895.75" y="223.1478"/><rect fill="#3A5BA0" height="10" style="stroke:#181818;stroke-width:1.5;" width="15" x="1042.3375" y="228.1478"/><rect fill="#3A5BA0" height="2" style="stroke:#181818;stroke-width:1.5;" width="4" x="1040.3375" y="230.1478"/><rect fill="#3A5BA0" height="2" style="stroke:#181818;stroke-width:1.5;" width="4" x="1040.3375" y="234.1478"/><text fill="#1A1A1A" font-family="'Inter, Helvetica, sans-serif'" font-size="14" lengthAdjust="spacing" textLength="126.5875" x="910.75" y="258.1138">vinary.main.service</text></g><g class="entity" data-qualified-name="GMN6" data-source-line="29" id="ent0007"><path d="M1775.46,389.0978 L1775.46,479.6279 A4,4 0 0 0 1779.46,483.6279 L2000.6162,483.6279 A4,4 0 0 0 2004.6162,479.6279 L2004.6162,395.0978 L1994.6162,385.0978 L1779.46,385.0978 A4,4 0 0 0 1775.46,389.0978" fill="#FFF6D6" style="stroke:#7F6B14;stroke-width:0.5;"/><path d="M1994.6162,385.0978 L1994.6162,393.0978 A2,2 0 0 0 1996.6162,395.0978 L2004.6162,395.0978 L1994.6162,385.0978" fill="#FFF6D6" style="stroke:#7F6B14;stroke-width:1;"/><text fill="#000000" font-family="'Inter, Helvetica, sans-serif'" font-size="13" lengthAdjust="spacing" textLength="174.9801" x="1781.46" y="403.9948">`kind-of` &#8212; md / image / text</text><text fill="#000000" font-family="'Inter, Helvetica, sans-serif'" font-size="13" lengthAdjust="spacing" textLength="183.7032" x="1781.46" y="421.7008">`send-content!` &#8212; read + push</text><text fill="#000000" font-family="'Inter, Helvetica, sans-serif'" font-size="13" lengthAdjust="spacing" textLength="181.4801" x="1781.46" y="439.4069">`repo-tree` / `send-tree!` &#8212; git</text><text fill="#000000" font-family="'Inter, Helvetica, sans-serif'" font-size="13" lengthAdjust="spacing" textLength="208.1562" x="1781.46" y="457.1129">`open!` / `close!` &#8212; chokidar watch</text><text fill="#000000" font-family="'Inter, Helvetica, sans-serif'" font-size="13" lengthAdjust="spacing" textLength="206.1282" x="1781.46" y="474.8189">`init!` &#8212; register ipcMain handlers</text></g><!--entity Node--><g class="entity" data-qualified-name="Node" data-source-line="41" id="ent0012"><path d="M498.5001,408.8873 C502.7897,402.3587 508.8193,402.0405 512.4313,409.5593 C515.3336,403.0669 520.8378,402.5869 525.0967,408.1321 C528.4079,403.1026 532.1628,402.4517 536.2238,407.2863 C539.7146,401.5128 545.1187,400.3781 549.0572,406.8158 C552.2075,399.1472 557.2113,398.7686 562.461,404.7551 C566.0866,400.1854 569.438,399.5395 572.9496,404.8757 C576.0376,397.6439 580.5423,396.8907 585.8027,402.7414 C590.2364,395.5965 595.477,396.5759 599.4298,403.2168 C604.5145,397.8041 608.4112,398.9057 611.8738,404.9748 C615.5711,400.225 621.3104,400.5188 624.0129,406.1394 C627.0188,400.7501 633.1756,399.3939 636.4601,405.8467 C641.3097,399.3547 647.0741,400.0619 649.6871,407.9098 C653.3025,402.9118 657.2576,401.899 661.0172,407.7594 C664.5175,402.7344 670.1786,403.7164 672.4648,409.0953 C679.277,411.5347 680.8339,417.1309 675.3291,422.2518 C681.8625,424.6529 683.9904,429.762 678.3986,435.0673 C683.9484,440.2454 683.0879,445.8921 676.3747,449.33 C681.5682,455.0477 680.9112,459.9311 672.9532,462.1345 C668.2912,468.246 664.1271,468.7274 659.8412,461.7575 C657.4176,467.8181 651.8538,468.2972 647.5542,463.9782 C643.7306,469.5781 640.0602,469.1738 636.2462,463.9682 C631.9563,470.9944 626.8609,470.0739 622.5766,463.9624 C619.8459,469.7926 616.4647,470.1081 612.1752,465.5183 C608.4202,472.5868 603.8888,473.3693 599.0619,466.5289 C595.5079,473.4262 590.0556,473.5687 585.0926,468.1236 C581.5577,473.0452 576.644,471.7268 574.4695,466.6746 C570.3322,472.5751 565.5561,472.6913 562.298,465.8357 C557.0746,471.8411 551.7334,470.4533 547.9838,464.1253 C543.8551,468.9696 539.5845,469.8589 536.1729,463.3774 C532.4533,469.3108 526.3447,469.2017 523.8574,462.2037 C520.452,468.5699 516.7063,469.0217 512.2615,463.192 C507.8902,469.7044 502.3923,468.8916 498.8336,462.3557 C491.971,459.984 489.8078,455.4194 494.8882,449.4083 C486.8756,447.6579 482.9517,444.0648 487.8666,435.6952 C482.2341,428.8932 485.038,423.7884 493.1398,422.4574 C488.0709,415.1676 491.126,411.2618 498.5001,408.8873" fill="#9F8766" style="stroke:#181818;stroke-width:0.5;"/><text fill="#000000" font-family="'Inter, Helvetica, sans-serif'" font-size="14" lengthAdjust="spacing" textLength="92.2736" x="504.81" y="430.2638">Node built-ins</text><text fill="#000000" font-family="'Inter, Helvetica, sans-serif'" font-size="14" lengthAdjust="spacing" textLength="160.4674" x="504.81" y="449.3317">(fs &#183; path &#183; child_process)</text></g><!--entity Chk--><g class="entity" data-qualified-name="Chk" data-source-line="42" id="ent0013"><path d="M724.5508,408.311 C727.4486,402.6974 732.3954,403.4282 735.2663,408.3383 C738.2153,401.3422 742.6949,401.6621 747.3698,406.5858 C749.6581,402.181 754.1532,400.84 757.4607,405.4443 C761.3458,400.0676 765.4108,399.0304 770.0332,404.5974 C773.0668,398.8767 777.8627,399.2911 780.7188,404.7669 C783.2241,399.0536 788.2029,398.701 791.7212,403.7292 C796.0708,398.2804 801.0208,398.1546 804.3167,404.8244 C807.715,400.6761 810.9167,400.0207 813.8717,405.2749 C817.466,399.0037 822.9765,399.8253 826.413,405.4414 C830.5438,400.4753 834.9927,401.3059 836.9454,407.4975 C841.0108,400.6177 845.2761,401.0289 849.5658,407.282 C853.1549,403.4047 857.8733,403.5256 859.8476,409.0484 C866.6025,412.5248 868.3277,417.1317 862.1621,422.7851 C869.2615,425.9713 869.7863,430.416 863.4682,435.0331 C870.4358,440.5074 868.8156,445.129 861.7972,448.9206 C867.9227,454.3477 867.0475,458.0989 859.8946,461.521 C857.0503,467.2685 852.9905,467.392 849.5174,462.1127 C846.824,467.8017 841.5587,469.2334 837.0533,464.2236 C833.8044,469.2633 830.0814,469.1431 826.5357,464.5476 C823.3362,470.8884 818.8582,471.3545 814.9593,465.1954 C811.4941,471.0027 807.6004,471.7309 803.1273,466.2521 C801.1798,471.9319 796.6061,472.6991 792.3959,468.7823 C787.7957,474.0291 783.2459,471.4429 781.1636,466.1093 C777.6879,472.545 771.8035,471.8999 768.6545,465.7838 C765.4766,470.3544 760.3121,470.5991 757.6909,465.1733 C753.6069,470.8698 749.2295,469.6082 746.0084,464.2606 C741.4766,469.3444 737.2348,468.4305 734.8009,462.1852 C730.5713,468.1756 727.0927,467.8696 723.2141,461.8467 C716.5872,458.7976 715.7345,452.7107 721.4497,448.0798 C713.7828,446.3723 711.0478,440.8497 717.0062,434.6381 C712.4714,429.3155 714.3642,424.1027 721.3866,423.21 C716.361,416.7167 715.7982,411.8781 724.5508,408.311" fill="#9F8766" style="stroke:#181818;stroke-width:0.5;"/><text fill="#000000" font-family="'Inter, Helvetica, sans-serif'" font-size="14" lengthAdjust="spacing" textLength="57.1758" x="730.06" y="430.2638">chokidar</text><text fill="#000000" font-family="'Inter, Helvetica, sans-serif'" font-size="14" lengthAdjust="spacing" textLength="121.9675" x="730.06" y="449.3317">(per-path watcher)</text></g><!--entity Git--><g class="entity" data-qualified-name="Git" data-source-line="43" id="ent0014"><path d="M912.0488,409.2389 C915.1338,403.9313 918.6519,404.2285 922.1422,408.8259 C925.5649,401.3695 930.3784,401.1761 935.0917,407.6238 C938.2759,402.3519 942.479,401.2472 946.7965,406.3444 C949.7984,401.9019 954.6768,400.6481 957.7975,406.2139 C960.3572,400.0201 965.0697,399.2785 969.3138,404.5172 C971.2741,398.6964 975.5373,398.4182 979.4991,402.4478 C983.6796,397.1486 988.7386,396.639 992.0454,403.3597 C996.3736,398.5055 999.7174,398.6493 1002.4675,404.8478 C1007.1608,398.4113 1011.4825,399.706 1015.079,405.9396 C1018.6561,401.9096 1022.0351,401.6472 1025.1012,406.5151 C1029.3222,401.6584 1035.0624,402.008 1037.4417,408.5151 C1040.2288,403.5642 1045.2547,403.3819 1047.792,408.7653 C1056.345,410.3741 1058.9713,414.591 1053.5525,422.1935 C1060.0409,423.478 1062.7343,428.77 1058.9228,434.5361 C1064.3241,441.692 1062.7163,447.5036 1053.4406,449.1559 C1058.9442,455.8155 1057.1265,460.459 1048.9067,462.4319 C1046.0113,467.9372 1040.2973,469.3828 1036.6061,463.2748 C1033.6271,469.0066 1030.0263,469.9225 1025.7404,464.5541 C1022.5977,469.707 1018.9151,470.1342 1015.254,465.0869 C1012.5027,470.6712 1008.3717,472.5314 1003.4812,467.4476 C1000.6122,474.2016 995.9229,475.1371 990.7852,469.8372 C987.7289,474.8205 982.8398,475.6522 979.8693,469.7512 C976.215,474.0356 971.2766,473.5147 968.9942,468.1973 C965.8357,473.38 959.8266,474.184 956.6532,468.2138 C952.7899,472.9439 947.8537,471.6641 946.6829,465.7029 C942.6129,472.3503 936.9795,472.2478 933.3645,465.2585 C929.2184,469.0724 924.4154,468.0737 923.4434,462.0555 C919.6234,467.3128 915.0174,465.9524 912.4347,460.7528 C906.1793,457.7528 905.3853,453.1901 909.7587,447.9656 C902.4241,445.8191 900.8223,440.7301 906.4474,435.2175 C900.7334,429.9825 903.068,424.1422 909.5568,421.718 C904.5482,416.6512 905.0672,411.9114 912.0488,409.2389" fill="#9F8766" style="stroke:#181818;stroke-width:0.5;"/><text fill="#000000" font-family="'Inter, Helvetica, sans-serif'" font-size="14" lengthAdjust="spacing" textLength="41.8458" x="917.52" y="430.2638">git CLI</text><text fill="#000000" font-family="'Inter, Helvetica, sans-serif'" font-size="14" lengthAdjust="spacing" textLength="123.0455" x="917.52" y="449.3317">(rev-parse &#183; ls-files)</text></g><!--entity Preload--><g class="entity" data-qualified-name="Preload" data-source-line="45" id="ent0015"><rect fill="#B1951D" height="68.1358" rx="4" ry="4" style="stroke:#181818;stroke-width:1.5;" width="213.6973" x="231.19" y="400.2978"/><rect fill="#B1951D" height="10" style="stroke:#181818;stroke-width:1.5;" width="15" x="424.8873" y="405.2978"/><rect fill="#B1951D" height="2" style="stroke:#181818;stroke-width:1.5;" width="4" x="422.8873" y="407.2978"/><rect fill="#B1951D" height="2" style="stroke:#181818;stroke-width:1.5;" width="4" x="422.8873" y="411.2978"/><text fill="#1A1A1A" font-family="'Inter, Helvetica, sans-serif'" font-size="14" lengthAdjust="spacing" textLength="50.8338" x="246.19" y="435.2638">preload</text><text fill="#1A1A1A" font-family="'Inter, Helvetica, sans-serif'" font-size="14" lengthAdjust="spacing" textLength="173.6973" x="246.19" y="454.3317">contextBridge `window.vv`</text></g><!--entity Pdf--><g class="entity" data-qualified-name="Pdf" data-source-line="48" id="ent0016"><rect fill="#DDDDDD" height="87.2038" rx="4" ry="4" style="stroke:#999999;stroke-width:1.5;stroke-dasharray:7,7;" width="134.0516" x="1091.01" y="390.7578"/><rect fill="#DDDDDD" height="10" style="stroke:#999999;stroke-width:1.5;stroke-dasharray:7,7;" width="15" x="1205.0616" y="395.7578"/><rect fill="#DDDDDD" height="2" style="stroke:#999999;stroke-width:1.5;stroke-dasharray:7,7;" width="4" x="1203.0616" y="397.7578"/><rect fill="#DDDDDD" height="2" style="stroke:#999999;stroke-width:1.5;stroke-dasharray:7,7;" width="4" x="1203.0616" y="401.7578"/><text fill="#555555" font-family="'Inter, Helvetica, sans-serif'" font-size="14" font-style="italic" lengthAdjust="spacing" textLength="64.3298" x="1120.8709" y="425.7238">&#171;planned&#187;</text><text fill="#555555" font-family="'Inter, Helvetica, sans-serif'" font-size="14" lengthAdjust="spacing" textLength="57.5118" x="1106.01" y="444.7917">PDF port</text><text fill="#555555" font-family="'Inter, Helvetica, sans-serif'" font-size="14" lengthAdjust="spacing" textLength="94.0516" x="1106.01" y="463.8596">(BrowserView)</text></g><!--entity Dia--><g class="entity" data-qualified-name="Dia" data-source-line="49" id="ent0017"><rect fill="#DDDDDD" height="87.2038" rx="4" ry="4" style="stroke:#999999;stroke-width:1.5;stroke-dasharray:7,7;" width="254.3517" x="1259.86" y="390.7578"/><rect fill="#DDDDDD" height="10" style="stroke:#999999;stroke-width:1.5;stroke-dasharray:7,7;" width="15" x="1494.2117" y="395.7578"/><rect fill="#DDDDDD" height="2" style="stroke:#999999;stroke-width:1.5;stroke-dasharray:7,7;" width="4" x="1492.2117" y="397.7578"/><rect fill="#DDDDDD" height="2" style="stroke:#999999;stroke-width:1.5;stroke-dasharray:7,7;" width="4" x="1492.2117" y="401.7578"/><text fill="#555555" font-family="'Inter, Helvetica, sans-serif'" font-size="14" font-style="italic" lengthAdjust="spacing" textLength="64.3298" x="1349.8709" y="425.7238">&#171;planned&#187;</text><text fill="#555555" font-family="'Inter, Helvetica, sans-serif'" font-size="14" lengthAdjust="spacing" textLength="88.5777" x="1274.86" y="444.7917">Diagram port</text><text fill="#555555" font-family="'Inter, Helvetica, sans-serif'" font-size="14" lengthAdjust="spacing" textLength="214.3517" x="1274.86" y="463.8596">(d2 / plantuml / mermaid &#8594; SVG)</text></g><!--entity Reg--><g class="entity" data-qualified-name="Reg" data-source-line="50" id="ent0018"><rect fill="#DDDDDD" height="87.2038" rx="4" ry="4" style="stroke:#999999;stroke-width:1.5;stroke-dasharray:7,7;" width="191.4094" x="1549.33" y="390.7578"/><rect fill="#DDDDDD" height="10" style="stroke:#999999;stroke-width:1.5;stroke-dasharray:7,7;" width="15" x="1720.7394" y="395.7578"/><rect fill="#DDDDDD" height="2" style="stroke:#999999;stroke-width:1.5;stroke-dasharray:7,7;" width="4" x="1718.7394" y="397.7578"/><rect fill="#DDDDDD" height="2" style="stroke:#999999;stroke-width:1.5;stroke-dasharray:7,7;" width="4" x="1718.7394" y="401.7578"/><text fill="#555555" font-family="'Inter, Helvetica, sans-serif'" font-size="14" font-style="italic" lengthAdjust="spacing" textLength="64.3298" x="1607.8698" y="425.7238">&#171;planned&#187;</text><text fill="#555555" font-family="'Inter, Helvetica, sans-serif'" font-size="14" lengthAdjust="spacing" textLength="117.8656" x="1564.33" y="444.7917">Grammar registry</text><text fill="#555555" font-family="'Inter, Helvetica, sans-serif'" font-size="14" lengthAdjust="spacing" textLength="151.4094" x="1564.33" y="463.8596">(/.config/vinary-viewer)</text></g><!--link Svc to GMN6--><g class="link" data-entity-1="ent0005" data-entity-2="ent0007" data-link-type="association" data-source-line="29" id="lnk8"><path d="M1062.76,269.5078 C1095.98,277.1278 1134.64,285.2278 1170.04,290.6878 C1304.55,311.4378 1340.7,296.2778 1475.04,318.0978 C1602.62,338.8278 1634.24,347.9478 1758.04,385.0978 C1763.65,386.7778 1769.37,388.5678 1775.12,390.4378" fill="none" id="Svc-GMN6" style="stroke:#555555;stroke-width:1.3;stroke-dasharray:7,7;"/></g><!--link Core to Svc--><g class="link" data-entity-1="ent0001" data-entity-2="ent0005" data-link-type="dependency" data-source-line="52" id="lnk19"><path d="M393.22,104.9278 C517.66,135.0378 760.7002,193.8519 890.5102,225.2619" fill="none" id="Core-to-Svc" style="stroke:#555555;stroke-width:1.3;"/><polygon fill="#555555" points="895.37,226.4378,887.5632,220.4334,890.5102,225.2619,885.6817,228.209,895.37,226.4378" style="stroke:#555555;stroke-width:1.3;stroke-linejoin:miter;stroke-miterlimit:10;"/><text fill="#000000" font-family="'Inter, Helvetica, sans-serif'" font-size="13" lengthAdjust="spacing" textLength="81.0161" x="693.2635" y="155.1748">`service/init!`,</text><text fill="#000000" font-family="'Inter, Helvetica, sans-serif'" font-size="13" lengthAdjust="spacing" textLength="89.3231" x="689.11" y="172.8808">`service/open!`</text></g><!--link Core to Preload--><g class="link" data-entity-1="ent0001" data-entity-2="ent0015" data-link-type="dependency" data-source-line="53" id="lnk20"><path d="M319.41,110.5678 C322.9,170.9778 331.8019,325.3061 335.8219,394.9661" fill="none" id="Core-to-Preload" style="stroke:#555555;stroke-width:1.3;"/><polygon fill="#555555" points="336.11,399.9578,339.5848,390.7423,335.8219,394.9661,331.5981,391.2032,336.11,399.9578" style="stroke:#555555;stroke-width:1.3;stroke-linejoin:miter;stroke-miterlimit:10;"/><text fill="#000000" font-family="'Inter, Helvetica, sans-serif'" font-size="13" lengthAdjust="spacing" textLength="156.4421" x="330.7" y="253.0848">`webPreferences.preload`</text></g><!--link Svc to Node--><g class="link" data-entity-1="ent0005" data-entity-2="ent0012" data-link-type="dependency" data-source-line="54" id="lnk21"><path d="M895.48,260.7378 C842.15,270.8178 772.83,288.4578 717.04,318.0978 C677.54,339.0778 643.346,370.3741 618.436,396.2741" fill="none" id="Svc-to-Node" style="stroke:#555555;stroke-width:1.3;"/><polygon fill="#555555" points="614.97,399.8778,624.0918,396.1639,618.436,396.2741,618.3258,390.6183,614.97,399.8778" style="stroke:#555555;stroke-width:1.3;stroke-linejoin:miter;stroke-miterlimit:10;"/><text fill="#000000" font-family="'Inter, Helvetica, sans-serif'" font-size="13" lengthAdjust="spacing" textLength="111.6571" x="718.04" y="341.9948">read file &#183; dirname</text></g><!--link Svc to Chk--><g class="link" data-entity-1="ent0005" data-entity-2="ent0013" data-link-type="dependency" data-source-line="55" id="lnk22"><path d="M930.59,272.5978 C909.57,284.4378 885.57,300.0778 867.04,318.0978 C842.38,342.0778 823.8954,371.0099 810.2954,395.6599" fill="none" id="Svc-to-Chk" style="stroke:#555555;stroke-width:1.3;"/><polygon fill="#555555" points="807.88,400.0378,815.73,394.0899,810.2954,395.6599,808.7254,390.2253,807.88,400.0378" style="stroke:#555555;stroke-width:1.3;stroke-linejoin:miter;stroke-miterlimit:10;"/><text fill="#000000" font-family="'Inter, Helvetica, sans-serif'" font-size="13" lengthAdjust="spacing" textLength="102.4791" x="868.04" y="341.9948">watch open path</text></g><!--link Svc to Git--><g class="link" data-entity-1="ent0005" data-entity-2="ent0014" data-link-type="dependency" data-source-line="56" id="lnk23"><path d="M979.04,272.4478 C979.04,304.8878 979.04,358.1978 979.04,395.0078" fill="none" id="Svc-to-Git" style="stroke:#555555;stroke-width:1.3;"/><polygon fill="#555555" points="979.04,400.0078,983.04,391.0078,979.04,395.0078,975.04,391.0078,979.04,400.0078" style="stroke:#555555;stroke-width:1.3;stroke-linejoin:miter;stroke-miterlimit:10;"/><text fill="#000000" font-family="'Inter, Helvetica, sans-serif'" font-size="13" lengthAdjust="spacing" textLength="56.667" x="980.04" y="341.9948">repo tree</text></g><!--link Svc to Ipc--><g class="link" data-entity-1="ent0005" data-entity-2="ent0009" data-link-type="dependency" data-source-line="57" id="lnk24"><path d="M1062.67,247.6878 C1082.345,247.6878 1103.765,247.6878 1124.92,247.6878 C1135.4975,247.6878 1146.0088,247.6878 1156.2025,247.6878 C1158.7509,247.6878 1161.2795,247.6878 1163.7844,247.6878 C1165.0368,247.6878 1166.2832,247.6878 1167.5233,247.6878 C1167.8333,247.6878 1168.1429,247.6878 1168.4521,247.6878 C1168.6067,247.6878 1163.7612,247.6878 1163.9156,247.6878" fill="none" id="Svc-to-Ipc" style="stroke:#555555;stroke-width:1.3;"/><polygon fill="#555555" points="1168.9156,247.6878,1159.9156,243.6878,1163.9156,247.6878,1159.9156,251.6878,1168.9156,247.6878" style="stroke:#555555;stroke-width:1.3;stroke-linejoin:miter;stroke-miterlimit:10;"/><text fill="#000000" font-family="'Inter, Helvetica, sans-serif'" font-size="13" lengthAdjust="spacing" textLength="87.5161" x="1080.69" y="240.5848">`init!` registers</text></g><!--link POpen to Svc--><g class="link" data-entity-1="ent0010" data-entity-2="ent0005" data-link-type="dependency" data-source-line="58" id="lnk25"><path d="M1181.42,87.4178 C1152.02,91.0778 1016.2,109.4778 990.04,140.2778 C970.68,163.0578 970.6644,194.321 973.8044,218.061" fill="none" id="POpen-to-Svc" style="stroke:#555555;stroke-width:1.3;"/><polygon fill="#555555" points="974.46,223.0178,977.2453,213.571,973.8044,218.061,969.3144,214.62,974.46,223.0178" style="stroke:#555555;stroke-width:1.3;stroke-linejoin:miter;stroke-miterlimit:10;"/><text fill="#000000" font-family="'Inter, Helvetica, sans-serif'" font-size="13" lengthAdjust="spacing" textLength="131.8721" x="991.04" y="164.1748">`open!` (read + watch)</text></g><!--link PClose to Svc--><g class="link" data-entity-1="ent0011" data-entity-2="ent0005" data-link-type="dependency" data-source-line="59" id="lnk26"><path d="M1305.16,88.4278 C1280.64,95.5078 1186.62,123.3178 1161.04,140.2778 C1142.42,152.6078 1145.04,164.0578 1127.04,177.2778 C1101.87,195.7478 1075.6063,209.1897 1048.5863,220.7597" fill="none" id="PClose-to-Svc" style="stroke:#555555;stroke-width:1.3;"/><polygon fill="#555555" points="1043.99,222.7278,1053.8379,222.8622,1048.5863,220.7597,1050.6889,215.5081,1043.99,222.7278" style="stroke:#555555;stroke-width:1.3;stroke-linejoin:miter;stroke-miterlimit:10;"/><text fill="#000000" font-family="'Inter, Helvetica, sans-serif'" font-size="13" lengthAdjust="spacing" textLength="132.3401" x="1162.04" y="164.1748">`close!` (stop watcher)</text></g><!--link Svc to Preload--><g class="link" data-entity-1="ent0005" data-entity-2="ent0015" data-link-type="dependency" data-source-line="60" id="lnk27"><path d="M895.47,251.2678 C760.86,256.7278 503.18,272.8978 425.04,318.0978 C392.59,336.8678 370.751,368.6312 356.221,395.4612" fill="none" id="Svc-to-Preload" style="stroke:#555555;stroke-width:1.3;stroke-dasharray:7,7;"/><polygon fill="#555555" points="353.84,399.8578,361.6432,393.8487,356.221,395.4612,354.6086,390.039,353.84,399.8578" style="stroke:#555555;stroke-width:1.3;stroke-linejoin:miter;stroke-miterlimit:10;"/><text fill="#000000" font-family="'Inter, Helvetica, sans-serif'" font-size="13" lengthAdjust="spacing" textLength="121.0171" x="481.0301" y="332.9948">`webContents.send`</text><text fill="#000000" font-family="'Inter, Helvetica, sans-serif'" font-size="13" lengthAdjust="spacing" textLength="230.9972" x="426.04" y="350.7008">(amber: vv:content / vv:error / vv:tree)</text></g><!--link Svc to Pdf--><g class="link" data-entity-1="ent0005" data-entity-2="ent0016" data-link-type="dependency" data-source-line="62" id="lnk28"><path d="M1002.07,272.4478 C1030.87,302.1678 1077.2306,349.987 1112.8106,386.707" fill="none" id="Svc-to-Pdf" style="stroke:#555555;stroke-width:1.3;stroke-dasharray:7,7;"/><polygon fill="#555555" points="1116.29,390.2978,1112.8998,381.0508,1112.8106,386.707,1107.1545,386.6178,1116.29,390.2978" style="stroke:#555555;stroke-width:1.3;stroke-linejoin:miter;stroke-miterlimit:10;"/><text fill="#000000" font-family="'Inter, Helvetica, sans-serif'" font-size="13" lengthAdjust="spacing" textLength="50.037" x="1080.26" y="341.9948">planned</text></g><!--link Svc to Dia--><g class="link" data-entity-1="ent0005" data-entity-2="ent0017" data-link-type="dependency" data-source-line="63" id="lnk29"><path d="M1035.1,272.5878 C1065.87,285.8078 1104.65,302.6478 1139.04,318.0978 C1191.23,341.5378 1244.7022,366.3367 1291.4922,388.2567" fill="none" id="Svc-to-Dia" style="stroke:#555555;stroke-width:1.3;stroke-dasharray:7,7;"/><polygon fill="#555555" points="1296.02,390.3778,1289.5669,382.9375,1291.4922,388.2567,1286.1731,390.182,1296.02,390.3778" style="stroke:#555555;stroke-width:1.3;stroke-linejoin:miter;stroke-miterlimit:10;"/><text fill="#000000" font-family="'Inter, Helvetica, sans-serif'" font-size="13" lengthAdjust="spacing" textLength="50.037" x="1215.29" y="341.9948">planned</text></g><!--link Svc to Reg--><g class="link" data-entity-1="ent0005" data-entity-2="ent0018" data-link-type="dependency" data-source-line="64" id="lnk30"><path d="M1062.81,267.4678 C1194.89,297.3978 1445.41,355.5378 1532.04,385.0978 C1537.59,386.9878 1538.57,387.2777 1544.26,389.4177" fill="none" id="Svc-to-Reg" style="stroke:#555555;stroke-width:1.3;stroke-dasharray:7,7;"/><polygon fill="#555555" points="1548.94,391.1778,1541.9242,384.2656,1544.26,389.4177,1539.108,391.7536,1548.94,391.1778" style="stroke:#555555;stroke-width:1.3;stroke-linejoin:miter;stroke-miterlimit:10;"/><text fill="#000000" font-family="'Inter, Helvetica, sans-serif'" font-size="13" lengthAdjust="spacing" textLength="50.037" x="1416.42" y="341.9948">planned</text></g><g class="legend" data-source-line="66"><rect fill="none" height="109.3396" rx="4" ry="4" style="stroke:#000000;stroke-width:1;" width="306.3508" x="1694.2653" y="504.6279"/><text fill="#000000" font-family="'Inter, Helvetica, sans-serif'" font-size="14" font-weight="700" lengthAdjust="spacing" textLength="46.0178" x="1702.9053" y="526.5938">Colour</text><text fill="#000000" font-family="'Inter, Helvetica, sans-serif'" font-size="14" font-weight="700" lengthAdjust="spacing" textLength="57.3438" x="1756.2031" y="526.5938">Concept</text><rect fill="#3A5BA0" height="19.0679" style="stroke:none;stroke-width:1;" width="53.2978" x="1699.2653" y="530.6958"/><text fill="#000000" font-family="'Inter, Helvetica, sans-serif'" font-size="14" lengthAdjust="spacing" textLength="3.64" x="1699.2653" y="545.6618">&#160;</text><text fill="#000000" font-family="'Inter, Helvetica, sans-serif'" font-size="14" lengthAdjust="spacing" textLength="183.7073" x="1756.2031" y="545.6618">MAIN / Node IO component</text><rect fill="#B1951D" height="19.0679" style="stroke:none;stroke-width:1;" width="53.2978" x="1699.2653" y="549.7637"/><text fill="#000000" font-family="'Inter, Helvetica, sans-serif'" font-size="14" lengthAdjust="spacing" textLength="3.64" x="1699.2653" y="564.7297">&#160;</text><text fill="#000000" font-family="'Inter, Helvetica, sans-serif'" font-size="14" lengthAdjust="spacing" textLength="188.3693" x="1756.2031" y="564.7297">IPC seam (ipcMain / preload)</text><rect fill="#9F8766" height="19.0679" style="stroke:none;stroke-width:1;" width="53.2978" x="1699.2653" y="568.8316"/><text fill="#000000" font-family="'Inter, Helvetica, sans-serif'" font-size="14" lengthAdjust="spacing" textLength="3.64" x="1699.2653" y="583.7976">&#160;</text><text fill="#000000" font-family="'Inter, Helvetica, sans-serif'" font-size="14" lengthAdjust="spacing" textLength="235.7731" x="1756.2031" y="583.7976">external resource (fs &#183; git &#183; chokidar)</text><rect fill="#DDDDDD" height="19.0679" style="stroke:none;stroke-width:1;" width="53.2978" x="1699.2653" y="587.8996"/><text fill="#000000" font-family="'Inter, Helvetica, sans-serif'" font-size="14" lengthAdjust="spacing" textLength="3.64" x="1699.2653" y="602.8655">&#160;</text><text fill="#000000" font-family="'Inter, Helvetica, sans-serif'" font-size="14" lengthAdjust="spacing" textLength="206.0232" x="1756.2031" y="602.8655">Forthcoming (planned, dashed)</text><line style="stroke:#000000;stroke-width:1;" x1="1699.2653" x2="1995.6162" y1="511.6279" y2="511.6279"/><line style="stroke:#000000;stroke-width:1;" x1="1699.2653" x2="1995.6162" y1="530.6958" y2="530.6958"/><line style="stroke:#000000;stroke-width:1;" x1="1699.2653" x2="1995.6162" y1="549.7637" y2="549.7637"/><line style="stroke:#000000;stroke-width:1;" x1="1699.2653" x2="1995.6162" y1="568.8316" y2="568.8316"/><line style="stroke:#000000;stroke-width:1;" x1="1699.2653" x2="1995.6162" y1="587.8996" y2="587.8996"/><line style="stroke:#000000;stroke-width:1;" x1="1699.2653" x2="1995.6162" y1="606.9675" y2="606.9675"/><line style="stroke:#000000;stroke-width:1;" x1="1699.2653" x2="1699.2653" y1="511.6279" y2="606.9675"/><line style="stroke:#000000;stroke-width:1;" x1="1752.5631" x2="1752.5631" y1="511.6279" y2="606.9675"/><line style="stroke:#000000;stroke-width:1;" x1="1995.6162" x2="1995.6162" y1="511.6279" y2="606.9675"/></g></g></svg>