<svg xmlns="http://www.w3.org/2000/svg" xmlns:xlink="http://www.w3.org/1999/xlink" contentStyleType="text/css" data-diagram-type="DESCRIPTION" height="900px" preserveAspectRatio="none" style="width:545px;height:900px;background:#FBF8EF;" version="1.1" viewBox="0 0 545 900" width="545px" zoomAndPan="magnify"><?plantuml $version$?><defs/><g><rect fill="#FBF8EF" height="900" style="stroke:none;stroke-width:1;" width="545" x="0" y="0"/><g class="title" data-source-line="4"><text fill="#000000" font-family="'Inter, Helvetica, sans-serif'" font-size="14" font-weight="700" lengthAdjust="spacing" textLength="405.2565" x="66.3718" y="24.9659">Native PDF preview with a main-owned WebContentsView</text></g><!--cluster Renderer process--><g class="cluster" data-qualified-name="Renderer process" data-source-line="8" id="ent0001"><path d="M10,46.6699 L129.8555,46.6699 A6,6 0 0 1 133.8555,50.6699 L140.8555,71.7378 L262,71.7378 A4,4 0 0 1 266,75.7378 L266,453.0799 A4,4 0 0 1 262,457.0799 L10,457.0799 A4,4 0 0 1 6,453.0799 L6,50.6699 A4,4 0 0 1 10,46.6699" fill="#2D9574" style="stroke:#888888;stroke-width:1.5;"/><line style="stroke:#888888;stroke-width:1.5;" x1="6" x2="140.8555" y1="71.7378" y2="71.7378"/><text fill="#000000" font-family="'Inter, Helvetica, sans-serif'" font-size="14" font-weight="700" lengthAdjust="spacing" textLength="121.8555" x="10" y="63.6358">Renderer process</text></g><!--cluster Main process--><g class="cluster" data-qualified-name="Main process" data-source-line="14" id="ent0005"><path d="M336,344.9399 L426.0076,344.9399 A6,6 0 0 1 430.0076,348.9399 L437.0076,370.0078 L526,370.0078 A4,4 0 0 1 530,374.0078 L530,747.3499 A4,4 0 0 1 526,751.3499 L336,751.3499 A4,4 0 0 1 332,747.3499 L332,348.9399 A4,4 0 0 1 336,344.9399" fill="#3A5BA0" style="stroke:#888888;stroke-width:1.5;"/><line style="stroke:#888888;stroke-width:1.5;" x1="332" x2="437.0076" y1="370.0078" y2="370.0078"/><text fill="#000000" font-family="'Inter, Helvetica, sans-serif'" font-size="14" font-weight="700" lengthAdjust="spacing" textLength="92.0076" x="336" y="361.9058">Main process</text></g><!--entity Strategy--><g class="entity" data-qualified-name="Renderer process.Strategy" data-source-line="9" id="ent0002"><rect fill="#2D9574" height="58.1358" rx="4" ry="4" style="stroke:#181818;stroke-width:1.4;" width="163.3454" x="50.33" y="84.6699"/><text fill="#1A1A1A" font-family="'Inter, Helvetica, sans-serif'" font-size="14" lengthAdjust="spacing" textLength="143.3454" x="60.33" y="109.6358">content-view Strategy</text><text fill="#1A1A1A" font-family="'Inter, Helvetica, sans-serif'" font-size="14" lengthAdjust="spacing" textLength="109.8576" x="60.33" y="128.7038">:doc/kind = "pdf"</text></g><!--entity Placeholder--><g class="entity" data-qualified-name="Renderer process.Placeholder" data-source-line="10" id="ent0003"><rect fill="#4F97D7" height="58.1358" rx="4" ry="4" style="stroke:#181818;stroke-width:1.4;" width="175.4134" x="46.29" y="221.8099"/><text fill="#1A1A1A" font-family="'Inter, Helvetica, sans-serif'" font-size="14" lengthAdjust="spacing" textLength="136.7795" x="56.29" y="246.7758">pdf-host placeholder</text><text fill="#1A1A1A" font-family="'Inter, Helvetica, sans-serif'" font-size="14" lengthAdjust="spacing" textLength="155.4134" x="56.29" y="265.8438">measures DOM bounds</text></g><!--entity VV--><g class="entity" data-qualified-name="Renderer process.VV" data-source-line="11" id="ent0004"><rect fill="#B1951D" height="58.1358" rx="4" ry="4" style="stroke:#181818;stroke-width:1.4;" width="227.5772" x="22.21" y="382.9399"/><text fill="#1A1A1A" font-family="'Inter, Helvetica, sans-serif'" font-size="14" lengthAdjust="spacing" textLength="133.3355" x="32.21" y="407.9058">window.vv mediator</text><text fill="#1A1A1A" font-family="'Inter, Helvetica, sans-serif'" font-size="14" lengthAdjust="spacing" textLength="207.5772" x="32.21" y="426.9738">pdfShow / pdfBounds / pdfHide</text></g><!--entity Pdf--><g class="entity" data-qualified-name="Main process.Pdf" data-source-line="15" id="ent0006"><rect fill="#3A5BA0" height="58.1358" rx="4" ry="4" style="stroke:#181818;stroke-width:1.4;" width="122.8996" x="361.55" y="522.0799"/><text fill="#1A1A1A" font-family="'Inter, Helvetica, sans-serif'" font-size="14" lengthAdjust="spacing" textLength="102.8996" x="371.55" y="547.0458">vinary.main.pdf</text><text fill="#1A1A1A" font-family="'Inter, Helvetica, sans-serif'" font-size="14" lengthAdjust="spacing" textLength="75.3197" x="371.55" y="566.1138">PDF service</text></g><!--entity View--><g class="entity" data-qualified-name="Main process.View" data-source-line="16" id="ent0007"><rect fill="#3A5BA0" height="58.1358" rx="4" ry="4" style="stroke:#181818;stroke-width:1.4;" width="166.7334" x="347.63" y="677.2099"/><text fill="#1A1A1A" font-family="'Inter, Helvetica, sans-serif'" font-size="14" lengthAdjust="spacing" textLength="119.7695" x="357.63" y="702.1758">WebContentsView</text><text fill="#1A1A1A" font-family="'Inter, Helvetica, sans-serif'" font-size="14" lengthAdjust="spacing" textLength="146.7334" x="357.63" y="721.2438">Chromium PDF viewer</text></g><!--entity Watcher--><g class="entity" data-qualified-name="Main process.Watcher" data-source-line="17" id="ent0008"><rect fill="#9F8766" height="58.1358" rx="4" ry="4" style="stroke:#181818;stroke-width:1.4;" width="155.5335" x="352.23" y="382.9399"/><text fill="#1A1A1A" font-family="'Inter, Helvetica, sans-serif'" font-size="14" lengthAdjust="spacing" textLength="135.5335" x="362.23" y="407.9058">retained file watcher</text><text fill="#1A1A1A" font-family="'Inter, Helvetica, sans-serif'" font-size="14" lengthAdjust="spacing" textLength="115.0096" x="362.23" y="426.9738">reload on change</text></g><!--link Strategy to Placeholder--><g class="link" data-entity-1="ent0002" data-entity-2="ent0003" data-link-type="dependency" data-source-line="20" id="lnk9"><path d="M132.42,143.0699 C132.76,166.1299 133.1663,193.5304 133.5063,216.5804" fill="none" id="Strategy-to-Placeholder" style="stroke:#4F97D7;stroke-width:2;"/><polygon fill="#4F97D7" points="133.58,221.5799,137.4468,212.5219,133.5063,216.5804,129.4477,212.6399,133.58,221.5799" style="stroke:#4F97D7;stroke-width:2;stroke-linejoin:miter;stroke-miterlimit:10;"/><text fill="#000000" font-family="'Inter, Helvetica, sans-serif'" font-size="13" lengthAdjust="spacing" textLength="116.9741" x="134.12" y="187.7069">render placeholder</text></g><!--link Placeholder to VV--><g class="link" data-entity-1="ent0003" data-entity-2="ent0004" data-link-type="dependency" data-source-line="21" id="lnk10"><path d="M134.36,280.3199 C134.72,309.1999 135.2177,348.6503 135.5777,377.5403" fill="none" id="Placeholder-to-VV" style="stroke:#B1951D;stroke-width:2;"/><polygon fill="#B1951D" points="135.64,382.5399,139.5275,373.4908,135.5777,377.5403,131.5282,373.5904,135.64,382.5399" style="stroke:#B1951D;stroke-width:2;stroke-linejoin:miter;stroke-miterlimit:10;"/><text fill="#000000" font-family="'Inter, Helvetica, sans-serif'" font-size="13" lengthAdjust="spacing" textLength="88.3611" x="135.94" y="324.8369">path + bounds</text></g><!--link VV to Pdf--><g class="link" data-entity-1="ent0004" data-entity-2="ent0006" data-link-type="dependency" data-source-line="22" id="lnk11"><path d="M139.14,441.3299 C142.52,458.3899 149.51,479.2299 164,492.0799 C192.79,517.6099 289.2715,533.8973 356.3315,542.5873" fill="none" id="VV-to-Pdf" style="stroke:#B1951D;stroke-width:2;"/><polygon fill="#B1951D" points="361.29,543.2299,352.8787,538.1065,356.3315,542.5873,351.8506,546.0401,361.29,543.2299" style="stroke:#B1951D;stroke-width:2;stroke-linejoin:miter;stroke-miterlimit:10;"/><text fill="#000000" font-family="'Inter, Helvetica, sans-serif'" font-size="13" lengthAdjust="spacing" textLength="252.4212" x="165" y="487.9769">vv:pdf-show / vv:pdf-bounds / vv:pdf-hide</text></g><!--link Pdf to View--><g class="link" data-entity-1="ent0006" data-entity-2="ent0007" data-link-type="dependency" data-source-line="23" id="lnk12"><path d="M424.49,580.5899 C425.92,608.0099 427.8081,644.2868 429.2481,671.7368" fill="none" id="Pdf-to-View" style="stroke:#3A5BA0;stroke-width:2;"/><polygon fill="#3A5BA0" points="429.51,676.7299,433.033,667.5327,429.2481,671.7368,425.044,667.9518,429.51,676.7299" style="stroke:#3A5BA0;stroke-width:2;stroke-linejoin:miter;stroke-miterlimit:10;"/><text fill="#000000" font-family="'Inter, Helvetica, sans-serif'" font-size="13" lengthAdjust="spacing" textLength="89.0371" x="428.95" y="625.1069">load file:// PDF</text><text fill="#000000" font-family="'Inter, Helvetica, sans-serif'" font-size="13" lengthAdjust="spacing" textLength="83.1091" x="431.914" y="642.8129">setBounds(...)</text></g><!--link Watcher to Pdf--><g class="link" data-entity-1="ent0008" data-entity-2="ent0006" data-link-type="dependency" data-source-line="24" id="lnk13"><path d="M428.55,441.4299 C427.35,464.9599 425.9047,493.2464 424.7047,516.7764" fill="none" id="Watcher-to-Pdf" style="stroke:#9F8766;stroke-width:2;"/><polygon fill="#9F8766" points="424.45,521.7699,428.9032,512.9853,424.7047,516.7764,420.9136,512.5778,424.45,521.7699" style="stroke:#9F8766;stroke-width:2;stroke-linejoin:miter;stroke-miterlimit:10;"/><text fill="#000000" font-family="'Inter, Helvetica, sans-serif'" font-size="13" lengthAdjust="spacing" textLength="78.5201" x="427.92" y="487.9769">reload!(path)</text></g><g class="legend" data-source-line="26"><rect fill="none" height="109.3396" rx="4" ry="4" style="stroke:#000000;stroke-width:1;" width="388.8386" x="74.5807" y="772.3499"/><rect fill="#2D9574" height="19.0679" style="stroke:none;stroke-width:1;" width="3.64" x="79.5807" y="779.3499"/><text fill="#000000" font-family="'Inter, Helvetica, sans-serif'" font-size="14" lengthAdjust="spacing" textLength="3.64" x="79.5807" y="794.3158">&#160;</text><text fill="#000000" font-family="'Inter, Helvetica, sans-serif'" font-size="14" lengthAdjust="spacing" textLength="254.253" x="86.8607" y="794.3158">renderer owns DOM strategy selection</text><rect fill="#4F97D7" height="19.0679" style="stroke:none;stroke-width:1;" width="3.64" x="79.5807" y="798.4178"/><text fill="#000000" font-family="'Inter, Helvetica, sans-serif'" font-size="14" lengthAdjust="spacing" textLength="3.64" x="79.5807" y="813.3838">&#160;</text><text fill="#000000" font-family="'Inter, Helvetica, sans-serif'" font-size="14" lengthAdjust="spacing" textLength="367.9186" x="86.8607" y="813.3838">re-frame/Reagent view measures placeholder geometry</text><rect fill="#B1951D" height="19.0679" style="stroke:none;stroke-width:1;" width="3.64" x="79.5807" y="817.4857"/><text fill="#000000" font-family="'Inter, Helvetica, sans-serif'" font-size="14" lengthAdjust="spacing" textLength="3.64" x="79.5807" y="832.4517">&#160;</text><text fill="#000000" font-family="'Inter, Helvetica, sans-serif'" font-size="14" lengthAdjust="spacing" textLength="314.4948" x="86.8607" y="832.4517">IPC mediator carries only path and bounds data</text><rect fill="#3A5BA0" height="19.0679" style="stroke:none;stroke-width:1;" width="3.64" x="79.5807" y="836.5536"/><text fill="#000000" font-family="'Inter, Helvetica, sans-serif'" font-size="14" lengthAdjust="spacing" textLength="3.64" x="79.5807" y="851.5196">&#160;</text><text fill="#000000" font-family="'Inter, Helvetica, sans-serif'" font-size="14" lengthAdjust="spacing" textLength="264.1509" x="86.8607" y="851.5196">main owns the native WebContentsView</text><rect fill="#9F8766" height="19.0679" style="stroke:none;stroke-width:1;" width="3.64" x="79.5807" y="855.6216"/><text fill="#000000" font-family="'Inter, Helvetica, sans-serif'" font-size="14" lengthAdjust="spacing" textLength="3.64" x="79.5807" y="870.5875">&#160;</text><text fill="#000000" font-family="'Inter, Helvetica, sans-serif'" font-size="14" lengthAdjust="spacing" textLength="261.729" x="86.8607" y="870.5875">retained-path watcher drives live reload</text><line style="stroke:#000000;stroke-width:1;" x1="79.5807" x2="458.4193" y1="779.3499" y2="779.3499"/><line style="stroke:#000000;stroke-width:1;" x1="79.5807" x2="458.4193" y1="798.4178" y2="798.4178"/><line style="stroke:#000000;stroke-width:1;" x1="79.5807" x2="458.4193" y1="817.4857" y2="817.4857"/><line style="stroke:#000000;stroke-width:1;" x1="79.5807" x2="458.4193" y1="836.5536" y2="836.5536"/><line style="stroke:#000000;stroke-width:1;" x1="79.5807" x2="458.4193" y1="855.6216" y2="855.6216"/><line style="stroke:#000000;stroke-width:1;" x1="79.5807" x2="458.4193" y1="874.6895" y2="874.6895"/><line style="stroke:#000000;stroke-width:1;" x1="79.5807" x2="79.5807" y1="779.3499" y2="874.6895"/><line style="stroke:#000000;stroke-width:1;" x1="83.2207" x2="83.2207" y1="779.3499" y2="874.6895"/><line style="stroke:#000000;stroke-width:1;" x1="458.4193" x2="458.4193" y1="779.3499" y2="874.6895"/></g><?plantuml-src TPHHJzim4CVVyocEyW1eIpeOqBKQI8Ms6XA5gjNWWIBaEjSc8h4ZsqrLhVlkEyT96xhjBOdl_dVt-vzpT0IZX0dpStWFCaS5GrGfYqEO8MTBZM2YM0ENQIO52WDvZ2kWxveE47J458QGeVAv51mpGw69LFOmHM0Yf12vSi62cJX7w2V8ZP82z5BD6KUgfECGYn258aH5NVGUXv0bT1h9XBu4ta4iUBAaiBSyzmlr85wcYUUPs2G83qvxr1j0fh1eSXMR21ZGCCANAq5jFkFiLWf3O-WdYl0y_HwBZ2cMxWQSc7LY--26YKM2dfSn_iuM28rnrLkc94Uj6p3kF_Jwu_xuxVRn_d4Clpo05-uA-4KB4wEOmSLwAZgXv4sg5i8LDB9mtdW5fhVdUqfMXsByI6fJfp0LAJAYHl0jdvbSYb0NGgDT46aDnjrXVoUreh9o5UGvf1Z6p4WI8la96GDDeAURGiWz_o0h2icd9xWRtPOglsiSXWHqns3OlNkepv_7WgbrOAa793SLrXADAe-vqns5yrgIJTcpPIfk8oLJShUmqu94vLgoJ3_cAZHKYRoTnsJRYXaUMKuA4yb2e2NZ4VdeAZ-xKnXCTbDj7V1V3iy7xLQlzPaMdhyB6kxgxDM__e2sKovetHIl7a0gDwVjYzFUlWhHx436Q2C_bRvvzEc_uHPI1_AyOzT0EwFAjrbbLlaUaM6UZIUnhzsBc-wNlsfRR1qeY5XCdMRJafqAZSPPVnm4mObNyI6Xzk1Rw_BotrqvjWV7TfeJpqjmGKp8YyttmxDU-w9rVhtPtMEwU6vPTGLQext_CLcpSKaEUv7ap-akOdECj6ZLlsQxyZNci42Peb7hIiDH90rQsUsM0sTAnPGfHR9syEqFgGGOCiEgTCUDqktQkfvhFwoz_QoI7AEYRxU3Vb6Yt4485ULgIAn2kOuRZx2KlFu0?></g></svg>