<svg xmlns="http://www.w3.org/2000/svg" xmlns:xlink="http://www.w3.org/1999/xlink" contentStyleType="text/css" data-diagram-type="DESCRIPTION" height="1372px" preserveAspectRatio="none" style="width:810px;height:1372px;background:#FBF8EF;" version="1.1" viewBox="0 0 810 1372" width="810px" zoomAndPan="magnify"><?plantuml $version$?><defs/><g><rect fill="#FBF8EF" height="1372" style="stroke:none;stroke-width:1;" width="810" x="0" y="0"/><g class="title" data-source-line="13"><text fill="#000000" font-family="'Inter, Helvetica, sans-serif'" font-size="14" font-weight="700" lengthAdjust="spacing" textLength="573.6044" x="115.0267" y="24.9659">vinary-viewer &#8212; Containers (one source tree &#8594; two builds, joined by the IPC seam)</text></g><!--cluster Electron runtime--><g class="cluster" data-qualified-name="Electron runtime" data-source-line="23" id="ent0002"><path d="M10,188.2079 L126.1455,188.2079 A6,6 0 0 1 130.1455,192.2079 L137.1455,213.2758 L641,213.2758 A4,4 0 0 1 645,217.2758 L645,1180.8179 A4,4 0 0 1 641,1184.8179 L10,1184.8179 A4,4 0 0 1 6,1180.8179 L6,192.2079 A4,4 0 0 1 10,188.2079" fill="none" style="stroke:#888888;stroke-width:1.5;"/><line style="stroke:#888888;stroke-width:1.5;" x1="6" x2="137.1455" y1="213.2758" y2="213.2758"/><text fill="#000000" font-family="'Inter, Helvetica, sans-serif'" font-size="14" font-weight="700" lengthAdjust="spacing" textLength="118.1455" x="10" y="205.1739">Electron runtime</text></g><!--cluster Main--><g class="cluster" data-qualified-name="Electron runtime.Main" data-source-line="25" id="ent0003"><rect fill="#3A5BA0" height="185.13" rx="4" ry="4" style="stroke:#888888;stroke-width:1.6;" width="575" x="38" y="242.2079"/><text fill="#1A1A1A" font-family="'Inter, Helvetica, sans-serif'" font-size="14" font-weight="700" lengthAdjust="spacing" textLength="96.8516" x="251.8393" y="259.1739">MAIN process</text><text fill="#1A1A1A" font-family="'Inter, Helvetica, sans-serif'" font-size="14" font-weight="700" lengthAdjust="spacing" textLength="46.8298" x="352.3309" y="259.1739">(Node)</text><text fill="#1A1A1A" font-family="'Inter, Helvetica, sans-serif'" font-size="14" font-weight="700" lengthAdjust="spacing" textLength="200.5898" x="225.2051" y="278.2418">`:main` build &#8594; `:node-script`</text><text fill="#1A1A1A" font-family="'Inter, Helvetica, sans-serif'" font-size="14" font-weight="700" lengthAdjust="spacing" textLength="133.7555" x="258.6222" y="297.3097">`dist/main/main.js`</text><text fill="#1A1A1A" font-family="'Inter, Helvetica, sans-serif'" font-size="14" font-weight="700" lengthAdjust="spacing" textLength="210.4753" x="220.2624" y="316.3776">entry `vinary.main.core/main`</text></g><!--cluster Boundary--><g class="cluster" data-qualified-name="Electron runtime.Boundary" data-source-line="32" id="ent0007"><rect fill="none" height="464.27" rx="4" ry="4" style="stroke:#B1951D;stroke-width:1;stroke-dasharray:7,7;" width="574" x="47" y="696.5479"/><text fill="#1A1A1A" font-family="'Inter, Helvetica, sans-serif'" font-size="14" font-weight="700" lengthAdjust="spacing" textLength="105.4616" x="281.2692" y="713.5139">trust boundary</text><text fill="#1A1A1A" font-family="'Inter, Helvetica, sans-serif'" font-size="14" font-weight="700" lengthAdjust="spacing" textLength="169.3853" x="249.3073" y="732.5818">(contextIsolation = true,</text><text fill="#1A1A1A" font-family="'Inter, Helvetica, sans-serif'" font-size="14" font-weight="700" lengthAdjust="spacing" textLength="169.0354" x="249.4823" y="751.6497">nodeIntegration = false)</text></g><!--cluster Rend--><g class="cluster" data-qualified-name="Electron runtime.Boundary.Rend" data-source-line="33" id="ent0008"><rect fill="#2D9574" height="340.27" rx="4" ry="4" style="stroke:#888888;stroke-width:1.6;" width="510" x="79" y="788.5479"/><text fill="#1A1A1A" font-family="'Inter, Helvetica, sans-serif'" font-size="14" font-weight="700" lengthAdjust="spacing" textLength="129.8355" x="225.6754" y="805.5139">RENDERER process</text><text fill="#1A1A1A" font-family="'Inter, Helvetica, sans-serif'" font-size="14" font-weight="700" lengthAdjust="spacing" textLength="83.1737" x="359.1509" y="805.5139">(Chromium)</text><text fill="#1A1A1A" font-family="'Inter, Helvetica, sans-serif'" font-size="14" font-weight="700" lengthAdjust="spacing" textLength="205.3918" x="231.3041" y="824.5818">`:renderer` build &#8594; `:browser`</text><text fill="#1A1A1A" font-family="'Inter, Helvetica, sans-serif'" font-size="14" font-weight="700" lengthAdjust="spacing" textLength="200.0452" x="233.9774" y="843.6497">`resources/public/js/main.js`</text><text fill="#1A1A1A" font-family="'Inter, Helvetica, sans-serif'" font-size="14" font-weight="700" lengthAdjust="spacing" textLength="210.9373" x="228.5314" y="862.7176">init `vinary.renderer.core/init`</text></g><!--entity Build--><g class="entity" data-qualified-name="Build" data-source-line="20" id="ent0001"><rect fill="#4F97D7" height="58.1358" rx="4" ry="4" style="stroke:#181818;stroke-width:1.6;" width="212.0918" x="529.95" y="47.0679"/><text fill="#1A1A1A" font-family="'Inter, Helvetica, sans-serif'" font-size="14" lengthAdjust="spacing" textLength="76.4537" x="539.95" y="72.0339">shadow-cljs</text><text fill="#1A1A1A" font-family="'Inter, Helvetica, sans-serif'" font-size="14" lengthAdjust="spacing" textLength="192.0918" x="539.95" y="91.1018">(`shadow-cljs.edn` &#8594; 2 builds)</text></g><!--entity Preload--><g class="entity" data-qualified-name="Electron runtime.Preload" data-source-line="30" id="ent0006"><rect fill="#B1951D" height="77.2038" rx="4" ry="4" style="stroke:#181818;stroke-width:1.6;" width="209.0678" x="165.47" y="536.3379"/><text fill="#1A1A1A" font-family="'Inter, Helvetica, sans-serif'" font-size="14" lengthAdjust="spacing" textLength="124.1235" x="175.47" y="561.3039">preload (IPC seam)</text><text fill="#1A1A1A" font-family="'Inter, Helvetica, sans-serif'" font-size="14" lengthAdjust="spacing" textLength="142.5895" x="175.47" y="580.3718">`resources/preload.js`</text><text fill="#1A1A1A" font-family="'Inter, Helvetica, sans-serif'" font-size="14" lengthAdjust="spacing" textLength="189.0678" x="175.47" y="599.4397">contextBridge &#8594; `window.vv`</text></g><!--entity MCore--><g class="entity" data-qualified-name="Electron runtime.Main.MCore" data-source-line="26" id="ent0004"><rect fill="#3A5BA0" height="58.1358" rx="4" ry="4" style="stroke:#181818;stroke-width:1.6;" width="138.6635" x="61.67" y="345.2079"/><text fill="#1A1A1A" font-family="'Inter, Helvetica, sans-serif'" font-size="14" lengthAdjust="spacing" textLength="65.8277" x="71.67" y="370.1739">main.core</text><text fill="#1A1A1A" font-family="'Inter, Helvetica, sans-serif'" font-size="14" lengthAdjust="spacing" textLength="118.6635" x="71.67" y="389.2418">window + lifecycle</text></g><!--entity MSvc--><g class="entity" data-qualified-name="Electron runtime.Main.MSvc" data-source-line="27" id="ent0005"><rect fill="#3A5BA0" height="58.1358" rx="4" ry="4" style="stroke:#181818;stroke-width:1.6;" width="204.7433" x="235.63" y="345.2079"/><text fill="#1A1A1A" font-family="'Inter, Helvetica, sans-serif'" font-size="14" lengthAdjust="spacing" textLength="82.6837" x="245.63" y="370.1739">main.service</text><text fill="#1A1A1A" font-family="'Inter, Helvetica, sans-serif'" font-size="14" lengthAdjust="spacing" textLength="184.7433" x="245.63" y="389.2418">fs read &#183; chokidar watch &#183; git</text></g><!--entity RFrame--><g class="entity" data-qualified-name="Electron runtime.Boundary.Rend.RFrame" data-source-line="34" id="ent0009"><rect fill="#4F97D7" height="58.1358" rx="4" ry="4" style="stroke:#181818;stroke-width:1.6;" width="136.6755" x="190.66" y="891.5479"/><text fill="#1A1A1A" font-family="'Inter, Helvetica, sans-serif'" font-size="14" lengthAdjust="spacing" textLength="90.4257" x="200.66" y="916.5139">re-frame loop</text><text fill="#1A1A1A" font-family="'Inter, Helvetica, sans-serif'" font-size="14" lengthAdjust="spacing" textLength="116.6755" x="200.66" y="935.5818">(events &#183; subs &#183; fx)</text></g><!--entity DS--><g class="entity" data-qualified-name="Electron runtime.Boundary.Rend.DS" data-source-line="35" id="ent0010"><rect fill="#A45BAD" height="58.1358" rx="4" ry="4" style="stroke:#181818;stroke-width:1.6;" width="180.6914" x="135.65" y="1046.6779"/><text fill="#1A1A1A" font-family="'Inter, Helvetica, sans-serif'" font-size="14" lengthAdjust="spacing" textLength="104.5796" x="145.65" y="1071.6439">DataScript conn</text><text fill="#1A1A1A" font-family="'Inter, Helvetica, sans-serif'" font-size="14" lengthAdjust="spacing" textLength="160.6914" x="145.65" y="1090.7118">(documents / tabs SSOT)</text></g><!--entity UI--><g class="entity" data-qualified-name="Electron runtime.Boundary.Rend.UI" data-source-line="36" id="ent0011"><rect fill="#2D9574" height="58.1358" rx="4" ry="4" style="stroke:#181818;stroke-width:1.6;" width="158.2915" x="394.85" y="1046.6779"/><text fill="#1A1A1A" font-family="'Inter, Helvetica, sans-serif'" font-size="14" lengthAdjust="spacing" textLength="138.2915" x="404.85" y="1071.6439">reagent UI (React 19)</text><text fill="#1A1A1A" font-family="'Inter, Helvetica, sans-serif'" font-size="14" lengthAdjust="spacing" textLength="132.0755" x="404.85" y="1090.7118">+ unified markdown</text></g><!--link Build to Main--><g class="link" data-entity-1="ent0001" data-entity-2="ent0003" data-link-type="dependency" data-source-line="41" id="lnk12"><path d="M601.01,105.5779 C592.9,114.1579 585.37,124.2379 581,135.2079 C574.91,150.4879 577.22,156.1979 581,172.2079 C581.91,176.0779 583.89,176.3879 585,180.2079 C587.9688,190.3992 590.5097,201.0056 592.6831,211.7707 C593.7699,217.1532 594.7647,222.5754 595.6753,228.0053 C596.1305,230.7202 596.5647,233.437 596.9788,236.1517 C597.1858,237.5091 597.3878,238.8659 597.5848,240.2217 C597.6341,240.5607 596.9723,235.9503 597.021,236.2892" fill="none" id="Build-to-Main" style="stroke:#555555;stroke-width:1.3;"/><polygon fill="#555555" points="597.7317,241.2384,600.4118,231.7612,597.021,236.2892,592.493,232.8984,597.7317,241.2384" style="stroke:#555555;stroke-width:1.3;stroke-linejoin:miter;stroke-miterlimit:10;"/><text fill="#000000" font-family="'Inter, Helvetica, sans-serif'" font-size="13" lengthAdjust="spacing" textLength="54.522" x="594.779" y="150.1049">compiles</text><text fill="#000000" font-family="'Inter, Helvetica, sans-serif'" font-size="13" lengthAdjust="spacing" textLength="80.0801" x="582" y="167.8109">`:node-script`</text></g><!--link Build to Rend--><g class="link" data-entity-1="ent0001" data-entity-2="ent0008" data-link-type="dependency" data-source-line="42" id="lnk13"><path d="M654.72,105.5379 C659.73,114.6379 664.45,125.0079 667,135.2079 C670.99,151.1579 667.36,155.7679 667,172.2079 C662.11,398.2979 679.33,457.0279 645,680.5479 C636.78,734.0579 621.1475,792.8079 607.39,838.6767 C600.5113,861.611 594.1012,881.3251 589.3209,895.5537 C589.2462,895.776 590.7663,891.258 590.6924,891.4776" fill="none" id="Build-to-Rend" style="stroke:#555555;stroke-width:1.3;"/><polygon fill="#555555" points="589.0981,896.2166,595.7591,888.9619,590.6924,891.4776,588.1767,886.411,589.0981,896.2166" style="stroke:#555555;stroke-width:1.3;stroke-linejoin:miter;stroke-miterlimit:10;"/><text fill="#000000" font-family="'Inter, Helvetica, sans-serif'" font-size="13" lengthAdjust="spacing" textLength="54.522" x="703.8879" y="466.2349">compiles</text><text fill="#000000" font-family="'Inter, Helvetica, sans-serif'" font-size="13" lengthAdjust="spacing" textLength="61.165" x="700.5664" y="483.9409">`:browser`</text><text fill="#000000" font-family="'Inter, Helvetica, sans-serif'" font-size="13" lengthAdjust="spacing" textLength="127.0178" x="667.64" y="501.647">(fs/path/url &#10230; false)</text></g><!--link MCore to Preload--><g class="link" data-entity-1="ent0004" data-entity-2="ent0006" data-link-type="dependency" data-source-line="44" id="lnk14"><path d="M108.33,403.7579 C88.92,431.8579 67.27,475.0279 89,506.3379 C106.88,532.1079 131.1084,546.4815 160.6684,556.3715" fill="none" id="MCore-to-Preload" style="stroke:#555555;stroke-width:1.3;"/><polygon fill="#555555" points="165.41,557.9579,158.1442,551.309,160.6684,556.3715,155.6059,558.8957,165.41,557.9579" style="stroke:#555555;stroke-width:1.3;stroke-linejoin:miter;stroke-miterlimit:10;"/><text fill="#000000" font-family="'Inter, Helvetica, sans-serif'" font-size="13" lengthAdjust="spacing" textLength="156.4421" x="90" y="484.2349">`webPreferences.preload`</text></g><!--link MSvc to Preload--><g class="link" data-entity-1="ent0005" data-entity-2="ent0006" data-link-type="dependency" data-source-line="45" id="lnk15"><path d="M364.95,403.6979 C387.41,430.9879 412.79,472.8879 393,506.3379 C386.12,517.9779 380.4361,524.7561 369.4961,532.9261" fill="none" id="MSvc-to-Preload" style="stroke:#555555;stroke-width:1.3;stroke-dasharray:7,7;"/><polygon fill="#555555" points="365.49,535.9179,375.0945,533.7376,369.4961,532.9261,370.3076,527.3278,365.49,535.9179" style="stroke:#555555;stroke-width:1.3;stroke-linejoin:miter;stroke-miterlimit:10;"/><text fill="#000000" font-family="'Inter, Helvetica, sans-serif'" font-size="13" lengthAdjust="spacing" textLength="121.0171" x="438.313" y="475.2349">`webContents.send`</text><text fill="#000000" font-family="'Inter, Helvetica, sans-serif'" font-size="13" lengthAdjust="spacing" textLength="195.4032" x="401.12" y="492.9409">`vv:content` &#183; `vv:error` &#183; `vv:tree`</text></g><!--link Preload to MSvc--><g class="link" data-entity-1="ent0006" data-entity-2="ent0005" data-link-type="dependency" data-source-line="48" id="lnk18"><path d="M259.58,536.0679 C254.66,511.0979 252,478.1679 263,451.3379 C270.6,432.8079 281.4204,419.7193 295.6804,406.9093" fill="none" id="Preload-to-MSvc" style="stroke:#555555;stroke-width:1.3;stroke-dasharray:7,7;"/><polygon fill="#555555" points="299.4,403.5679,290.0317,406.6067,295.6804,406.9093,295.3778,412.558,299.4,403.5679" style="stroke:#555555;stroke-width:1.3;stroke-linejoin:miter;stroke-miterlimit:10;"/><text fill="#000000" font-family="'Inter, Helvetica, sans-serif'" font-size="13" lengthAdjust="spacing" textLength="114.8161" x="266.834" y="475.2349">`ipcRenderer.send`</text><text fill="#000000" font-family="'Inter, Helvetica, sans-serif'" font-size="13" lengthAdjust="spacing" textLength="120.4841" x="264" y="492.9409">`vv:open` &#183; `vv:close`</text></g><!--link Preload to RFrame--><g class="link" data-entity-1="ent0006" data-entity-2="ent0009" data-link-type="dependency" data-source-line="46" id="lnk16"><path d="M283.27,613.7679 C286.06,623.3679 288.58,633.7379 290,643.5479 C303.06,733.7579 281.1963,836.3983 268.1963,886.4783" fill="none" id="Preload-to-RFrame" style="stroke:#555555;stroke-width:1.3;stroke-dasharray:7,7;"/><polygon fill="#555555" points="266.94,891.3179,273.073,883.6117,268.1963,886.4783,265.3296,881.6016,266.94,891.3179" style="stroke:#555555;stroke-width:1.3;stroke-linejoin:miter;stroke-miterlimit:10;"/><text fill="#000000" font-family="'Inter, Helvetica, sans-serif'" font-size="13" lengthAdjust="spacing" textLength="239.8632" x="294.03" y="658.4449">`window.vv.onContent/onError/onTree`</text><text fill="#000000" font-family="'Inter, Helvetica, sans-serif'" font-size="13" lengthAdjust="spacing" textLength="95.8308" x="366.0462" y="676.1509">&#10230; `rf/dispatch`</text></g><!--link RFrame to Preload--><g class="link" data-entity-1="ent0009" data-entity-2="ent0006" data-link-type="dependency" data-source-line="47" id="lnk17"><path d="M229.08,891.3479 C178.39,839.9379 86,728.5979 138,643.5479 C145.19,631.7979 151.0804,624.9306 162.3204,616.7906" fill="none" id="RFrame-to-Preload" style="stroke:#555555;stroke-width:1.3;"/><polygon fill="#555555" points="166.37,613.8579,156.7346,615.8971,162.3204,616.7906,161.4269,622.3765,166.37,613.8579" style="stroke:#555555;stroke-width:1.3;stroke-linejoin:miter;stroke-miterlimit:10;"/><text fill="#000000" font-family="'Inter, Helvetica, sans-serif'" font-size="13" lengthAdjust="spacing" textLength="142.2461" x="139" y="667.4449">`window.vv.open/close`</text></g><!--link RFrame to DS--><g class="link" data-entity-1="ent0009" data-entity-2="ent0010" data-link-type="dependency" data-source-line="50" id="lnk19"><path d="M190.21,938.0679 C168.82,946.7779 147.56,959.9279 135,979.6779 C126.18,993.5579 127.1,1002.2579 135,1016.6779 C141.49,1028.5179 147.4541,1035.3779 158.5341,1043.3079" fill="none" id="RFrame-to-DS" style="stroke:#555555;stroke-width:1.3;"/><polygon fill="#555555" points="162.6,1046.2179,157.6093,1037.7272,158.5341,1043.3079,152.9533,1044.2327,162.6,1046.2179" style="stroke:#555555;stroke-width:1.3;stroke-linejoin:miter;stroke-miterlimit:10;"/><text fill="#000000" font-family="'Inter, Helvetica, sans-serif'" font-size="13" lengthAdjust="spacing" textLength="79.6901" x="136" y="1003.5749">`:ds/transact`</text></g><!--link DS to RFrame--><g class="link" data-entity-1="ent0010" data-entity-2="ent0009" data-link-type="dependency" data-source-line="51" id="lnk20"><path d="M232.15,1046.1979 C238.07,1018.7479 245.9065,982.3657 251.8165,954.9457" fill="none" id="DS-to-RFrame" style="stroke:#555555;stroke-width:1.3;stroke-dasharray:7,7;"/><polygon fill="#555555" points="252.87,950.0579,247.0635,958.0131,251.8165,954.9457,254.8839,959.6987,252.87,950.0579" style="stroke:#555555;stroke-width:1.3;stroke-linejoin:miter;stroke-miterlimit:10;"/><text fill="#000000" font-family="'Inter, Helvetica, sans-serif'" font-size="13" lengthAdjust="spacing" textLength="173.3499" x="247.43" y="994.5749">`d/listen!` &#10230; `[:ds/changed]`</text><text fill="#000000" font-family="'Inter, Helvetica, sans-serif'" font-size="13" lengthAdjust="spacing" textLength="102.7391" x="282.7354" y="1012.2809">(bumps `:ds/rev`)</text></g><!--link RFrame to UI--><g class="link" data-entity-1="ent0009" data-entity-2="ent0011" data-link-type="dependency" data-source-line="52" id="lnk21"><path d="M327.55,948.4779 C328.71,948.8779 329.86,949.2879 331,949.6779 C374.03,964.6279 394.54,949.8879 429,979.6779 C449.03,996.9979 459.3567,1020.4138 465.7967,1041.6138" fill="none" id="RFrame-to-UI" style="stroke:#555555;stroke-width:1.3;"/><polygon fill="#555555" points="467.25,1046.3979,468.4614,1036.6238,465.7967,1041.6138,460.8068,1038.9491,467.25,1046.3979" style="stroke:#555555;stroke-width:1.3;stroke-linejoin:miter;stroke-miterlimit:10;"/><text fill="#000000" font-family="'Inter, Helvetica, sans-serif'" font-size="13" lengthAdjust="spacing" textLength="81.6141" x="456.57" y="1003.5749">subscriptions</text></g><!--link MSvc to MSvc--><g class="link" data-entity-1="ent0005" data-entity-2="ent0005" data-link-type="dependency" data-source-line="53" id="lnk22"><path d="M440.74,355.5079 C460.98,357.6579 475.37,363.9079 475.37,374.2779 C475.37,384.6379 465.9523,390.3722 445.7123,392.5122" fill="none" id="MSvc-to-MSvc" style="stroke:#555555;stroke-width:1.3;"/><polygon fill="#555555" points="440.74,393.0379,450.1107,396.0694,445.7123,392.5122,449.2695,388.1138,440.74,393.0379" style="stroke:#555555;stroke-width:1.3;stroke-linejoin:miter;stroke-miterlimit:10;"/><text fill="#000000" font-family="'Inter, Helvetica, sans-serif'" font-size="13" lengthAdjust="spacing" textLength="99.3721" x="481.37" y="370.6749">reads filesystem</text><text fill="#000000" font-family="'Inter, Helvetica, sans-serif'" font-size="13" lengthAdjust="spacing" textLength="78.8061" x="491.653" y="388.3809">(out of band)</text></g><g class="legend" data-source-line="55"><rect fill="none" height="147.4754" rx="4" ry="4" style="stroke:#000000;stroke-width:1;" width="420.3105" x="371.3474" y="1205.8179"/><text fill="#000000" font-family="'Inter, Helvetica, sans-serif'" font-size="14" font-weight="700" lengthAdjust="spacing" textLength="46.0178" x="379.9873" y="1227.7839">Colour</text><text fill="#000000" font-family="'Inter, Helvetica, sans-serif'" font-size="14" font-weight="700" lengthAdjust="spacing" textLength="57.3438" x="433.2851" y="1227.7839">Concept</text><rect fill="#3A5BA0" height="19.0679" style="stroke:none;stroke-width:1;" width="53.2978" x="376.3474" y="1231.8858"/><text fill="#000000" font-family="'Inter, Helvetica, sans-serif'" font-size="14" lengthAdjust="spacing" textLength="3.64" x="376.3474" y="1246.8518">&#160;</text><text fill="#000000" font-family="'Inter, Helvetica, sans-serif'" font-size="14" lengthAdjust="spacing" textLength="104.4536" x="433.2851" y="1246.8518">MAIN / Node IO</text><rect fill="#2D9574" height="19.0679" style="stroke:none;stroke-width:1;" width="53.2978" x="376.3474" y="1250.9538"/><text fill="#000000" font-family="'Inter, Helvetica, sans-serif'" font-size="14" lengthAdjust="spacing" textLength="3.64" x="376.3474" y="1265.9197">&#160;</text><text fill="#000000" font-family="'Inter, Helvetica, sans-serif'" font-size="14" lengthAdjust="spacing" textLength="162.5254" x="433.2851" y="1265.9197">Renderer / Chromium UI</text><rect fill="#B1951D" height="19.0679" style="stroke:none;stroke-width:1;" width="53.2978" x="376.3474" y="1270.0217"/><text fill="#000000" font-family="'Inter, Helvetica, sans-serif'" font-size="14" lengthAdjust="spacing" textLength="3.64" x="376.3474" y="1284.9876">&#160;</text><text fill="#000000" font-family="'Inter, Helvetica, sans-serif'" font-size="14" lengthAdjust="spacing" textLength="229.4731" x="433.2851" y="1284.9876">IPC seam (preload / contextBridge)</text><rect fill="#A45BAD" height="19.0679" style="stroke:none;stroke-width:1;" width="53.2978" x="376.3474" y="1289.0896"/><text fill="#000000" font-family="'Inter, Helvetica, sans-serif'" font-size="14" lengthAdjust="spacing" textLength="3.64" x="376.3474" y="1304.0555">&#160;</text><text fill="#000000" font-family="'Inter, Helvetica, sans-serif'" font-size="14" lengthAdjust="spacing" textLength="215.4032" x="433.2851" y="1304.0555">DataScript single-source-of-truth</text><rect fill="#4F97D7" height="19.0679" style="stroke:none;stroke-width:1;" width="53.2978" x="376.3474" y="1308.1575"/><text fill="#000000" font-family="'Inter, Helvetica, sans-serif'" font-size="14" lengthAdjust="spacing" textLength="3.64" x="376.3474" y="1323.1234">&#160;</text><text fill="#000000" font-family="'Inter, Helvetica, sans-serif'" font-size="14" lengthAdjust="spacing" textLength="219.6031" x="433.2851" y="1323.1234">re-frame machinery / shadow-cljs</text><line style="stroke:#000000;stroke-width:1;" x1="376.3474" x2="666.3982" y1="1212.8179" y2="1212.8179"/><line style="stroke:#000000;stroke-width:1;" x1="376.3474" x2="666.3982" y1="1231.8858" y2="1231.8858"/><line style="stroke:#000000;stroke-width:1;" x1="376.3474" x2="666.3982" y1="1250.9538" y2="1250.9538"/><line style="stroke:#000000;stroke-width:1;" x1="376.3474" x2="666.3982" y1="1270.0217" y2="1270.0217"/><line style="stroke:#000000;stroke-width:1;" x1="376.3474" x2="666.3982" y1="1289.0896" y2="1289.0896"/><line style="stroke:#000000;stroke-width:1;" x1="376.3474" x2="666.3982" y1="1308.1575" y2="1308.1575"/><line style="stroke:#000000;stroke-width:1;" x1="376.3474" x2="666.3982" y1="1327.2254" y2="1327.2254"/><line style="stroke:#000000;stroke-width:1;" x1="376.3474" x2="376.3474" y1="1212.8179" y2="1327.2254"/><line style="stroke:#000000;stroke-width:1;" x1="429.6451" x2="429.6451" y1="1212.8179" y2="1327.2254"/><line style="stroke:#000000;stroke-width:1;" x1="666.3982" x2="666.3982" y1="1212.8179" y2="1327.2254"/><text fill="#000000" font-family="'Inter, Helvetica, sans-serif'" font-size="14" lengthAdjust="spacing" textLength="410.3105" x="376.3474" y="1344.1914">Dashed border = trust boundary &#183; Amber arrow = IPC message</text></g></g></svg>