<svg xmlns="http://www.w3.org/2000/svg" xmlns:xlink="http://www.w3.org/1999/xlink" contentStyleType="text/css" data-diagram-type="DESCRIPTION" height="709px" preserveAspectRatio="none" style="width:830px;height:709px;background:#FBF8EF;" version="1.1" viewBox="0 0 830 709" width="830px" zoomAndPan="magnify"><?plantuml $version$?><defs/><g><rect fill="#FBF8EF" height="709" style="stroke:none;stroke-width:1;" width="830" x="0" y="0"/><g class="title" data-source-line="7"><text fill="#000000" font-family="'Inter, Helvetica, sans-serif'" font-size="14" font-weight="700" lengthAdjust="spacing" textLength="469.1102" x="177.0949" y="24.9659">vinary-viewer &#8212; one source tree, FIVE shadow-cljs builds (0.3.0-dev)</text></g><!--cluster GUI application--><g class="cluster" data-qualified-name="GUI application" data-source-line="16" id="ent0002"><path d="M10,171.2779 L115.9676,171.2779 A6,6 0 0 1 119.9676,175.2779 L126.9676,196.3458 L276,196.3458 A4,4 0 0 1 280,200.3458 L280,536.8179 A4,4 0 0 1 276,540.8179 L10,540.8179 A4,4 0 0 1 6,536.8179 L6,175.2779 A4,4 0 0 1 10,171.2779" fill="none" style="stroke:#888888;stroke-width:1.5;"/><line style="stroke:#888888;stroke-width:1.5;" x1="6" x2="126.9676" y1="196.3458" y2="196.3458"/><text fill="#1A1A1A" font-family="'Inter, Helvetica, sans-serif'" font-size="14" font-weight="700" lengthAdjust="spacing" textLength="107.9676" x="10" y="188.2439">GUI application</text></g><!--cluster Terminal previewers (a second renderer over the IR)--><g class="cluster" data-qualified-name="Terminal previewers .a second renderer over the IR." data-source-line="21" id="ent0005"><path d="M317,171.2779 L678.8027,171.2779 A6,6 0 0 1 682.8027,175.2779 L689.8027,196.3458 L765,196.3458 A4,4 0 0 1 769,200.3458 L769,317.5479 A4,4 0 0 1 765,321.5479 L317,321.5479 A4,4 0 0 1 313,317.5479 L313,175.2779 A4,4 0 0 1 317,171.2779" fill="none" style="stroke:#888888;stroke-width:1.5;"/><line style="stroke:#888888;stroke-width:1.5;" x1="313" x2="689.8027" y1="196.3458" y2="196.3458"/><text fill="#1A1A1A" font-family="'Inter, Helvetica, sans-serif'" font-size="14" font-weight="700" lengthAdjust="spacing" textLength="363.8027" x="317" y="188.2439">Terminal previewers (a second renderer over the IR)</text></g><!--cluster Verification--><g class="cluster" data-qualified-name="Verification" data-source-line="26" id="ent0008"><path d="M551,390.5479 L630.2277,390.5479 A6,6 0 0 1 634.2277,394.5479 L641.2277,415.6158 L751,415.6158 A4,4 0 0 1 755,419.6158 L755,536.8179 A4,4 0 0 1 751,540.8179 L551,540.8179 A4,4 0 0 1 547,536.8179 L547,394.5479 A4,4 0 0 1 551,390.5479" fill="none" style="stroke:#888888;stroke-width:1.5;"/><line style="stroke:#888888;stroke-width:1.5;" x1="547" x2="641.2277" y1="415.6158" y2="415.6158"/><text fill="#1A1A1A" font-family="'Inter, Helvetica, sans-serif'" font-size="14" font-weight="700" lengthAdjust="spacing" textLength="81.2277" x="551" y="407.5139">Verification</text></g><!--entity Main--><g class="entity" data-qualified-name="GUI application.Main" data-source-line="17" id="ent0003"><rect fill="#E4E8F1" height="96.2717" rx="4" ry="4" style="stroke:#4A4A4A;stroke-width:1.6;" width="178.2414" x="44.88" y="209.2779"/><text fill="#1A1A1A" font-family="'Inter, Helvetica, sans-serif'" font-size="14" font-weight="700" lengthAdjust="spacing" textLength="35.3219" x="54.88" y="234.2439">main</text><text fill="#1A1A1A" font-family="'Inter, Helvetica, sans-serif'" font-size="14" lengthAdjust="spacing" textLength="86.7717" x="97.4818" y="234.2439">(:node-script)</text><text fill="#1A1A1A" font-family="'Inter, Helvetica, sans-serif'" font-size="14" lengthAdjust="spacing" textLength="156.0154" x="54.88" y="253.3118">`vinary.main.core/main`</text><text fill="#1A1A1A" font-family="'Inter, Helvetica, sans-serif'" font-size="14" lengthAdjust="spacing" textLength="138.9075" x="54.88" y="272.3797">-&gt; `dist/main/main.js`</text><text fill="#1A1A1A" font-family="'Inter, Helvetica, sans-serif'" font-size="14" lengthAdjust="spacing" textLength="158.2414" x="54.88" y="291.4476">Electron main / Node IO</text></g><!--entity Rend--><g class="entity" data-qualified-name="GUI application.Rend" data-source-line="18" id="ent0004"><rect fill="#E3F2ED" height="96.2717" rx="4" ry="4" style="stroke:#4A4A4A;stroke-width:1.6;" width="241.6891" x="22.16" y="428.5479"/><text fill="#1A1A1A" font-family="'Inter, Helvetica, sans-serif'" font-size="14" font-weight="700" lengthAdjust="spacing" textLength="61.7958" x="32.16" y="453.5139">renderer</text><text fill="#1A1A1A" font-family="'Inter, Helvetica, sans-serif'" font-size="14" lengthAdjust="spacing" textLength="66.4017" x="101.2357" y="453.5139">(:browser)</text><text fill="#1A1A1A" font-family="'Inter, Helvetica, sans-serif'" font-size="14" lengthAdjust="spacing" textLength="168.8253" x="32.16" y="472.5818">`vinary.renderer.core/init`</text><text fill="#1A1A1A" font-family="'Inter, Helvetica, sans-serif'" font-size="14" lengthAdjust="spacing" textLength="201.6692" x="32.16" y="491.6497">-&gt; `resources/public/js/main.js`</text><text fill="#1A1A1A" font-family="'Inter, Helvetica, sans-serif'" font-size="14" lengthAdjust="spacing" textLength="221.6891" x="32.16" y="510.7176">Chromium UI (fs/path/url -&gt; false)</text></g><!--entity Cli--><g class="entity" data-qualified-name="Terminal previewers .a second renderer over the IR..Cli" data-source-line="22" id="ent0006"><rect fill="#F5EAE0" height="96.2717" rx="4" ry="4" style="stroke:#4A4A4A;stroke-width:1.6;" width="184.0374" x="328.98" y="209.2779"/><text fill="#1A1A1A" font-family="'Inter, Helvetica, sans-serif'" font-size="14" font-weight="700" lengthAdjust="spacing" textLength="15.5819" x="338.98" y="234.2439">cli</text><text fill="#1A1A1A" font-family="'Inter, Helvetica, sans-serif'" font-size="14" lengthAdjust="spacing" textLength="86.7717" x="361.8419" y="234.2439">(:node-script)</text><text fill="#1A1A1A" font-family="'Inter, Helvetica, sans-serif'" font-size="14" lengthAdjust="spacing" textLength="136.7515" x="338.98" y="253.3118">`vinary.cli.core/main`</text><text fill="#1A1A1A" font-family="'Inter, Helvetica, sans-serif'" font-size="14" lengthAdjust="spacing" textLength="119.1115" x="338.98" y="272.3797">-&gt; `dist/cli/vv-cli.js`</text><text fill="#1A1A1A" font-family="'Inter, Helvetica, sans-serif'" font-size="14" lengthAdjust="spacing" textLength="164.0374" x="338.98" y="291.4476">`vv --cli` &#8212; one-shot ANSI</text></g><!--entity Tui--><g class="entity" data-qualified-name="Terminal previewers .a second renderer over the IR..Tui" data-source-line="23" id="ent0007"><rect fill="#F5EAE0" height="96.2717" rx="4" ry="4" style="stroke:#4A4A4A;stroke-width:1.6;" width="204.9813" x="548.51" y="209.2779"/><text fill="#1A1A1A" font-family="'Inter, Helvetica, sans-serif'" font-size="14" font-weight="700" lengthAdjust="spacing" textLength="19.3619" x="558.51" y="234.2439">tui</text><text fill="#1A1A1A" font-family="'Inter, Helvetica, sans-serif'" font-size="14" lengthAdjust="spacing" textLength="86.7717" x="585.1519" y="234.2439">(:node-script)</text><text fill="#1A1A1A" font-family="'Inter, Helvetica, sans-serif'" font-size="14" lengthAdjust="spacing" textLength="140.1255" x="558.51" y="253.3118">`vinary.tui.core/main`</text><text fill="#1A1A1A" font-family="'Inter, Helvetica, sans-serif'" font-size="14" lengthAdjust="spacing" textLength="125.8595" x="558.51" y="272.3797">-&gt; `dist/tui/vv-tui.js`</text><text fill="#1A1A1A" font-family="'Inter, Helvetica, sans-serif'" font-size="14" lengthAdjust="spacing" textLength="184.9813" x="558.51" y="291.4476">`vv --tui` &#8212; interactive pager</text></g><!--entity Test--><g class="entity" data-qualified-name="Verification.Test" data-source-line="27" id="ent0009"><rect fill="#E2EBF3" height="96.2717" rx="4" ry="4" style="stroke:#4A4A4A;stroke-width:1.6;" width="175.3854" x="563.31" y="428.5479"/><text fill="#1A1A1A" font-family="'Inter, Helvetica, sans-serif'" font-size="14" font-weight="700" lengthAdjust="spacing" textLength="27.5379" x="573.31" y="453.5139">test</text><text fill="#1A1A1A" font-family="'Inter, Helvetica, sans-serif'" font-size="14" lengthAdjust="spacing" textLength="74.9977" x="608.1279" y="453.5139">(:node-test)</text><text fill="#1A1A1A" font-family="'Inter, Helvetica, sans-serif'" font-size="14" lengthAdjust="spacing" textLength="114.7996" x="573.31" y="472.5818">ns-regexp `-test$`</text><text fill="#1A1A1A" font-family="'Inter, Helvetica, sans-serif'" font-size="14" lengthAdjust="spacing" textLength="121.9116" x="573.31" y="491.6497">-&gt; `dist/test/test.js`</text><text fill="#1A1A1A" font-family="'Inter, Helvetica, sans-serif'" font-size="14" lengthAdjust="spacing" textLength="155.3854" x="573.31" y="510.7176">DOM-free cljs unit build</text></g><!--entity Build--><g class="entity" data-qualified-name="Build" data-source-line="14" id="ent0001"><rect fill="#C4D9EB" height="77.2038" rx="4" ry="4" style="stroke:#4A4A4A;stroke-width:1.6;" width="239.3512" x="301.32" y="47.0679"/><text fill="#1A1A1A" font-family="'Inter, Helvetica, sans-serif'" font-size="14" lengthAdjust="spacing" textLength="76.4537" x="311.32" y="72.0339">shadow-cljs</text><text fill="#1A1A1A" font-family="'Inter, Helvetica, sans-serif'" font-size="14" lengthAdjust="spacing" textLength="121.6315" x="311.32" y="91.1018">(`shadow-cljs.edn`)</text><text fill="#1A1A1A" font-family="'Inter, Helvetica, sans-serif'" font-size="14" lengthAdjust="spacing" textLength="219.3512" x="311.32" y="110.1697">release -&gt; `:optimizations :simple`</text></g><!--link Build to Main--><g class="link" data-entity-1="ent0001" data-entity-2="ent0003" data-link-type="dependency" data-source-line="30" id="lnk10"><path d="M308.39,124.7479 C288.35,133.3079 268.11,143.1979 250,154.2779 C225.17,169.4679 204.2078,186.729 184.0778,205.489" fill="none" id="Build-to-Main" style="stroke:#555555;stroke-width:1.3;"/><polygon fill="#555555" points="180.42,208.8979,189.7312,205.6882,184.0778,205.489,184.277,199.8357,180.42,208.8979" style="stroke:#555555;stroke-width:1.3;stroke-linejoin:miter;stroke-miterlimit:10;"/></g><!--link Build to Rend--><g class="link" data-entity-1="ent0001" data-entity-2="ent0004" data-link-type="dependency" data-source-line="31" id="lnk11"><path d="M352.49,124.5879 C337.73,135.4379 323.45,148.4179 313,163.2779 C256.9,243.0079 305.13,291.5379 254,374.5479 C241.76,394.4079 228.2345,409.412 210.9845,424.862" fill="none" id="Build-to-Rend" style="stroke:#555555;stroke-width:1.3;"/><polygon fill="#555555" points="207.26,428.1979,216.6328,425.173,210.9845,424.862,211.2954,419.2137,207.26,428.1979" style="stroke:#555555;stroke-width:1.3;stroke-linejoin:miter;stroke-miterlimit:10;"/></g><!--link Build to Cli--><g class="link" data-entity-1="ent0001" data-entity-2="ent0006" data-link-type="dependency" data-source-line="32" id="lnk12"><path d="M421,124.7679 C421,149.6879 421,177.4379 421,204.0379" fill="none" id="Build-to-Cli" style="stroke:#555555;stroke-width:1.3;"/><polygon fill="#555555" points="421,209.0379,425,200.0379,421,204.0379,417,200.0379,421,209.0379" style="stroke:#555555;stroke-width:1.3;stroke-linejoin:miter;stroke-miterlimit:10;"/></g><!--link Build to Tui--><g class="link" data-entity-1="ent0001" data-entity-2="ent0007" data-link-type="dependency" data-source-line="33" id="lnk13"><path d="M476.79,124.6979 C494.28,136.8379 513.57,150.4479 531,163.2779 C550.76,177.8079 568.0551,190.9958 587.0851,205.8158" fill="none" id="Build-to-Tui" style="stroke:#555555;stroke-width:1.3;"/><polygon fill="#555555" points="591.03,208.8879,586.387,200.2022,587.0851,205.8158,581.4715,206.514,591.03,208.8879" style="stroke:#555555;stroke-width:1.3;stroke-linejoin:miter;stroke-miterlimit:10;"/></g><!--link Build to Test--><g class="link" data-entity-1="ent0001" data-entity-2="ent0009" data-link-type="dependency" data-source-line="34" id="lnk14"><path d="M541.05,97.2379 C630,107.8379 740.51,127.8379 769,163.2779 C815.3,220.8679 793.62,259.8679 769,329.5479 C755.75,367.0579 731.7806,398.3895 706.7006,424.6895" fill="none" id="Build-to-Test" style="stroke:#555555;stroke-width:1.3;"/><polygon fill="#555555" points="703.25,428.3079,712.3559,424.5552,706.7006,424.6895,706.5663,419.0342,703.25,428.3079" style="stroke:#555555;stroke-width:1.3;stroke-linejoin:miter;stroke-miterlimit:10;"/></g><!--link Main to Rend--><g class="link" data-entity-1="ent0003" data-entity-2="ent0004" data-link-type="dependency" data-source-line="36" id="lnk15"><path d="M135.96,305.8279 C137.47,342.1579 139.3336,387.0622 140.8336,423.3722" fill="none" id="Main-to-Rend" style="stroke:#555555;stroke-width:1.3;stroke-dasharray:7,7;"/><polygon fill="#555555" points="141.04,428.3679,144.6651,419.2105,140.8336,423.3722,136.6719,419.5407,141.04,428.3679" style="stroke:#555555;stroke-width:1.3;stroke-linejoin:miter;stroke-miterlimit:10;"/><text fill="#000000" font-family="'Inter, Helvetica, sans-serif'" font-size="13" lengthAdjust="spacing" textLength="76.8041" x="155.097" y="352.4449">loads via the</text><text fill="#000000" font-family="'Inter, Helvetica, sans-serif'" font-size="13" lengthAdjust="spacing" textLength="107.4581" x="139.77" y="370.1509">preload IPC seam</text></g><!--link Cli to Test--><g class="link" data-entity-1="ent0006" data-entity-2="ent0009" data-link-type="dependency" data-source-line="37" id="lnk16"><path d="M471.19,305.8279 C509.65,342.1579 558.8452,388.6245 597.2852,424.9345" fill="none" id="Cli-to-Test" style="stroke:#555555;stroke-width:1.3;stroke-dasharray:7,7;"/><polygon fill="#555555" points="600.92,428.3679,597.1241,419.28,597.2852,424.9345,591.6306,425.0956,600.92,428.3679" style="stroke:#555555;stroke-width:1.3;stroke-linejoin:miter;stroke-miterlimit:10;"/><text fill="#000000" font-family="'Inter, Helvetica, sans-serif'" font-size="13" lengthAdjust="spacing" textLength="66.7421" x="543.9" y="361.4449">covered by</text></g><!--link Tui to Test--><g class="link" data-entity-1="ent0007" data-entity-2="ent0009" data-link-type="dependency" data-source-line="38" id="lnk17"><path d="M651,305.8279 C651,342.1579 651,387.0579 651,423.3679" fill="none" id="Tui-to-Test" style="stroke:#555555;stroke-width:1.3;stroke-dasharray:7,7;"/><polygon fill="#555555" points="651,428.3679,655,419.3679,651,423.3679,647,419.3679,651,428.3679" style="stroke:#555555;stroke-width:1.3;stroke-linejoin:miter;stroke-miterlimit:10;"/><text fill="#000000" font-family="'Inter, Helvetica, sans-serif'" font-size="13" lengthAdjust="spacing" textLength="66.7421" x="652" y="361.4449">covered by</text></g><g class="legend" data-source-line="40"><rect fill="none" height="128.4075" rx="4" ry="4" style="stroke:#000000;stroke-width:1;" width="608.0919" x="203.2081" y="561.8179"/><text fill="#000000" font-family="'Inter, Helvetica, sans-serif'" font-size="14" font-weight="700" lengthAdjust="spacing" textLength="46.0178" x="211.8481" y="583.7839">Colour</text><text fill="#000000" font-family="'Inter, Helvetica, sans-serif'" font-size="14" font-weight="700" lengthAdjust="spacing" textLength="57.3438" x="265.1459" y="583.7839">Concept</text><rect fill="#4F97D7" height="19.0679" style="stroke:none;stroke-width:1;" width="53.2978" x="208.2081" y="587.8858"/><text fill="#000000" font-family="'Inter, Helvetica, sans-serif'" font-size="14" lengthAdjust="spacing" textLength="14.5599" x="208.2081" y="602.8518">&#160;&#160;&#160;&#160;</text><text fill="#000000" font-family="'Inter, Helvetica, sans-serif'" font-size="14" lengthAdjust="spacing" textLength="223.4251" x="265.1459" y="602.8518">shadow-cljs build / test machinery</text><rect fill="#3A5BA0" height="19.0679" style="stroke:none;stroke-width:1;" width="53.2978" x="208.2081" y="606.9538"/><text fill="#000000" font-family="'Inter, Helvetica, sans-serif'" font-size="14" lengthAdjust="spacing" textLength="14.5599" x="208.2081" y="621.9197">&#160;&#160;&#160;&#160;</text><text fill="#000000" font-family="'Inter, Helvetica, sans-serif'" font-size="14" lengthAdjust="spacing" textLength="155.1614" x="265.1459" y="621.9197">main process / Node IO</text><rect fill="#2D9574" height="19.0679" style="stroke:none;stroke-width:1;" width="53.2978" x="208.2081" y="626.0217"/><text fill="#000000" font-family="'Inter, Helvetica, sans-serif'" font-size="14" lengthAdjust="spacing" textLength="14.5599" x="208.2081" y="640.9876">&#160;&#160;&#160;&#160;</text><text fill="#000000" font-family="'Inter, Helvetica, sans-serif'" font-size="14" lengthAdjust="spacing" textLength="169.7913" x="265.1459" y="640.9876">renderer / Chromium GUI</text><rect fill="#E67E22" height="19.0679" style="stroke:none;stroke-width:1;" width="53.2978" x="208.2081" y="645.0896"/><text fill="#000000" font-family="'Inter, Helvetica, sans-serif'" font-size="14" lengthAdjust="spacing" textLength="14.5599" x="208.2081" y="660.0555">&#160;&#160;&#160;&#160;</text><text fill="#000000" font-family="'Inter, Helvetica, sans-serif'" font-size="14" lengthAdjust="spacing" textLength="261.547" x="265.1459" y="660.0555">terminal previewer (IR + ANSI back-end)</text><line style="stroke:#000000;stroke-width:1;" x1="208.2081" x2="530.3328" y1="568.8179" y2="568.8179"/><line style="stroke:#000000;stroke-width:1;" x1="208.2081" x2="530.3328" y1="587.8858" y2="587.8858"/><line style="stroke:#000000;stroke-width:1;" x1="208.2081" x2="530.3328" y1="606.9538" y2="606.9538"/><line style="stroke:#000000;stroke-width:1;" x1="208.2081" x2="530.3328" y1="626.0217" y2="626.0217"/><line style="stroke:#000000;stroke-width:1;" x1="208.2081" x2="530.3328" y1="645.0896" y2="645.0896"/><line style="stroke:#000000;stroke-width:1;" x1="208.2081" x2="530.3328" y1="664.1575" y2="664.1575"/><line style="stroke:#000000;stroke-width:1;" x1="208.2081" x2="208.2081" y1="568.8179" y2="664.1575"/><line style="stroke:#000000;stroke-width:1;" x1="261.5059" x2="261.5059" y1="568.8179" y2="664.1575"/><line style="stroke:#000000;stroke-width:1;" x1="530.3328" x2="530.3328" y1="568.8179" y2="664.1575"/><text fill="#000000" font-family="'Inter, Helvetica, sans-serif'" font-size="14" lengthAdjust="spacing" textLength="598.0919" x="208.2081" y="681.1234">All five compile from one `src/vinary` tree; `install.sh` builds the GUI + both terminal modes.</text></g><?plantuml-src VLNXRjis4FwlfxWbmsAdavoaROAcQm77SGO3iLjuRdy5Y2ZgR36XI86ad7fBWJr4dx1FiYDbE-gI1WO47uztzzt7xyYzFVWecNAVnfUWbsXWZAPa8eSCEQijdi9SB16OSMBEk0E3t36ra6X18UPGeOcpMiYSzaa9N4jT6mkvONSAvaQNu0e4Mp23URIt1zVBPKmh9KB593g7qD4Art7m3hnH6StHMhWLAWV6ZQR_FijTeINbgeN3xk_0m0eFn2VFzLtCvOslIsYDBpHdIf4VTEt0QM04pdT2SPHqONHTUM-ssbQRirB8LR8bmDRPmh2giC0fbNPhZ37NEVeuhXN7olbQIXkuHQm2IYfOKSrivJ0sIDdpcejCOXBz8XINDKLlIKX4NSeeSi9H7qkXc5d5Iu5tT0xV__qMoB1KaoCuWuJzOlHv-4E_WNeBdOFaPN8GvxZiHf4btYfcMFbmMF1F172cJOvcLWX-gtp3XyanhLvevGRKcO7Tmxx_HL-Zw25mfrNjIdNIbfbWhjBkbJ8eaLc4-3safxfoeXH_CoUqid1gHLb9J7U0MJWBCfaEBwRzyV1wDfhCegXY_9OjgCoVdqR0gaeA7a9t0k8MZFrzEXIrlm_GELLq0h7bHbIEogSDRudt9rmRxFb_wPNoU79XNR339xcnj3wKbDPe1Nu9UZ3n1phw432E_TAuFvfSNumkB_yFmQ0Y1j4qC3AZxooQ5eIDlu4Xb71h60QROxIzgiwenzwDRG4Q53Gdf0GW3ZfpsiDSqQkDz8pEcRJO3TYcb9tecvmFfyDfW-zhYy4PwPPWI18qDXeYNT2G80arXmsqPiYzJaVJxXCiSocU8vdSJtDCZXwfslj3J-bo2R4tqusIOrlG4FKdVur2DmCf2CAJDBlwMGpaVXe3EJm6xszX8BF189H3GtUOlyygeim47BFw0KURpizenFpdQdHeNGkaDmcYiZJo2_nIGHgMVlq17gu_3Rhp3-DuJbCDOP1h4aippGqgshOTbGssPe1YIkXbsZAzCbecKTkogC6sHOcZACWyIPf8E0Mf6TqYIy6yCguKASYlmEZZWFJ3oiWVbjyUOD5-xbL4jt-sYZn_Ft55ahZmsXEBmX61z-zWqDppuL-uFk7UE_xOVNNnvkJyvFrlkuV71syVV-yVtteqkPvCcc9U28LcjKdril_wh7_mJAemzvjhVpl_c_2ZypUlJruz4xuTfHvi9zTVN-luuV79yEZecNZtQ52XCvh2Yp0Ra940OwhG3VdwwsUBQ2qhGT8BJwf_5r9hUA-PY3Iy3cyX5SewUkWIMwIRby5FkWVt0ZBjYeVQ9JLjauWADOVq7m00?></g></svg>