<svg xmlns="http://www.w3.org/2000/svg" xmlns:xlink="http://www.w3.org/1999/xlink" contentStyleType="text/css" data-diagram-type="DESCRIPTION" height="1071px" preserveAspectRatio="none" style="width:1241px;height:1071px;background:#FBF8EF;" version="1.1" viewBox="0 0 1241 1071" width="1241px" zoomAndPan="magnify"><?plantuml $version$?><defs/><g><rect fill="#FBF8EF" height="1071" style="stroke:none;stroke-width:1;" width="1241" x="0" y="0"/><g class="title" data-source-line="13"><text fill="#000000" font-family="'Inter, Helvetica, sans-serif'" font-size="14" font-weight="700" lengthAdjust="spacing" textLength="313.9487" x="460.5188" y="24.9659">Deployment &#8212; Electron processes &amp; artifacts</text></g><!--cluster Runtime--><g class="cluster" data-qualified-name="Runtime" data-source-line="22" id="ent0001"><polygon fill="#FFFFFF" points="16,56.0679,26,46.0679,821,46.0679,821,863.6779,811,873.6779,16,873.6779,16,56.0679" style="stroke:#888888;stroke-width:1.6;stroke-linejoin:miter;stroke-miterlimit:10;"/><line style="stroke:#888888;stroke-width:1.6;" x1="811" x2="821" y1="56.0679" y2="46.0679"/><line style="stroke:#888888;stroke-width:1.6;" x1="16" x2="811" y1="56.0679" y2="56.0679"/><line style="stroke:#888888;stroke-width:1.6;" x1="811" x2="811" y1="56.0679" y2="873.6779"/><text fill="#000000" font-family="'Inter, Helvetica, sans-serif'" font-size="14" font-weight="700" lengthAdjust="spacing" textLength="118.1455" x="355.4272" y="74.0339">Electron runtime</text><text fill="#000000" font-family="'Inter, Helvetica, sans-serif'" font-size="14" font-weight="700" lengthAdjust="spacing" textLength="85.5817" x="371.7092" y="93.1018">(`electron .`)</text></g><!--cluster MainNode--><g class="cluster" data-qualified-name="Runtime.MainNode" data-source-line="24" id="ent0002"><polygon fill="#E4E8F1" points="289,134.0679,299,124.0679,505,124.0679,505,412.3379,495,422.3379,289,422.3379,289,134.0679" style="stroke:#888888;stroke-width:1.6;stroke-linejoin:miter;stroke-miterlimit:10;"/><line style="stroke:#888888;stroke-width:1.6;" x1="495" x2="505" y1="134.0679" y2="124.0679"/><line style="stroke:#888888;stroke-width:1.6;" x1="289" x2="495" y1="134.0679" y2="134.0679"/><line style="stroke:#888888;stroke-width:1.6;" x1="495" x2="495" y1="134.0679" y2="422.3379"/><text fill="#000000" font-family="'Inter, Helvetica, sans-serif'" font-size="14" font-weight="700" lengthAdjust="spacing" textLength="96.8516" x="344.5742" y="152.0339">MAIN process</text><text fill="#000000" font-family="'Inter, Helvetica, sans-serif'" font-size="14" font-weight="700" lengthAdjust="spacing" textLength="46.8298" x="369.5851" y="171.1018">(Node)</text></g><!--cluster RendNode--><g class="cluster" data-qualified-name="Runtime.RendNode" data-source-line="31" id="ent0006"><polygon fill="none" points="48,499.3379,58,489.3379,789,489.3379,789,831.6779,779,841.6779,48,841.6779,48,499.3379" style="stroke:#B1951D;stroke-width:1;stroke-dasharray:7,7;stroke-linejoin:miter;stroke-miterlimit:10;"/><line style="stroke:#B1951D;stroke-width:1;stroke-dasharray:7,7;" x1="779" x2="789" y1="499.3379" y2="489.3379"/><line style="stroke:#B1951D;stroke-width:1;stroke-dasharray:7,7;" x1="48" x2="779" y1="499.3379" y2="499.3379"/><line style="stroke:#B1951D;stroke-width:1;stroke-dasharray:7,7;" x1="779" x2="779" y1="499.3379" y2="841.6779"/><text fill="#000000" font-family="'Inter, Helvetica, sans-serif'" font-size="14" font-weight="700" lengthAdjust="spacing" textLength="129.8355" x="349.5823" y="517.3039">RENDERER process</text><text fill="#000000" font-family="'Inter, Helvetica, sans-serif'" font-size="14" font-weight="700" lengthAdjust="spacing" textLength="208.7392" x="310.1304" y="536.3718">(Chromium &#183; BrowserWindow)</text><text fill="#000000" font-family="'Inter, Helvetica, sans-serif'" font-size="14" font-weight="700" lengthAdjust="spacing" textLength="160.6494" x="334.1753" y="555.4397">contextIsolation = true</text><text fill="#000000" font-family="'Inter, Helvetica, sans-serif'" font-size="14" font-weight="700" lengthAdjust="spacing" textLength="164.2894" x="332.3553" y="574.5076">nodeIntegration = false</text></g><!--entity PreloadArt--><g class="entity" data-qualified-name="Runtime.PreloadArt" data-source-line="29" id="ent0005"><rect fill="#EEE6C1" height="61.1358" rx="4" ry="4" style="stroke:#181818;stroke-width:1.3;" width="212.0973" x="528.95" y="337.1979"/><polygon fill="#EEE6C1" points="724.0473,342.1979,724.0473,356.1979,736.0473,356.1979,736.0473,348.1979,730.0473,342.1979,724.0473,342.1979" style="stroke:#181818;stroke-width:1.3;stroke-linejoin:miter;stroke-miterlimit:10;"/><line style="stroke:#181818;stroke-width:1.3;" x1="730.0473" x2="730.0473" y1="342.1979" y2="348.1979"/><line style="stroke:#181818;stroke-width:1.3;" x1="736.0473" x2="730.0473" y1="348.1979" y2="348.1979"/><text fill="#000000" font-family="'Inter, Helvetica, sans-serif'" font-size="14" lengthAdjust="spacing" textLength="134.7215" x="538.95" y="365.1639">resources/preload.js</text><text fill="#000000" font-family="'Inter, Helvetica, sans-serif'" font-size="14" lengthAdjust="spacing" textLength="182.0973" x="538.95" y="384.2318">(contextBridge `window.vv`)</text></g><!--entity MainArt--><g class="entity" data-qualified-name="Runtime.MainNode.MainArt" data-source-line="25" id="ent0003"><rect fill="#C9D2E6" height="61.1358" rx="4" ry="4" style="stroke:#181818;stroke-width:1.3;" width="144.8836" x="316.56" y="194.0679"/><polygon fill="#C9D2E6" points="444.4436,199.0679,444.4436,213.0679,456.4436,213.0679,456.4436,205.0679,450.4436,199.0679,444.4436,199.0679" style="stroke:#181818;stroke-width:1.3;stroke-linejoin:miter;stroke-miterlimit:10;"/><line style="stroke:#181818;stroke-width:1.3;" x1="450.4436" x2="450.4436" y1="199.0679" y2="205.0679"/><line style="stroke:#181818;stroke-width:1.3;" x1="456.4436" x2="450.4436" y1="205.0679" y2="205.0679"/><text fill="#000000" font-family="'Inter, Helvetica, sans-serif'" font-size="14" lengthAdjust="spacing" textLength="114.8836" x="326.56" y="222.0339">dist/main/main.js</text><text fill="#000000" font-family="'Inter, Helvetica, sans-serif'" font-size="14" lengthAdjust="spacing" textLength="94.6396" x="326.56" y="241.1018">(`:node-script`)</text></g><!--entity Nm--><g class="entity" data-qualified-name="Runtime.MainNode.Nm" data-source-line="26" id="ent0004"><rect fill="#DFD9D0" height="61.1358" rx="4" ry="4" style="stroke:#181818;stroke-width:1.3;" width="160.6895" x="312.66" y="337.1979"/><polygon fill="#DFD9D0" points="456.3495,342.1979,456.3495,356.1979,468.3495,356.1979,468.3495,348.1979,462.3495,342.1979,456.3495,342.1979" style="stroke:#181818;stroke-width:1.3;stroke-linejoin:miter;stroke-miterlimit:10;"/><line style="stroke:#181818;stroke-width:1.3;" x1="462.3495" x2="462.3495" y1="342.1979" y2="348.1979"/><line style="stroke:#181818;stroke-width:1.3;" x1="468.3495" x2="462.3495" y1="348.1979" y2="348.1979"/><text fill="#000000" font-family="'Inter, Helvetica, sans-serif'" font-size="14" lengthAdjust="spacing" textLength="96.8796" x="322.66" y="365.1639">node_modules</text><text fill="#000000" font-family="'Inter, Helvetica, sans-serif'" font-size="14" lengthAdjust="spacing" textLength="130.6895" x="322.66" y="384.2318">(chokidar &#183; electron)</text></g><!--entity Html--><g class="entity" data-qualified-name="Runtime.RendNode.Html" data-source-line="32" id="ent0007"><rect fill="#C7E8DE" height="42.0679" rx="4" ry="4" style="stroke:#181818;stroke-width:1.3;" width="215.1773" x="72.41" y="606.8679"/><polygon fill="#C7E8DE" points="270.5873,611.8679,270.5873,625.8679,282.5873,625.8679,282.5873,617.8679,276.5873,611.8679,270.5873,611.8679" style="stroke:#181818;stroke-width:1.3;stroke-linejoin:miter;stroke-miterlimit:10;"/><line style="stroke:#181818;stroke-width:1.3;" x1="276.5873" x2="276.5873" y1="611.8679" y2="617.8679"/><line style="stroke:#181818;stroke-width:1.3;" x1="282.5873" x2="276.5873" y1="617.8679" y2="617.8679"/><text fill="#000000" font-family="'Inter, Helvetica, sans-serif'" font-size="14" lengthAdjust="spacing" textLength="185.1773" x="82.41" y="634.8339">resources/public/index.html</text></g><!--entity RendArt--><g class="entity" data-qualified-name="Runtime.RendNode.RendArt" data-source-line="33" id="ent0008"><rect fill="#C7E8DE" height="61.1358" rx="4" ry="4" style="stroke:#181818;stroke-width:1.3;" width="207.6453" x="322.18" y="597.3379"/><polygon fill="#C7E8DE" points="512.8253,602.3379,512.8253,616.3379,524.8253,616.3379,524.8253,608.3379,518.8253,602.3379,512.8253,602.3379" style="stroke:#181818;stroke-width:1.3;stroke-linejoin:miter;stroke-miterlimit:10;"/><line style="stroke:#181818;stroke-width:1.3;" x1="518.8253" x2="518.8253" y1="602.3379" y2="608.3379"/><line style="stroke:#181818;stroke-width:1.3;" x1="524.8253" x2="518.8253" y1="608.3379" y2="608.3379"/><text fill="#000000" font-family="'Inter, Helvetica, sans-serif'" font-size="14" lengthAdjust="spacing" textLength="177.6453" x="332.18" y="625.3039">resources/public/js/main.js</text><text fill="#000000" font-family="'Inter, Helvetica, sans-serif'" font-size="14" lengthAdjust="spacing" textLength="74.2697" x="332.18" y="644.3718">(`:browser`)</text></g><!--entity Css--><g class="entity" data-qualified-name="Runtime.RendNode.Css" data-source-line="34" id="ent0009"><rect fill="#C7E8DE" height="61.1358" rx="4" ry="4" style="stroke:#181818;stroke-width:1.3;" width="180.3454" x="564.83" y="597.3379"/><polygon fill="#C7E8DE" points="728.1754,602.3379,728.1754,616.3379,740.1754,616.3379,740.1754,608.3379,734.1754,602.3379,728.1754,602.3379" style="stroke:#181818;stroke-width:1.3;stroke-linejoin:miter;stroke-miterlimit:10;"/><line style="stroke:#181818;stroke-width:1.3;" x1="734.1754" x2="734.1754" y1="602.3379" y2="608.3379"/><line style="stroke:#181818;stroke-width:1.3;" x1="740.1754" x2="734.1754" y1="608.3379" y2="608.3379"/><text fill="#000000" font-family="'Inter, Helvetica, sans-serif'" font-size="14" lengthAdjust="spacing" textLength="140.1815" x="574.83" y="625.3039">resources/public/css/</text><text fill="#000000" font-family="'Inter, Helvetica, sans-serif'" font-size="14" lengthAdjust="spacing" textLength="150.3454" x="574.83" y="644.3718">app.css + themes/*.css</text></g><!--entity Nm2--><g class="entity" data-qualified-name="Runtime.RendNode.Nm2" data-source-line="35" id="ent0010"><rect fill="#D7EEC1" height="80.2038" rx="4" ry="4" style="stroke:#181818;stroke-width:1.3;" width="200.1693" x="325.92" y="737.4779"/><polygon fill="#D7EEC1" points="509.0893,742.4779,509.0893,756.4779,521.0893,756.4779,521.0893,748.4779,515.0893,742.4779,509.0893,742.4779" style="stroke:#181818;stroke-width:1.3;stroke-linejoin:miter;stroke-miterlimit:10;"/><line style="stroke:#181818;stroke-width:1.3;" x1="515.0893" x2="515.0893" y1="742.4779" y2="748.4779"/><line style="stroke:#181818;stroke-width:1.3;" x1="521.0893" x2="515.0893" y1="748.4779" y2="748.4779"/><text fill="#000000" font-family="'Inter, Helvetica, sans-serif'" font-size="14" lengthAdjust="spacing" textLength="96.8796" x="335.92" y="765.4439">node_modules</text><text fill="#000000" font-family="'Inter, Helvetica, sans-serif'" font-size="14" lengthAdjust="spacing" textLength="170.1693" x="335.92" y="784.5118">(unified &#183; remark &#183; rehype)</text><text fill="#000000" font-family="'Inter, Helvetica, sans-serif'" font-size="14" lengthAdjust="spacing" textLength="159.7254" x="335.92" y="803.5797">[bundled into js/main.js]</text></g><!--entity Vol--><g class="entity" data-qualified-name="Vol" data-source-line="39" id="ent0011"><path d="M837.26,344.1979 C837.26,334.1979 941.0036,334.1979 941.0036,334.1979 C941.0036,334.1979 1044.7473,334.1979 1044.7473,344.1979 L1044.7473,391.3338 C1044.7473,401.3338 941.0036,401.3338 941.0036,401.3338 C941.0036,401.3338 837.26,401.3338 837.26,391.3338 L837.26,344.1979" fill="#DFD9D0" style="stroke:#181818;stroke-width:0.5;"/><path d="M837.26,344.1979 C837.26,354.1979 941.0036,354.1979 941.0036,354.1979 C941.0036,354.1979 1044.7473,354.1979 1044.7473,344.1979" fill="none" style="stroke:#181818;stroke-width:0.5;"/><text fill="#000000" font-family="'Inter, Helvetica, sans-serif'" font-size="14" lengthAdjust="spacing" textLength="121.4495" x="847.26" y="373.1639">Filesystem volume</text><text fill="#000000" font-family="'Inter, Helvetica, sans-serif'" font-size="14" lengthAdjust="spacing" textLength="187.4873" x="847.26" y="392.2318">(user's documents &#183; git repo)</text></g><g class="entity" data-qualified-name="GMN19" data-source-line="50" id="ent0020"><path d="M837.02,750.0179 L837.02,805.136 A4,4 0 0 0 841.02,809.136 L1222.9863,809.136 A4,4 0 0 0 1226.9863,805.136 L1226.9863,756.0179 L1216.9863,746.0179 L841.02,746.0179 A4,4 0 0 0 837.02,750.0179" fill="#FFF6D6" style="stroke:#7F6B14;stroke-width:0.5;"/><path d="M1216.9863,746.0179 L1216.9863,754.0179 A2,2 0 0 0 1218.9863,756.0179 L1226.9863,756.0179 L1216.9863,746.0179" fill="#FFF6D6" style="stroke:#7F6B14;stroke-width:1;"/><text fill="#000000" font-family="'Inter, Helvetica, sans-serif'" font-size="13" lengthAdjust="spacing" textLength="105.0401" x="843.02" y="764.9149">The renderer has</text><text fill="#000000" font-family="'Inter, Helvetica, sans-serif'" font-size="13" font-weight="700" lengthAdjust="spacing" textLength="100.0221" x="951.4401" y="764.9149">no Node access</text><text fill="#000000" font-family="'Inter, Helvetica, sans-serif'" font-size="13" lengthAdjust="spacing" textLength="117.2991" x="1051.4622" y="764.9149">: `fs`/`path`/`url` are</text><text fill="#000000" font-family="'Inter, Helvetica, sans-serif'" font-size="13" lengthAdjust="spacing" textLength="323.8303" x="843.02" y="782.6209">resolved to `false` at build time, so the bundle cannot</text><text fill="#000000" font-family="'Inter, Helvetica, sans-serif'" font-size="13" lengthAdjust="spacing" textLength="368.9663" x="843.02" y="800.327">reach the filesystem. All IO crosses the amber preload seam.</text></g><!--link MainNode to PreloadArt--><g class="link" data-entity-1="ent0002" data-entity-2="ent0005" data-link-type="dependency" data-source-line="41" id="lnk12"><path d="M505.0436,256.8282 C505.085,256.9526 505.1267,257.0771 505.1686,257.2018 C505.336,257.7005 505.5063,258.202 505.6796,258.706 C506.0261,259.714 506.3844,260.7321 506.7546,261.7584 C507.4951,263.8109 508.2835,265.8958 509.1218,267.9974 C510.7982,272.2005 512.6739,276.47 514.7641,280.6793 C518.9444,289.0979 523.9825,297.2754 530,304.1979 C541.07,316.9379 551.1329,325.1755 565.6129,334.0955" fill="none" id="MainNode-to-PreloadArt" style="stroke:#555555;stroke-width:1.3;"/><polygon fill="#555555" points="569.87,336.7179,564.3052,328.5918,565.6129,334.0955,560.1093,335.4032,569.87,336.7179" style="stroke:#555555;stroke-width:1.3;stroke-linejoin:miter;stroke-miterlimit:10;"/><text fill="#000000" font-family="'Inter, Helvetica, sans-serif'" font-size="13" lengthAdjust="spacing" textLength="156.4421" x="531" y="300.0949">`webPreferences.preload`</text></g><!--link PreloadArt to RendNode--><g class="link" data-entity-1="ent0005" data-entity-2="ent0006" data-link-type="dependency" data-source-line="42" id="lnk13"><path d="M687.06,398.6679 C713.65,416.7679 743.91,442.3479 761,473.3379 C763.0444,477.0467 764.9129,480.8803 766.6194,484.8095 C767.0461,485.7918 767.4626,486.7801 767.8692,487.7739 C768.0725,488.2707 766.4281,484.122 766.6264,484.6216" fill="none" id="PreloadArt-to-RendNode" style="stroke:#555555;stroke-width:1.3;stroke-dasharray:7,7;"/><polygon fill="#555555" points="768.4717,489.2686,768.8678,479.4277,766.6264,484.6216,761.4326,482.3802,768.4717,489.2686" style="stroke:#555555;stroke-width:1.3;stroke-linejoin:miter;stroke-miterlimit:10;"/><text fill="#000000" font-family="'Inter, Helvetica, sans-serif'" font-size="13" lengthAdjust="spacing" textLength="169.5591" x="755.11" y="461.2349">injected before page scripts</text></g><!--link MainArt to Nm--><g class="link" data-entity-1="ent0003" data-entity-2="ent0004" data-link-type="dependency" data-source-line="43" id="lnk14"><path d="M316.11,245.3679 C283.16,258.2979 254.83,277.7379 271,304.1979 C280.74,320.1479 291.5981,329.7899 308.0481,338.8299" fill="none" id="MainArt-to-Nm" style="stroke:#555555;stroke-width:1.3;"/><polygon fill="#555555" points="312.43,341.2379,306.469,333.3979,308.0481,338.8299,302.6161,340.4089,312.43,341.2379" style="stroke:#555555;stroke-width:1.3;stroke-linejoin:miter;stroke-miterlimit:10;"/><text fill="#000000" font-family="'Inter, Helvetica, sans-serif'" font-size="13" lengthAdjust="spacing" textLength="104.4421" x="272" y="300.0949">runtime `require`</text></g><!--link MainArt to Vol--><g class="link" data-entity-1="ent0003" data-entity-2="ent0011" data-link-type="dependency" data-source-line="44" id="lnk15"><path d="M461.69,254.3279 C462.8,254.6279 463.9,254.9179 465,255.1979 C563.57,280.4979 595.04,254.2979 692,285.1979 C709.24,290.6979 711.24,297.3979 728,304.1979 C748.53,312.5379 788.7899,324.6431 832.2099,336.9631" fill="none" id="MainArt-to-Vol" style="stroke:#555555;stroke-width:1.3;"/><polygon fill="#555555" points="837.02,338.3279,829.4536,332.0231,832.2099,336.9631,827.2699,339.7193,837.02,338.3279" style="stroke:#555555;stroke-width:1.3;stroke-linejoin:miter;stroke-miterlimit:10;"/><text fill="#000000" font-family="'Inter, Helvetica, sans-serif'" font-size="13" font-weight="700" lengthAdjust="spacing" textLength="29.575" x="729" y="300.0949">read</text><text fill="#000000" font-family="'Inter, Helvetica, sans-serif'" font-size="13" lengthAdjust="spacing" textLength="53.7551" x="761.955" y="300.0949">content &#183;</text><text fill="#000000" font-family="'Inter, Helvetica, sans-serif'" font-size="13" font-weight="700" lengthAdjust="spacing" textLength="39.715" x="819.0901" y="300.0949">watch</text><text fill="#000000" font-family="'Inter, Helvetica, sans-serif'" font-size="13" lengthAdjust="spacing" textLength="34.242" x="862.1851" y="300.0949">paths</text></g><!--link MainArt to Vol--><g class="link" data-entity-1="ent0003" data-entity-2="ent0011" data-link-type="dependency" data-source-line="45" id="lnk16"><path d="M461.67,254.4179 C462.78,254.6979 463.89,254.9579 465,255.1979 C559.78,276.3879 820.4,231.0279 901,285.1979 C917.62,296.3779 926.018,311.7948 931.848,329.2748" fill="none" id="MainArt-to-Vol-1" style="stroke:#555555;stroke-width:1.3;"/><polygon fill="#555555" points="933.43,334.0179,934.377,324.2147,931.848,329.2748,926.788,326.7458,933.43,334.0179" style="stroke:#555555;stroke-width:1.3;stroke-linejoin:miter;stroke-miterlimit:10;"/><text fill="#000000" font-family="'Inter, Helvetica, sans-serif'" font-size="13" lengthAdjust="spacing" textLength="101.1401" x="919.03" y="300.0949">`git ls-files` (tree)</text></g><!--link RendArt to PreloadArt--><g class="link" data-entity-1="ent0008" data-entity-2="ent0005" data-link-type="dependency" data-source-line="46" id="lnk17"><path d="M449.14,596.9579 C473.29,565.8379 512.38,515.8479 547,473.3379 C567.68,447.9479 588.3898,423.3559 606.0798,402.5659" fill="none" id="RendArt-to-PreloadArt" style="stroke:#555555;stroke-width:1.3;"/><polygon fill="#555555" points="609.32,398.7579,600.4412,403.0202,606.0798,402.5659,606.534,408.2045,609.32,398.7579" style="stroke:#555555;stroke-width:1.3;stroke-linejoin:miter;stroke-miterlimit:10;"/><text fill="#000000" font-family="'Inter, Helvetica, sans-serif'" font-size="13" lengthAdjust="spacing" textLength="82.3291" x="569.45" y="461.2349">`window.vv.*`</text></g><!--link RendArt to Nm2--><g class="link" data-entity-1="ent0008" data-entity-2="ent0010" data-link-type="dependency" data-source-line="47" id="lnk18"><path d="M426,658.7879 C426,681.3779 426,707.5879 426,732.2079" fill="none" id="RendArt-to-Nm2" style="stroke:#555555;stroke-width:1.3;"/><polygon fill="#555555" points="426,737.2079,430,728.2079,426,732.2079,422,728.2079,426,737.2079" style="stroke:#555555;stroke-width:1.3;stroke-linejoin:miter;stroke-miterlimit:10;"/><text fill="#000000" font-family="'Inter, Helvetica, sans-serif'" font-size="13" lengthAdjust="spacing" textLength="79.6641" x="427" y="703.3749">(compiled-in)</text></g><!--link RendNode to GMN19--><g class="link" data-entity-1="ent0006" data-entity-2="ent0020" data-link-type="association" data-source-line="50" id="lnk21"><path d="M789.2468,633.7589 C789.3793,633.8368 789.5132,633.9156 789.6486,633.9952 C789.9194,634.1545 790.1959,634.3172 790.4782,634.4832 C791.6072,635.1474 792.8277,635.8654 794.1344,636.6341 C796.7478,638.1715 799.7062,639.9119 802.9678,641.8307 C816.0144,649.506 833.9138,660.0367 854.0025,671.8554 C894.18,695.4929 943.115,724.2829 979.5,745.6879" fill="none" id="RendNode-GMN19" style="stroke:#555555;stroke-width:1.3;stroke-dasharray:7,7;"/></g><g class="legend" data-source-line="55"><rect fill="none" height="147.4754" rx="4" ry="4" style="stroke:#000000;stroke-width:1;" width="369.4627" x="853.5236" y="904.6779"/><text fill="#000000" font-family="'Inter, Helvetica, sans-serif'" font-size="14" font-weight="700" lengthAdjust="spacing" textLength="46.0178" x="862.1636" y="926.6439">Colour</text><text fill="#000000" font-family="'Inter, Helvetica, sans-serif'" font-size="14" font-weight="700" lengthAdjust="spacing" textLength="57.3438" x="915.4614" y="926.6439">Concept</text><rect fill="#3A5BA0" height="19.0679" style="stroke:none;stroke-width:1;" width="53.2978" x="858.5236" y="930.7458"/><text fill="#000000" font-family="'Inter, Helvetica, sans-serif'" font-size="14" lengthAdjust="spacing" textLength="14.5599" x="858.5236" y="945.7118">&#160;&#160;&#160;&#160;</text><text fill="#000000" font-family="'Inter, Helvetica, sans-serif'" font-size="14" lengthAdjust="spacing" textLength="104.4536" x="915.4614" y="945.7118">MAIN / Node IO</text><rect fill="#2D9574" height="19.0679" style="stroke:none;stroke-width:1;" width="53.2978" x="858.5236" y="949.8138"/><text fill="#000000" font-family="'Inter, Helvetica, sans-serif'" font-size="14" lengthAdjust="spacing" textLength="14.5599" x="858.5236" y="964.7797">&#160;&#160;&#160;&#160;</text><text fill="#000000" font-family="'Inter, Helvetica, sans-serif'" font-size="14" lengthAdjust="spacing" textLength="162.5254" x="915.4614" y="964.7797">Renderer / Chromium UI</text><rect fill="#B1951D" height="19.0679" style="stroke:none;stroke-width:1;" width="53.2978" x="858.5236" y="968.8817"/><text fill="#000000" font-family="'Inter, Helvetica, sans-serif'" font-size="14" lengthAdjust="spacing" textLength="14.5599" x="858.5236" y="983.8476">&#160;&#160;&#160;&#160;</text><text fill="#000000" font-family="'Inter, Helvetica, sans-serif'" font-size="14" lengthAdjust="spacing" textLength="124.1235" x="915.4614" y="983.8476">IPC seam (preload)</text><rect fill="#67B11D" height="19.0679" style="stroke:none;stroke-width:1;" width="53.2978" x="858.5236" y="987.9496"/><text fill="#000000" font-family="'Inter, Helvetica, sans-serif'" font-size="14" lengthAdjust="spacing" textLength="14.5599" x="858.5236" y="1002.9155">&#160;&#160;&#160;&#160;</text><text fill="#000000" font-family="'Inter, Helvetica, sans-serif'" font-size="14" lengthAdjust="spacing" textLength="195.9572" x="915.4614" y="1002.9155">markdown / unified (bundled)</text><rect fill="#9F8766" height="19.0679" style="stroke:none;stroke-width:1;" width="53.2978" x="858.5236" y="1007.0175"/><text fill="#000000" font-family="'Inter, Helvetica, sans-serif'" font-size="14" lengthAdjust="spacing" textLength="14.5599" x="858.5236" y="1021.9834">&#160;&#160;&#160;&#160;</text><text fill="#000000" font-family="'Inter, Helvetica, sans-serif'" font-size="14" lengthAdjust="spacing" textLength="226.9111" x="915.4614" y="1021.9834">filesystem volume &#183; node_modules</text><line style="stroke:#000000;stroke-width:1;" x1="858.5236" x2="1146.0125" y1="911.6779" y2="911.6779"/><line style="stroke:#000000;stroke-width:1;" x1="858.5236" x2="1146.0125" y1="930.7458" y2="930.7458"/><line style="stroke:#000000;stroke-width:1;" x1="858.5236" x2="1146.0125" y1="949.8138" y2="949.8138"/><line style="stroke:#000000;stroke-width:1;" x1="858.5236" x2="1146.0125" y1="968.8817" y2="968.8817"/><line style="stroke:#000000;stroke-width:1;" x1="858.5236" x2="1146.0125" y1="987.9496" y2="987.9496"/><line style="stroke:#000000;stroke-width:1;" x1="858.5236" x2="1146.0125" y1="1007.0175" y2="1007.0175"/><line style="stroke:#000000;stroke-width:1;" x1="858.5236" x2="1146.0125" y1="1026.0854" y2="1026.0854"/><line style="stroke:#000000;stroke-width:1;" x1="858.5236" x2="858.5236" y1="911.6779" y2="1026.0854"/><line style="stroke:#000000;stroke-width:1;" x1="911.8214" x2="911.8214" y1="911.6779" y2="1026.0854"/><line style="stroke:#000000;stroke-width:1;" x1="1146.0125" x2="1146.0125" y1="911.6779" y2="1026.0854"/><text fill="#000000" font-family="'Inter, Helvetica, sans-serif'" font-size="14" lengthAdjust="spacing" textLength="359.4627" x="858.5236" y="1043.0514">Dashed border = trust boundary (sandboxed renderer)</text></g><?plantuml-src hLRXJkD64FxlfvY2T2Hfunnt1Kgkd4G8g54XXrAkzwDKU6rlyC9wrzrT9w1oKX-YxzB_VPG-IMUyTX88HQfq_0ZhzSuttyn-C-EjBJZuWd_1rXRCX6BclZiJVCuD_FF7dp3aXTJtELSEQBSFnv8dpcW5XT49jvRRRu0P9wOiSRHKARYC4zXKI6xlhUCvpBGiSmuiCTfQUW_EbDP1h4kLeiSGpvF9kMJAVJmx1Jr3_sVSv4oa4FE4bPRt8LsIiJp7eoAnq58wVKo2a1XOfmsxvhLlpun1ocp6qoVkaH5pm5KYDSO3Ml4cEeXBHt1AkugsnX_JHbyS57DYXe7e1Uijkyem5UpQi3nSX94nYpY45X7bg1Srb76PCiTYPdcq2Z7J2OjBIGo9VS8KyJ1SfPYTEik9LexVkP7L4WdXlIo2GdTCrL6LXbEElwnWlXA8NQOShcQpBjB9UIZAN0Q14qxoLUcGajQ50w-MbnO4zbQeWc76WB83lmS00sqmqejC9BUABcCxt0q-hnnihF_Zy5iy75HW6mldfaJLvFnIjIBUx8LHUuEoDV7lO7EU2KSC4DMRdnsEnWrlD1tZfZSvOqBH4z29gvFHwMd51PRKDb9XNGy5eAgVy8O0eZxXTcrYHE6Y9TIXSHxfOZI-U8935bUvJakiAeH8Cdqhy9xXxx-WYSG3ZNCu-Qb1-4n1B44Cjxeq64QlC5ngbde-jOW6HgHOCT5Sg5JFmzcifdRkpnAxqVcHXrxaPd8y7XvFZYSh-JdAZCvH2iHjOFJSSlEfWcnVgZMz7b0nueKGsWZVOT7K-rCcBVStWvAlqhmfXUAXB-9tjEuFjlTtjeThMLy9j8obI7hedz-5cSjbXVW3Bg2X_bowrm1kxACBZ7rSZNIG8ANdVo4crlOk5IkA45VmDLGbP7iTUgnGZt3x9SGdaYYLc0fiRfXrW-tHtFfLTbzmJFmlCVO5YQ-5mfwrZERNMZHlK7cJ7uSVFesNsa7rD8q9DawUzdDoYIcWjgUJaWhTaiThGJsgq3upFskva6EmA9Tkz_sgglgeEHxZnfHZTyCKXRKyes3bL1Y-NogXZt7SeEmvpOUfnePSKBVt9MM3ffh84HP4lobyY0p_hHI6Hu-E4Ci-T3g6ixJJyKqL-nP6q-dCcKiot2oOo-mpLX45B6stcdSHj9pXl1qqYdWcqgQwmaxqw1ZTGH-m6FC2eTAkK6tgNzYAOksSpa5F5_7ZzLpWFFAp0AS13PTEHsceaiCIgiHE1xrDBKuNeex_IYCZcbreJ6AKCvg46izGeU4Rd8YbaBWdQ61QNOqyBvjw-5IMBCcgDyi17yAXb33w0DM0vtx4ipn6OlL5ui36MHWWNPgbF0WalwO78wupGdquW2CjiJxy2ZLGE7YW5zzllZtS6Ho-VlzgStltzRlrtuUgPKBFXuuaQhCtm_sTlMzVC9iqoUl1ecDz73Nclh6yO8wji8eAMdMCxSPqTs-m_Q8f5ITgGA7dfcXRTNakGFPFljlRtNq1PFtx2kMwsX8gfA7_u8chwUYRxUgNJylYbqMix_18ewKstPA_ddy1?></g></svg>