<svg xmlns="http://www.w3.org/2000/svg" xmlns:xlink="http://www.w3.org/1999/xlink" contentStyleType="text/css" data-diagram-type="ACTIVITY" height="1197px" preserveAspectRatio="none" style="width:2208px;height:1197px;background:#FBF8EF;" version="1.1" viewBox="0 0 2208 1197" width="2208px" zoomAndPan="magnify"><?plantuml $version$?><defs/><g><rect fill="#FBF8EF" height="1197" style="stroke:none;stroke-width:1;" width="2208" x="0" y="0"/><g class="title" data-source-line="6"><text fill="#000000" font-family="'Inter, Helvetica, sans-serif'" font-size="14" font-weight="700" lengthAdjust="spacing" textLength="395.7365" x="905.5453" y="34.9659">re-frame's six dominoes &#8212; the closed unidirectional loop</text><text fill="#000000" font-family="'Inter, Helvetica, sans-serif'" font-size="14" font-weight="700" lengthAdjust="spacing" textLength="410.4015" x="898.2128" y="54.0339">(view &#8788; f(state); state only changes by dispatching events)</text></g><rect fill="none" height="24.5158" style="stroke:none;stroke-width:1;" width="2161.827" x="20" y="77.9098"/><rect fill="#9F8766" height="907.1357" style="stroke:#9F8766;stroke-width:1;" width="533.6717" x="20" y="77.9098"/><ellipse cx="139.8613" cy="117.4256" fill="#222222" rx="10" ry="10" style="stroke:#222222;stroke-width:1;"/><rect fill="#F1F1F1" height="52.6882" rx="4" ry="4" style="stroke:#181818;stroke-width:0.5;" width="192.6092" x="43.5567" y="147.4256"/><text fill="#000000" font-family="'Inter, Helvetica, sans-serif'" font-size="12" lengthAdjust="spacing" textLength="51.9364" x="53.5567" y="170.2537">User acts</text><text fill="#000000" font-family="'Inter, Helvetica, sans-serif'" font-size="12" lengthAdjust="spacing" textLength="172.6092" x="53.5567" y="186.5979">(Ctrl+F, click tab, edit+save file)</text><path d="M236.3351,232.605 L236.3351,242.458 L216.3351,246.458 L236.3351,250.458 L236.3351,260.311 A0,0 0 0 0 236.3351,260.311 L548.6717,260.311 A0,0 0 0 0 548.6717,260.311 L548.6717,242.605 L538.6717,232.605 L236.3351,232.605 A0,0 0 0 0 236.3351,232.605" fill="#FFF6D6" style="stroke:#7F6B14;stroke-width:0.5;"/><path d="M538.6717,232.605 L538.6717,242.605 L548.6717,242.605 L538.6717,232.605" fill="#FFF6D6" style="stroke:#7F6B14;stroke-width:0.5;"/><text fill="#000000" font-family="'Inter, Helvetica, sans-serif'" font-size="13" lengthAdjust="spacing" textLength="291.3365" x="242.3351" y="251.502">&#9312; EVENT &#8212; a reified Command (data, not a call)</text><rect fill="#F1F1F1" height="52.6882" rx="4" ry="4" style="stroke:#181818;stroke-width:0.5;" width="152.9476" x="63.3876" y="220.1139"/><text fill="#000000" font-family="'Inter, Helvetica, sans-serif'" font-size="12" lengthAdjust="spacing" textLength="109.2368" x="73.3876" y="242.942">Browser event fires</text><text fill="#000000" font-family="'Inter, Helvetica, sans-serif'" font-size="12" lengthAdjust="spacing" textLength="132.9476" x="73.3876" y="259.2861">&#8594; rf/dispatch [:event ...]</text><rect fill="#F1F1F1" height="36.3441" rx="4" ry="4" style="stroke:#181818;stroke-width:0.5;" width="103.2446" x="88.2391" y="936.7014"/><text fill="#000000" font-family="'Inter, Helvetica, sans-serif'" font-size="12" lengthAdjust="spacing" textLength="83.2446" x="98.2391" y="959.5295">next [:event ...]</text><polygon fill="#F1F1F1" points="47,887.2104,232.7227,887.2104,244.7227,899.2104,232.7227,911.2104,47,911.2104,35,899.2104,47,887.2104" style="stroke:#181818;stroke-width:0.5;stroke-linejoin:miter;stroke-miterlimit:10;"/><text fill="#000000" font-family="'Inter, Helvetica, sans-serif'" font-size="11" lengthAdjust="spacing" textLength="77.1205" x="143.8613" y="922.9693">closes the loop</text><text fill="#000000" font-family="'Inter, Helvetica, sans-serif'" font-size="11" lengthAdjust="spacing" textLength="185.7227" x="47" y="903.4784">effect dispatched a follow-up event?</text><text fill="#000000" font-family="'Inter, Helvetica, sans-serif'" font-size="11" lengthAdjust="spacing" textLength="13.4529" x="244.7227" y="895.9875">no</text><ellipse cx="280.1756" cy="899.2104" fill="none" rx="11" ry="11" style="stroke:#222222;stroke-width:1;"/><ellipse cx="280.1756" cy="899.2104" fill="#222222" rx="6" ry="6" style="stroke:#222222;stroke-width:1;"/><line style="stroke:#000000;stroke-width:1.5;" x1="20" x2="20" y1="77.9098" y2="985.0455"/><rect fill="#4F97D7" height="907.1357" style="stroke:#4F97D7;stroke-width:1;" width="570.0886" x="553.6717" y="77.9098"/><rect fill="#F1F1F1" height="52.6882" rx="4" ry="4" style="stroke:#181818;stroke-width:0.5;" width="198.2732" x="582.9427" y="292.8021"/><text fill="#000000" font-family="'Inter, Helvetica, sans-serif'" font-size="12" lengthAdjust="spacing" textLength="121.2066" x="592.9427" y="315.6302">&#9313; Coeffects gathered</text><text fill="#000000" font-family="'Inter, Helvetica, sans-serif'" font-size="12" lengthAdjust="spacing" textLength="178.2732" x="592.9427" y="331.9743">(:db = current app-db snapshot)</text><path d="M813.372,360.2754 L813.372,387.8344 L793.372,391.8344 L813.372,395.8344 L813.372,423.3935 A0,0 0 0 0 813.372,423.3935 L1118.7602,423.3935 A0,0 0 0 0 1118.7602,423.3935 L1118.7602,370.2754 L1108.7602,360.2754 L813.372,360.2754 A0,0 0 0 0 813.372,360.2754" fill="#FFF6D6" style="stroke:#7F6B14;stroke-width:0.5;"/><path d="M1108.7602,360.2754 L1108.7602,370.2754 L1118.7602,370.2754 L1108.7602,360.2754" fill="#FFF6D6" style="stroke:#7F6B14;stroke-width:0.5;"/><text fill="#000000" font-family="'Inter, Helvetica, sans-serif'" font-size="13" lengthAdjust="spacing" textLength="253.1752" x="819.372" y="379.1724">Handlers return *data*: a new :db and/or</text><text fill="#000000" font-family="'Inter, Helvetica, sans-serif'" font-size="13" lengthAdjust="spacing" textLength="255.3072" x="819.372" y="396.8785">a vector of effects. No IO happens here &#8212;</text><text fill="#000000" font-family="'Inter, Helvetica, sans-serif'" font-size="13" lengthAdjust="spacing" textLength="284.3882" x="819.372" y="414.5845">that is what makes replay/time-travel possible.</text><rect fill="#F1F1F1" height="52.6882" rx="4" ry="4" style="stroke:#181818;stroke-width:0.5;" width="222.5854" x="570.7867" y="365.4903"/><text fill="#000000" font-family="'Inter, Helvetica, sans-serif'" font-size="12" lengthAdjust="spacing" textLength="161.1909" x="580.7867" y="388.3184">&#9314; Event handler runs (PURE)</text><text fill="#000000" font-family="'Inter, Helvetica, sans-serif'" font-size="12" lengthAdjust="spacing" textLength="202.5854" x="580.7867" y="404.6625">(db, fx)  &#8788;  handler(coeffects, event)</text><rect fill="#F1F1F1" height="36.3441" rx="4" ry="4" style="stroke:#181818;stroke-width:0.5;" width="205.9471" x="579.1058" y="516.0817"/><text fill="#000000" font-family="'Inter, Helvetica, sans-serif'" font-size="12" lengthAdjust="spacing" textLength="185.9471" x="589.1058" y="538.9098">&#9315;b Effects handed to fx handlers</text><path d="M824.487,657.354 L824.487,693.7661 L804.487,697.7661 L824.487,701.7661 L824.487,738.1781 A0,0 0 0 0 824.487,738.1781 L1091.7853,738.1781 A0,0 0 0 0 1091.7853,738.1781 L1091.7853,667.354 L1081.7853,657.354 L824.487,657.354 A0,0 0 0 0 824.487,657.354" fill="#FFF6D6" style="stroke:#7F6B14;stroke-width:0.5;"/><path d="M1081.7853,657.354 L1081.7853,667.354 L1091.7853,667.354 L1081.7853,657.354" fill="#FFF6D6" style="stroke:#7F6B14;stroke-width:0.5;"/><text fill="#000000" font-family="'Inter, Helvetica, sans-serif'" font-size="13" lengthAdjust="spacing" textLength="246.2983" x="830.487" y="676.251">Only subs whose inputs changed re-run.</text><text fill="#000000" font-family="'Inter, Helvetica, sans-serif'" font-size="13" lengthAdjust="spacing" textLength="240.4742" x="830.487" y="693.957">Conn-reading subs list :&lt;- [:ds/rev], so a</text><text fill="#000000" font-family="'Inter, Helvetica, sans-serif'" font-size="13" lengthAdjust="spacing" textLength="243.3082" x="830.487" y="711.6631">DataScript transaction (via :ds/changed)</text><text fill="#000000" font-family="'Inter, Helvetica, sans-serif'" font-size="13" lengthAdjust="spacing" textLength="150.4101" x="830.487" y="729.3691">invalidates exactly them.</text><rect fill="#F1F1F1" height="52.6882" rx="4" ry="4" style="stroke:#181818;stroke-width:0.5;" width="244.8154" x="559.6717" y="671.4219"/><text fill="#000000" font-family="'Inter, Helvetica, sans-serif'" font-size="12" lengthAdjust="spacing" textLength="224.8154" x="569.6717" y="694.25">&#9317; Subscriptions recompute (memoised)</text><text fill="#000000" font-family="'Inter, Helvetica, sans-serif'" font-size="12" lengthAdjust="spacing" textLength="147.2531" x="569.6717" y="710.5941">the Observer signal graph</text><line style="stroke:#000000;stroke-width:1.5;" x1="553.6717" x2="553.6717" y1="77.9098" y2="985.0455"/><rect fill="#7590DB" height="907.1357" style="stroke:#7590DB;stroke-width:1;" width="246.8655" x="1123.7602" y="77.9098"/><rect fill="#F1F1F1" height="52.6882" rx="4" ry="4" style="stroke:#181818;stroke-width:0.5;" width="236.8655" x="1129.7602" y="443.3935"/><text fill="#000000" font-family="'Inter, Helvetica, sans-serif'" font-size="12" lengthAdjust="spacing" textLength="153.6548" x="1139.7602" y="466.2216">&#9315;a New app-db committed</text><text fill="#000000" font-family="'Inter, Helvetica, sans-serif'" font-size="12" lengthAdjust="spacing" textLength="216.8655" x="1139.7602" y="482.5657">(:ui/find, :ui/history, :ui/theme, :ds/rev)</text><line style="stroke:#000000;stroke-width:1.5;" x1="1123.7602" x2="1123.7602" y1="77.9098" y2="985.0455"/><rect fill="#A45BAD" height="907.1357" style="stroke:#A45BAD;stroke-width:1;" width="541.3835" x="1370.6258" y="77.9098"/><path d="M1602.375,566.53 L1602.375,602.942 L1582.375,606.942 L1602.375,610.942 L1602.375,647.354 A0,0 0 0 0 1602.375,647.354 L1907.0093,647.354 A0,0 0 0 0 1907.0093,647.354 L1907.0093,576.53 L1897.0093,566.53 L1602.375,566.53 A0,0 0 0 0 1602.375,566.53" fill="#FFF6D6" style="stroke:#7F6B14;stroke-width:0.5;"/><path d="M1897.0093,566.53 L1897.0093,576.53 L1907.0093,576.53 L1897.0093,566.53" fill="#FFF6D6" style="stroke:#7F6B14;stroke-width:0.5;"/><text fill="#000000" font-family="'Inter, Helvetica, sans-serif'" font-size="13" lengthAdjust="spacing" textLength="283.6342" x="1608.375" y="585.427">Some effects dispatch a NEW event when their</text><text fill="#000000" font-family="'Inter, Helvetica, sans-serif'" font-size="13" lengthAdjust="spacing" textLength="283.3482" x="1608.375" y="603.133">async work completes (e.g. :markdown/render</text><text fill="#000000" font-family="'Inter, Helvetica, sans-serif'" font-size="13" lengthAdjust="spacing" textLength="222.8708" x="1608.375" y="620.839">&#8594; [:content/rendered &#8230;]). That is the</text><text fill="#000000" font-family="'Inter, Helvetica, sans-serif'" font-size="13" lengthAdjust="spacing" textLength="189.4102" x="1608.375" y="638.545">back-edge that closes the loop.</text><rect fill="#F1F1F1" height="69.0323" rx="4" ry="4" style="stroke:#181818;stroke-width:0.5;" width="205.7493" x="1376.6258" y="572.4258"/><text fill="#000000" font-family="'Inter, Helvetica, sans-serif'" font-size="12" lengthAdjust="spacing" textLength="154.1348" x="1386.6258" y="595.2539">&#9316; Effects execute (IMPURE)</text><text fill="#000000" font-family="'Inter, Helvetica, sans-serif'" font-size="12" lengthAdjust="spacing" textLength="183.0973" x="1386.6258" y="611.598">:ds/transact, :markdown/render,</text><text fill="#000000" font-family="'Inter, Helvetica, sans-serif'" font-size="12" lengthAdjust="spacing" textLength="185.7493" x="1386.6258" y="627.9421">:find/run, :theme/apply, :vv/open</text><line style="stroke:#000000;stroke-width:1.5;" x1="1370.6258" x2="1370.6258" y1="77.9098" y2="985.0455"/><rect fill="#2D9574" height="907.1357" style="stroke:#2D9574;stroke-width:1;" width="268.4778" x="1912.0093" y="77.9098"/><rect fill="#F1F1F1" height="52.6882" rx="4" ry="4" style="stroke:#181818;stroke-width:0.5;" width="258.4778" x="1918.0093" y="758.1781"/><text fill="#000000" font-family="'Inter, Helvetica, sans-serif'" font-size="12" lengthAdjust="spacing" textLength="238.4778" x="1928.0093" y="781.0062">Components re-render from subscriptions</text><text fill="#000000" font-family="'Inter, Helvetica, sans-serif'" font-size="12" lengthAdjust="spacing" textLength="90.0726" x="1928.0093" y="797.3503">(view &#8788; f(state))</text><rect fill="#F1F1F1" height="36.3441" rx="4" ry="4" style="stroke:#181818;stroke-width:0.5;" width="151.461" x="1971.5176" y="830.8663"/><text fill="#000000" font-family="'Inter, Helvetica, sans-serif'" font-size="12" lengthAdjust="spacing" textLength="131.461" x="1981.5176" y="853.6944">DOM reflects new state</text><line style="stroke:#000000;stroke-width:1.5;" x1="1912.0093" x2="1912.0093" y1="77.9098" y2="985.0455"/><line style="stroke:#000000;stroke-width:1.5;" x1="2180.487" x2="2180.487" y1="77.9098" y2="985.0455"/><line style="stroke:#555555;stroke-width:1.3;" x1="139.8613" x2="139.8613" y1="127.4256" y2="147.4256"/><polygon fill="#555555" points="135.8613,137.4256,139.8613,147.4256,143.8613,137.4256,139.8613,141.4256" style="stroke:#555555;stroke-width:1;stroke-linejoin:miter;stroke-miterlimit:10;"/><line style="stroke:#555555;stroke-width:1.3;" x1="139.8613" x2="139.8613" y1="200.1139" y2="220.1139"/><polygon fill="#555555" points="135.8613,210.1139,139.8613,220.1139,143.8613,210.1139,139.8613,214.1139" style="stroke:#555555;stroke-width:1;stroke-linejoin:miter;stroke-miterlimit:10;"/><line style="stroke:#B1951D;stroke-width:1.3;" x1="139.8613" x2="139.8613" y1="911.2104" y2="936.7014"/><polygon fill="#B1951D" points="135.8613,926.7014,139.8613,936.7014,143.8613,926.7014,139.8613,930.7014" style="stroke:#B1951D;stroke-width:1;stroke-linejoin:miter;stroke-miterlimit:10;"/><line style="stroke:#555555;stroke-width:1.3;" x1="244.7227" x2="269.1756" y1="899.2104" y2="899.2104"/><polygon fill="#555555" points="259.1756,895.2104,269.1756,899.2104,259.1756,903.2104,263.1756,899.2104" style="stroke:#555555;stroke-width:1;stroke-linejoin:miter;stroke-miterlimit:10;"/><line style="stroke:#555555;stroke-width:1.3;" x1="682.0793" x2="682.0793" y1="345.4903" y2="365.4903"/><polygon fill="#555555" points="678.0793,355.4903,682.0793,365.4903,686.0793,355.4903,682.0793,359.4903" style="stroke:#555555;stroke-width:1;stroke-linejoin:miter;stroke-miterlimit:10;"/><line style="stroke:#555555;stroke-width:1.3;" x1="2047.2481" x2="2047.2481" y1="810.8663" y2="830.8663"/><polygon fill="#555555" points="2043.2481,820.8663,2047.2481,830.8663,2051.2481,820.8663,2047.2481,824.8663" style="stroke:#555555;stroke-width:1;stroke-linejoin:miter;stroke-miterlimit:10;"/><line style="stroke:#555555;stroke-width:1.3;" x1="139.8613" x2="139.8613" y1="272.8021" y2="277.8021"/><line style="stroke:#555555;stroke-width:1.3;" x1="139.8613" x2="682.0793" y1="277.8021" y2="277.8021"/><line style="stroke:#555555;stroke-width:1.3;" x1="682.0793" x2="682.0793" y1="277.8021" y2="292.8021"/><polygon fill="#555555" points="678.0793,282.8021,682.0793,292.8021,686.0793,282.8021,682.0793,286.8021" style="stroke:#555555;stroke-width:1;stroke-linejoin:miter;stroke-miterlimit:10;"/><line style="stroke:#555555;stroke-width:1.3;" x1="682.0793" x2="682.0793" y1="418.1786" y2="428.3935"/><line style="stroke:#555555;stroke-width:1.3;" x1="682.0793" x2="1248.193" y1="428.3935" y2="428.3935"/><line style="stroke:#555555;stroke-width:1.3;" x1="1248.193" x2="1248.193" y1="428.3935" y2="443.3935"/><polygon fill="#555555" points="1244.193,433.3935,1248.193,443.3935,1252.193,433.3935,1248.193,437.3935" style="stroke:#555555;stroke-width:1;stroke-linejoin:miter;stroke-miterlimit:10;"/><line style="stroke:#555555;stroke-width:1.3;" x1="1248.193" x2="1248.193" y1="496.0817" y2="501.0817"/><line style="stroke:#555555;stroke-width:1.3;" x1="1248.193" x2="682.0793" y1="501.0817" y2="501.0817"/><line style="stroke:#555555;stroke-width:1.3;" x1="682.0793" x2="682.0793" y1="501.0817" y2="516.0817"/><polygon fill="#555555" points="678.0793,506.0817,682.0793,516.0817,686.0793,506.0817,682.0793,510.0817" style="stroke:#555555;stroke-width:1;stroke-linejoin:miter;stroke-miterlimit:10;"/><line style="stroke:#555555;stroke-width:1.3;" x1="682.0793" x2="682.0793" y1="552.4258" y2="557.4258"/><line style="stroke:#555555;stroke-width:1.3;" x1="682.0793" x2="1479.5004" y1="557.4258" y2="557.4258"/><line style="stroke:#555555;stroke-width:1.3;" x1="1479.5004" x2="1479.5004" y1="557.4258" y2="572.4258"/><polygon fill="#555555" points="1475.5004,562.4258,1479.5004,572.4258,1483.5004,562.4258,1479.5004,566.4258" style="stroke:#555555;stroke-width:1;stroke-linejoin:miter;stroke-miterlimit:10;"/><line style="stroke:#555555;stroke-width:1.3;" x1="1479.5004" x2="1479.5004" y1="641.4582" y2="652.354"/><line style="stroke:#555555;stroke-width:1.3;" x1="1479.5004" x2="682.0793" y1="652.354" y2="652.354"/><line style="stroke:#555555;stroke-width:1.3;" x1="682.0793" x2="682.0793" y1="652.354" y2="671.4219"/><polygon fill="#555555" points="678.0793,661.4219,682.0793,671.4219,686.0793,661.4219,682.0793,665.4219" style="stroke:#555555;stroke-width:1;stroke-linejoin:miter;stroke-miterlimit:10;"/><line style="stroke:#555555;stroke-width:1.3;" x1="682.0793" x2="682.0793" y1="724.1102" y2="743.1781"/><line style="stroke:#555555;stroke-width:1.3;" x1="682.0793" x2="2047.2481" y1="743.1781" y2="743.1781"/><line style="stroke:#555555;stroke-width:1.3;" x1="2047.2481" x2="2047.2481" y1="743.1781" y2="758.1781"/><polygon fill="#555555" points="2043.2481,748.1781,2047.2481,758.1781,2051.2481,748.1781,2047.2481,752.1781" style="stroke:#555555;stroke-width:1;stroke-linejoin:miter;stroke-miterlimit:10;"/><line style="stroke:#555555;stroke-width:1.3;" x1="2047.2481" x2="2047.2481" y1="867.2104" y2="872.2104"/><line style="stroke:#555555;stroke-width:1.3;" x1="2047.2481" x2="139.8613" y1="872.2104" y2="872.2104"/><line style="stroke:#555555;stroke-width:1.3;" x1="139.8613" x2="139.8613" y1="872.2104" y2="887.2104"/><polygon fill="#555555" points="135.8613,877.2104,139.8613,887.2104,143.8613,877.2104,139.8613,881.2104" style="stroke:#555555;stroke-width:1;stroke-linejoin:miter;stroke-miterlimit:10;"/><text fill="#000000" font-family="'Inter, Helvetica, sans-serif'" font-size="18" lengthAdjust="spacing" textLength="110.3573" x="231.6572" y="97.1517">World / DOM</text><text fill="#000000" font-family="'Inter, Helvetica, sans-serif'" font-size="18" lengthAdjust="spacing" textLength="116.2613" x="780.5853" y="97.1517">re-frame loop</text><text fill="#000000" font-family="'Inter, Helvetica, sans-serif'" font-size="18" lengthAdjust="spacing" textLength="191.2488" x="1151.5686" y="97.1517">app-db (ephemeral UI)</text><text fill="#000000" font-family="'Inter, Helvetica, sans-serif'" font-size="18" lengthAdjust="spacing" textLength="158.615" x="1562.01" y="97.1517">effect world (edge)</text><text fill="#000000" font-family="'Inter, Helvetica, sans-serif'" font-size="18" lengthAdjust="spacing" textLength="120.0952" x="1986.2005" y="97.1517">view (reagent)</text><g class="legend" data-source-line="60"><rect fill="none" height="166.5433" rx="4" ry="4" style="stroke:#000000;stroke-width:1;" width="523.103" x="1661.724" y="1007.0455"/><text fill="#000000" font-family="'Inter, Helvetica, sans-serif'" font-size="14" font-weight="700" lengthAdjust="spacing" textLength="46.0178" x="1670.364" y="1029.0114">Colour</text><text fill="#000000" font-family="'Inter, Helvetica, sans-serif'" font-size="14" font-weight="700" lengthAdjust="spacing" textLength="102.3396" x="1723.6617" y="1029.0114">Lane / concept</text><rect fill="#9F8766" height="19.0679" style="stroke:none;stroke-width:1;" width="53.2978" x="1666.724" y="1033.1134"/><text fill="#000000" font-family="'Inter, Helvetica, sans-serif'" font-size="14" lengthAdjust="spacing" textLength="3.64" x="1666.724" y="1048.0793">&#160;</text><text fill="#000000" font-family="'Inter, Helvetica, sans-serif'" font-size="14" lengthAdjust="spacing" textLength="322.4187" x="1723.6617" y="1048.0793">World / DOM / filesystem (user + browser events)</text><rect fill="#4F97D7" height="19.0679" style="stroke:none;stroke-width:1;" width="53.2978" x="1666.724" y="1052.1813"/><text fill="#000000" font-family="'Inter, Helvetica, sans-serif'" font-size="14" lengthAdjust="spacing" textLength="3.64" x="1666.724" y="1067.1473">&#160;</text><text fill="#000000" font-family="'Inter, Helvetica, sans-serif'" font-size="14" lengthAdjust="spacing" textLength="283.211" x="1723.6617" y="1067.1473">re-frame machinery (dominoes &#9312;&#9313;&#9314;&#9315;b&#9317;)</text><rect fill="#7590DB" height="19.0679" style="stroke:none;stroke-width:1;" width="53.2978" x="1666.724" y="1071.2492"/><text fill="#000000" font-family="'Inter, Helvetica, sans-serif'" font-size="14" lengthAdjust="spacing" textLength="3.64" x="1666.724" y="1086.2152">&#160;</text><text fill="#000000" font-family="'Inter, Helvetica, sans-serif'" font-size="14" lengthAdjust="spacing" textLength="281.1818" x="1723.6617" y="1086.2152">app-db &#8212; ephemeral UI state (domino &#9315;a)</text><rect fill="#A45BAD" height="19.0679" style="stroke:none;stroke-width:1;" width="53.2978" x="1666.724" y="1090.3172"/><text fill="#000000" font-family="'Inter, Helvetica, sans-serif'" font-size="14" lengthAdjust="spacing" textLength="3.64" x="1666.724" y="1105.2831">&#160;</text><text fill="#000000" font-family="'Inter, Helvetica, sans-serif'" font-size="14" lengthAdjust="spacing" textLength="295.7629" x="1723.6617" y="1105.2831">DataScript content-cache effect (:ds/transact)</text><rect fill="#2D9574" height="19.0679" style="stroke:none;stroke-width:1;" width="53.2978" x="1666.724" y="1109.3851"/><text fill="#000000" font-family="'Inter, Helvetica, sans-serif'" font-size="14" lengthAdjust="spacing" textLength="3.64" x="1666.724" y="1124.351">&#160;</text><text fill="#000000" font-family="'Inter, Helvetica, sans-serif'" font-size="14" lengthAdjust="spacing" textLength="243.3331" x="1723.6617" y="1124.351">reagent view (the f in view &#8788; f(state))</text><rect fill="#B1951D" height="19.0679" style="stroke:none;stroke-width:1;" width="53.2978" x="1666.724" y="1128.453"/><text fill="#000000" font-family="'Inter, Helvetica, sans-serif'" font-size="14" lengthAdjust="spacing" textLength="3.64" x="1666.724" y="1143.4189">&#160;</text><text fill="#000000" font-family="'Inter, Helvetica, sans-serif'" font-size="14" lengthAdjust="spacing" textLength="279.4094" x="1723.6617" y="1143.4189">async fx &#8594; follow-up event (the back-edge)</text><line style="stroke:#000000;stroke-width:1;" x1="1666.724" x2="2049.7204" y1="1014.0455" y2="1014.0455"/><line style="stroke:#000000;stroke-width:1;" x1="1666.724" x2="2049.7204" y1="1033.1134" y2="1033.1134"/><line style="stroke:#000000;stroke-width:1;" x1="1666.724" x2="2049.7204" y1="1052.1813" y2="1052.1813"/><line style="stroke:#000000;stroke-width:1;" x1="1666.724" x2="2049.7204" y1="1071.2492" y2="1071.2492"/><line style="stroke:#000000;stroke-width:1;" x1="1666.724" x2="2049.7204" y1="1090.3172" y2="1090.3172"/><line style="stroke:#000000;stroke-width:1;" x1="1666.724" x2="2049.7204" y1="1109.3851" y2="1109.3851"/><line style="stroke:#000000;stroke-width:1;" x1="1666.724" x2="2049.7204" y1="1128.453" y2="1128.453"/><line style="stroke:#000000;stroke-width:1;" x1="1666.724" x2="2049.7204" y1="1147.5209" y2="1147.5209"/><line style="stroke:#000000;stroke-width:1;" x1="1666.724" x2="1666.724" y1="1014.0455" y2="1147.5209"/><line style="stroke:#000000;stroke-width:1;" x1="1720.0218" x2="1720.0218" y1="1014.0455" y2="1147.5209"/><line style="stroke:#000000;stroke-width:1;" x1="2049.7204" x2="2049.7204" y1="1014.0455" y2="1147.5209"/><text fill="#000000" font-family="'Inter, Helvetica, sans-serif'" font-size="14" lengthAdjust="spacing" textLength="513.103" x="1666.724" y="1164.4868">Data flows ONE way: event &#8594; handler &#8594; effect &#8594; state &#8594; sub &#8594; view &#8594; (event).</text></g><?plantuml-src VLLDRzj64BtpLqoJWwbO7qqGnxMSf8WZ1GqGsq4TDmVNA5RaKbgOt2Lsbv85w91JWHvTv0UaJTiVfb_IDqkAKPocG13HvEpiUszctkpiqEjSQ7z-_8hCN5ewbhOGAgM9J4Jb9FcPSeH_WfpIqrnIaXidKqgCzjRab1jJqaBv6Rc5Af1AabbeQTrCbHGlPePifLsqiqDI90ZoikoGq2aIMjcJI8BRwKvsJQbofV284QJbWkGS7-_GH2HNFPbEvM4BT0Te4g_coYyftjpQ8RVKNbppJQaL2qUbi5vvPRIZNT2G0MgFuOC82MlD0cIaqFco6n3bqhiQPQ2H86H92k_0DP6bnszkAjkFlb4woQjKqY_pUG-P2zbNLP574Uw3Gk2LML58u7GAl4oXj96Erk_U1noDWfLMgR8oOOYY5l9d7SyLkAz_UqzPxBpmidD8uPSCS58o4tgAL9DbAnUJ2LgvJXIjxXwy-6x_qQFLMsFpb0OqEZrUHKXWVJGyTwWlb7Euvhct-UwBBh2ev8gyc7H9fihlEZ6NbAaSzqR38qZ4Pq9wlBKIHzU__aus6xJLkXZMd_lz_kLXf0sWMZMT-I6jRpxG-AVnoPl0dEkjCWNYpqrHiDvnAhpe4exWOoBoF11u-E9WVxI_seWOT5b5m_ND7pWeimo2EPeA26bb2YR3T49FAAciPHIYB7juuRGetSnuPh6--PF60IB4ItFmuOwa-FNvZ-CE4gJWdbrtAAY-YOcJpLtTcdvdcrj4z4CTvy3ALrRJFIPpRzWqBuD2mC1OX0gQ8v6nP39galRfnD3BKznMbX9Wc0ohX6W_4vu7Ri6_XRYIV4MPY-N0gqBsC2zpcLDfd5EJNFOZ2IKP6MktltVmxUXerOWGov9xqwAvpbzsWeOV1Pq0NXEGe13A-rh6IWqofTCkyHE67e2NzH-Xm_6Oke6LSmZnVrNwEA5nKoIM4kNs1l9kT7NXzBE7UqVFHgjQ35g4Nervo6kKVxKfvBLCAgWUlpnkoiKes3CS6XcO2c6lKXWEaE4osqK0inYWnFWQa0_0baTyE9yF3DI-LSWp0_YRljhoe9FnswRn5pEfUN1LA2Pi9c78LonV2Sz0WMBPd_Q_08De7fQB8Nib4ZMl8SdwtJ-NdJwzQKgDt8XjdQvkWU0IhZMkpmlzLVd_fhDguXAhojhvu2z06IGiP64KZ0SYSjBJ2KQR7T-fAVlFr8foTakRK_OSXuJG06X8QQHoZGkbR7JGkO_0vqRhdfKYPJSA1t9q40qVzq2_xflBBZb30i4ZJCfPW4YRIW8hmVf4QB8cVGUXIiz5hZ1Qadi1WS33HVrSZGUZWxtzXwjWdJ5GJ7bU8GUCfZIQhJ503UfJPaqH8BOY_PVhid70Et4koqDdy5I7JuTVSrcLeG_gZjwqaUGrbvayDujULTRjz7s76O3kiba9RTsPSE_Yxj7zWxtxeylUqzijS8ZlGosl_ItF9KgbnzgAP8uQnTfm8inloIAfB8foEMMvDbLTFK6zU9FnqojUTODsnQtu--E6tzCLRJ74_xmOt18xlA2uuismIvFj7U4wcmHrWo91swA5u5qbiLBZJnlnvWDy7GRDle7cRO_NHeRZZLEnJjjkrkp49XEniRLdQtF1sQq-QoQmbm34PjeftlQIzdZTJ05vQ2IgsugBaA4VwSjMsPoi2yUWWqV0z7ZyRvM_plIfvk4m8wKCOOvEJyQq4CjX4yqPDckBdnle_5XB49wgIVYjeU4XhbTMc9Aw-Fy2?></g></svg>