<svg xmlns="http://www.w3.org/2000/svg" xmlns:xlink="http://www.w3.org/1999/xlink" contentStyleType="text/css" data-diagram-type="SEQUENCE" height="1149px" preserveAspectRatio="none" style="width:1529px;height:1149px;background:#FBF8EF;" version="1.1" viewBox="0 0 1529 1149" width="1529px" zoomAndPan="magnify"><?plantuml $version$?><defs/><g><rect fill="#FBF8EF" height="1149" style="stroke:none;stroke-width:1;" width="1529" x="0" y="0"/><g class="title" data-source-line="7"><text fill="#000000" font-family="'Inter, Helvetica, sans-serif'" font-size="14" font-weight="700" lengthAdjust="spacing" textLength="471.8472" x="525.1985" y="29.9659">Navigation history &#8212; Alt+&#8592; (Back) &#10230; body swap (Command replay)</text><text fill="#000000" font-family="'Inter, Helvetica, sans-serif'" font-size="14" font-weight="700" lengthAdjust="spacing" textLength="157.1214" x="682.5614" y="49.0339">:ui/history {:stack :idx}</text></g><g><title>.history.back</title><rect fill="#EFEAD9" height="275.336" style="stroke:#181818;stroke-width:1;" width="10" x="300.1683" y="259.3897"/></g><g><title>.doc.active</title><rect fill="#EFEAD9" height="112.8241" style="stroke:#181818;stroke-width:1;" width="10" x="864.2024" y="621.8438"/></g><g><title>DataScript</title><rect fill="#EFEAD9" height="31.706" style="stroke:#181818;stroke-width:1;" width="10" x="1192.8617" y="671.2558"/></g><g><title>views</title><rect fill="#EFEAD9" height="55.412" style="stroke:#181818;stroke-width:1;" width="10" x="1301.2224" y="734.6679"/></g><rect fill="none" height="221.63" rx="4" ry="4" style="stroke:#888888;stroke-width:1.5;" width="668.2627" x="241.4015" y="306.0957"/><g class="participant-lifeline" data-entity-uid="part1" data-qualified-name="User" data-source-line="11" id="part1-lifeline"><g><title>User</title><rect fill="#000000" fill-opacity="0.00000" height="757.6323" width="8" x="19.3089" y="148.2717"/><line style="stroke:#888888;stroke-width:0.5;stroke-dasharray:5,5;" x1="23" x2="23" y1="148.2717" y2="905.904"/></g></g><g class="participant-lifeline" data-entity-uid="part2" data-qualified-name="UI" data-source-line="12" id="part2-lifeline"><g><title>toolbar .</title><rect fill="#000000" fill-opacity="0.00000" height="757.6323" width="8" x="169.6102" y="148.2717"/><line style="stroke:#888888;stroke-width:0.5;stroke-dasharray:5,5;" x1="172.8224" x2="172.8224" y1="148.2717" y2="905.904"/></g></g><g class="participant-lifeline" data-entity-uid="part3" data-qualified-name="RF" data-source-line="13" id="part3-lifeline"><g><title>.history.back</title><rect fill="#000000" fill-opacity="0.00000" height="757.6323" width="8" x="301.1683" y="148.2717"/><line style="stroke:#888888;stroke-width:0.5;stroke-dasharray:5,5;" x1="304.4015" x2="304.4015" y1="148.2717" y2="905.904"/></g></g><g class="participant-lifeline" data-entity-uid="part4" data-qualified-name="DB" data-source-line="14" id="part4-lifeline"><g><title>app-db</title><rect fill="#000000" fill-opacity="0.00000" height="757.6323" width="8" x="556.0121" y="148.2717"/><line style="stroke:#888888;stroke-width:0.5;stroke-dasharray:5,5;" x1="559.6922" x2="559.6922" y1="148.2717" y2="905.904"/></g></g><g class="participant-lifeline" data-entity-uid="part5" data-qualified-name="SUB" data-source-line="15" id="part5-lifeline"><g><title>.doc.active</title><rect fill="#000000" fill-opacity="0.00000" height="757.6323" width="8" x="865.2024" y="148.2717"/><line style="stroke:#888888;stroke-width:0.5;stroke-dasharray:5,5;" x1="868.6095" x2="868.6095" y1="148.2717" y2="905.904"/></g></g><g class="participant-lifeline" data-entity-uid="part6" data-qualified-name="DS" data-source-line="16" id="part6-lifeline"><g><title>DataScript</title><rect fill="#000000" fill-opacity="0.00000" height="757.6323" width="8" x="1193.8617" y="148.2717"/><line style="stroke:#888888;stroke-width:0.5;stroke-dasharray:5,5;" x1="1197.6388" x2="1197.6388" y1="148.2717" y2="905.904"/></g></g><g class="participant-lifeline" data-entity-uid="part7" data-qualified-name="V" data-source-line="17" id="part7-lifeline"><g><title>views</title><rect fill="#000000" fill-opacity="0.00000" height="757.6323" width="8" x="1302.2224" y="148.2717"/><line style="stroke:#888888;stroke-width:0.5;stroke-dasharray:5,5;" x1="1306.0846" x2="1306.0846" y1="148.2717" y2="905.904"/></g></g><g class="participant participant-head" data-entity-uid="part1" data-qualified-name="User" data-source-line="11" id="part1-head"><text fill="#000000" font-family="'Inter, Helvetica, sans-serif'" font-size="14" lengthAdjust="spacing" textLength="30.6179" x="5" y="144.1697">User</text><ellipse cx="23.3089" cy="77.7038" fill="#9F8766" rx="8" ry="8" style="stroke:#181818;stroke-width:0.5;"/><path d="M23.3089,85.7038 L23.3089,112.7038 M10.3089,93.7038 L36.3089,93.7038 M23.3089,112.7038 L10.3089,127.7038 M23.3089,112.7038 L36.3089,127.7038" fill="none" style="stroke:#181818;stroke-width:0.5;"/></g><g class="participant participant-tail" data-entity-uid="part1" data-qualified-name="User" data-source-line="11" id="part1-tail"><text fill="#000000" font-family="'Inter, Helvetica, sans-serif'" font-size="14" lengthAdjust="spacing" textLength="30.6179" x="5" y="919.8699">User</text><ellipse cx="23.3089" cy="932.4719" fill="#9F8766" rx="8" ry="8" style="stroke:#181818;stroke-width:0.5;"/><path d="M23.3089,940.4719 L23.3089,967.4719 M10.3089,948.4719 L36.3089,948.4719 M23.3089,967.4719 L10.3089,982.4719 M23.3089,967.4719 L36.3089,982.4719" fill="none" style="stroke:#181818;stroke-width:0.5;"/></g><g class="participant participant-head" data-entity-uid="part2" data-qualified-name="UI" data-source-line="12" id="part2-head"><rect fill="#2D9574" height="52.1358" rx="4" ry="4" style="stroke:#181818;stroke-width:1.4;" width="93.5757" x="126.8224" y="95.1358"/><text fill="#000000" font-family="'Inter, Helvetica, sans-serif'" font-size="14" lengthAdjust="spacing" textLength="56.6998" x="145.2603" y="117.1018">toolbar /</text><text fill="#000000" font-family="'Inter, Helvetica, sans-serif'" font-size="14" lengthAdjust="spacing" textLength="79.5757" x="133.8224" y="136.1697">keybindings</text></g><g class="participant participant-tail" data-entity-uid="part2" data-qualified-name="UI" data-source-line="12" id="part2-tail"><rect fill="#2D9574" height="52.1358" rx="4" ry="4" style="stroke:#181818;stroke-width:1.4;" width="93.5757" x="126.8224" y="904.904"/><text fill="#000000" font-family="'Inter, Helvetica, sans-serif'" font-size="14" lengthAdjust="spacing" textLength="56.6998" x="145.2603" y="926.8699">toolbar /</text><text fill="#000000" font-family="'Inter, Helvetica, sans-serif'" font-size="14" lengthAdjust="spacing" textLength="79.5757" x="133.8224" y="945.9378">keybindings</text></g><g class="participant participant-head" data-entity-uid="part3" data-qualified-name="RF" data-source-line="13" id="part3-head"><rect fill="#4F97D7" height="52.1358" rx="4" ry="4" style="stroke:#181818;stroke-width:1.4;" width="107.5336" x="251.4015" y="95.1358"/><text fill="#000000" font-family="'Inter, Helvetica, sans-serif'" font-size="14" lengthAdjust="spacing" textLength="85.0357" x="262.6505" y="117.1018">:history/back</text><text fill="#000000" font-family="'Inter, Helvetica, sans-serif'" font-size="14" lengthAdjust="spacing" textLength="93.5336" x="258.4015" y="136.1697">(reg-event-db)</text></g><g class="participant participant-tail" data-entity-uid="part3" data-qualified-name="RF" data-source-line="13" id="part3-tail"><rect fill="#4F97D7" height="52.1358" rx="4" ry="4" style="stroke:#181818;stroke-width:1.4;" width="107.5336" x="251.4015" y="904.904"/><text fill="#000000" font-family="'Inter, Helvetica, sans-serif'" font-size="14" lengthAdjust="spacing" textLength="85.0357" x="262.6505" y="926.8699">:history/back</text><text fill="#000000" font-family="'Inter, Helvetica, sans-serif'" font-size="14" lengthAdjust="spacing" textLength="93.5336" x="258.4015" y="945.9378">(reg-event-db)</text></g><g class="participant participant-head" data-entity-uid="part4" data-qualified-name="DB" data-source-line="14" id="part4-head"><rect fill="#7590DB" height="52.1358" rx="4" ry="4" style="stroke:#181818;stroke-width:0.5;" width="80.6397" x="521.6922" y="91.1358"/><rect fill="#7590DB" height="52.1358" rx="4" ry="4" style="stroke:#181818;stroke-width:0.5;" width="80.6397" x="517.6922" y="95.1358"/><text fill="#000000" font-family="'Inter, Helvetica, sans-serif'" font-size="14" lengthAdjust="spacing" textLength="46.8018" x="534.6112" y="117.1018">app-db</text><text fill="#000000" font-family="'Inter, Helvetica, sans-serif'" font-size="14" lengthAdjust="spacing" textLength="66.6397" x="524.6922" y="136.1697">:ui/history</text></g><g class="participant participant-tail" data-entity-uid="part4" data-qualified-name="DB" data-source-line="14" id="part4-tail"><rect fill="#7590DB" height="52.1358" rx="4" ry="4" style="stroke:#181818;stroke-width:0.5;" width="80.6397" x="521.6922" y="904.904"/><rect fill="#7590DB" height="52.1358" rx="4" ry="4" style="stroke:#181818;stroke-width:0.5;" width="80.6397" x="517.6922" y="908.904"/><text fill="#000000" font-family="'Inter, Helvetica, sans-serif'" font-size="14" lengthAdjust="spacing" textLength="46.8018" x="534.6112" y="930.8699">app-db</text><text fill="#000000" font-family="'Inter, Helvetica, sans-serif'" font-size="14" lengthAdjust="spacing" textLength="66.6397" x="524.6922" y="949.9378">:ui/history</text></g><g class="participant participant-head" data-entity-uid="part5" data-qualified-name="SUB" data-source-line="15" id="part5-head"><rect fill="#7590DB" height="52.1358" rx="4" ry="4" style="stroke:#181818;stroke-width:1.4;" width="95.1857" x="821.6095" y="95.1358"/><text fill="#000000" font-family="'Inter, Helvetica, sans-serif'" font-size="14" lengthAdjust="spacing" textLength="71.0077" x="833.6985" y="117.1018">:doc/active</text><text fill="#000000" font-family="'Inter, Helvetica, sans-serif'" font-size="14" lengthAdjust="spacing" textLength="81.1857" x="828.6095" y="136.1697">subscription</text></g><g class="participant participant-tail" data-entity-uid="part5" data-qualified-name="SUB" data-source-line="15" id="part5-tail"><rect fill="#7590DB" height="52.1358" rx="4" ry="4" style="stroke:#181818;stroke-width:1.4;" width="95.1857" x="821.6095" y="904.904"/><text fill="#000000" font-family="'Inter, Helvetica, sans-serif'" font-size="14" lengthAdjust="spacing" textLength="71.0077" x="833.6985" y="926.8699">:doc/active</text><text fill="#000000" font-family="'Inter, Helvetica, sans-serif'" font-size="14" lengthAdjust="spacing" textLength="81.1857" x="828.6095" y="945.9378">subscription</text></g><g class="participant participant-head" data-entity-uid="part6" data-qualified-name="DS" data-source-line="16" id="part6-head"><text fill="#000000" font-family="'Inter, Helvetica, sans-serif'" font-size="14" lengthAdjust="spacing" textLength="68.4458" x="1160.6388" y="125.1018">DataScript</text><text fill="#000000" font-family="'Inter, Helvetica, sans-serif'" font-size="14" lengthAdjust="spacing" textLength="32.4939" x="1178.6148" y="144.1697">conn</text><path d="M1179.8617,74.1358 C1179.8617,64.1358 1197.8617,64.1358 1197.8617,64.1358 C1197.8617,64.1358 1215.8617,64.1358 1215.8617,74.1358 L1215.8617,100.1358 C1215.8617,110.1358 1197.8617,110.1358 1197.8617,110.1358 C1197.8617,110.1358 1179.8617,110.1358 1179.8617,100.1358 L1179.8617,74.1358" fill="#A45BAD" style="stroke:#181818;stroke-width:0.5;"/><path d="M1179.8617,74.1358 C1179.8617,84.1358 1197.8617,84.1358 1197.8617,84.1358 C1197.8617,84.1358 1215.8617,84.1358 1215.8617,74.1358" fill="none" style="stroke:#181818;stroke-width:0.5;"/></g><g class="participant participant-tail" data-entity-uid="part6" data-qualified-name="DS" data-source-line="16" id="part6-tail"><text fill="#000000" font-family="'Inter, Helvetica, sans-serif'" font-size="14" lengthAdjust="spacing" textLength="68.4458" x="1160.6388" y="919.8699">DataScript</text><text fill="#000000" font-family="'Inter, Helvetica, sans-serif'" font-size="14" lengthAdjust="spacing" textLength="32.4939" x="1178.6148" y="938.9378">conn</text><path d="M1179.8617,953.0398 C1179.8617,943.0398 1197.8617,943.0398 1197.8617,943.0398 C1197.8617,943.0398 1215.8617,943.0398 1215.8617,953.0398 L1215.8617,979.0398 C1215.8617,989.0398 1197.8617,989.0398 1197.8617,989.0398 C1197.8617,989.0398 1179.8617,989.0398 1179.8617,979.0398 L1179.8617,953.0398" fill="#A45BAD" style="stroke:#181818;stroke-width:0.5;"/><path d="M1179.8617,953.0398 C1179.8617,963.0398 1197.8617,963.0398 1197.8617,963.0398 C1197.8617,963.0398 1215.8617,963.0398 1215.8617,953.0398" fill="none" style="stroke:#181818;stroke-width:0.5;"/></g><g class="participant participant-head" data-entity-uid="part7" data-qualified-name="V" data-source-line="17" id="part7-head"><rect fill="#2D9574" height="52.1358" rx="4" ry="4" style="stroke:#181818;stroke-width:1.4;" width="122.2756" x="1245.0846" y="95.1358"/><text fill="#000000" font-family="'Inter, Helvetica, sans-serif'" font-size="14" lengthAdjust="spacing" textLength="36.3298" x="1288.0575" y="117.1018">views</text><text fill="#000000" font-family="'Inter, Helvetica, sans-serif'" font-size="14" lengthAdjust="spacing" textLength="108.2756" x="1252.0846" y="136.1697">markdown-body</text></g><g class="participant participant-tail" data-entity-uid="part7" data-qualified-name="V" data-source-line="17" id="part7-tail"><rect fill="#2D9574" height="52.1358" rx="4" ry="4" style="stroke:#181818;stroke-width:1.4;" width="122.2756" x="1245.0846" y="904.904"/><text fill="#000000" font-family="'Inter, Helvetica, sans-serif'" font-size="14" lengthAdjust="spacing" textLength="36.3298" x="1288.0575" y="926.8699">views</text><text fill="#000000" font-family="'Inter, Helvetica, sans-serif'" font-size="14" lengthAdjust="spacing" textLength="108.2756" x="1252.0846" y="945.9378">markdown-body</text></g><g><title>.history.back</title><rect fill="#EFEAD9" height="275.336" style="stroke:#181818;stroke-width:1;" width="10" x="300.1683" y="259.3897"/></g><g><title>.doc.active</title><rect fill="#EFEAD9" height="112.8241" style="stroke:#181818;stroke-width:1;" width="10" x="864.2024" y="621.8438"/></g><g><title>DataScript</title><rect fill="#EFEAD9" height="31.706" style="stroke:#181818;stroke-width:1;" width="10" x="1192.8617" y="671.2558"/></g><g><title>views</title><rect fill="#EFEAD9" height="55.412" style="stroke:#181818;stroke-width:1;" width="10" x="1301.2224" y="734.6679"/></g><rect fill="#EFEAD9" height="3" rx="4" ry="4" style="stroke:#EFEAD9;stroke-width:1;" width="1523.2442" x="0" y="180.1247"/><line style="stroke:#000000;stroke-width:1;" x1="0" x2="1523.2442" y1="180.1247" y2="180.1247"/><line style="stroke:#000000;stroke-width:1;" x1="0" x2="1523.2442" y1="183.1247" y2="183.1247"/><rect fill="#EFEAD9" height="25.706" rx="4" ry="4" style="stroke:#000000;stroke-width:2;" width="55.86" x="733.6921" y="168.2717"/><text fill="#000000" font-family="'Inter, Helvetica, sans-serif'" font-size="13" font-weight="700" lengthAdjust="spacing" textLength="38.48" x="739.6921" y="186.1687">guard</text><g class="message" data-entity-1="part1" data-entity-2="part2" data-source-line="20" id="msg1"><polygon fill="#555555" points="161.6102,223.6837,171.6102,227.6837,161.6102,231.6837,165.6102,227.6837" style="stroke:#555555;stroke-width:1;stroke-linejoin:miter;stroke-miterlimit:10;"/><line style="stroke:#555555;stroke-width:1.3;" x1="23.3089" x2="167.6102" y1="227.6837" y2="227.6837"/><text fill="#000000" font-family="'Inter, Helvetica, sans-serif'" font-size="13" font-weight="700" lengthAdjust="spacing" textLength="16.042" x="30.3089" y="221.8747">[1]</text><text fill="#000000" font-family="'Inter, Helvetica, sans-serif'" font-size="13" lengthAdjust="spacing" textLength="106.2592" x="50.351" y="221.8747">Alt+&#8592;  (or click &#8592;)</text></g><g class="message" data-entity-1="part2" data-entity-2="part3" data-source-line="21" id="msg2"><polygon fill="#555555" points="288.1683,255.3897,298.1683,259.3897,288.1683,263.3897,292.1683,259.3897" style="stroke:#555555;stroke-width:1;stroke-linejoin:miter;stroke-miterlimit:10;"/><line style="stroke:#555555;stroke-width:1.3;" x1="173.6102" x2="294.1683" y1="259.3897" y2="259.3897"/><text fill="#000000" font-family="'Inter, Helvetica, sans-serif'" font-size="13" font-weight="700" lengthAdjust="spacing" textLength="16.042" x="180.6102" y="253.5807">[2]</text><text fill="#000000" font-family="'Inter, Helvetica, sans-serif'" font-size="13" lengthAdjust="spacing" textLength="87.5161" x="200.6522" y="253.5807">[:history/back]</text></g><g class="message" data-entity-1="part3" data-entity-2="part4" data-source-line="23" id="msg3"><polygon fill="#555555" points="548.0121,287.0957,558.0121,291.0957,548.0121,295.0957,552.0121,291.0957" style="stroke:#555555;stroke-width:1;stroke-linejoin:miter;stroke-miterlimit:10;"/><line style="stroke:#555555;stroke-width:1.3;" x1="310.1683" x2="554.0121" y1="291.0957" y2="291.0957"/><text fill="#000000" font-family="'Inter, Helvetica, sans-serif'" font-size="13" font-weight="700" lengthAdjust="spacing" textLength="16.042" x="317.1683" y="285.2867">[3]</text><text fill="#000000" font-family="'Inter, Helvetica, sans-serif'" font-size="13" lengthAdjust="spacing" textLength="101.2181" x="337.2103" y="285.2867">read {:stack :idx}</text></g><path d="M245.4015,306.0957 L303.7045,306.0957 L303.7045,315.8018 L293.7045,325.8018 L241.4015,325.8018 L241.4015,310.0957 A4,4 0 0 1 245.4015,306.0957" fill="#EEEEEE" style="stroke:#888888;stroke-width:1.5;"/><rect fill="none" height="221.63" rx="4" ry="4" style="stroke:#888888;stroke-width:1.5;" width="668.2627" x="241.4015" y="306.0957"/><text fill="#000000" font-family="'Inter, Helvetica, sans-serif'" font-size="13" font-weight="700" lengthAdjust="spacing" textLength="17.303" x="256.4015" y="320.9927">alt</text><text fill="#000000" font-family="'Inter, Helvetica, sans-serif'" font-size="11" font-weight="700" lengthAdjust="spacing" textLength="120.3611" x="318.7045" y="319.8546">[idx &gt; 0  (can go back)]</text><g class="message" data-entity-1="part3" data-entity-2="part4" data-source-line="25" id="msg4"><polygon fill="#555555" points="548.0121,363.2138,558.0121,367.2138,548.0121,371.2138,552.0121,367.2138" style="stroke:#555555;stroke-width:1;stroke-linejoin:miter;stroke-miterlimit:10;"/><line style="stroke:#555555;stroke-width:1.3;" x1="310.1683" x2="554.0121" y1="367.2138" y2="367.2138"/><text fill="#000000" font-family="'Inter, Helvetica, sans-serif'" font-size="13" font-weight="700" lengthAdjust="spacing" textLength="16.042" x="317.1683" y="352.5518">[4]</text><text fill="#000000" font-family="'Inter, Helvetica, sans-serif'" font-size="13" lengthAdjust="spacing" textLength="90.3357" x="337.2103" y="343.6988">:idx &#8592; (dec idx)</text><text fill="#000000" font-family="'Inter, Helvetica, sans-serif'" font-size="13" lengthAdjust="spacing" textLength="205.8018" x="337.2103" y="361.4048">:active-path &#8592; (get stack (dec idx))</text></g><path d="M565,384.2138 L565,439.2138 A4,4 0 0 0 569,443.2138 L895,443.2138 A4,4 0 0 0 899,439.2138 L899,390.2138 L889,380.2138 L569,380.2138 A4,4 0 0 0 565,384.2138" fill="#FFF6D6" style="stroke:#7F6B14;stroke-width:0.5;"/><path d="M889,380.2138 L889,388.2138 A2,2 0 0 0 891,390.2138 L899,390.2138 L889,380.2138" fill="#FFF6D6" style="stroke:#7F6B14;stroke-width:0.5;"/><text fill="#000000" font-family="'Inter, Helvetica, sans-serif'" font-size="13" lengthAdjust="spacing" textLength="303.0042" x="571" y="399.1108">History is a Command stack: each visited path is a</text><text fill="#000000" font-family="'Inter, Helvetica, sans-serif'" font-size="13" lengthAdjust="spacing" textLength="313.6642" x="571" y="416.8168">reified entry. Back/forward just move :idx; the stack</text><text fill="#000000" font-family="'Inter, Helvetica, sans-serif'" font-size="13" lengthAdjust="spacing" textLength="302.5493" x="571" y="434.5228">itself is unchanged (no re-navigation side effects).</text><line style="stroke:#888888;stroke-width:1;stroke-dasharray:2,2;" x1="241.4015" x2="909.6642" y1="449.3318" y2="449.3318"/><text fill="#000000" font-family="'Inter, Helvetica, sans-serif'" font-size="11" font-weight="700" lengthAdjust="spacing" textLength="103.5533" x="246.4015" y="461.0907">[idx = 0  (at oldest)]</text><g class="message" data-entity-1="part3" data-entity-2="part3" data-source-line="32" id="msg5"><line style="stroke:#555555;stroke-width:1.3;" x1="310.1683" x2="352.1683" y1="506.7258" y2="506.7258"/><line style="stroke:#555555;stroke-width:1.3;" x1="352.1683" x2="352.1683" y1="506.7258" y2="519.7258"/><line style="stroke:#555555;stroke-width:1.3;" x1="311.1683" x2="352.1683" y1="519.7258" y2="519.7258"/><polygon fill="#555555" points="321.1683,515.7258,311.1683,519.7258,321.1683,523.7258,317.1683,519.7258" style="stroke:#555555;stroke-width:1;stroke-linejoin:miter;stroke-miterlimit:10;"/><text fill="#000000" font-family="'Inter, Helvetica, sans-serif'" font-size="13" font-weight="700" lengthAdjust="spacing" textLength="16.042" x="317.1683" y="492.0637">[5]</text><text fill="#000000" font-family="'Inter, Helvetica, sans-serif'" font-size="13" lengthAdjust="spacing" textLength="192.9722" x="337.2103" y="483.2107">no-op (history/can-back? = false</text><text fill="#000000" font-family="'Inter, Helvetica, sans-serif'" font-size="13" lengthAdjust="spacing" textLength="128.6843" x="337.2103" y="500.9168">&#8594; &#8592; button disabled)</text></g><rect fill="#EFEAD9" height="3" rx="4" ry="4" style="stroke:#EFEAD9;stroke-width:1;" width="1523.2442" x="0" y="556.5788"/><line style="stroke:#000000;stroke-width:1;" x1="0" x2="1523.2442" y1="556.5788" y2="556.5788"/><line style="stroke:#000000;stroke-width:1;" x1="0" x2="1523.2442" y1="559.5788" y2="559.5788"/><rect fill="#EFEAD9" height="25.706" rx="4" ry="4" style="stroke:#000000;stroke-width:2;" width="136.3821" x="693.431" y="544.7258"/><text fill="#000000" font-family="'Inter, Helvetica, sans-serif'" font-size="13" font-weight="700" lengthAdjust="spacing" textLength="119.0021" x="699.431" y="562.6228">recompute + swap</text><g class="message" data-entity-1="part4" data-entity-2="part5" data-source-line="37" id="msg6"><polygon fill="#555555" points="852.2024,617.8438,862.2024,621.8438,852.2024,625.8438,856.2024,621.8438" style="stroke:#555555;stroke-width:1;stroke-linejoin:miter;stroke-miterlimit:10;"/><line style="stroke:#555555;stroke-width:1.3;stroke-dasharray:2,2;" x1="560.0121" x2="858.2024" y1="621.8438" y2="621.8438"/><text fill="#000000" font-family="'Inter, Helvetica, sans-serif'" font-size="13" font-weight="700" lengthAdjust="spacing" textLength="16.042" x="567.0121" y="607.1818">[6]</text><text fill="#000000" font-family="'Inter, Helvetica, sans-serif'" font-size="13" lengthAdjust="spacing" textLength="158.0007" x="587.0541" y="598.3288">:ui/active-path changed &#8594;</text><text fill="#000000" font-family="'Inter, Helvetica, sans-serif'" font-size="13" lengthAdjust="spacing" textLength="265.1483" x="587.0541" y="616.0348">:doc/active sub re-runs (:&lt;- [:ui/active-path])</text></g><g class="message" data-entity-1="part5" data-entity-2="part6" data-source-line="39" id="msg7"><polygon fill="#555555" points="1180.8617,667.2558,1190.8617,671.2558,1180.8617,675.2558,1184.8617,671.2558" style="stroke:#555555;stroke-width:1;stroke-linejoin:miter;stroke-miterlimit:10;"/><line style="stroke:#555555;stroke-width:1.3;" x1="874.2024" x2="1186.8617" y1="671.2558" y2="671.2558"/><text fill="#000000" font-family="'Inter, Helvetica, sans-serif'" font-size="13" font-weight="700" lengthAdjust="spacing" textLength="16.042" x="881.2024" y="656.5938">[7]</text><text fill="#000000" font-family="'Inter, Helvetica, sans-serif'" font-size="13" lengthAdjust="spacing" textLength="207.5452" x="901.2444" y="647.7408">ds/active-doc @conn for new path</text><text fill="#000000" font-family="'Inter, Helvetica, sans-serif'" font-size="13" lengthAdjust="spacing" textLength="279.6173" x="901.2444" y="665.4468">(pull :doc/path :doc/kind :doc/html :doc/error)</text></g><g class="message" data-entity-1="part6" data-entity-2="part5" data-source-line="41" id="msg8"><polygon fill="#555555" points="885.2024,698.9619,875.2024,702.9619,885.2024,706.9619,881.2024,702.9619" style="stroke:#555555;stroke-width:1;stroke-linejoin:miter;stroke-miterlimit:10;"/><line style="stroke:#555555;stroke-width:1.3;stroke-dasharray:2,2;" x1="879.2024" x2="1196.8617" y1="702.9619" y2="702.9619"/><text fill="#000000" font-family="'Inter, Helvetica, sans-serif'" font-size="13" font-weight="700" lengthAdjust="spacing" textLength="16.042" x="891.2024" y="697.1528">[8]</text><text fill="#000000" font-family="'Inter, Helvetica, sans-serif'" font-size="13" lengthAdjust="spacing" textLength="248.2872" x="911.2444" y="697.1528">the prior document entity (already open)</text></g><g class="message" data-entity-1="part5" data-entity-2="part7" data-source-line="43" id="msg9"><polygon fill="#555555" points="1289.2224,730.6679,1299.2224,734.6679,1289.2224,738.6679,1293.2224,734.6679" style="stroke:#555555;stroke-width:1;stroke-linejoin:miter;stroke-miterlimit:10;"/><line style="stroke:#555555;stroke-width:1.3;stroke-dasharray:2,2;" x1="869.2024" x2="1295.2224" y1="734.6679" y2="734.6679"/><text fill="#000000" font-family="'Inter, Helvetica, sans-serif'" font-size="13" font-weight="700" lengthAdjust="spacing" textLength="16.042" x="876.2024" y="728.8589">[9]</text><text fill="#000000" font-family="'Inter, Helvetica, sans-serif'" font-size="13" lengthAdjust="spacing" textLength="87.6201" x="896.2444" y="728.8589">new :doc/html</text></g><g class="message" data-entity-1="part7" data-entity-2="part7" data-source-line="46" id="msg10"><line style="stroke:#555555;stroke-width:1.3;" x1="1311.2224" x2="1353.2224" y1="789.0799" y2="789.0799"/><line style="stroke:#555555;stroke-width:1.3;" x1="1353.2224" x2="1353.2224" y1="789.0799" y2="802.0799"/><line style="stroke:#555555;stroke-width:1.3;" x1="1306.2224" x2="1353.2224" y1="802.0799" y2="802.0799"/><polygon fill="#555555" points="1316.2224,798.0799,1306.2224,802.0799,1316.2224,806.0799,1312.2224,802.0799" style="stroke:#555555;stroke-width:1;stroke-linejoin:miter;stroke-miterlimit:10;"/><text fill="#000000" font-family="'Inter, Helvetica, sans-serif'" font-size="13" font-weight="700" lengthAdjust="spacing" textLength="23.478" x="1318.2224" y="774.4179">[10]</text><text fill="#000000" font-family="'Inter, Helvetica, sans-serif'" font-size="13" lengthAdjust="spacing" textLength="155.5437" x="1345.7004" y="765.5649">component-did-update &#8594;</text><text fill="#000000" font-family="'Inter, Helvetica, sans-serif'" font-size="13" lengthAdjust="spacing" textLength="124.3322" x="1345.7004" y="783.2709">set! innerHTML html</text></g><path d="M829,814.0799 L829,886.0799 A4,4 0 0 0 833,890.0799 L1233,890.0799 A4,4 0 0 0 1237,886.0799 L1237,820.0799 L1227,810.0799 L833,810.0799 A4,4 0 0 0 829,814.0799" fill="#FFF6D6" style="stroke:#7F6B14;stroke-width:0.5;"/><path d="M1227,810.0799 L1227,818.0799 A2,2 0 0 0 1229,820.0799 L1237,820.0799 L1227,810.0799" fill="#FFF6D6" style="stroke:#7F6B14;stroke-width:0.5;"/><text fill="#000000" font-family="'Inter, Helvetica, sans-serif'" font-size="13" lengthAdjust="spacing" textLength="364.6632" x="846.4059" y="828.9769">Back/forward never re-read the file or re-render Markdown:</text><text fill="#000000" font-family="'Inter, Helvetica, sans-serif'" font-size="13" lengthAdjust="spacing" textLength="328.3152" x="846.4059" y="846.6829">the target doc is already a :doc entity in DataScript, so</text><text fill="#000000" font-family="'Inter, Helvetica, sans-serif'" font-size="13" lengthAdjust="spacing" textLength="363.4413" x="846.4059" y="864.3889">switching is a pure index move + a sub recompute. Forward</text><text fill="#000000" font-family="'Inter, Helvetica, sans-serif'" font-size="13" lengthAdjust="spacing" textLength="275.6885" x="846.4059" y="882.095">(Alt+&#8594;) is the mirror: idx &lt; count-1 &#8594; (inc idx).</text><g class="legend" data-source-line="56"><rect fill="none" height="128.4075" rx="4" ry="4" style="stroke:#000000;stroke-width:1;" width="340.6787" x="1169.5654" y="1002.0398"/><text fill="#000000" font-family="'Inter, Helvetica, sans-serif'" font-size="14" font-weight="700" lengthAdjust="spacing" textLength="46.0178" x="1178.2054" y="1024.0057">Colour</text><text fill="#000000" font-family="'Inter, Helvetica, sans-serif'" font-size="14" font-weight="700" lengthAdjust="spacing" textLength="146.0894" x="1231.5032" y="1024.0057">Participant / concept</text><rect fill="#9F8766" height="19.0679" style="stroke:none;stroke-width:1;" width="53.2978" x="1174.5654" y="1028.1077"/><text fill="#000000" font-family="'Inter, Helvetica, sans-serif'" font-size="14" lengthAdjust="spacing" textLength="3.64" x="1174.5654" y="1043.0737">&#160;</text><text fill="#000000" font-family="'Inter, Helvetica, sans-serif'" font-size="14" lengthAdjust="spacing" textLength="30.6179" x="1231.5032" y="1043.0737">User</text><rect fill="#2D9574" height="19.0679" style="stroke:none;stroke-width:1;" width="53.2978" x="1174.5654" y="1047.1756"/><text fill="#000000" font-family="'Inter, Helvetica, sans-serif'" font-size="14" lengthAdjust="spacing" textLength="3.64" x="1174.5654" y="1062.1416">&#160;</text><text fill="#000000" font-family="'Inter, Helvetica, sans-serif'" font-size="14" lengthAdjust="spacing" textLength="129.7375" x="1231.5032" y="1062.1416">view (toolbar, body)</text><rect fill="#4F97D7" height="19.0679" style="stroke:none;stroke-width:1;" width="53.2978" x="1174.5654" y="1066.2436"/><text fill="#000000" font-family="'Inter, Helvetica, sans-serif'" font-size="14" lengthAdjust="spacing" textLength="3.64" x="1174.5654" y="1081.2095">&#160;</text><text fill="#000000" font-family="'Inter, Helvetica, sans-serif'" font-size="14" lengthAdjust="spacing" textLength="194.9492" x="1231.5032" y="1081.2095">re-frame event (:history/back)</text><rect fill="#7590DB" height="19.0679" style="stroke:none;stroke-width:1;" width="53.2978" x="1174.5654" y="1085.3115"/><text fill="#000000" font-family="'Inter, Helvetica, sans-serif'" font-size="14" lengthAdjust="spacing" textLength="3.64" x="1174.5654" y="1100.2774">&#160;</text><text fill="#000000" font-family="'Inter, Helvetica, sans-serif'" font-size="14" lengthAdjust="spacing" textLength="270.101" x="1231.5032" y="1100.2774">app-db :ui/history (Command stack + idx)</text><rect fill="#A45BAD" height="19.0679" style="stroke:none;stroke-width:1;" width="53.2978" x="1174.5654" y="1104.3794"/><text fill="#000000" font-family="'Inter, Helvetica, sans-serif'" font-size="14" lengthAdjust="spacing" textLength="3.64" x="1174.5654" y="1119.3453">&#160;</text><text fill="#000000" font-family="'Inter, Helvetica, sans-serif'" font-size="14" lengthAdjust="spacing" textLength="264.851" x="1231.5032" y="1119.3453">DataScript (the already-open :doc entity)</text><line style="stroke:#000000;stroke-width:1;" x1="1174.5654" x2="1505.2442" y1="1009.0398" y2="1009.0398"/><line style="stroke:#000000;stroke-width:1;" x1="1174.5654" x2="1505.2442" y1="1028.1077" y2="1028.1077"/><line style="stroke:#000000;stroke-width:1;" x1="1174.5654" x2="1505.2442" y1="1047.1756" y2="1047.1756"/><line style="stroke:#000000;stroke-width:1;" x1="1174.5654" x2="1505.2442" y1="1066.2436" y2="1066.2436"/><line style="stroke:#000000;stroke-width:1;" x1="1174.5654" x2="1505.2442" y1="1085.3115" y2="1085.3115"/><line style="stroke:#000000;stroke-width:1;" x1="1174.5654" x2="1505.2442" y1="1104.3794" y2="1104.3794"/><line style="stroke:#000000;stroke-width:1;" x1="1174.5654" x2="1505.2442" y1="1123.4473" y2="1123.4473"/><line style="stroke:#000000;stroke-width:1;" x1="1174.5654" x2="1174.5654" y1="1009.0398" y2="1123.4473"/><line style="stroke:#000000;stroke-width:1;" x1="1227.8632" x2="1227.8632" y1="1009.0398" y2="1123.4473"/><line style="stroke:#000000;stroke-width:1;" x1="1505.2442" x2="1505.2442" y1="1009.0398" y2="1123.4473"/></g></g></svg>