<svg xmlns="http://www.w3.org/2000/svg" xmlns:xlink="http://www.w3.org/1999/xlink" contentStyleType="text/css" data-diagram-type="STATE" height="1413px" preserveAspectRatio="none" style="width:1046px;height:1413px;background:#FBF8EF;" version="1.1" viewBox="0 0 1046 1413" width="1046px" zoomAndPan="magnify"><?plantuml $version$?><defs/><g><rect fill="#FBF8EF" height="1413" style="stroke:none;stroke-width:1;" width="1046" x="0" y="0"/><g class="title" data-source-line="8"><text fill="#000000" font-family="'Inter, Helvetica, sans-serif'" font-size="14" font-weight="700" lengthAdjust="spacing" textLength="536.0021" x="251.7994" y="24.9659">Tab / document lifecycle &#8212; one :doc entity in DataScript (keyed by :doc/path)</text></g><g class="entity" data-qualified-name="Opening" data-source-line="12" id="ent0001"><rect fill="#C5CFEA" height="77.2038" rx="4" ry="4" style="stroke:#181818;stroke-width:1.4;" width="219.6672" x="280.97" y="127.0679"/><line style="stroke:#181818;stroke-width:1.4;" x1="280.97" x2="500.6372" y1="156.1358" y2="156.1358"/><text fill="#1A1A1A" font-family="'Inter, Helvetica, sans-serif'" font-size="14" lengthAdjust="spacing" textLength="56.9658" x="362.3207" y="147.0339">Opening</text><text fill="#1A1A1A" font-family="'Inter, Helvetica, sans-serif'" font-size="14" lengthAdjust="spacing" textLength="185.2318" x="285.97" y="176.1018">[:doc/open path] &#8594; :vv/open</text><text fill="#1A1A1A" font-family="'Inter, Helvetica, sans-serif'" font-size="14" lengthAdjust="spacing" textLength="199.6672" x="285.97" y="195.1697">main reads + sends vv:content</text></g><g class="entity" data-qualified-name="Loaded" data-source-line="14" id="ent0002"><path d="M11,301.2779 L770.6031,301.2779 A4,4 0 0 1 774.6031,305.2779 L774.6031,330.3458 L7,330.3458 L7,305.2779 A4,4 0 0 1 11,301.2779" fill="#EEE6EF"/><path d="M7,330.3458 L774.6031,330.3458 L774.6031,652.7596 A4,4 0 0 1 770.6031,656.7596 L11,656.7596 A4,4 0 0 1 7,652.7596 L7,330.3458" fill="#EEE6EF"/><rect fill="none" height="355.4817" rx="4" ry="4" style="stroke:#181818;stroke-width:1.4;" width="767.6031" x="7" y="301.2779"/><line style="stroke:#181818;stroke-width:1.4;" x1="7" x2="774.6031" y1="330.3458" y2="330.3458"/><text fill="#1A1A1A" font-family="'Inter, Helvetica, sans-serif'" font-size="14" lengthAdjust="spacing" textLength="48.7758" x="366.4136" y="321.2439">Loaded</text><g class="entity" data-qualified-name="Loaded.MD" data-source-line="15" id="ent0003"><rect fill="#D7EEC1" height="77.2038" rx="4" ry="4" style="stroke:#181818;stroke-width:1.4;" width="201.4113" x="19" y="416.3458"/><line style="stroke:#181818;stroke-width:1.4;" x1="19" x2="220.4113" y1="445.4138" y2="445.4138"/><text fill="#1A1A1A" font-family="'Inter, Helvetica, sans-serif'" font-size="14" lengthAdjust="spacing" textLength="70.5457" x="84.4328" y="436.3118">Markdown</text><text fill="#1A1A1A" font-family="'Inter, Helvetica, sans-serif'" font-size="14" lengthAdjust="spacing" textLength="147.1114" x="24" y="465.3797">:doc/kind "markdown"</text><text fill="#1A1A1A" font-family="'Inter, Helvetica, sans-serif'" font-size="14" lengthAdjust="spacing" textLength="181.4113" x="24" y="484.4476">:doc/html = rendered HTML</text></g><g class="entity" data-qualified-name="Loaded.IMG" data-source-line="16" id="ent0004"><rect fill="#C7E8DE" height="77.2038" rx="4" ry="4" style="stroke:#181818;stroke-width:1.4;" width="236.9711" x="238.22" y="416.3458"/><line style="stroke:#181818;stroke-width:1.4;" x1="238.22" x2="475.1911" y1="445.4138" y2="445.4138"/><text fill="#1A1A1A" font-family="'Inter, Helvetica, sans-serif'" font-size="14" lengthAdjust="spacing" textLength="42.1958" x="335.6076" y="436.3118">Image</text><text fill="#1A1A1A" font-family="'Inter, Helvetica, sans-serif'" font-size="14" lengthAdjust="spacing" textLength="117.2355" x="243.22" y="465.3797">:doc/kind "image"</text><text fill="#000000" font-family="monospace" font-size="14" lengthAdjust="spacing" textLength="125.9995" x="243.22" y="484.4476">(Cannot&#160;decode)</text><text fill="#1A1A1A" font-family="'Inter, Helvetica, sans-serif'" font-size="14" lengthAdjust="spacing" textLength="87.3317" x="372.8594" y="484.4476">(no :doc/text)</text></g><g class="entity" data-qualified-name="Loaded.TXT" data-source-line="17" id="ent0005"><rect fill="#DFD9D0" height="77.2038" rx="4" ry="4" style="stroke:#181818;stroke-width:1.4;" width="257.8031" x="492.8" y="416.3458"/><line style="stroke:#181818;stroke-width:1.4;" x1="492.8" x2="750.6031" y1="445.4138" y2="445.4138"/><text fill="#1A1A1A" font-family="'Inter, Helvetica, sans-serif'" font-size="14" lengthAdjust="spacing" textLength="28.1399" x="607.6316" y="436.3118">Text</text><text fill="#1A1A1A" font-family="'Inter, Helvetica, sans-serif'" font-size="14" lengthAdjust="spacing" textLength="101.5836" x="497.8" y="465.3797">:doc/kind "text"</text><text fill="#1A1A1A" font-family="'Inter, Helvetica, sans-serif'" font-size="14" lengthAdjust="spacing" textLength="237.8031" x="497.8" y="484.4476">:doc/html = &lt;pre vv-plain&gt; (escaped)</text></g><g class="entity" data-qualified-name="Loaded.ERR" data-source-line="23" id="ent0006"><rect fill="#F0C0BF" height="77.2038" rx="4" ry="4" style="stroke:#181818;stroke-width:1.4;" width="218.0432" x="250.68" y="566.5558"/><line style="stroke:#181818;stroke-width:1.4;" x1="250.68" x2="468.7232" y1="595.6238" y2="595.6238"/><text fill="#1A1A1A" font-family="'Inter, Helvetica, sans-serif'" font-size="14" lengthAdjust="spacing" textLength="33.5999" x="342.9017" y="586.5218">Error</text><text fill="#1A1A1A" font-family="'Inter, Helvetica, sans-serif'" font-size="14" lengthAdjust="spacing" textLength="140.5175" x="255.68" y="615.5897">:doc/error = message</text><text fill="#1A1A1A" font-family="'Inter, Helvetica, sans-serif'" font-size="14" lengthAdjust="spacing" textLength="198.0432" x="255.68" y="634.6576">(content-view shows .vv-error)</text></g><g class="start_entity" data-qualified-name="Loaded..start.Loaded" data-source-line="19" id="ent0012"><ellipse cx="356.71" cy="351.3458" fill="#222222" rx="10" ry="10" style="stroke:#222222;stroke-width:1;"/></g><!--link *start*Loaded to MD--><g class="link" data-entity-1="ent0012" data-entity-2="ent0003" data-link-type="dependency" data-source-line="19" id="lnk13"><path d="M346.5,353.7558 C326.43,356.7458 280.63,364.6958 244.71,379.3458 C220.84,389.0858 200.3862,400.2658 179.3162,413.3658" fill="none" id="*start*Loaded-to-MD" style="stroke:#555555;stroke-width:1.3;"/><polygon fill="#555555" points="175.07,416.0058,184.8252,414.6508,179.3162,413.3658,180.6012,407.8568,175.07,416.0058" style="stroke:#555555;stroke-width:1.3;stroke-linejoin:miter;stroke-miterlimit:10;"/><text fill="#000000" font-family="'Inter, Helvetica, sans-serif'" font-size="13" lengthAdjust="spacing" textLength="106.3921" x="245.71" y="394.2428">kind = markdown</text></g><!--link *start*Loaded to IMG--><g class="link" data-entity-1="ent0012" data-entity-2="ent0004" data-link-type="dependency" data-source-line="20" id="lnk14"><path d="M356.71,361.7258 C356.71,374.0058 356.71,391.2858 356.71,410.8658" fill="none" id="*start*Loaded-to-IMG" style="stroke:#555555;stroke-width:1.3;"/><polygon fill="#555555" points="356.71,415.8658,360.71,406.8658,356.71,410.8658,352.71,406.8658,356.71,415.8658" style="stroke:#555555;stroke-width:1.3;stroke-linejoin:miter;stroke-miterlimit:10;"/><text fill="#000000" font-family="'Inter, Helvetica, sans-serif'" font-size="13" lengthAdjust="spacing" textLength="78.6501" x="357.71" y="394.2428">kind = image</text></g><!--link *start*Loaded to TXT--><g class="link" data-entity-1="ent0012" data-entity-2="ent0005" data-link-type="dependency" data-source-line="21" id="lnk15"><path d="M366.11,355.1058 C381.73,359.7358 413.95,369.5558 440.71,379.3458 C471.19,390.5058 499.4928,401.8071 528.8028,413.9871" fill="none" id="*start*Loaded-to-TXT" style="stroke:#555555;stroke-width:1.3;"/><polygon fill="#555555" points="533.42,415.9058,526.644,408.7584,528.8028,413.9871,523.5741,416.1459,533.42,415.9058" style="stroke:#555555;stroke-width:1.3;stroke-linejoin:miter;stroke-miterlimit:10;"/><text fill="#000000" font-family="'Inter, Helvetica, sans-serif'" font-size="13" lengthAdjust="spacing" textLength="64.1161" x="486.85" y="394.2428">kind = text</text></g><!--link MD to ERR--><g class="link" data-entity-1="ent0003" data-entity-2="ent0006" data-link-type="dependency" data-source-line="24" id="lnk16"><path d="M110.03,493.8458 C107.65,512.2158 108.63,533.5058 120.71,548.5558 C137.51,569.4758 190.7309,582.4979 245.4609,591.1179" fill="none" id="MD-to-ERR" style="stroke:#555555;stroke-width:1.3;"/><polygon fill="#555555" points="250.4,591.8958,242.1319,586.5443,245.4609,591.1179,240.8873,594.4469,250.4,591.8958" style="stroke:#555555;stroke-width:1.3;stroke-linejoin:miter;stroke-miterlimit:10;"/><text fill="#000000" font-family="'Inter, Helvetica, sans-serif'" font-size="13" lengthAdjust="spacing" textLength="215.0577" x="121.71" y="535.4528">render/read fails &#8594; [:content/error]</text></g><!--link TXT to ERR--><g class="link" data-entity-1="ent0005" data-entity-2="ent0006" data-link-type="dependency" data-source-line="25" id="lnk17"><path d="M578.1,494.0458 C555.95,512.1458 528,533.1258 500.71,548.5558 C489.6,554.8358 482.1911,558.6773 470.1011,564.1073" fill="none" id="TXT-to-ERR" style="stroke:#555555;stroke-width:1.3;"/><polygon fill="#555555" points="465.54,566.1558,475.3888,566.1174,470.1011,564.1073,472.1111,558.8196,465.54,566.1558" style="stroke:#555555;stroke-width:1.3;stroke-linejoin:miter;stroke-miterlimit:10;"/><text fill="#000000" font-family="'Inter, Helvetica, sans-serif'" font-size="13" lengthAdjust="spacing" textLength="56.069" x="553.84" y="535.4528">read fails</text></g><!--link ERR to MD--><g class="link" data-entity-1="ent0006" data-entity-2="ent0003" data-link-type="dependency" data-source-line="26" id="lnk18"><path d="M360.09,566.3758 C358.22,547.3458 352.56,525.4258 337.71,511.5558 C302.14,478.3358 276.89,505.4658 229.71,493.5558 C226.77,492.8158 228.622,493.3482 225.632,492.5282" fill="none" id="ERR-to-MD" style="stroke:#555555;stroke-width:1.3;"/><polygon fill="#555555" points="220.81,491.2058,228.4316,497.4437,225.632,492.5282,230.5474,489.7286,220.81,491.2058" style="stroke:#555555;stroke-width:1.3;stroke-linejoin:miter;stroke-miterlimit:10;"/><text fill="#000000" font-family="'Inter, Helvetica, sans-serif'" font-size="13" lengthAdjust="spacing" textLength="112.3071" x="370.7725" y="526.4528">next good content</text><text fill="#000000" font-family="'Inter, Helvetica, sans-serif'" font-size="13" lengthAdjust="spacing" textLength="138.3721" x="357.74" y="544.1589">retract stale :doc/error</text></g></g><g class="entity" data-qualified-name="Active" data-source-line="32" id="ent0007"><rect fill="#F1F1F1" height="77.2038" rx="4" ry="4" style="stroke:#1F6B53;stroke-width:1.4;" width="198.7513" x="123.43" y="735.7579"/><line style="stroke:#1F6B53;stroke-width:1.4;" x1="123.43" x2="322.1813" y1="764.8258" y2="764.8258"/><text fill="#1A1A1A" font-family="'Inter, Helvetica, sans-serif'" font-size="14" lengthAdjust="spacing" textLength="39.3398" x="203.1357" y="755.7239">Active</text><text fill="#1A1A1A" font-family="'Inter, Helvetica, sans-serif'" font-size="14" lengthAdjust="spacing" textLength="167.2713" x="128.43" y="784.7918">:ui/active-path = this path</text><text fill="#1A1A1A" font-family="'Inter, Helvetica, sans-serif'" font-size="14" lengthAdjust="spacing" textLength="178.7513" x="128.43" y="803.8597">(vv-tab-active; body shown)</text></g><g class="entity" data-qualified-name="Inactive" data-source-line="33" id="ent0008"><rect fill="#DDDDDD" height="77.2038" rx="4" ry="4" style="stroke:#181818;stroke-width:1.4;" width="203.3433" x="115.13" y="891.9579"/><line style="stroke:#181818;stroke-width:1.4;" x1="115.13" x2="318.4733" y1="921.0258" y2="921.0258"/><text fill="#1A1A1A" font-family="'Inter, Helvetica, sans-serif'" font-size="14" lengthAdjust="spacing" textLength="51.6458" x="190.9787" y="911.9239">Inactive</text><text fill="#1A1A1A" font-family="'Inter, Helvetica, sans-serif'" font-size="14" lengthAdjust="spacing" textLength="140.9095" x="120.13" y="940.9918">open but not focused</text><text fill="#1A1A1A" font-family="'Inter, Helvetica, sans-serif'" font-size="14" lengthAdjust="spacing" textLength="183.3433" x="120.13" y="960.0597">(:doc/open? true, not active)</text></g><g class="entity" data-qualified-name="Closed" data-source-line="45" id="ent0009"><rect fill="#DDDDDD" height="77.2038" rx="4" ry="4" style="stroke:#181818;stroke-width:1.4;" width="185.7173" x="209.94" y="1048.1679"/><line style="stroke:#181818;stroke-width:1.4;" x1="209.94" x2="395.6573" y1="1077.2358" y2="1077.2358"/><text fill="#1A1A1A" font-family="'Inter, Helvetica, sans-serif'" font-size="14" lengthAdjust="spacing" textLength="44.1418" x="280.7278" y="1068.1339">Closed</text><text fill="#1A1A1A" font-family="'Inter, Helvetica, sans-serif'" font-size="14" lengthAdjust="spacing" textLength="107.6176" x="214.94" y="1097.2018">:db/retractEntity</text><text fill="#1A1A1A" font-family="'Inter, Helvetica, sans-serif'" font-size="14" lengthAdjust="spacing" textLength="165.7173" x="214.94" y="1116.2697">+ :vv/close (stop watcher)</text></g><g class="start_entity" data-qualified-name=".start." data-source-line="10" id="ent0010"><ellipse cx="390.8" cy="56.0679" fill="#222222" rx="10" ry="10" style="stroke:#222222;stroke-width:1;"/></g><g class="end_entity" data-qualified-name=".end." data-source-line="46" id="ent0026"><ellipse cx="302.8" cy="1197.3679" fill="none" rx="11" ry="11" style="stroke:#222222;stroke-width:1;"/><ellipse cx="302.8" cy="1197.3679" fill="#222222" rx="6" ry="6" style="stroke:#222222;stroke-width:1;"/></g><g class="entity" data-qualified-name="GMN28" data-source-line="49" id="ent0029"><path d="M357.32,746.7979 L357.32,801.916 A4,4 0 0 0 361.32,805.916 L758.2753,805.916 A4,4 0 0 0 762.2753,801.916 L762.2753,752.7979 L752.2753,742.7979 L545.92,742.7979 L492.77,656.9979 L537.92,742.7979 L361.32,742.7979 A4,4 0 0 0 357.32,746.7979" fill="#FFF6D6" style="stroke:#7F6B14;stroke-width:0.5;"/><path d="M752.2753,742.7979 L752.2753,750.7979 A2,2 0 0 0 754.2753,752.7979 L762.2753,752.7979 L752.2753,742.7979" fill="#FFF6D6" style="stroke:#7F6B14;stroke-width:0.5;"/><text fill="#000000" font-family="'Inter, Helvetica, sans-serif'" font-size="13" lengthAdjust="spacing" textLength="351.7284" x="363.32" y="761.6949">ONE entity per path (`:doc/path` is :db.unique/identity), so</text><text fill="#000000" font-family="'Inter, Helvetica, sans-serif'" font-size="13" lengthAdjust="spacing" textLength="383.9553" x="363.32" y="779.4009">re-opening the same file upserts rather than duplicating, and a</text><text fill="#000000" font-family="'Inter, Helvetica, sans-serif'" font-size="13" lengthAdjust="spacing" textLength="338.8843" x="363.32" y="797.107">live edit updates this very entity in place (LWW by path).</text></g><!--link *start* to Opening--><g class="link" data-entity-1="ent0010" data-entity-2="ent0001" data-link-type="dependency" data-source-line="10" id="lnk11"><path d="M390.8,66.2479 C390.8,79.5579 390.8,100.0179 390.8,121.7179" fill="none" id="*start*-to-Opening" style="stroke:#555555;stroke-width:1.3;"/><polygon fill="#555555" points="390.8,126.7179,394.8,117.7179,390.8,121.7179,386.8,117.7179,390.8,126.7179" style="stroke:#555555;stroke-width:1.3;stroke-linejoin:miter;stroke-miterlimit:10;"/></g><!--link Opening to Loaded--><g class="link" data-entity-1="ent0001" data-entity-2="ent0002" data-link-type="dependency" data-source-line="29" id="lnk19"><path d="M390.8,204.5379 C390.8,229.5779 390.8,259.4079 390.8,295.8379" fill="none" id="Opening-to-Loaded" style="stroke:#555555;stroke-width:1.3;"/><polygon fill="#555555" points="390.8,300.8379,394.8,291.8379,390.8,295.8379,386.8,291.8379,390.8,300.8379" style="stroke:#555555;stroke-width:1.3;stroke-linejoin:miter;stroke-miterlimit:10;"/><text fill="#000000" font-family="'Inter, Helvetica, sans-serif'" font-size="13" lengthAdjust="spacing" textLength="108.5111" x="440.2243" y="249.1749">vv:content arrives</text><text fill="#000000" font-family="'Inter, Helvetica, sans-serif'" font-size="13" lengthAdjust="spacing" textLength="205.3598" x="391.8" y="266.8809">[:content/received] &#8594; :ds/transact</text></g><!--link Loaded to Active--><g class="link" data-entity-1="ent0002" data-entity-2="ent0007" data-link-type="dependency" data-source-line="35" id="lnk20"><path d="M289.44,656.9979 C272.53,686.5279 259.0967,710.0001 247.0467,731.0201" fill="none" id="Loaded-to-Active" style="stroke:#555555;stroke-width:1.3;"/><polygon fill="#555555" points="244.56,735.3579,252.5063,729.5393,247.0467,731.0201,245.5658,725.5606,244.56,735.3579" style="stroke:#555555;stroke-width:1.3;stroke-linejoin:miter;stroke-miterlimit:10;"/><text fill="#000000" font-family="'Inter, Helvetica, sans-serif'" font-size="13" lengthAdjust="spacing" textLength="142.5061" x="268.86" y="701.6549">[:tab/activate] / opened</text></g><!--link Active to Inactive--><g class="link" data-entity-1="ent0007" data-entity-2="ent0008" data-link-type="dependency" data-source-line="36" id="lnk21"><path d="M122.98,791.6579 C93.91,801.5579 65.3,817.4379 47.8,842.9579 C23.89,877.8279 61.5201,898.205 109.8601,911.145" fill="none" id="Active-to-Inactive" style="stroke:#555555;stroke-width:1.3;"/><polygon fill="#555555" points="114.69,912.4379,107.0304,906.2467,109.8601,911.145,104.9618,913.9746,114.69,912.4379" style="stroke:#555555;stroke-width:1.3;stroke-linejoin:miter;stroke-miterlimit:10;"/><text fill="#000000" font-family="'Inter, Helvetica, sans-serif'" font-size="13" lengthAdjust="spacing" textLength="130.8581" x="48.8" y="857.8549">another tab activated</text></g><!--link Inactive to Active--><g class="link" data-entity-1="ent0008" data-entity-2="ent0007" data-link-type="dependency" data-source-line="37" id="lnk22"><path d="M218.04,891.6179 C218.55,876.4779 219.17,858.8979 219.8,842.9579 C220.18,833.3379 220.4133,827.9332 220.8333,818.2532" fill="none" id="Inactive-to-Active" style="stroke:#555555;stroke-width:1.3;"/><polygon fill="#555555" points="221.05,813.2579,216.6636,822.0761,220.8333,818.2532,224.6561,822.4228,221.05,813.2579" style="stroke:#555555;stroke-width:1.3;stroke-linejoin:miter;stroke-miterlimit:10;"/><text fill="#000000" font-family="'Inter, Helvetica, sans-serif'" font-size="13" lengthAdjust="spacing" textLength="141.4401" x="220.8" y="857.8549">[:tab/activate] this path</text></g><!--link Loaded to Loaded--><g class="link" data-entity-1="ent0002" data-entity-2="ent0002" data-link-type="dependency" data-source-line="40" id="lnk23"><path d="M775.09,451.5279 C796.72,458.1879 809.6,467.3479 809.6,479.0179 C809.6,490.6879 801.4992,498.3786 779.8692,505.0286" fill="none" id="Loaded-to-Loaded" style="stroke:#555555;stroke-width:1.3;"/><polygon fill="#555555" points="775.09,506.4979,784.8681,507.6765,779.8692,505.0286,782.5171,500.0297,775.09,506.4979" style="stroke:#555555;stroke-width:1.3;stroke-linejoin:miter;stroke-miterlimit:10;"/><text fill="#000000" font-family="'Inter, Helvetica, sans-serif'" font-size="13" font-weight="700" lengthAdjust="spacing" textLength="73.4761" x="840.8648" y="466.4149">live refresh</text><text fill="#000000" font-family="'Inter, Helvetica, sans-serif'" font-size="13" lengthAdjust="spacing" textLength="82.6151" x="917.7209" y="466.4149">(file changed)</text><text fill="#000000" font-family="'Inter, Helvetica, sans-serif'" font-size="13" lengthAdjust="spacing" textLength="210.0008" x="815.6" y="484.1209">vv:content &#8594; re-transact :doc/html</text><text fill="#000000" font-family="'Inter, Helvetica, sans-serif'" font-size="13" lengthAdjust="spacing" textLength="173.3162" x="833.9423" y="501.827">(only :doc/*; :ui/* preserved)</text></g><!--link Active to Closed--><g class="link" data-entity-1="ent0007" data-entity-2="ent0009" data-link-type="dependency" data-source-line="43" id="lnk24"><path d="M322.51,803.9179 C340.08,813.4879 356.14,826.1779 366.8,842.9579 C407.83,907.5379 365.2355,993.4896 332.6955,1043.7996" fill="none" id="Active-to-Closed" style="stroke:#555555;stroke-width:1.3;"/><polygon fill="#555555" points="329.98,1047.9979,338.2265,1042.6132,332.6955,1043.7996,331.5091,1038.2685,329.98,1047.9979" style="stroke:#555555;stroke-width:1.3;stroke-linejoin:miter;stroke-miterlimit:10;"/><text fill="#000000" font-family="'Inter, Helvetica, sans-serif'" font-size="13" lengthAdjust="spacing" textLength="67.8731" x="384.12" y="935.9549">[:tab/close]</text></g><!--link Inactive to Closed--><g class="link" data-entity-1="ent0008" data-entity-2="ent0009" data-link-type="dependency" data-source-line="44" id="lnk25"><path d="M237.84,969.2879 C251.17,993.1779 265.9047,1019.6111 279.2447,1043.5311" fill="none" id="Inactive-to-Closed" style="stroke:#555555;stroke-width:1.3;"/><polygon fill="#555555" points="281.68,1047.8979,280.7898,1038.0894,279.2447,1043.5311,273.8029,1041.9859,281.68,1047.8979" style="stroke:#555555;stroke-width:1.3;stroke-linejoin:miter;stroke-miterlimit:10;"/><text fill="#000000" font-family="'Inter, Helvetica, sans-serif'" font-size="13" lengthAdjust="spacing" textLength="67.8731" x="265.95" y="1014.0649">[:tab/close]</text></g><!--link Closed to *end*--><g class="link" data-entity-1="ent0009" data-entity-2="ent0026" data-link-type="dependency" data-source-line="46" id="lnk27"><path d="M302.8,1125.7479 C302.8,1147.2779 302.8,1167.5879 302.8,1181.2979" fill="none" id="Closed-to-*end*" style="stroke:#555555;stroke-width:1.3;"/><polygon fill="#555555" points="302.8,1186.2979,306.8,1177.2979,302.8,1181.2979,298.8,1177.2979,302.8,1186.2979" style="stroke:#555555;stroke-width:1.3;stroke-linejoin:miter;stroke-miterlimit:10;"/></g><g class="legend" data-source-line="54"><rect fill="none" height="166.5433" rx="4" ry="4" style="stroke:#000000;stroke-width:1;" width="393.3185" x="634.2822" y="1228.3679"/><text fill="#000000" font-family="'Inter, Helvetica, sans-serif'" font-size="14" font-weight="700" lengthAdjust="spacing" textLength="46.0178" x="642.9222" y="1250.3339">Colour</text><text fill="#000000" font-family="'Inter, Helvetica, sans-serif'" font-size="14" font-weight="700" lengthAdjust="spacing" textLength="105.2796" x="696.22" y="1250.3339">State / concept</text><rect fill="#7590DB" height="19.0679" style="stroke:none;stroke-width:1;" width="53.2978" x="639.2822" y="1254.4358"/><text fill="#000000" font-family="'Inter, Helvetica, sans-serif'" font-size="14" lengthAdjust="spacing" textLength="14.5599" x="639.2822" y="1269.4018">&#160;&#160;&#160;&#160;</text><text fill="#000000" font-family="'Inter, Helvetica, sans-serif'" font-size="14" lengthAdjust="spacing" textLength="173.5013" x="696.22" y="1269.4018">Opening (request in flight)</text><rect fill="#A45BAD" height="19.0679" style="stroke:none;stroke-width:1;" width="53.2978" x="639.2822" y="1273.5038"/><text fill="#000000" font-family="'Inter, Helvetica, sans-serif'" font-size="14" lengthAdjust="spacing" textLength="14.5599" x="639.2822" y="1288.4697">&#160;&#160;&#160;&#160;</text><text fill="#000000" font-family="'Inter, Helvetica, sans-serif'" font-size="14" lengthAdjust="spacing" textLength="322.7408" x="696.22" y="1288.4697">Loaded &#8212; the DataScript :doc entity (super-state)</text><rect fill="#67B11D" height="19.0679" style="stroke:none;stroke-width:1;" width="53.2978" x="639.2822" y="1292.5717"/><text fill="#000000" font-family="'Inter, Helvetica, sans-serif'" font-size="14" lengthAdjust="spacing" textLength="14.5599" x="639.2822" y="1307.5376">&#160;&#160;&#160;&#160;</text><text fill="#000000" font-family="'Inter, Helvetica, sans-serif'" font-size="14" lengthAdjust="spacing" textLength="107.0156" x="696.22" y="1307.5376">Markdown body</text><rect fill="#2D9574" height="19.0679" style="stroke:none;stroke-width:1;" width="53.2978" x="639.2822" y="1311.6396"/><text fill="#000000" font-family="'Inter, Helvetica, sans-serif'" font-size="14" lengthAdjust="spacing" textLength="14.5599" x="639.2822" y="1326.6055">&#160;&#160;&#160;&#160;</text><text fill="#000000" font-family="'Inter, Helvetica, sans-serif'" font-size="14" lengthAdjust="spacing" textLength="75.4597" x="696.22" y="1326.6055">Image view</text><rect fill="#9F8766" height="19.0679" style="stroke:none;stroke-width:1;" width="53.2978" x="639.2822" y="1330.7075"/><text fill="#000000" font-family="'Inter, Helvetica, sans-serif'" font-size="14" lengthAdjust="spacing" textLength="14.5599" x="639.2822" y="1345.6734">&#160;&#160;&#160;&#160;</text><text fill="#000000" font-family="'Inter, Helvetica, sans-serif'" font-size="14" lengthAdjust="spacing" textLength="94.5136" x="696.22" y="1345.6734">Plain text view</text><rect fill="#E0211D" height="19.0679" style="stroke:none;stroke-width:1;" width="53.2978" x="639.2822" y="1349.7754"/><text fill="#000000" font-family="'Inter, Helvetica, sans-serif'" font-size="14" lengthAdjust="spacing" textLength="14.5599" x="639.2822" y="1364.7414">&#160;&#160;&#160;&#160;</text><text fill="#000000" font-family="'Inter, Helvetica, sans-serif'" font-size="14" lengthAdjust="spacing" textLength="172.2834" x="696.22" y="1364.7414">Error substate (:doc/error)</text><rect fill="#DDDDDD" height="19.0679" style="stroke:none;stroke-width:1;" width="53.2978" x="639.2822" y="1368.8433"/><text fill="#000000" font-family="'Inter, Helvetica, sans-serif'" font-size="14" lengthAdjust="spacing" textLength="14.5599" x="639.2822" y="1383.8093">&#160;&#160;&#160;&#160;</text><text fill="#000000" font-family="'Inter, Helvetica, sans-serif'" font-size="14" lengthAdjust="spacing" textLength="108.2756" x="696.22" y="1383.8093">Inactive / Closed</text><line style="stroke:#000000;stroke-width:1;" x1="639.2822" x2="1022.6008" y1="1235.3679" y2="1235.3679"/><line style="stroke:#000000;stroke-width:1;" x1="639.2822" x2="1022.6008" y1="1254.4358" y2="1254.4358"/><line style="stroke:#000000;stroke-width:1;" x1="639.2822" x2="1022.6008" y1="1273.5038" y2="1273.5038"/><line style="stroke:#000000;stroke-width:1;" x1="639.2822" x2="1022.6008" y1="1292.5717" y2="1292.5717"/><line style="stroke:#000000;stroke-width:1;" x1="639.2822" x2="1022.6008" y1="1311.6396" y2="1311.6396"/><line style="stroke:#000000;stroke-width:1;" x1="639.2822" x2="1022.6008" y1="1330.7075" y2="1330.7075"/><line style="stroke:#000000;stroke-width:1;" x1="639.2822" x2="1022.6008" y1="1349.7754" y2="1349.7754"/><line style="stroke:#000000;stroke-width:1;" x1="639.2822" x2="1022.6008" y1="1368.8433" y2="1368.8433"/><line style="stroke:#000000;stroke-width:1;" x1="639.2822" x2="1022.6008" y1="1387.9113" y2="1387.9113"/><line style="stroke:#000000;stroke-width:1;" x1="639.2822" x2="639.2822" y1="1235.3679" y2="1387.9113"/><line style="stroke:#000000;stroke-width:1;" x1="692.58" x2="692.58" y1="1235.3679" y2="1387.9113"/><line style="stroke:#000000;stroke-width:1;" x1="1022.6008" x2="1022.6008" y1="1235.3679" y2="1387.9113"/></g><?plantuml-src XLR_Rjis4FvVJt6BWSLnuxZf6cTrsWv9RQ_6d1zml7L04xIqTBQ8ogH6Kaw3PS3-sWCCUy8-oUv8INQw80kGH1AFttsy-tXtszjmaGdbVZuTWrwXWLCqIo4Jc64i2eiWm8dPjeLCpX6afVTOBtDjfKEmJj3VfOXJgR17IsCj4ap05ZcQTbYzaIwDjhVXarIyC0kVxIu81TguL2-q4XaSnqwki3DImZ_0NCS56v7V5RODpWtQ52ncytQcTSxR4rerv0sDqOPT4Be7FreVYPZavCL-JPgWFPOpGj5NgPKDa6lYiSvqOS2bmbL1yKvuiI_5meWbn48fxIfJsakFAiRSxS6OV1awM2uoT0INucUqFSWBasS8ZUFd1oV7VNW5VU74PMnaxg2Nw1XGEUbksHD7FBwDCzo5XK5KqEWUdkplzodWvbEYRzGkE2GFZMVz5mU7pq4knG9X9V665YYwZHV3xm-xNSWp8HMPVdQxFbwDmTDd3EFZjXTz8rMS5Gd2XzMgxL9SufuibbaK4GzYEXKpw00nAvP4RKqAllpv3sY5cwo1_6oSf_a9RydVxDRRT7BXqfqeUj-wXdRxDPpdgAHQH548zrRvlWN2LcjmV77HF_am7PrDeGVlFOgc9M2eQ_Zorz_GMwtyfokrv5CQ58c59vHSHVzNgnxbmn6vsajGg7TIYhL_F3s-V3CPNKm_34VZCVmUGIdihTCoqDxyj0-dnvEV-kVlpYf6df0NzbQLawqhvR-cRfbHTWtnG0xws-dfU0qyubHvrD7fZp0PdFK7ay7a0LYVKy9yAPSBcCiCUnqVnzVGL3eOSc9trj1JUlN8qr-dCBny09CtV4NpPMv8EQksbmfXeur5ZWbb2w3A5vsVS3p4grg26-jyadhTyzvOP3Br8XE8rem7h4DFUJ2PyE_v_KXudR9Fj9PGhrIpJ6gRjGusrJSMzeYzD-HGC5NsodYzCWSTbWRCXSoi5yxxIXe1_vgsCSdDRPKzBV6dTH0K7G0MMYTGObmfWrHAOiTdod23T_H755LgPe1ITBqDRO8mXegSlL9hJWPZf6z9AVB4Tdob8WyHbuQDmkaB9IIIRgUbCWRDcrJ6AHTjNwrzDTsfr1-gx1O0Hpkyq7CZu_AzF-oU77p7GIza9-nhizGuOIb1yJF5dek4cBM3mH7CT7BhKw1g9rKD3_gk2dgZxty8tz_WMU60IwUdZma1rxVx1t2ceAB7onN_g8nRo6lDd8i2iGbqoVarbIg6m2IgRRmsAnRKf0WsfKBD0Qgs9L5jy3_mTIHy6iQZNmRjoM0u6Lo-NVScgefaXv05obNfh8vmJmMj5lStAFjRgmLDlkGGfq8jwFvTgGsPi18CjYiXG7s1ANXQPMMLRHtv1BQ0hhH5i_AtcBXIgp3-njuBp9jCMqya73Jcr-lxqNZOfCnrMFIPBktMUUubiqvvBGQ-FLof9xvUUmXeMaUnkX4kfdJiHELszaX58ueeJKZgSaulGS-hY3M6ms6ttwKRUNusgBeEzrslrER7kj5yPFKJWxr2oTyAxCWa6EzGuzUqdGAfosl9kR9YYRw-Gf5Jr6XWC2B8X381IP5dCXQEhCl1Wn1yuZ2HZhOaF584ST0CTRlH3gcYndJMyRjtt0Tz2zoBg22nkZ6ACbpmYv6Br17ctIju4sO9Uhhq8UvK8mNSiS7Bnk71YwVzazVVDlQxJu_--_UkRfvDWtHowvZ6F6CFEnL6c3uUmIZ3pJsUm_Fma48fN0zwDNOOKXx1hhfgg1tbhZ33FB9hL4ytrPOmtZoovQ8UVExj2-FF8_jyGwgdIMYkgtbzo23on-XMLwXJNOmxJdl8zxy0?></g></svg>