<svg xmlns="http://www.w3.org/2000/svg" xmlns:xlink="http://www.w3.org/1999/xlink" contentStyleType="text/css" data-diagram-type="STATE" height="845px" preserveAspectRatio="none" style="width:1074px;height:845px;background:#FBF8EF;" version="1.1" viewBox="0 0 1074 845" width="1074px" zoomAndPan="magnify"><?plantuml $version$?><defs/><g><rect fill="#FBF8EF" height="845" style="stroke:none;stroke-width:1;" width="1074" x="0" y="0"/><g class="title" data-source-line="7"><text fill="#000000" font-family="'Inter, Helvetica, sans-serif'" font-size="14" font-weight="700" lengthAdjust="spacing" textLength="224.7132" x="421.2323" y="24.9659">Find-bar state machine (:ui/find)</text><text fill="#000000" font-family="'Inter, Helvetica, sans-serif'" font-size="14" font-weight="700" lengthAdjust="spacing" textLength="191.0713" x="438.0532" y="44.0339">{:visible? :query :count :idx}</text></g><g class="entity" data-qualified-name="Hidden" data-source-line="15" id="ent0001"><rect fill="#DDDDDD" height="77.2038" rx="4" ry="4" style="stroke:#181818;stroke-width:1.4;" width="137.7815" x="312.54" y="146.1358"/><line style="stroke:#181818;stroke-width:1.4;" x1="312.54" x2="450.3215" y1="175.2038" y2="175.2038"/><text fill="#1A1A1A" font-family="'Inter, Helvetica, sans-serif'" font-size="14" lengthAdjust="spacing" textLength="47.7538" x="357.5539" y="166.1018">Hidden</text><text fill="#1A1A1A" font-family="'Inter, Helvetica, sans-serif'" font-size="14" lengthAdjust="spacing" textLength="93.4076" x="317.54" y="195.1697">visible? = false</text><text fill="#1A1A1A" font-family="'Inter, Helvetica, sans-serif'" font-size="14" lengthAdjust="spacing" textLength="117.7815" x="317.54" y="214.2376">highlights cleared</text></g><g class="entity" data-qualified-name="Empty" data-source-line="16" id="ent0002"><rect fill="#7590DB" height="77.2038" rx="4" ry="4" style="stroke:#181818;stroke-width:1.4;" width="163.9474" x="54.46" y="320.3458"/><line style="stroke:#181818;stroke-width:1.4;" x1="54.46" x2="218.4074" y1="349.4138" y2="349.4138"/><text fill="#1A1A1A" font-family="'Inter, Helvetica, sans-serif'" font-size="14" lengthAdjust="spacing" textLength="96.2776" x="88.2949" y="340.3118">Visible (empty)</text><text fill="#1A1A1A" font-family="'Inter, Helvetica, sans-serif'" font-size="14" lengthAdjust="spacing" textLength="89.9076" x="59.46" y="369.3797">visible? = true</text><text fill="#1A1A1A" font-family="'Inter, Helvetica, sans-serif'" font-size="14" lengthAdjust="spacing" textLength="143.9474" x="59.46" y="388.4476">query = ""  &#183;  count = 0</text></g><g class="entity" data-qualified-name="Matches" data-source-line="17" id="ent0003"><rect fill="#67B11D" height="96.2717" rx="4" ry="4" style="stroke:#181818;stroke-width:1.4;" width="186.3627" x="298.25" y="494.5458"/><line style="stroke:#181818;stroke-width:1.4;" x1="298.25" x2="484.6127" y1="523.6138" y2="523.6138"/><text fill="#1A1A1A" font-family="'Inter, Helvetica, sans-serif'" font-size="14" lengthAdjust="spacing" textLength="126.5035" x="328.1796" y="514.5118">Visible (matches: n)</text><text fill="#1A1A1A" font-family="'Inter, Helvetica, sans-serif'" font-size="14" lengthAdjust="spacing" textLength="89.9076" x="303.25" y="543.5797">visible? = true</text><text fill="#1A1A1A" font-family="'Inter, Helvetica, sans-serif'" font-size="14" lengthAdjust="spacing" textLength="166.3627" x="303.25" y="562.6476">count = n &gt; 0  &#183;  idx &#8712; 1..n</text><text fill="#1A1A1A" font-family="'Inter, Helvetica, sans-serif'" font-size="14" lengthAdjust="spacing" textLength="119.6995" x="303.25" y="581.7155">highlights painted</text></g><g class="start_entity" data-qualified-name=".start." data-source-line="13" id="ent0004"><ellipse cx="381.43" cy="75.1358" fill="#222222" rx="10" ry="10" style="stroke:#222222;stroke-width:1;"/></g><g class="entity" data-qualified-name="GMN16" data-source-line="34" id="ent0017"><path d="M245.71,655.8158 L245.71,710.9339 A4,4 0 0 0 249.71,714.9339 L533.1493,714.9339 A4,4 0 0 0 537.1493,710.9339 L537.1493,661.8158 L527.1493,651.8158 L395.43,651.8158 L391.43,591.0258 L387.43,651.8158 L249.71,651.8158 A4,4 0 0 0 245.71,655.8158" fill="#FFF6D6" style="stroke:#7F6B14;stroke-width:0.5;"/><path d="M527.1493,651.8158 L527.1493,659.8158 A2,2 0 0 0 529.1493,661.8158 L537.1493,661.8158 L527.1493,651.8158" fill="#FFF6D6" style="stroke:#7F6B14;stroke-width:0.5;"/><text fill="#000000" font-family="'Inter, Helvetica, sans-serif'" font-size="13" lengthAdjust="spacing" textLength="228.2802" x="251.71" y="670.7128">cycle! wraps with modular arithmetic:</text><text fill="#000000" font-family="'Inter, Helvetica, sans-serif'" font-size="13" lengthAdjust="spacing" textLength="261.1703" x="251.71" y="688.4189">idx &#8788; (idx + dir) mod n  (internally 0-based;</text><text fill="#000000" font-family="'Inter, Helvetica, sans-serif'" font-size="13" lengthAdjust="spacing" textLength="270.4393" x="251.71" y="706.1249">returns the 1-based index shown as "idx/n").</text></g><!--link *start* to Hidden--><g class="link" data-entity-1="ent0004" data-entity-2="ent0001" data-link-type="dependency" data-source-line="13" id="lnk5"><path d="M381.43,85.3158 C381.43,98.6258 381.43,119.0858 381.43,140.7758" fill="none" id="*start*-to-Hidden" style="stroke:#555555;stroke-width:1.3;"/><polygon fill="#555555" points="381.43,145.7758,385.43,136.7758,381.43,140.7758,377.43,136.7758,381.43,145.7758" style="stroke:#555555;stroke-width:1.3;stroke-linejoin:miter;stroke-miterlimit:10;"/></g><!--link Hidden to Empty--><g class="link" data-entity-1="ent0001" data-entity-2="ent0002" data-link-type="dependency" data-source-line="19" id="lnk6"><path d="M312.13,193.3058 C240.01,202.7758 134.16,221.7158 109.43,253.3458 C94.53,272.4058 99.2915,294.33 109.8815,315.84" fill="none" id="Hidden-to-Empty" style="stroke:#555555;stroke-width:1.3;"/><polygon fill="#555555" points="112.09,320.3258,111.7034,310.4846,109.8815,315.84,104.5261,314.0182,112.09,320.3258" style="stroke:#555555;stroke-width:1.3;stroke-linejoin:miter;stroke-miterlimit:10;"/><text fill="#000000" font-family="'Inter, Helvetica, sans-serif'" font-size="13" lengthAdjust="spacing" textLength="134.1341" x="110.43" y="277.2428">Ctrl+F  /  [:find/toggle]</text></g><!--link Empty to Hidden--><g class="link" data-entity-1="ent0002" data-entity-2="ent0001" data-link-type="dependency" data-source-line="20" id="lnk7"><path d="M206.45,319.9358 C221.13,310.9158 236.16,300.8358 249.43,290.3458 C267.43,276.1058 267.98,268.2358 285.43,253.3458 C297.37,243.1558 306.7488,235.8785 319.7088,226.6385" fill="none" id="Empty-to-Hidden" style="stroke:#555555;stroke-width:1.3;"/><polygon fill="#555555" points="323.78,223.7358,314.1297,225.7036,319.7088,226.6385,318.7739,232.2175,323.78,223.7358" style="stroke:#555555;stroke-width:1.3;stroke-linejoin:miter;stroke-miterlimit:10;"/><text fill="#000000" font-family="'Inter, Helvetica, sans-serif'" font-size="13" lengthAdjust="spacing" textLength="162.6562" x="286.43" y="268.2428">Ctrl+F (toggle off) | Escape</text><text fill="#000000" font-family="'Inter, Helvetica, sans-serif'" font-size="13" lengthAdjust="spacing" textLength="130.7007" x="302.4077" y="285.9489">/ [:find/close] &#8594; clear!</text></g><!--link Empty to Matches--><g class="link" data-entity-1="ent0002" data-entity-2="ent0003" data-link-type="dependency" data-source-line="22" id="lnk8"><path d="M56.16,397.9358 C27.24,416.7758 6,440.5858 25.43,464.5458 C59.13,506.0858 196.0614,525.6434 292.9514,534.6434" fill="none" id="Empty-to-Matches" style="stroke:#555555;stroke-width:1.3;"/><polygon fill="#555555" points="297.93,535.1058,289.3385,530.2906,292.9514,534.6434,288.5986,538.2563,297.93,535.1058" style="stroke:#555555;stroke-width:1.3;stroke-linejoin:miter;stroke-miterlimit:10;"/><text fill="#000000" font-family="'Inter, Helvetica, sans-serif'" font-size="13" lengthAdjust="spacing" textLength="168.3242" x="61.7561" y="442.4428">type query (matches found)</text><text fill="#000000" font-family="'Inter, Helvetica, sans-serif'" font-size="13" lengthAdjust="spacing" textLength="238.9764" x="26.43" y="460.1489">[:find/set-query] &#8594; search! &#8594; count n&gt;0</text></g><!--link Matches to Empty--><g class="link" data-entity-1="ent0003" data-entity-2="ent0002" data-link-type="dependency" data-source-line="24" id="lnk10"><path d="M337.25,494.0958 C326.58,484.4458 315.56,474.2658 305.43,464.5458 C288.88,448.6558 287.91,441.1458 269.43,427.5458 C253.9,416.1058 240.5638,407.9261 223.1938,398.7761" fill="none" id="Matches-to-Empty" style="stroke:#555555;stroke-width:1.3;"/><polygon fill="#555555" points="218.77,396.4458,224.8685,404.1794,223.1938,398.7761,228.597,397.1014,218.77,396.4458" style="stroke:#555555;stroke-width:1.3;stroke-linejoin:miter;stroke-miterlimit:10;"/><text fill="#000000" font-family="'Inter, Helvetica, sans-serif'" font-size="13" lengthAdjust="spacing" textLength="142.5567" x="306.43" y="442.4428">edit query &#8594; 0 matches</text><text fill="#000000" font-family="'Inter, Helvetica, sans-serif'" font-size="13" lengthAdjust="spacing" textLength="99.5281" x="327.9443" y="460.1489">or clear the field</text></g><!--link Empty to Empty--><g class="link" data-entity-1="ent0002" data-entity-2="ent0002" data-link-type="dependency" data-source-line="23" id="lnk9"><path d="M218.69,342.8858 C238.61,344.1058 253.41,349.4558 253.41,358.9458 C253.41,368.4258 243.6006,373.4802 223.6806,374.7002" fill="none" id="Empty-to-Empty" style="stroke:#555555;stroke-width:1.3;"/><polygon fill="#555555" points="218.69,375.0058,227.9177,378.4482,223.6806,374.7002,227.4286,370.4631,218.69,375.0058" style="stroke:#555555;stroke-width:1.3;stroke-linejoin:miter;stroke-miterlimit:10;"/><text fill="#000000" font-family="'Inter, Helvetica, sans-serif'" font-size="13" lengthAdjust="spacing" textLength="134.2641" x="259.41" y="355.3428">type query (no match)</text><text fill="#000000" font-family="'Inter, Helvetica, sans-serif'" font-size="13" lengthAdjust="spacing" textLength="56.4981" x="298.293" y="373.0489">count = 0</text></g><!--link Matches to Matches--><g class="link" data-entity-1="ent0003" data-entity-2="ent0003" data-link-type="dependency" data-source-line="25" id="lnk11"><path d="M485.05,537.9158 C505.1,538.3958 519.62,539.9858 519.62,542.6858 C519.62,545.3858 510.0986,546.8462 490.0486,547.3262" fill="none" id="Matches-to-Matches" style="stroke:#555555;stroke-width:1.3;"/><polygon fill="#555555" points="485.05,547.4458,494.1432,551.2293,490.0486,547.3262,493.9517,543.2316,485.05,547.4458" style="stroke:#555555;stroke-width:1.3;stroke-linejoin:miter;stroke-miterlimit:10;"/><text fill="#000000" font-family="'Inter, Helvetica, sans-serif'" font-size="13" lengthAdjust="spacing" textLength="105.0271" x="541.7855" y="539.0828">type a new query</text><text fill="#000000" font-family="'Inter, Helvetica, sans-serif'" font-size="13" lengthAdjust="spacing" textLength="137.3581" x="525.62" y="556.7889">(re-run search!, new n)</text></g><!--link Matches to Matches--><g class="link" data-entity-1="ent0003" data-entity-2="ent0003" data-link-type="dependency" data-source-line="27" id="lnk12"><path d="M484.83,534.0358 C567.46,530.9658 668.62,533.8458 668.62,542.6858 C668.62,551.5158 572.4566,554.5815 489.8266,551.5115" fill="none" id="Matches-to-Matches-1" style="stroke:#555555;stroke-width:1.3;"/><polygon fill="#555555" points="484.83,551.3258,493.6753,555.6572,489.8266,551.5115,493.9723,547.6627,484.83,551.3258" style="stroke:#555555;stroke-width:1.3;stroke-linejoin:miter;stroke-miterlimit:10;"/><text fill="#000000" font-family="'Inter, Helvetica, sans-serif'" font-size="13" lengthAdjust="spacing" textLength="150.6817" x="691.6377" y="539.0828">Enter / &#8595;  [:find/cycle +1]</text><text fill="#000000" font-family="'Inter, Helvetica, sans-serif'" font-size="13" lengthAdjust="spacing" textLength="184.7172" x="674.62" y="556.7889">idx &#8788; (idx mod n)+1  (1-based)</text></g><!--link Matches to Matches--><g class="link" data-entity-1="ent0003" data-entity-2="ent0003" data-link-type="dependency" data-source-line="28" id="lnk13"><path d="M485,532.0658 C626.58,524.1158 864.62,527.6458 864.62,542.6858 C864.62,557.7158 631.5721,561.5365 489.9921,553.5765" fill="none" id="Matches-to-Matches-2" style="stroke:#555555;stroke-width:1.3;"/><polygon fill="#555555" points="485,553.2958,493.7613,557.7947,489.9921,553.5765,494.2103,549.8073,485,553.2958" style="stroke:#555555;stroke-width:1.3;stroke-linejoin:miter;stroke-miterlimit:10;"/><text fill="#000000" font-family="'Inter, Helvetica, sans-serif'" font-size="13" lengthAdjust="spacing" textLength="182.5578" x="870.62" y="539.0828">Shift+Enter / &#8593;  [:find/cycle -1]</text><text fill="#000000" font-family="'Inter, Helvetica, sans-serif'" font-size="13" lengthAdjust="spacing" textLength="141.1151" x="891.3413" y="556.7889">idx &#8788; ((idx-2 mod n)+1)</text></g><!--link Matches to Hidden--><g class="link" data-entity-1="ent0003" data-entity-2="ent0001" data-link-type="dependency" data-source-line="30" id="lnk14"><path d="M437.58,494.1058 C444.08,484.9258 449.78,474.9158 453.43,464.5458 C484.61,376.0058 490.72,339.4858 453.43,253.3458 C448.67,242.3258 444.583,235.8924 436.143,227.1024" fill="none" id="Matches-to-Hidden" style="stroke:#555555;stroke-width:1.3;"/><polygon fill="#555555" points="432.68,223.4958,436.0281,232.7581,436.143,227.1024,441.7987,227.2173,432.68,223.4958" style="stroke:#555555;stroke-width:1.3;stroke-linejoin:miter;stroke-miterlimit:10;"/><text fill="#000000" font-family="'Inter, Helvetica, sans-serif'" font-size="13" lengthAdjust="spacing" textLength="139.8541" x="529.5203" y="355.3428">Escape / &#215;  [:find/close]</text><text fill="#000000" font-family="'Inter, Helvetica, sans-serif'" font-size="13" lengthAdjust="spacing" textLength="238.5748" x="480.16" y="373.0489">&#8594; clear! (delete vv-find, vv-find-current)</text></g><!--link Matches to Hidden--><g class="link" data-entity-1="ent0003" data-entity-2="ent0001" data-link-type="dependency" data-source-line="31" id="lnk15"><path d="M485.04,521.2758 C607.23,490.0758 797.73,423.1158 727.43,320.3458 C665.39,229.6358 537.4756,200.6314 455.6456,190.9814" fill="none" id="Matches-to-Hidden-1" style="stroke:#555555;stroke-width:1.3;"/><polygon fill="#555555" points="450.68,190.3958,459.1496,195.4223,455.6456,190.9814,460.0865,187.4774,450.68,190.3958" style="stroke:#555555;stroke-width:1.3;stroke-linejoin:miter;stroke-miterlimit:10;"/><text fill="#000000" font-family="'Inter, Helvetica, sans-serif'" font-size="13" lengthAdjust="spacing" textLength="106.4181" x="743.56" y="364.3428">Ctrl+F (toggle off)</text></g><g class="legend" data-source-line="39"><rect fill="none" height="90.2717" rx="4" ry="4" style="stroke:#000000;stroke-width:1;" width="364.1987" x="690.9791" y="735.9339"/><text fill="#000000" font-family="'Inter, Helvetica, sans-serif'" font-size="14" font-weight="700" lengthAdjust="spacing" textLength="46.0178" x="699.6191" y="757.8998">Colour</text><text fill="#000000" font-family="'Inter, Helvetica, sans-serif'" font-size="14" font-weight="700" lengthAdjust="spacing" textLength="105.2796" x="752.9169" y="757.8998">State / concept</text><rect fill="#DDDDDD" height="19.0679" style="stroke:none;stroke-width:1;" width="53.2978" x="695.9791" y="762.0018"/><text fill="#000000" font-family="'Inter, Helvetica, sans-serif'" font-size="14" lengthAdjust="spacing" textLength="3.64" x="695.9791" y="776.9677">&#160;</text><text fill="#000000" font-family="'Inter, Helvetica, sans-serif'" font-size="14" lengthAdjust="spacing" textLength="282.1969" x="752.9169" y="776.9677">Hidden (find bar closed, highlights cleared)</text><rect fill="#7590DB" height="19.0679" style="stroke:none;stroke-width:1;" width="53.2978" x="695.9791" y="781.0697"/><text fill="#000000" font-family="'Inter, Helvetica, sans-serif'" font-size="14" lengthAdjust="spacing" textLength="3.64" x="695.9791" y="796.0357">&#160;</text><text fill="#000000" font-family="'Inter, Helvetica, sans-serif'" font-size="14" lengthAdjust="spacing" textLength="288.1469" x="752.9169" y="796.0357">Visible, no current matches (app-db :ui/find)</text><rect fill="#67B11D" height="19.0679" style="stroke:none;stroke-width:1;" width="53.2978" x="695.9791" y="800.1376"/><text fill="#000000" font-family="'Inter, Helvetica, sans-serif'" font-size="14" lengthAdjust="spacing" textLength="3.64" x="695.9791" y="815.1036">&#160;</text><text fill="#000000" font-family="'Inter, Helvetica, sans-serif'" font-size="14" lengthAdjust="spacing" textLength="293.6209" x="752.9169" y="815.1036">Visible with painted matches (CSS highlights)</text><line style="stroke:#000000;stroke-width:1;" x1="695.9791" x2="1050.1778" y1="742.9339" y2="742.9339"/><line style="stroke:#000000;stroke-width:1;" x1="695.9791" x2="1050.1778" y1="762.0018" y2="762.0018"/><line style="stroke:#000000;stroke-width:1;" x1="695.9791" x2="1050.1778" y1="781.0697" y2="781.0697"/><line style="stroke:#000000;stroke-width:1;" x1="695.9791" x2="1050.1778" y1="800.1376" y2="800.1376"/><line style="stroke:#000000;stroke-width:1;" x1="695.9791" x2="1050.1778" y1="819.2056" y2="819.2056"/><line style="stroke:#000000;stroke-width:1;" x1="695.9791" x2="695.9791" y1="742.9339" y2="819.2056"/><line style="stroke:#000000;stroke-width:1;" x1="749.2769" x2="749.2769" y1="742.9339" y2="819.2056"/><line style="stroke:#000000;stroke-width:1;" x1="1050.1778" x2="1050.1778" y1="742.9339" y2="819.2056"/></g></g></svg>