<svg xmlns="http://www.w3.org/2000/svg" xmlns:xlink="http://www.w3.org/1999/xlink" contentStyleType="text/css" data-diagram-type="STATE" height="450px" preserveAspectRatio="none" style="width:902px;height:450px;background:#FBF8EF;" version="1.1" viewBox="0 0 902 450" width="902px" zoomAndPan="magnify"><?plantuml $version$?><defs/><g><rect fill="#FBF8EF" height="450" style="stroke:none;stroke-width:1;" width="902" x="0" y="0"/><g class="title" data-source-line="6"><text fill="#000000" font-family="'Inter, Helvetica, sans-serif'" font-size="14" font-weight="700" lengthAdjust="spacing" textLength="538.0879" x="178.9177" y="24.9659">Document &lt;-&gt; PDF and Preview &lt;-&gt; Source &#8212; two toggles over one machinery</text></g><g class="entity" data-qualified-name="Doc" data-source-line="8" id="ent0001"><path d="M11,47.0679 L486.3794,47.0679 A4,4 0 0 1 490.3794,51.0679 L490.3794,95.2038 L7,95.2038 L7,51.0679 A4,4 0 0 1 11,47.0679" fill="#F1F1F1"/><rect fill="none" height="131.5258" rx="4" ry="4" style="stroke:#181818;stroke-width:1.4;" width="483.3794" x="7" y="47.0679"/><line style="stroke:#181818;stroke-width:1.4;" x1="7" x2="490.3794" y1="95.2038" y2="95.2038"/><text fill="#1A1A1A" font-family="'Inter, Helvetica, sans-serif'" font-size="14" lengthAdjust="spacing" textLength="68.7537" x="214.3129" y="67.0339">Document</text><text fill="#1A1A1A" font-family="'Inter, Helvetica, sans-serif'" font-size="14" lengthAdjust="spacing" textLength="168.3213" x="164.529" y="86.1018">(LaTeX / Org / Markdown)</text><g class="entity" data-qualified-name="Doc.Prev" data-source-line="9" id="ent0002"><rect fill="#D7EEC1" height="58.1358" rx="4" ry="4" style="stroke:#181818;stroke-width:1.4;" width="89.5237" x="19" y="107.2038"/><line style="stroke:#181818;stroke-width:1.4;" x1="19" x2="108.5237" y1="155.3396" y2="155.3396"/><text fill="#1A1A1A" font-family="'Inter, Helvetica, sans-serif'" font-size="14" lengthAdjust="spacing" textLength="51.7718" x="29" y="127.1697">Preview</text><text fill="#1A1A1A" font-family="'Inter, Helvetica, sans-serif'" font-size="14" lengthAdjust="spacing" textLength="69.5237" x="29" y="146.2376">(rendered)</text></g><g class="entity" data-qualified-name="Doc.Src" data-source-line="10" id="ent0003"><rect fill="#C7E8DE" height="58.1358" rx="4" ry="4" style="stroke:#181818;stroke-width:1.4;" width="173.2294" x="293.15" y="107.2038"/><line style="stroke:#181818;stroke-width:1.4;" x1="293.15" x2="466.3794" y1="155.3396" y2="155.3396"/><text fill="#1A1A1A" font-family="'Inter, Helvetica, sans-serif'" font-size="14" lengthAdjust="spacing" textLength="45.2058" x="303.15" y="127.1697">Source</text><text fill="#1A1A1A" font-family="'Inter, Helvetica, sans-serif'" font-size="14" lengthAdjust="spacing" textLength="153.2294" x="303.15" y="146.2376">(tree-sitter CodeMirror)</text></g><!--link Prev to Src--><g class="link" data-entity-1="ent0002" data-entity-2="ent0003" data-link-type="dependency" data-source-line="11" id="lnk5"><path d="M108.97,155.1738 C113.26,156.4238 117.59,157.5038 121.84,158.2738 C156.37,164.5938 244.93,162.0738 279.84,158.2738 C284.07,157.8138 283.4549,157.9827 287.8049,157.3327" fill="none" id="Prev-to-Src" style="stroke:#555555;stroke-width:1.3;"/><polygon fill="#555555" points="292.75,156.5938,283.2577,153.9677,287.8049,157.3327,284.44,161.8799,292.75,156.5938" style="stroke:#555555;stroke-width:1.3;stroke-linejoin:miter;stroke-miterlimit:10;"/><text fill="#000000" font-family="'Inter, Helvetica, sans-serif'" font-size="13" lengthAdjust="spacing" textLength="156.5721" x="122.84" y="154.1708">View Source (Ctrl+Shift+S)</text></g><!--reverse link Prev to Src--><g class="link" data-entity-1="ent0002" data-entity-2="ent0003" data-link-type="dependency" data-source-line="12" id="lnk7"><path d="M113.7,136.2738 C161.5,136.2738 233.28,136.2738 292.94,136.2738" fill="none" id="Prev-backto-Src" style="stroke:#555555;stroke-width:1.3;"/><polygon fill="#555555" points="108.7,136.2738,117.7,140.2738,113.7,136.2738,117.7,132.2738,108.7,136.2738" style="stroke:#555555;stroke-width:1.3;stroke-linejoin:miter;stroke-miterlimit:10;"/><text fill="#000000" font-family="'Inter, Helvetica, sans-serif'" font-size="13" lengthAdjust="spacing" textLength="165.0221" x="118.34" y="129.1708">View Preview (Ctrl+Shift+D)</text></g></g><g class="entity" data-qualified-name="Pdf" data-source-line="15" id="ent0004"><rect fill="#C7E8DE" height="77.2038" rx="4" ry="4" style="stroke:#181818;stroke-width:1.4;" width="218.4632" x="669.46" y="74.2279"/><line style="stroke:#181818;stroke-width:1.4;" x1="669.46" x2="887.9232" y1="141.4317" y2="141.4317"/><text fill="#1A1A1A" font-family="'Inter, Helvetica, sans-serif'" font-size="14" lengthAdjust="spacing" textLength="25.9559" x="679.46" y="94.1939">PDF</text><text fill="#1A1A1A" font-family="'Inter, Helvetica, sans-serif'" font-size="14" lengthAdjust="spacing" textLength="198.4632" x="679.46" y="113.2618">(collocated same-stem sibling,</text><text fill="#1A1A1A" font-family="'Inter, Helvetica, sans-serif'" font-size="14" lengthAdjust="spacing" textLength="119.0135" x="679.46" y="132.3297">in-renderer pdf.js)</text></g><g class="entity" data-qualified-name="GMN11" data-source-line="20" id="ent0012"><path d="M674.08,243.5979 L674.08,316.422 A4,4 0 0 0 678.08,320.422 L879.3072,320.422 A4,4 0 0 0 883.3072,316.422 L883.3072,249.5979 L873.3072,239.5979 L782.69,239.5979 L778.69,151.7279 L774.69,239.5979 L678.08,239.5979 A4,4 0 0 0 674.08,243.5979" fill="#FFF6D6" style="stroke:#7F6B14;stroke-width:0.5;"/><path d="M873.3072,239.5979 L873.3072,247.5979 A2,2 0 0 0 875.3072,249.5979 L883.3072,249.5979 L873.3072,239.5979" fill="#FFF6D6" style="stroke:#7F6B14;stroke-width:0.5;"/><text fill="#000000" font-family="'Inter, Helvetica, sans-serif'" font-size="13" lengthAdjust="spacing" textLength="142.5711" x="680.08" y="258.4949">the PDF switch appears</text><text fill="#000000" font-family="'Inter, Helvetica, sans-serif'" font-size="13" lengthAdjust="spacing" textLength="188.2272" x="680.08" y="276.2009">only when a same-stem sibling</text><text fill="#000000" font-family="'Inter, Helvetica, sans-serif'" font-size="13" lengthAdjust="spacing" textLength="165.8152" x="680.08" y="293.907">.pdf exists; defaults per the</text><text fill="#000000" font-family="'Inter, Helvetica, sans-serif'" font-size="13" lengthAdjust="spacing" textLength="179.7771" x="680.08" y="311.613">collocated-default preference</text></g><!--link Doc to Pdf--><g class="link" data-entity-1="ent0001" data-entity-2="ent0004" data-link-type="dependency" data-source-line="17" id="lnk8"><path d="M490.8,135.9879 C530.93,137.3979 572.1,137.3679 610.92,134.8279 C629.83,133.5979 644.8954,132.1822 664.2754,129.8622" fill="none" id="Doc-to-Pdf" style="stroke:#555555;stroke-width:1.3;"/><polygon fill="#555555" points="669.24,129.2679,659.8284,126.366,664.2754,129.8622,660.7793,134.3093,669.24,129.2679" style="stroke:#555555;stroke-width:1.3;stroke-linejoin:miter;stroke-miterlimit:10;"/><text fill="#000000" font-family="'Inter, Helvetica, sans-serif'" font-size="13" lengthAdjust="spacing" textLength="60.7361" x="549.92" y="130.7249">Show PDF</text></g><!--reverse link Doc to Pdf--><g class="link" data-entity-1="ent0001" data-entity-2="ent0004" data-link-type="dependency" data-source-line="18" id="lnk10"><path d="M495.81,112.8279 C558.14,112.8279 617.18,112.8279 668.98,112.8279" fill="none" id="Doc-backto-Pdf" style="stroke:#555555;stroke-width:1.3;"/><polygon fill="#555555" points="490.81,112.8279,499.81,116.8279,495.81,112.8279,499.81,108.8279,490.81,112.8279" style="stroke:#555555;stroke-width:1.3;stroke-linejoin:miter;stroke-miterlimit:10;"/><text fill="#000000" font-family="'Inter, Helvetica, sans-serif'" font-size="13" lengthAdjust="spacing" textLength="100.4771" x="529.7725" y="87.7249">Show Document</text><text fill="#000000" font-family="'Inter, Helvetica, sans-serif'" font-size="13" lengthAdjust="spacing" textLength="143.1821" x="508.42" y="105.4309">(force rep = :document)</text></g><g class="legend" data-source-line="22"><rect fill="none" height="90.2717" rx="4" ry="4" style="stroke:#000000;stroke-width:1;" width="579.5039" x="304.4193" y="341.422"/><text fill="#000000" font-family="'Inter, Helvetica, sans-serif'" font-size="14" font-weight="700" lengthAdjust="spacing" textLength="46.0178" x="313.0593" y="363.3879">Colour</text><text fill="#000000" font-family="'Inter, Helvetica, sans-serif'" font-size="14" font-weight="700" lengthAdjust="spacing" textLength="57.3438" x="366.3571" y="363.3879">Concept</text><rect fill="#67B11D" height="19.0679" style="stroke:none;stroke-width:1;" width="53.2978" x="309.4193" y="367.4899"/><text fill="#000000" font-family="'Inter, Helvetica, sans-serif'" font-size="14" lengthAdjust="spacing" textLength="14.5599" x="309.4193" y="382.4558">&#160;&#160;&#160;&#160;</text><text fill="#000000" font-family="'Inter, Helvetica, sans-serif'" font-size="14" lengthAdjust="spacing" textLength="116.6755" x="366.3571" y="382.4558">rendered preview</text><rect fill="#2D9574" height="19.0679" style="stroke:none;stroke-width:1;" width="53.2978" x="309.4193" y="386.5578"/><text fill="#000000" font-family="'Inter, Helvetica, sans-serif'" font-size="14" lengthAdjust="spacing" textLength="14.5599" x="309.4193" y="401.5238">&#160;&#160;&#160;&#160;</text><text fill="#000000" font-family="'Inter, Helvetica, sans-serif'" font-size="14" lengthAdjust="spacing" textLength="134.7355" x="366.3571" y="401.5238">source / PDF surface</text><line style="stroke:#000000;stroke-width:1;" x1="309.4193" x2="504.7326" y1="348.422" y2="348.422"/><line style="stroke:#000000;stroke-width:1;" x1="309.4193" x2="504.7326" y1="367.4899" y2="367.4899"/><line style="stroke:#000000;stroke-width:1;" x1="309.4193" x2="504.7326" y1="386.5578" y2="386.5578"/><line style="stroke:#000000;stroke-width:1;" x1="309.4193" x2="504.7326" y1="405.6257" y2="405.6257"/><line style="stroke:#000000;stroke-width:1;" x1="309.4193" x2="309.4193" y1="348.422" y2="405.6257"/><line style="stroke:#000000;stroke-width:1;" x1="362.7171" x2="362.7171" y1="348.422" y2="405.6257"/><line style="stroke:#000000;stroke-width:1;" x1="504.7326" x2="504.7326" y1="348.422" y2="405.6257"/><text fill="#000000" font-family="'Inter, Helvetica, sans-serif'" font-size="14" lengthAdjust="spacing" textLength="569.5039" x="309.4193" y="422.5917">Preview&lt;-&gt;Source is always available; Document&lt;-&gt;PDF needs a collocated sibling PDF.</text></g><?plantuml-src VLJRRXCn47ttLmojH1gr6mY2LlGcbIP8YAQjad1vY5GvwzbTWzTUsTui5KNY8_X2leJnNfgehP2YpQvdpimvnsFtUd2jkFQV9XTWLcXXWZRdKi0IOruw19z91_JZ49kyC4vwXDdyR3w6dCUPr0X_V_-XwCZ4POxQGoLzHj_N5bSIg-FeT6PA6oFhzS2LoyYRD5Mu1uKgtGQCygv7xy4HEiuQ9ePgjptiRTr5SozNHCciEJlFYP2GFBKyfu9QX4QnqJ4MFegDekOe8B4c9oa8BkFXk-0AFG5tKekeuGGiQe5rfE6z1nwvee2hsSCBgEcLDk4nklw0FPCwLgL0k5cj8ggSuq2MkMBCIwzmRGS9gw74hFEaNcjSgMNvoa1ZYtj2EMEDngskv4BlNF0vVYLELpQbvuJRxy9Kkhy5t8NEy9D1wynMsvD0dSGcBQp3v6pwSNJrvV9c_k5oliOqt0ZYoPs8jjmJgNCZS2AjDROfCBCnJCUNe_5qFEtmTT78oZJpGI9b7CBdeBXLktFkhTgTPJBnkxC-0K9Af309wJMupU-SsWIC-kpNlHbaAV6Z_LKcfWK1ZkT4rMCEJYwLrEdUGaiTjQ8j528PV7EjTf4yeCw2Q_V4G_mGPfcfmjQnyDcH37bjQ6C_4XFKMIneO0v5kzvdJ1lYkZJUq_IPfAqRnd1ZrdbH8BTkeOrMjr1bD8xyiPg57f02m1_IUNS40XDUAk-W86bKSA7NLaHjC8noGjhfA32cC2Kde5P8lj-Tq7w6iz6yrQS5xaBWU7l_uDrmE3fzlZtSVtdq-7dtwAnqm5UZjsyENly7-DHPgi4FBulwmb4LlwM_5PUABnKUFRmhDA9exgNr43HcXVe3HYmRrVy0?></g></svg>