<svg xmlns="http://www.w3.org/2000/svg" xmlns:xlink="http://www.w3.org/1999/xlink" contentStyleType="text/css" data-diagram-type="STATE" height="593px" preserveAspectRatio="none" style="width:609px;height:593px;background:#FBF8EF;" version="1.1" viewBox="0 0 609 593" width="609px" zoomAndPan="magnify"><?plantuml $version$?><defs/><g><rect fill="#FBF8EF" height="593" style="stroke:none;stroke-width:1;" width="609" x="0" y="0"/><g class="title" data-source-line="6"><text fill="#000000" font-family="'Inter, Helvetica, sans-serif'" font-size="14" font-weight="700" lengthAdjust="spacing" textLength="493.0641" x="54.8445" y="24.9659">`vv --tui` terminal lifecycle &#8212; alt-screen setup and exactly-once restore</text></g><g class="entity" data-qualified-name="Active" data-source-line="8" id="ent0001"><rect fill="#C7E8DE" height="58.1358" rx="4" ry="4" style="stroke:#181818;stroke-width:1.4;" width="93.8917" x="276.62" y="163.0679"/><line style="stroke:#181818;stroke-width:1.4;" x1="276.62" x2="370.5117" y1="211.2038" y2="211.2038"/><text fill="#1A1A1A" font-family="'Inter, Helvetica, sans-serif'" font-size="14" lengthAdjust="spacing" textLength="39.3398" x="286.62" y="183.0339">Active</text><text fill="#1A1A1A" font-family="'Inter, Helvetica, sans-serif'" font-size="14" lengthAdjust="spacing" textLength="73.8917" x="286.62" y="202.1018">(rendering)</text></g><g class="entity" data-qualified-name="Suspended" data-source-line="9" id="ent0002"><rect fill="#C5CFEA" height="50" rx="4" ry="4" style="stroke:#181818;stroke-width:1.4;" width="93.3177" x="439.9" y="324.7579"/><line style="stroke:#181818;stroke-width:1.4;" x1="439.9" x2="533.2177" y1="353.8258" y2="353.8258"/><text fill="#1A1A1A" font-family="'Inter, Helvetica, sans-serif'" font-size="14" lengthAdjust="spacing" textLength="73.3177" x="449.9" y="344.7239">Suspended</text></g><g class="entity" data-qualified-name="Restored" data-source-line="10" id="ent0003"><rect fill="#D7EEC1" height="50" rx="4" ry="4" style="stroke:#181818;stroke-width:1.4;" width="79.1218" x="7" y="324.7579"/><line style="stroke:#181818;stroke-width:1.4;" x1="7" x2="86.1218" y1="353.8258" y2="353.8258"/><text fill="#1A1A1A" font-family="'Inter, Helvetica, sans-serif'" font-size="14" lengthAdjust="spacing" textLength="59.1218" x="17" y="344.7239">Restored</text></g><g class="start_entity" data-qualified-name=".start." data-source-line="12" id="ent0004"><ellipse cx="323.56" cy="56.0679" fill="#222222" rx="10" ry="10" style="stroke:#222222;stroke-width:1;"/></g><g class="end_entity" data-qualified-name=".end." data-source-line="16" id="ent0009"><ellipse cx="46.56" cy="453.3179" fill="none" rx="11" ry="11" style="stroke:#222222;stroke-width:1;"/><ellipse cx="46.56" cy="453.3179" fill="#222222" rx="6" ry="6" style="stroke:#222222;stroke-width:1;"/></g><g class="entity" data-qualified-name="GMN11" data-source-line="19" id="ent0012"><path d="M121.19,322.1979 L121.19,345.7579 L86.41,349.7579 L121.19,353.7579 L121.19,377.316 A4,4 0 0 0 125.19,381.316 L371.9302,381.316 A4,4 0 0 0 375.9302,377.316 L375.9302,328.1979 L365.9302,318.1979 L125.19,318.1979 A4,4 0 0 0 121.19,322.1979" fill="#FFF6D6" style="stroke:#7F6B14;stroke-width:0.5;"/><path d="M365.9302,318.1979 L365.9302,326.1979 A2,2 0 0 0 367.9302,328.1979 L375.9302,328.1979 L365.9302,318.1979" fill="#FFF6D6" style="stroke:#7F6B14;stroke-width:0.5;"/><text fill="#000000" font-family="'Inter, Helvetica, sans-serif'" font-size="13" lengthAdjust="spacing" textLength="143.5851" x="127.19" y="337.0949">restore! is exactly-once:</text><text fill="#000000" font-family="'Inter, Helvetica, sans-serif'" font-size="13" lengthAdjust="spacing" textLength="233.7402" x="127.19" y="354.8009">show cursor &#183; leave alt-screen &#183; raw off</text><text fill="#000000" font-family="'Inter, Helvetica, sans-serif'" font-size="13" lengthAdjust="spacing" textLength="175.4482" x="127.19" y="372.507">(fs.writeSync; isTTY-guarded)</text></g><!--link *start* to Active--><g class="link" data-entity-1="ent0004" data-entity-2="ent0001" data-link-type="dependency" data-source-line="12" id="lnk5"><path d="M323.56,66.2779 C323.56,85.8579 323.56,127.3079 323.56,157.6979" fill="none" id="*start*-to-Active" style="stroke:#555555;stroke-width:1.3;"/><polygon fill="#555555" points="323.56,162.6979,327.56,153.6979,323.56,157.6979,319.56,153.6979,323.56,162.6979" style="stroke:#555555;stroke-width:1.3;stroke-linejoin:miter;stroke-miterlimit:10;"/><text fill="#000000" font-family="'Inter, Helvetica, sans-serif'" font-size="13" lengthAdjust="spacing" textLength="22.932" x="407.2596" y="110.9649">init!</text><text fill="#000000" font-family="'Inter, Helvetica, sans-serif'" font-size="13" lengthAdjust="spacing" textLength="188.3312" x="324.56" y="128.6709">(alt-screen + raw + hide cursor)</text></g><!--link Active to Restored--><g class="link" data-entity-1="ent0001" data-entity-2="ent0003" data-link-type="dependency" data-source-line="13" id="lnk6"><path d="M276.18,197.6379 C209.89,204.9379 94.31,221.5979 65.56,251.1979 C46.8,270.5079 43.7231,297.5095 44.2831,319.5695" fill="none" id="Active-to-Restored" style="stroke:#555555;stroke-width:1.3;"/><polygon fill="#555555" points="44.41,324.5679,48.1803,315.4693,44.2831,319.5695,40.1829,315.6723,44.41,324.5679" style="stroke:#555555;stroke-width:1.3;stroke-linejoin:miter;stroke-miterlimit:10;"/><text fill="#000000" font-family="'Inter, Helvetica, sans-serif'" font-size="13" lengthAdjust="spacing" textLength="235.1443" x="66.56" y="266.0949">q / SIGINT&#183;TERM&#183;HUP&#183;QUIT / uncaught</text><text fill="#000000" font-family="'Inter, Helvetica, sans-serif'" font-size="13" lengthAdjust="spacing" textLength="99.1381" x="134.5631" y="283.8009">-&gt; restore! + exit</text></g><!--link Active to Suspended--><g class="link" data-entity-1="ent0001" data-entity-2="ent0002" data-link-type="dependency" data-source-line="14" id="lnk7"><path d="M314.31,221.4679 C309.51,241.8379 307.12,268.9879 320.56,288.1979 C324.18,293.3679 386.9534,315.2966 434.7534,331.4566" fill="none" id="Active-to-Suspended" style="stroke:#555555;stroke-width:1.3;"/><polygon fill="#555555" points="439.49,333.0579,432.2451,326.3862,434.7534,331.4566,429.683,333.9648,439.49,333.0579" style="stroke:#555555;stroke-width:1.3;stroke-linejoin:miter;stroke-miterlimit:10;"/><text fill="#000000" font-family="'Inter, Helvetica, sans-serif'" font-size="13" lengthAdjust="spacing" textLength="50.466" x="371.5385" y="266.0949">SIGTSTP</text><text fill="#000000" font-family="'Inter, Helvetica, sans-serif'" font-size="13" lengthAdjust="spacing" textLength="150.4231" x="321.56" y="283.8009">(leave! + re-raise default)</text></g><!--link Suspended to Active--><g class="link" data-entity-1="ent0002" data-entity-2="ent0001" data-link-type="dependency" data-source-line="15" id="lnk8"><path d="M490.67,324.5379 C492.91,303.0779 492.54,271.9879 476.56,251.1979 C451.46,218.5279 410.632,205.1178 375.672,198.8678" fill="none" id="Suspended-to-Active" style="stroke:#555555;stroke-width:1.3;"/><polygon fill="#555555" points="370.75,197.9879,378.9056,203.5094,375.672,198.8678,380.3135,195.6342,370.75,197.9879" style="stroke:#555555;stroke-width:1.3;stroke-linejoin:miter;stroke-miterlimit:10;"/><text fill="#000000" font-family="'Inter, Helvetica, sans-serif'" font-size="13" lengthAdjust="spacing" textLength="56.485" x="514.349" y="266.0949">SIGCONT</text><text fill="#000000" font-family="'Inter, Helvetica, sans-serif'" font-size="13" lengthAdjust="spacing" textLength="102.3231" x="491.43" y="283.8009">(enter! + repaint)</text></g><!--link Restored to *end*--><g class="link" data-entity-1="ent0003" data-entity-2="ent0009" data-link-type="dependency" data-source-line="16" id="lnk10"><path d="M46.56,375.0879 C46.56,396.4479 46.56,421.4679 46.56,437.0479" fill="none" id="Restored-to-*end*" style="stroke:#555555;stroke-width:1.3;"/><polygon fill="#555555" points="46.56,442.0479,50.56,433.0479,46.56,437.0479,42.56,433.0479,46.56,442.0479" style="stroke:#555555;stroke-width:1.3;stroke-linejoin:miter;stroke-miterlimit:10;"/></g><g class="legend" data-source-line="24"><rect fill="none" height="90.2717" rx="4" ry="4" style="stroke:#000000;stroke-width:1;" width="282.5789" x="308.1742" y="484.3179"/><text fill="#000000" font-family="'Inter, Helvetica, sans-serif'" font-size="14" font-weight="700" lengthAdjust="spacing" textLength="46.0178" x="316.8141" y="506.2839">Colour</text><text fill="#000000" font-family="'Inter, Helvetica, sans-serif'" font-size="14" font-weight="700" lengthAdjust="spacing" textLength="57.3438" x="370.1119" y="506.2839">Concept</text><rect fill="#2D9574" height="19.0679" style="stroke:none;stroke-width:1;" width="53.2978" x="313.1742" y="510.3858"/><text fill="#000000" font-family="'Inter, Helvetica, sans-serif'" font-size="14" lengthAdjust="spacing" textLength="14.5599" x="313.1742" y="525.3518">&#160;&#160;&#160;&#160;</text><text fill="#000000" font-family="'Inter, Helvetica, sans-serif'" font-size="14" lengthAdjust="spacing" textLength="146.9994" x="370.1119" y="525.3518">active (alt-screen, raw)</text><rect fill="#7590DB" height="19.0679" style="stroke:none;stroke-width:1;" width="53.2978" x="313.1742" y="529.4538"/><text fill="#000000" font-family="'Inter, Helvetica, sans-serif'" font-size="14" lengthAdjust="spacing" textLength="14.5599" x="313.1742" y="544.4197">&#160;&#160;&#160;&#160;</text><text fill="#000000" font-family="'Inter, Helvetica, sans-serif'" font-size="14" lengthAdjust="spacing" textLength="138.7255" x="370.1119" y="544.4197">suspended (SIGTSTP)</text><rect fill="#67B11D" height="19.0679" style="stroke:none;stroke-width:1;" width="53.2978" x="313.1742" y="548.5217"/><text fill="#000000" font-family="'Inter, Helvetica, sans-serif'" font-size="14" lengthAdjust="spacing" textLength="14.5599" x="313.1742" y="563.4876">&#160;&#160;&#160;&#160;</text><text fill="#000000" font-family="'Inter, Helvetica, sans-serif'" font-size="14" lengthAdjust="spacing" textLength="212.0012" x="370.1119" y="563.4876">restored (terminal handed back)</text><line style="stroke:#000000;stroke-width:1;" x1="313.1742" x2="585.7531" y1="491.3179" y2="491.3179"/><line style="stroke:#000000;stroke-width:1;" x1="313.1742" x2="585.7531" y1="510.3858" y2="510.3858"/><line style="stroke:#000000;stroke-width:1;" x1="313.1742" x2="585.7531" y1="529.4538" y2="529.4538"/><line style="stroke:#000000;stroke-width:1;" x1="313.1742" x2="585.7531" y1="548.5217" y2="548.5217"/><line style="stroke:#000000;stroke-width:1;" x1="313.1742" x2="585.7531" y1="567.5896" y2="567.5896"/><line style="stroke:#000000;stroke-width:1;" x1="313.1742" x2="313.1742" y1="491.3179" y2="567.5896"/><line style="stroke:#000000;stroke-width:1;" x1="366.4719" x2="366.4719" y1="491.3179" y2="567.5896"/><line style="stroke:#000000;stroke-width:1;" x1="585.7531" x2="585.7531" y1="491.3179" y2="567.5896"/></g><?plantuml-src VLDHJjj04FtVKmmWDKcBALG5H2X8WKGjQXFInAYgIWKRUnolkjvDTzSEaVZe8NgN_ESeFKd7Jkm4jU8ZZhqpxyrxCpkr6lGbL-wc-mbqXWQwQ18kGXXXm5EBmC7HYL1SUb946Cm2YJ3qMtu74Xx4GY5CXOl1Yd6HmqSe9ORW35TMEA6L1Qv2-h5Q3V211qxEFAq218FMQOEWj4CG5XHt8aDmUYt9EawnKF2nuOazXK1BdHfB_mb2P7G2BaQmCJTKSi8bEeTvdRf3Bk4Cg5fEQL25Q8GQxy98fkXbGbCgnMrg9tait8MnGLHqHFwuahDINTZOOrj21J8D4UwopAE22Uw9D96CEU6e6_TP1fxdKd5VzGhMlVhpwpTmwJmR50KikdHITEH_lM1iwNYxLGY_LVLAUcCRk8NbEGmwlNPdq1dS-LSzlyGCIpD5PlK5hNw_VV4aSx3oLYIM7z1j3Jwshx_qbgdisyllPEkyBDa4eOJR8aaRRbw1uLDwneAw4z1aj6cm5I37LjnD-0clONZrdgWNSxypw2xc7sxwY_ddcokV8gcYwpQEtQqYrAePMqIC3y9j4gvTDNCsV-ZtIH6DB2lI3Ng62xgs8KOybQx1re0dNWXxUTtp2OkAXhR4JhXG1Ab4vmZg0cF53JM2z86EAbCCrahf-cxEiqan6-lfgYUmc4EXSVCcq5dUF1r5b5oFxDxK28V3cGfEYSxtlthZb1jItc1aeDWInYIEyuz22y4Up-2oM8db6rMUE7ZC0-zsthHF3e_Vdh_OEJZQF_tt-LWknyOyTtD5ZPBW-F1alttn346rFL1VpQB27XrV71oqdy6MwvMlwcfdObvmZNZm8-SXvgNRlm00?></g></svg>