<svg xmlns="http://www.w3.org/2000/svg" xmlns:xlink="http://www.w3.org/1999/xlink" contentStyleType="text/css" data-diagram-type="DESCRIPTION" height="2087px" preserveAspectRatio="none" style="width:517px;height:2087px;background:#FBF8EF;" version="1.1" viewBox="0 0 517 2087" width="517px" zoomAndPan="magnify"><?plantuml $version$?><defs/><g><rect fill="#FBF8EF" height="2087" style="stroke:none;stroke-width:1;" width="517" x="0" y="0"/><!--cluster VV--><g class="cluster" data-qualified-name="VV" data-source-line="28" id="ent0002"><rect fill="none" height="1873" rx="4" ry="4" style="stroke:#888888;stroke-width:1;" width="355.1" x="148.71" y="85.56"/><text fill="#000000" font-family="'Inter, Helvetica, sans-serif'" font-size="14" font-weight="700" lengthAdjust="spacing" textLength="95.5357" x="278.4922" y="102.5259">vinary-viewer</text></g><!--cluster Now--><g class="cluster" data-qualified-name="VV.Now" data-source-line="30" id="ent0003"><rect fill="none" height="1649" rx="4" ry="4" style="stroke:#1F6B53;stroke-width:1;" width="292.87" x="179.82" y="285.56"/><text fill="#000000" font-family="'Inter, Helvetica, sans-serif'" font-size="14" font-weight="700" lengthAdjust="spacing" textLength="97.6636" x="277.4232" y="302.5259">Available now</text></g><!--cluster Soon--><g class="cluster" data-qualified-name="VV.Soon" data-source-line="51" id="ent0022"><rect fill="none" height="130" rx="4" ry="4" style="stroke:#999999;stroke-width:1;stroke-dasharray:7,7;" width="307.1" x="172.71" y="131.56"/><text fill="#000000" font-family="'Inter, Helvetica, sans-serif'" font-size="14" font-weight="700" lengthAdjust="spacing" textLength="159.5714" x="246.4743" y="148.5259">Forthcoming (planned)</text></g><!--entity UC_open--><g class="entity" data-qualified-name="VV.Now.UC_open" data-source-line="31" id="ent0004"><ellipse cx="326.2583" cy="1795.5597" fill="#2D9574" rx="129.9483" ry="28.3897" style="stroke:#1F6B53;stroke-width:0.5;"/><text fill="#1A1A1A" font-family="'Inter, Helvetica, sans-serif'" font-size="14" lengthAdjust="spacing" textLength="123.7175" x="264.3996" y="1788.9561">Open a file in a tab</text><text fill="#1A1A1A" font-family="'Inter, Helvetica, sans-serif'" font-size="14" lengthAdjust="spacing" textLength="197.4272" x="227.5447" y="1808.024">(`vv README.md`, click in tree)</text></g><!--entity UC_md--><g class="entity" data-qualified-name="VV.Now.UC_md" data-source-line="32" id="ent0005"><ellipse cx="326.2632" cy="1703.5566" fill="#2D9574" rx="112.7932" ry="28.6366" style="stroke:#1F6B53;stroke-width:0.5;"/><text fill="#1A1A1A" font-family="'Inter, Helvetica, sans-serif'" font-size="14" lengthAdjust="spacing" textLength="125.9575" x="263.2845" y="1698.1249">Preview Markdown</text><text fill="#1A1A1A" font-family="'Inter, Helvetica, sans-serif'" font-size="14" lengthAdjust="spacing" textLength="163.3234" x="244.6015" y="1717.1928">(GFM + math + Mermaid)</text></g><!--entity UC_live--><g class="entity" data-qualified-name="VV.Now.UC_live" data-source-line="33" id="ent0006"><ellipse cx="326.262" cy="1888.5581" fill="#2D9574" rx="94.502" ry="29.6181" style="stroke:#1F6B53;stroke-width:0.5;"/><text fill="#1A1A1A" font-family="'Inter, Helvetica, sans-serif'" font-size="14" lengthAdjust="spacing" textLength="131.0955" x="260.7143" y="1885.5535">Live refresh on save</text><text fill="#1A1A1A" font-family="'Inter, Helvetica, sans-serif'" font-size="14" lengthAdjust="spacing" textLength="124.0955" x="264.2143" y="1904.6215">(no scroll/find loss)</text></g><!--entity UC_tabs--><g class="entity" data-qualified-name="VV.Now.UC_tabs" data-source-line="34" id="ent0007"><ellipse cx="326.2622" cy="1620.5624" fill="#2D9574" rx="87.1122" ry="19.8224" style="stroke:#1F6B53;stroke-width:0.5;"/><text fill="#1A1A1A" font-family="'Inter, Helvetica, sans-serif'" font-size="14" lengthAdjust="spacing" textLength="138.5995" x="256.9625" y="1626.5964">Browse multiple tabs</text></g><!--entity UC_img--><g class="entity" data-qualified-name="VV.Now.UC_img" data-source-line="35" id="ent0008"><ellipse cx="326.2637" cy="1538.56" fill="#2D9574" rx="64.2937" ry="27.41" style="stroke:#1F6B53;stroke-width:0.5;"/><text fill="#1A1A1A" font-family="'Inter, Helvetica, sans-serif'" font-size="14" lengthAdjust="spacing" textLength="95.7596" x="278.3839" y="1538.8878">View an image</text><text fill="#1A1A1A" font-family="'Inter, Helvetica, sans-serif'" font-size="14" lengthAdjust="spacing" textLength="42.5038" x="305.0118" y="1557.9557">(file://)</text></g><!--entity UC_text--><g class="entity" data-qualified-name="VV.Now.UC_text" data-source-line="36" id="ent0009"><ellipse cx="326.2591" cy="1446.5606" fill="#2D9574" rx="75.4691" ry="29.4406" style="stroke:#1F6B53;stroke-width:0.5;"/><text fill="#1A1A1A" font-family="'Inter, Helvetica, sans-serif'" font-size="14" lengthAdjust="spacing" textLength="95.9416" x="278.2883" y="1442.31">View plain text</text><text fill="#1A1A1A" font-family="'Inter, Helvetica, sans-serif'" font-size="14" lengthAdjust="spacing" textLength="104.5236" x="273.9973" y="1461.3779">(escaped HTML)</text></g><!--entity UC_pdf--><g class="entity" data-qualified-name="VV.Now.UC_pdf" data-source-line="37" id="ent0010"><ellipse cx="326.2649" cy="1354.5587" fill="#2D9574" rx="112.4949" ry="27.2787" style="stroke:#1F6B53;stroke-width:0.5;"/><text fill="#1A1A1A" font-family="'Inter, Helvetica, sans-serif'" font-size="14" lengthAdjust="spacing" textLength="67.2137" x="292.658" y="1347.0198">View PDFs</text><text fill="#1A1A1A" font-family="'Inter, Helvetica, sans-serif'" font-size="14" lengthAdjust="spacing" textLength="171.9893" x="240.2702" y="1366.0877">(native WebContentsView)</text></g><!--entity UC_mermaid--><g class="entity" data-qualified-name="VV.Now.UC_mermaid" data-source-line="38" id="ent0011"><ellipse cx="326.2643" cy="1262.5649" fill="#2D9574" rx="127.3243" ry="29.8649" style="stroke:#1F6B53;stroke-width:0.5;"/><text fill="#1A1A1A" font-family="'Inter, Helvetica, sans-serif'" font-size="14" lengthAdjust="spacing" textLength="176.4833" x="238.0227" y="1259.2083">Render Mermaid diagrams</text><text fill="#1A1A1A" font-family="'Inter, Helvetica, sans-serif'" font-size="14" lengthAdjust="spacing" textLength="173.8093" x="239.3597" y="1278.2762">(fences + .mmd/.mermaid)</text></g><!--entity UC_src--><g class="entity" data-qualified-name="VV.Now.UC_src" data-source-line="39" id="ent0012"><ellipse cx="326.2586" cy="1168.56" fill="#2D9574" rx="114.1986" ry="28.72" style="stroke:#1F6B53;stroke-width:0.5;"/><text fill="#1A1A1A" font-family="'Inter, Helvetica, sans-serif'" font-size="14" lengthAdjust="spacing" textLength="129.9195" x="261.2989" y="1163.2529">Preview source files</text><text fill="#1A1A1A" font-family="'Inter, Helvetica, sans-serif'" font-size="14" lengthAdjust="spacing" textLength="164.8774" x="243.8199" y="1182.3208">(CodeMirror + tree-sitter)</text></g><!--entity UC_gram--><g class="entity" data-qualified-name="VV.Now.UC_gram" data-source-line="40" id="ent0013"><ellipse cx="326.26" cy="1075.5561" fill="#2D9574" rx="107.72" ry="29.3761" style="stroke:#1F6B53;stroke-width:0.5;"/><text fill="#1A1A1A" font-family="'Inter, Helvetica, sans-serif'" font-size="14" lengthAdjust="spacing" textLength="137.3535" x="257.5832" y="1071.2121">Load user grammars</text><text fill="#1A1A1A" font-family="'Inter, Helvetica, sans-serif'" font-size="14" lengthAdjust="spacing" textLength="151.4094" x="250.5553" y="1090.28">(/.config/vinary-viewer)</text></g><!--entity UC_keys--><g class="entity" data-qualified-name="VV.Now.UC_keys" data-source-line="41" id="ent0014"><ellipse cx="326.2616" cy="982.5633" fill="#2D9574" rx="130.4316" ry="29.1133" style="stroke:#1F6B53;stroke-width:0.5;"/><text fill="#1A1A1A" font-family="'Inter, Helvetica, sans-serif'" font-size="14" lengthAdjust="spacing" textLength="160.3834" x="246.0699" y="977.8368">Use custom keybindings</text><text fill="#1A1A1A" font-family="'Inter, Helvetica, sans-serif'" font-size="14" lengthAdjust="spacing" textLength="186.1013" x="233.2109" y="996.9047">(default/vim/emacs + editor)</text></g><!--entity UC_http--><g class="entity" data-qualified-name="VV.Now.UC_http" data-source-line="42" id="ent0015"><ellipse cx="326.2557" cy="888.56" fill="#2D9574" rx="82.9157" ry="29.58" style="stroke:#1F6B53;stroke-width:0.5;"/><text fill="#1A1A1A" font-family="'Inter, Helvetica, sans-serif'" font-size="14" lengthAdjust="spacing" textLength="107.8416" x="272.3349" y="884.5099">Open HTTP links</text><text fill="#1A1A1A" font-family="'Inter, Helvetica, sans-serif'" font-size="14" lengthAdjust="spacing" textLength="114.6595" x="268.9259" y="903.5779">(in-app web view)</text></g><!--entity UC_find--><g class="entity" data-qualified-name="VV.Now.UC_find" data-source-line="43" id="ent0016"><ellipse cx="326.2635" cy="795.5555" fill="#2D9574" rx="81.5235" ry="28.2155" style="stroke:#1F6B53;stroke-width:0.5;"/><text fill="#1A1A1A" font-family="'Inter, Helvetica, sans-serif'" font-size="14" lengthAdjust="spacing" textLength="80.6537" x="285.9367" y="789.4872">Find in page</text><text fill="#1A1A1A" font-family="'Inter, Helvetica, sans-serif'" font-size="14" lengthAdjust="spacing" textLength="118.7585" x="266.8842" y="808.5551">(Ctrl+F, &#8593;/&#8595; cycle)</text></g><!--entity UC_hist--><g class="entity" data-qualified-name="VV.Now.UC_hist" data-source-line="44" id="ent0017"><ellipse cx="326.2568" cy="704.5578" fill="#2D9574" rx="73.1368" ry="27.8378" style="stroke:#1F6B53;stroke-width:0.5;"/><text fill="#1A1A1A" font-family="'Inter, Helvetica, sans-serif'" font-size="14" lengthAdjust="spacing" textLength="107.6876" x="272.413" y="704.2093">Navigate history</text><text fill="#1A1A1A" font-family="'Inter, Helvetica, sans-serif'" font-size="14" lengthAdjust="spacing" textLength="62.6888" x="294.9124" y="723.2773">(Alt+&#8592;/&#8594;)</text></g><!--entity UC_toc--><g class="entity" data-qualified-name="VV.Now.UC_toc" data-source-line="45" id="ent0018"><ellipse cx="326.2563" cy="614.5601" fill="#2D9574" rx="114.9463" ry="27.3001" style="stroke:#1F6B53;stroke-width:0.5;"/><text fill="#1A1A1A" font-family="'Inter, Helvetica, sans-serif'" font-size="14" lengthAdjust="spacing" textLength="175.6853" x="238.4137" y="615.0645">Jump via Table of Contents</text><text fill="#1A1A1A" font-family="'Inter, Helvetica, sans-serif'" font-size="14" lengthAdjust="spacing" textLength="70.2657" x="291.1235" y="634.1324">(scroll-spy)</text></g><!--entity UC_theme--><g class="entity" data-qualified-name="VV.Now.UC_theme" data-source-line="46" id="ent0019"><ellipse cx="326.2623" cy="523.5569" fill="#2D9574" rx="79.9523" ry="28.5569" style="stroke:#1F6B53;stroke-width:0.5;"/><text fill="#1A1A1A" font-family="'Inter, Helvetica, sans-serif'" font-size="14" lengthAdjust="spacing" textLength="114.8275" x="268.8486" y="522.108">Switch theme live</text><text fill="#1A1A1A" font-family="'Inter, Helvetica, sans-serif'" font-size="14" lengthAdjust="spacing" textLength="86.6722" x="282.9262" y="541.176">(dark &#8646; light)</text></g><!--entity UC_tree--><g class="entity" data-qualified-name="VV.Now.UC_tree" data-source-line="47" id="ent0020"><ellipse cx="326.2567" cy="432.556" fill="#2D9574" rx="81.9167" ry="27.326" style="stroke:#1F6B53;stroke-width:0.5;"/><text fill="#1A1A1A" font-family="'Inter, Helvetica, sans-serif'" font-size="14" lengthAdjust="spacing" textLength="123.7175" x="264.398" y="433.0186">Browse git file tree</text><text fill="#1A1A1A" font-family="'Inter, Helvetica, sans-serif'" font-size="14" lengthAdjust="spacing" textLength="50.8198" x="300.8468" y="452.0866">(+ filter)</text></g><!--entity UC_mark--><g class="entity" data-qualified-name="VV.Now.UC_mark" data-source-line="48" id="ent0021"><ellipse cx="326.2591" cy="346.5638" fill="#2D9574" rx="105.4691" ry="23.4938" style="stroke:#1F6B53;stroke-width:0.5;"/><text fill="#1A1A1A" font-family="'Inter, Helvetica, sans-serif'" font-size="14" lengthAdjust="spacing" textLength="181.4113" x="235.5535" y="352.5978">See empty-state watermark</text></g><!--entity UC_diag--><g class="entity" data-qualified-name="VV.Soon.UC_diag" data-source-line="52" id="ent0023"><ellipse cx="326.2597" cy="207.5615" fill="#DDDDDD" rx="137.5497" ry="38.1515" style="stroke:#999999;stroke-width:0.5;stroke-dasharray:7,7;"/><text fill="#555555" font-family="'Inter, Helvetica, sans-serif'" font-size="14" font-style="italic" lengthAdjust="spacing" textLength="64.3298" x="294.0948" y="188.9971">&#171;planned&#187;</text><text fill="#555555" font-family="'Inter, Helvetica, sans-serif'" font-size="14" lengthAdjust="spacing" textLength="218.9592" x="216.7801" y="208.065">Render external diagram sources</text><text fill="#555555" font-family="'Inter, Helvetica, sans-serif'" font-size="14" lengthAdjust="spacing" textLength="203.0257" x="224.7469" y="227.1329">(d2/PlantUML/Graphviz &#8594; SVG)</text></g><!--entity User--><g class="entity" data-qualified-name="User" data-source-line="26" id="ent0001"><ellipse cx="64.2398" cy="1042.49" fill="#9F8766" rx="16" ry="16" style="stroke:#181818;stroke-width:0.5;"/><path d="M64.2398,1062.49 C68.2398,1062.49 71.2398,1062.49 75.2398,1058.49 C83.2398,1058.49 91.2398,1066.49 91.2398,1074.49 L91.2398,1078.49 C91.2398,1082.49 87.2398,1086.49 83.2398,1086.49 L45.2398,1086.49 C41.2398,1086.49 37.2398,1082.49 37.2398,1078.49 L37.2398,1074.49 C37.2398,1066.49 45.2398,1058.49 53.2398,1058.49 C57.2398,1062.49 60.2398,1062.49 64.2398,1062.49" fill="#9F8766" style="stroke:#181818;stroke-width:0.5;"/><text fill="#000000" font-family="'Inter, Helvetica, sans-serif'" font-size="14" lengthAdjust="spacing" textLength="30.6179" x="6" y="1101.9559">User</text><text fill="#000000" font-family="'Inter, Helvetica, sans-serif'" font-size="14" lengthAdjust="spacing" textLength="116.4796" x="6" y="1121.0239">(reads/edits docs)</text></g><g class="entity" data-qualified-name="GMN43" data-source-line="77" id="ent0044"><path d="M182.48,10 L182.48,65.118 A4,4 0 0 0 186.48,69.118 L466.0322,69.118 A4,4 0 0 0 470.0322,65.118 L470.0322,16 L460.0322,6 L186.48,6 A4,4 0 0 0 182.48,10" fill="#FFF6D6" style="stroke:#7F6B14;stroke-width:0.5;"/><path d="M460.0322,6 L460.0322,14 A2,2 0 0 0 462.0322,16 L470.0322,16 L460.0322,6" fill="#FFF6D6" style="stroke:#7F6B14;stroke-width:1;"/><text fill="#000000" font-family="'Inter, Helvetica, sans-serif'" font-size="13" lengthAdjust="spacing" textLength="264.8622" x="188.48" y="24.897">Flagship capability: a file change re-renders</text><text fill="#000000" font-family="'Inter, Helvetica, sans-serif'" font-size="13" lengthAdjust="spacing" textLength="266.5522" x="188.48" y="42.603">document content in DataScript, while tabs,</text><text fill="#000000" font-family="'Inter, Helvetica, sans-serif'" font-size="13" lengthAdjust="spacing" textLength="229.5542" x="188.48" y="60.309">scroll, find, and theme stay in app-db.</text></g><!--link User to UC_open--><g class="link" data-entity-1="ent0001" data-entity-2="ent0004" data-link-type="dependency" data-source-line="56" id="lnk24"><path d="M67.58,1125.59 C74.97,1273.74 99.72,1702.74 140.71,1749.56 C156.8,1767.95 174.2302,1778.0824 197.6802,1785.2824" fill="none" id="User-to-UC_open" style="stroke:#555555;stroke-width:1.3;"/><polygon fill="#555555" points="202.46,1786.75,195.0305,1780.2846,197.6802,1785.2824,192.6824,1787.9322,202.46,1786.75" style="stroke:#555555;stroke-width:1.3;stroke-linejoin:miter;stroke-miterlimit:10;"/></g><!--link User to UC_md--><g class="link" data-entity-1="ent0001" data-entity-2="ent0005" data-link-type="dependency" data-source-line="57" id="lnk25"><path d="M64.76,1125.44 C64.6,1251.69 71.07,1579.39 140.71,1657.56 C159.81,1679.01 182.3898,1690.0159 210.2898,1696.7559" fill="none" id="User-to-UC_md" style="stroke:#555555;stroke-width:1.3;"/><polygon fill="#555555" points="215.15,1697.93,207.3409,1691.9284,210.2898,1696.7559,205.4624,1699.7048,215.15,1697.93" style="stroke:#555555;stroke-width:1.3;stroke-linejoin:miter;stroke-miterlimit:10;"/></g><!--link User to UC_live--><g class="link" data-entity-1="ent0001" data-entity-2="ent0006" data-link-type="dependency" data-source-line="58" id="lnk26"><path d="M66.87,1125.42 C72.61,1286.74 94.03,1787.24 140.71,1841.56 C163.33,1867.89 193.5119,1879.6854 227.0619,1885.4354" fill="none" id="User-to-UC_live" style="stroke:#555555;stroke-width:1.3;"/><polygon fill="#555555" points="231.99,1886.28,223.795,1880.8172,227.0619,1885.4354,222.4436,1888.7022,231.99,1886.28" style="stroke:#555555;stroke-width:1.3;stroke-linejoin:miter;stroke-miterlimit:10;"/></g><!--link User to UC_tabs--><g class="link" data-entity-1="ent0001" data-entity-2="ent0007" data-link-type="dependency" data-source-line="59" id="lnk27"><path d="M65.62,1125.55 C67.57,1240.43 78.73,1518.38 140.71,1583.56 C166.04,1610.2 199.771,1620.1119 235.201,1623.3719" fill="none" id="User-to-UC_tabs" style="stroke:#555555;stroke-width:1.3;"/><polygon fill="#555555" points="240.18,1623.83,231.5844,1619.0222,235.201,1623.3719,230.8514,1626.9885,240.18,1623.83" style="stroke:#555555;stroke-width:1.3;stroke-linejoin:miter;stroke-miterlimit:10;"/></g><!--link User to UC_img--><g class="link" data-entity-1="ent0001" data-entity-2="ent0008" data-link-type="dependency" data-source-line="60" id="lnk28"><path d="M67.59,1125.39 C73.3,1224.42 91.24,1441 140.71,1493.56 C171.45,1526.22 216.6222,1536.5307 256.8922,1539.3507" fill="none" id="User-to-UC_img" style="stroke:#555555;stroke-width:1.3;"/><polygon fill="#555555" points="261.88,1539.7,253.1814,1535.0811,256.8922,1539.3507,252.6226,1543.0615,261.88,1539.7" style="stroke:#555555;stroke-width:1.3;stroke-linejoin:miter;stroke-miterlimit:10;"/></g><!--link User to UC_text--><g class="link" data-entity-1="ent0001" data-entity-2="ent0009" data-link-type="dependency" data-source-line="61" id="lnk29"><path d="M70.53,1125.4 C80.13,1206.3 102.97,1361.04 140.71,1399.56 C169.17,1428.61 207.917,1439.9825 245.657,1444.6025" fill="none" id="User-to-UC_text" style="stroke:#555555;stroke-width:1.3;"/><polygon fill="#555555" points="250.62,1445.21,242.1727,1440.1461,245.657,1444.6025,241.2006,1448.0868,250.62,1445.21" style="stroke:#555555;stroke-width:1.3;stroke-linejoin:miter;stroke-miterlimit:10;"/></g><!--link User to UC_pdf--><g class="link" data-entity-1="ent0001" data-entity-2="ent0010" data-link-type="dependency" data-source-line="62" id="lnk30"><path d="M67.56,1125.55 C72.78,1178.76 89.28,1261.75 140.71,1309.56 C161.72,1329.1 184.895,1339.3961 212.765,1346.0061" fill="none" id="User-to-UC_pdf" style="stroke:#555555;stroke-width:1.3;"/><polygon fill="#555555" points="217.63,1347.16,209.796,1341.191,212.765,1346.0061,207.9498,1348.9751,217.63,1347.16" style="stroke:#555555;stroke-width:1.3;stroke-linejoin:miter;stroke-miterlimit:10;"/></g><!--link User to UC_mermaid--><g class="link" data-entity-1="ent0001" data-entity-2="ent0011" data-link-type="dependency" data-source-line="63" id="lnk31"><path d="M80.84,1125.4 C92.7,1155.42 111.94,1192.06 140.71,1214.56 C161.43,1230.78 182.2755,1240.2006 207.7855,1247.3506" fill="none" id="User-to-UC_mermaid" style="stroke:#555555;stroke-width:1.3;"/><polygon fill="#555555" points="212.6,1248.7,205.0135,1242.4195,207.7855,1247.3506,202.8544,1250.1226,212.6,1248.7" style="stroke:#555555;stroke-width:1.3;stroke-linejoin:miter;stroke-miterlimit:10;"/></g><!--link User to UC_src--><g class="link" data-entity-1="ent0001" data-entity-2="ent0012" data-link-type="dependency" data-source-line="64" id="lnk32"><path d="M122.76,1113.88 C128.69,1117.07 134.74,1120.03 140.71,1122.56 C169.9,1134.92 198.2738,1143.3312 228.4338,1150.4512" fill="none" id="User-to-UC_src" style="stroke:#555555;stroke-width:1.3;"/><polygon fill="#555555" points="233.3,1151.6,225.4598,1145.6392,228.4338,1150.4512,223.6217,1153.4252,233.3,1151.6" style="stroke:#555555;stroke-width:1.3;stroke-linejoin:miter;stroke-miterlimit:10;"/></g><!--link User to UC_gram--><g class="link" data-entity-1="ent0001" data-entity-2="ent0013" data-link-type="dependency" data-source-line="65" id="lnk33"><path d="M122.95,1075.56 C151,1075.56 180.64,1075.56 213.27,1075.56" fill="none" id="User-to-UC_gram" style="stroke:#555555;stroke-width:1.3;"/><polygon fill="#555555" points="218.27,1075.56,209.27,1071.56,213.27,1075.56,209.27,1079.56,218.27,1075.56" style="stroke:#555555;stroke-width:1.3;stroke-linejoin:miter;stroke-miterlimit:10;"/></g><!--link User to UC_keys--><g class="link" data-entity-1="ent0001" data-entity-2="ent0014" data-link-type="dependency" data-source-line="66" id="lnk34"><path d="M122.76,1037.24 C128.69,1034.05 134.74,1031.09 140.71,1028.56 C167.46,1017.23 192.7745,1009.4435 220.8445,1002.5435" fill="none" id="User-to-UC_keys" style="stroke:#555555;stroke-width:1.3;"/><polygon fill="#555555" points="225.7,1001.35,216.0053,999.614,220.8445,1002.5435,217.915,1007.3827,225.7,1001.35" style="stroke:#555555;stroke-width:1.3;stroke-linejoin:miter;stroke-miterlimit:10;"/></g><!--link User to UC_http--><g class="link" data-entity-1="ent0001" data-entity-2="ent0015" data-link-type="dependency" data-source-line="67" id="lnk35"><path d="M80.58,1025.65 C92.38,995.34 111.65,958.24 140.71,935.56 C170.28,912.47 204.983,901.4615 239.933,895.4215" fill="none" id="User-to-UC_http" style="stroke:#555555;stroke-width:1.3;"/><polygon fill="#555555" points="244.86,894.57,235.3103,892.1611,239.933,895.4215,236.6726,900.0442,244.86,894.57" style="stroke:#555555;stroke-width:1.3;stroke-linejoin:miter;stroke-miterlimit:10;"/></g><!--link User to UC_find--><g class="link" data-entity-1="ent0001" data-entity-2="ent0016" data-link-type="dependency" data-source-line="68" id="lnk36"><path d="M67.61,1025.62 C72.87,972.45 89.4,889.5 140.71,841.56 C168.57,815.52 203.9122,804.3308 239.7422,799.1108" fill="none" id="User-to-UC_find" style="stroke:#555555;stroke-width:1.3;"/><polygon fill="#555555" points="244.69,798.39,235.2074,795.7293,239.7422,799.1108,236.3607,803.6457,244.69,798.39" style="stroke:#555555;stroke-width:1.3;stroke-linejoin:miter;stroke-miterlimit:10;"/></g><!--link User to UC_hist--><g class="link" data-entity-1="ent0001" data-entity-2="ent0017" data-link-type="dependency" data-source-line="69" id="lnk37"><path d="M70.41,1025.7 C79.86,944.33 102.52,788.19 140.71,749.56 C169.8,720.12 209.7466,709.245 247.9866,705.285" fill="none" id="User-to-UC_hist" style="stroke:#555555;stroke-width:1.3;"/><polygon fill="#555555" points="252.96,704.77,243.5959,701.7183,247.9866,705.285,244.4199,709.6758,252.96,704.77" style="stroke:#555555;stroke-width:1.3;stroke-linejoin:miter;stroke-miterlimit:10;"/></g><!--link User to UC_toc--><g class="link" data-entity-1="ent0001" data-entity-2="ent0018" data-link-type="dependency" data-source-line="70" id="lnk38"><path d="M67.65,1025.59 C73.44,926.85 91.51,711.79 140.71,659.56 C159.93,639.16 181.874,628.5313 209.104,621.8513" fill="none" id="User-to-UC_toc" style="stroke:#555555;stroke-width:1.3;"/><polygon fill="#555555" points="213.96,620.66,204.2662,618.9195,209.104,621.8513,206.1722,626.6891,213.96,620.66" style="stroke:#555555;stroke-width:1.3;stroke-linejoin:miter;stroke-miterlimit:10;"/></g><!--link User to UC_theme--><g class="link" data-entity-1="ent0001" data-entity-2="ent0019" data-link-type="dependency" data-source-line="71" id="lnk39"><path d="M65.86,1025.53 C68.34,911.25 80.55,635.81 140.71,569.56 C167.12,540.47 203.8964,529.0921 240.9964,524.5921" fill="none" id="User-to-UC_theme" style="stroke:#555555;stroke-width:1.3;"/><polygon fill="#555555" points="245.96,523.99,236.5438,521.1028,240.9964,524.5921,237.5071,529.0446,245.96,523.99" style="stroke:#555555;stroke-width:1.3;stroke-linejoin:miter;stroke-miterlimit:10;"/></g><!--link User to UC_tree--><g class="link" data-entity-1="ent0001" data-entity-2="ent0020" data-link-type="dependency" data-source-line="72" id="lnk40"><path d="M64.54,1025.71 C63.8,897.01 68.86,558.08 140.71,477.56 C166.51,448.65 202.5349,437.3894 239.3449,433.0194" fill="none" id="User-to-UC_tree" style="stroke:#555555;stroke-width:1.3;"/><polygon fill="#555555" points="244.31,432.43,234.9012,429.5189,239.3449,433.0194,235.8443,437.4631,244.31,432.43" style="stroke:#555555;stroke-width:1.3;stroke-linejoin:miter;stroke-miterlimit:10;"/></g><!--link User to UC_mark--><g class="link" data-entity-1="ent0001" data-entity-2="ent0021" data-link-type="dependency" data-source-line="73" id="lnk41"><path d="M67.41,1025.51 C74.37,875.17 98.23,434.96 140.71,387.56 C161.08,364.83 186.0854,354.1203 215.9354,348.5303" fill="none" id="User-to-UC_mark" style="stroke:#555555;stroke-width:1.3;"/><polygon fill="#555555" points="220.85,347.61,211.2675,345.335,215.9354,348.5303,212.7401,353.1983,220.85,347.61" style="stroke:#555555;stroke-width:1.3;stroke-linejoin:miter;stroke-miterlimit:10;"/></g><!--link User to UC_diag--><g class="link" data-entity-1="ent0001" data-entity-2="ent0023" data-link-type="dependency" data-source-line="74" id="lnk42"><path d="M67.44,1025.71 C74.9,864.99 101.01,367.34 140.71,307.56 C162.58,274.62 194.4954,253.6808 229.2754,238.1308" fill="none" id="User-to-UC_diag" style="stroke:#555555;stroke-width:1.3;stroke-dasharray:7,7;"/><polygon fill="#555555" points="233.84,236.09,223.9912,236.1118,229.2754,238.1308,227.2564,243.4151,233.84,236.09" style="stroke:#555555;stroke-width:1.3;stroke-linejoin:miter;stroke-miterlimit:10;"/></g><!--link UC_live to GMN43--><g class="link" data-entity-1="ent0006" data-entity-2="ent0044" data-link-type="association" data-source-line="77" id="lnk45"><path d="M231.38,1888.83 C187.16,1883.08 141.98,1866.51 131.59,1824.06 C120.68,1779.46 120.68,215.66 131.59,171.06 C143.38,122.9 187.52,90.44 230.78,69.6" fill="none" id="UC_live-GMN43" style="stroke:#555555;stroke-width:1.3;stroke-dasharray:7,7;"/></g><g class="legend" data-source-line="82"><rect fill="none" height="90.2717" rx="4" ry="4" style="stroke:#000000;stroke-width:1;" width="362.2666" x="136.5434" y="1978.56"/><text fill="#000000" font-family="'Inter, Helvetica, sans-serif'" font-size="14" font-weight="700" lengthAdjust="spacing" textLength="46.0178" x="145.1834" y="2000.5259">Colour</text><text fill="#000000" font-family="'Inter, Helvetica, sans-serif'" font-size="14" font-weight="700" lengthAdjust="spacing" textLength="57.3438" x="198.4811" y="2000.5259">Concept</text><rect fill="#2D9574" height="19.0679" style="stroke:none;stroke-width:1;" width="53.2978" x="141.5434" y="2004.6279"/><text fill="#000000" font-family="'Inter, Helvetica, sans-serif'" font-size="14" lengthAdjust="spacing" textLength="3.64" x="141.5434" y="2019.5939">&#160;</text><text fill="#000000" font-family="'Inter, Helvetica, sans-serif'" font-size="14" lengthAdjust="spacing" textLength="261.309" x="198.4811" y="2019.5939">Available now (renderer-served feature)</text><rect fill="#DDDDDD" height="19.0679" style="stroke:none;stroke-width:1;" width="53.2978" x="141.5434" y="2023.6958"/><text fill="#000000" font-family="'Inter, Helvetica, sans-serif'" font-size="14" lengthAdjust="spacing" textLength="3.64" x="141.5434" y="2038.6618">&#160;</text><text fill="#000000" font-family="'Inter, Helvetica, sans-serif'" font-size="14" lengthAdjust="spacing" textLength="291.6888" x="198.4811" y="2038.6618">Forthcoming (planned) &#8212; dashed &#171;planned&#187;</text><rect fill="#9F8766" height="19.0679" style="stroke:none;stroke-width:1;" width="53.2978" x="141.5434" y="2042.7638"/><text fill="#000000" font-family="'Inter, Helvetica, sans-serif'" font-size="14" lengthAdjust="spacing" textLength="3.64" x="141.5434" y="2057.7297">&#160;</text><text fill="#000000" font-family="'Inter, Helvetica, sans-serif'" font-size="14" lengthAdjust="spacing" textLength="184.3933" x="198.4811" y="2057.7297">User actor (reads/edits files)</text><line style="stroke:#000000;stroke-width:1;" x1="141.5434" x2="493.81" y1="1985.56" y2="1985.56"/><line style="stroke:#000000;stroke-width:1;" x1="141.5434" x2="493.81" y1="2004.6279" y2="2004.6279"/><line style="stroke:#000000;stroke-width:1;" x1="141.5434" x2="493.81" y1="2023.6958" y2="2023.6958"/><line style="stroke:#000000;stroke-width:1;" x1="141.5434" x2="493.81" y1="2042.7638" y2="2042.7638"/><line style="stroke:#000000;stroke-width:1;" x1="141.5434" x2="493.81" y1="2061.8317" y2="2061.8317"/><line style="stroke:#000000;stroke-width:1;" x1="141.5434" x2="141.5434" y1="1985.56" y2="2061.8317"/><line style="stroke:#000000;stroke-width:1;" x1="194.8412" x2="194.8412" y1="1985.56" y2="2061.8317"/><line style="stroke:#000000;stroke-width:1;" x1="493.81" x2="493.81" y1="1985.56" y2="2061.8317"/></g><?plantuml-src RLRDRjj64BxpAIRsmJQi7pHfaiPn33YsbRJm7sp5lHH8LkHAN8Za4hihocgIeYVtsgPzXbxw2BtbKVma_MP9KQGh1uZDsPdP-VdccztQeij4PExTsIdfGXewaoOLAgAH3CNColex5fOoJMDbhEk6YR2MSDmD1NGY9IP6f2zNhb8ToSII29qsjXDiRT7sKdi7zuZ4TiWkh9CfZVGiYuHPa96X4zaaaJWJMKHV_ydXBfFHrty9caPgjyYbfRboCUNITCTIk9cH5Ef4pmmSQhued1aZC-TTZ6UbWiZ5I2NAAPWRAI8IEAS9t8UIL4OkbcH5Af6X4qxfZ90j2usqZlIuL9Wf9tl18vM5oIoIzBuekf2digTcQHBmtUSNmvCzUXJ9iSgMSL4gGgCjRL-Td1-VN9rSlJ-wEBsuwj3zht_laBpDEL2T9Gi4OXNysgdASe5wqYZHuTJwJFRtDxtPmG7V8upHSnHbWMAzv0H6miYvDX5jb6eRtcXZCq4SUvKarrPnRdRLfapAg4pqzFlXoTNXASNobWl9Chue5ubqJh8OfSCbD3SAWepqp45gP8-6iLpu8tcBVYCFzjSk3g7ZCpZOTb8ajFdu-CNJvz_IAvGtY-33U8IW-RJvOl3TysVFS3HMoCqZf0_aeBiJWsisZ_rFV_E5_u5U0oKxlM1LEnXvR7uCY5wBS3enZBCZjCGi0-0Jr4oQIlhDuDdhfqyW7UZCBMM7_2_up056miOoAWDfWhCGHg6WD8R1G1iNXpfLsOGgVDh_HxM_NraV7AmFi4ppOO1bqhNqcljVHTME-gd_GTIhc_qebXPYBgrEPH0aSkp8QJ9g4ZjCCKyW0184Nfastg7mFsNRF36sBoFbB4Kwj3iRF1vykEnN4DJ3Ink5oZ3EtKB9kJHUzUO6MIB2Xj9X8LGYHWcFtDmhdGFH9LxBFlZ2KDt7ZOiSg1CU5unu0RoC4Do7eg2hayFZivDU6dteK9YeSEfdsaXPHNhqNiEuxUxII8wGpeIPHdgUmTMRmHdjObn1BxjBtgizf57R_bGLJ0zZz3V6-88-2WaVe4YBSK-IFYWWeaHRMxj8OD9syXfZZD_fB74gHrv8oIwr-U-szWt7Yo5HgPZmNLoAlNw_zg_IoHe388sh8MyTJAG55mB3RuTdfxKTdwqnl3mUMCu8X8XKVvIZ8m0Cp6hvj3REet7RzihFTBqtgjt0diOIT6jHsrwQHlrU-h32vVVwDbamARZQim9S7M6_d2cme84xxdJNCYsPsfaruOD-QT0-CmbnEAamxEQNVY_KsLXD-YtGrbvOjUq6gCU6iKwdD9MB4NgCIMTNu7o1Di9HsfUWVCwJHqQllC70hi7qs-7maW3yARjHMLVaEStbY8fccMFdyhRjWF65pkOb68wSINO7s2ftV_Jlx_waS14cA_mp6Dlcvw9G4y7Khf2DMS35OU9sx-z-X_cNrRquRHl-C4jpn2PewCSNot692xWeiT-r-MA5BlsW4zTOu65CVZiGpmHN3rD8zx_TuHjKjB9bdRKZCr6kf09kFXpiybSJ02n_SA_4Yafpj-XQnudFyHyGPwOr0F4tJ3u_eAecfMzNl5rUSwqn-9wpUYKBl_JyLUscZsld0hCcJOOjM0r6XMmFeSVzvMRklp4YZmlrC_hvXQvltjHviHarzeSF625xEkvs3sgsQmf0NirFJqHDWUUQfe2ffAN05D4KyDYtRgY6jodZ6Mn--sbg2ln0D0KUvKs1nsrBW_7OYaotBoaXqv8m4bgnSf-zeDSxMDOq2F3satYDEfvje7f5s8D4J6oiyjKxSh6tt4HX39Jm8kYMRnaUSEp8MSfFqB0S39xIO-74TMXKxZeqZrN5zHreboFJ8KwrVFYMam6GBloYo_DkDEe5SC_FKx-s9_pXjpOSV7f5H-LBq_y5ZiqTVUA3_UgXS_29MlkMjfSFhowgK60VL4-LdQLT-Vw0tLhmu-dwr_8rr7m8LSRbcm36liRbMwBrYF0ipdSXYZAP_m00?></g></svg>