<svg xmlns="http://www.w3.org/2000/svg" xmlns:xlink="http://www.w3.org/1999/xlink" contentStyleType="text/css" data-diagram-type="DESCRIPTION" height="2137px" preserveAspectRatio="none" style="width:521px;height:2137px;background:#FBF8EF;" version="1.1" viewBox="0 0 521 2137" width="521px" zoomAndPan="magnify"><?plantuml $version$?><defs/><g><rect fill="#FBF8EF" height="2137" style="stroke:none;stroke-width:1;" width="521" x="0" y="0"/><!--cluster VV--><g class="cluster" data-qualified-name="VV" data-source-line="28" id="ent0002"><rect fill="none" height="1904" rx="4" ry="4" style="stroke:#888888;stroke-width:1;" width="339.9" x="167.42" y="85.56"/><text fill="#000000" font-family="'Inter, Helvetica, sans-serif'" font-size="14" font-weight="700" lengthAdjust="spacing" textLength="95.5357" x="289.6022" y="102.5259">vinary-viewer</text></g><!--cluster Now--><g class="cluster" data-qualified-name="VV.Now" data-source-line="30" id="ent0003"><rect fill="none" height="1091" rx="4" ry="4" style="stroke:#1F6B53;stroke-width:1;" width="291.9" x="191.42" y="874.56"/><text fill="#000000" font-family="'Inter, Helvetica, sans-serif'" font-size="14" font-weight="700" lengthAdjust="spacing" textLength="97.6636" x="288.5382" y="891.5259">Available now</text></g><!--cluster Soon--><g class="cluster" data-qualified-name="VV.Soon" data-source-line="45" id="ent0016"><rect fill="none" height="719" rx="4" ry="4" style="stroke:#999999;stroke-width:1;stroke-dasharray:7,7;" width="287.3" x="193.72" y="131.56"/><text fill="#000000" font-family="'Inter, Helvetica, sans-serif'" font-size="14" font-weight="700" lengthAdjust="spacing" textLength="159.5714" x="257.5843" y="148.5259">Forthcoming (planned)</text></g><!--entity UC_open--><g class="entity" data-qualified-name="VV.Now.UC_open" data-source-line="31" id="ent0004"><ellipse cx="337.3683" cy="1826.5597" fill="#2D9574" rx="129.9483" ry="28.3897" style="stroke:#1F6B53;stroke-width:0.5;"/><text fill="#1A1A1A" font-family="'Inter, Helvetica, sans-serif'" font-size="14" lengthAdjust="spacing" textLength="123.7175" x="275.5096" y="1819.9561">Open a file in a tab</text><text fill="#1A1A1A" font-family="'Inter, Helvetica, sans-serif'" font-size="14" lengthAdjust="spacing" textLength="197.4272" x="238.6547" y="1839.024">(`vv README.md`, click in tree)</text></g><!--entity UC_md--><g class="entity" data-qualified-name="VV.Now.UC_md" data-source-line="32" id="ent0005"><ellipse cx="337.3723" cy="1734.5563" fill="#2D9574" rx="112.3123" ry="28.6563" style="stroke:#1F6B53;stroke-width:0.5;"/><text fill="#1A1A1A" font-family="'Inter, Helvetica, sans-serif'" font-size="14" lengthAdjust="spacing" textLength="125.9575" x="274.3935" y="1729.1539">Preview Markdown</text><text fill="#1A1A1A" font-family="'Inter, Helvetica, sans-serif'" font-size="14" lengthAdjust="spacing" textLength="162.4834" x="256.1306" y="1748.2219">(GFM + slugs + highlight)</text></g><!--entity UC_live--><g class="entity" data-qualified-name="VV.Now.UC_live" data-source-line="33" id="ent0006"><ellipse cx="337.372" cy="1919.5581" fill="#2D9574" rx="94.502" ry="29.6181" style="stroke:#1F6B53;stroke-width:0.5;"/><text fill="#1A1A1A" font-family="'Inter, Helvetica, sans-serif'" font-size="14" lengthAdjust="spacing" textLength="131.0955" x="271.8243" y="1916.5535">Live refresh on save</text><text fill="#1A1A1A" font-family="'Inter, Helvetica, sans-serif'" font-size="14" lengthAdjust="spacing" textLength="124.0955" x="275.3243" y="1935.6215">(no scroll/find loss)</text></g><!--entity UC_tabs--><g class="entity" data-qualified-name="VV.Now.UC_tabs" data-source-line="34" id="ent0007"><ellipse cx="337.3722" cy="1651.5624" fill="#2D9574" rx="87.1122" ry="19.8224" style="stroke:#1F6B53;stroke-width:0.5;"/><text fill="#1A1A1A" font-family="'Inter, Helvetica, sans-serif'" font-size="14" lengthAdjust="spacing" textLength="138.5995" x="268.0725" y="1657.5964">Browse multiple tabs</text></g><!--entity UC_img--><g class="entity" data-qualified-name="VV.Now.UC_img" data-source-line="35" id="ent0008"><ellipse cx="337.3737" cy="1569.56" fill="#2D9574" rx="64.2937" ry="27.41" style="stroke:#1F6B53;stroke-width:0.5;"/><text fill="#1A1A1A" font-family="'Inter, Helvetica, sans-serif'" font-size="14" lengthAdjust="spacing" textLength="95.7596" x="289.4939" y="1569.8878">View an image</text><text fill="#1A1A1A" font-family="'Inter, Helvetica, sans-serif'" font-size="14" lengthAdjust="spacing" textLength="42.5038" x="316.1218" y="1588.9557">(file://)</text></g><!--entity UC_text--><g class="entity" data-qualified-name="VV.Now.UC_text" data-source-line="36" id="ent0009"><ellipse cx="337.3705" cy="1477.5647" fill="#2D9574" rx="75.5305" ry="29.4347" style="stroke:#1F6B53;stroke-width:0.5;"/><text fill="#1A1A1A" font-family="'Inter, Helvetica, sans-serif'" font-size="14" lengthAdjust="spacing" textLength="95.9416" x="289.3996" y="1473.3054">View plain text</text><text fill="#1A1A1A" font-family="'Inter, Helvetica, sans-serif'" font-size="14" lengthAdjust="spacing" textLength="104.6356" x="285.0527" y="1492.3734">(escaped &lt;pre&gt;)</text></g><!--entity UC_find--><g class="entity" data-qualified-name="VV.Now.UC_find" data-source-line="37" id="ent0010"><ellipse cx="337.3735" cy="1384.5555" fill="#2D9574" rx="81.5235" ry="28.2155" style="stroke:#1F6B53;stroke-width:0.5;"/><text fill="#1A1A1A" font-family="'Inter, Helvetica, sans-serif'" font-size="14" lengthAdjust="spacing" textLength="80.6537" x="297.0467" y="1378.4872">Find in page</text><text fill="#1A1A1A" font-family="'Inter, Helvetica, sans-serif'" font-size="14" lengthAdjust="spacing" textLength="118.7585" x="277.9942" y="1397.5551">(Ctrl+F, &#8593;/&#8595; cycle)</text></g><!--entity UC_hist--><g class="entity" data-qualified-name="VV.Now.UC_hist" data-source-line="38" id="ent0011"><ellipse cx="337.3668" cy="1293.5578" fill="#2D9574" rx="73.1368" ry="27.8378" style="stroke:#1F6B53;stroke-width:0.5;"/><text fill="#1A1A1A" font-family="'Inter, Helvetica, sans-serif'" font-size="14" lengthAdjust="spacing" textLength="107.6876" x="283.523" y="1293.2093">Navigate history</text><text fill="#1A1A1A" font-family="'Inter, Helvetica, sans-serif'" font-size="14" lengthAdjust="spacing" textLength="62.6888" x="306.0224" y="1312.2773">(Alt+&#8592;/&#8594;)</text></g><!--entity UC_toc--><g class="entity" data-qualified-name="VV.Now.UC_toc" data-source-line="39" id="ent0012"><ellipse cx="337.3663" cy="1203.5601" fill="#2D9574" rx="114.9463" ry="27.3001" style="stroke:#1F6B53;stroke-width:0.5;"/><text fill="#1A1A1A" font-family="'Inter, Helvetica, sans-serif'" font-size="14" lengthAdjust="spacing" textLength="175.6853" x="249.5237" y="1204.0645">Jump via Table of Contents</text><text fill="#1A1A1A" font-family="'Inter, Helvetica, sans-serif'" font-size="14" lengthAdjust="spacing" textLength="70.2657" x="302.2335" y="1223.1324">(scroll-spy)</text></g><!--entity UC_theme--><g class="entity" data-qualified-name="VV.Now.UC_theme" data-source-line="40" id="ent0013"><ellipse cx="337.3723" cy="1112.5569" fill="#2D9574" rx="79.9523" ry="28.5569" style="stroke:#1F6B53;stroke-width:0.5;"/><text fill="#1A1A1A" font-family="'Inter, Helvetica, sans-serif'" font-size="14" lengthAdjust="spacing" textLength="114.8275" x="279.9586" y="1111.108">Switch theme live</text><text fill="#1A1A1A" font-family="'Inter, Helvetica, sans-serif'" font-size="14" lengthAdjust="spacing" textLength="86.6722" x="294.0362" y="1130.176">(dark &#8646; light)</text></g><!--entity UC_tree--><g class="entity" data-qualified-name="VV.Now.UC_tree" data-source-line="41" id="ent0014"><ellipse cx="337.3667" cy="1021.556" fill="#2D9574" rx="81.9167" ry="27.326" style="stroke:#1F6B53;stroke-width:0.5;"/><text fill="#1A1A1A" font-family="'Inter, Helvetica, sans-serif'" font-size="14" lengthAdjust="spacing" textLength="123.7175" x="275.508" y="1022.0186">Browse git file tree</text><text fill="#1A1A1A" font-family="'Inter, Helvetica, sans-serif'" font-size="14" lengthAdjust="spacing" textLength="50.8198" x="311.9568" y="1041.0866">(+ filter)</text></g><!--entity UC_mark--><g class="entity" data-qualified-name="VV.Now.UC_mark" data-source-line="42" id="ent0015"><ellipse cx="337.3691" cy="935.5638" fill="#2D9574" rx="105.4691" ry="23.4938" style="stroke:#1F6B53;stroke-width:0.5;"/><text fill="#1A1A1A" font-family="'Inter, Helvetica, sans-serif'" font-size="14" lengthAdjust="spacing" textLength="181.4113" x="246.6635" y="941.5978">See empty-state watermark</text></g><!--entity UC_bin--><g class="entity" data-qualified-name="VV.Soon.UC_bin" data-source-line="46" id="ent0017"><ellipse cx="337.3748" cy="796.5569" fill="#DDDDDD" rx="72.3748" ry="37.6069" style="stroke:#999999;stroke-width:0.5;stroke-dasharray:7,7;"/><text fill="#555555" font-family="'Inter, Helvetica, sans-serif'" font-size="14" font-style="italic" lengthAdjust="spacing" textLength="64.3298" x="305.2099" y="781.4623">&#171;planned&#187;</text><text fill="#555555" font-family="'Inter, Helvetica, sans-serif'" font-size="14" lengthAdjust="spacing" textLength="114.6735" x="280.0381" y="800.5302">vv / vinary-viewer</text><text fill="#555555" font-family="'Inter, Helvetica, sans-serif'" font-size="14" lengthAdjust="spacing" textLength="89.0396" x="292.855" y="819.5981">launcher bins</text></g><!--entity UC_keys--><g class="entity" data-qualified-name="VV.Soon.UC_keys" data-source-line="47" id="ent0018"><ellipse cx="337.3718" cy="672.5622" fill="#DDDDDD" rx="96.8318" ry="51.7922" style="stroke:#999999;stroke-width:0.5;stroke-dasharray:7,7;"/><text fill="#555555" font-family="'Inter, Helvetica, sans-serif'" font-size="14" font-style="italic" lengthAdjust="spacing" textLength="64.3298" x="305.207" y="642.2942">&#171;planned&#187;</text><text fill="#555555" font-family="'Inter, Helvetica, sans-serif'" font-size="14" lengthAdjust="spacing" textLength="134.0355" x="270.3541" y="661.3621">Custom keybindings</text><text fill="#555555" font-family="'Inter, Helvetica, sans-serif'" font-size="14" lengthAdjust="spacing" textLength="133.0555" x="270.8441" y="680.43">(vim/emacs, palette)</text><text fill="#555555" font-family="'Inter, Helvetica, sans-serif'" font-size="14" lengthAdjust="spacing" textLength="146.6774" x="264.0331" y="699.4979">&#8212; being implemented</text></g><!--entity UC_pdf--><g class="entity" data-qualified-name="VV.Soon.UC_pdf" data-source-line="48" id="ent0019"><ellipse cx="337.3736" cy="546.5579" fill="#DDDDDD" rx="69.4236" ry="39.1779" style="stroke:#999999;stroke-width:0.5;stroke-dasharray:7,7;"/><text fill="#555555" font-family="'Inter, Helvetica, sans-serif'" font-size="14" font-style="italic" lengthAdjust="spacing" textLength="64.3298" x="305.2087" y="530.4725">&#171;planned&#187;</text><text fill="#555555" font-family="'Inter, Helvetica, sans-serif'" font-size="14" lengthAdjust="spacing" textLength="105.0276" x="284.8598" y="549.5404">Native PDF view</text><text fill="#555555" font-family="'Inter, Helvetica, sans-serif'" font-size="14" lengthAdjust="spacing" textLength="94.0516" x="290.3478" y="568.6083">(BrowserView)</text></g><!--entity UC_diag--><g class="entity" data-qualified-name="VV.Soon.UC_diag" data-source-line="49" id="ent0020"><ellipse cx="337.3727" cy="433.5555" fill="#DDDDDD" rx="127.6527" ry="39.2155" style="stroke:#999999;stroke-width:0.5;stroke-dasharray:7,7;"/><text fill="#555555" font-family="'Inter, Helvetica, sans-serif'" font-size="14" font-style="italic" lengthAdjust="spacing" textLength="64.3298" x="305.2078" y="414.1343">&#171;planned&#187;</text><text fill="#555555" font-family="'Inter, Helvetica, sans-serif'" font-size="14" lengthAdjust="spacing" textLength="126.1535" x="274.2959" y="433.2023">Diagram rendering</text><text fill="#555555" font-family="'Inter, Helvetica, sans-serif'" font-size="14" lengthAdjust="spacing" textLength="196.8938" x="238.9258" y="452.2702">(d2/PlantUML/Mermaid&#8594;SVG)</text></g><!--entity UC_src--><g class="entity" data-qualified-name="VV.Soon.UC_src" data-source-line="50" id="ent0021"><ellipse cx="337.3704" cy="321.5603" fill="#DDDDDD" rx="64.1204" ry="37.7003" style="stroke:#999999;stroke-width:0.5;stroke-dasharray:7,7;"/><text fill="#555555" font-family="'Inter, Helvetica, sans-serif'" font-size="14" font-style="italic" lengthAdjust="spacing" textLength="64.3298" x="305.2055" y="307.6216">&#171;planned&#187;</text><text fill="#555555" font-family="'Inter, Helvetica, sans-serif'" font-size="14" lengthAdjust="spacing" textLength="100.7576" x="286.9916" y="326.6895">Source preview</text><text fill="#555555" font-family="'Inter, Helvetica, sans-serif'" font-size="14" lengthAdjust="spacing" textLength="73.6397" x="300.5505" y="345.7574">(tree-sitter)</text></g><!--entity UC_gram--><g class="entity" data-qualified-name="VV.Soon.UC_gram" data-source-line="51" id="ent0022"><ellipse cx="337.3694" cy="209.5614" fill="#DDDDDD" rx="99.7194" ry="39.5414" style="stroke:#999999;stroke-width:0.5;stroke-dasharray:7,7;"/><text fill="#555555" font-family="'Inter, Helvetica, sans-serif'" font-size="14" font-style="italic" lengthAdjust="spacing" textLength="64.3298" x="305.2045" y="190.6678">&#171;planned&#187;</text><text fill="#555555" font-family="'Inter, Helvetica, sans-serif'" font-size="14" lengthAdjust="spacing" textLength="117.8656" x="278.4366" y="209.7357">Grammar registry</text><text fill="#555555" font-family="'Inter, Helvetica, sans-serif'" font-size="14" lengthAdjust="spacing" textLength="151.4094" x="261.6647" y="228.8036">(/.config/vinary-viewer)</text></g><!--entity User--><g class="entity" data-qualified-name="User" data-source-line="26" id="ent0001"><ellipse cx="64.2398" cy="1125.49" fill="#9F8766" rx="16" ry="16" style="stroke:#181818;stroke-width:0.5;"/><path d="M64.2398,1145.49 C68.2398,1145.49 71.2398,1145.49 75.2398,1141.49 C83.2398,1141.49 91.2398,1149.49 91.2398,1157.49 L91.2398,1161.49 C91.2398,1165.49 87.2398,1169.49 83.2398,1169.49 L45.2398,1169.49 C41.2398,1169.49 37.2398,1165.49 37.2398,1161.49 L37.2398,1157.49 C37.2398,1149.49 45.2398,1141.49 53.2398,1141.49 C57.2398,1145.49 60.2398,1145.49 64.2398,1145.49" fill="#9F8766" style="stroke:#181818;stroke-width:0.5;"/><text fill="#000000" font-family="'Inter, Helvetica, sans-serif'" font-size="14" lengthAdjust="spacing" textLength="30.6179" x="6" y="1184.9559">User</text><text fill="#000000" font-family="'Inter, Helvetica, sans-serif'" font-size="14" lengthAdjust="spacing" textLength="116.4796" x="6" y="1204.0239">(reads/edits docs)</text></g><g class="entity" data-qualified-name="GMN41" data-source-line="75" id="ent0042"><path d="M182.48,10 L182.48,65.118 A4,4 0 0 0 186.48,69.118 L488.2623,69.118 A4,4 0 0 0 492.2623,65.118 L492.2623,16 L482.2623,6 L186.48,6 A4,4 0 0 0 182.48,10" fill="#FFF6D6" style="stroke:#7F6B14;stroke-width:0.5;"/><path d="M482.2623,6 L482.2623,14 A2,2 0 0 0 484.2623,16 L492.2623,16 L482.2623,6" fill="#FFF6D6" style="stroke:#7F6B14;stroke-width:1;"/><text fill="#000000" font-family="'Inter, Helvetica, sans-serif'" font-size="13" lengthAdjust="spacing" textLength="264.8622" x="188.48" y="24.897">Flagship capability: a file change re-renders</text><text fill="#000000" font-family="'Inter, Helvetica, sans-serif'" font-size="13" lengthAdjust="spacing" textLength="285.2463" x="188.48" y="42.603">the body but touches only :doc/* in DataScript,</text><text fill="#000000" font-family="'Inter, Helvetica, sans-serif'" font-size="13" lengthAdjust="spacing" textLength="288.7823" x="188.48" y="60.309">never :ui/* &#8212; so scroll, find, and theme survive.</text></g><!--link User to UC_open--><g class="link" data-entity-1="ent0001" data-entity-2="ent0004" data-link-type="dependency" data-source-line="55" id="lnk23"><path d="M65.94,1208.49 C68.84,1340.88 83.66,1696.48 159.42,1780.56 C174.61,1797.42 190.3711,1806.8853 212.0411,1814.0253" fill="none" id="User-to-UC_open" style="stroke:#555555;stroke-width:1.3;"/><polygon fill="#555555" points="216.79,1815.59,209.4938,1808.9745,212.0411,1814.0253,206.9903,1816.5726,216.79,1815.59" style="stroke:#555555;stroke-width:1.3;stroke-linejoin:miter;stroke-miterlimit:10;"/></g><!--link User to UC_md--><g class="link" data-entity-1="ent0001" data-entity-2="ent0005" data-link-type="dependency" data-source-line="56" id="lnk24"><path d="M67.4,1208.35 C73.54,1326.46 95.03,1618.91 159.42,1688.56 C177.63,1708.25 198.2651,1718.6856 224.2151,1725.5256" fill="none" id="User-to-UC_md" style="stroke:#555555;stroke-width:1.3;"/><polygon fill="#555555" points="229.05,1726.8,221.3668,1720.6382,224.2151,1725.5256,219.3277,1728.374,229.05,1726.8" style="stroke:#555555;stroke-width:1.3;stroke-linejoin:miter;stroke-miterlimit:10;"/></g><!--link User to UC_live--><g class="link" data-entity-1="ent0001" data-entity-2="ent0006" data-link-type="dependency" data-source-line="57" id="lnk25"><path d="M64.87,1208.58 C64.85,1354.18 72.48,1773.67 159.42,1872.56 C180.62,1896.67 207.7265,1908.0925 238.7265,1914.2725" fill="none" id="User-to-UC_live" style="stroke:#555555;stroke-width:1.3;"/><polygon fill="#555555" points="243.63,1915.25,235.5857,1909.5676,238.7265,1914.2725,234.0216,1917.4132,243.63,1915.25" style="stroke:#555555;stroke-width:1.3;stroke-linejoin:miter;stroke-miterlimit:10;"/></g><!--link User to UC_tabs--><g class="link" data-entity-1="ent0001" data-entity-2="ent0007" data-link-type="dependency" data-source-line="58" id="lnk26"><path d="M68.75,1208.24 C77.28,1314.27 102.69,1557.69 159.42,1614.56 C183.03,1638.22 212.6587,1647.9789 245.0087,1652.0289" fill="none" id="User-to-UC_tabs" style="stroke:#555555;stroke-width:1.3;"/><polygon fill="#555555" points="249.97,1652.65,241.5366,1647.563,245.0087,1652.0289,240.5428,1655.501,249.97,1652.65" style="stroke:#555555;stroke-width:1.3;stroke-linejoin:miter;stroke-miterlimit:10;"/></g><!--link User to UC_img--><g class="link" data-entity-1="ent0001" data-entity-2="ent0008" data-link-type="dependency" data-source-line="59" id="lnk27"><path d="M71.74,1208.46 C84.38,1297.88 114.99,1480.26 159.42,1524.56 C189.05,1554.1 230.1946,1564.6542 267.9246,1568.4142" fill="none" id="User-to-UC_img" style="stroke:#555555;stroke-width:1.3;"/><polygon fill="#555555" points="272.9,1568.91,264.341,1564.0372,267.9246,1568.4142,263.5477,1571.9978,272.9,1568.91" style="stroke:#555555;stroke-width:1.3;stroke-linejoin:miter;stroke-miterlimit:10;"/></g><!--link User to UC_text--><g class="link" data-entity-1="ent0001" data-entity-2="ent0009" data-link-type="dependency" data-source-line="60" id="lnk28"><path d="M68.69,1208.57 C75.64,1269.68 96.54,1372.15 159.42,1430.56 C187.14,1456.3 222.3789,1467.505 257.4489,1472.935" fill="none" id="User-to-UC_text" style="stroke:#555555;stroke-width:1.3;"/><polygon fill="#555555" points="262.39,1473.7,254.108,1468.37,257.4489,1472.935,252.8839,1476.2758,262.39,1473.7" style="stroke:#555555;stroke-width:1.3;stroke-linejoin:miter;stroke-miterlimit:10;"/></g><!--link User to UC_find--><g class="link" data-entity-1="ent0001" data-entity-2="ent0010" data-link-type="dependency" data-source-line="61" id="lnk29"><path d="M78.87,1208.25 C92.62,1249.13 117.87,1305.53 159.42,1338.56 C187.25,1360.68 219.6802,1371.3582 252.8902,1377.3782" fill="none" id="User-to-UC_find" style="stroke:#555555;stroke-width:1.3;"/><polygon fill="#555555" points="257.81,1378.27,249.6678,1372.7289,252.8902,1377.3782,248.2409,1380.6006,257.81,1378.27" style="stroke:#555555;stroke-width:1.3;stroke-linejoin:miter;stroke-miterlimit:10;"/></g><!--link User to UC_hist--><g class="link" data-entity-1="ent0001" data-entity-2="ent0011" data-link-type="dependency" data-source-line="62" id="lnk30"><path d="M107.84,1208.22 C122.81,1223.07 140.63,1238.15 159.42,1248.56 C192.7,1266.99 228.7491,1277.0904 262.8791,1283.6204" fill="none" id="User-to-UC_hist" style="stroke:#555555;stroke-width:1.3;"/><polygon fill="#555555" points="267.79,1284.56,259.702,1278.94,262.8791,1283.6204,258.1987,1286.7975,267.79,1284.56" style="stroke:#555555;stroke-width:1.3;stroke-linejoin:miter;stroke-miterlimit:10;"/></g><!--link User to UC_toc--><g class="link" data-entity-1="ent0001" data-entity-2="ent0012" data-link-type="dependency" data-source-line="63" id="lnk31"><path d="M122.74,1168.1 C157.4,1173.86 197.4675,1180.501 237.2175,1187.101" fill="none" id="User-to-UC_toc" style="stroke:#555555;stroke-width:1.3;"/><polygon fill="#555555" points="242.15,1187.92,233.9267,1182.4999,237.2175,1187.101,232.6164,1190.3918,242.15,1187.92" style="stroke:#555555;stroke-width:1.3;stroke-linejoin:miter;stroke-miterlimit:10;"/></g><!--link User to UC_theme--><g class="link" data-entity-1="ent0001" data-entity-2="ent0013" data-link-type="dependency" data-source-line="64" id="lnk32"><path d="M122.74,1148.8 C164.09,1141.79 215.2005,1133.1164 259.5205,1125.5964" fill="none" id="User-to-UC_theme" style="stroke:#555555;stroke-width:1.3;"/><polygon fill="#555555" points="264.45,1124.76,254.9077,1122.3219,259.5205,1125.5964,256.246,1130.2092,264.45,1124.76" style="stroke:#555555;stroke-width:1.3;stroke-linejoin:miter;stroke-miterlimit:10;"/></g><!--link User to UC_tree--><g class="link" data-entity-1="ent0001" data-entity-2="ent0014" data-link-type="dependency" data-source-line="65" id="lnk33"><path d="M106.73,1108.73 C121.88,1093.25 140.09,1077.41 159.42,1066.56 C190.38,1049.19 223.2199,1039.3947 255.8799,1032.7647" fill="none" id="User-to-UC_tree" style="stroke:#555555;stroke-width:1.3;"/><polygon fill="#555555" points="260.78,1031.77,251.1641,1029.6404,255.8799,1032.7647,252.7557,1037.4805,260.78,1031.77" style="stroke:#555555;stroke-width:1.3;stroke-linejoin:miter;stroke-miterlimit:10;"/></g><!--link User to UC_mark--><g class="link" data-entity-1="ent0001" data-entity-2="ent0015" data-link-type="dependency" data-source-line="66" id="lnk34"><path d="M78.23,1108.87 C91.69,1067.3 116.86,1009.63 159.42,976.56 C181.59,959.34 204.846,950.2106 232.126,944.2306" fill="none" id="User-to-UC_mark" style="stroke:#555555;stroke-width:1.3;"/><polygon fill="#555555" points="237.01,943.16,227.3622,941.1799,232.126,944.2306,229.0752,948.9943,237.01,943.16" style="stroke:#555555;stroke-width:1.3;stroke-linejoin:miter;stroke-miterlimit:10;"/></g><!--link User to UC_bin--><g class="link" data-entity-1="ent0001" data-entity-2="ent0017" data-link-type="dependency" data-source-line="67" id="lnk35"><path d="M72.46,1108.72 C82.94,1051.79 107.14,958.54 159.42,896.56 C190.48,859.74 234.1171,835.7127 272.3971,819.4727" fill="none" id="User-to-UC_bin" style="stroke:#555555;stroke-width:1.3;stroke-dasharray:7,7;"/><polygon fill="#555555" points="277,817.52,267.1526,817.3526,272.3971,819.4727,270.277,824.7173,277,817.52" style="stroke:#555555;stroke-width:1.3;stroke-linejoin:miter;stroke-miterlimit:10;"/></g><!--link User to UC_keys--><g class="link" data-entity-1="ent0001" data-entity-2="ent0018" data-link-type="dependency" data-source-line="68" id="lnk36"><path d="M70.65,1108.54 C82.21,1010.2 112.16,796.48 159.42,741.56 C181.47,715.94 209.4743,701.3238 240.8343,691.1438" fill="none" id="User-to-UC_keys" style="stroke:#555555;stroke-width:1.3;stroke-dasharray:7,7;"/><polygon fill="#555555" points="245.59,689.6,235.7947,688.5742,240.8343,691.1438,238.2648,696.1834,245.59,689.6" style="stroke:#555555;stroke-width:1.3;stroke-linejoin:miter;stroke-miterlimit:10;"/></g><!--link User to UC_pdf--><g class="link" data-entity-1="ent0001" data-entity-2="ent0019" data-link-type="dependency" data-source-line="69" id="lnk37"><path d="M67.24,1108.49 C73.11,986.61 94.17,678.92 159.42,603.56 C186.46,572.33 225.7722,558.9267 263.2522,552.4867" fill="none" id="User-to-UC_pdf" style="stroke:#555555;stroke-width:1.3;stroke-dasharray:7,7;"/><polygon fill="#555555" points="268.18,551.64,258.6326,549.2219,263.2522,552.4867,259.9874,557.1063,268.18,551.64" style="stroke:#555555;stroke-width:1.3;stroke-linejoin:miter;stroke-miterlimit:10;"/></g><!--link User to UC_diag--><g class="link" data-entity-1="ent0001" data-entity-2="ent0020" data-link-type="dependency" data-source-line="70" id="lnk38"><path d="M65.59,1108.65 C67.58,969.82 80.27,583.14 159.42,489.56 C175.34,470.74 192.8448,459.8615 216.1548,451.4815" fill="none" id="User-to-UC_diag" style="stroke:#555555;stroke-width:1.3;stroke-dasharray:7,7;"/><polygon fill="#555555" points="220.86,449.79,211.0375,449.0706,216.1548,451.4815,213.7439,456.5989,220.86,449.79" style="stroke:#555555;stroke-width:1.3;stroke-linejoin:miter;stroke-miterlimit:10;"/></g><!--link User to UC_src--><g class="link" data-entity-1="ent0001" data-entity-2="ent0021" data-link-type="dependency" data-source-line="71" id="lnk39"><path d="M68.13,1108.59 C78,945.03 112.43,432.96 159.42,376.56 C187.12,343.32 229.6064,330.4994 268.3964,325.1794" fill="none" id="User-to-UC_src" style="stroke:#555555;stroke-width:1.3;stroke-dasharray:7,7;"/><polygon fill="#555555" points="273.35,324.5,263.89,321.76,268.3964,325.1794,264.977,329.6858,273.35,324.5" style="stroke:#555555;stroke-width:1.3;stroke-linejoin:miter;stroke-miterlimit:10;"/></g><!--link User to UC_gram--><g class="link" data-entity-1="ent0001" data-entity-2="ent0022" data-link-type="dependency" data-source-line="72" id="lnk40"><path d="M67.37,1108.56 C75.38,930.21 106.04,332.28 159.42,266.56 C179.47,241.88 205.4469,229.0412 235.7769,221.0012" fill="none" id="User-to-UC_gram" style="stroke:#555555;stroke-width:1.3;stroke-dasharray:7,7;"/><polygon fill="#555555" points="240.61,219.72,230.8855,218.1596,235.7769,221.0012,232.9354,225.8926,240.61,219.72" style="stroke:#555555;stroke-width:1.3;stroke-linejoin:miter;stroke-miterlimit:10;"/></g><!--link UC_live to GMN41--><g class="link" data-entity-1="ent0006" data-entity-2="ent0042" data-link-type="association" data-source-line="75" id="lnk43"><path d="M242.79,1917.54 C201.09,1910.85 157.76,1894.13 140.95,1855.06 C122.47,1812.09 122.47,214.03 140.95,171.06 C161.27,123.81 208.43,90.91 251.45,69.59" fill="none" id="UC_live-GMN41" style="stroke:#555555;stroke-width:1.3;stroke-dasharray:7,7;"/></g><g class="legend" data-source-line="80"><rect fill="none" height="109.3396" rx="4" ry="4" style="stroke:#000000;stroke-width:1;" width="460.7844" x="41.5356" y="2009.56"/><text fill="#000000" font-family="'Inter, Helvetica, sans-serif'" font-size="14" font-weight="700" lengthAdjust="spacing" textLength="46.0178" x="50.1756" y="2031.5259">Colour</text><text fill="#000000" font-family="'Inter, Helvetica, sans-serif'" font-size="14" font-weight="700" lengthAdjust="spacing" textLength="57.3438" x="103.4734" y="2031.5259">Concept</text><rect fill="#2D9574" height="19.0679" style="stroke:none;stroke-width:1;" width="53.2978" x="46.5356" y="2035.6279"/><text fill="#000000" font-family="'Inter, Helvetica, sans-serif'" font-size="14" lengthAdjust="spacing" textLength="3.64" x="46.5356" y="2050.5939">&#160;</text><text fill="#000000" font-family="'Inter, Helvetica, sans-serif'" font-size="14" lengthAdjust="spacing" textLength="261.309" x="103.4734" y="2050.5939">Available now (renderer-served feature)</text><rect fill="#DDDDDD" height="19.0679" style="stroke:none;stroke-width:1;" width="53.2978" x="46.5356" y="2054.6958"/><text fill="#000000" font-family="'Inter, Helvetica, sans-serif'" font-size="14" lengthAdjust="spacing" textLength="3.64" x="46.5356" y="2069.6618">&#160;</text><text fill="#000000" font-family="'Inter, Helvetica, sans-serif'" font-size="14" lengthAdjust="spacing" textLength="291.6888" x="103.4734" y="2069.6618">Forthcoming (planned) &#8212; dashed &#171;planned&#187;</text><rect fill="#9F8766" height="19.0679" style="stroke:none;stroke-width:1;" width="53.2978" x="46.5356" y="2073.7638"/><text fill="#000000" font-family="'Inter, Helvetica, sans-serif'" font-size="14" lengthAdjust="spacing" textLength="3.64" x="46.5356" y="2088.7297">&#160;</text><text fill="#000000" font-family="'Inter, Helvetica, sans-serif'" font-size="14" lengthAdjust="spacing" textLength="184.3933" x="103.4734" y="2088.7297">User actor (reads/edits files)</text><line style="stroke:#000000;stroke-width:1;" x1="46.5356" x2="398.8022" y1="2016.56" y2="2016.56"/><line style="stroke:#000000;stroke-width:1;" x1="46.5356" x2="398.8022" y1="2035.6279" y2="2035.6279"/><line style="stroke:#000000;stroke-width:1;" x1="46.5356" x2="398.8022" y1="2054.6958" y2="2054.6958"/><line style="stroke:#000000;stroke-width:1;" x1="46.5356" x2="398.8022" y1="2073.7638" y2="2073.7638"/><line style="stroke:#000000;stroke-width:1;" x1="46.5356" x2="398.8022" y1="2092.8317" y2="2092.8317"/><line style="stroke:#000000;stroke-width:1;" x1="46.5356" x2="46.5356" y1="2016.56" y2="2092.8317"/><line style="stroke:#000000;stroke-width:1;" x1="99.8334" x2="99.8334" y1="2016.56" y2="2092.8317"/><line style="stroke:#000000;stroke-width:1;" x1="398.8022" x2="398.8022" y1="2016.56" y2="2092.8317"/><text fill="#000000" font-family="'Inter, Helvetica, sans-serif'" font-size="14" lengthAdjust="spacing" textLength="450.7844" x="46.5356" y="2109.7976">&#171;being implemented&#187; = custom-keybinding system is mid-migration.</text></g></g></svg>